<svg preserveAspectRatio="none" width="100%" height="100%" overflow="visible" style="display: block;" viewBox="0 0 82 33.0001" fill="none" xmlns="http://www.w3.org/2000/svg">
<g id="Group 8">
<path id="Vector" d="M81.9256 16.1245C81.9256 17.4189 82.0744 18.7133 81.9256 20.0077C81.4419 23.5483 78.7258 25.9468 75.1912 26.0229C74.2238 26.0229 73.8517 26.2894 73.7029 27.3174C73.2936 30.0204 70.8752 32.0001 68.1591 32.0001C65.3686 32.0001 62.913 30.0204 62.5037 27.2793C62.3549 26.2894 61.9828 26.0229 61.0154 26.0229C53.3509 26.061 45.6863 26.061 37.9845 26.0229C37.0544 26.0229 36.6451 26.2514 36.4963 27.2793C36.0498 30.0965 33.7058 32.0001 30.8781 32.0001C28.0876 32.0001 25.7436 30.0204 25.3343 27.1651C25.1855 26.2514 24.8506 25.9468 23.9948 26.0229C23.1763 26.0991 22.3578 26.0229 21.5392 26.0229C19.0836 25.9468 17.3349 24.3859 17.1116 21.9113C16.9628 20.3123 16.9628 18.6752 17.1116 17.0382C17.2977 14.9062 18.5999 13.5356 20.6835 12.9646C23.66 12.2031 26.6737 11.6321 29.5386 10.6042C31.5106 9.91887 33.2965 8.7006 35.1196 7.59654C37.2032 6.34019 39.1752 4.93156 41.1843 3.63715C42.7842 2.60923 44.5701 2.00009 46.5049 2.00009C53.2393 2.00009 59.9737 2.00009 66.7081 2.00009C68.3824 2.00009 69.6846 2.57116 70.7636 3.90364C72.0286 5.42649 73.3309 6.91126 74.5959 8.4341C75.6377 9.69045 76.9027 10.3377 78.5398 10.2996C81.4047 10.2996 82 10.9468 82 13.8402C82 14.6016 82 15.325 82 16.0864C82 16.0864 81.9628 16.0864 81.9256 16.0864V16.1245Z" fill="var(--fill-0, black)"/>
<path id="Vector_2" d="M6.12448 30.0557H8.96266V33.0001H0V30.0939H2.87552V2.94447H0V9.15527e-05H9V2.82976H6.12448V30.0557Z" fill="var(--fill-0, black)"/>
</g>
</svg>
