<svg preserveAspectRatio="none" width="100%" height="100%" overflow="visible" style="display: block;" viewBox="0 0 191.705 80" fill="none" xmlns="http://www.w3.org/2000/svg">
<g id="Group">
<path id="Vector" d="M35.53 58.5692C34.8885 58.5692 34.287 58.2415 33.9395 57.6999C33.592 57.1583 33.5385 56.4762 33.8059 55.8878L33.9462 55.5735C34.0598 55.3194 34.1534 55.0988 34.267 54.8848C34.5276 54.3967 34.7882 53.9085 35.0488 53.4204C35.6102 52.384 36.1448 51.401 36.626 50.3846C37.615 48.2917 39.4528 48.2917 40.0542 48.2917C43.9904 48.3051 47.9131 48.3118 51.8292 48.3118C56.8079 48.3118 61.7798 48.3051 66.7585 48.285C67.6606 48.285 68.5895 48.1646 69.4516 47.944C70.4139 47.7033 70.8149 47.048 70.6545 45.9981C70.6411 45.8912 70.6077 45.8377 70.601 45.831C70.601 45.831 70.581 45.8176 70.5275 45.8109C69.1709 45.5969 67.7542 45.4766 66.3174 45.4498C65.5556 45.4365 64.7937 45.4298 64.0386 45.4298C63.4572 45.4298 61.1049 45.4431 60.5168 45.4431C59.0533 45.4431 57.9372 45.4298 56.888 45.3896C54.9835 45.3228 53.2192 45.062 51.6354 44.614C47.6926 43.4973 45.4672 40.7156 45.2066 36.5832C44.9393 32.3572 46.2358 28.7865 49.0559 25.9714C51.6555 23.3836 54.8899 22.8086 57.1019 22.5946C59.2203 22.394 61.459 22.2937 63.9317 22.287C68.79 22.2736 73.655 22.2669 78.5201 22.2669H95.9754C96.6971 22.2669 97.3587 22.6882 97.6795 23.3368C97.9936 23.9921 97.9134 24.7678 97.4656 25.3361L92.6541 31.4813C92.5672 31.615 92.4603 31.742 92.3333 31.849C91.9858 32.1633 91.5113 32.3505 91.0435 32.3505C91.0302 32.3505 91.0168 32.3505 90.9968 32.3505C90.8698 32.3505 90.7428 32.3305 90.6158 32.3037C90.4287 32.2903 90.2416 32.277 90.0478 32.277H85.0558C76.816 32.277 68.5828 32.2903 60.343 32.3171C59.3807 32.3171 58.405 32.4308 57.5095 32.6381C56.6608 32.832 56.1463 33.6544 56.2866 34.5839C56.3334 34.9115 56.4269 34.9383 56.5071 34.9584C57.2823 35.179 58.0174 35.2994 58.6991 35.3127C60.6437 35.3529 62.5817 35.3796 64.5264 35.4064C66.9589 35.4398 69.4783 35.4665 71.9576 35.5401C73.1204 35.5735 74.3835 35.8143 75.7133 36.2623C80.2643 37.8002 82.5832 41.8591 81.7478 46.8674C81.4404 48.713 80.9927 50.2777 80.3712 51.6351C78.7607 55.159 75.6198 57.3522 71.296 57.9674C68.663 58.3418 66.2907 58.5291 64.0386 58.5424C59.8552 58.5692 55.6785 58.5759 51.4951 58.5759C49.0225 58.5759 35.5233 58.5625 35.5233 58.5625L35.53 58.5692Z" fill="var(--fill-0, white)"/>
<path id="Vector_2" d="M171.436 52.21C165.883 52.21 161.252 52.1966 156.861 52.1632C154.368 52.1431 152.23 51.7018 150.319 50.8124C147.619 49.5487 146.222 47.2284 146.042 43.7111C146.015 43.1896 146.202 42.6881 146.563 42.3069C146.924 41.9325 147.418 41.7185 147.933 41.7185H150.553L158.926 41.7252C162.04 41.7252 165.729 41.7185 169.525 41.6516C171.53 41.6182 173.535 41.3307 175.326 40.8292C178.654 39.893 180.431 37.5125 180.458 33.9485C180.491 30.3912 178.674 27.79 175.466 26.8205C173.889 26.339 172.078 26.0716 170.066 26.0181C168.576 25.9779 167.026 25.9579 165.462 25.9579C163.116 25.9579 160.624 26.0047 158.064 26.0916C154.175 26.2253 150.947 27.1281 148.194 28.8399C145.353 30.6118 143.509 33.1528 142.553 36.6232C142.012 38.5958 140.508 38.89 139.666 38.89H139.519C138.758 38.8633 137.996 38.8499 137.234 38.8499C136.472 38.8499 135.77 38.8633 135.042 38.89H134.862C133.164 38.89 132.095 37.8603 131.988 36.1284C131.854 33.8549 131.233 32.0227 130.09 30.5249C128.56 28.5122 126.334 27.2417 123.287 26.6533C121.028 26.2187 118.83 25.9779 116.731 25.9445C114.339 25.9044 111.739 25.891 108.538 25.891C106.747 25.891 104.956 25.891 103.159 25.9044C101.361 25.9044 99.5633 25.9178 97.7723 25.9178H96.7699C96.0615 25.9178 95.4133 25.5232 95.0859 24.888L94.9656 24.6607C94.5713 23.8984 94.745 22.9622 95.3799 22.3872C95.7942 22.0127 96.2019 21.6316 96.6095 21.2504C97.5117 20.4079 98.4473 19.5453 99.4363 18.7228C108.966 10.8325 120.454 5.2424 133.572 2.11969C139.573 0.688733 145.173 0 150.706 0C151.428 0 152.143 0.0133735 152.872 0.0334336C163.557 0.394517 172.231 2.90204 179.395 7.67636C185.844 11.9759 189.807 17.7934 191.17 24.9549C191.317 25.7305 191.431 26.5062 191.538 27.2551C191.585 27.5894 191.638 27.9238 191.685 28.2514C191.698 28.345 191.705 28.4453 191.705 28.5456V32.1164C191.705 32.23 191.698 32.337 191.678 32.444C191.578 32.999 191.491 33.5607 191.398 34.1157C191.19 35.3728 190.983 36.67 190.689 37.9606C189.693 42.3337 187.715 46.5597 184.661 50.8726C184.107 51.655 183.037 52.1966 182.055 52.1966C178.513 52.2033 174.965 52.21 171.423 52.21H171.436Z" fill="var(--fill-0, white)"/>
<path id="Vector_3" d="M189.834 32.1098C189.513 33.9219 189.273 35.7474 188.865 37.5394C187.843 42.0262 185.784 46.0449 183.138 49.7761C182.931 50.0637 182.436 50.3044 182.076 50.3044C173.675 50.3244 165.282 50.3311 156.882 50.271C154.91 50.2576 152.952 49.95 151.128 49.1008C148.862 48.0443 148.067 46.1252 147.947 43.6243C148.361 43.6243 148.715 43.6243 149.076 43.6243C155.906 43.6177 162.736 43.6712 169.565 43.5575C171.671 43.524 173.829 43.2298 175.847 42.6615C180.044 41.4779 182.323 38.2683 182.363 33.9754C182.403 29.6625 180.124 26.2589 176.028 25.0152C174.143 24.4401 172.105 24.186 170.127 24.1325C166.09 24.0255 162.041 24.0657 158.004 24.2061C154.182 24.3398 150.5 25.1823 147.198 27.2419C143.85 29.3281 141.765 32.3639 140.736 36.1285C140.556 36.7972 140.275 37.0245 139.587 37.0045C138.05 36.9577 136.513 36.951 134.982 37.0045C134.22 37.0312 133.933 36.7905 133.893 36.0282C133.746 33.6143 133.104 31.3475 131.614 29.3883C129.609 26.747 126.796 25.4097 123.662 24.8012C121.403 24.3599 119.077 24.0924 116.778 24.059C110.45 23.9587 104.121 24.0255 97.7928 24.0255H96.7904C96.7503 23.952 96.7102 23.8717 96.6701 23.7982C98 22.5946 99.2831 21.3375 100.66 20.194C110.463 12.0764 121.704 6.90751 134.027 3.97873C140.201 2.50764 146.47 1.7253 152.819 1.94596C161.927 2.25355 170.635 4.12583 178.36 9.27461C184.154 13.1395 188.003 18.3886 189.326 25.3295C189.533 26.3993 189.667 27.4826 189.834 28.5591V32.1299V32.1098Z" fill="var(--fill-0, #274F9C)"/>
<path id="Vector_4" d="M123.689 80C122.947 80 122.206 79.9866 121.464 79.9666C111.259 79.6322 102.859 77.2718 95.7821 72.7516C88.9456 68.3785 84.7689 62.454 83.3722 55.1254C82.1359 48.6593 83.0114 42.1531 85.9651 35.7807C86.6802 34.2427 87.5289 32.7917 88.3509 31.3875C88.6783 30.8325 89.0058 30.2708 89.3199 29.7091C89.4268 29.4617 89.5872 29.2344 89.801 29.0404C90.1619 28.7195 90.623 28.5523 91.0841 28.5523C91.1376 28.5523 91.191 28.5523 91.2445 28.5523C91.2445 28.5523 100.948 28.5389 102.712 28.5389C107.176 28.5389 110.578 28.559 113.745 28.5991C116.311 28.6325 118.958 28.9 121.604 29.3948C124.979 30.0234 127.191 32.3303 127.672 35.7272C127.706 35.9545 127.719 36.1886 127.739 36.4761L127.759 36.8372C127.799 37.3654 127.612 37.8803 127.258 38.2614C126.897 38.6493 126.396 38.8632 125.874 38.8632H124.712C123.068 38.8632 121.43 38.8632 119.786 38.8499C118.149 38.8499 116.512 38.8365 114.875 38.8365C112.135 38.8365 109.889 38.8566 107.824 38.89C104.937 38.9435 102.445 39.1708 100.206 39.5787C96.4169 40.2675 93.9243 43.0558 93.55 47.0344C93.4164 48.432 93.4431 49.4885 93.6302 50.351C94.1715 52.8385 96.1496 54.4099 99.0566 54.6573C101.001 54.8245 102.999 54.8512 104.704 54.8512H107.377C110.665 54.8378 114.066 54.8245 117.374 54.6439C121.003 54.4433 123.99 53.4737 126.496 51.6817C128.888 49.9699 130.445 47.5292 131.401 44.0053C131.922 42.0929 133.279 41.685 134.328 41.685H134.495C135.204 41.7118 135.912 41.7252 136.627 41.7252C137.416 41.7252 138.204 41.7118 138.993 41.6984C139.006 41.6984 139.073 41.6984 139.086 41.6984C139.928 41.6984 141.392 41.9993 141.766 44.0321C141.833 44.3798 141.893 44.7342 141.953 45.0886C142.174 46.3724 142.381 47.5894 142.815 48.6259C144.018 51.5012 146.451 53.2865 150.26 54.0956C152.579 54.5837 155.118 54.8646 157.811 54.9181C160.003 54.9649 162.389 54.9849 165.303 54.9849C167.02 54.9849 168.738 54.9783 170.455 54.9716C172.179 54.9649 173.903 54.9582 175.627 54.9582H177.011C177.773 54.9582 178.461 55.4129 178.755 56.115C179.049 56.8171 178.895 57.6262 178.367 58.1745L178.04 58.5155C177.839 58.7295 177.686 58.8833 177.525 59.0304C169.539 66.4059 160.043 71.8689 148.489 75.7272C139.902 78.5958 131.782 79.9933 123.683 79.9933L123.689 80Z" fill="var(--fill-0, white)"/>
<path id="Vector_5" d="M91.0574 30.4581C98.6089 30.4581 106.16 30.4046 113.712 30.5049C116.231 30.5384 118.771 30.8058 121.25 31.2672C123.769 31.7353 125.407 33.3401 125.788 36.0014C125.828 36.2756 125.828 36.5564 125.861 36.9777C125.433 36.9777 125.066 36.9777 124.698 36.9777C119.058 36.9777 113.418 36.9041 107.778 37.0111C105.131 37.0579 102.452 37.2519 99.8519 37.7266C95.2007 38.5758 92.0999 42.1265 91.6522 46.8674C91.5319 48.1579 91.4985 49.5153 91.7658 50.7657C92.4875 54.0757 95.154 56.2355 98.8762 56.5564C101.148 56.7504 103.441 56.7637 105.726 56.7504C109.642 56.737 113.558 56.757 117.468 56.5431C121.096 56.3425 124.565 55.393 127.585 53.2331C130.613 51.0666 132.277 48.0041 133.219 44.507C133.413 43.7848 133.7 43.5641 134.422 43.5909C135.952 43.6444 137.496 43.631 139.026 43.5909C139.628 43.5775 139.788 43.7915 139.895 44.3732C140.209 46.0516 140.409 47.8035 141.058 49.3548C142.668 53.2131 145.976 55.1255 149.859 55.9479C152.438 56.4963 155.118 56.757 157.758 56.8105C163.706 56.9309 169.667 56.8507 175.621 56.8507C175.995 56.8507 176.363 56.8507 177.004 56.8507C176.637 57.2318 176.443 57.4458 176.236 57.633C168.023 65.2158 158.426 70.4047 147.887 73.9286C139.334 76.7838 130.552 78.3552 121.517 78.061C112.736 77.7734 104.323 75.948 96.7912 71.1402C90.7233 67.2619 86.5934 61.9459 85.2234 54.7577C84.0138 48.4388 84.9895 42.3605 87.676 36.5698C88.6583 34.4501 89.9347 32.4642 91.0775 30.4247L91.0508 30.4515L91.0574 30.4581Z" fill="var(--fill-0, #274F9C)"/>
<path id="Vector_6" d="M91.0847 30.4313C90.7439 30.4112 90.3964 30.3778 90.0555 30.3778C80.1517 30.3778 70.2546 30.3778 60.3508 30.4179C59.2615 30.4179 58.1588 30.545 57.0963 30.7857C55.2451 31.2136 54.1425 32.9789 54.4232 34.8579C54.5635 35.8074 55.0914 36.5229 56.0003 36.777C56.8624 37.0244 57.7712 37.1849 58.6667 37.205C63.084 37.3053 67.5013 37.3053 71.9119 37.4256C72.9878 37.4591 74.0905 37.7065 75.1196 38.0475C78.7617 39.2778 80.5727 42.4607 79.8911 46.5463C79.6505 48.0107 79.2696 49.4952 78.6548 50.8392C77.1846 54.0555 74.4046 55.6001 71.0365 56.0816C68.7175 56.4092 66.3652 56.6232 64.0263 56.6433C54.911 56.7035 45.7891 56.67 36.6738 56.67H35.5244C35.6914 56.3089 35.7984 56.0281 35.9387 55.7606C36.7406 54.2361 37.596 52.7449 38.3311 51.1936C38.712 50.3912 39.2066 50.1839 40.062 50.1839C48.9634 50.2106 57.8581 50.2106 66.7595 50.1705C67.8154 50.1705 68.8913 50.0301 69.9138 49.776C71.8518 49.2879 72.8274 47.6897 72.5267 45.7038C72.3797 44.7208 71.7315 44.0722 70.8226 43.9251C69.3457 43.6911 67.8488 43.5707 66.3519 43.5373C63.2176 43.4771 60.0834 43.5841 56.9559 43.4771C55.3454 43.4169 53.7014 43.2096 52.1577 42.7683C48.9433 41.8522 47.3127 39.766 47.0989 36.4427C46.8783 32.9388 47.8607 29.8228 50.3935 27.2952C52.2981 25.4029 54.7239 24.7075 57.2834 24.4667C59.4887 24.2594 61.7207 24.1725 63.9394 24.1658C74.2509 24.1391 84.5556 24.1525 94.8671 24.1525H95.9764C94.279 26.3257 92.6685 28.3852 91.0513 30.4447L91.078 30.4246L91.0847 30.4313Z" fill="var(--fill-0, #274F9C)"/>
<path id="Vector_7" d="M2.35745 66.8338C2.21043 66.8338 2.05673 66.8204 1.84288 66.787L1.66913 66.7602C1.05432 66.6867 0.513017 66.3189 0.225659 65.7706C-0.0683815 65.2223 -0.0750643 64.5737 0.205611 64.0187L0.954078 62.5342C1.82952 60.809 2.65149 59.1708 3.5403 57.5192C4.11501 56.4426 5.36469 56.2153 6.05969 56.1751C6.90172 56.1283 7.75043 56.1016 8.59913 56.0682C10.056 56.0214 11.4326 55.9745 12.8026 55.8274C15.4824 55.5466 17.7344 54.2159 19.3049 51.9893C21.136 49.3948 22.6997 46.6198 23.9828 44.246C27.1772 38.3483 30.3581 32.3035 33.4322 26.466L34.6084 24.226C35.3034 22.9087 36.3726 22.24 37.7827 22.24H37.9364C38.7316 22.2667 39.5269 22.2734 40.3221 22.2734C40.83 22.2734 43.7036 22.2601 43.7036 22.2601C43.9575 22.2601 44.2115 22.2734 44.5189 22.2935L44.9599 22.3202C45.6015 22.3537 46.1829 22.7081 46.5036 23.2698C46.8244 23.8248 46.8378 24.5135 46.5437 25.0819L45.8888 26.3457C45.4277 27.2417 44.9933 28.0909 44.5456 28.9401C43.4429 31.0397 42.347 33.1394 41.251 35.239C38.2304 41.023 35.1096 47.0076 31.962 52.8585C30.6121 55.3661 28.9214 57.6395 27.5982 59.338C24.3169 63.5573 19.7593 65.9311 14.0456 66.4058C11.319 66.6332 8.56572 66.6867 5.89931 66.7402C4.73651 66.7602 3.57371 66.787 2.4176 66.8204C2.39755 66.8204 2.35745 66.8204 2.33741 66.8204L2.35745 66.8338Z" fill="var(--fill-0, white)"/>
<path id="Vector_8" d="M1.89605 64.8813C3.01207 62.6747 4.0813 60.5283 5.21069 58.422C5.33098 58.1946 5.83218 58.0943 6.16632 58.0742C8.44513 57.9472 10.7306 57.9606 12.9961 57.7265C16.2773 57.3788 18.9771 55.7473 20.8483 53.0926C22.6259 50.5717 24.1696 47.877 25.6465 45.1622C29.2485 38.5089 32.7636 31.8088 36.2854 25.1154C36.6463 24.4266 37.0606 24.119 37.8759 24.1458C39.8139 24.206 41.7586 24.1658 43.7033 24.1658C44.0374 24.1658 44.3715 24.1993 44.8661 24.226C44.1577 25.5968 43.5228 26.8405 42.8813 28.0776C38.7046 36.0548 34.5746 44.0522 30.3111 51.9826C29.1349 54.1692 27.658 56.2287 26.121 58.1946C23.0402 62.1465 18.8101 64.1324 13.9049 64.5403C10.0757 64.8613 6.21978 64.8278 2.37052 64.9482C2.25692 64.9482 2.13663 64.9215 1.88937 64.8947L1.89605 64.8813Z" fill="var(--fill-0, #274F9C)"/>
<path id="Vector_9" d="M109.642 52.0359C107.19 52.0359 104.737 52.0158 102.291 52.0024C99.0236 51.9757 97.6136 49.9964 97.3797 48.1509C97.0389 45.4361 98.5157 43.0088 100.975 42.2398C101.997 41.9188 103.053 41.7517 104.016 41.745C108.627 41.7182 113.238 41.7182 117.849 41.7182H124.692C124.959 41.7182 125.187 41.7584 125.374 41.7851L125.581 41.8185C126.109 41.8854 126.59 42.1796 126.891 42.6209C127.191 43.0623 127.298 43.6106 127.178 44.1321C126.69 46.205 125.674 47.9369 124.144 49.2809C122.219 50.9794 119.84 51.9088 117.274 51.9623C114.989 52.0091 112.489 52.0359 109.642 52.0359Z" fill="var(--fill-0, white)"/>
<path id="Vector_10" d="M125.334 43.6978C124.939 45.3828 124.144 46.7536 122.894 47.8569C121.277 49.2812 119.326 50.0234 117.234 50.0635C112.256 50.1705 107.277 50.1371 102.305 50.1037C100.487 50.0903 99.4247 49.2411 99.2576 47.9104C99.0371 46.1251 99.9125 44.5537 101.536 44.0455C102.332 43.7981 103.194 43.6376 104.022 43.6376C110.912 43.6042 117.802 43.6108 124.692 43.6108C124.873 43.6108 125.053 43.6576 125.334 43.6911V43.6978Z" fill="var(--fill-0, #274F9C)"/>
<path id="Vector_11" d="M149.151 38.8633C148.883 38.8633 148.669 38.8232 148.502 38.783L148.315 38.7496C147.794 38.656 147.333 38.3551 147.046 37.9071C146.758 37.4591 146.671 36.9175 146.805 36.4026C147.66 33.1461 149.672 30.8726 152.626 29.8429C154.41 29.221 156.281 28.8599 158.025 28.8064C159.643 28.7596 161.367 28.7329 163.458 28.7329C164.875 28.7329 166.292 28.7463 167.709 28.753C168.631 28.7596 169.56 28.7663 170.482 28.773C171.177 28.773 171.905 28.8533 172.707 29.0204C174.719 29.4283 176.142 30.7924 176.423 32.5911C176.931 35.8543 175.307 37.3387 173.857 38.0074C173.068 38.3685 171.859 38.8031 170.569 38.8165C164.888 38.8633 159.121 38.8633 153.541 38.87C153.541 38.87 149.151 38.87 149.144 38.87L149.151 38.8633Z" fill="var(--fill-0, white)"/>
<path id="Vector_12" d="M148.637 36.884C149.318 34.2828 150.835 32.4774 153.248 31.6349C154.785 31.0999 156.455 30.7522 158.086 30.7054C162.216 30.5784 166.346 30.6519 170.476 30.672C171.097 30.672 171.725 30.7589 172.334 30.8793C173.583 31.1334 174.399 31.8957 174.552 32.8786C174.813 34.5503 174.392 35.667 173.062 36.2822C172.287 36.6366 171.391 36.9107 170.549 36.9174C163.412 36.9776 156.282 36.9642 149.145 36.9709C149.024 36.9709 148.904 36.9308 148.637 36.884Z" fill="var(--fill-0, #274F9C)"/>
</g>
</svg>
