<svg preserveAspectRatio="none" width="100%" height="100%" overflow="visible" style="display: block;" viewBox="0 0 267.734 64" fill="none" xmlns="http://www.w3.org/2000/svg">
<g id="shell-logo">
<path id="Vector" d="M3.52501 37.5452L7.19844 17.7288L23.0668 5.90771H45.1715L59.4808 14.3544L66.7208 36.5566L55.6578 47.5394L53.394 59.9408L15.5704 58.5008L12.7299 47.4319L3.52501 37.5452Z" fill="var(--fill-0, #FFBC00)"/>
<g id="Group">
<path id="Vector_2" d="M47.0288 62.3264C45.2561 62.3264 43.4835 62.3264 41.7108 62.3264C39.9595 62.3264 38.315 62.3264 36.6492 63.4011C35.1328 64.3683 33.2748 64.0888 31.5875 63.1002C30.8614 62.6703 29.9644 62.3694 29.1315 62.3694C24.2834 62.3049 19.4353 62.3049 14.5872 62.3694C13.3272 62.3694 12.836 61.9396 12.7078 60.7145C12.302 57.1896 11.8322 53.6648 11.3196 50.14C11.2342 49.6027 10.807 49.0009 10.3799 48.6785C7.51802 46.5077 4.59209 44.4229 1.73024 42.2306C1.15359 41.8007 0.576949 41.0485 0.470164 40.3822C-0.25598 35.4603 -0.213265 30.517 1.11088 25.7241C3.13981 18.309 7.15495 12.1406 13.2417 7.36917C20.8662 1.37266 29.6227 -0.970068 39.0412 0.36249C52.0904 2.21088 61.3381 9.53995 66.5065 21.8124C69.048 27.8304 69.4965 34.1708 68.4286 40.5971C68.3432 41.1774 67.8093 41.8007 67.3181 42.1661C64.4135 44.3799 61.4662 46.5077 58.5403 48.7C58.1345 49.0223 57.6646 49.5167 57.6006 49.9895C57.1093 53.4499 56.6395 56.9317 56.3191 60.4136C56.191 61.8536 55.7211 62.4339 54.2261 62.3479C51.8341 62.2405 49.4421 62.3264 47.0288 62.3264ZM38.8063 40.6616L38.2937 40.5756C38.5286 39.1141 38.7208 37.6526 38.9985 36.1911C40.7711 27.3145 42.5865 18.438 44.4018 9.56144C44.5727 8.72322 44.4018 8.05694 43.5475 7.82052C41.8603 7.36917 40.1518 6.85334 38.4218 6.57393C36.4356 6.25154 36.1366 6.57393 36.0512 8.57277C35.7095 18.0511 35.3891 27.551 35.0474 37.0293C35.026 37.6526 34.8765 38.2544 34.7911 38.8777C34.663 38.8777 34.5348 38.8777 34.4067 38.8562C34.2358 37.4592 33.9582 36.0836 33.9155 34.6866C33.5738 25.8315 33.232 16.9765 32.9758 8.12142C32.933 6.83184 32.3564 6.359 31.2672 6.53094C29.4732 6.81035 27.7005 7.17573 25.9279 7.60559C24.8173 7.88499 24.4756 8.59426 24.7319 9.86234C26.5259 18.524 28.2558 27.2071 29.9644 35.8902C30.2634 37.3517 30.4343 38.8347 30.6692 40.3177C30.4983 40.3392 30.3275 40.3822 30.1353 40.4037C28.7684 35.5893 27.3802 30.7964 26.0133 25.982C24.6251 21.1031 23.2369 16.2027 21.87 11.3239C21.571 10.2277 21.0371 9.75487 19.9906 10.4641C18.4956 11.4743 16.9792 12.506 15.527 13.6021C14.5018 14.3758 14.4591 15.257 15.0357 16.4821C18.7092 24.1766 22.2972 31.914 25.9065 39.63C26.3977 40.6616 26.8035 41.7363 27.2307 42.7894C27.0812 42.8539 26.953 42.9184 26.8035 43.0043C21.9982 34.7081 17.1928 26.4333 12.302 17.9866C10.3585 19.4911 9.33338 21.3395 8.4791 23.3169C7.98788 24.4775 8.15874 25.3802 8.94895 26.3474C12.9641 31.2263 16.9579 36.1481 20.9303 41.07C22.169 42.596 23.3223 44.165 24.5183 45.7124C24.4115 45.7984 24.3047 45.9059 24.198 45.9919C18.6237 40.3822 13.0495 34.7511 7.34717 29.0125C6.06574 31.6346 6.0871 34.0633 6.34338 36.4275C6.42881 37.2872 6.9841 38.3404 7.66752 38.8777C10.2731 40.9625 13.0068 42.8754 15.7405 44.8097C16.7443 45.519 17.2782 46.3572 17.3423 47.6468C17.4705 49.7961 17.8762 51.9024 18.0898 54.0517C18.2393 55.5777 18.8587 56.2225 20.4818 56.1365C23.4505 56.0075 26.4191 56.029 29.3878 56.1365C30.4129 56.1795 31.5235 56.5663 32.3991 57.1037C34.0863 58.1353 34.8552 58.1353 36.5638 57.1896C37.6103 56.6093 38.849 56.201 40.0236 56.1365C42.9923 55.986 45.9609 56.0505 48.9295 56.0935C50.1255 56.0935 50.7663 55.7066 50.8944 54.46C51.108 52.2678 51.5138 50.097 51.6633 47.9047C51.7487 46.4432 52.304 45.476 53.4786 44.6593C56.1269 42.8109 58.7325 40.8766 61.3167 38.9422C61.8079 38.5768 62.4273 38.104 62.5127 37.5881C63.0466 34.7941 63.0466 32 61.6371 28.991C55.9133 34.7511 50.3605 40.3392 44.7863 45.9489C44.6795 45.8629 44.5727 45.7769 44.4659 45.6695C44.8503 45.1536 45.2134 44.5948 45.6192 44.1005C50.3818 38.1899 55.1445 32.3224 59.8858 26.3904C60.3129 25.853 60.8255 25.0578 60.7187 24.4775C60.2916 21.8769 58.882 19.8135 56.6822 17.9652C51.8982 26.2399 47.1996 34.3212 42.5224 42.424L42.0312 42.1661C42.5224 41.0055 42.9923 39.8234 43.5262 38.6843C47.0074 31.2477 50.4886 23.8112 54.0126 16.3962C54.5465 15.3 54.5251 14.3543 53.5213 13.6236C52.069 12.5489 50.574 11.4958 49.079 10.4856C48.1393 9.84085 47.5413 9.9698 47.1996 11.2379C46.025 15.5365 44.7649 19.792 43.5475 24.0691C41.9671 29.5928 40.3867 35.1165 38.8276 40.6401L38.8063 40.6616Z" fill="var(--fill-0, #E51717)"/>
<path id="Vector_3" d="M143.479 41.9942C146.746 40.1458 149.672 39.7804 152.363 42.7679C152.812 42.3381 153.26 41.8652 153.773 41.4784C155.204 40.3822 158.343 40.2963 159.817 41.3064C160.885 42.0372 161.376 43.1333 161.397 44.3799C161.44 47.3244 161.397 50.2475 161.419 53.192C161.419 53.9657 161.141 54.3096 160.308 54.2881C156.293 54.1807 156.976 54.8899 156.912 51.0857C156.891 49.7531 156.912 48.4206 156.912 47.088C156.87 45.4331 156.058 44.2939 154.883 44.2295C153.666 44.165 152.641 45.1322 152.513 46.7441C152.363 48.7859 152.385 50.8278 152.406 52.8696C152.406 53.9012 152.064 54.2666 151.018 54.2881C147.707 54.3096 147.707 54.3526 147.707 51.0427C147.707 49.5812 147.707 48.0982 147.707 46.6367C147.686 45.2181 146.682 43.993 145.593 43.993C144.525 43.993 143.393 45.2181 143.372 46.5722C143.329 48.657 143.308 50.7633 143.372 52.8481C143.415 53.9657 143.052 54.3096 141.941 54.2666C138.46 54.1377 138.866 54.8684 138.844 51.1502C138.844 48.1197 138.887 45.0892 138.801 42.0587C138.759 40.8981 139.165 40.5542 140.232 40.6616C140.809 40.7261 141.386 40.7261 141.962 40.6616C142.817 40.5757 143.457 40.7476 143.479 41.9512V41.9942Z" fill="var(--fill-0, #E51717)"/>
<path id="Vector_4" d="M219.767 43.3482C219.767 40.1458 219.789 36.9433 219.767 33.7409C219.767 32.7952 220.002 32.4083 221.027 32.3868C224.295 32.3653 224.295 32.3224 224.295 35.5678C224.295 37.3087 224.295 39.0281 224.295 40.769C224.295 41.6932 224.53 42.0156 225.47 41.3494C227.242 40.0813 229.335 40.2962 231.193 40.855C233.051 41.4138 233.863 43.1548 233.927 45.0461C234.012 47.7542 233.927 50.4838 233.97 53.1919C233.97 54.0087 233.671 54.2451 232.88 54.2451C229.143 54.3311 229.143 54.3525 229.143 50.6343C229.143 49.2587 229.143 47.8832 229.143 46.4862C229.122 45.1106 228.481 44.3584 227.242 44.1864C226.025 44.0145 225.042 44.5733 224.679 45.7339C224.487 46.3572 224.338 47.0235 224.316 47.6683C224.274 49.1298 224.316 50.6128 224.316 52.0743C224.316 52.3322 224.316 52.6116 224.316 52.8695C224.316 55.1908 222.586 53.9657 221.604 54.1591C220.728 54.3311 219.746 54.46 219.789 52.891C219.874 49.6886 219.81 46.4862 219.81 43.2837L219.767 43.3482Z" fill="var(--fill-0, #E51717)"/>
<path id="Vector_5" d="M87.5431 44.3154C87.5431 41.4568 87.5858 38.6198 87.5431 35.7612C87.5218 34.7081 87.8635 34.3427 88.91 34.3642C91.6437 34.4072 94.3988 34.4286 97.1325 34.3642C98.3285 34.3427 98.6488 34.8155 98.6275 35.9331C98.5207 38.8777 99.0333 38.5123 96.0006 38.5553C95.5093 38.5553 95.0181 38.5553 94.5483 38.5553C92.5407 38.5553 92.5834 38.5768 92.5193 40.5326C92.4766 41.8007 92.8824 42.338 94.1852 42.2521C95.189 42.1876 96.2141 42.2735 97.2393 42.2306C98.179 42.1876 98.5848 42.4455 98.5848 43.4986C98.5848 46.4002 98.6488 46.4002 95.7229 46.4002C95.3171 46.4002 94.9327 46.4002 94.5269 46.4002C92.5407 46.4002 92.5834 46.4217 92.5407 48.399C92.498 49.5811 92.8824 50.1184 94.1211 50.0325C95.1249 49.9465 96.1501 50.0325 97.1752 50.0325C97.3888 50.0325 97.6237 49.9895 97.8373 50.0325C99.4818 50.5483 98.3712 51.9024 98.6061 52.848C98.7556 53.4283 98.8624 54.2666 97.7732 54.2666C94.6764 54.2666 91.5796 54.2666 88.4828 54.2666C87.5218 54.2666 87.6072 53.6218 87.6072 52.977C87.6072 50.0755 87.6072 47.1954 87.6072 44.2939L87.5431 44.3154Z" fill="var(--fill-0, #E51717)"/>
<path id="Vector_6" d="M173.977 53.1919C172.354 54.8684 170.346 54.6749 168.381 54.3955C166.032 54.0516 163.896 51.5799 163.533 49.2157C163.063 46.2712 163.619 43.7136 165.947 41.7147C167.933 40.0168 171.008 39.8019 173.229 41.1774C173.742 41.4783 174.041 41.2204 174.532 41.0914C175.835 40.7475 177.266 40.855 178.633 40.855C178.739 40.855 178.91 41.4568 178.932 41.7792C178.932 45.5619 178.932 49.3232 178.932 53.1059C178.932 53.9442 178.675 54.3525 177.778 54.2881C177.159 54.2451 176.54 54.3525 175.92 54.2666C175.28 54.1591 174.66 53.8797 174.041 53.6862C174.02 53.5143 173.977 53.3639 173.955 53.1919H173.977ZM168.36 47.4963C168.36 49.3017 169.684 50.6343 171.414 50.5913C173.058 50.5483 174.511 49.0438 174.511 47.4103C174.511 45.7554 173.058 44.4443 171.286 44.4443C169.577 44.4443 168.36 45.7124 168.381 47.4963H168.36Z" fill="var(--fill-0, #E51717)"/>
<path id="Vector_7" d="M207.764 40.5541C207.764 43.5201 207.764 46.1208 207.764 48.7429C207.764 50.2044 207.721 51.6874 207.764 53.1489C207.785 54.0302 207.443 54.3955 206.589 54.2666C205.393 54.0731 204.026 54.8254 202.98 53.6433C202.873 53.5358 202.403 53.6433 202.147 53.7722C197.128 56.2224 192.92 52.848 192.322 48.6569C191.66 44.0575 194.885 40.2102 199.263 40.2317C200.694 40.2317 201.719 41.5643 203.3 41.0485C204.624 40.6186 206.119 40.7046 207.764 40.5541ZM200.139 50.6128C201.783 50.6343 203.364 49.1728 203.407 47.5608C203.449 45.9703 202.061 44.5088 200.417 44.4658C198.58 44.4228 197.17 45.6479 197.085 47.3459C197.021 48.9363 198.559 50.5913 200.139 50.6128Z" fill="var(--fill-0, #E51717)"/>
<path id="Vector_8" d="M243.344 40.1242C246.761 40.4681 249.623 41.1989 251.118 44.4658C253.126 48.8718 250.371 53.7292 245.864 54.5029C243.301 54.9543 240.973 54.7179 238.774 53.4283C235.89 51.7304 235.25 48.9578 235.719 45.9273C236.125 43.2407 238.005 41.6072 240.503 40.7475C241.486 40.4036 242.575 40.2962 243.344 40.1242ZM246.633 47.4533C246.868 45.6049 245.245 44.3583 243.771 44.2723C242.105 44.1864 240.503 45.7553 240.503 47.4533C240.503 49.1942 241.956 50.5912 243.75 50.5698C245.437 50.5483 246.633 49.2587 246.612 47.4533H246.633Z" fill="var(--fill-0, #E51717)"/>
<path id="Vector_9" d="M128.271 47.4534C128.378 51.4296 125.41 53.9442 122.227 54.546C119.643 55.0404 117.401 54.589 115.158 53.3639C111.271 51.2361 110.951 44.2939 115.137 41.6503C118.682 39.4365 123.851 39.8664 126.563 42.8324C127.759 44.1435 128.229 45.7125 128.271 47.4534ZM123.167 47.4319C123.423 45.519 121.651 44.3154 120.177 44.2939C118.554 44.2724 117.08 45.8199 117.08 47.4534C117.08 49.2158 118.404 50.5913 120.134 50.6128C122.035 50.6128 123.188 49.4307 123.188 47.4534L123.167 47.4319Z" fill="var(--fill-0, #E51717)"/>
<path id="Vector_10" d="M258.551 41.8868C260.088 40.5113 261.882 40.4253 263.762 40.6187C265.962 40.8551 267.606 42.4026 267.692 44.7024C267.777 47.5394 267.692 50.398 267.734 53.235C267.734 53.9658 267.457 54.2237 266.73 54.2667C263.014 54.4816 263.014 54.5031 263.014 50.8063C263.014 49.3448 263.014 47.8618 263.014 46.4003C263.014 45.1107 262.288 44.423 261.092 44.251C259.939 44.1006 258.956 44.4445 258.529 45.6266C258.294 46.3143 258.145 47.0881 258.124 47.8403C258.059 49.6242 258.081 51.4081 258.124 53.1706C258.124 53.9658 257.825 54.3527 257.013 54.2452C256.97 54.2452 256.928 54.2452 256.885 54.2452C253.083 54.1592 253.681 54.8685 253.639 51.0643C253.617 48.0338 253.66 45.0033 253.617 41.9943C253.617 41.0271 253.895 40.5757 254.899 40.6832C255.433 40.7477 255.966 40.6187 256.479 40.7047C257.184 40.8337 257.846 41.1131 258.529 41.328C258.551 41.4999 258.572 41.6934 258.593 41.8653L258.551 41.8868Z" fill="var(--fill-0, #E51717)"/>
<path id="Vector_11" d="M209.536 44.4443V40.855C211.287 41.0055 211.138 39.8234 211.116 38.6842C211.095 36.8144 211.116 36.8144 212.974 36.8144C213.893 36.8144 214.811 36.8144 215.9 36.8144C215.9 37.803 215.943 38.6413 215.9 39.458C215.836 40.3392 216.114 40.769 217.075 40.7261C217.566 40.7261 218.506 40.941 218.527 41.1344C218.634 42.1661 218.549 43.2407 218.442 44.2939C218.442 44.4013 217.801 44.5518 217.502 44.5088C216.178 44.3369 215.836 44.9816 215.879 46.2067C215.964 48.4635 215.879 50.7417 215.922 52.9985C215.922 53.8582 215.73 54.2666 214.747 54.2666C211.095 54.331 211.116 54.3525 211.116 50.6988C211.116 49.2372 211.074 47.7542 211.116 46.2927C211.159 45.1751 211.031 44.3154 209.536 44.4013V44.4443Z" fill="var(--fill-0, #E51717)"/>
<path id="Vector_12" d="M110.759 44.5303C106.766 44.2079 105.078 45.1321 105.078 47.4748C105.078 49.925 106.68 50.8277 110.717 50.5268C110.717 51.5369 110.781 52.5256 110.674 53.5143C110.653 53.8152 110.225 54.2665 109.948 54.3095C106.702 54.8254 103.541 54.8683 101.298 51.408C98.6072 47.2384 100.956 41.4568 105.634 40.6615C106.851 40.4466 108.132 40.5756 109.371 40.5756C110.546 40.5756 110.845 41.2848 110.781 42.3165C110.738 43.0043 110.781 43.7135 110.781 44.5088L110.759 44.5303Z" fill="var(--fill-0, #E51717)"/>
<path id="Vector_13" d="M88.9314 25.5092C89.7857 25.939 90.5332 26.3904 91.3448 26.7128C92.3272 27.0996 93.2883 26.8632 93.7154 25.896C94.1853 24.8214 93.331 24.3056 92.434 24.0047C91.9855 23.8542 91.5156 23.7038 91.0458 23.5963C89.3372 23.1664 88.3761 22.2637 88.2053 20.8452C87.9276 18.6529 88.6751 16.7616 90.1915 16.0093C92.2418 14.9777 94.3134 15.3645 96.321 16.1383C96.5559 16.2242 96.7481 16.955 96.6414 17.2989C96.4491 17.9222 96.0006 18.4595 95.6376 19.0828C95.0823 18.8249 94.5056 18.3735 93.9717 18.4165C93.2669 18.4595 92.3272 18.6959 91.9855 19.2117C91.4089 20.05 92.3699 20.4153 92.9893 20.6948C93.5446 20.9527 94.1639 21.0386 94.7406 21.2751C97.0471 22.1778 97.5597 23.016 97.4743 25.4877C97.4102 27.594 96.4705 28.948 94.4843 29.4853C92.7544 29.9367 89.5935 30.0227 87.65 28.2173C88.0771 27.3575 88.5256 26.4548 88.9741 25.5736L88.9314 25.5092Z" fill="var(--fill-0, #E51717)"/>
<path id="Vector_14" d="M102.301 20.5658C103.604 20.3079 104.608 19.9855 105.633 19.964C107.469 19.921 108.815 21.2966 108.858 23.145C108.922 24.9289 108.858 26.7128 108.879 28.4752C108.879 29.2704 108.623 29.6358 107.811 29.5498C107.427 29.5069 107.021 29.5069 106.615 29.5498C105.846 29.6143 105.611 29.2274 105.611 28.5182C105.633 27.1856 105.611 25.8531 105.611 24.5205C105.611 23.4244 105.227 22.5647 103.988 22.5002C102.942 22.4357 102.322 23.2094 102.301 24.5635C102.301 26.154 102.301 27.7444 102.301 29.2489C102.087 29.3994 102.023 29.4854 101.959 29.4854C100.023 29.686 99.0547 28.8119 99.0547 26.8632C99.0547 23.2524 99.0547 19.6631 99.0547 16.0523C99.0547 15.5365 99.0547 14.9992 99.0547 14.3974H102.301V20.5658Z" fill="var(--fill-0, #E51717)"/>
<path id="Vector_15" d="M186.194 41.8651C187.732 41.4137 189.034 40.9624 190.359 40.64C191.127 40.4466 191.49 40.8979 191.448 41.6932C191.405 42.7033 191.448 43.735 191.448 44.8956C190.999 44.7451 190.722 44.6592 190.444 44.5947C188.159 44.0359 186.215 45.6478 186.13 48.184C186.087 49.7315 186.087 51.3005 186.13 52.848C186.151 53.8366 185.852 54.2665 184.784 54.2665C181.559 54.2665 181.559 54.3095 181.559 51.0426C181.559 48.0121 181.602 44.9816 181.559 41.9511C181.559 40.9624 181.858 40.554 182.841 40.6615C183.375 40.726 183.909 40.6615 184.443 40.6615C185.361 40.6615 186.514 40.3606 186.215 41.8221L186.194 41.8651Z" fill="var(--fill-0, #E51717)"/>
<path id="Vector_16" d="M119.751 26.5838C119.751 28.0239 119.025 29.12 117.402 29.4424C116.014 29.7003 114.455 29.7433 113.088 29.3779C110.824 28.7546 109.82 26.6913 110.055 23.9832C110.226 21.9199 111.657 20.3939 113.835 19.9425C116.911 19.2977 119.367 20.7163 120.072 23.5318C120.413 24.8859 120.157 25.2298 118.79 25.2513C117.381 25.2513 115.971 25.2298 114.562 25.2728C114.177 25.2728 113.793 25.5522 113.408 25.7026C113.601 26.1325 113.686 26.6483 113.985 26.9492C114.668 27.6585 115.608 27.8304 116.377 27.1856C117.445 26.2829 118.577 26.5838 119.751 26.5838ZM115.16 23.7253C115.822 23.4029 116.313 23.1665 116.825 22.9085C116.334 22.5862 115.843 21.9844 115.33 21.9844C114.818 21.9844 114.284 22.5217 113.75 22.8226C114.199 23.102 114.647 23.3814 115.16 23.7253Z" fill="var(--fill-0, #E51717)"/>
<path id="Vector_17" d="M121.65 14.3758H124.619V29.4853H121.65V14.3758Z" fill="var(--fill-0, #E51717)"/>
<path id="Vector_18" d="M126.5 14.3543H129.511C129.554 14.7627 129.618 15.128 129.639 15.5149C129.639 19.749 129.575 23.9831 129.682 28.1957C129.724 29.7217 128.849 29.5068 127.909 29.5498C126.927 29.5927 126.371 29.4638 126.393 28.2172C126.457 24.0261 126.414 19.8565 126.435 15.6654C126.435 15.2785 126.478 14.8701 126.5 14.3543Z" fill="var(--fill-0, #E51717)"/>
<path id="Vector_19" d="M133.398 45.3255C134.231 45.3255 135.085 45.3255 135.918 45.3255C136.708 45.3255 137.05 45.6909 137.029 46.4646C137.029 46.5936 137.029 46.7225 137.029 46.873C137.057 48.4491 136.303 49.2372 134.765 49.2372C133.441 49.2372 132.117 49.2157 130.792 49.2372C130.002 49.2587 129.703 48.9363 129.66 48.1411C129.49 45.304 129.468 45.304 132.223 45.304C132.629 45.304 133.014 45.304 133.419 45.304L133.398 45.3255Z" fill="var(--fill-0, #E51717)"/>
</g>
</g>
</svg>
