<svg preserveAspectRatio="none" width="100%" height="100%" overflow="visible" style="display: block;" viewBox="0 0 293.317 170.951" fill="none" xmlns="http://www.w3.org/2000/svg">
<g id="Group">
<path id="Vector" d="M17.0062 34.535L38.1602 19.6932L0 16.5334V0L103.281 7.30916L88.4449 23.8425L53.4434 20.938V148.322L78.9687 153.173L66.5889 168.717L17.0062 159.716V34.535ZM36.9478 145.13V30.641L33.5338 33.5455V144.396L36.9478 145.13Z" fill="var(--fill-0, black)"/>
<path id="Vector_2" d="M88.7008 68.304L78.9693 61.2501L89.9133 47.1425L106.441 57.3562V148.769L116.172 157.291L105.228 170.919L88.7008 158.535V68.3359V68.304ZM103.186 45.3232L90.1047 37.3438L101.655 23.4915L114.992 31.6943L103.186 45.3232Z" fill="var(--fill-0, black)"/>
<path id="Vector_3" d="M148.015 68.3039L137.55 62.463V170.888L119.81 158.503V68.3039L110.078 61.2501L121.022 47.1425L137.294 57.3562L146.037 47.1425L164.989 57.1008L173.508 47.1425L193.195 57.3562V148.769L202.926 157.291L191.982 170.919L175.455 158.535V68.3359L165.723 62.9737V170.919L147.983 158.535V68.3359L148.015 68.3039Z" fill="var(--fill-0, black)"/>
<path id="Vector_4" d="M201.713 65.8782L225.771 47.1744L245.457 57.3881V94.0935L234.513 102.36H250.562L234.29 115.734H219.453V148.8L231.355 157.323L220.411 170.951L201.681 158.567V65.942L201.713 65.8782ZM227.717 103.094V68.3359L219.453 63.4844V109.925L227.717 103.126V103.094Z" fill="var(--fill-0, black)"/>
<path id="Vector_5" d="M267.186 111.361L249.35 101.403V65.9101L273.535 47.2064L293.317 57.42V72.0064L275.577 85.6353V68.6232L267.058 63.5163V101.435L275.577 93.6467L293.317 105.329V151.514L268.526 170.951L249.318 158.567V135.459L267.058 119.404V148.832L275.577 154.418L275.737 103.86L267.186 111.393V111.361Z" fill="var(--fill-0, black)"/>
</g>
</svg>
