<svg preserveAspectRatio="none" width="100%" height="100%" overflow="visible" style="display: block;" viewBox="0 0 25 31" fill="none" xmlns="http://www.w3.org/2000/svg">
<path id="Vector" d="M3.125 31C2.26562 31 1.52995 30.6965 0.917969 30.0894C0.30599 29.4823 0 28.7525 0 27.9V3.1C0 2.2475 0.30599 1.51771 0.917969 0.910625C1.52995 0.303542 2.26562 0 3.125 0H17.1875L25 7.75V27.9C25 28.7525 24.694 29.4823 24.082 30.0894C23.4701 30.6965 22.7344 31 21.875 31H3.125ZM3.125 27.9H21.875V9.3H15.625V3.1H3.125V27.9ZM12.5 26.35C14.2448 26.35 15.7227 25.7429 16.9336 24.5288C18.1445 23.3146 18.75 21.855 18.75 20.15V13.95H15.625V20.15C15.625 21.0025 15.3255 21.7323 14.7266 22.3394C14.1276 22.9465 13.3854 23.25 12.5 23.25C11.6406 23.25 10.9049 22.9465 10.293 22.3394C9.68099 21.7323 9.375 21.0025 9.375 20.15V11.625C9.375 11.3925 9.45312 11.2052 9.60938 11.0631C9.76562 10.921 9.94792 10.85 10.1562 10.85C10.3906 10.85 10.5794 10.921 10.7227 11.0631C10.8659 11.2052 10.9375 11.3925 10.9375 11.625V20.15H14.0625V11.625C14.0625 10.54 13.6849 9.62292 12.9297 8.87375C12.1745 8.12458 11.25 7.75 10.1562 7.75C9.0625 7.75 8.13802 8.12458 7.38281 8.87375C6.6276 9.62292 6.25 10.54 6.25 11.625V20.15C6.25 21.855 6.86198 23.3146 8.08594 24.5288C9.3099 25.7429 10.7812 26.35 12.5 26.35Z" fill="var(--fill-0, #E50808)"/>
</svg>
