<svg preserveAspectRatio="none" width="100%" height="100%" overflow="visible" style="display: block;" viewBox="0 0 174.864 52" fill="none" xmlns="http://www.w3.org/2000/svg">
<g id="Vector">
<path d="M73.2167 23.295L70.5193 23.7868C69.5823 23.9571 68.6453 24.1273 67.7084 24.2976C64.9069 24.7894 62.1054 25.2528 59.2945 25.6501C57.9032 25.8487 56.5025 26.0284 55.1018 26.1419C53.701 26.2554 52.2625 26.4067 50.8617 26.3121C49.0635 26.1986 47.2652 26.0662 45.5806 25.3663C43.4227 24.4678 41.9841 22.9167 40.8957 21.0346C40.2994 20.0131 39.7694 18.9822 39.2773 17.9323C36.5989 12.2103 35.3401 6.14769 33.8636 0C33.9678 1.7119 34.1097 3.42379 34.2612 5.13569C34.6587 9.77956 35.1413 14.414 35.8701 19.02C36.1919 21.0629 36.5894 23.0964 37.0815 25.111C37.3749 26.331 37.8671 27.5511 38.8325 28.4212C39.6843 29.1779 40.8389 29.594 41.9936 29.8494C42.2207 29.8967 42.4573 29.944 42.6845 29.9913C46.2715 30.625 50.0478 30.0386 53.5875 29.3103C57.2502 28.5537 60.9035 27.5984 64.4526 26.4918L73.2072 23.2856L73.2167 23.295Z" fill="var(--fill-0, black)"/>
<path d="M0 28.705L2.69736 28.2132C3.63433 28.0429 4.57131 27.8727 5.50829 27.7024C8.30975 27.2106 11.1112 26.7472 13.9221 26.3499C15.3134 26.1513 16.7141 25.9716 18.1149 25.8581C19.5156 25.7446 20.9542 25.5933 22.3549 25.6879C24.1532 25.8014 25.9514 25.9338 27.6361 26.6337C29.794 27.5322 31.2325 29.0833 32.321 30.9654C32.9172 31.9869 33.4472 33.0178 33.9394 34.0677C36.6178 39.7897 37.8766 45.8523 39.353 52C39.2489 50.2881 39.1069 48.5762 38.9555 46.8643C38.558 42.2204 38.0753 37.586 37.3465 32.98C37.0248 30.9371 36.6273 28.9036 36.1351 26.8891C35.8417 25.669 35.3496 24.4489 34.3842 23.5788C33.5324 22.8221 32.3777 22.406 31.2231 22.1506C30.9959 22.1033 30.7593 22.056 30.5322 22.0087C26.9452 21.375 23.1689 21.9614 19.6292 22.6897C15.9665 23.4463 12.3132 24.4016 8.76404 25.5082L0 28.705Z" fill="var(--fill-0, black)"/>
<path d="M63.2128 32.526H53.2657L52.7451 34.8621H63.279C63.5724 34.8621 63.7996 35.1364 63.7333 35.4202L63.3547 37.1888H52.8682C52.4139 37.1888 52.0258 37.482 51.9028 37.9171C51.6283 38.8629 51.2592 40.2248 50.9185 41.4827C50.5494 42.8352 51.5716 44.1688 52.9723 44.1688H62.5124C64.1024 44.1688 65.5032 43.1 65.9196 41.5678L67.6705 35.108C67.6705 33.3489 65.276 32.5166 63.2222 32.5166L63.2128 32.526ZM55.4425 41.9083C54.9882 41.9083 54.6475 41.4827 54.7421 41.0382L55.0545 39.5533H62.8153L62.5503 40.8207C62.4178 41.4543 61.8499 41.9083 61.2063 41.9083H55.4425Z" fill="var(--fill-0, black)"/>
<path d="M81.4601 32.5922C81.0532 32.5355 80.6462 32.526 80.2771 32.526H72.7529C71.267 32.526 69.9704 33.5096 69.5634 34.9378L65.6546 48.7843H69.1564L70.453 44.1877H78.8764C80.2014 44.1877 82.0753 43.7716 82.3971 42.6555L84.5739 34.9473C84.6307 34.7581 84.6118 34.55 84.5172 34.3703C83.902 33.1975 82.6621 32.753 81.4696 32.6017L81.4601 32.5922ZM78.318 41.9083H72.1188C71.6077 41.9083 71.2386 41.4165 71.3711 40.9247L72.8097 35.8174C72.9611 35.2972 73.4343 34.9378 73.9738 34.9378H80.1351C80.4664 34.9378 80.703 35.2499 80.6178 35.5715L78.971 41.4165C78.8858 41.7097 78.6208 41.9178 78.3085 41.9178L78.318 41.9083Z" fill="var(--fill-0, black)"/>
<path d="M158.614 32.526L155.292 44.1877H151.62L154.942 32.526H158.614Z" fill="var(--fill-0, black)"/>
<path d="M102.206 32.526L99.6981 41.9083C99.3384 43.2514 98.127 44.1782 96.7357 44.1782H87.5742C85.8232 44.1782 84.678 43.2514 84.6023 42.1353L84.6591 41.9083L87.1672 32.526H90.9529L88.6815 41.0382C88.5585 41.4827 88.8992 41.9178 89.3535 41.9178H94.8523C95.4769 41.9178 96.0164 41.5016 96.1773 40.9058L98.4109 32.5355H102.197L102.206 32.526Z" fill="var(--fill-0, black)"/>
<path d="M39.4193 35.5336L38.8514 37.1888H48.2495C49.0919 37.1888 49.726 37.9549 49.5651 38.7777C49.4705 39.2696 49.3758 39.7519 49.2812 40.2437C49.0729 41.3314 49.054 42.4285 48.1076 43.1473C47.6911 43.4594 47.2085 43.6675 46.7163 43.8188C46.1863 43.9796 45.5427 44.1688 44.9843 44.1688H33.1538L34.1287 41.8516H44.3502C44.814 41.8516 45.2304 41.5584 45.3818 41.1139L45.8456 39.7614C45.9213 39.5438 45.7604 39.3263 45.5333 39.3263H36.0026C35.3401 39.3263 34.8574 38.7021 35.0278 38.0589L35.9269 34.6919C36.2676 33.4056 37.4412 32.5071 38.7662 32.5071H51.3633L50.8712 34.8432H40.3752C39.9493 34.8432 39.5707 35.1175 39.4287 35.5147L39.4193 35.5336Z" fill="var(--fill-0, black)"/>
<path d="M135.436 34.9378L132.786 44.1877H129.028L131.442 35.7512C131.555 35.3445 131.252 34.9378 130.836 34.9378H124.126L121.485 44.1782H117.728L121.059 32.526H130.656C131.252 32.526 131.82 32.5638 132.341 32.6584C133.931 32.9327 135.114 33.6421 135.455 34.9378H135.436Z" fill="var(--fill-0, black)"/>
<path d="M174.845 34.9378L172.195 44.1877H168.438L170.851 35.7512C170.965 35.3445 170.662 34.9378 170.246 34.9378H163.535L160.895 44.1782H157.138L160.469 32.526H170.066C170.662 32.526 171.23 32.5638 171.751 32.6584C173.341 32.9327 174.524 33.6421 174.864 34.9378H174.845Z" fill="var(--fill-0, black)"/>
<path d="M137.423 34.2474C136.855 36.3187 136.051 39.2033 135.426 41.4354C135.057 42.769 136.06 44.0837 137.442 44.0837H145.582C145.752 44.0837 145.865 44.2445 145.828 44.4052C145.705 44.8498 145.581 45.2848 145.468 45.701C145.316 46.259 144.805 46.6468 144.219 46.6468H134.007L133.372 48.7465H146.471C147.664 48.7465 148.705 47.952 149.027 46.8076C149.045 46.7508 149.055 46.7035 149.074 46.6468C149.292 45.8712 149.528 45.0011 149.784 44.0837C150.522 41.4165 151.374 38.3616 152.046 35.9309C152.5 34.2852 151.26 32.6584 149.547 32.6584C146.424 32.6584 141.919 32.6584 139.515 32.6584C138.54 32.6584 137.688 33.311 137.423 34.2474ZM145.979 41.88H140.102C139.628 41.88 139.288 41.426 139.411 40.972C139.893 39.2412 140.461 37.1983 140.934 35.458C141.02 35.1459 141.304 34.9378 141.625 34.9378H147.493C147.967 34.9378 148.307 35.3823 148.184 35.8363C147.73 37.4915 147.19 39.4398 146.66 41.3503C146.575 41.6624 146.291 41.8705 145.97 41.8705L145.979 41.88Z" fill="var(--fill-0, black)"/>
<path d="M114.179 32.526H104.232L103.711 34.8621H114.245C114.538 34.8621 114.765 35.1364 114.699 35.4202L114.321 37.1888H103.834C103.38 37.1888 102.992 37.482 102.869 37.9171C102.594 38.8629 102.225 40.2248 101.884 41.4827C101.515 42.8352 102.537 44.1688 103.938 44.1688H113.478C115.068 44.1688 116.469 43.1 116.885 41.5678L118.636 35.108C119.043 33.5096 117.378 32.5166 114.188 32.5166L114.179 32.526ZM106.408 41.9083C105.954 41.9083 105.613 41.4827 105.708 41.0382L106.02 39.5533H113.781L113.516 40.8207C113.384 41.4543 112.816 41.9083 112.172 41.9083H106.408Z" fill="var(--fill-0, black)"/>
<path d="M83.5423 16.873L80.05 28.7239H77.381L80.8734 16.873H83.5423Z" fill="var(--fill-0, black)"/>
<path d="M97.1995 17.0055L96.7641 18.4809C96.7641 18.4809 96.7073 18.5566 96.66 18.5566H92.1928C92.1928 18.5566 92.1076 18.5849 92.0887 18.6322L89.1358 28.6482C89.1358 28.6482 89.079 28.7239 89.0317 28.7239H86.5804C86.5141 28.7239 86.4574 28.6577 86.4763 28.5915L89.3913 18.6984C89.4102 18.6322 89.3629 18.566 89.2872 18.566H84.5834C84.5172 18.566 84.4604 18.4998 84.4793 18.4336L84.9147 16.9582C84.9147 16.9582 84.9714 16.8825 85.0188 16.8825H97.0859C97.1521 16.8825 97.2089 16.9487 97.19 17.0149L97.1995 17.0055Z" fill="var(--fill-0, black)"/>
<path d="M100.985 19.1808C100.673 19.8996 100.351 20.6373 100.067 21.3183C99.9725 21.5358 100.133 21.7817 100.37 21.7817H108.519C109.106 21.7817 109.532 22.3398 109.38 22.9072C109.333 23.0775 109.285 23.2572 109.238 23.4274C108.916 24.5813 108.547 25.877 108.216 27.0404C108.216 27.0404 108.216 27.0498 108.216 27.0593C107.932 28.0429 107.033 28.7239 106.011 28.7239H95.3823L96.0069 27.0498H104.601C105.093 27.0498 105.528 26.7188 105.67 26.2459C105.916 25.3663 106.181 24.4583 106.418 23.6071C106.446 23.522 106.38 23.4274 106.285 23.4274H97.8241C97.2657 23.4274 96.8682 22.8789 97.048 22.3492C97.1143 22.1601 97.1805 21.9709 97.2468 21.7723C97.5402 20.9116 97.843 19.9942 98.1364 19.1335C98.3163 18.6039 98.6097 18.1215 99.0166 17.7432C99.5656 17.2419 100.351 16.873 101.733 16.873H111.046C110.885 17.3838 110.686 18.0269 110.516 18.5566H101.941C101.534 18.5566 101.156 18.8025 100.995 19.1808H100.985Z" fill="var(--fill-0, black)"/>
<path d="M134.309 22.5951H128.867L128.583 23.872H134.338C134.499 23.872 134.622 24.0233 134.584 24.1841L134.376 25.1488H128.64C128.394 25.1488 128.176 25.3096 128.11 25.546C127.959 26.0662 127.76 26.8134 127.571 27.4944C127.372 28.2321 127.93 28.9604 128.697 28.9604H133.912C134.783 28.9604 135.549 28.374 135.776 27.5322L136.732 24.0044C136.95 23.1342 136.041 22.5857 134.3 22.5857L134.309 22.5951ZM133.202 27.7214H130.06C129.814 27.7214 129.625 27.4944 129.672 27.2485L129.842 26.4351H134.082L133.931 27.1255C133.855 27.4754 133.552 27.7214 133.193 27.7214H133.202Z" fill="var(--fill-0, black)"/>
<path d="M120.775 28.9698H126.217L126.501 27.693H120.747C120.586 27.693 120.463 27.5417 120.501 27.3809L120.709 26.4162H126.444C126.691 26.4162 126.908 26.2554 126.974 26.0189C127.126 25.4987 127.325 24.7515 127.514 24.0706C127.713 23.3328 127.154 22.6046 126.388 22.6046H121.173C120.302 22.6046 119.535 23.191 119.308 24.0327L118.352 27.5606C118.135 28.4307 119.043 28.9793 120.785 28.9793L120.775 28.9698ZM121.873 23.8341H125.015C125.261 23.8341 125.451 24.0611 125.403 24.307L125.233 25.1204H120.993L121.144 24.43C121.22 24.08 121.523 23.8341 121.883 23.8341H121.873Z" fill="var(--fill-0, black)"/>
<path d="M113.791 23.9949L112.778 27.1255C112.683 27.4092 112.901 27.7119 113.204 27.7119H115.721L114.851 28.932H112.541C112.428 28.932 112.305 28.932 112.201 28.9225C111.311 28.8658 110.686 28.5442 110.592 27.7119C110.592 27.6551 110.582 27.5889 110.582 27.5227L113.014 20.0131H115.087L114.339 22.3398C114.311 22.4343 114.377 22.5289 114.472 22.5289H118.968L118.258 23.9003H113.942C113.876 23.9003 113.819 23.9382 113.8 24.0044L113.791 23.9949Z" fill="var(--fill-0, black)"/>
<path d="M145.487 22.5384C146.774 22.5384 147.768 23.3045 147.56 24.0422L147.389 24.5435L146.055 28.9604H144.058L145.6 23.8909H143.66L142.118 28.9604H140.121L141.663 23.8909H139.874L138.332 28.9604H136.335L137.877 23.8909L138.284 22.5384H145.506H145.487Z" fill="var(--fill-0, black)"/>
</g>
</svg>
