<svg preserveAspectRatio="none" width="100%" height="100%" overflow="visible" style="display: block;" viewBox="0 0 439.595 1101.67" fill="none" xmlns="http://www.w3.org/2000/svg">
<path id="race-outline" opacity="0.6" d="M67.788 474.927L67.7879 110.913L0.797591 130.812L0.797655 494.826L67.788 474.927ZM67.788 474.927L129.864 456.49M67.788 474.927L67.788 531.627M129.864 513.174L129.864 456.49M129.864 513.174L67.788 531.627M129.864 513.174L197.216 493.169L197.216 563.802L129.864 583.807L129.864 513.174ZM129.864 456.49L129.864 92.7917L197.216 72.7871L197.216 436.485L129.864 456.49ZM67.788 531.627L67.7881 602.245L0.797756 622.145L0.797744 551.526L67.788 531.627ZM259.292 474.731L259.292 418.046M259.292 474.731L197.231 493.169V436.484L259.292 418.046M259.292 474.731L326.328 454.818M259.292 474.731V545.35L326.328 525.436L326.328 454.818M259.292 418.046L259.292 54.3941L326.328 34.4798L326.328 398.117M259.292 418.046L326.328 398.117M326.328 398.117L388.404 379.68V436.38M326.328 398.117L326.328 454.818M388.404 436.38L326.328 454.818M388.404 436.38L438.586 421.466L438.587 492.085L388.404 506.998L388.404 436.38ZM67.9991 932.396L67.999 643.113L1.0087 663.012L1.00876 952.295L67.9991 932.396ZM67.9991 932.396L130.075 913.959L130.075 970.643L67.9992 989.096L67.9991 932.396ZM388.615 893.849V837.149L326.539 855.587V912.286M388.615 893.849L326.539 912.286M388.615 893.849L438.798 878.935L438.798 949.553L388.615 964.466L388.615 893.849ZM326.539 912.286L326.539 982.904L259.503 1002.82L259.503 932.2L326.539 912.286ZM438.632 364.766L438.632 1.06891L388.419 15.982L388.419 379.679L438.632 364.766ZM130.03 624.691L130.03 583.763L67.9538 602.201L67.9538 643.129L130.03 624.691ZM259.458 586.233V545.305L197.397 563.743L197.397 604.671L259.458 586.233ZM388.57 547.881V506.953L326.494 525.391L326.494 566.319L388.57 547.881ZM197.427 893.698L197.427 604.671L130.075 624.676L130.075 913.702L197.427 893.698ZM326.539 855.315L326.539 566.334L259.503 586.248L259.503 875.23L326.539 855.315ZM438.602 822.1L438.602 533.073L388.389 547.986L388.389 837.013L438.602 822.1ZM259.503 932.201V875.516L197.442 893.954V950.639L259.503 932.201ZM67.9992 1059.71L67.9992 989.095L1.00884 1008.99L1.00886 1079.61L67.9992 1059.71ZM197.427 1021.27L197.427 950.638L130.075 970.642L130.075 1041.28L197.427 1021.27ZM130.241 1082.16V1041.23L68.1649 1059.67L68.1649 1100.6L130.241 1082.16ZM259.669 1043.7L259.669 1002.77L197.608 1021.21V1062.14L259.669 1043.7ZM388.781 1005.35L388.781 964.421L326.705 982.859V1023.79L388.781 1005.35Z" stroke="url(#paint0_linear_470_1584)" stroke-width="1.59518" stroke-miterlimit="10"/>
<defs>
<linearGradient id="paint0_linear_470_1584" x1="438.605" y1="975.532" x2="0.9145" y2="975.532" gradientUnits="userSpaceOnUse">
<stop/>
<stop offset="1" stop-color="white" stop-opacity="0"/>
</linearGradient>
</defs>
</svg>
