<svg preserveAspectRatio="none" width="100%" height="100%" overflow="visible" style="display: block;" viewBox="0 0 327.871 189.815" fill="none" xmlns="http://www.w3.org/2000/svg">
<g id="Group">
<path id="Vector" d="M15.7299 134.374L42.7548 142.832V66.0059H13.6241V27.2258L43.9353 0H79.6387L58.2613 17.1398H35.4801L30.7898 21.6083V35.4606H78.0115V139.066L48.4341 162.334L0 147.556L15.7299 134.406V134.374ZM61.9944 148.705V48.6107H30.9812V51.8982H58.708V137.661L50.9547 145.194L61.9944 148.705Z" fill="var(--fill-0, black)"/>
<path id="Vector_2" d="M83.1483 63.6759L106.408 45.5785L125.424 55.4411V143.789L134.805 152.024L124.244 165.174L110.397 154.833L101.718 165.174L83.1483 153.205V63.6759ZM108.259 148.96V66.0378L100.282 61.3459V143.821L108.259 148.992V148.96Z" fill="var(--fill-0, black)"/>
<path id="Vector_3" d="M133.624 66.0059L124.244 59.2074L134.805 45.5785L150.056 54.9624L158.288 45.5785L177.304 55.4411V146.598L155.002 163.738L150.79 161.855V189.815L133.656 177.846V66.0059H133.624ZM160.171 149.184V66.0059L150.79 60.8352V142.832L160.171 149.184Z" fill="var(--fill-0, black)"/>
<path id="Vector_4" d="M182.026 63.6759L205.286 45.5785L224.302 55.4411V143.789L233.683 152.024L223.122 165.174L209.274 154.833L200.596 165.174L182.026 153.205V63.6759ZM207.137 148.96V66.0378L199.16 61.3459V143.821L207.137 148.992V148.96Z" fill="var(--fill-0, black)"/>
<path id="Vector_5" d="M260.229 66.0059L250.849 60.8352V165.142L233.715 153.173V66.0059L224.334 59.2074L234.895 45.5785L250.147 54.9624L258.379 45.5785L277.395 55.4411V143.789L286.775 152.024L276.214 165.174L260.229 153.205V66.0378V66.0059Z" fill="var(--fill-0, black)"/>
<path id="Vector_6" d="M285.595 63.6759L308.855 45.5785L327.871 55.4411V170.09L312.141 187.229H286.552L302.282 170.09H310.738V157.418L304.165 165.174L285.595 153.205V63.6759ZM310.738 148.96V66.0378L302.761 61.3459V143.821L310.738 148.992V148.96Z" fill="var(--fill-0, black)"/>
</g>
</svg>
