<svg preserveAspectRatio="none" width="100%" height="100%" overflow="visible" style="display: block;" viewBox="0 0 376.188 57.9383" fill="none" xmlns="http://www.w3.org/2000/svg">
<path id="doaibu" d="M255.739 34.7145H280.107V34.8905C277.609 40.2596 273.923 42.9529 269.032 42.9529H251.145V42.7769C253.888 37.4078 255.425 34.7145 255.739 34.7145ZM255.739 34.7145L251.302 42.7769V42.9529H268.683C273.731 42.9529 277.591 40.2068 280.264 34.7145H255.739ZM71.7502 0.722218C79.1391 1.28553 82.8249 3.75001 82.8249 8.09807V8.7846C82.8249 11.0731 81.113 15.0162 77.7068 20.6317C68.9379 36.4044 63.8198 45.259 62.37 47.2482C56.7453 54.0079 49.1468 57.3701 39.5395 57.3701H0.533769C0.865658 56.3491 6.03614 47.0721 16.0278 29.5567L32.3951 0.722218H71.7502ZM24.3949 43.305H25.2508L43.1379 43.129C45.4611 43.129 48.1861 41.4038 51.3128 37.9711C54.23 33.7639 57.8633 27.5323 62.2128 19.2587L62.3875 17.7096V17.5335C62.108 15.9316 60.9726 15.1218 58.9812 15.1218H40.5876C39.1727 17.2343 33.7751 26.6169 24.4123 43.2698L24.3949 43.305ZM111.699 0.546184H132.818C139.403 0.546184 143.264 2.60579 144.399 6.725L144.574 7.92203V8.2565C144.574 10.809 142.478 15.5619 138.268 22.4977C130.372 36.6685 125.883 44.502 124.818 46.0159C118.739 53.4622 111.472 57.1765 103.018 57.1765L78.1435 57.3525C73.2874 57.3525 70.0558 55.8034 68.4313 52.7228C68.082 52.1595 67.9248 51.4026 67.9248 50.4872V49.8007C67.9248 47.0545 70.1956 42.0727 74.7372 34.8729C81.8991 22.2512 86.266 14.8226 87.8556 12.5517C94.2139 4.54217 102.162 0.52858 111.699 0.52858V0.546184ZM88.8862 39.8723C88.8862 41.3334 89.8469 42.3544 91.7859 42.9705H104.223C109.359 42.9705 113.9 38.6225 117.848 29.9264C121.831 23.6067 123.804 19.5931 123.804 17.9032C123.804 15.9492 121.988 14.981 118.354 14.981H111.193C104.066 14.981 98.6158 19.2763 94.8427 27.8491C90.8601 34.1688 88.8862 38.1824 88.8862 39.8723ZM194.479 0.546184C200.576 0.546184 204.506 2.37694 206.235 6.03846L206.567 8.09807V8.60857C206.567 11.0378 204.401 15.7908 200.087 22.8498C187.387 45.259 180.802 56.7012 180.33 57.1765H164.662L172.33 43.0937H148.137C147.683 43.5514 145.01 48.2516 140.137 57.1765L139.962 57.3525H123.944V57.1765C139.508 29.5743 148.015 14.6818 149.5 12.5517C153.849 7.746 157.308 4.82382 159.893 3.80282C163.16 2.00727 166.566 0.968667 170.112 0.704615L194.479 0.52858V0.546184ZM171.824 0.722219H195.51C200.995 0.722219 204.558 2.78182 206.235 6.90103L206.41 8.2741C206.41 10.9322 203.685 16.6533 198.235 25.4375C192.837 35.225 186.828 45.7519 180.173 57.0181L179.492 57.1941H165.011L164.679 56.8596L172.173 43.6394V43.1289H147.805C147.386 43.5514 144.713 48.2516 139.805 57.2117L138.949 57.3877H124.294L124.119 57.2117H123.944C139.438 29.6799 147.858 14.981 149.15 13.0974C155.91 4.85903 163.456 0.739822 171.806 0.739822L171.824 0.722219ZM155.648 29.3983H177.116C179.509 29.3983 180.697 28.9934 180.697 28.2012C184.331 22.8146 186.147 19.5579 186.147 18.4137V17.0406C185.518 15.6676 183.876 14.981 181.204 14.981H171.492C164.994 14.981 159.701 19.7868 155.648 29.3983ZM155.98 29.2222H180.173C184.261 22.8146 186.304 19.2058 186.304 18.4137V17.7272C186.304 15.8964 184.365 14.981 180.505 14.981H172.505C166.199 14.981 161.378 18.4665 158.024 25.4551C156.661 27.6555 155.98 28.923 155.98 29.2222ZM253.014 0.898253L253.346 1.23272L221.659 57.3702H205.991C207.091 54.8881 217.537 36.0524 237.328 0.898253H253.014ZM296.789 0.387753C304.247 0.387753 308.562 2.50017 309.732 6.7426L309.907 8.11567V8.8022C309.907 10.633 308.492 13.8368 305.645 18.4137C302.204 24.9446 299.776 28.2012 298.326 28.2012C297.872 28.6589 295.88 28.9406 292.369 29.0638V29.2398C294.902 29.2398 296.369 30.3312 296.806 32.4965V33.359C296.631 34.5561 294.535 38.6225 290.5 45.5406C285.539 53.4446 277.347 57.3878 265.975 57.3878H252.35L227.301 57.2117V57.0357L259.477 0.387753H296.789ZM260.001 0.546184H299.007C304.038 0.546184 307.496 2.50017 309.4 6.39053L309.732 8.45014C309.732 10.4041 307.741 14.629 303.776 21.1598C301.557 26.3176 298.378 28.8877 294.238 28.8877L292.526 29.0638L292.02 28.8877V29.2222C295.094 29.6447 296.614 30.9121 296.614 33.007C296.614 34.0104 294.396 38.2352 289.976 45.7167C284.561 53.3918 277.399 57.2117 268.508 57.2117H267.32L267.146 57.3878L266.971 57.2117H227.616L227.441 57.0357H227.267L259.32 0.722219L260.001 0.546184ZM266.988 14.805C264.036 19.8748 262.552 22.6209 262.552 23.0434V23.2194L275.321 23.3955H286.902C288.718 20.8782 289.627 19.1002 289.627 18.0792V17.3927C289.627 15.5619 287.583 14.6466 283.496 14.6466H282.64L266.971 14.8226L266.988 14.805ZM271.757 14.805H267.163L262.726 23.2194H270.045L287.077 23.3955C288.893 20.5085 289.801 18.5545 289.801 17.5511C289.225 15.5971 287.408 14.629 284.352 14.629L271.74 14.805H271.757ZM335.166 0.898253C334.117 3.27472 327.305 15.5267 314.728 37.6367L314.396 39.8723C314.396 41.7911 315.811 42.8825 318.658 43.129H329.384C334.572 43.129 339.236 38.7281 343.358 29.9088L359.69 0.898253H375.184L375.359 1.07429H375.534C365.228 19.9276 356.826 34.8729 350.328 45.8751C346.555 50.0823 343.375 52.6524 340.79 53.603C335.969 56.1203 331.305 57.3878 326.816 57.3878H303.654C296.719 57.3878 293.26 55.2049 293.26 50.8569V50.1703C293.26 47.5122 295.531 42.5304 300.073 35.2426L319.654 0.898253H335.166Z" stroke="var(--stroke-0, white)" stroke-width="0.775506" stroke-miterlimit="10"/>
</svg>
