<svg preserveAspectRatio="none" width="100%" height="100%" overflow="visible" style="display: block;" viewBox="0 0 476.361 275.78" fill="none" xmlns="http://www.w3.org/2000/svg">
<g id="Group">
<path id="Vector" d="M22.8539 195.23L62.118 207.519V95.8993H19.7943V39.5562L63.8332 0H115.706L84.6473 24.9023H51.5487L44.7342 31.3945V51.5204H113.342V202.047L70.3695 235.853L0 214.382L22.8539 195.277V195.23ZM90.0711 216.052V70.626H45.0124V75.4025H85.2963V200.007L74.0317 210.951L90.0711 216.052Z" fill="var(--fill-0, white)"/>
<path id="Vector_2" d="M120.805 92.5141L154.599 66.2206L182.228 80.5499V208.91L195.857 220.874L180.513 239.98L160.394 224.955L147.785 239.98L120.805 222.59V92.5141ZM157.288 216.423V95.9457L145.699 89.1289V208.957L157.288 216.469V216.423Z" fill="var(--fill-0, white)"/>
<path id="Vector_3" d="M194.142 95.8993L180.513 86.0219L195.857 66.2206L218.015 79.8543L229.975 66.2206L257.604 80.5499V212.991L225.2 237.893L219.081 235.157V275.78L194.188 258.39V95.8993H194.142ZM232.71 216.747V95.8993L219.081 88.3869V207.519L232.71 216.747Z" fill="var(--fill-0, white)"/>
<path id="Vector_4" d="M264.464 92.5141L298.258 66.2206L325.887 80.5499V208.91L339.516 220.874L324.171 239.98L304.053 224.955L291.444 239.98L264.464 222.59V92.5141ZM300.947 216.423V95.9457L289.358 89.1289V208.957L300.947 216.469V216.423Z" fill="var(--fill-0, white)"/>
<path id="Vector_5" d="M378.085 95.8993L364.456 88.3869V239.934L339.562 222.544V95.8993L325.933 86.0219L341.277 66.2206L363.436 79.8543L375.396 66.2206L403.025 80.5499V208.91L416.653 220.874L401.309 239.98L378.085 222.59V95.9457V95.8993Z" fill="var(--fill-0, white)"/>
<path id="Vector_6" d="M414.939 92.5141L448.733 66.2206L476.361 80.5499V247.122L453.507 272.024H416.329L439.183 247.122H451.468V228.712L441.918 239.98L414.939 222.59V92.5141ZM451.468 216.423V95.9457L439.878 89.1289V208.957L451.468 216.469V216.423Z" fill="var(--fill-0, white)"/>
</g>
</svg>
