<svg preserveAspectRatio="none" width="100%" height="100%" overflow="visible" style="display: block;" viewBox="0 0 426.158 248.374" fill="none" xmlns="http://www.w3.org/2000/svg">
<g id="Group">
<path id="Vector" d="M24.7081 50.1755L55.4426 28.6121L0 24.0212V0L150.057 10.6194L128.501 34.6406L77.6475 30.4207V215.495L114.733 222.544L96.7464 245.128L24.7081 232.05V50.1755ZM53.6811 210.858V44.518L48.7209 48.738V209.791L53.6811 210.858Z" fill="var(--fill-0, white)"/>
<path id="Vector_2" d="M128.873 99.2382L114.734 88.9897L130.634 68.4929L154.647 83.3322V216.144L168.786 228.526L152.885 248.327L128.873 230.335V99.2845V99.2382ZM149.919 65.8496L130.912 54.2564L147.694 34.1305L167.071 46.0484L149.919 65.8496Z" fill="var(--fill-0, white)"/>
<path id="Vector_3" d="M215.05 99.2381L199.845 90.7519V248.281L174.07 230.288V99.2381L159.931 88.9897L175.832 68.4929L199.474 83.3322L212.175 68.4929L239.711 82.9612L252.089 68.4929L280.691 83.3322V216.144L294.83 228.526L278.929 248.327L254.916 230.335V99.2845L240.778 91.4939V248.327L215.003 230.335V99.2845L215.05 99.2381Z" fill="var(--fill-0, white)"/>
<path id="Vector_4" d="M293.068 95.7138L328.02 68.5393L356.623 83.3786V136.708L340.722 148.718H364.04L340.398 168.148H318.842V216.191L336.133 228.572L320.233 248.374L293.021 230.381V95.8066L293.068 95.7138ZM330.848 149.785V99.2845L318.842 92.2358V159.709L330.848 149.831V149.785Z" fill="var(--fill-0, white)"/>
<path id="Vector_5" d="M388.192 161.795L362.278 147.327V95.7602L397.417 68.5857L426.158 83.425V104.617L400.383 124.419V99.7019L388.006 92.2822V147.373L400.383 136.058L426.158 153.031V220.133L390.139 248.374L362.232 230.381V196.807L388.006 173.481V216.237L400.383 224.352L400.615 150.898L388.192 161.842V161.795Z" fill="var(--fill-0, white)"/>
</g>
</svg>
