<svg preserveAspectRatio="none" width="100%" height="100%" overflow="visible" style="display: block;" viewBox="0 0 503.93 16.9456" fill="none" xmlns="http://www.w3.org/2000/svg">
<g id="Group">
<path id="Vector" d="M2.48785 0.29706V16.6491H2.64269e-05V0.29706H2.48785Z" fill="var(--fill-0, white)"/>
<path id="Vector_2" d="M32.3711 2.58182H27.351V16.6339H24.8632V2.58182H19.8728V0.281845H32.3711V2.58182Z" fill="var(--fill-0, white)"/>
<path id="Vector_3" d="M48.6309 13.4285L50.7337 12.4047C51.3705 13.8143 52.7625 14.5711 54.6728 14.5711C56.583 14.5711 58.0343 13.6659 58.0343 12.0634C58.0343 10.2531 56.3757 9.94147 54.4506 9.57051C51.9924 9.08084 48.9419 8.27957 48.9419 4.80736C48.9419 2.09192 51.4001 0.0441967 54.4951 0.0441967C56.9829 0.0441967 59.1893 1.21644 60.1667 3.45706L58.0935 4.52543C57.4419 3.18996 56.198 2.359 54.3914 2.359C52.7329 2.359 51.4001 3.33835 51.4001 4.73317C51.4001 6.48411 53.1327 6.88474 55.1022 7.27054C57.5456 7.76021 60.5073 8.5615 60.5073 12.0337C60.5073 14.9124 57.9454 16.9156 54.658 16.9156C51.9036 16.9156 49.5935 15.6691 48.6161 13.4285H48.6309Z" fill="var(--fill-0, white)"/>
<path id="Vector_4" d="M110.841 2.58182H105.821V16.6339H103.333V2.58182H98.3425V0.281845H110.841V2.58182Z" fill="var(--fill-0, white)"/>
<path id="Vector_5" d="M130.314 16.6487C128.641 16.6487 128.019 15.7881 128.019 14.4081V2.55216C128.019 1.15734 128.626 0.31155 130.314 0.31155H139.273V2.58184H130.506V7.34498H138.784V9.61527H130.506V14.3933H139.451V16.6636H130.314V16.6487Z" fill="var(--fill-0, white)"/>
<path id="Vector_6" d="M160.745 2.27029C161.234 0.727085 162.419 0 163.796 0C165.173 0 166.373 0.727085 166.861 2.27029L171.318 16.6488H168.786L167.587 12.6424L159.99 12.6721L158.791 16.6488H156.288L160.745 2.27029ZM160.671 10.4018H166.935L164.744 3.01221C164.566 2.49287 164.285 2.25546 163.825 2.25546C163.337 2.25546 163.041 2.49287 162.907 3.01221L160.686 10.4018H160.671Z" fill="var(--fill-0, white)"/>
<path id="Vector_7" d="M188.156 16.6636L190.451 2.16643C190.673 0.756773 191.695 0 193.013 0C194.183 0 195.175 0.563863 195.545 1.85481L198.684 13.2508C198.729 13.4734 198.788 13.5476 198.907 13.5476C199.055 13.5476 199.084 13.4734 199.143 13.2508L202.268 1.89933C202.609 0.608377 203.66 0.0148303 204.83 0.0148303C206.118 0.0148303 207.125 0.801271 207.333 2.2406L209.406 16.634H206.903L205.096 3.01221C205.052 2.67093 204.948 2.44834 204.682 2.44834C204.46 2.44834 204.312 2.62641 204.238 2.93802L200.876 14.6604C200.61 15.6398 199.825 16.1294 198.907 16.1294C198.033 16.1294 197.204 15.6398 196.937 14.7198L193.605 2.93802C193.501 2.59673 193.383 2.44834 193.161 2.44834C192.939 2.44834 192.776 2.62641 192.717 3.01221L190.688 16.6785H188.156V16.6636Z" fill="var(--fill-0, white)"/>
<path id="Vector_8" d="M248.204 13.4285L250.307 12.4047C250.943 13.8143 252.335 14.5711 254.246 14.5711C256.156 14.5711 257.607 13.6659 257.607 12.0634C257.607 10.2531 255.949 9.94147 254.024 9.57051C251.565 9.08084 248.515 8.27957 248.515 4.80736C248.515 2.09192 250.973 0.0441967 254.068 0.0441967C256.556 0.0441967 258.762 1.21644 259.74 3.45706L257.666 4.52543C257.015 3.18996 255.771 2.359 253.964 2.359C252.306 2.359 250.973 3.33835 250.973 4.73317C250.973 6.48411 252.706 6.88474 254.675 7.27054C257.119 7.76021 260.08 8.5615 260.08 12.0337C260.08 14.9124 257.518 16.9156 254.231 16.9156C251.477 16.9156 249.166 15.6691 248.189 13.4285H248.204Z" fill="var(--fill-0, white)"/>
<path id="Vector_9" d="M281.36 2.27029C281.848 0.727085 283.033 0 284.41 0C285.787 0 286.987 0.727085 287.476 2.27029L291.933 16.6488H289.401L288.201 12.6424L280.604 12.6721L279.405 16.6488H276.902L281.36 2.27029ZM281.286 10.4018H287.55L285.358 3.01221C285.18 2.49287 284.899 2.25546 284.44 2.25546C283.951 2.25546 283.655 2.49287 283.522 3.01221L281.3 10.4018H281.286Z" fill="var(--fill-0, white)"/>
<path id="Vector_10" d="M309.895 16.6491V0.29706H315.078C319.462 0.29706 322.32 2.27059 322.32 6.08409C322.32 9.89758 319.417 11.9453 315.212 11.9453H312.383V16.6491H309.895ZM312.383 2.5822V9.61564H315.167C317.848 9.61564 319.773 8.5621 319.773 6.06923C319.773 3.57637 317.922 2.5822 315.167 2.5822H312.383Z" fill="var(--fill-0, white)"/>
<path id="Vector_11" d="M339.734 9.54146V0.29706H342.222V9.46726C342.222 12.7169 343.585 14.5123 346.457 14.5123C349.33 14.5123 350.693 12.7021 350.693 9.46726V0.29706H353.18V9.54146C353.18 14.082 351.033 16.8568 346.457 16.8568C341.882 16.8568 339.734 14.0672 339.734 9.54146Z" fill="var(--fill-0, white)"/>
<path id="Vector_12" d="M374.549 2.27029C375.038 0.727085 376.222 0 377.599 0C378.977 0 380.176 0.727085 380.665 2.27029L385.122 16.6488H382.59L381.39 12.6424L373.794 12.6721L372.594 16.6488H370.092L374.549 2.27029ZM374.475 10.4018H380.739L378.547 3.01221C378.369 2.49287 378.088 2.25546 377.629 2.25546C377.14 2.25546 376.844 2.49287 376.711 3.01221L374.49 10.4018H374.475Z" fill="var(--fill-0, white)"/>
<path id="Vector_13" d="M402.892 16.6488V2.34449C402.892 0.860636 403.87 0 405.114 0C406.106 0 406.787 0.385796 407.261 1.24643L414.132 14.1114C414.206 14.334 414.25 14.423 414.399 14.423C414.502 14.423 414.517 14.3785 414.517 14.2301V0.296765H416.886V14.6308C416.886 16.1146 415.835 16.9456 414.724 16.9456C413.806 16.9456 412.992 16.5598 412.533 15.6695L405.691 2.77479C405.647 2.58189 405.588 2.47803 405.469 2.47803C405.321 2.47803 405.277 2.58189 405.277 2.77479V16.634H402.907L402.892 16.6488Z" fill="var(--fill-0, white)"/>
<path id="Vector_14" d="M434.73 8.44313C434.73 3.82836 438.329 0.029706 443.038 0.029706C445.748 0.029706 448.369 1.35032 449.642 3.84319L447.614 5.01544C446.636 3.32385 444.933 2.37419 442.934 2.37419C439.721 2.37419 437.277 5.08962 437.277 8.50248C437.277 11.9153 439.706 14.6605 443.023 14.6605C444.978 14.6605 446.562 13.9037 447.332 12.9689V9.03666H449.746V13.8147C448.621 15.4469 446.207 16.9456 443.023 16.9456C438.344 16.9456 434.716 13.1618 434.716 8.45796L434.73 8.44313Z" fill="var(--fill-0, white)"/>
<path id="Vector_15" d="M470.611 0.29706V16.6491H468.123V0.29706H470.611Z" fill="var(--fill-0, white)"/>
<path id="Vector_16" d="M489.936 16.6488V2.34449C489.936 0.860636 490.914 0 492.157 0C493.15 0 493.846 0.385796 494.305 1.24643L501.176 14.1114C501.25 14.334 501.294 14.423 501.442 14.423C501.546 14.423 501.561 14.3785 501.561 14.2301V0.296765H503.93V14.6308C503.93 16.1146 502.879 16.9456 501.768 16.9456C500.85 16.9456 500.036 16.5598 499.577 15.6695L492.735 2.77479C492.691 2.58189 492.631 2.47803 492.513 2.47803C492.365 2.47803 492.32 2.58189 492.32 2.77479V16.634H489.951L489.936 16.6488Z" fill="var(--fill-0, white)"/>
</g>
</svg>
