<svg preserveAspectRatio="none" width="100%" height="100%" overflow="visible" style="display: block;" viewBox="0 0 419.255 19.6759" fill="none" xmlns="http://www.w3.org/2000/svg">
<g id="Group">
<path id="Vector" d="M1.21635e-05 19.3345V0.341263H2.88767V8.53211H12.9278V0.341263H15.8154V19.3345H12.9278V11.203H2.88767V19.3345H1.21635e-05Z" fill="var(--fill-0, white)"/>
<path id="Vector_2" d="M42.4556 9.80828C42.4556 4.3032 46.7204 0.0297123 52.2143 0.0297123C57.7082 0.0297123 61.9138 4.3032 61.9138 9.80828C61.9138 15.3134 57.6638 19.6759 52.2143 19.6759C46.7648 19.6759 42.4556 15.4024 42.4556 9.80828ZM58.9522 9.80828C58.9522 5.86124 55.9757 2.77483 52.2143 2.77483C48.453 2.77483 45.4321 5.86124 45.4321 9.80828C45.4321 13.7553 48.4234 16.9308 52.2143 16.9308C56.0053 16.9308 58.9522 13.8147 58.9522 9.80828Z" fill="var(--fill-0, white)"/>
<path id="Vector_3" d="M87.2807 19.3642L89.9462 2.52255C90.1979 0.875479 91.3826 6.36977e-06 92.9227 6.36977e-06C94.285 6.36977e-06 95.4401 0.652901 95.8695 2.15159L99.5124 15.3875C99.5716 15.6398 99.6309 15.7288 99.7642 15.7288C99.927 15.7288 99.9567 15.6398 100.046 15.3875L103.674 2.21094C104.073 0.712254 105.288 0.029684 106.65 0.029684C108.146 0.029684 109.316 0.934832 109.567 2.61158L111.966 19.3346H109.049L106.961 3.51673C106.902 3.11609 106.798 2.86384 106.487 2.86384C106.235 2.86384 106.058 3.05674 105.984 3.4277L102.074 17.0346C101.763 18.1623 100.86 18.741 99.779 18.741C98.7572 18.741 97.7946 18.1772 97.4836 17.094L93.6038 3.39802C93.4854 2.99738 93.3521 2.83416 93.1004 2.83416C92.8486 2.83416 92.6413 3.02706 92.5969 3.48705L90.2423 19.3642H87.2955H87.2807Z" fill="var(--fill-0, white)"/>
<path id="Vector_4" d="M141.391 19.3345C139.436 19.3345 138.725 18.3404 138.725 16.723V2.95284C138.725 1.33544 139.436 0.341263 141.391 0.341263H151.801V2.98252H141.613V8.51727H151.238V11.1585H141.613V16.7081H151.993V19.3494H141.391V19.3345Z" fill="var(--fill-0, white)"/>
<path id="Vector_5" d="M208.028 9.80828C208.028 4.3032 212.293 0.0297123 217.787 0.0297123C223.281 0.0297123 227.487 4.3032 227.487 9.80828C227.487 15.3134 223.237 19.6759 217.787 19.6759C212.338 19.6759 208.028 15.4024 208.028 9.80828ZM224.525 9.80828C224.525 5.86124 221.548 2.77483 217.787 2.77483C214.026 2.77483 211.005 5.86124 211.005 9.80828C211.005 13.7553 213.996 16.9308 217.787 16.9308C221.578 16.9308 224.525 13.8147 224.525 9.80828Z" fill="var(--fill-0, white)"/>
<path id="Vector_6" d="M253.934 19.3345V2.95284C253.934 1.33544 254.645 0.341263 256.6 0.341263H267.01V3.01219H256.822V9.4521H266.359V12.123H256.822V19.3494H253.934V19.3345Z" fill="var(--fill-0, white)"/>
<path id="Vector_7" d="M336.195 3.01219H330.361V19.3345H327.473V3.01219H321.668V0.341263H336.18V3.01219H336.195Z" fill="var(--fill-0, white)"/>
<path id="Vector_8" d="M362.095 19.3345V0.341263H364.983V8.53211H375.023V0.341263H377.91V19.3345H375.023V11.203H364.983V19.3345H362.095Z" fill="var(--fill-0, white)"/>
<path id="Vector_9" d="M408.653 19.3345C406.698 19.3345 405.987 18.3404 405.987 16.723V2.95284C405.987 1.33544 406.698 0.341263 408.653 0.341263H419.063V2.98252H408.875V8.51727H418.5V11.1585H408.875V16.7081H419.255V19.3494H408.653V19.3345Z" fill="var(--fill-0, white)"/>
</g>
</svg>
