<svg preserveAspectRatio="none" width="100%" height="100%" overflow="visible" style="display: block;" viewBox="0 0 613.808 73.3172" fill="none" xmlns="http://www.w3.org/2000/svg">
<g id="Group">
<path id="Vector" d="M0 36.7103C0 16.2777 15.9487 0.192754 36.8581 0.192754C49.2824 0.192754 61.4993 6.82557 66.5786 18.3551L50.9409 27.0653C48.0385 21.8718 44.1143 18.3551 36.0289 18.3551C26.1961 18.3551 19.6656 25.8188 19.6656 36.7251C19.6656 47.6314 25.9888 55.0952 36.0289 55.0952C44.0994 55.0952 48.3494 51.5636 50.9409 46.385L66.5786 55.0952C61.4993 66.6099 49.2824 73.2575 36.8581 73.2575C15.9487 73.2575 0 57.1726 0 36.74V36.7103Z" fill="var(--fill-0, white)"/>
<path id="Vector_2" d="M70.2065 71.685V1.66211H89.3538V28.0153H116.794V1.66211H135.941V71.685H116.794V45.6434H89.3538V71.685H70.2065Z" fill="var(--fill-0, white)"/>
<path id="Vector_3" d="M156.555 12.7464C159.146 4.14008 166.387 0.0891453 173.643 0.0891453C180.9 0.0891453 188.141 4.14008 190.732 12.7464L208.754 71.6701H189.192L185.979 59.8438H161.441L158.124 71.6701H138.562L156.584 12.7464H156.555ZM166.18 42.735H181.196L174.576 18.3554C174.369 17.6283 174.162 17.3166 173.747 17.3166C173.332 17.3166 173.125 17.6283 172.918 18.3554L166.195 42.735H166.18Z" fill="var(--fill-0, white)"/>
<path id="Vector_4" d="M209.258 71.6845L218.468 12.8647C219.816 4.57001 225.606 0.103636 234.003 0.103636C241.244 0.103636 247.36 3.21972 249.329 10.9951L258.851 48.1358L268.269 11.3067C270.239 3.53133 276.547 0.103636 284.01 0.103636C292.185 0.103636 297.782 4.67389 299.026 13.1763L307.304 71.6845H287.95L282.352 22.302L271.275 62.7666C269.513 68.9839 264.656 71.9962 258.851 71.9962C253.046 71.9962 247.982 69.0878 246.427 63.1821L235.454 22.1982L228.731 71.6845H209.272H209.258Z" fill="var(--fill-0, white)"/>
<path id="Vector_5" d="M314.56 71.685V1.66211H341.378C362.08 1.66211 374.193 11.5149 374.193 27.8075C374.193 44.1002 362.702 54.5762 342.415 54.5762H333.722V71.5959L314.575 71.6998L314.56 71.685ZM333.722 19.2902V36.9332H341.896C350.485 36.9332 354.528 33.7133 354.528 27.8075C354.528 22.3025 350.174 19.3051 341.896 19.3051H333.722V19.2902Z" fill="var(--fill-0, white)"/>
<path id="Vector_6" d="M399.057 1.6469V71.6698H379.91V1.6469H399.057Z" fill="var(--fill-0, white)"/>
<path id="Vector_7" d="M405.261 36.7103C405.261 15.8622 421.003 0.192754 442.12 0.192754C463.236 0.192754 478.978 15.8622 478.978 36.7103C478.978 57.5584 463.236 73.2278 442.12 73.2278C421.003 73.2278 405.261 57.5584 405.261 36.7103ZM459.312 36.7103C459.312 26.3382 451.863 18.3402 442.12 18.3402C432.376 18.3402 424.927 26.3233 424.927 36.7103C424.927 47.0972 432.376 55.0804 442.12 55.0804C451.863 55.0804 459.312 47.0972 459.312 36.7103Z" fill="var(--fill-0, white)"/>
<path id="Vector_8" d="M484.679 71.6848V11.9302C484.679 4.46643 490.484 2.73645e-05 496.585 2.73645e-05C501.457 2.73645e-05 505.692 1.66194 508.18 5.60898L532.821 44.7233V1.66195H550.947V61.4166C550.947 68.8803 545.142 73.2429 539.041 73.2429C534.272 73.2429 529.934 71.5809 527.446 67.6339L502.805 28.5196V71.67H484.679V71.6848Z" fill="var(--fill-0, white)"/>
<path id="Vector_9" d="M557.373 57.4696L573.322 49.4865C575.292 53.7452 579.216 55.7038 585.746 55.7038C590.825 55.7038 594.646 54.1458 594.646 50.822C594.646 46.6672 590.5 46.044 584.191 45.1092C573.737 43.5511 558.41 39.5002 558.41 22.8069C558.41 9.94193 569.901 0.0891453 585.435 0.0891453C597.652 0.0891453 608.003 5.59425 612.772 15.9664L596.823 23.9495C594.853 20.5218 591.122 17.7173 584.606 17.7173C580.045 17.7173 577.572 19.1715 577.572 22.0798C577.572 26.0268 582.133 27.2733 588.96 28.2971C599.311 29.8552 613.808 33.8022 613.808 50.5994C613.808 63.4644 601.28 73.3171 585.746 73.3171C572.493 73.3171 562.142 67.8121 557.373 57.4399V57.4696Z" fill="var(--fill-0, white)"/>
</g>
</svg>
