<svg preserveAspectRatio="none" width="100%" height="100%" overflow="visible" style="display: block;" viewBox="0 0 719.511 143.013" fill="none" xmlns="http://www.w3.org/2000/svg">
<g id="Group">
<path id="Vector" d="M6.90494e-06 3.04195H37.406L54.9984 96.6283L70.3696 28.5642C74.8121 8.50252 84.3191 6.28464e-05 98.8757 6.28464e-05C113.432 6.28464e-05 122.939 8.50252 127.382 28.5642L142.753 96.6283L160.345 3.04195H197.751L173.495 117.491C170.06 133.903 159.146 143.013 144.382 143.013C131.04 143.013 119.119 134.096 115.668 119.109L98.8905 45.1684L82.1126 119.109C78.6771 134.096 66.7415 143.013 53.3991 143.013C38.6351 143.013 27.7213 133.903 24.2858 117.491L0.02963 3.04195H6.90494e-06Z" fill="var(--fill-0, white)"/>
<path id="Vector_2" d="M195.708 71.5066C195.708 30.7897 226.435 0.192767 267.677 0.192767C308.918 0.192767 339.645 30.7749 339.645 71.5066C339.645 112.238 308.918 142.82 267.677 142.82C226.435 142.82 195.708 112.238 195.708 71.5066ZM301.232 71.5066C301.232 51.252 286.676 35.6568 267.677 35.6568C248.677 35.6568 234.121 51.252 234.121 71.5066C234.121 91.7611 248.677 107.356 267.677 107.356C286.676 107.356 301.232 91.7611 301.232 71.5066Z" fill="var(--fill-0, white)"/>
<path id="Vector_3" d="M351.774 139.778V3.04164H408.993C441.335 3.04164 466.006 18.2363 466.006 48.4178C466.006 66.4465 455.892 81.2405 439.928 86.3005C446.799 90.752 451.257 98.6609 457.313 111.021L471.263 139.793H430.628L417.893 114.063C413.243 104.745 407.986 101.302 395.858 101.302H388.987L388.78 139.793H351.789L351.774 139.778ZM389.165 37.4818L388.958 68.0639H408.979C419.892 68.0639 427.578 61.9802 427.578 52.2609C427.578 41.9333 419.892 37.467 409.378 37.467H389.165V37.4818Z" fill="var(--fill-0, white)"/>
<path id="Vector_4" d="M522.796 105.338H583.036V139.778H517.731C494.69 139.778 485.39 127.626 485.39 108.38V3.04164H522.796V105.338Z" fill="var(--fill-0, white)"/>
<path id="Vector_5" d="M645.113 139.778H591.137V3.04164H645.113C689.79 3.04164 719.511 30.389 719.511 71.9219C719.511 113.455 688.783 139.778 645.113 139.778ZM645.113 37.4818H628.543V106.362H645.113C666.941 106.362 681.098 92.592 681.098 71.9219C681.098 51.2519 666.941 37.4818 645.113 37.4818Z" fill="var(--fill-0, white)"/>
</g>
</svg>
