<svg preserveAspectRatio="none" width="100%" height="100%" overflow="visible" style="display: block;" viewBox="0 0 154.326 360.469" fill="none" xmlns="http://www.w3.org/2000/svg">
<g id="Group">
<path id="Vector" d="M153.666 349.133C149.312 353.718 124.582 338.108 116.66 324.649C116.66 324.649 112.262 317.245 111.314 306.858C111.225 305.908 111.314 304.914 111.462 303.965C111.551 303.356 111.891 302.792 112.454 301.338C113.565 301.709 114.779 301.947 115.934 302.258C115.934 302.258 117.533 302.822 119.118 303.638C135.689 312.289 146.129 329.739 146.129 329.739C151.163 338.153 156.154 346.492 153.666 349.118V349.133Z" fill="var(--fill-0, white)"/>
<path id="Vector_2" d="M82.4968 38.6965C83.8296 14.1537 114.513 -5.43316 142.56 1.36287C125.767 19.7181 109.744 37.5095 82.4968 38.6965Z" fill="var(--fill-0, white)"/>
<path id="Vector_3" d="M47.2088 258.277C29.6313 234.847 31.0825 208.686 50.1409 193.061C61.958 215.111 52.3918 235.633 47.2088 258.277Z" fill="var(--fill-0, white)"/>
<path id="Vector_4" d="M30.4601 212.886C19.8573 185.717 28.2537 160.432 50.5107 150.638C55.8566 175.181 41.2111 192.572 30.4601 212.886Z" fill="var(--fill-0, white)"/>
<path id="Vector_5" d="M35.5394 115.412C38.1901 88.7915 61.0099 68.9969 82.8227 73.7749C79.5204 89.2218 62.6832 104.179 35.5394 115.412Z" fill="var(--fill-0, white)"/>
<path id="Vector_6" d="M26.8174 163.904C22.9524 135.785 39.5378 110.767 62.1206 110.44C60.1511 134.82 42.3514 147.893 26.8174 163.904Z" fill="var(--fill-0, white)"/>
<path id="Vector_7" d="M114.542 43.8007C100.326 64.3817 78.0986 66.5778 57.204 72.6022C60.9801 52.4515 93.144 31.9299 114.542 43.8007Z" fill="var(--fill-0, white)"/>
<path id="Vector_8" d="M61.3503 234.535C77.6692 252.698 74.5002 274.762 75.1074 296.62C52.3024 283.458 46.0533 248.187 61.3503 234.535Z" fill="var(--fill-0, white)"/>
<path id="Vector_9" d="M68.4142 300.165C45.6092 300.299 23.293 280.104 18.2285 254.715C43.1066 260.487 56.3305 279.451 68.4142 300.165Z" fill="var(--fill-0, white)"/>
<path id="Vector_10" d="M112.632 328.804C86.377 317.868 75.0338 296.338 81.6828 270.489C102.962 284.2 105.524 306.443 112.632 328.804Z" fill="var(--fill-0, white)"/>
<path id="Vector_11" d="M151.638 353.866C135.052 368.319 97.8535 356.908 85.8143 340.185C110.278 332.261 131.01 343.242 151.638 353.866Z" fill="var(--fill-0, white)"/>
<path id="Vector_12" d="M17.1772 92.8124C30.564 115.293 26.4768 137.847 20.5091 160.491C4.24943 147.923 2.65012 118.973 17.1772 92.8124Z" fill="var(--fill-0, white)"/>
<path id="Vector_13" d="M44.9578 45.9821C52.5101 70.7475 41.0928 91.2246 30.416 111.375C17.4882 96.3736 24.9072 61.8593 44.9578 45.9821Z" fill="var(--fill-0, white)"/>
<path id="Vector_14" d="M24.0927 211.402C3.99767 200.525 -5.53895 171.056 3.31648 146.751C22.8043 164.304 22.1676 188.313 24.0927 211.402Z" fill="var(--fill-0, white)"/>
<path id="Vector_15" d="M52.377 67.4387C44.336 48.4157 62.0616 16.2755 85.3256 6.80858C80.4241 22.5374 81.1645 39.0526 67.0965 50.3151C61.5137 54.7814 57.5747 61.2807 52.3918 67.4238L52.377 67.4387Z" fill="var(--fill-0, white)"/>
<path id="Vector_16" d="M3.36069 201.579C26.2989 213.761 33.3033 235.826 39.9078 257.698C20.2867 256.303 1.74657 228.303 3.36069 201.579Z" fill="var(--fill-0, white)"/>
<path id="Vector_17" d="M106.842 332.736C83.9485 338.597 59.5443 326.029 44.8395 299.78C57.7525 303.43 69.925 304.914 80.0243 310.285C89.8423 315.494 97.5426 324.708 106.842 332.736Z" fill="var(--fill-0, white)"/>
</g>
</svg>
