<svg preserveAspectRatio="none" width="100%" height="100%" overflow="visible" style="display: block;" viewBox="0 0 154.326 360.469" fill="none" xmlns="http://www.w3.org/2000/svg">
<g id="Group">
<path id="Vector" d="M0.660046 349.133C5.01372 353.718 29.7437 338.108 37.6662 324.649C37.6662 324.649 42.0644 317.245 43.0121 306.858C43.101 305.908 43.0121 304.914 42.864 303.965C42.7751 303.356 42.4346 302.792 41.8719 301.338C40.7612 301.709 39.5469 301.947 38.3918 302.258C38.3918 302.258 36.7926 302.822 35.2081 303.638C18.6375 312.289 8.19756 329.739 8.19756 329.739C3.16271 338.152 -1.82777 346.492 0.660046 349.118V349.133Z" fill="var(--fill-0, white)"/>
<path id="Vector_2" d="M71.8293 38.6964C70.4966 14.1535 39.8136 -5.43328 11.7665 1.36276C28.5592 19.718 44.5819 37.5093 71.8293 38.6964Z" fill="var(--fill-0, white)"/>
<path id="Vector_3" d="M107.103 258.291C124.68 234.861 123.229 208.701 104.171 193.076C92.3536 215.126 101.92 235.647 107.103 258.291Z" fill="var(--fill-0, white)"/>
<path id="Vector_4" d="M123.851 212.886C134.454 185.716 126.058 160.432 103.801 150.638C98.4547 175.181 113.1 192.572 123.851 212.886Z" fill="var(--fill-0, white)"/>
<path id="Vector_5" d="M118.787 115.412C116.136 88.7913 93.3161 68.9968 71.5033 73.7748C74.8056 89.2217 91.6428 104.179 118.787 115.412Z" fill="var(--fill-0, white)"/>
<path id="Vector_6" d="M127.509 163.903C131.374 135.784 114.788 110.767 92.2055 110.44C94.175 134.82 111.975 147.893 127.509 163.903Z" fill="var(--fill-0, white)"/>
<path id="Vector_7" d="M39.7838 43.8158C53.9999 64.3968 76.2274 66.5929 97.122 72.6173C93.3459 52.4666 61.182 31.945 39.7838 43.8158Z" fill="var(--fill-0, white)"/>
<path id="Vector_8" d="M92.9611 234.535C76.6422 252.698 79.8111 274.762 79.204 296.619C102.009 283.458 108.258 248.187 92.9611 234.535Z" fill="var(--fill-0, white)"/>
<path id="Vector_9" d="M85.9119 300.165C108.717 300.299 131.033 280.104 136.098 254.715C111.219 260.487 97.9955 279.451 85.9119 300.165Z" fill="var(--fill-0, white)"/>
<path id="Vector_10" d="M41.6794 328.804C67.9347 317.868 79.2779 296.338 72.629 270.489C51.3493 284.2 48.7874 306.443 41.6794 328.804Z" fill="var(--fill-0, white)"/>
<path id="Vector_11" d="M2.68873 353.866C19.2741 368.319 56.4729 356.908 68.5121 340.185C44.0486 332.261 23.3168 343.242 2.68873 353.866Z" fill="var(--fill-0, white)"/>
<path id="Vector_12" d="M137.149 92.8275C123.762 115.308 127.849 137.862 133.817 160.506C150.077 147.938 151.676 118.988 137.149 92.8275Z" fill="var(--fill-0, white)"/>
<path id="Vector_13" d="M109.354 45.982C101.802 70.7474 113.219 91.2245 123.896 111.375C136.824 96.3735 129.405 61.8591 109.354 45.982Z" fill="var(--fill-0, white)"/>
<path id="Vector_14" d="M130.234 211.402C150.329 200.525 159.865 171.056 151.01 146.75C131.522 164.304 132.159 188.313 130.234 211.402Z" fill="var(--fill-0, white)"/>
<path id="Vector_15" d="M101.95 67.4386C109.99 48.4156 92.2648 16.2754 69.0008 6.80847C73.9024 22.5373 73.162 39.0525 87.2299 50.3149C92.8127 54.7813 96.7517 61.2806 101.935 67.4237L101.95 67.4386Z" fill="var(--fill-0, white)"/>
<path id="Vector_16" d="M150.965 201.579C128.027 213.761 121.023 235.826 114.418 257.698C134.039 256.303 152.579 228.303 150.965 201.579Z" fill="var(--fill-0, white)"/>
<path id="Vector_17" d="M47.4841 332.736C70.3779 338.597 94.7822 326.029 109.487 299.78C96.574 303.43 84.4015 304.914 74.3021 310.285C64.4842 315.494 56.7838 324.708 47.4841 332.736Z" fill="var(--fill-0, white)"/>
</g>
</svg>
