<svg width="218" height="120" viewBox="0 0 218 120" fill="none" xmlns="http://www.w3.org/2000/svg">
<g clip-path="url(#clip0_351_7828)">
<path d="M81.0186 58.3401V20.4346C81.0186 20.4346 80.8508 20.5091 80.7763 20.5837L68.0997 26.6993L62.5071 16.2021L78.0173 8.8C80.6831 7.51349 83.6099 6.54395 86.1079 6.54395C90.3583 6.54395 93.1919 9.11697 93.1919 13.6477V58.3214H81.0186V58.3401Z" fill="#EBAA01"/>
<path d="M98.5046 40.9073L100.574 39.8631C100.984 40.5716 101.636 40.87 102.625 40.87C103.519 40.87 104.097 40.553 104.097 40.0309C104.097 38.6139 98.7656 39.8445 98.7656 36.4511C98.7656 34.8662 100.294 33.6357 102.699 33.6357C104.787 33.6357 106.036 34.5306 106.633 35.5375L104.563 36.5816C104.246 35.9477 103.538 35.6493 102.755 35.6493C102.065 35.6493 101.562 35.9477 101.562 36.4138C101.562 37.8308 106.894 36.6935 106.894 39.9936C106.894 41.7649 104.992 42.9023 102.774 42.9023C100.76 42.9023 99.3435 42.2311 98.5419 40.9073H98.5046ZM108.609 39.1733V36.0036H106.819V33.878H108.609V31.6406H111.386V33.878H114.816V36.0036H111.386V39.1173C111.386 40.0869 112.039 40.6649 113.064 40.6649C113.642 40.6649 114.35 40.4971 114.835 40.236V42.4921C114.35 42.7718 113.493 42.9209 112.822 42.9209C110.007 42.9209 108.627 41.392 108.627 39.1919L108.609 39.1733ZM99.5299 58.3404V46.3889H104.19C107.938 46.3889 110.23 47.9738 110.23 50.7332C110.23 53.4927 107.975 55.1708 104.34 55.1708H102.401V58.3218H99.5299V58.3404ZM102.401 48.7941V52.7842H104.265C106.148 52.7842 107.285 52.1316 107.285 50.7332C107.285 49.3348 106.148 48.7755 104.265 48.7755H102.401V48.7941ZM113.679 55.9539H119.85V58.3591H113.362C111.535 58.3591 110.827 57.5014 110.827 56.1403V46.4076H113.698V55.9539H113.679ZM124.175 48.0856C124.622 46.7805 125.797 46.1652 127.046 46.1652C128.295 46.1652 129.488 46.7805 129.935 48.0856L133.421 58.3404H130.494L129.73 55.8979H124.38L123.615 58.3404H120.689L124.175 48.0856ZM125.107 53.5859H128.966L127.474 48.8501C127.4 48.6077 127.269 48.4958 127.046 48.4958C126.822 48.4958 126.691 48.6077 126.617 48.8501L125.107 53.5859ZM132.881 52.374C132.881 48.906 135.882 46.1652 139.722 46.1652C142.015 46.1652 144.215 47.2652 145.203 49.1298L142.873 50.323C142.22 49.2976 141.195 48.645 139.61 48.645C137.411 48.645 135.826 50.2298 135.826 52.3926C135.826 54.5555 137.392 56.1403 139.61 56.1403C141.195 56.1403 142.258 55.4877 142.873 54.4623L145.203 55.6555C144.215 57.5201 142.015 58.6201 139.722 58.6201C135.882 58.6201 132.881 55.8606 132.881 52.4113V52.374ZM148.298 58.3404C146.471 58.3404 145.762 57.4828 145.762 56.1217V48.6263C145.762 47.2652 146.471 46.3889 148.298 46.3889H155.288V48.7196H148.633V51.1994H154.878V53.53H148.633V56.0098H155.4V58.3404H148.298Z" fill="#EBAA01"/>
<path d="M51.2475 116.234C49.7934 117.763 41.5536 112.561 38.9065 108.086C38.9065 108.086 37.4337 105.625 37.1168 102.157C37.0795 101.84 37.1168 101.504 37.1727 101.187C37.21 100.982 37.3219 100.796 37.5083 100.311C37.8811 100.442 38.2913 100.516 38.6641 100.628C38.6641 100.628 39.2047 100.814 39.7267 101.094C45.2447 103.965 48.7308 109.783 48.7308 109.783C50.4086 112.58 52.0677 115.358 51.2475 116.234Z" fill="#EBAA01"/>
<path d="M27.5161 12.8838C27.9635 4.71722 38.198 -1.80857 47.5563 0.447486C41.945 6.56309 36.6134 12.4736 27.5161 12.8838Z" fill="#EBAA01"/>
<path d="M15.7532 85.9912C9.89957 78.1976 10.3843 69.4903 16.7226 64.2883C20.656 71.6345 17.4682 78.4586 15.7532 85.9912Z" fill="#EBAA01"/>
<path d="M10.1603 70.87C6.61832 61.8271 9.43327 53.4182 16.8528 50.1553C18.6424 58.3218 13.7582 64.1205 10.1603 70.87Z" fill="#EBAA01"/>
<path d="M11.8569 38.4279C12.7331 29.5714 20.3577 22.9711 27.6281 24.5559C26.5282 29.7019 20.917 34.6802 11.8569 38.4279Z" fill="#EBAA01"/>
<path d="M8.94883 54.5556C7.66253 45.1958 13.1992 36.8614 20.7306 36.7495C20.0781 44.8601 14.1313 49.2231 8.94883 54.5556Z" fill="#EBAA01"/>
<path d="M38.198 14.5801C33.4629 21.4229 26.0434 22.1687 19.0713 24.1637C20.3389 17.4515 31.0581 10.6274 38.198 14.5801Z" fill="#EBAA01"/>
<path d="M20.4694 78.0862C25.9129 84.1272 24.8503 91.4734 25.0553 98.745C17.4494 94.3634 15.3615 82.6169 20.4694 78.0862Z" fill="#EBAA01"/>
<path d="M22.8182 99.9195C15.2122 99.9568 7.77406 93.2446 6.07764 84.7983C14.3733 86.7188 18.7915 93.0395 22.8182 99.9195Z" fill="#EBAA01"/>
<path d="M37.5642 109.465C28.8024 105.83 25.0181 98.6513 27.2365 90.0559C34.3391 94.624 35.1967 102.026 37.5642 109.465Z" fill="#EBAA01"/>
<path d="M50.5765 117.8C45.0398 122.61 32.6429 118.807 28.6162 113.25C36.7814 110.603 43.679 114.276 50.5765 117.8Z" fill="#EBAA01"/>
<path d="M5.72381 30.895C10.1979 38.3717 8.81839 45.8857 6.84233 53.4183C1.4175 49.2418 0.895525 39.6023 5.72381 30.895Z" fill="#EBAA01"/>
<path d="M14.9888 15.3076C17.5055 23.5488 13.7025 30.3729 10.1419 37.0851C5.83554 32.0882 8.29629 20.6028 14.9888 15.3076Z" fill="#EBAA01"/>
<path d="M8.03503 70.3854C1.3239 66.7682 -1.84525 56.9609 1.10019 48.8689C7.60626 54.7235 7.38256 62.7036 8.03503 70.3854Z" fill="#EBAA01"/>
<path d="M17.4681 22.4489C14.7836 16.1096 20.6932 5.40728 28.4483 2.2749C26.8078 7.51418 27.0688 13.0145 22.371 16.7622C20.5068 18.2538 19.2018 20.4166 17.4681 22.4676V22.4489Z" fill="#EBAA01"/>
<path d="M1.11869 67.1038C8.76193 71.1684 11.1108 78.4959 13.3106 85.7862C6.76723 85.32 0.578072 75.9975 1.11869 67.1038Z" fill="#EBAA01"/>
<path d="M35.6442 110.771C28.001 112.728 19.8731 108.533 14.9702 99.8074C19.2765 101.019 23.3405 101.523 26.7147 103.294C29.9957 105.028 32.5497 108.104 35.6629 110.771H35.6442Z" fill="#EBAA01"/>
<path d="M166.753 116.233C168.207 117.762 176.447 112.56 179.094 108.085C179.094 108.085 180.567 105.624 180.884 102.156C180.921 101.839 180.884 101.503 180.828 101.186C180.791 100.981 180.679 100.795 180.492 100.31C180.12 100.441 179.709 100.515 179.337 100.627C179.337 100.627 178.796 100.813 178.274 101.093C172.756 103.965 169.27 109.782 169.27 109.782C167.592 112.579 165.933 115.357 166.753 116.233Z" fill="#EBAA01"/>
<path d="M190.484 12.8833C190.037 4.71673 179.802 -1.80906 170.444 0.446998C176.055 6.5626 181.387 12.4731 190.484 12.8833Z" fill="#EBAA01"/>
<path d="M202.248 85.9908C208.101 78.1971 207.617 69.4898 201.278 64.2878C197.345 71.634 200.533 78.4581 202.248 85.9908Z" fill="#EBAA01"/>
<path d="M207.84 70.869C211.382 61.8261 208.567 53.4172 201.147 50.1543C199.358 58.3209 204.242 64.1195 207.84 70.869Z" fill="#EBAA01"/>
<path d="M206.144 38.4269C205.268 29.5705 197.643 22.9701 190.373 24.5549C191.473 29.701 197.084 34.6792 206.144 38.4269Z" fill="#EBAA01"/>
<path d="M209.052 54.5551C210.339 45.1953 204.802 36.8609 197.271 36.749C197.923 44.8597 203.87 49.2226 209.052 54.5551Z" fill="#EBAA01"/>
<path d="M179.802 14.5801C184.537 21.4229 191.957 22.1687 198.929 24.1637C197.661 17.4515 186.942 10.6274 179.802 14.5801Z" fill="#EBAA01"/>
<path d="M197.531 78.0862C192.088 84.1272 193.15 91.4734 192.945 98.745C200.551 94.3634 202.639 82.6169 197.531 78.0862Z" fill="#EBAA01"/>
<path d="M195.182 99.919C202.788 99.9563 210.226 93.2441 211.923 84.7979C203.627 86.7183 199.209 93.039 195.182 99.919Z" fill="#EBAA01"/>
<path d="M180.436 109.465C189.198 105.83 192.982 98.6513 190.764 90.0559C183.661 94.624 182.804 102.026 180.436 109.465Z" fill="#EBAA01"/>
<path d="M167.424 117.8C172.961 122.61 185.358 118.807 189.384 113.25C181.219 110.603 174.322 114.276 167.424 117.8Z" fill="#EBAA01"/>
<path d="M212.277 30.8945C207.803 38.3712 209.183 45.8852 211.159 53.4178C216.584 49.2413 217.106 39.6018 212.277 30.8945Z" fill="#EBAA01"/>
<path d="M203.012 15.3071C200.495 23.5483 204.298 30.3724 207.859 37.0846C212.165 32.0877 209.704 20.6023 203.012 15.3071Z" fill="#EBAA01"/>
<path d="M209.966 70.3844C216.677 66.7672 219.846 56.9599 216.901 48.8679C210.395 54.7225 210.619 62.7026 209.966 70.3844Z" fill="#EBAA01"/>
<path d="M200.532 22.4484C203.217 16.1091 197.307 5.40679 189.552 2.27441C191.193 7.51369 190.932 13.014 195.63 16.7617C197.494 18.2533 198.799 20.4161 200.532 22.4671V22.4484Z" fill="#EBAA01"/>
<path d="M216.882 67.1033C209.238 71.1679 206.889 78.4954 204.69 85.7857C211.233 85.3196 217.422 75.997 216.882 67.1033Z" fill="#EBAA01"/>
<path d="M182.375 110.77C190.019 112.728 198.146 108.533 203.049 99.8069C198.743 101.019 194.679 101.522 191.305 103.294C188.024 105.028 185.47 108.104 182.357 110.77H182.375Z" fill="#EBAA01"/>
<path d="M49.0664 77.1722V65.0529H55.7589V77.0044C55.7589 80.4165 57.213 81.8149 60.1771 81.8149C63.1411 81.8149 64.6325 80.3979 64.6325 77.0044V65.0529H71.325V77.1722C71.325 83.7167 67.8203 87.5576 60.1957 87.5576C52.5711 87.5576 49.1037 83.7167 49.1037 77.1722H49.0664ZM74.7365 87.1474V65.0529H84.971C90.75 65.0529 95.1682 67.5141 95.1682 72.3805C95.1682 75.2891 93.3599 77.6943 90.5077 78.496C91.738 79.2232 92.5396 80.4911 93.6209 82.4861L96.1189 87.1287H88.8485L86.5742 82.9709C85.7353 81.4606 84.8032 80.9013 82.6407 80.9013H81.4103L81.3731 87.1287H74.7551L74.7365 87.1474ZM81.429 70.6092L81.3917 75.5501H84.971C86.9284 75.5501 88.2893 74.5619 88.2893 72.9957C88.2893 71.3177 86.9097 70.6092 85.0269 70.6092H81.4103H81.429ZM98.6356 87.1474V65.0529H108.87C115.022 65.0529 118.694 67.5141 118.694 71.299C118.694 73.6856 117.315 75.3264 115.19 76.1841C117.352 76.8366 118.881 78.2164 118.881 80.9013C118.881 85.0218 114.836 87.1474 108.87 87.1474H98.6356ZM105.328 73.7975H109.224C111.107 73.7975 112.002 73.0703 112.002 71.8024C112.002 70.6837 111.126 69.9752 109.224 69.9752H105.328V73.8161V73.7975ZM105.328 82.2437H109.224C111.107 82.2437 112.188 81.7589 112.188 80.4724C112.188 79.0927 111.107 78.7011 109.224 78.7011H105.328V82.2437ZM125.704 68.5582C126.599 65.836 129.134 64.5681 131.669 64.5681C134.205 64.5681 136.74 65.836 137.635 68.5582L143.917 87.166H137.075L135.957 83.437H127.382L126.226 87.166H119.384L125.667 68.5582H125.704ZM129.078 78.0113H134.316L132.005 70.3108C131.93 70.0871 131.856 69.9752 131.707 69.9752C131.557 69.9752 131.483 70.0685 131.408 70.3108L129.059 78.0113H129.078ZM145.371 87.1474V68.2785C145.371 65.9292 147.403 64.5122 149.528 64.5122C151.225 64.5122 152.716 65.0343 153.574 66.2835L162.186 78.6266V65.0343H168.506V83.9031C168.506 86.2524 166.474 87.6322 164.349 87.6322C162.69 87.6322 161.161 87.1101 160.303 85.8609L151.691 73.5178V87.1474H145.371Z" fill="#EBAA01"/>
<path d="M58.667 103.48V94.7909C58.667 93.5604 59.3195 92.7959 60.9227 92.7959H67.1305V94.9401H61.221V97.7369H66.739V99.8624H61.221V103.48H58.667ZM70.2251 94.3062C70.6352 93.1502 71.6791 92.5908 72.779 92.5908C73.8789 92.5908 74.9601 93.1502 75.3516 94.3062L78.4835 103.48H75.8736L75.1838 101.298H70.3928L69.7031 103.48H67.0932L70.2251 94.3062ZM71.0639 99.2285H74.5127L73.1705 94.996C73.0959 94.7723 73.0027 94.6791 72.779 94.6791C72.5926 94.6791 72.4621 94.7723 72.3875 94.996L71.0267 99.2285H71.0639ZM78.875 103.48L80.4782 94.2875C80.6832 93.1688 81.5408 92.5908 82.7339 92.5908C83.7778 92.5908 84.6726 93.001 84.9709 94.0265L86.947 100.701V100.757C86.947 100.757 86.9842 100.757 86.9842 100.701L88.923 94.0824C89.2213 93.0569 90.1347 92.5908 91.1973 92.5908C92.3718 92.5908 93.2107 93.1875 93.3971 94.3435L94.8512 103.48H92.2599L91.1228 95.0893C91.1228 95.0893 91.1228 94.9588 91.0296 94.9588C90.9736 94.9588 90.9364 94.996 90.9177 95.052L88.718 102.137C88.4756 102.939 87.7672 103.349 86.9283 103.349C86.0894 103.349 85.3624 102.976 85.1573 102.193L82.9576 95.0706C82.9576 95.0706 82.9016 94.9774 82.8644 94.9774C82.8084 94.9774 82.7525 95.0147 82.7525 95.0893L81.4103 103.48H78.819H78.875ZM98.4864 103.48C96.8459 103.48 96.2307 102.715 96.2307 101.503V94.8096C96.2307 93.579 96.8645 92.8146 98.4864 92.8146H104.731V94.9028H98.7847V97.1216H104.359V99.2098H98.7847V101.429H104.843V103.517H98.4864V103.48ZM109.578 98.1471C109.578 95.052 112.263 92.5908 115.712 92.5908C117.762 92.5908 119.738 93.579 120.614 95.2384L118.527 96.3012C117.949 95.3876 117.035 94.7909 115.618 94.7909C113.661 94.7909 112.226 96.208 112.226 98.1471C112.226 100.086 113.624 101.503 115.618 101.503C117.035 101.503 117.986 100.925 118.527 99.9929L120.614 101.056C119.738 102.715 117.781 103.703 115.712 103.703C112.263 103.703 109.578 101.242 109.578 98.1471ZM124.101 101.335H129.619V103.48H123.802C122.162 103.48 121.547 102.715 121.547 101.503V92.7959H124.101V101.335ZM132.583 94.3062C132.993 93.1502 134.037 92.5908 135.137 92.5908C136.237 92.5908 137.318 93.1502 137.709 94.3062L140.841 103.48H138.231L137.541 101.298H132.75L132.061 103.48H129.451L132.583 94.3062ZM133.422 99.2285H136.87L135.528 94.996C135.454 94.7723 135.36 94.6791 135.137 94.6791C134.95 94.6791 134.82 94.7723 134.745 94.996L133.384 99.2285H133.422ZM141.195 101.354L143.339 100.384C143.731 101.168 144.551 101.559 145.781 101.559C146.881 101.559 147.739 101.149 147.739 100.384C147.739 99.4895 146.807 99.359 145.576 99.1539C143.805 98.8929 141.4 98.3149 141.4 95.891C141.4 94.0265 143.265 92.5908 145.707 92.5908C147.645 92.5908 149.342 93.3926 150.088 94.9215L147.944 95.891C147.552 95.2011 146.788 94.735 145.595 94.735C144.625 94.735 143.954 95.1452 143.954 95.7978C143.954 96.6555 144.942 96.8792 146.21 97.0843C147.962 97.364 150.274 97.9233 150.274 100.347C150.274 102.268 148.279 103.666 145.763 103.666C143.637 103.666 141.941 102.864 141.177 101.335L141.195 101.354ZM150.982 101.354L153.126 100.384C153.518 101.168 154.338 101.559 155.568 101.559C156.668 101.559 157.507 101.149 157.507 100.384C157.507 99.4895 156.575 99.359 155.345 99.1539C153.574 98.8929 151.169 98.3149 151.169 95.891C151.169 94.0265 153.033 92.5908 155.475 92.5908C157.433 92.5908 159.11 93.3926 159.856 94.9215L157.712 95.891C157.321 95.2011 156.556 94.735 155.363 94.735C154.394 94.735 153.723 95.1452 153.723 95.7978C153.723 96.6555 154.711 96.8792 155.978 97.0843C157.731 97.364 160.042 97.9233 160.042 100.347C160.042 102.268 158.048 103.666 155.531 103.666C153.406 103.666 151.709 102.864 150.945 101.335L150.982 101.354Z" fill="#EBAA01"/>
<path d="M61.6684 113.028L62.2836 112.767C62.47 113.14 62.8615 113.345 63.4207 113.345C63.98 113.345 64.3901 113.102 64.3901 112.692C64.3901 112.226 63.9054 112.133 63.3462 112.039C62.6378 111.909 61.743 111.704 61.743 110.79C61.743 110.081 62.4513 109.54 63.3462 109.54C64.0732 109.54 64.707 109.839 64.9867 110.436L64.3901 110.715C64.2037 110.361 63.8495 110.137 63.3089 110.137C62.8242 110.137 62.4327 110.398 62.4327 110.753C62.4327 111.219 62.936 111.312 63.5139 111.424C64.2223 111.554 65.0799 111.76 65.0799 112.673C65.0799 113.438 64.3342 113.96 63.3835 113.96C62.5818 113.96 61.9107 113.643 61.6311 113.046L61.6684 113.028ZM65.7696 113.867V109.298H66.4594V111.088C66.7204 110.827 67.1491 110.659 67.6152 110.659C68.6219 110.659 69.1998 111.275 69.1998 112.226V113.867H68.51V112.3C68.51 111.741 68.1745 111.256 67.522 111.256C66.9068 111.256 66.478 111.704 66.478 112.319V113.867H65.7883H65.7696ZM69.6285 112.282C69.6285 111.387 70.3369 110.641 71.3809 110.641C72.4248 110.641 73.0773 111.331 73.0773 112.207V112.468H70.3183C70.3929 113.009 70.8403 113.382 71.4741 113.382C71.9029 113.382 72.2757 113.214 72.4808 112.878L73.0214 113.121C72.7231 113.662 72.1638 113.941 71.4927 113.941C70.4488 113.941 69.6658 113.251 69.6658 112.282H69.6285ZM72.3876 112.058C72.3503 111.554 71.9588 111.219 71.3809 111.219C70.803 111.219 70.4115 111.592 70.3369 112.058H72.3689H72.3876ZM74.4009 109.298V113.867H73.7111V109.298H74.4009ZM76.0228 109.298V113.867H75.333V109.298H76.0228ZM79.2665 113.867C78.7818 113.867 78.5954 113.643 78.5954 113.27V110.156C78.5954 109.783 78.7631 109.559 79.2665 109.559H81.8577V110.156H79.3224V111.405H81.7272V112.002H79.3224V113.251H81.9136V113.848H79.2665V113.867ZM82.2306 112.3C82.2306 111.405 83.0508 110.659 84.0388 110.659C84.6727 110.659 85.2506 110.92 85.5675 111.48L84.9896 111.778C84.7845 111.443 84.4303 111.256 84.0388 111.256C83.4236 111.256 82.939 111.722 82.939 112.3C82.939 112.878 83.4423 113.345 84.0388 113.345C84.449 113.345 84.7845 113.158 84.9896 112.823L85.5675 113.102C85.2506 113.68 84.6727 113.923 84.0388 113.923C83.0508 113.923 82.2306 113.196 82.2306 112.282V112.3ZM85.7166 112.3C85.7166 111.405 86.5369 110.659 87.5622 110.659C88.5875 110.659 89.3891 111.405 89.3891 112.3C89.3891 113.196 88.5875 113.96 87.5622 113.96C86.5369 113.96 85.7166 113.214 85.7166 112.3ZM88.6993 112.3C88.6993 111.722 88.196 111.256 87.5622 111.256C86.9283 111.256 86.4064 111.722 86.4064 112.3C86.4064 112.878 86.9097 113.345 87.5622 113.345C88.2146 113.345 88.6993 112.878 88.6993 112.3ZM92.5396 112.189H90.0975V111.61H92.5396V112.189ZM99.3626 112.226V113.886H98.6728V112.338C98.6728 111.76 98.3559 111.275 97.7221 111.275C97.0883 111.275 96.7713 111.76 96.7713 112.338V113.904H96.0816V112.338C96.0816 111.76 95.7647 111.275 95.1308 111.275C94.497 111.275 94.1987 111.778 94.1987 112.338V113.886H93.509V112.244C93.509 111.368 94.0682 110.659 95.0936 110.659C95.7833 110.659 96.2867 110.976 96.4544 111.461C96.6409 110.976 97.1255 110.659 97.7967 110.659C98.8406 110.659 99.3999 111.368 99.3999 112.226H99.3626ZM99.7914 112.3C99.7914 111.405 100.574 110.659 101.637 110.659C102.7 110.659 103.482 111.368 103.482 112.3V113.867H102.811V113.307C102.55 113.699 102.084 113.941 101.525 113.941C100.518 113.941 99.7914 113.196 99.7914 112.282V112.3ZM102.793 112.3C102.793 111.722 102.289 111.256 101.656 111.256C101.022 111.256 100.518 111.722 100.518 112.3C100.518 112.878 101.022 113.345 101.656 113.345C102.289 113.345 102.793 112.878 102.793 112.3ZM104.135 113.867V112.002C104.135 111.237 104.62 110.678 105.514 110.678C105.738 110.678 105.962 110.715 106.13 110.79V111.424C105.962 111.331 105.757 111.293 105.57 111.293C105.104 111.293 104.825 111.573 104.825 112.039V113.886H104.135V113.867ZM106.074 112.3C106.074 111.405 106.857 110.659 107.919 110.659C108.982 110.659 109.765 111.368 109.765 112.3V113.867H109.094V113.307C108.833 113.699 108.367 113.941 107.807 113.941C106.801 113.941 106.074 113.196 106.074 112.282V112.3ZM109.056 112.3C109.056 111.722 108.572 111.256 107.919 111.256C107.267 111.256 106.782 111.722 106.782 112.3C106.782 112.878 107.285 113.345 107.919 113.345C108.553 113.345 109.056 112.878 109.056 112.3ZM110.66 112.748V111.293H109.97V110.753H110.66V109.932H111.349V110.753H112.673V111.293H111.349V112.729C111.349 113.14 111.61 113.382 112.039 113.382C112.263 113.382 112.505 113.307 112.673 113.196V113.774C112.505 113.886 112.226 113.96 111.965 113.96C111.107 113.96 110.641 113.475 110.641 112.748H110.66ZM113.381 113.867V109.298H114.071V111.088C114.332 110.827 114.761 110.659 115.227 110.659C116.234 110.659 116.812 111.275 116.812 112.226V113.867H116.122V112.3C116.122 111.741 115.786 111.256 115.134 111.256C114.519 111.256 114.09 111.704 114.09 112.319V113.867H113.4H113.381ZM117.24 112.3C117.24 111.405 118.061 110.659 119.086 110.659C120.111 110.659 120.913 111.405 120.913 112.3C120.913 113.196 120.111 113.96 119.086 113.96C118.061 113.96 117.24 113.214 117.24 112.3ZM120.223 112.3C120.223 111.722 119.72 111.256 119.086 111.256C118.452 111.256 117.93 111.722 117.93 112.3C117.93 112.878 118.433 113.345 119.086 113.345C119.738 113.345 120.223 112.878 120.223 112.3ZM122.05 112.356V113.867H121.36V112.282C121.36 111.368 121.957 110.641 123.075 110.641C124.194 110.641 124.828 111.349 124.828 112.263V113.848H124.119V112.338C124.119 111.741 123.765 111.237 123.075 111.237C122.385 111.237 122.069 111.741 122.069 112.319L122.05 112.356ZM128.165 110.1C128.314 109.69 128.649 109.503 129.041 109.503C129.432 109.503 129.786 109.69 129.936 110.1L131.222 113.867H130.495L130.141 112.823H127.941L127.587 113.867H126.86L128.146 110.1H128.165ZM128.127 112.226H129.936L129.302 110.286C129.246 110.156 129.171 110.081 129.041 110.081C128.892 110.081 128.817 110.137 128.78 110.286L128.146 112.226H128.127ZM131.464 113.251L132.005 112.99C132.173 113.307 132.471 113.419 132.844 113.419C133.217 113.419 133.533 113.27 133.533 112.99C133.533 112.338 131.557 112.823 131.557 111.629C131.557 111.07 132.098 110.678 132.844 110.678C133.478 110.678 133.925 110.939 134.149 111.312L133.608 111.592C133.459 111.312 133.179 111.219 132.862 111.219C132.545 111.219 132.247 111.368 132.247 111.629C132.247 112.263 134.223 111.797 134.223 112.99C134.223 113.587 133.589 113.96 132.862 113.96C132.228 113.96 131.725 113.736 131.464 113.27V113.251ZM134.745 109.69C134.745 109.466 134.95 109.261 135.211 109.261C135.472 109.261 135.659 109.447 135.659 109.69C135.659 109.932 135.454 110.1 135.211 110.1C134.969 110.1 134.745 109.913 134.745 109.69ZM135.565 110.734V113.867H134.876V110.734H135.565ZM136.125 112.3C136.125 111.405 136.908 110.659 137.97 110.659C139.033 110.659 139.816 111.368 139.816 112.3V113.867H139.145V113.307C138.884 113.699 138.418 113.941 137.858 113.941C136.852 113.941 136.125 113.196 136.125 112.282V112.3ZM139.107 112.3C139.107 111.722 138.623 111.256 137.97 111.256C137.318 111.256 136.833 111.722 136.833 112.3C136.833 112.878 137.336 113.345 137.97 113.345C138.604 113.345 139.107 112.878 139.107 112.3ZM142.687 113.867C142.258 113.867 142.034 113.643 142.034 113.363C142.034 113.158 142.127 112.99 142.332 112.823L143.731 111.685C144.122 111.368 144.327 111.126 144.327 110.771C144.327 110.38 143.973 110.119 143.507 110.119C143.041 110.119 142.668 110.38 142.444 110.771L141.885 110.492C142.202 109.913 142.78 109.503 143.544 109.503C144.42 109.503 145.036 110.044 145.036 110.734C145.036 111.256 144.775 111.648 144.346 112.002L142.948 113.121C142.948 113.121 142.854 113.196 142.854 113.233C142.854 113.251 142.854 113.27 142.892 113.27H145.166V113.867H142.668H142.687ZM145.558 111.722C145.558 110.473 146.322 109.503 147.459 109.503C148.596 109.503 149.361 110.454 149.361 111.722C149.361 112.99 148.596 113.96 147.459 113.96C146.322 113.96 145.558 112.972 145.558 111.722ZM148.615 111.722C148.615 110.846 148.112 110.175 147.459 110.175C146.807 110.175 146.303 110.846 146.303 111.722C146.303 112.599 146.788 113.289 147.459 113.289C148.13 113.289 148.615 112.599 148.615 111.722ZM151.001 113.867V110.324C151.001 110.324 151.001 110.286 150.964 110.286C150.926 110.286 150.908 110.305 150.871 110.324L149.789 110.883L149.472 110.268L150.684 109.652C150.871 109.559 151.057 109.485 151.243 109.485C151.542 109.485 151.728 109.671 151.728 109.988V113.848H151.001V113.867ZM152.53 111.722C152.53 110.473 153.294 109.503 154.431 109.503C155.568 109.503 156.333 110.454 156.333 111.722C156.333 112.99 155.568 113.96 154.431 113.96C153.294 113.96 152.53 112.972 152.53 111.722ZM155.587 111.722C155.587 110.846 155.102 110.175 154.431 110.175C153.76 110.175 153.275 110.846 153.275 111.722C153.275 112.599 153.779 113.289 154.431 113.289C155.084 113.289 155.587 112.599 155.587 111.722Z" fill="#EBAA01"/>
</g>
<defs>
<clipPath id="clip0_351_7828">
<rect width="218" height="120" fill="white"/>
</clipPath>
</defs>
</svg>
