<svg width="218" height="120" viewBox="0 0 218 120" fill="none" xmlns="http://www.w3.org/2000/svg">
<g clip-path="url(#clip0_351_7870)">
<path d="M51.2472 116.234C49.7932 117.763 41.5534 112.561 38.9062 108.086C38.9062 108.086 37.4335 105.625 37.1166 102.157C37.0793 101.84 37.1166 101.504 37.1725 101.187C37.2098 100.982 37.3216 100.796 37.5081 100.311C37.8809 100.442 38.291 100.516 38.6639 100.628C38.6639 100.628 39.2045 100.814 39.7265 101.094C45.2445 103.965 48.7306 109.783 48.7306 109.783C50.4083 112.58 52.0675 115.358 51.2472 116.234Z" fill="#EBAA01"/>
<path d="M27.5156 12.8838C27.963 4.71722 38.1975 -1.80857 47.5558 0.447486C41.9446 6.56309 36.6129 12.4736 27.5156 12.8838Z" fill="#EBAA01"/>
<path d="M15.7527 85.9912C9.89908 78.1976 10.3838 69.4903 16.7221 64.2883C20.6555 71.6345 17.4677 78.4586 15.7527 85.9912Z" fill="#EBAA01"/>
<path d="M10.1598 70.87C6.61783 61.8271 9.43278 53.4182 16.8523 50.1553C18.6419 58.3218 13.7577 64.1205 10.1598 70.87Z" fill="#EBAA01"/>
<path d="M11.8567 38.4279C12.7329 29.5714 20.3575 22.9711 27.6279 24.5559C26.528 29.7019 20.9167 34.6802 11.8567 38.4279Z" fill="#EBAA01"/>
<path d="M8.94859 54.5556C7.66229 45.1958 13.199 36.8614 20.7304 36.7495C20.0779 44.8601 14.1311 49.2231 8.94859 54.5556Z" fill="#EBAA01"/>
<path d="M38.1975 14.5801C33.4625 21.4229 26.0429 22.1687 19.0708 24.1637C20.3385 17.4515 31.0576 10.6274 38.1975 14.5801Z" fill="#EBAA01"/>
<path d="M20.4689 78.0862C25.9124 84.1272 24.8498 91.4734 25.0548 98.745C17.4489 94.3634 15.361 82.6169 20.4689 78.0862Z" fill="#EBAA01"/>
<path d="M22.8177 99.9195C15.2117 99.9568 7.77357 93.2446 6.07715 84.7983C14.3729 86.7188 18.791 93.0395 22.8177 99.9195Z" fill="#EBAA01"/>
<path d="M37.5637 109.465C28.8019 105.83 25.0176 98.6513 27.236 90.0559C34.3386 94.624 35.1962 102.026 37.5637 109.465Z" fill="#EBAA01"/>
<path d="M50.5758 117.8C45.0391 122.61 32.6422 118.807 28.6155 113.25C36.7807 110.603 43.6782 114.276 50.5758 117.8Z" fill="#EBAA01"/>
<path d="M5.72357 30.895C10.1977 38.3717 8.81815 45.8857 6.84209 53.4183C1.41726 49.2418 0.895281 39.6023 5.72357 30.895Z" fill="#EBAA01"/>
<path d="M14.9883 15.3076C17.505 23.5488 13.702 30.3729 10.1414 37.0851C5.83505 32.0882 8.2958 20.6028 14.9883 15.3076Z" fill="#EBAA01"/>
<path d="M8.03454 70.3854C1.32341 66.7682 -1.84574 56.9609 1.0997 48.8689C7.60577 54.7235 7.38207 62.7036 8.03454 70.3854Z" fill="#EBAA01"/>
<path d="M17.4676 22.4489C14.7832 16.1096 20.6927 5.40728 28.4478 2.2749C26.8073 7.51418 27.0683 13.0145 22.3705 16.7622C20.5063 18.2538 19.2013 20.4166 17.4676 22.4676V22.4489Z" fill="#EBAA01"/>
<path d="M1.11845 67.1038C8.76168 71.1684 11.1106 78.4959 13.3103 85.7862C6.76698 85.32 0.577827 75.9975 1.11845 67.1038Z" fill="#EBAA01"/>
<path d="M35.6437 110.771C28.0005 112.728 19.8726 108.533 14.9697 99.8074C19.276 101.019 23.34 101.523 26.7142 103.294C29.9952 105.028 32.5492 108.104 35.6624 110.771H35.6437Z" fill="#EBAA01"/>
<path d="M166.753 116.233C168.207 117.762 176.447 112.56 179.094 108.085C179.094 108.085 180.567 105.624 180.884 102.156C180.921 101.839 180.884 101.503 180.828 101.186C180.791 100.981 180.679 100.795 180.492 100.31C180.12 100.441 179.709 100.515 179.337 100.627C179.337 100.627 178.796 100.813 178.274 101.093C172.756 103.965 169.27 109.782 169.27 109.782C167.592 112.579 165.933 115.357 166.753 116.233Z" fill="#EBAA01"/>
<path d="M190.484 12.8833C190.037 4.71673 179.802 -1.80906 170.444 0.446998C176.055 6.5626 181.387 12.4731 190.484 12.8833Z" fill="#EBAA01"/>
<path d="M202.248 85.9908C208.102 78.1971 207.617 69.4898 201.279 64.2878C197.345 71.634 200.533 78.4581 202.248 85.9908Z" fill="#EBAA01"/>
<path d="M207.84 70.869C211.382 61.8261 208.567 53.4172 201.148 50.1543C199.358 58.3209 204.242 64.1195 207.84 70.869Z" fill="#EBAA01"/>
<path d="M206.144 38.4269C205.268 29.5705 197.643 22.9701 190.373 24.5549C191.473 29.701 197.084 34.6792 206.144 38.4269Z" fill="#EBAA01"/>
<path d="M209.052 54.5551C210.338 45.1953 204.801 36.8609 197.27 36.749C197.922 44.8597 203.869 49.2226 209.052 54.5551Z" fill="#EBAA01"/>
<path d="M179.802 14.5801C184.538 21.4229 191.957 22.1687 198.929 24.1637C197.662 17.4515 186.942 10.6274 179.802 14.5801Z" fill="#EBAA01"/>
<path d="M197.531 78.0862C192.087 84.1272 193.15 91.4734 192.945 98.745C200.551 94.3634 202.639 82.6169 197.531 78.0862Z" fill="#EBAA01"/>
<path d="M195.183 99.919C202.789 99.9563 210.227 93.2441 211.923 84.7979C203.627 86.7183 199.209 93.039 195.183 99.919Z" fill="#EBAA01"/>
<path d="M180.436 109.465C189.198 105.83 192.982 98.6513 190.764 90.0559C183.661 94.624 182.804 102.026 180.436 109.465Z" fill="#EBAA01"/>
<path d="M167.424 117.8C172.961 122.61 185.358 118.807 189.384 113.25C181.219 110.603 174.322 114.276 167.424 117.8Z" fill="#EBAA01"/>
<path d="M212.277 30.8945C207.803 38.3712 209.182 45.8852 211.158 53.4178C216.583 49.2413 217.105 39.6018 212.277 30.8945Z" fill="#EBAA01"/>
<path d="M203.011 15.3071C200.495 23.5483 204.298 30.3724 207.858 37.0846C212.165 32.0877 209.704 20.6023 203.011 15.3071Z" fill="#EBAA01"/>
<path d="M209.965 70.3844C216.676 66.7672 219.845 56.9599 216.9 48.8679C210.394 54.7225 210.617 62.7026 209.965 70.3844Z" fill="#EBAA01"/>
<path d="M200.533 22.4484C203.217 16.1091 197.308 5.40679 189.553 2.27441C191.193 7.51369 190.932 13.014 195.63 16.7617C197.494 18.2533 198.799 20.4161 200.533 22.4671V22.4484Z" fill="#EBAA01"/>
<path d="M216.881 67.1033C209.238 71.1679 206.889 78.4954 204.689 85.7857C211.233 85.3196 217.422 75.997 216.881 67.1033Z" fill="#EBAA01"/>
<path d="M182.375 110.77C190.018 112.728 198.146 108.533 203.049 99.8069C198.743 101.019 194.679 101.522 191.304 103.294C188.023 105.028 185.469 108.104 182.356 110.77H182.375Z" fill="#EBAA01"/>
<path d="M25.2412 66.5819C25.2412 61.902 29.2306 58.2102 34.5995 58.2102C37.75 58.2102 40.8632 59.6832 42.1495 62.3681L38.1788 64.3631C37.4331 63.1512 36.4451 62.3494 34.3945 62.3494C31.8964 62.3494 30.2373 64.1394 30.2373 66.6565C30.2373 69.1736 31.9151 70.9821 34.5995 70.9821C36.0163 70.9821 36.9111 70.8703 37.6754 70.2363V66.9362H42.3732V71.6907C41.0124 73.5925 38.1601 74.9536 34.5995 74.9536C29.2865 74.9536 25.2412 71.2618 25.2412 66.5819ZM44.2188 74.5993V58.5458H51.657C55.8701 58.5458 59.0765 60.3358 59.0765 63.8783C59.0765 66.0039 57.7529 67.7379 55.6837 68.3345C56.5785 68.8566 57.1564 69.7889 57.9393 71.2432L59.7476 74.6179H54.4719L52.8128 71.5974C52.2162 70.4974 51.5265 70.1058 49.9419 70.1058H49.0471V74.6179H44.2188V74.5993ZM49.0844 62.5918V66.1903H51.657C53.0738 66.1903 54.0804 65.4818 54.0804 64.3258C54.0804 63.1139 53.0738 62.5918 51.7129 62.5918H49.0844ZM64.4641 61.1002C65.1165 59.1238 66.9621 58.1916 68.8077 58.1916C70.6532 58.1916 72.4801 59.1238 73.1513 61.1002L77.7185 74.6179H72.7411L71.9209 71.9144H65.6944L64.8555 74.6179H59.8781L64.4454 61.1002H64.4641ZM66.9062 67.9616H70.7091L69.0314 62.3681C68.9754 62.2003 68.9195 62.1257 68.8263 62.1257C68.7331 62.1257 68.6772 62.2003 68.6212 62.3681L66.9062 67.9616ZM78.7625 74.5993V60.8951C78.7625 59.1798 80.2352 58.1543 81.7825 58.1543C83.0129 58.1543 84.0941 58.5272 84.728 59.4408L90.9917 68.4091V58.5458H95.5963V72.25C95.5963 73.9654 94.1235 74.9536 92.5763 74.9536C91.3645 74.9536 90.2646 74.5806 89.6308 73.667L83.3671 64.6987V74.5993H78.7625ZM105.365 74.5993H98.3553V58.5458H105.365C111.181 58.5458 115.04 61.7528 115.04 66.6378C115.04 71.5229 111.051 74.5993 105.365 74.5993ZM105.365 62.5918H103.202V70.6838H105.365C108.198 70.6838 110.044 69.0617 110.044 66.6378C110.044 64.214 108.198 62.5918 105.365 62.5918ZM122.925 74.5993V58.5458H129.73C134.987 58.5458 138.063 60.8019 138.063 64.5309C138.063 68.26 135.155 70.6652 129.991 70.6652H127.791V74.562H122.925V74.5993ZM127.791 62.5918V66.6378H129.86C132.041 66.6378 133.067 65.892 133.067 64.5496C133.067 63.2817 131.967 62.5918 129.86 62.5918H127.791ZM139.498 74.5993V58.5458H146.936C151.15 58.5458 154.356 60.3358 154.356 63.8783C154.356 66.0039 153.032 67.7379 150.963 68.3345C151.858 68.8566 152.436 69.7889 153.219 71.2432L155.027 74.6179H149.751L148.092 71.5974C147.496 70.4974 146.806 70.1058 145.221 70.1058H144.327V74.6179H139.498V74.5993ZM144.364 62.5918V66.1903H146.936C148.353 66.1903 149.36 65.4818 149.36 64.3258C149.36 63.1139 148.353 62.5918 146.992 62.5918H144.364ZM161.738 58.5458V74.5993H156.873V58.5458H161.738ZM176.857 74.5993H167.573C164.796 74.5993 163.584 72.9585 163.584 71.2432C163.584 70.2363 164.013 69.1922 164.814 68.4651L171.227 62.5918H164.031V58.5458H173.091C175.776 58.5458 177.211 60.0934 177.211 61.8274C177.211 62.7783 176.764 63.8224 175.813 64.6801L169.419 70.5533H176.838V74.5993H176.857ZM183.009 74.5993C180.007 74.5993 178.796 73.1636 178.796 70.9076V62.2189C178.796 59.9629 180.007 58.5272 183.009 58.5272H192.106V62.4427H183.661V64.5869H191.491V68.5023H183.661V70.6465H192.237V74.562H183.009V74.5993Z" fill="#EBAA01"/>
<path d="M51.1162 15.4942V31.6596H46.2134V15.4942H51.1162ZM53.8939 31.6782V17.8808C53.8939 16.1468 55.3853 15.1213 56.9326 15.1213C58.1816 15.1213 59.2628 15.5129 59.8966 16.4079L66.1976 25.4321V15.4942H70.8395V29.2916C70.8395 31.0256 69.3481 32.0138 67.8009 32.0138C66.5891 32.0138 65.4706 31.6223 64.8368 30.7273L58.5358 21.7031V31.6596H53.8939V31.6782ZM86.8903 19.5775H81.8383V31.6782H76.9355V19.5775H71.8835V15.5129H86.8903V19.5775ZM92.0541 31.6782C89.0341 31.6782 87.8224 30.2425 87.8224 27.9678V19.2233C87.8224 16.9486 89.0341 15.5129 92.0541 15.5129H101.226V19.4657H92.7253V21.6285H100.611V25.5813H92.7253V27.7441H101.357V31.6969H92.0541V31.6782ZM103.463 31.6782V15.5129H110.957C115.189 15.5129 118.433 17.3028 118.433 20.8827C118.433 23.0082 117.109 24.7609 115.021 25.3575C115.916 25.8796 116.512 26.8118 117.295 28.2848L119.122 31.6782H113.791L112.113 28.6391C111.498 27.539 110.808 27.1288 109.223 27.1288H108.329V31.6782H103.463ZM108.366 19.5775V23.1947H110.957C112.393 23.1947 113.399 22.4675 113.399 21.3302C113.399 20.0996 112.393 19.5775 111.013 19.5775H108.366ZM120.819 31.6782V17.8808C120.819 16.1468 122.31 15.1213 123.857 15.1213C125.106 15.1213 126.188 15.5129 126.822 16.4079L133.123 25.4321V15.4942H137.764V29.2916C137.764 31.0256 136.273 32.0138 134.726 32.0138C133.514 32.0138 132.396 31.6223 131.762 30.7273L125.461 21.7031V31.6596H120.819V31.6782ZM142.91 18.0673C143.581 16.0722 145.426 15.14 147.272 15.14C149.117 15.14 150.982 16.0722 151.634 18.0673L156.239 31.6782H151.224L150.404 28.956H144.121L143.282 31.6782H138.268L142.872 18.0673H142.91ZM145.37 24.9846H149.211L147.514 19.3538C147.458 19.186 147.402 19.1114 147.309 19.1114C147.216 19.1114 147.141 19.186 147.104 19.3538L145.389 24.9846H145.37ZM162.335 27.5949H170.22V31.6596H161.664C158.644 31.6596 157.432 30.2239 157.432 27.9492V15.4942H162.335V27.5949Z" fill="#EBAA01"/>
<path d="M49.0845 94.008V81.4412H54.5093V93.9148C54.5093 97.8489 56.2989 99.7694 59.9714 99.7694C63.6439 99.7694 65.4335 97.8489 65.4335 93.9148V81.4412H70.8584V94.008C70.8584 100.534 67.4096 104.431 59.9901 104.431C52.5705 104.431 49.1218 100.534 49.1218 94.008H49.0845ZM75.0155 104.058V81.4412H84.6348C90.2834 81.4412 94.627 83.8278 94.627 88.6382C94.627 91.7333 92.6136 94.1199 89.4258 94.8844C91.0291 95.6861 91.9425 97.2336 93.2475 99.5829L95.6523 104.058H89.78L87.5616 100.03C86.4058 97.9422 85.3432 96.8421 82.5096 96.8421H80.4031L80.3658 104.058H75.0155ZM80.4404 85.972L80.4031 92.4605H84.6348C87.1888 92.4605 89.053 91.2486 89.053 89.1417C89.053 87.0348 87.1515 85.9906 84.7094 85.9906H80.4404V85.972ZM98.8214 104.058V81.4412H108.478C114.723 81.4412 118.47 83.7905 118.47 87.65C118.47 90.2417 116.941 91.9757 114.574 92.7961C117.053 93.43 118.731 94.8844 118.731 97.7371C118.731 102.175 114.388 104.058 108.403 104.058H98.8214ZM104.228 90.8384H108.72C111.684 90.8384 113.027 89.9061 113.027 88.0416C113.027 86.3635 111.535 85.4499 108.758 85.4499H104.228V90.8197V90.8384ZM104.228 100.012H108.683C111.312 100.012 113.288 99.4711 113.288 97.3828C113.288 95.4624 111.759 94.8657 108.72 94.8657H104.228V100.012ZM126.281 84.6295C127.139 82.1684 129.357 80.9937 131.706 80.9937C134.055 80.9937 136.311 82.1684 137.168 84.6295L143.767 104.058H138.231L136.777 99.4151L126.635 99.4524L125.181 104.058H119.645L126.244 84.6295H126.281ZM128.071 95.0522H135.378L132.564 86.0839C132.414 85.6177 132.191 85.4126 131.743 85.4126C131.333 85.4126 131.072 85.6177 130.923 86.0839L128.071 95.0522ZM145.911 104.058V84.5363C145.911 82.2803 147.738 80.9751 149.77 80.9751C151.411 80.9751 152.697 81.5158 153.517 82.765L163.397 98.0913V81.4599H168.524V100.981C168.524 103.237 166.697 104.505 164.74 104.505C163.136 104.505 161.776 104.002 160.955 102.753L151.075 87.3331V104.058H145.911Z" fill="#EBAA01"/>
<path d="M61.6678 113.083L62.283 112.822C62.4694 113.194 62.8609 113.4 63.4202 113.4C63.9794 113.4 64.3896 113.157 64.3896 112.747C64.3896 112.281 63.9049 112.187 63.3456 112.094C62.6372 111.964 61.761 111.759 61.761 110.845C61.761 110.136 62.4694 109.595 63.3642 109.595C64.0913 109.595 64.7251 109.894 65.0047 110.491L64.4082 110.77C64.2218 110.416 63.8489 110.192 63.327 110.192C62.8423 110.192 62.4508 110.453 62.4508 110.808C62.4508 111.274 62.9541 111.367 63.532 111.479C64.2404 111.609 65.0979 111.815 65.0979 112.728C65.0979 113.493 64.3523 114.015 63.4015 114.015C62.5999 114.015 61.9288 113.698 61.6492 113.101L61.6678 113.083ZM65.7691 113.922V109.353H66.4588V111.143C66.7198 110.882 67.1486 110.714 67.6146 110.714C68.6213 110.714 69.1992 111.33 69.1992 112.281V113.922H68.5094V112.355C68.5094 111.796 68.1739 111.311 67.5214 111.311C66.9062 111.311 66.4775 111.759 66.4775 112.374V113.922H65.7877H65.7691ZM69.628 112.337C69.628 111.442 70.3364 110.696 71.3803 110.696C72.4243 110.696 73.0767 111.386 73.0767 112.262V112.523H70.3177C70.3923 113.064 70.8397 113.437 71.4735 113.437C71.9023 113.437 72.2751 113.269 72.4802 112.933L73.0208 113.176C72.7225 113.717 72.1633 113.996 71.4735 113.996C70.4296 113.996 69.6466 113.306 69.6466 112.337H69.628ZM72.387 112.113C72.3497 111.609 71.9582 111.274 71.3803 111.274C70.8024 111.274 70.4109 111.647 70.3364 112.113H72.3683H72.387ZM74.4003 109.353V113.922H73.7106V109.353H74.4003ZM76.0222 109.353V113.922H75.3138V109.353H76.0222ZM79.2659 113.922C78.7812 113.922 78.5948 113.698 78.5948 113.325V110.211C78.5948 109.838 78.7626 109.614 79.2659 109.614H81.8571V110.211H79.3218V111.46H81.7266V112.057H79.3218V113.306H81.9131V113.903H79.2659V113.922ZM82.23 112.355C82.23 111.46 83.0502 110.714 84.0383 110.714C84.6721 110.714 85.25 110.975 85.5855 111.535L85.0076 111.833C84.8026 111.498 84.467 111.311 84.0569 111.311C83.4417 111.311 82.957 111.777 82.957 112.355C82.957 112.933 83.4604 113.4 84.0569 113.4C84.467 113.4 84.8026 113.213 85.0076 112.877L85.5855 113.157C85.2686 113.735 84.6907 113.978 84.0383 113.978C83.0502 113.978 82.23 113.25 82.23 112.337V112.355ZM85.716 112.355C85.716 111.46 86.5363 110.714 87.5616 110.714C88.5869 110.714 89.3885 111.46 89.3885 112.355C89.3885 113.25 88.5869 114.015 87.5616 114.015C86.5363 114.015 85.716 113.269 85.716 112.355ZM88.6988 112.355C88.6988 111.777 88.1954 111.311 87.5616 111.311C86.9278 111.311 86.4058 111.777 86.4058 112.355C86.4058 112.933 86.9091 113.4 87.5616 113.4C88.2141 113.4 88.6988 112.933 88.6988 112.355ZM92.539 112.243H90.0969V111.665H92.539V112.243ZM99.362 112.281V113.94H98.6723V112.393C98.6723 111.815 98.3553 111.33 97.7215 111.33C97.0877 111.33 96.7708 111.815 96.7708 112.393V113.959H96.0624V112.393C96.0624 111.815 95.7455 111.33 95.1116 111.33C94.4778 111.33 94.1795 111.833 94.1795 112.393V113.94H93.4711V112.299C93.4711 111.423 94.0304 110.714 95.0557 110.714C95.7455 110.714 96.2488 111.031 96.4166 111.516C96.603 111.031 97.0877 110.714 97.7402 110.714C98.7841 110.714 99.3434 111.423 99.3434 112.281H99.362ZM99.7908 112.355C99.7908 111.46 100.574 110.714 101.636 110.714C102.699 110.714 103.482 111.423 103.482 112.355V113.922H102.811V113.362C102.55 113.754 102.084 113.996 101.524 113.996C100.518 113.996 99.7908 113.25 99.7908 112.337V112.355ZM102.792 112.355C102.792 111.777 102.289 111.311 101.655 111.311C101.021 111.311 100.518 111.777 100.518 112.355C100.518 112.933 101.021 113.4 101.655 113.4C102.289 113.4 102.792 112.933 102.792 112.355ZM104.134 113.922V112.057C104.134 111.292 104.619 110.733 105.514 110.733C105.738 110.733 105.961 110.77 106.129 110.845V111.479C105.961 111.386 105.756 111.348 105.57 111.348C105.104 111.348 104.824 111.628 104.824 112.094V113.94H104.134V113.922ZM106.073 112.355C106.073 111.46 106.856 110.714 107.919 110.714C108.981 110.714 109.764 111.423 109.764 112.355V113.922H109.093V113.362C108.832 113.754 108.366 113.996 107.807 113.996C106.8 113.996 106.073 113.25 106.073 112.337V112.355ZM109.056 112.355C109.056 111.777 108.571 111.311 107.919 111.311C107.266 111.311 106.782 111.777 106.782 112.355C106.782 112.933 107.285 113.4 107.919 113.4C108.553 113.4 109.056 112.933 109.056 112.355ZM110.659 112.803V111.348H109.969V110.808H110.659V109.987H111.349V110.808H112.672V111.348H111.349V112.784C111.349 113.195 111.61 113.437 112.039 113.437C112.262 113.437 112.505 113.362 112.672 113.25V113.829C112.505 113.94 112.225 114.015 111.964 114.015C111.106 114.015 110.64 113.53 110.64 112.803H110.659ZM113.381 113.922V109.353H114.089V111.143C114.35 110.882 114.779 110.714 115.245 110.714C116.252 110.714 116.83 111.33 116.83 112.281V113.922H116.121V112.355C116.121 111.796 115.786 111.311 115.133 111.311C114.518 111.311 114.089 111.759 114.089 112.374V113.922H113.381ZM117.24 112.355C117.24 111.46 118.06 110.714 119.085 110.714C120.111 110.714 120.912 111.46 120.912 112.355C120.912 113.25 120.111 114.015 119.085 114.015C118.06 114.015 117.24 113.269 117.24 112.355ZM120.222 112.355C120.222 111.777 119.719 111.311 119.085 111.311C118.451 111.311 117.929 111.777 117.929 112.355C117.929 112.933 118.433 113.4 119.085 113.4C119.738 113.4 120.222 112.933 120.222 112.355ZM122.049 112.411V113.922H121.341V112.337C121.341 111.423 121.938 110.696 123.056 110.696C124.175 110.696 124.79 111.404 124.79 112.318V113.903H124.1V112.393C124.1 111.796 123.746 111.292 123.056 111.292C122.366 111.292 122.049 111.796 122.049 112.374V112.411ZM128.164 110.155C128.313 109.745 128.649 109.558 129.04 109.558C129.432 109.558 129.786 109.745 129.935 110.155L131.221 113.922H130.494L130.14 112.877H127.94L127.586 113.922H126.859L128.145 110.155H128.164ZM128.127 112.281H129.935L129.301 110.341C129.245 110.211 129.171 110.136 129.04 110.136C128.891 110.136 128.816 110.192 128.779 110.341L128.145 112.281H128.127ZM131.464 113.306L132.004 113.045C132.172 113.362 132.47 113.474 132.843 113.474C133.216 113.474 133.552 113.325 133.552 113.045C133.552 112.393 131.575 112.877 131.575 111.684C131.575 111.125 132.116 110.733 132.862 110.733C133.496 110.733 133.943 110.994 134.167 111.367L133.626 111.647C133.477 111.367 133.197 111.274 132.88 111.274C132.563 111.274 132.265 111.423 132.265 111.684C132.265 112.318 134.241 111.852 134.241 113.045C134.241 113.642 133.607 114.015 132.88 114.015C132.247 114.015 131.743 113.791 131.482 113.325L131.464 113.306ZM134.745 109.745C134.745 109.521 134.95 109.316 135.211 109.316C135.472 109.316 135.658 109.502 135.658 109.745C135.658 109.987 135.453 110.155 135.211 110.155C134.968 110.155 134.745 109.968 134.745 109.745ZM135.565 110.789V113.922H134.856V110.789H135.565ZM136.124 112.355C136.124 111.46 136.907 110.714 137.97 110.714C139.032 110.714 139.815 111.423 139.815 112.355V113.922H139.144V113.362C138.883 113.754 138.417 113.996 137.858 113.996C136.851 113.996 136.124 113.25 136.124 112.337V112.355ZM139.107 112.355C139.107 111.777 138.622 111.311 137.97 111.311C137.317 111.311 136.833 111.777 136.833 112.355C136.833 112.933 137.336 113.4 137.97 113.4C138.603 113.4 139.107 112.933 139.107 112.355ZM142.686 113.922C142.257 113.922 142.034 113.698 142.034 113.418C142.034 113.213 142.127 113.045 142.332 112.877L143.73 111.74C144.122 111.423 144.327 111.18 144.327 110.826C144.327 110.435 143.972 110.173 143.506 110.173C143.04 110.173 142.667 110.435 142.444 110.826L141.884 110.546C142.201 109.968 142.779 109.558 143.544 109.558C144.42 109.558 145.035 110.099 145.035 110.789C145.035 111.311 144.774 111.703 144.345 112.057L142.947 113.176C142.947 113.176 142.854 113.25 142.854 113.288C142.854 113.306 142.854 113.325 142.891 113.325H145.165V113.922H142.667H142.686ZM145.557 111.777C145.557 110.528 146.321 109.558 147.458 109.558C148.596 109.558 149.36 110.509 149.36 111.777C149.36 113.045 148.596 114.015 147.458 114.015C146.321 114.015 145.557 113.027 145.557 111.777ZM148.614 111.777C148.614 110.901 148.13 110.229 147.458 110.229C146.787 110.229 146.303 110.901 146.303 111.777C146.303 112.654 146.806 113.344 147.458 113.344C148.111 113.344 148.614 112.654 148.614 111.777ZM151 113.922V110.379C151 110.379 151 110.341 150.963 110.341C150.926 110.341 150.907 110.36 150.87 110.379L149.789 110.938L149.472 110.323L150.684 109.707C150.87 109.614 151.056 109.539 151.243 109.539C151.541 109.539 151.727 109.726 151.727 110.043V113.903H151V113.922ZM152.529 111.777C152.529 110.528 153.293 109.558 154.431 109.558C155.568 109.558 156.332 110.509 156.332 111.777C156.332 113.045 155.568 114.015 154.431 114.015C153.293 114.015 152.529 113.027 152.529 111.777ZM155.586 111.777C155.586 110.901 155.083 110.229 154.431 110.229C153.778 110.229 153.275 110.901 153.275 111.777C153.275 112.654 153.759 113.344 154.431 113.344C155.102 113.344 155.586 112.654 155.586 111.777Z" fill="#EBAA01"/>
<path d="M31.0947 44.8415C31.0947 40.5718 34.8045 37.1598 39.5582 37.1598C42.3918 37.1598 45.1135 38.5209 46.3253 40.8142L43.4358 42.2872C42.6341 41.0193 41.3851 40.1989 39.4091 40.1989C36.6873 40.1989 34.7299 42.1567 34.7299 44.8229C34.7299 47.4892 36.6687 49.4469 39.4091 49.4469C41.3665 49.4469 42.6714 48.6265 43.4358 47.3586L46.3253 48.8316C45.1135 51.1436 42.3918 52.486 39.5582 52.486C34.8045 52.486 31.0947 49.0926 31.0947 44.8043V44.8415ZM46.2507 44.8415C46.2507 40.4972 49.9045 37.1784 54.7328 37.1784C59.5611 37.1784 63.2336 40.4972 63.2336 44.8415C63.2336 49.1859 59.5425 52.5047 54.7328 52.5047C49.9232 52.5047 46.2507 49.2231 46.2507 44.8415ZM59.5798 44.8415C59.5798 42.2312 57.4732 40.2176 54.7328 40.2176C51.9924 40.2176 49.8859 42.2312 49.8859 44.8415C49.8859 47.4519 52.0111 49.4655 54.7328 49.4655C57.4546 49.4655 59.5798 47.4519 59.5798 44.8415ZM63.9979 52.2064L66.1977 39.509C66.4959 37.9801 67.6704 37.1598 69.3295 37.1598C70.7836 37.1598 72.014 37.7378 72.4055 39.1548L75.1459 48.3655L75.1645 48.4401C75.1831 48.4401 75.2204 48.4401 75.2204 48.3655L77.9049 39.2107C78.315 37.7937 79.5827 37.1411 81.0554 37.1411C82.6772 37.1411 83.8517 37.9801 84.0754 39.5463L86.0887 52.1877H82.5095L80.9435 40.6091C80.9435 40.4972 80.9249 40.4413 80.813 40.4413C80.7385 40.4413 80.7012 40.4786 80.6639 40.5718L77.6439 50.3605C77.3083 51.4792 76.3389 52.0199 75.1645 52.0199C73.99 52.0199 73.002 51.4979 72.7224 50.4164L69.7024 40.5718C69.6837 40.4599 69.6278 40.4413 69.5719 40.4413C69.4973 40.4413 69.4228 40.4786 69.4228 40.5905L67.5772 52.1877H63.9979V52.2064ZM88.2139 52.2064V37.4394H94.5149C98.5789 37.4394 101.04 38.9683 101.04 41.5041C101.04 43.2008 100.052 44.3381 98.5043 44.8602C100.126 45.2704 101.226 46.2213 101.226 48.0858C101.226 50.9758 98.3925 52.2064 94.4963 52.2064H88.2512H88.2139ZM91.7559 43.5923H94.6827C96.6215 43.5923 97.4977 42.977 97.4977 41.7651C97.4977 40.665 96.5283 40.0684 94.7014 40.0684H91.7373V43.5737L91.7559 43.5923ZM91.7559 49.5774H94.6641C96.3791 49.5774 97.6654 49.2232 97.6654 47.8621C97.6654 46.6128 96.6774 46.2213 94.6827 46.2213H91.7559V49.5774ZM103.053 45.6433V37.4394H106.595V45.5687C106.595 48.1417 107.751 49.391 110.156 49.391C112.56 49.391 113.716 48.1417 113.716 45.5687V37.4394H117.258V45.6433C117.258 49.8944 115.003 52.4488 110.156 52.4488C105.309 52.4488 103.053 49.913 103.053 45.6433ZM118.899 49.2604L121.863 47.918C122.403 48.9994 123.541 49.5401 125.237 49.5401C126.766 49.5401 127.921 48.9621 127.921 47.918C127.921 46.6874 126.635 46.501 124.939 46.2213C122.497 45.8484 119.178 45.0653 119.178 41.7278C119.178 39.1361 121.751 37.1598 125.125 37.1598C127.81 37.1598 130.14 38.2785 131.184 40.3854L128.22 41.7278C127.679 40.7769 126.617 40.1243 124.976 40.1243C123.634 40.1243 122.72 40.7023 122.72 41.5973C122.72 42.7906 124.081 43.0889 125.852 43.3686C128.276 43.7415 131.482 44.5246 131.482 47.8807C131.482 50.5283 128.723 52.4674 125.256 52.4674C122.329 52.4674 119.98 51.3487 118.936 49.2418L118.899 49.2604ZM144.811 40.404H140.02V52.2064H136.478V40.404H131.687V37.4394H144.83V40.404H144.811ZM149.695 37.4394V52.2064H146.153V37.4394H149.695ZM151.485 44.8415C151.485 40.4972 155.139 37.1784 159.967 37.1784C164.795 37.1784 168.468 40.4972 168.468 44.8415C168.468 49.1859 164.777 52.5047 159.967 52.5047C155.157 52.5047 151.485 49.2231 151.485 44.8415ZM164.814 44.8415C164.814 42.2312 162.707 40.2176 159.967 40.2176C157.227 40.2176 155.12 42.2312 155.12 44.8415C155.12 47.4519 157.245 49.4655 159.967 49.4655C162.689 49.4655 164.814 47.4519 164.814 44.8415ZM170.108 52.2064V39.4718C170.108 37.9988 171.301 37.1411 172.625 37.1411C173.688 37.1411 174.545 37.4954 175.067 38.2971L181.517 48.2909V37.4394H184.854V50.1741C184.854 51.647 183.661 52.486 182.375 52.486C181.331 52.486 180.436 52.1504 179.895 51.3487L173.445 41.2803V52.2064H170.071H170.108Z" fill="#EBAA01"/>
</g>
<defs>
<clipPath id="clip0_351_7870">
<rect width="218" height="120" fill="white"/>
</clipPath>
</defs>
</svg>
