<svg width="218" height="120" viewBox="0 0 218 120" fill="none" xmlns="http://www.w3.org/2000/svg">
<g clip-path="url(#clip0_351_7744)">
<path d="M81.0186 58.3406V20.435C81.0186 20.435 80.8509 20.5096 80.7763 20.5842L68.0997 26.6998L62.5071 16.2026L78.0173 8.80049C80.6831 7.51398 83.6099 6.54443 86.1079 6.54443C90.3583 6.54443 93.1919 9.11746 93.1919 13.6482V58.3219H81.0186V58.3406Z" fill="#EBAA01"/>
<path d="M98.5051 40.9073L100.574 39.8631C100.985 40.5716 101.637 40.87 102.625 40.87C103.52 40.87 104.098 40.553 104.098 40.0309C104.098 38.6139 98.7661 39.8445 98.7661 36.4511C98.7661 34.8662 100.295 33.6357 102.7 33.6357C104.787 33.6357 106.037 34.5306 106.633 35.5375L104.564 36.5816C104.247 35.9477 103.538 35.6493 102.756 35.6493C102.066 35.6493 101.562 35.9477 101.562 36.4138C101.562 37.8308 106.894 36.6935 106.894 39.9936C106.894 41.7649 104.993 42.9023 102.774 42.9023C100.761 42.9023 99.344 42.2311 98.5424 40.9073H98.5051ZM108.609 39.1733V36.0036H106.819V33.878H108.609V31.6406H111.387V33.878H114.817V36.0036H111.387V39.1173C111.387 40.0869 112.039 40.6649 113.065 40.6649C113.642 40.6649 114.351 40.4971 114.836 40.236V42.4921C114.351 42.7718 113.493 42.9209 112.822 42.9209C110.007 42.9209 108.628 41.392 108.628 39.1919L108.609 39.1733ZM99.5304 58.3404V46.3889H104.191C107.938 46.3889 110.231 47.9738 110.231 50.7332C110.231 53.4927 107.975 55.1708 104.34 55.1708H102.401V58.3218H99.5304V58.3404ZM102.401 48.7941V52.7842H104.266C106.148 52.7842 107.286 52.1316 107.286 50.7332C107.286 49.3348 106.148 48.7755 104.266 48.7755H102.401V48.7941ZM113.68 55.9539H119.85V58.3591H113.363C111.536 58.3591 110.828 57.5014 110.828 56.1403V46.4076H113.698V55.9539H113.68ZM124.175 48.0856C124.623 46.7805 125.797 46.1652 127.046 46.1652C128.295 46.1652 129.488 46.7805 129.936 48.0856L133.422 58.3404H130.495L129.731 55.8979H124.38L123.616 58.3404H120.689L124.175 48.0856ZM125.107 53.5859H128.966L127.475 48.8501C127.4 48.6077 127.27 48.4958 127.046 48.4958C126.822 48.4958 126.692 48.6077 126.617 48.8501L125.107 53.5859ZM132.881 52.374C132.881 48.906 135.882 46.1652 139.723 46.1652C142.016 46.1652 144.215 47.2652 145.203 49.1298L142.873 50.323C142.221 49.2976 141.195 48.645 139.611 48.645C137.411 48.645 135.826 50.2298 135.826 52.3926C135.826 54.5555 137.392 56.1403 139.611 56.1403C141.195 56.1403 142.258 55.4877 142.873 54.4623L145.203 55.6555C144.215 57.5201 142.016 58.6201 139.723 58.6201C135.882 58.6201 132.881 55.8606 132.881 52.4113V52.374ZM148.298 58.3404C146.471 58.3404 145.763 57.4828 145.763 56.1217V48.6263C145.763 47.2652 146.471 46.3889 148.298 46.3889H155.289V48.7196H148.634V51.1994H154.879V53.53H148.634V56.0098H155.401V58.3404H148.298Z" fill="#EBAA01"/>
<path d="M51.2475 116.234C49.7934 117.763 41.5536 112.561 38.9065 108.086C38.9065 108.086 37.4337 105.625 37.1168 102.157C37.0795 101.84 37.1168 101.505 37.1727 101.188C37.21 100.983 37.3219 100.796 37.5083 100.311C37.8811 100.442 38.2913 100.516 38.6641 100.628C38.6641 100.628 39.2047 100.815 39.7267 101.094C45.2447 103.966 48.7308 109.783 48.7308 109.783C50.4086 112.58 52.0677 115.358 51.2475 116.234Z" fill="#EBAA01"/>
<path d="M27.5161 12.8838C27.9635 4.71722 38.198 -1.80857 47.5563 0.447486C41.945 6.56309 36.6134 12.4736 27.5161 12.8838Z" fill="#EBAA01"/>
<path d="M15.7532 85.9915C9.89957 78.1978 10.3843 69.4906 16.7226 64.2886C20.656 71.6348 17.4682 78.4589 15.7532 85.9915Z" fill="#EBAA01"/>
<path d="M10.1603 70.8702C6.61832 61.8274 9.43327 53.4184 16.8528 50.1555C18.6424 58.3221 13.7582 64.1207 10.1603 70.8702Z" fill="#EBAA01"/>
<path d="M11.8572 38.4279C12.7334 29.5714 20.3579 22.9711 27.6283 24.5559C26.5285 29.7019 20.9172 34.6802 11.8572 38.4279Z" fill="#EBAA01"/>
<path d="M8.94859 54.5556C7.66229 45.1958 13.199 36.8614 20.7304 36.7495C20.0779 44.8601 14.1311 49.2231 8.94859 54.5556Z" fill="#EBAA01"/>
<path d="M38.198 14.5804C33.4629 21.4231 26.0434 22.1689 19.0713 24.164C20.3389 17.4517 31.0581 10.6276 38.198 14.5804Z" fill="#EBAA01"/>
<path d="M20.4694 78.0862C25.9129 84.1272 24.8503 91.4734 25.0553 98.745C17.4494 94.3634 15.3615 82.6169 20.4694 78.0862Z" fill="#EBAA01"/>
<path d="M22.8182 99.919C15.2122 99.9563 7.77406 93.2441 6.07764 84.7979C14.3733 86.7183 18.7915 93.039 22.8182 99.919Z" fill="#EBAA01"/>
<path d="M37.5642 109.465C28.8024 105.83 25.0181 98.6513 27.2365 90.0559C34.3391 94.624 35.1967 102.026 37.5642 109.465Z" fill="#EBAA01"/>
<path d="M50.5765 117.8C45.0398 122.61 32.6429 118.807 28.6162 113.25C36.7814 110.603 43.679 114.276 50.5765 117.8Z" fill="#EBAA01"/>
<path d="M5.72381 30.896C10.1979 38.3727 8.81839 45.8867 6.84233 53.4193C1.4175 49.2428 0.895525 39.6033 5.72381 30.896Z" fill="#EBAA01"/>
<path d="M14.9888 15.3076C17.5055 23.5488 13.7025 30.3729 10.1419 37.0851C5.83554 32.0882 8.29629 20.6028 14.9888 15.3076Z" fill="#EBAA01"/>
<path d="M8.03503 70.3861C1.3239 66.7689 -1.84525 56.9616 1.10019 48.8696C7.60626 54.7242 7.38256 62.7043 8.03503 70.3861Z" fill="#EBAA01"/>
<path d="M17.4681 22.4489C14.7836 16.1096 20.6932 5.40728 28.4483 2.2749C26.8078 7.51418 27.0687 13.0145 22.371 16.7622C20.5068 18.2538 19.2018 20.4166 17.4681 22.4676V22.4489Z" fill="#EBAA01"/>
<path d="M1.11869 67.1038C8.76193 71.1684 11.1108 78.4959 13.3106 85.7862C6.76723 85.32 0.578072 75.9975 1.11869 67.1038Z" fill="#EBAA01"/>
<path d="M35.644 110.771C28.0008 112.728 19.8728 108.533 14.97 99.8074C19.2763 101.019 23.3402 101.523 26.7145 103.294C29.9955 105.028 32.5494 108.104 35.6626 110.771H35.644Z" fill="#EBAA01"/>
<path d="M166.753 116.234C168.207 117.763 176.447 112.561 179.094 108.086C179.094 108.086 180.567 105.625 180.884 102.157C180.921 101.84 180.884 101.505 180.828 101.188C180.791 100.983 180.679 100.796 180.493 100.311C180.12 100.442 179.71 100.516 179.337 100.628C179.337 100.628 178.796 100.815 178.274 101.094C172.756 103.966 169.27 109.783 169.27 109.783C167.592 112.58 165.933 115.358 166.753 116.234Z" fill="#EBAA01"/>
<path d="M190.485 12.8838C190.037 4.71722 179.803 -1.80857 170.444 0.447486C176.056 6.56309 181.387 12.4736 190.485 12.8838Z" fill="#EBAA01"/>
<path d="M202.248 85.9915C208.101 78.1978 207.617 69.4906 201.278 64.2886C197.345 71.6348 200.533 78.4589 202.248 85.9915Z" fill="#EBAA01"/>
<path d="M207.84 70.8702C211.382 61.8274 208.567 53.4184 201.147 50.1555C199.358 58.3221 204.242 64.1207 207.84 70.8702Z" fill="#EBAA01"/>
<path d="M206.144 38.4279C205.268 29.5714 197.643 22.9711 190.373 24.5559C191.473 29.7019 197.084 34.6802 206.144 38.4279Z" fill="#EBAA01"/>
<path d="M209.052 54.5556C210.339 45.1958 204.802 36.8614 197.271 36.7495C197.923 44.8601 203.87 49.2231 209.052 54.5556Z" fill="#EBAA01"/>
<path d="M179.803 14.5804C184.538 21.4231 191.957 22.1689 198.929 24.164C197.662 17.4517 186.943 10.6276 179.803 14.5804Z" fill="#EBAA01"/>
<path d="M197.531 78.0862C192.088 84.1272 193.151 91.4734 192.946 98.745C200.552 94.3634 202.639 82.6169 197.531 78.0862Z" fill="#EBAA01"/>
<path d="M195.182 99.919C202.788 99.9563 210.227 93.2441 211.923 84.7979C203.627 86.7183 199.209 93.039 195.182 99.919Z" fill="#EBAA01"/>
<path d="M180.436 109.465C189.198 105.83 192.982 98.6513 190.764 90.0559C183.661 94.624 182.804 102.026 180.436 109.465Z" fill="#EBAA01"/>
<path d="M167.425 117.8C172.961 122.61 185.358 118.807 189.385 113.25C181.22 110.603 174.322 114.276 167.425 117.8Z" fill="#EBAA01"/>
<path d="M212.277 30.896C207.803 38.3727 209.183 45.8867 211.159 53.4193C216.584 49.2428 217.106 39.6033 212.277 30.896Z" fill="#EBAA01"/>
<path d="M203.012 15.3076C200.496 23.5488 204.298 30.3729 207.859 37.0851C212.165 32.0882 209.705 20.6028 203.012 15.3076Z" fill="#EBAA01"/>
<path d="M209.966 70.3861C216.677 66.7689 219.846 56.9616 216.901 48.8696C210.395 54.7242 210.619 62.7043 209.966 70.3861Z" fill="#EBAA01"/>
<path d="M200.533 22.4489C203.217 16.1096 197.308 5.40728 189.552 2.2749C191.193 7.51418 190.932 13.0145 195.63 16.7622C197.494 18.2538 198.799 20.4166 200.533 22.4676V22.4489Z" fill="#EBAA01"/>
<path d="M216.882 67.1038C209.238 71.1684 206.889 78.4959 204.69 85.7862C211.233 85.32 217.422 75.9975 216.882 67.1038Z" fill="#EBAA01"/>
<path d="M182.375 110.771C190.019 112.728 198.146 108.533 203.049 99.8074C198.743 101.019 194.679 101.523 191.305 103.294C188.024 105.028 185.47 108.104 182.357 110.771H182.375Z" fill="#EBAA01"/>
<path d="M49.0664 77.1722V65.0529H55.7589V77.0044C55.7589 80.4165 57.213 81.8149 60.1771 81.8149C63.1411 81.8149 64.6325 80.3979 64.6325 77.0044V65.0529H71.325V77.1722C71.325 83.7167 67.8203 87.5576 60.1957 87.5576C52.5711 87.5576 49.1037 83.7167 49.1037 77.1722H49.0664ZM74.7365 87.1474V65.0529H84.971C90.75 65.0529 95.1682 67.5141 95.1682 72.3805C95.1682 75.2891 93.3599 77.6943 90.5077 78.496C91.738 79.2232 92.5396 80.4911 93.6209 82.4861L96.1189 87.1287H88.8485L86.5742 82.9709C85.7353 81.4606 84.8032 80.9013 82.6407 80.9013H81.4103L81.3731 87.1287H74.7551L74.7365 87.1474ZM81.429 70.6092L81.3917 75.5501H84.971C86.9284 75.5501 88.2893 74.5619 88.2893 72.9957C88.2893 71.3177 86.9097 70.6092 85.0269 70.6092H81.4103H81.429ZM98.6356 87.1474V65.0529H108.87C115.022 65.0529 118.694 67.5141 118.694 71.299C118.694 73.6856 117.315 75.3264 115.19 76.1841C117.352 76.8366 118.881 78.2164 118.881 80.9013C118.881 85.0218 114.836 87.1474 108.87 87.1474H98.6356ZM105.328 73.7975H109.224C111.107 73.7975 112.002 73.0703 112.002 71.8024C112.002 70.6837 111.126 69.9752 109.224 69.9752H105.328V73.8161V73.7975ZM105.328 82.2437H109.224C111.107 82.2437 112.188 81.7589 112.188 80.4724C112.188 79.0927 111.107 78.7011 109.224 78.7011H105.328V82.2437ZM125.704 68.5582C126.599 65.836 129.134 64.5681 131.669 64.5681C134.205 64.5681 136.74 65.836 137.635 68.5582L143.917 87.166H137.075L135.957 83.437H127.382L126.226 87.166H119.384L125.667 68.5582H125.704ZM129.078 78.0113H134.316L132.005 70.3108C131.93 70.0871 131.856 69.9752 131.707 69.9752C131.557 69.9752 131.483 70.0685 131.408 70.3108L129.059 78.0113H129.078ZM145.371 87.1474V68.2785C145.371 65.9292 147.403 64.5122 149.528 64.5122C151.225 64.5122 152.716 65.0343 153.574 66.2835L162.186 78.6266V65.0343H168.506V83.9031C168.506 86.2524 166.474 87.6322 164.349 87.6322C162.69 87.6322 161.161 87.1101 160.303 85.8609L151.691 73.5178V87.1474H145.371Z" fill="#EBAA01"/>
<path d="M58.667 103.48V94.7909C58.667 93.5604 59.3195 92.7959 60.9227 92.7959H67.1305V94.9401H61.221V97.7369H66.739V99.8624H61.221V103.48H58.667ZM70.2251 94.3062C70.6352 93.1502 71.6791 92.5908 72.779 92.5908C73.8789 92.5908 74.9601 93.1502 75.3516 94.3062L78.4835 103.48H75.8736L75.1838 101.298H70.3928L69.7031 103.48H67.0932L70.2251 94.3062ZM71.0639 99.2285H74.5127L73.1705 94.996C73.0959 94.7723 73.0027 94.6791 72.779 94.6791C72.5926 94.6791 72.4621 94.7723 72.3875 94.996L71.0267 99.2285H71.0639ZM78.875 103.48L80.4782 94.2875C80.6832 93.1688 81.5408 92.5908 82.7339 92.5908C83.7778 92.5908 84.6726 93.001 84.9709 94.0265L86.947 100.701V100.757C86.947 100.757 86.9842 100.757 86.9842 100.701L88.923 94.0824C89.2213 93.0569 90.1347 92.5908 91.1973 92.5908C92.3718 92.5908 93.2107 93.1875 93.3971 94.3435L94.8512 103.48H92.2599L91.1228 95.0893C91.1228 95.0893 91.1228 94.9588 91.0296 94.9588C90.9736 94.9588 90.9364 94.996 90.9177 95.052L88.718 102.137C88.4756 102.939 87.7672 103.349 86.9283 103.349C86.0894 103.349 85.3624 102.976 85.1573 102.193L82.9576 95.0706C82.9576 95.0706 82.9016 94.9774 82.8644 94.9774C82.8084 94.9774 82.7525 95.0147 82.7525 95.0893L81.4103 103.48H78.819H78.875ZM98.4864 103.48C96.8459 103.48 96.2307 102.715 96.2307 101.503V94.8096C96.2307 93.579 96.8645 92.8146 98.4864 92.8146H104.731V94.9028H98.7847V97.1216H104.359V99.2098H98.7847V101.429H104.843V103.517H98.4864V103.48ZM109.578 98.1471C109.578 95.052 112.263 92.5908 115.712 92.5908C117.762 92.5908 119.738 93.579 120.614 95.2384L118.527 96.3012C117.949 95.3876 117.035 94.7909 115.618 94.7909C113.661 94.7909 112.226 96.208 112.226 98.1471C112.226 100.086 113.624 101.503 115.618 101.503C117.035 101.503 117.986 100.925 118.527 99.9929L120.614 101.056C119.738 102.715 117.781 103.703 115.712 103.703C112.263 103.703 109.578 101.242 109.578 98.1471ZM124.101 101.335H129.619V103.48H123.802C122.162 103.48 121.547 102.715 121.547 101.503V92.7959H124.101V101.335ZM132.583 94.3062C132.993 93.1502 134.037 92.5908 135.137 92.5908C136.237 92.5908 137.318 93.1502 137.709 94.3062L140.841 103.48H138.231L137.541 101.298H132.75L132.061 103.48H129.451L132.583 94.3062ZM133.422 99.2285H136.87L135.528 94.996C135.454 94.7723 135.36 94.6791 135.137 94.6791C134.95 94.6791 134.82 94.7723 134.745 94.996L133.384 99.2285H133.422ZM141.195 101.354L143.339 100.384C143.731 101.168 144.551 101.559 145.781 101.559C146.881 101.559 147.739 101.149 147.739 100.384C147.739 99.4895 146.807 99.359 145.576 99.1539C143.805 98.8929 141.4 98.3149 141.4 95.891C141.4 94.0265 143.265 92.5908 145.707 92.5908C147.645 92.5908 149.342 93.3926 150.088 94.9215L147.944 95.891C147.552 95.2011 146.788 94.735 145.595 94.735C144.625 94.735 143.954 95.1452 143.954 95.7978C143.954 96.6555 144.942 96.8792 146.21 97.0843C147.962 97.364 150.274 97.9233 150.274 100.347C150.274 102.268 148.279 103.666 145.763 103.666C143.637 103.666 141.941 102.864 141.177 101.335L141.195 101.354ZM150.982 101.354L153.126 100.384C153.518 101.168 154.338 101.559 155.568 101.559C156.668 101.559 157.507 101.149 157.507 100.384C157.507 99.4895 156.575 99.359 155.345 99.1539C153.574 98.8929 151.169 98.3149 151.169 95.891C151.169 94.0265 153.033 92.5908 155.475 92.5908C157.433 92.5908 159.11 93.3926 159.856 94.9215L157.712 95.891C157.321 95.2011 156.556 94.735 155.363 94.735C154.394 94.735 153.723 95.1452 153.723 95.7978C153.723 96.6555 154.711 96.8792 155.978 97.0843C157.731 97.364 160.042 97.9233 160.042 100.347C160.042 102.268 158.048 103.666 155.531 103.666C153.406 103.666 151.709 102.864 150.945 101.335L150.982 101.354Z" fill="#EBAA01"/>
<path d="M62.3954 113.028L63.0106 112.767C63.197 113.14 63.5885 113.345 64.1478 113.345C64.707 113.345 65.1172 113.102 65.1172 112.692C65.1172 112.226 64.6325 112.133 64.0732 112.039C63.3648 111.909 62.47 111.704 62.47 110.79C62.47 110.081 63.1784 109.54 64.0732 109.54C64.8003 109.54 65.4341 109.839 65.7137 110.436L65.1172 110.715C64.9308 110.361 64.5766 110.137 64.0359 110.137C63.5512 110.137 63.1598 110.398 63.1598 110.753C63.1598 111.219 63.6631 111.312 64.241 111.424C64.9494 111.554 65.8069 111.76 65.8069 112.673C65.8069 113.438 65.0612 113.96 64.1105 113.96C63.3089 113.96 62.6378 113.643 62.3582 113.046L62.3954 113.028ZM66.5153 113.867V109.298H67.2051V111.088C67.4661 110.827 67.8948 110.659 68.3609 110.659C69.3676 110.659 69.9455 111.275 69.9455 112.226V113.867H69.2557V112.3C69.2557 111.741 68.9201 111.256 68.2677 111.256C67.6525 111.256 67.2237 111.704 67.2237 112.319V113.867H66.534H66.5153ZM70.3742 112.282C70.3742 111.387 71.0826 110.641 72.1266 110.641C73.1705 110.641 73.823 111.331 73.823 112.207V112.468H71.064C71.1386 113.009 71.586 113.382 72.2198 113.382C72.6486 113.382 73.0214 113.214 73.2265 112.878L73.7671 113.121C73.4688 113.662 72.9095 113.941 72.2384 113.941C71.1945 113.941 70.4115 113.251 70.4115 112.282H70.3742ZM73.1146 112.058C73.0773 111.554 72.6858 111.219 72.1079 111.219C71.53 111.219 71.1386 111.592 71.064 112.058H73.096H73.1146ZM75.1279 109.298V113.867H74.4382V109.298H75.1279ZM76.7498 109.298V113.867H76.06V109.298H76.7498ZM79.9935 113.867C79.5088 113.867 79.3224 113.643 79.3224 113.27V110.156C79.3224 109.783 79.4902 109.559 79.9935 109.559H82.5848V110.156H80.0494V111.405H82.4543V112.002H80.0494V113.251H82.6407V113.848H79.9935V113.867ZM82.9576 112.3C82.9576 111.405 83.7779 110.659 84.7659 110.659C85.3997 110.659 85.9776 110.92 86.2945 111.48L85.7166 111.778C85.5116 111.443 85.1574 111.256 84.7659 111.256C84.1507 111.256 83.666 111.722 83.666 112.3C83.666 112.878 84.1693 113.345 84.7659 113.345C85.176 113.345 85.5116 113.158 85.7166 112.823L86.2945 113.102C85.9776 113.68 85.3997 113.923 84.7659 113.923C83.7779 113.923 82.9576 113.196 82.9576 112.282V112.3ZM86.4437 112.3C86.4437 111.405 87.2639 110.659 88.2892 110.659C89.3145 110.659 90.1161 111.405 90.1161 112.3C90.1161 113.196 89.3145 113.96 88.2892 113.96C87.2639 113.96 86.4437 113.214 86.4437 112.3ZM89.4264 112.3C89.4264 111.722 88.9231 111.256 88.2892 111.256C87.6554 111.256 87.1334 111.722 87.1334 112.3C87.1334 112.878 87.6368 113.345 88.2892 113.345C88.9417 113.345 89.4264 112.878 89.4264 112.3ZM93.2666 112.189H90.8245V111.61H93.2666V112.189ZM100.09 112.226V113.886H99.3999V112.338C99.3999 111.76 99.083 111.275 98.4491 111.275C97.8153 111.275 97.4984 111.76 97.4984 112.338V113.904H96.8086V112.338C96.8086 111.76 96.4917 111.275 95.8579 111.275C95.2241 111.275 94.9258 111.778 94.9258 112.338V113.886H94.236V112.244C94.236 111.368 94.7953 110.659 95.8206 110.659C96.5104 110.659 97.0137 110.976 97.1815 111.461C97.3679 110.976 97.8526 110.659 98.5237 110.659C99.5677 110.659 100.127 111.368 100.127 112.226H100.09ZM100.537 112.3C100.537 111.405 101.32 110.659 102.383 110.659C103.445 110.659 104.228 111.368 104.228 112.3V113.867H103.557V113.307C103.296 113.699 102.83 113.941 102.271 113.941C101.264 113.941 100.537 113.196 100.537 112.282V112.3ZM103.52 112.3C103.52 111.722 103.016 111.256 102.383 111.256C101.749 111.256 101.245 111.722 101.245 112.3C101.245 112.878 101.749 113.345 102.383 113.345C103.016 113.345 103.52 112.878 103.52 112.3ZM104.862 113.867V112.002C104.862 111.237 105.347 110.678 106.242 110.678C106.465 110.678 106.689 110.715 106.857 110.79V111.424C106.689 111.331 106.484 111.293 106.297 111.293C105.831 111.293 105.552 111.573 105.552 112.039V113.886H104.862V113.867ZM106.801 112.3C106.801 111.405 107.584 110.659 108.646 110.659C109.709 110.659 110.492 111.368 110.492 112.3V113.867H109.821V113.307C109.56 113.699 109.094 113.941 108.534 113.941C107.528 113.941 106.801 113.196 106.801 112.282V112.3ZM109.783 112.3C109.783 111.722 109.299 111.256 108.646 111.256C107.994 111.256 107.509 111.722 107.509 112.3C107.509 112.878 108.012 113.345 108.646 113.345C109.28 113.345 109.783 112.878 109.783 112.3ZM111.387 112.748V111.293H110.697V110.753H111.387V109.932H112.076V110.753H113.4V111.293H112.076V112.729C112.076 113.14 112.337 113.382 112.766 113.382C112.99 113.382 113.232 113.307 113.4 113.196V113.774C113.232 113.886 112.953 113.96 112.692 113.96C111.834 113.96 111.368 113.475 111.368 112.748H111.387ZM114.108 113.867V109.298H114.798V111.088C115.059 110.827 115.488 110.659 115.954 110.659C116.961 110.659 117.539 111.275 117.539 112.226V113.867H116.849V112.3C116.849 111.741 116.513 111.256 115.861 111.256C115.246 111.256 114.817 111.704 114.817 112.319V113.867H114.127H114.108ZM117.967 112.3C117.967 111.405 118.788 110.659 119.813 110.659C120.838 110.659 121.64 111.405 121.64 112.3C121.64 113.196 120.838 113.96 119.813 113.96C118.788 113.96 117.967 113.214 117.967 112.3ZM120.95 112.3C120.95 111.722 120.447 111.256 119.813 111.256C119.179 111.256 118.657 111.722 118.657 112.3C118.657 112.878 119.16 113.345 119.813 113.345C120.465 113.345 120.95 112.878 120.95 112.3ZM122.777 112.356V113.867H122.087V112.282C122.087 111.368 122.684 110.641 123.802 110.641C124.921 110.641 125.555 111.349 125.555 112.263V113.848H124.846V112.338C124.846 111.741 124.492 111.237 123.802 111.237C123.113 111.237 122.796 111.741 122.796 112.319L122.777 112.356ZM128.892 110.1C129.041 109.69 129.376 109.503 129.768 109.503C130.159 109.503 130.513 109.69 130.663 110.1L131.949 113.867H131.222L130.868 112.823H128.668L128.314 113.867H127.587L128.873 110.1H128.892ZM128.873 112.226H130.681L130.047 110.286C129.991 110.156 129.917 110.081 129.786 110.081C129.637 110.081 129.563 110.137 129.525 110.286L128.892 112.226H128.873ZM132.191 113.251L132.732 112.99C132.9 113.307 133.198 113.419 133.571 113.419C133.944 113.419 134.26 113.27 134.26 112.99C134.26 112.338 132.284 112.823 132.284 111.629C132.284 111.07 132.825 110.678 133.571 110.678C134.205 110.678 134.652 110.939 134.876 111.312L134.335 111.592C134.186 111.312 133.906 111.219 133.589 111.219C133.272 111.219 132.974 111.368 132.974 111.629C132.974 112.263 134.95 111.797 134.95 112.99C134.95 113.587 134.316 113.96 133.589 113.96C132.956 113.96 132.452 113.736 132.191 113.27V113.251ZM135.472 109.69C135.472 109.466 135.677 109.261 135.938 109.261C136.199 109.261 136.386 109.447 136.386 109.69C136.386 109.932 136.181 110.1 135.938 110.1C135.696 110.1 135.472 109.913 135.472 109.69ZM136.292 110.734V113.867H135.603V110.734H136.292ZM136.852 112.3C136.852 111.405 137.635 110.659 138.697 110.659C139.76 110.659 140.543 111.368 140.543 112.3V113.867H139.872V113.307C139.611 113.699 139.145 113.941 138.585 113.941C137.579 113.941 136.852 113.196 136.852 112.282V112.3ZM139.834 112.3C139.834 111.722 139.35 111.256 138.697 111.256C138.045 111.256 137.56 111.722 137.56 112.3C137.56 112.878 138.063 113.345 138.697 113.345C139.331 113.345 139.834 112.878 139.834 112.3ZM143.414 113.867C142.985 113.867 142.761 113.643 142.761 113.363C142.761 113.158 142.854 112.99 143.06 112.823L144.458 111.685C144.849 111.368 145.054 111.126 145.054 110.771C145.054 110.38 144.7 110.119 144.234 110.119C143.768 110.119 143.395 110.38 143.171 110.771L142.612 110.492C142.929 109.913 143.507 109.503 144.271 109.503C145.147 109.503 145.763 110.044 145.763 110.734C145.763 111.256 145.502 111.648 145.073 112.002L143.675 113.121C143.675 113.121 143.582 113.196 143.582 113.233C143.582 113.251 143.582 113.27 143.619 113.27H145.893V113.867H143.395H143.414ZM146.285 111.722C146.285 110.473 147.049 109.503 148.186 109.503C149.323 109.503 150.088 110.454 150.088 111.722C150.088 112.99 149.323 113.96 148.186 113.96C147.049 113.96 146.285 112.972 146.285 111.722ZM149.342 111.722C149.342 110.846 148.839 110.175 148.186 110.175C147.534 110.175 147.03 110.846 147.03 111.722C147.03 112.599 147.515 113.289 148.186 113.289C148.857 113.289 149.342 112.599 149.342 111.722ZM151.728 113.867V110.324C151.728 110.324 151.728 110.286 151.691 110.286C151.654 110.286 151.635 110.305 151.598 110.324L150.516 110.883L150.199 110.268L151.411 109.652C151.598 109.559 151.784 109.485 151.97 109.485C152.269 109.485 152.455 109.671 152.455 109.988V113.848H151.728V113.867ZM154.487 113.867V110.324C154.487 110.324 154.487 110.286 154.45 110.286C154.413 110.286 154.394 110.305 154.357 110.324L153.275 110.883L152.958 110.268L154.17 109.652C154.357 109.559 154.543 109.485 154.729 109.485C155.028 109.485 155.214 109.671 155.214 109.988V113.848H154.487V113.867Z" fill="#EBAA01"/>
</g>
<defs>
<clipPath id="clip0_351_7744">
<rect width="218" height="120" fill="white"/>
</clipPath>
</defs>
</svg>
