<svg width="218" height="120" viewBox="0 0 218 120" fill="none" xmlns="http://www.w3.org/2000/svg">
<g clip-path="url(#clip0_351_7786)">
<path d="M51.2475 116.234C49.7934 117.763 41.5536 112.561 38.9065 108.086C38.9065 108.086 37.4337 105.625 37.1168 102.157C37.0795 101.84 37.1168 101.505 37.1727 101.188C37.21 100.983 37.3219 100.796 37.5083 100.311C37.8811 100.442 38.2913 100.516 38.6641 100.628C38.6641 100.628 39.2047 100.815 39.7267 101.094C45.2447 103.966 48.7308 109.783 48.7308 109.783C50.4086 112.58 52.0677 115.358 51.2475 116.234Z" fill="#EBAA01"/>
<path d="M27.5154 12.8838C27.9628 4.71722 38.1973 -1.80857 47.5556 0.447486C41.9443 6.56309 36.6127 12.4736 27.5154 12.8838Z" fill="#EBAA01"/>
<path d="M15.7527 85.9915C9.89908 78.1978 10.3838 69.4906 16.7221 64.2886C20.6555 71.6348 17.4677 78.4589 15.7527 85.9915Z" fill="#EBAA01"/>
<path d="M10.1601 70.8702C6.61807 61.8274 9.43302 53.4184 16.8526 50.1555C18.6422 58.3221 13.758 64.1207 10.1601 70.8702Z" fill="#EBAA01"/>
<path d="M11.8567 38.4279C12.7329 29.5714 20.3575 22.9711 27.6279 24.5559C26.528 29.7019 20.9167 34.6802 11.8567 38.4279Z" fill="#EBAA01"/>
<path d="M8.94859 54.5556C7.66229 45.1958 13.199 36.8614 20.7304 36.7495C20.0779 44.8601 14.1311 49.2231 8.94859 54.5556Z" fill="#EBAA01"/>
<path d="M38.1975 14.5804C33.4625 21.4231 26.0429 22.1689 19.0708 24.164C20.3385 17.4517 31.0576 10.6276 38.1975 14.5804Z" fill="#EBAA01"/>
<path d="M20.4691 78.0862C25.9126 84.1272 24.85 91.4734 25.0551 98.745C17.4491 94.3634 15.3612 82.6169 20.4691 78.0862Z" fill="#EBAA01"/>
<path d="M22.8177 99.919C15.2117 99.9563 7.77357 93.2441 6.07715 84.7979C14.3729 86.7183 18.791 93.039 22.8177 99.919Z" fill="#EBAA01"/>
<path d="M37.5637 109.465C28.8019 105.83 25.0176 98.6513 27.236 90.0559C34.3386 94.624 35.1962 102.026 37.5637 109.465Z" fill="#EBAA01"/>
<path d="M50.576 117.8C45.0394 122.61 32.6424 118.807 28.6157 113.25C36.7809 110.603 43.6785 114.276 50.576 117.8Z" fill="#EBAA01"/>
<path d="M5.72332 30.896C10.1974 38.3727 8.8179 45.8867 6.84185 53.4193C1.41701 49.2428 0.895037 39.6033 5.72332 30.896Z" fill="#EBAA01"/>
<path d="M14.9883 15.3076C17.505 23.5488 13.702 30.3729 10.1414 37.0851C5.83505 32.0882 8.2958 20.6028 14.9883 15.3076Z" fill="#EBAA01"/>
<path d="M8.03479 70.3861C1.32365 66.7689 -1.84549 56.9616 1.09995 48.8696C7.60602 54.7242 7.38231 62.7043 8.03479 70.3861Z" fill="#EBAA01"/>
<path d="M17.4676 22.4489C14.7832 16.1096 20.6927 5.40728 28.4478 2.2749C26.8073 7.51418 27.0683 13.0145 22.3705 16.7622C20.5063 18.2538 19.2013 20.4166 17.4676 22.4676V22.4489Z" fill="#EBAA01"/>
<path d="M1.11845 67.1038C8.76168 71.1684 11.1106 78.4959 13.3103 85.7862C6.76698 85.32 0.577827 75.9975 1.11845 67.1038Z" fill="#EBAA01"/>
<path d="M35.6437 110.771C28.0005 112.728 19.8726 108.533 14.9697 99.8074C19.276 101.019 23.34 101.523 26.7142 103.294C29.9952 105.028 32.5492 108.104 35.6624 110.771H35.6437Z" fill="#EBAA01"/>
<path d="M166.753 116.234C168.207 117.763 176.447 112.561 179.094 108.086C179.094 108.086 180.567 105.625 180.884 102.157C180.921 101.84 180.884 101.505 180.828 101.188C180.79 100.983 180.679 100.796 180.492 100.311C180.119 100.442 179.709 100.516 179.336 100.628C179.336 100.628 178.796 100.815 178.274 101.094C172.756 103.966 169.27 109.783 169.27 109.783C167.592 112.58 165.933 115.358 166.753 116.234Z" fill="#EBAA01"/>
<path d="M190.484 12.8838C190.036 4.71722 179.802 -1.80857 170.444 0.447486C176.055 6.56309 181.386 12.4736 190.484 12.8838Z" fill="#EBAA01"/>
<path d="M202.247 85.9915C208.101 78.1978 207.616 69.4906 201.278 64.2886C197.345 71.6348 200.532 78.4589 202.247 85.9915Z" fill="#EBAA01"/>
<path d="M207.84 70.8702C211.382 61.8274 208.567 53.4184 201.147 50.1555C199.358 58.3221 204.242 64.1207 207.84 70.8702Z" fill="#EBAA01"/>
<path d="M206.144 38.4279C205.268 29.5714 197.643 22.9711 190.373 24.5559C191.472 29.7019 197.084 34.6802 206.144 38.4279Z" fill="#EBAA01"/>
<path d="M209.052 54.5556C210.338 45.1958 204.801 36.8614 197.27 36.7495C197.922 44.8601 203.869 49.2231 209.052 54.5556Z" fill="#EBAA01"/>
<path d="M179.802 14.5804C184.537 21.4231 191.957 22.1689 198.929 24.164C197.661 17.4517 186.942 10.6276 179.802 14.5804Z" fill="#EBAA01"/>
<path d="M197.531 78.0862C192.087 84.1272 193.15 91.4734 192.945 98.745C200.551 94.3634 202.639 82.6169 197.531 78.0862Z" fill="#EBAA01"/>
<path d="M195.182 99.919C202.788 99.9563 210.226 93.2441 211.922 84.7979C203.627 86.7183 199.209 93.039 195.182 99.919Z" fill="#EBAA01"/>
<path d="M180.436 109.465C189.198 105.83 192.982 98.6513 190.764 90.0559C183.661 94.624 182.804 102.026 180.436 109.465Z" fill="#EBAA01"/>
<path d="M167.424 117.8C172.961 122.61 185.358 118.807 189.385 113.25C181.219 110.603 174.322 114.276 167.424 117.8Z" fill="#EBAA01"/>
<path d="M212.277 30.896C207.803 38.3727 209.182 45.8867 211.158 53.4193C216.583 49.2428 217.105 39.6033 212.277 30.896Z" fill="#EBAA01"/>
<path d="M203.012 15.3076C200.495 23.5488 204.298 30.3729 207.859 37.0851C212.165 32.0882 209.704 20.6028 203.012 15.3076Z" fill="#EBAA01"/>
<path d="M209.965 70.3861C216.676 66.7689 219.846 56.9616 216.9 48.8696C210.394 54.7242 210.618 62.7043 209.965 70.3861Z" fill="#EBAA01"/>
<path d="M200.532 22.4489C203.217 16.1096 197.307 5.40728 189.552 2.2749C191.193 7.51418 190.932 13.0145 195.629 16.7622C197.494 18.2538 198.798 20.4166 200.532 22.4676V22.4489Z" fill="#EBAA01"/>
<path d="M216.882 67.1038C209.238 71.1684 206.889 78.4959 204.69 85.7862C211.233 85.32 217.422 75.9975 216.882 67.1038Z" fill="#EBAA01"/>
<path d="M182.375 110.771C190.018 112.728 198.146 108.533 203.049 99.8074C198.743 101.019 194.679 101.523 191.304 103.294C188.023 105.028 185.469 108.104 182.356 110.771H182.375Z" fill="#EBAA01"/>
<path d="M25.2412 66.5816C25.2412 61.9017 29.2306 58.21 34.5995 58.21C37.75 58.21 40.8632 59.683 42.1495 62.3679L38.1788 64.3629C37.4331 63.1509 36.4451 62.3492 34.3945 62.3492C31.8964 62.3492 30.2373 64.1391 30.2373 66.6562C30.2373 69.1733 31.9151 70.9819 34.5995 70.9819C36.0163 70.9819 36.9111 70.87 37.6754 70.2361V66.9359H42.3732V71.6904C41.0124 73.5922 38.1601 74.9533 34.5995 74.9533C29.2865 74.9533 25.2412 71.2616 25.2412 66.5816ZM44.2188 74.599V58.5456H51.657C55.8701 58.5456 59.0765 60.3355 59.0765 63.8781C59.0765 66.0036 57.7529 67.7376 55.6837 68.3343C56.5785 68.8564 57.1564 69.7886 57.9393 71.2429L59.7476 74.6177H54.4719L52.8128 71.5972C52.2162 70.4971 51.5265 70.1056 49.9419 70.1056H49.0471V74.6177H44.2188V74.599ZM49.0844 62.5916V66.1901H51.657C53.0738 66.1901 54.0804 65.4816 54.0804 64.3256C54.0804 63.1137 53.0738 62.5916 51.7129 62.5916H49.0844ZM64.4641 61.1C65.1165 59.1236 66.9621 58.1913 68.8077 58.1913C70.6532 58.1913 72.4801 59.1236 73.1513 61.1L77.7185 74.6177H72.7411L71.9209 71.9142H65.6944L64.8555 74.6177H59.8781L64.4454 61.1H64.4641ZM66.9062 67.9614H70.7091L69.0314 62.3679C68.9754 62.2 68.9195 62.1255 68.8263 62.1255C68.7331 62.1255 68.6772 62.2 68.6212 62.3679L66.9062 67.9614ZM78.7625 74.599V60.8949C78.7625 59.1795 80.2352 58.1541 81.7825 58.1541C83.0129 58.1541 84.0941 58.527 84.728 59.4406L90.9917 68.4089V58.5456H95.5963V72.2498C95.5963 73.9651 94.1235 74.9533 92.5763 74.9533C91.3645 74.9533 90.2646 74.5804 89.6308 73.6668L83.3671 64.6985V74.599H78.7625ZM105.365 74.599H98.3553V58.5456H105.365C111.181 58.5456 115.04 61.7526 115.04 66.6376C115.04 71.5226 111.051 74.599 105.365 74.599ZM105.365 62.5916H103.202V70.6836H105.365C108.198 70.6836 110.044 69.0615 110.044 66.6376C110.044 64.2137 108.198 62.5916 105.365 62.5916ZM122.925 74.599V58.5456H129.73C134.987 58.5456 138.063 60.8017 138.063 64.5307C138.063 68.2597 135.155 70.6649 129.991 70.6649H127.791V74.5618H122.925V74.599ZM127.791 62.5916V66.6376H129.86C132.041 66.6376 133.067 65.8918 133.067 64.5493C133.067 63.2815 131.967 62.5916 129.86 62.5916H127.791ZM139.498 74.599V58.5456H146.936C151.15 58.5456 154.356 60.3355 154.356 63.8781C154.356 66.0036 153.032 67.7376 150.963 68.3343C151.858 68.8564 152.436 69.7886 153.219 71.2429L155.027 74.6177H149.751L148.092 71.5972C147.496 70.4971 146.806 70.1056 145.221 70.1056H144.327V74.6177H139.498V74.599ZM144.364 62.5916V66.1901H146.936C148.353 66.1901 149.36 65.4816 149.36 64.3256C149.36 63.1137 148.353 62.5916 146.992 62.5916H144.364ZM161.738 58.5456V74.599H156.873V58.5456H161.738ZM176.857 74.599H167.573C164.796 74.599 163.584 72.9583 163.584 71.2429C163.584 70.2361 164.013 69.192 164.814 68.4648L171.227 62.5916H164.031V58.5456H173.091C175.776 58.5456 177.211 60.0931 177.211 61.8271C177.211 62.778 176.764 63.8222 175.813 64.6798L169.419 70.5531H176.838V74.599H176.857ZM183.009 74.599C180.007 74.599 178.796 73.1634 178.796 70.9073V62.2187C178.796 59.9626 180.007 58.527 183.009 58.527H192.106V62.4424H183.661V64.5866H191.491V68.5021H183.661V70.6463H192.237V74.5618H183.009V74.599Z" fill="#EBAA01"/>
<path d="M51.1165 15.4942V31.6596H46.2136V15.4942H51.1165ZM53.8941 31.6782V17.8808C53.8941 16.1468 55.3855 15.1213 56.9328 15.1213C58.1818 15.1213 59.263 15.5129 59.8969 16.4079L66.1979 25.4321V15.4942H70.8398V29.2916C70.8398 31.0256 69.3484 32.0138 67.8011 32.0138C66.5894 32.0138 65.4708 31.6223 64.837 30.7273L58.536 21.7031V31.6596H53.8941V31.6782ZM86.8905 19.5775H81.8386V31.6782H76.9357V19.5775H71.8837V15.5129H86.8905V19.5775ZM92.0544 31.6782C89.0344 31.6782 87.8226 30.2425 87.8226 27.9678V19.2233C87.8226 16.9486 89.0344 15.5129 92.0544 15.5129H101.226V19.4657H92.7255V21.6285H100.611V25.5813H92.7255V27.7441H101.357V31.6969H92.0544V31.6782ZM103.463 31.6782V15.5129H110.957C115.189 15.5129 118.433 17.3028 118.433 20.8827C118.433 23.0082 117.109 24.7609 115.021 25.3575C115.916 25.8796 116.513 26.8118 117.296 28.2848L119.123 31.6782H113.791L112.113 28.6391C111.498 27.539 110.808 27.1288 109.224 27.1288H108.329V31.6782H103.463ZM108.366 19.5775V23.1947H110.957C112.393 23.1947 113.4 22.4675 113.4 21.3302C113.4 20.0996 112.393 19.5775 111.013 19.5775H108.366ZM120.819 31.6782V17.8808C120.819 16.1468 122.31 15.1213 123.858 15.1213C125.107 15.1213 126.188 15.5129 126.822 16.4079L133.123 25.4321V15.4942H137.765V29.2916C137.765 31.0256 136.273 32.0138 134.726 32.0138C133.514 32.0138 132.396 31.6223 131.762 30.7273L125.461 21.7031V31.6596H120.819V31.6782ZM142.91 18.0673C143.581 16.0722 145.427 15.14 147.272 15.14C149.118 15.14 150.982 16.0722 151.634 18.0673L156.239 31.6782H151.224L150.404 28.956H144.122L143.283 31.6782H138.268L142.873 18.0673H142.91ZM145.371 24.9846H149.211L147.514 19.3538C147.459 19.186 147.403 19.1114 147.309 19.1114C147.216 19.1114 147.142 19.186 147.104 19.3538L145.389 24.9846H145.371ZM162.335 27.5949H170.22V31.6596H161.664C158.644 31.6596 157.432 30.2239 157.432 27.9492V15.4942H162.335V27.5949Z" fill="#EBAA01"/>
<path d="M49.085 94.0084V81.4416H54.5098V93.9151C54.5098 97.8493 56.2994 99.7697 59.9719 99.7697C63.6444 99.7697 65.434 97.8493 65.434 93.9151V81.4416H70.8589V94.0084C70.8589 100.534 67.4101 104.431 59.9906 104.431C52.571 104.431 49.1222 100.534 49.1222 94.0084H49.085ZM75.016 104.039V81.4229H84.6353C90.2839 81.4229 94.6275 83.8095 94.6275 88.6199C94.6275 91.715 92.6141 94.1016 89.4263 94.8661C91.0295 95.6678 91.943 97.2153 93.2479 99.5646L95.6528 104.039H89.7805L87.5621 100.012C86.4063 97.9238 85.3437 96.8238 82.5101 96.8238H80.4036L80.3663 104.039H75.016ZM80.4409 85.9723L80.4036 92.4608H84.6353C87.1893 92.4608 89.0535 91.2489 89.0535 89.142C89.0535 87.0351 87.152 85.991 84.7099 85.991H80.4409V85.9723ZM98.8219 104.039V81.4229H108.478C114.724 81.4229 118.471 83.7722 118.471 87.6317C118.471 90.2234 116.942 91.9574 114.574 92.7778C117.054 93.4117 118.732 94.866 118.732 97.7188C118.732 102.156 114.388 104.039 108.404 104.039H98.8219ZM104.228 90.8387H108.721C111.685 90.8387 113.027 89.9065 113.027 88.0419C113.027 86.3639 111.536 85.4503 108.758 85.4503H104.228V90.8201V90.8387ZM104.228 100.012H108.684C111.312 100.012 113.288 99.4714 113.288 97.3831C113.288 95.4627 111.759 94.8661 108.721 94.8661H104.228V100.012ZM126.282 84.6299C127.139 82.1687 129.358 80.9941 131.706 80.9941C134.055 80.9941 136.311 82.1687 137.169 84.6299L143.768 104.058H138.231L136.777 99.4155L126.636 99.4527L125.182 104.058H119.645L126.244 84.6299H126.282ZM128.071 95.0525H135.379L132.564 86.0842C132.415 85.6181 132.191 85.413 131.744 85.413C131.334 85.413 131.073 85.6181 130.924 86.0842L128.071 95.0525ZM145.912 104.039V84.518C145.912 82.262 147.739 80.9568 149.771 80.9568C151.411 80.9568 152.697 81.4975 153.518 82.7467L163.398 98.073V81.4416H168.524V100.963C168.524 103.219 166.698 104.487 164.74 104.487C163.137 104.487 161.776 103.984 160.956 102.734L151.076 87.3148V104.039H145.912Z" fill="#EBAA01"/>
<path d="M62.3949 113.083L63.0101 112.822C63.1965 113.194 63.588 113.4 64.1472 113.4C64.7065 113.4 65.1166 113.157 65.1166 112.747C65.1166 112.281 64.6319 112.187 64.0726 112.094C63.3642 111.964 62.4881 111.759 62.4881 110.845C62.4881 110.136 63.1965 109.595 64.0913 109.595C64.8183 109.595 65.4522 109.894 65.7318 110.491L65.1352 110.77C64.9488 110.416 64.576 110.192 64.054 110.192C63.5693 110.192 63.1778 110.453 63.1778 110.808C63.1778 111.274 63.6812 111.367 64.2591 111.479C64.9675 111.609 65.825 111.815 65.825 112.728C65.825 113.493 65.0793 114.015 64.1286 114.015C63.327 114.015 62.6559 113.698 62.3762 113.101L62.3949 113.083ZM66.5148 113.922V109.353H67.2045V111.143C67.4655 110.882 67.8943 110.714 68.3603 110.714C69.367 110.714 69.9449 111.33 69.9449 112.281V113.922H69.2551V112.355C69.2551 111.796 68.9196 111.311 68.2671 111.311C67.6519 111.311 67.2232 111.759 67.2232 112.374V113.922H66.5334H66.5148ZM70.3737 112.337C70.3737 111.442 71.0821 110.696 72.126 110.696C73.17 110.696 73.8224 111.386 73.8224 112.262V112.523H71.0634C71.138 113.064 71.5854 113.437 72.2192 113.437C72.648 113.437 73.0208 113.269 73.2259 112.933L73.7665 113.176C73.4682 113.717 72.909 113.996 72.2192 113.996C71.1753 113.996 70.3923 113.306 70.3923 112.337H70.3737ZM73.114 112.113C73.0768 111.609 72.6853 111.274 72.1074 111.274C71.5295 111.274 71.138 111.647 71.0634 112.113H73.0954H73.114ZM75.1274 109.353V113.922H74.4376V109.353H75.1274ZM76.7492 109.353V113.922H76.0408V109.353H76.7492ZM79.9929 113.922C79.5083 113.922 79.3218 113.698 79.3218 113.325V110.211C79.3218 109.838 79.4896 109.614 79.9929 109.614H82.5842V110.211H80.0489V111.46H82.4537V112.057H80.0489V113.306H82.6401V113.903H79.9929V113.922ZM82.957 112.355C82.957 111.46 83.7773 110.714 84.7653 110.714C85.3991 110.714 85.977 110.975 86.3126 111.535L85.7347 111.833C85.5296 111.498 85.1941 111.311 84.7839 111.311C84.1688 111.311 83.6841 111.777 83.6841 112.355C83.6841 112.933 84.1874 113.4 84.7839 113.4C85.1941 113.4 85.5296 113.213 85.7347 112.877L86.3126 113.157C85.9957 113.735 85.4178 113.978 84.7653 113.978C83.7773 113.978 82.957 113.25 82.957 112.337V112.355ZM86.4431 112.355C86.4431 111.46 87.2633 110.714 88.2887 110.714C89.314 110.714 90.1156 111.46 90.1156 112.355C90.1156 113.25 89.314 114.015 88.2887 114.015C87.2633 114.015 86.4431 113.269 86.4431 112.355ZM89.4258 112.355C89.4258 111.777 88.9225 111.311 88.2887 111.311C87.6548 111.311 87.1329 111.777 87.1329 112.355C87.1329 112.933 87.6362 113.4 88.2887 113.4C88.9411 113.4 89.4258 112.933 89.4258 112.355ZM93.2661 112.243H90.824V111.665H93.2661V112.243ZM100.089 112.281V113.94H99.3993V112.393C99.3993 111.815 99.0824 111.33 98.4486 111.33C97.8147 111.33 97.4978 111.815 97.4978 112.393V113.959H96.7894V112.393C96.7894 111.815 96.4725 111.33 95.8387 111.33C95.2048 111.33 94.9066 111.833 94.9066 112.393V113.94H94.1982V112.299C94.1982 111.423 94.7574 110.714 95.7828 110.714C96.4725 110.714 96.9758 111.031 97.1436 111.516C97.33 111.031 97.8147 110.714 98.4672 110.714C99.5112 110.714 100.07 111.423 100.07 112.281H100.089ZM100.536 112.355C100.536 111.46 101.319 110.714 102.382 110.714C103.445 110.714 104.228 111.423 104.228 112.355V113.922H103.556V113.362C103.295 113.754 102.829 113.996 102.27 113.996C101.264 113.996 100.536 113.25 100.536 112.337V112.355ZM103.519 112.355C103.519 111.777 103.016 111.311 102.382 111.311C101.748 111.311 101.245 111.777 101.245 112.355C101.245 112.933 101.748 113.4 102.382 113.4C103.016 113.4 103.519 112.933 103.519 112.355ZM104.861 113.922V112.057C104.861 111.292 105.346 110.733 106.241 110.733C106.465 110.733 106.688 110.77 106.856 110.845V111.479C106.688 111.386 106.483 111.348 106.297 111.348C105.831 111.348 105.551 111.628 105.551 112.094V113.94H104.861V113.922ZM106.8 112.355C106.8 111.46 107.583 110.714 108.646 110.714C109.708 110.714 110.491 111.423 110.491 112.355V113.922H109.82V113.362C109.559 113.754 109.093 113.996 108.534 113.996C107.527 113.996 106.8 113.25 106.8 112.337V112.355ZM109.802 112.355C109.802 111.777 109.317 111.311 108.664 111.311C108.012 111.311 107.527 111.777 107.527 112.355C107.527 112.933 108.031 113.4 108.664 113.4C109.298 113.4 109.802 112.933 109.802 112.355ZM111.386 112.803V111.348H110.696V110.808H111.386V109.987H112.076V110.808H113.399V111.348H112.076V112.784C112.076 113.195 112.337 113.437 112.766 113.437C112.989 113.437 113.232 113.362 113.399 113.25V113.829C113.232 113.94 112.952 114.015 112.691 114.015C111.834 114.015 111.367 113.53 111.367 112.803H111.386ZM114.108 113.922V109.353H114.816V111.143C115.077 110.882 115.506 110.714 115.972 110.714C116.979 110.714 117.557 111.33 117.557 112.281V113.922H116.848V112.355C116.848 111.796 116.513 111.311 115.86 111.311C115.245 111.311 114.816 111.759 114.816 112.374V113.922H114.108ZM117.967 112.355C117.967 111.46 118.787 110.714 119.812 110.714C120.838 110.714 121.639 111.46 121.639 112.355C121.639 113.25 120.838 114.015 119.812 114.015C118.787 114.015 117.967 113.269 117.967 112.355ZM120.949 112.355C120.949 111.777 120.446 111.311 119.812 111.311C119.179 111.311 118.657 111.777 118.657 112.355C118.657 112.933 119.16 113.4 119.812 113.4C120.465 113.4 120.949 112.933 120.949 112.355ZM122.776 112.411V113.922H122.068V112.337C122.068 111.423 122.665 110.696 123.783 110.696C124.902 110.696 125.517 111.404 125.517 112.318V113.903H124.827V112.393C124.827 111.796 124.473 111.292 123.783 111.292C123.093 111.292 122.776 111.796 122.776 112.374V112.411ZM128.891 110.155C129.04 109.745 129.376 109.558 129.767 109.558C130.159 109.558 130.513 109.745 130.662 110.155L131.948 113.922H131.221L130.867 112.877H128.667L128.313 113.922H127.586L128.872 110.155H128.891ZM128.872 112.281H130.681L130.047 110.341C129.991 110.211 129.916 110.136 129.786 110.136C129.637 110.136 129.562 110.192 129.525 110.341L128.891 112.281H128.872ZM132.191 113.306L132.731 113.045C132.899 113.362 133.197 113.474 133.57 113.474C133.943 113.474 134.279 113.325 134.279 113.045C134.279 112.393 132.303 112.877 132.303 111.684C132.303 111.125 132.843 110.733 133.589 110.733C134.223 110.733 134.67 110.994 134.894 111.367L134.353 111.647C134.204 111.367 133.924 111.274 133.607 111.274C133.291 111.274 132.992 111.423 132.992 111.684C132.992 112.318 134.968 111.852 134.968 113.045C134.968 113.642 134.334 114.015 133.607 114.015C132.974 114.015 132.47 113.791 132.209 113.325L132.191 113.306ZM135.472 109.745C135.472 109.521 135.677 109.316 135.938 109.316C136.199 109.316 136.385 109.502 136.385 109.745C136.385 109.987 136.18 110.155 135.938 110.155C135.695 110.155 135.472 109.968 135.472 109.745ZM136.292 110.789V113.922H135.584V110.789H136.292ZM136.851 112.355C136.851 111.46 137.634 110.714 138.697 110.714C139.759 110.714 140.542 111.423 140.542 112.355V113.922H139.871V113.362C139.61 113.754 139.144 113.996 138.585 113.996C137.578 113.996 136.851 113.25 136.851 112.337V112.355ZM139.834 112.355C139.834 111.777 139.349 111.311 138.697 111.311C138.044 111.311 137.56 111.777 137.56 112.355C137.56 112.933 138.063 113.4 138.697 113.4C139.331 113.4 139.834 112.933 139.834 112.355ZM143.413 113.922C142.984 113.922 142.761 113.698 142.761 113.418C142.761 113.213 142.854 113.045 143.059 112.877L144.457 111.74C144.849 111.423 145.054 111.18 145.054 110.826C145.054 110.435 144.699 110.173 144.233 110.173C143.767 110.173 143.395 110.435 143.171 110.826L142.612 110.546C142.928 109.968 143.506 109.558 144.271 109.558C145.147 109.558 145.762 110.099 145.762 110.789C145.762 111.311 145.501 111.703 145.072 112.057L143.674 113.176C143.674 113.176 143.581 113.25 143.581 113.288C143.581 113.306 143.581 113.325 143.618 113.325H145.893V113.922H143.395H143.413ZM146.284 111.777C146.284 110.528 147.048 109.558 148.186 109.558C149.323 109.558 150.087 110.509 150.087 111.777C150.087 113.045 149.323 114.015 148.186 114.015C147.048 114.015 146.284 113.027 146.284 111.777ZM149.341 111.777C149.341 110.901 148.857 110.229 148.186 110.229C147.514 110.229 147.03 110.901 147.03 111.777C147.03 112.654 147.533 113.344 148.186 113.344C148.838 113.344 149.341 112.654 149.341 111.777ZM151.728 113.922V110.379C151.728 110.379 151.728 110.341 151.69 110.341C151.653 110.341 151.634 110.36 151.597 110.379L150.516 110.938L150.199 110.323L151.411 109.707C151.597 109.614 151.783 109.539 151.97 109.539C152.268 109.539 152.455 109.726 152.455 110.043V113.903H151.728V113.922ZM154.487 113.922V110.379C154.487 110.379 154.487 110.341 154.449 110.341C154.412 110.341 154.393 110.36 154.356 110.379L153.275 110.938L152.958 110.323L154.17 109.707C154.356 109.614 154.542 109.539 154.729 109.539C155.027 109.539 155.214 109.726 155.214 110.043V113.903H154.487V113.922Z" fill="#EBAA01"/>
<path d="M31.0947 44.8415C31.0947 40.5718 34.8045 37.1598 39.5582 37.1598C42.3918 37.1598 45.1135 38.5209 46.3253 40.8142L43.4358 42.2872C42.6341 41.0193 41.3851 40.1989 39.4091 40.1989C36.6873 40.1989 34.7299 42.1567 34.7299 44.8229C34.7299 47.4892 36.6687 49.4469 39.4091 49.4469C41.3665 49.4469 42.6714 48.6265 43.4358 47.3586L46.3253 48.8316C45.1135 51.1436 42.3918 52.486 39.5582 52.486C34.8045 52.486 31.0947 49.0926 31.0947 44.8043V44.8415ZM46.2507 44.8415C46.2507 40.4972 49.9045 37.1784 54.7328 37.1784C59.5611 37.1784 63.2336 40.4972 63.2336 44.8415C63.2336 49.1859 59.5425 52.5047 54.7328 52.5047C49.9232 52.5047 46.2507 49.2231 46.2507 44.8415ZM59.5798 44.8415C59.5798 42.2312 57.4732 40.2176 54.7328 40.2176C51.9925 40.2176 49.8859 42.2312 49.8859 44.8415C49.8859 47.4519 52.0111 49.4655 54.7328 49.4655C57.4546 49.4655 59.5798 47.4519 59.5798 44.8415ZM63.9979 52.2064L66.1977 39.509C66.496 37.9801 67.6704 37.1598 69.3295 37.1598C70.7836 37.1598 72.014 37.7378 72.4055 39.1548L75.1459 48.3655L75.1645 48.4401C75.1831 48.4401 75.2204 48.4401 75.2204 48.3655L77.9049 39.2107C78.315 37.7937 79.5827 37.1411 81.0554 37.1411C82.6772 37.1411 83.8517 37.9801 84.0754 39.5463L86.0887 52.1877H82.5095L80.9435 40.6091C80.9435 40.4972 80.9249 40.4413 80.813 40.4413C80.7385 40.4413 80.7012 40.4786 80.6639 40.5718L77.6439 50.3605C77.3083 51.4792 76.339 52.0199 75.1645 52.0199C73.9901 52.0199 73.002 51.4979 72.7224 50.4164L69.7024 40.5718C69.6837 40.4599 69.6278 40.4413 69.5719 40.4413C69.4973 40.4413 69.4228 40.4786 69.4228 40.5905L67.5772 52.1877H63.9979V52.2064ZM88.2139 52.2064V37.4394H94.5149C98.5789 37.4394 101.04 38.9683 101.04 41.5041C101.04 43.2008 100.052 44.3381 98.5043 44.8602C100.126 45.2704 101.226 46.2213 101.226 48.0858C101.226 50.9758 98.3925 52.2064 94.4963 52.2064H88.2512H88.2139ZM91.7559 43.5923H94.6827C96.6215 43.5923 97.4977 42.977 97.4977 41.7651C97.4977 40.665 96.5283 40.0684 94.7014 40.0684H91.7373V43.5737L91.7559 43.5923ZM91.7559 49.5774H94.6641C96.3791 49.5774 97.6654 49.2232 97.6654 47.8621C97.6654 46.6128 96.6774 46.2213 94.6827 46.2213H91.7559V49.5774ZM103.053 45.6433V37.4394H106.595V45.5687C106.595 48.1417 107.751 49.391 110.156 49.391C112.56 49.391 113.716 48.1417 113.716 45.5687V37.4394H117.258V45.6433C117.258 49.8944 115.003 52.4488 110.156 52.4488C105.309 52.4488 103.053 49.913 103.053 45.6433ZM118.899 49.2604L121.863 47.918C122.403 48.9994 123.541 49.5401 125.237 49.5401C126.766 49.5401 127.921 48.9621 127.921 47.918C127.921 46.6874 126.635 46.501 124.939 46.2213C122.497 45.8484 119.178 45.0653 119.178 41.7278C119.178 39.1361 121.751 37.1598 125.125 37.1598C127.81 37.1598 130.14 38.2785 131.184 40.3854L128.22 41.7278C127.679 40.7769 126.617 40.1243 124.976 40.1243C123.634 40.1243 122.72 40.7023 122.72 41.5973C122.72 42.7906 124.081 43.0889 125.852 43.3686C128.276 43.7415 131.482 44.5246 131.482 47.8807C131.482 50.5283 128.723 52.4674 125.256 52.4674C122.329 52.4674 119.98 51.3487 118.936 49.2418L118.899 49.2604ZM144.811 40.404H140.02V52.2064H136.478V40.404H131.687V37.4394H144.83V40.404H144.811ZM149.695 37.4394V52.2064H146.153V37.4394H149.695ZM151.485 44.8415C151.485 40.4972 155.139 37.1784 159.967 37.1784C164.795 37.1784 168.468 40.4972 168.468 44.8415C168.468 49.1859 164.777 52.5047 159.967 52.5047C155.157 52.5047 151.485 49.2231 151.485 44.8415ZM164.814 44.8415C164.814 42.2312 162.708 40.2176 159.967 40.2176C157.227 40.2176 155.12 42.2312 155.12 44.8415C155.12 47.4519 157.245 49.4655 159.967 49.4655C162.689 49.4655 164.814 47.4519 164.814 44.8415ZM170.108 52.2064V39.4718C170.108 37.9988 171.301 37.1411 172.625 37.1411C173.688 37.1411 174.545 37.4954 175.067 38.2971L181.517 48.2909V37.4394H184.854V50.1741C184.854 51.647 183.661 52.486 182.375 52.486C181.331 52.486 180.436 52.1504 179.895 51.3487L173.445 41.2803V52.2064H170.071H170.108Z" fill="#EBAA01"/>
</g>
<defs>
<clipPath id="clip0_351_7786">
<rect width="218" height="120" fill="white"/>
</clipPath>
</defs>
</svg>
