<svg width="218" height="120" viewBox="0 0 218 120" fill="none" xmlns="http://www.w3.org/2000/svg">
<g clip-path="url(#clip0_351_7702)">
<path d="M51.2434 116.241C49.7894 117.77 41.5502 112.568 38.9032 108.093C38.9032 108.093 37.4305 105.631 37.1136 102.163C37.0764 101.846 37.1136 101.511 37.1696 101.194C37.2068 100.988 37.3187 100.802 37.5051 100.317C37.8779 100.448 38.288 100.522 38.6608 100.634C38.6608 100.634 39.2014 100.821 39.7234 101.1C45.241 103.972 48.7269 109.789 48.7269 109.789C50.4046 112.586 52.0636 115.365 51.2434 116.241Z" fill="#EBAA01"/>
<path d="M27.5137 12.8851C27.9611 4.71801 38.1949 -1.8082 47.5526 0.448003C41.9417 6.564 36.6104 12.4749 27.5137 12.8851Z" fill="#EBAA01"/>
<path d="M15.7514 85.9973C9.89822 78.2031 10.3829 69.4953 16.7208 64.293C20.654 71.6396 17.4664 78.4642 15.7514 85.9973Z" fill="#EBAA01"/>
<path d="M10.1592 70.875C6.61747 61.8315 9.43224 53.422 16.8513 50.1589C18.6408 58.326 13.7569 64.125 10.1592 70.875Z" fill="#EBAA01"/>
<path d="M11.8557 38.4305C12.7318 29.5735 20.3559 22.9727 27.6259 24.5576C26.526 29.704 20.9152 34.6826 11.8557 38.4305Z" fill="#EBAA01"/>
<path d="M8.9476 54.5592C7.66138 45.1987 13.1977 36.8638 20.7286 36.752C20.0762 44.8631 14.1297 49.2263 8.9476 54.5592Z" fill="#EBAA01"/>
<path d="M38.1953 14.5817C33.4605 21.4249 26.0415 22.1707 19.0698 24.1659C20.3374 17.4532 31.0559 10.6287 38.1953 14.5817Z" fill="#EBAA01"/>
<path d="M20.4675 78.0911C25.9106 84.1325 24.8481 91.4791 25.0531 98.7512C17.4477 94.3693 15.3599 82.6221 20.4675 78.0911Z" fill="#EBAA01"/>
<path d="M22.8164 99.9259C15.2109 99.9632 7.77322 93.2505 6.0769 84.8037C14.3721 86.7243 18.79 93.0454 22.8164 99.9259Z" fill="#EBAA01"/>
<path d="M37.5615 109.472C28.8003 105.836 25.0162 98.6575 27.2345 90.0615C34.3367 94.6299 35.1941 102.032 37.5615 109.472Z" fill="#EBAA01"/>
<path d="M50.5727 117.808C45.0363 122.618 32.6402 118.814 28.6138 113.258C36.7785 110.61 43.6756 114.283 50.5727 117.808Z" fill="#EBAA01"/>
<path d="M5.72262 30.8975C10.1964 38.3746 8.817 45.8891 6.84107 53.4222C1.41659 49.2454 0.894646 39.6053 5.72262 30.8975Z" fill="#EBAA01"/>
<path d="M14.9871 15.3088C17.5036 23.5505 13.7009 30.3751 10.1405 37.0877C5.83446 32.0905 8.29505 20.6044 14.9871 15.3088Z" fill="#EBAA01"/>
<path d="M8.03427 70.3899C1.32357 66.7725 -1.84538 56.9646 1.09988 48.8721C7.60553 54.727 7.38184 62.7076 8.03427 70.3899Z" fill="#EBAA01"/>
<path d="M17.4661 22.4505C14.7818 16.1107 20.691 5.40773 28.4456 2.27515C26.8052 7.51476 27.0661 13.0154 22.3686 16.7633C20.5046 18.255 19.1997 20.418 17.4661 22.4691V22.4505Z" fill="#EBAA01"/>
<path d="M1.11844 67.1084C8.76119 71.1733 11.1099 78.5013 13.3095 85.792C6.76662 85.3259 0.57786 76.0027 1.11844 67.1084Z" fill="#EBAA01"/>
<path d="M35.6412 110.778C27.9985 112.736 19.871 108.54 14.9685 99.814C19.2745 101.026 23.3382 101.529 26.7122 103.301C29.993 105.035 32.5468 108.112 35.6598 110.778H35.6412Z" fill="#EBAA01"/>
<path d="M166.742 116.241C168.196 117.77 176.436 112.568 179.083 108.093C179.083 108.093 180.555 105.631 180.872 102.163C180.909 101.846 180.872 101.511 180.816 101.194C180.779 100.988 180.667 100.802 180.481 100.317C180.108 100.448 179.698 100.522 179.325 100.634C179.325 100.634 178.784 100.821 178.262 101.1C172.745 103.972 169.259 109.789 169.259 109.789C167.581 112.586 165.922 115.365 166.742 116.241Z" fill="#EBAA01"/>
<path d="M190.472 12.8851C190.025 4.71801 179.791 -1.8082 170.433 0.448003C176.044 6.564 181.375 12.4749 190.472 12.8851Z" fill="#EBAA01"/>
<path d="M202.235 85.9973C208.088 78.2031 207.603 69.4953 201.265 64.293C197.332 71.6396 200.52 78.4642 202.235 85.9973Z" fill="#EBAA01"/>
<path d="M207.826 70.8745C211.368 61.831 208.553 53.4216 201.134 50.1584C199.345 58.3255 204.229 64.1245 207.826 70.8745Z" fill="#EBAA01"/>
<path d="M206.13 38.4305C205.254 29.5735 197.63 22.9727 190.36 24.5576C191.46 29.704 197.071 34.6826 206.13 38.4305Z" fill="#EBAA01"/>
<path d="M209.039 54.5592C210.325 45.1987 204.788 36.8638 197.258 36.752C197.91 44.8631 203.856 49.2263 209.039 54.5592Z" fill="#EBAA01"/>
<path d="M179.791 14.5817C184.526 21.4249 191.945 22.1707 198.916 24.1659C197.649 17.4532 186.93 10.6287 179.791 14.5817Z" fill="#EBAA01"/>
<path d="M197.518 78.0906C192.075 84.132 193.138 91.4786 192.933 98.7507C200.538 94.3688 202.626 82.6216 197.518 78.0906Z" fill="#EBAA01"/>
<path d="M195.17 99.9259C202.775 99.9632 210.213 93.2505 211.909 84.8037C203.614 86.7243 199.196 93.0454 195.17 99.9259Z" fill="#EBAA01"/>
<path d="M180.425 109.472C189.186 105.836 192.97 98.6575 190.752 90.0615C183.65 94.6299 182.792 102.032 180.425 109.472Z" fill="#EBAA01"/>
<path d="M167.413 117.808C172.95 122.618 185.346 118.814 189.372 113.258C181.208 110.61 174.31 114.283 167.413 117.808Z" fill="#EBAA01"/>
<path d="M212.264 30.8975C207.79 38.3746 209.169 45.8891 211.145 53.4222C216.57 49.2454 217.092 39.6053 212.264 30.8975Z" fill="#EBAA01"/>
<path d="M202.999 15.3088C200.482 23.5505 204.285 30.3751 207.846 37.0877C212.152 32.0905 209.691 20.6044 202.999 15.3088Z" fill="#EBAA01"/>
<path d="M209.951 70.3899C216.662 66.7725 219.831 56.9646 216.886 48.8721C210.38 54.727 210.604 62.7076 209.951 70.3899Z" fill="#EBAA01"/>
<path d="M200.52 22.4505C203.204 16.1107 197.295 5.40773 189.54 2.27515C191.181 7.51476 190.92 13.0154 195.617 16.7633C197.481 18.255 198.786 20.418 200.52 22.4691V22.4505Z" fill="#EBAA01"/>
<path d="M216.867 67.1084C209.225 71.1733 206.876 78.5013 204.676 85.792C211.219 85.3259 217.408 76.0027 216.867 67.1084Z" fill="#EBAA01"/>
<path d="M182.363 110.778C190.006 112.736 198.134 108.54 203.036 99.814C198.73 101.026 194.666 101.529 191.292 103.301C188.012 105.035 185.458 108.112 182.345 110.778H182.363Z" fill="#EBAA01"/>
<path d="M25.2397 66.5863C25.2397 61.9061 29.2289 58.2141 34.5974 58.2141C37.7477 58.2141 40.8608 59.6872 42.147 62.3723L38.1765 64.3674C37.4309 63.1554 36.4429 62.3536 34.3924 62.3536C31.8945 62.3536 30.2355 64.1437 30.2355 66.6609C30.2355 69.1782 31.9132 70.9869 34.5974 70.9869C36.0141 70.9869 36.9089 70.875 37.6732 70.241V66.9406H42.3707V71.6954C41.0099 73.5974 38.1578 74.9585 34.5974 74.9585C29.2848 74.9585 25.2397 71.2666 25.2397 66.5863ZM44.2161 74.6043V58.5498H51.6538C55.8666 58.5498 59.0729 60.3398 59.0729 63.8826C59.0729 66.0083 57.7494 67.7424 55.6802 68.3391C56.575 68.8612 57.1529 69.7935 57.9358 71.2479L59.7439 74.6229H54.4686L52.8095 71.6022C52.213 70.5021 51.5233 70.1105 49.9389 70.1105H49.0441V74.6229H44.2161V74.6043ZM49.0814 62.596V66.1948H51.6538C53.0705 66.1948 54.0771 65.4862 54.0771 64.3301C54.0771 63.1181 53.0705 62.596 51.7097 62.596H49.0814ZM64.4601 61.1043C65.1125 59.1278 66.9579 58.1955 68.8034 58.1955C70.6488 58.1955 72.4756 59.1278 73.1467 61.1043L77.7137 74.6229H72.7366L71.9164 71.9192H65.6904L64.8515 74.6229H59.8744L64.4414 61.1043H64.4601ZM66.902 67.9662H70.7047L69.0271 62.3723C68.9711 62.2045 68.9152 62.1299 68.822 62.1299C68.7288 62.1299 68.6729 62.2045 68.617 62.3723L66.902 67.9662ZM78.7576 74.6043V60.8992C78.7576 59.1837 80.2302 58.1582 81.7774 58.1582C83.0077 58.1582 84.0889 58.5311 84.7226 59.4448L90.986 68.4137V58.5498H95.5902V72.2548C95.5902 73.9703 94.1176 74.9585 92.5704 74.9585C91.3588 74.9585 90.259 74.5856 89.6252 73.6719L83.3619 64.7031V74.6043H78.7576ZM105.358 74.6043H98.3491V58.5498H105.358C111.174 58.5498 115.033 61.7569 115.033 66.6423C115.033 71.5276 111.043 74.6043 105.358 74.6043ZM105.358 62.596H103.196V70.6885H105.358C108.191 70.6885 110.037 69.0663 110.037 66.6423C110.037 64.2183 108.191 62.596 105.358 62.596ZM122.918 74.6043V58.5498H129.722C134.978 58.5498 138.054 60.806 138.054 64.5352C138.054 68.2645 135.146 70.6699 129.983 70.6699H127.783V74.567H122.918V74.6043ZM127.783 62.596V66.6423H129.852C132.033 66.6423 133.058 65.8964 133.058 64.5539C133.058 63.2859 131.959 62.596 129.852 62.596H127.783ZM139.489 74.6043V58.5498H146.927C151.14 58.5498 154.346 60.3398 154.346 63.8826C154.346 66.0083 153.023 67.7424 150.954 68.3391C151.848 68.8612 152.426 69.7935 153.209 71.2479L155.017 74.6229H149.742L148.083 71.6022C147.486 70.5021 146.797 70.1105 145.212 70.1105H144.317V74.6229H139.489V74.6043ZM144.355 62.596V66.1948H146.927C148.344 66.1948 149.35 65.4862 149.35 64.3301C149.35 63.1181 148.344 62.596 146.983 62.596H144.355ZM161.728 58.5498V74.6043H156.863V58.5498H161.728ZM176.846 74.6043H167.563C164.785 74.6043 163.573 72.9634 163.573 71.2479C163.573 70.241 164.002 69.1968 164.804 68.4696L171.216 62.596H164.021V58.5498H173.08C175.764 58.5498 177.2 60.0974 177.2 61.8315C177.2 62.7825 176.752 63.8267 175.802 64.6844L169.408 70.558H176.827V74.6043H176.846ZM182.997 74.6043C179.996 74.6043 178.784 73.1685 178.784 70.9123V62.2231C178.784 59.9669 179.996 58.5311 182.997 58.5311H192.094V62.4469H183.65V64.5912H191.479V68.5069H183.65V70.6512H192.224V74.567H182.997V74.6043Z" fill="#EBAA01"/>
<path d="M51.1132 15.4952V31.6616H46.2107V15.4952H51.1132ZM53.8907 31.6803V17.882C53.8907 16.1479 55.382 15.1223 56.9292 15.1223C58.1781 15.1223 59.2593 15.5139 59.8931 16.4089L66.1937 25.4337V15.4952H70.8352V29.2935C70.8352 31.0276 69.344 32.0159 67.7968 32.0159C66.5851 32.0159 65.4667 31.6243 64.8329 30.7293L58.5323 21.7045V31.6616H53.8907V31.6803ZM86.885 19.5788H81.8333V31.6803H76.9308V19.5788H71.8791V15.5139H86.885V19.5788ZM92.0485 31.6803C89.0287 31.6803 87.817 30.2445 87.817 27.9696V19.2245C87.817 16.9497 89.0287 15.5139 92.0485 15.5139H101.22V19.4669H92.7196V21.6299H100.605V25.5829H92.7196V27.7459H101.35V31.6989H92.0485V31.6803ZM103.457 31.6803V15.5139H110.95C115.182 15.5139 118.425 17.3039 118.425 20.884C118.425 23.0097 117.102 24.7625 115.014 25.3591C115.909 25.8812 116.505 26.8136 117.288 28.2866L119.115 31.6803H113.784L112.106 28.6409C111.491 27.5408 110.801 27.1305 109.217 27.1305H108.322V31.6803H103.457ZM108.359 19.5788V23.1962H110.95C112.386 23.1962 113.392 22.469 113.392 21.3315C113.392 20.1009 112.386 19.5788 111.006 19.5788H108.359ZM120.811 31.6803V17.882C120.811 16.1479 122.303 15.1223 123.85 15.1223C125.099 15.1223 126.18 15.5139 126.814 16.4089L133.114 25.4337V15.4952H137.756V29.2935C137.756 31.0276 136.265 32.0159 134.717 32.0159C133.506 32.0159 132.387 31.6243 131.753 30.7293L125.453 21.7045V31.6616H120.811V31.6803ZM142.901 18.0684C143.572 16.0733 145.417 15.141 147.263 15.141C149.108 15.141 150.972 16.0733 151.625 18.0684L156.229 31.6803H151.215L150.394 28.9579H144.112L143.274 31.6803H138.259L142.863 18.0684H142.901ZM145.361 24.9862H149.201L147.505 19.355C147.449 19.1872 147.393 19.1126 147.3 19.1126C147.207 19.1126 147.132 19.1872 147.095 19.355L145.38 24.9862H145.361ZM162.324 27.5967H170.209V31.6616H161.653C158.634 31.6616 157.422 30.2258 157.422 27.951V15.4952H162.324V27.5967Z" fill="#EBAA01"/>
<path d="M49.0813 94.0151V81.4475H54.5058V93.9218C54.5058 97.8562 56.2953 99.7768 59.9675 99.7768C63.6398 99.7768 65.4293 97.8562 65.4293 93.9218V81.4475H70.8538V94.0151C70.8538 100.541 67.4052 104.438 59.9862 104.438C52.5671 104.438 49.1186 100.541 49.1186 94.0151H49.0813ZM75.0107 104.047V81.4288H84.6294C90.2775 81.4288 94.6209 83.8155 94.6209 88.6263C94.6209 91.7216 92.6076 94.1083 89.4201 94.8728C91.0232 95.6746 91.9366 97.2222 93.2414 99.5717L95.6461 104.047H89.7742L87.556 100.019C86.4003 97.9308 85.3377 96.8307 82.5043 96.8307H80.3979L80.3606 104.047H75.0107ZM80.4352 85.9785L80.3979 92.4674H84.6294C87.1832 92.4674 89.0472 91.2554 89.0472 89.1484C89.0472 87.0414 87.1459 85.9972 84.7039 85.9972H80.4352V85.9785ZM98.815 104.047V81.4288H108.471C114.716 81.4288 118.462 83.7782 118.462 87.638C118.462 90.2299 116.934 91.964 114.567 92.7844C117.046 93.4184 118.723 94.8728 118.723 97.7257C118.723 102.164 114.38 104.047 108.396 104.047H98.815ZM104.221 90.8452H108.713C111.677 90.8452 113.019 89.9129 113.019 88.0483C113.019 86.3701 111.528 85.4564 108.751 85.4564H104.221V90.8266V90.8452ZM104.221 100.019H108.676C111.304 100.019 113.28 99.4784 113.28 97.3901C113.28 95.4695 111.752 94.8728 108.713 94.8728H104.221V100.019ZM126.273 84.636C127.13 82.1747 129.349 80.9999 131.697 80.9999C134.046 80.9999 136.302 82.1747 137.159 84.636L143.758 104.065H138.222L136.768 99.4225L126.627 99.4598L125.173 104.065H119.637L126.236 84.636H126.273ZM128.063 95.0593H135.37L132.555 86.0904C132.406 85.6242 132.182 85.4191 131.735 85.4191C131.325 85.4191 131.064 85.6242 130.915 86.0904L128.063 95.0593ZM145.902 104.047V84.5241C145.902 82.2679 147.729 80.9626 149.76 80.9626C151.401 80.9626 152.687 81.5034 153.507 82.7527L163.387 98.08V81.4475H168.513V100.97C168.513 103.226 166.686 104.494 164.729 104.494C163.126 104.494 161.765 103.991 160.945 102.742L151.065 87.321V104.047H145.902Z" fill="#EBAA01"/>
<path d="M61.9808 113.091L62.5959 112.829C62.7824 113.202 63.1738 113.408 63.733 113.408C64.2923 113.408 64.7024 113.165 64.7024 112.755C64.7024 112.289 64.2177 112.196 63.6585 112.102C62.9501 111.972 62.074 111.767 62.074 110.853C62.074 110.144 62.7824 109.604 63.6771 109.604C64.4041 109.604 65.0379 109.902 65.3175 110.499L64.721 110.778C64.5346 110.424 64.1618 110.2 63.6398 110.2C63.1552 110.2 62.7637 110.461 62.7637 110.816C62.7637 111.282 63.267 111.375 63.8449 111.487C64.5532 111.617 65.4107 111.823 65.4107 112.736C65.4107 113.501 64.6651 114.023 63.7144 114.023C62.9128 114.023 62.2418 113.706 61.9622 113.109L61.9808 113.091ZM66.1004 113.93V109.361H66.7901V111.151C67.0511 110.89 67.4798 110.722 67.9459 110.722C68.9525 110.722 69.5303 111.338 69.5303 112.289V113.93H68.8406V112.363C68.8406 111.804 68.5051 111.319 67.8527 111.319C67.2375 111.319 66.8088 111.767 66.8088 112.382V113.93H66.1191H66.1004ZM69.9591 112.345C69.9591 111.45 70.6674 110.704 71.7113 110.704C72.7552 110.704 73.4076 111.394 73.4076 112.27V112.531H70.6488C70.7233 113.072 71.1707 113.445 71.8045 113.445C72.2333 113.445 72.6061 113.277 72.8111 112.941L73.3517 113.184C73.0534 113.725 72.4942 114.004 71.8045 114.004C70.7606 114.004 69.9777 113.314 69.9777 112.345H69.9591ZM72.6993 112.121C72.662 111.617 72.2705 111.282 71.6927 111.282C71.1148 111.282 70.7233 111.655 70.6488 112.121H72.6806H72.6993ZM74.7311 109.361V113.93H74.0414V109.361H74.7311ZM76.3529 109.361V113.93H75.6445V109.361H76.3529ZM79.5964 113.93C79.1117 113.93 78.9253 113.706 78.9253 113.333V110.219C78.9253 109.846 79.0931 109.622 79.5964 109.622H82.1875V110.219H79.6523V111.468H82.057V112.065H79.6523V113.314H82.2434V113.911H79.5964V113.93ZM82.5603 112.363C82.5603 111.468 83.3805 110.722 84.3684 110.722C85.0022 110.722 85.5801 110.983 85.9156 111.543L85.3378 111.841C85.1327 111.506 84.7972 111.319 84.3871 111.319C83.7719 111.319 83.2873 111.785 83.2873 112.363C83.2873 112.941 83.7906 113.408 84.3871 113.408C84.7972 113.408 85.1327 113.221 85.3378 112.885L85.9156 113.165C85.5987 113.743 85.0209 113.986 84.3684 113.986C83.3805 113.986 82.5603 113.258 82.5603 112.345V112.363ZM86.0461 112.363C86.0461 111.468 86.8663 110.722 87.8916 110.722C88.9168 110.722 89.7184 111.468 89.7184 112.363C89.7184 113.258 88.9168 114.023 87.8916 114.023C86.8663 114.023 86.0461 113.277 86.0461 112.363ZM89.0286 112.363C89.0286 111.785 88.5253 111.319 87.8916 111.319C87.2578 111.319 86.7358 111.785 86.7358 112.363C86.7358 112.941 87.2391 113.408 87.8916 113.408C88.544 113.408 89.0286 112.941 89.0286 112.363ZM92.8687 112.251H90.4267V111.673H92.8687V112.251ZM99.6912 112.289V113.948H99.0015V112.401C99.0015 111.823 98.6846 111.338 98.0508 111.338C97.417 111.338 97.1001 111.823 97.1001 112.401V113.967H96.3918V112.401C96.3918 111.823 96.0749 111.338 95.4411 111.338C94.8073 111.338 94.509 111.841 94.509 112.401V113.948H93.8007V112.307C93.8007 111.431 94.3599 110.722 95.3852 110.722C96.0749 110.722 96.5782 111.039 96.7459 111.524C96.9324 111.039 97.417 110.722 98.0694 110.722C99.1133 110.722 99.6726 111.431 99.6726 112.289H99.6912ZM100.12 112.363C100.12 111.468 100.903 110.722 101.965 110.722C103.028 110.722 103.811 111.431 103.811 112.363V113.93H103.14V113.37C102.879 113.762 102.413 114.004 101.854 114.004C100.847 114.004 100.12 113.258 100.12 112.345V112.363ZM103.102 112.363C103.102 111.785 102.599 111.319 101.965 111.319C101.332 111.319 100.828 111.785 100.828 112.363C100.828 112.941 101.332 113.408 101.965 113.408C102.599 113.408 103.102 112.941 103.102 112.363ZM104.463 113.93V112.065C104.463 111.3 104.948 110.741 105.843 110.741C106.066 110.741 106.29 110.778 106.458 110.853V111.487C106.29 111.394 106.085 111.356 105.899 111.356C105.433 111.356 105.153 111.636 105.153 112.102V113.948H104.463V113.93ZM106.402 112.363C106.402 111.468 107.185 110.722 108.247 110.722C109.31 110.722 110.093 111.431 110.093 112.363V113.93H109.422V113.37C109.161 113.762 108.695 114.004 108.135 114.004C107.129 114.004 106.402 113.258 106.402 112.345V112.363ZM109.384 112.363C109.384 111.785 108.9 111.319 108.247 111.319C107.595 111.319 107.11 111.785 107.11 112.363C107.11 112.941 107.614 113.408 108.247 113.408C108.881 113.408 109.384 112.941 109.384 112.363ZM110.988 112.811V111.356H110.298V110.816H110.988V109.995H111.677V110.816H113.001V111.356H111.677V112.792C111.677 113.202 111.938 113.445 112.367 113.445C112.591 113.445 112.833 113.37 113.001 113.258V113.836C112.833 113.948 112.553 114.023 112.292 114.023C111.435 114.023 110.969 113.538 110.969 112.811H110.988ZM113.69 113.93V109.361H114.399V111.151C114.66 110.89 115.089 110.722 115.555 110.722C116.561 110.722 117.139 111.338 117.139 112.289V113.93H116.431V112.363C116.431 111.804 116.095 111.319 115.443 111.319C114.828 111.319 114.399 111.767 114.399 112.382V113.93H113.69ZM117.549 112.363C117.549 111.468 118.369 110.722 119.395 110.722C120.42 110.722 121.221 111.468 121.221 112.363C121.221 113.258 120.42 114.023 119.395 114.023C118.369 114.023 117.549 113.277 117.549 112.363ZM120.55 112.363C120.55 111.785 120.047 111.319 119.413 111.319C118.779 111.319 118.257 111.785 118.257 112.363C118.257 112.941 118.761 113.408 119.413 113.408C120.066 113.408 120.55 112.941 120.55 112.363ZM122.377 112.419V113.93H121.669V112.345C121.669 111.431 122.265 110.704 123.384 110.704C124.502 110.704 125.117 111.412 125.117 112.326V113.911H124.428V112.401C124.428 111.804 124.073 111.3 123.384 111.3C122.694 111.3 122.377 111.804 122.377 112.382V112.419ZM128.473 110.163C128.622 109.753 128.957 109.566 129.349 109.566C129.74 109.566 130.094 109.753 130.244 110.163L131.53 113.93H130.803L130.449 112.885H128.249L127.895 113.93H127.168L128.454 110.163H128.473ZM128.454 112.289H130.262L129.628 110.35C129.572 110.219 129.498 110.144 129.367 110.144C129.218 110.144 129.144 110.2 129.106 110.35L128.473 112.289H128.454ZM131.772 113.314L132.313 113.053C132.48 113.37 132.779 113.482 133.151 113.482C133.524 113.482 133.86 113.333 133.86 113.053C133.86 112.401 131.884 112.885 131.884 111.692C131.884 111.133 132.425 110.741 133.17 110.741C133.804 110.741 134.251 111.002 134.475 111.375L133.934 111.655C133.785 111.375 133.506 111.282 133.189 111.282C132.872 111.282 132.574 111.431 132.574 111.692C132.574 112.326 134.55 111.86 134.55 113.053C134.55 113.65 133.916 114.023 133.189 114.023C132.555 114.023 132.052 113.799 131.791 113.333L131.772 113.314ZM135.071 109.753C135.071 109.529 135.277 109.324 135.538 109.324C135.798 109.324 135.985 109.51 135.985 109.753C135.985 109.995 135.78 110.163 135.538 110.163C135.295 110.163 135.071 109.977 135.071 109.753ZM135.873 110.797V113.93H135.165V110.797H135.873ZM136.451 112.363C136.451 111.468 137.234 110.722 138.296 110.722C139.359 110.722 140.142 111.431 140.142 112.363V113.93H139.471V113.37C139.21 113.762 138.744 114.004 138.185 114.004C137.178 114.004 136.451 113.258 136.451 112.345V112.363ZM139.433 112.363C139.433 111.785 138.949 111.319 138.296 111.319C137.644 111.319 137.159 111.785 137.159 112.363C137.159 112.941 137.663 113.408 138.296 113.408C138.93 113.408 139.433 112.941 139.433 112.363ZM143.012 113.93C142.584 113.93 142.36 113.706 142.36 113.426C142.36 113.221 142.453 113.053 142.658 112.885L144.056 111.748C144.448 111.431 144.653 111.189 144.653 110.834C144.653 110.443 144.299 110.182 143.833 110.182C143.367 110.182 142.994 110.443 142.77 110.834L142.211 110.555C142.528 109.977 143.106 109.566 143.87 109.566C144.746 109.566 145.361 110.107 145.361 110.797C145.361 111.319 145.1 111.711 144.672 112.065L143.273 113.184C143.273 113.184 143.18 113.258 143.18 113.296C143.18 113.314 143.18 113.333 143.218 113.333H145.492V113.93H142.994H143.012ZM145.883 111.785C145.883 110.536 146.647 109.566 147.785 109.566C148.922 109.566 149.686 110.517 149.686 111.785C149.686 113.053 148.922 114.023 147.785 114.023C146.647 114.023 145.883 113.035 145.883 111.785ZM148.94 111.785C148.94 110.909 148.456 110.238 147.785 110.238C147.113 110.238 146.629 110.909 146.629 111.785C146.629 112.662 147.132 113.352 147.785 113.352C148.437 113.352 148.94 112.662 148.94 111.785ZM151.326 113.93V110.387C151.326 110.387 151.326 110.35 151.289 110.35C151.252 110.35 151.233 110.368 151.196 110.387L150.115 110.946L149.798 110.331L151.009 109.716C151.196 109.622 151.382 109.548 151.569 109.548C151.867 109.548 152.053 109.734 152.053 110.051V113.911H151.326V113.93ZM153.545 113.93C153.116 113.93 152.892 113.706 152.892 113.426C152.892 113.221 152.985 113.053 153.19 112.885L154.588 111.748C154.98 111.431 155.185 111.189 155.185 110.834C155.185 110.443 154.831 110.182 154.365 110.182C153.899 110.182 153.526 110.443 153.302 110.834L152.743 110.555C153.06 109.977 153.638 109.566 154.402 109.566C155.278 109.566 155.893 110.107 155.893 110.797C155.893 111.319 155.632 111.711 155.204 112.065L153.806 113.184C153.806 113.184 153.712 113.258 153.712 113.296C153.712 113.314 153.712 113.333 153.75 113.333H156.024V113.93H153.526H153.545Z" fill="#EBAA01"/>
<path d="M31.093 44.8447C31.093 40.5747 34.8025 37.1624 39.556 37.1624C42.3894 37.1624 45.1109 38.5236 46.3226 40.8171L43.4332 42.2902C42.6317 41.0222 41.3828 40.2018 39.4068 40.2018C36.6853 40.2018 34.728 42.1597 34.728 44.8261C34.728 47.4925 36.6666 49.4504 39.4068 49.4504C41.3641 49.4504 42.669 48.6299 43.4332 47.362L46.3226 48.835C45.1109 51.1472 42.3894 52.4897 39.556 52.4897C34.8025 52.4897 31.093 49.0961 31.093 44.8074V44.8447ZM46.248 44.8447C46.248 40.5001 49.9016 37.1811 54.7296 37.1811C59.5576 37.1811 63.2298 40.5001 63.2298 44.8447C63.2298 49.1893 59.5389 52.5084 54.7296 52.5084C49.9203 52.5084 46.248 49.2266 46.248 44.8447ZM59.5762 44.8447C59.5762 42.2342 57.4698 40.2204 54.7296 40.2204C51.9894 40.2204 49.883 42.2342 49.883 44.8447C49.883 47.4552 52.008 49.469 54.7296 49.469C57.4512 49.469 59.5762 47.4552 59.5762 44.8447ZM63.9941 52.21L66.1937 39.5119C66.492 37.9829 67.6663 37.1624 69.3254 37.1624C70.7794 37.1624 72.0096 37.7405 72.4011 39.1576L75.1413 48.3689L75.1599 48.4435C75.1786 48.4435 75.2159 48.4435 75.2159 48.3689L77.9002 39.2135C78.3103 37.7964 79.5778 37.1438 81.0505 37.1438C82.6722 37.1438 83.8466 37.9829 84.0703 39.5492L86.0835 52.1914H82.5044L80.9386 40.612C80.9386 40.5001 80.92 40.4442 80.8081 40.4442C80.7336 40.4442 80.6963 40.4815 80.659 40.5747L77.6392 50.364C77.3036 51.4828 76.3343 52.0236 75.1599 52.0236C73.9856 52.0236 72.9976 51.5015 72.718 50.42L69.6982 40.5747C69.6795 40.4628 69.6236 40.4442 69.5677 40.4442C69.4931 40.4442 69.4186 40.4815 69.4186 40.5934L67.5731 52.1914H63.9941V52.21ZM88.2085 52.21V37.4421H94.5091C98.5728 37.4421 101.033 38.9711 101.033 41.507C101.033 43.2039 100.045 44.3413 98.4983 44.8634C100.12 45.2736 101.22 46.2246 101.22 48.0892C101.22 50.9794 98.3864 52.21 94.4905 52.21H88.2458H88.2085ZM91.7503 43.5954H94.6769C96.6156 43.5954 97.4917 42.9801 97.4917 41.7681C97.4917 40.668 96.5223 40.0713 94.6955 40.0713H91.7316V43.5768L91.7503 43.5954ZM91.7503 49.5809H94.6583C96.3732 49.5809 97.6594 49.2266 97.6594 47.8654C97.6594 46.6161 96.6715 46.2246 94.6769 46.2246H91.7503V49.5809ZM103.047 45.6465V37.4421H106.588V45.5719C106.588 48.1451 107.744 49.3944 110.149 49.3944C112.553 49.3944 113.709 48.1451 113.709 45.5719V37.4421H117.251V45.6465C117.251 49.8979 114.995 52.4524 110.149 52.4524C105.302 52.4524 103.047 49.9165 103.047 45.6465ZM118.891 49.2639L121.855 47.9214C122.396 49.0029 123.533 49.5436 125.229 49.5436C126.758 49.5436 127.914 48.9656 127.914 47.9214C127.914 46.6907 126.627 46.5043 124.931 46.2246C122.489 45.8516 119.171 45.0685 119.171 41.7308C119.171 39.139 121.743 37.1624 125.117 37.1624C127.802 37.1624 130.132 38.2812 131.176 40.3883L128.212 41.7308C127.671 40.7798 126.609 40.1272 124.968 40.1272C123.626 40.1272 122.713 40.7052 122.713 41.6003C122.713 42.7936 124.074 43.092 125.844 43.3717C128.268 43.7446 131.474 44.5277 131.474 47.8841C131.474 50.5319 128.715 52.4711 125.248 52.4711C122.321 52.4711 119.973 51.3523 118.929 49.2453L118.891 49.2639ZM144.802 40.4069H140.011V52.21H136.47V40.4069H131.679V37.4421H144.821V40.4069H144.802ZM149.686 37.4421V52.21H146.144V37.4421H149.686ZM151.476 44.8447C151.476 40.5001 155.129 37.1811 159.957 37.1811C164.785 37.1811 168.457 40.5001 168.457 44.8447C168.457 49.1893 164.766 52.5084 159.957 52.5084C155.148 52.5084 151.476 49.2266 151.476 44.8447ZM164.804 44.8447C164.804 42.2342 162.697 40.2204 159.957 40.2204C157.217 40.2204 155.11 42.2342 155.11 44.8447C155.11 47.4552 157.236 49.469 159.957 49.469C162.679 49.469 164.804 47.4552 164.804 44.8447ZM170.098 52.21V39.4746C170.098 38.0015 171.291 37.1438 172.614 37.1438C173.677 37.1438 174.534 37.4981 175.056 38.2999L181.506 48.2943V37.4421H184.843V50.1776C184.843 51.6506 183.65 52.4897 182.363 52.4897C181.32 52.4897 180.425 52.1541 179.884 51.3523L173.434 41.2833V52.21H170.06H170.098Z" fill="#EBAA01"/>
</g>
<defs>
<clipPath id="clip0_351_7702">
<rect width="218" height="120" fill="white"/>
</clipPath>
</defs>
</svg>
