<svg width="218" height="120" viewBox="0 0 218 120" fill="none" xmlns="http://www.w3.org/2000/svg">
<g clip-path="url(#clip0_351_7618)">
<path d="M51.2467 116.234C49.7927 117.763 41.5529 112.561 38.9057 108.086C38.9057 108.086 37.433 105.625 37.1161 102.157C37.0788 101.84 37.1161 101.504 37.172 101.187C37.2093 100.982 37.3211 100.796 37.5076 100.311C37.8804 100.442 38.2905 100.516 38.6634 100.628C38.6634 100.628 39.204 100.814 39.726 101.094C45.244 103.965 48.7301 109.783 48.7301 109.783C50.4079 112.58 52.067 115.358 51.2467 116.234Z" fill="#EBAA01"/>
<path d="M27.5151 12.884C27.9625 4.71746 38.197 -1.80833 47.5553 0.44773C41.9441 6.56333 36.6125 12.4738 27.5151 12.884Z" fill="#EBAA01"/>
<path d="M15.7522 85.9912C9.89859 78.1976 10.3833 69.4903 16.7216 64.2883C20.6551 71.6345 17.4673 78.4586 15.7522 85.9912Z" fill="#EBAA01"/>
<path d="M10.1596 70.87C6.61759 61.8271 9.43253 53.4182 16.8521 50.1553C18.6417 58.3218 13.7575 64.1205 10.1596 70.87Z" fill="#EBAA01"/>
<path d="M11.856 38.4276C12.7321 29.5712 20.3567 22.9708 27.6271 24.5557C26.5272 29.7017 20.916 34.68 11.856 38.4276Z" fill="#EBAA01"/>
<path d="M8.94761 54.5556C7.66131 45.1958 13.198 36.8614 20.7294 36.7495C20.0769 44.8601 14.1301 49.2231 8.94761 54.5556Z" fill="#EBAA01"/>
<path d="M38.197 14.5806C33.462 21.4234 26.0424 22.1692 19.0703 24.1642C20.338 17.452 31.0571 10.6279 38.197 14.5806Z" fill="#EBAA01"/>
<path d="M20.4687 78.0859C25.9121 84.127 24.8495 91.4731 25.0546 98.7447C17.4486 94.3631 15.3607 82.6167 20.4687 78.0859Z" fill="#EBAA01"/>
<path d="M22.8174 99.919C15.2115 99.9563 7.77333 93.2441 6.0769 84.7979C14.3726 86.7183 18.7908 93.039 22.8174 99.919Z" fill="#EBAA01"/>
<path d="M37.5632 109.465C28.8015 105.83 25.0171 98.6513 27.2355 90.0559C34.3381 94.624 35.1957 102.026 37.5632 109.465Z" fill="#EBAA01"/>
<path d="M50.5756 117.8C45.0389 122.61 32.6419 118.807 28.6152 113.25C36.7804 110.603 43.678 114.276 50.5756 117.8Z" fill="#EBAA01"/>
<path d="M5.72284 30.8953C10.1969 38.372 8.81741 45.8859 6.84136 53.4186C1.41652 49.2421 0.894548 39.6025 5.72284 30.8953Z" fill="#EBAA01"/>
<path d="M14.9878 15.3081C17.5045 23.5492 13.7015 30.3734 10.1409 37.0856C5.83456 32.0887 8.29531 20.6033 14.9878 15.3081Z" fill="#EBAA01"/>
<path d="M8.0343 70.3854C1.32316 66.7682 -1.84598 56.9609 1.09946 48.8689C7.60553 54.7235 7.38183 62.7036 8.0343 70.3854Z" fill="#EBAA01"/>
<path d="M17.4666 22.4484C14.7822 16.1091 20.6917 5.40679 28.4468 2.27441C26.8063 7.51369 27.0673 13.014 22.3695 16.7617C20.5053 18.2533 19.2003 20.4161 17.4666 22.4671V22.4484Z" fill="#EBAA01"/>
<path d="M1.11796 67.1038C8.76119 71.1684 11.1101 78.4959 13.3099 85.7862C6.7665 85.32 0.577339 75.9975 1.11796 67.1038Z" fill="#EBAA01"/>
<path d="M35.6433 110.771C28 112.728 19.8721 108.533 14.9692 99.8074C19.2755 101.019 23.3395 101.523 26.7137 103.294C29.9947 105.028 32.5487 108.104 35.6619 110.771H35.6433Z" fill="#EBAA01"/>
<path d="M166.753 116.234C168.207 117.763 176.447 112.561 179.094 108.086C179.094 108.086 180.566 105.625 180.883 102.157C180.921 101.84 180.883 101.504 180.827 101.187C180.79 100.982 180.678 100.796 180.492 100.311C180.119 100.442 179.709 100.516 179.336 100.628C179.336 100.628 178.795 100.814 178.273 101.094C172.755 103.965 169.269 109.783 169.269 109.783C167.592 112.58 165.932 115.358 166.753 116.234Z" fill="#EBAA01"/>
<path d="M190.484 12.884C190.037 4.71746 179.802 -1.80833 170.444 0.44773C176.055 6.56333 181.387 12.4738 190.484 12.884Z" fill="#EBAA01"/>
<path d="M202.247 85.9912C208.101 78.1976 207.616 69.4903 201.278 64.2883C197.344 71.6345 200.532 78.4586 202.247 85.9912Z" fill="#EBAA01"/>
<path d="M207.84 70.87C211.382 61.8271 208.567 53.4182 201.147 50.1553C199.358 58.3218 204.242 64.1205 207.84 70.87Z" fill="#EBAA01"/>
<path d="M206.143 38.4276C205.267 29.5712 197.643 22.9708 190.372 24.5557C191.472 29.7017 197.083 34.68 206.143 38.4276Z" fill="#EBAA01"/>
<path d="M209.052 54.5556C210.338 45.1958 204.801 36.8614 197.27 36.7495C197.922 44.8601 203.869 49.2231 209.052 54.5556Z" fill="#EBAA01"/>
<path d="M179.802 14.5806C184.537 21.4234 191.957 22.1692 198.929 24.1642C197.661 17.452 186.942 10.6279 179.802 14.5806Z" fill="#EBAA01"/>
<path d="M197.531 78.0859C192.087 84.127 193.15 91.4731 192.945 98.7447C200.551 94.3631 202.639 82.6167 197.531 78.0859Z" fill="#EBAA01"/>
<path d="M195.182 99.919C202.788 99.9563 210.226 93.2441 211.922 84.7979C203.626 86.7183 199.208 93.039 195.182 99.919Z" fill="#EBAA01"/>
<path d="M180.436 109.465C189.198 105.83 192.982 98.6513 190.763 90.0559C183.661 94.624 182.803 102.026 180.436 109.465Z" fill="#EBAA01"/>
<path d="M167.424 117.8C172.961 122.61 185.358 118.807 189.385 113.25C181.219 110.603 174.322 114.276 167.424 117.8Z" fill="#EBAA01"/>
<path d="M212.277 30.8953C207.803 38.372 209.182 45.8859 211.158 53.4186C216.583 49.2421 217.105 39.6025 212.277 30.8953Z" fill="#EBAA01"/>
<path d="M203.012 15.3081C200.495 23.5492 204.298 30.3734 207.859 37.0856C212.165 32.0887 209.704 20.6033 203.012 15.3081Z" fill="#EBAA01"/>
<path d="M209.965 70.3854C216.676 66.7682 219.846 56.9609 216.9 48.8689C210.394 54.7235 210.618 62.7036 209.965 70.3854Z" fill="#EBAA01"/>
<path d="M200.532 22.4484C203.216 16.1091 197.307 5.40679 189.552 2.27441C191.192 7.51369 190.931 13.014 195.629 16.7617C197.493 18.2533 198.798 20.4161 200.532 22.4671V22.4484Z" fill="#EBAA01"/>
<path d="M216.881 67.1038C209.238 71.1684 206.889 78.4959 204.689 85.7862C211.233 85.32 217.422 75.9975 216.881 67.1038Z" fill="#EBAA01"/>
<path d="M182.375 110.771C190.018 112.728 198.146 108.533 203.049 99.8074C198.742 101.019 194.678 101.523 191.304 103.294C188.023 105.028 185.469 108.104 182.356 110.771H182.375Z" fill="#EBAA01"/>
<path d="M27.2361 52.1879C27.2361 46.7622 31.9339 42.4738 38.0858 42.4738C41.7396 42.4738 45.3375 44.2451 46.8289 47.3029L42.2243 49.6149C41.3667 48.2352 40.2109 47.3029 37.8434 47.3029C34.9539 47.3029 33.0338 49.2793 33.0338 52.1879C33.0338 55.0966 34.898 57.0729 37.8434 57.0729C40.2109 57.0729 41.46 56.1407 42.2243 54.7609L46.8289 57.0729C45.3375 60.1307 41.7396 61.902 38.0858 61.902C31.9339 61.902 27.2361 57.6323 27.2361 52.2066V52.1879ZM47.8915 61.4918V42.884H53.5214V49.8946H61.5934V42.884H67.2233V61.4918H61.5934V54.5745H53.5214V61.4918H47.8915ZM73.3006 45.8299C74.0649 43.5366 76.1901 42.4738 78.3339 42.4738C80.4777 42.4738 82.6029 43.5552 83.3673 45.8299L88.6616 61.4918H82.9012L81.9505 58.3408H74.736L73.7666 61.4918H68.0062L73.3006 45.8299ZM76.1341 53.7914H80.5523L78.5949 47.3215C78.539 47.1351 78.4644 47.0419 78.3525 47.0419C78.2407 47.0419 78.1661 47.1164 78.1102 47.3215L76.1341 53.7914ZM88.8107 61.4918L91.5138 45.8672C91.9053 43.6671 93.6204 42.4738 96.0811 42.4738C98.2063 42.4738 100.015 43.2942 100.593 45.3638L103.389 55.2271L106.166 45.4384C106.744 43.3688 108.609 42.4552 110.79 42.4552C113.195 42.4552 114.835 43.6671 115.208 45.9232L117.65 61.4732H111.946L110.305 48.347L107.043 59.1053C106.521 60.7647 105.085 61.5664 103.389 61.5664C101.692 61.5664 100.182 60.802 99.735 59.2171L96.5099 48.3284L94.5338 61.4732H88.8107V61.4918ZM119.794 61.4918V42.884H127.679C133.775 42.884 137.336 45.513 137.336 49.8386C137.336 54.1643 133.962 56.9424 127.978 56.9424H125.424V61.4545H119.794V61.4918ZM125.424 47.5639V52.2439H127.829C130.364 52.2439 131.538 51.3862 131.538 49.82C131.538 48.3657 130.252 47.5639 127.829 47.5639H125.424ZM144.644 42.884V61.4918H139.014V42.884H144.644ZM146.471 52.1879C146.471 46.6503 151.094 42.4738 157.32 42.4738C163.547 42.4738 168.17 46.6317 168.17 52.1879C168.17 57.7442 163.547 61.8834 157.32 61.8834C151.094 61.8834 146.471 57.7255 146.471 52.1879ZM162.372 52.1879C162.372 49.4284 160.172 47.3029 157.32 47.3029C154.468 47.3029 152.268 49.4284 152.268 52.1879C152.268 54.9474 154.468 57.0729 157.32 57.0729C160.172 57.0729 162.372 54.9474 162.372 52.1879ZM169.848 61.4918V45.6062C169.848 43.6298 171.563 42.4365 173.352 42.4365C174.788 42.4365 176.037 42.884 176.764 43.9281L184.016 54.3135V42.8654H189.347V58.751C189.347 60.7274 187.632 61.902 185.843 61.902C184.444 61.902 183.158 61.4545 182.431 60.4104L175.179 50.0251V61.4918H169.848Z" fill="#EBAA01"/>
<path d="M68.0804 105.96V110.062H67.3906V105.96H68.0804ZM69.5717 108.607V110.062H68.9006V108.551C68.9006 107.675 69.4785 106.985 70.5411 106.985C71.6037 106.985 72.2003 107.675 72.2003 108.533V110.043H71.5292V108.607C71.5292 108.048 71.1936 107.563 70.5225 107.563C69.8514 107.563 69.5531 108.048 69.5531 108.607H69.5717ZM72.629 108.57C72.629 107.656 73.3561 106.985 74.3627 106.985C74.8102 106.985 75.2203 107.172 75.4813 107.433V105.68H76.1524V108.551C76.1524 109.446 75.3881 110.118 74.4 110.118C73.412 110.118 72.6477 109.409 72.6477 108.551L72.629 108.57ZM75.4813 108.57C75.4813 108.029 75.0152 107.563 74.3814 107.563C73.7476 107.563 73.2815 108.011 73.2815 108.57C73.2815 109.129 73.7662 109.577 74.3814 109.577C74.9966 109.577 75.4813 109.129 75.4813 108.57ZM76.5625 108.551C76.5625 107.694 77.3455 106.985 78.3335 106.985C79.3215 106.985 80.0858 107.694 80.0858 108.551C80.0858 109.409 79.3215 110.136 78.3335 110.136C77.3455 110.136 76.5625 109.428 76.5625 108.551ZM79.4147 108.57C79.4147 108.011 78.9487 107.563 78.3335 107.563C77.7183 107.563 77.2336 108.011 77.2336 108.57C77.2336 109.129 77.7183 109.558 78.3335 109.558C78.9487 109.558 79.4147 109.111 79.4147 108.57ZM81.1671 108.607V110.062H80.496V108.551C80.496 107.675 81.0739 106.985 82.1365 106.985C83.1991 106.985 83.7956 107.675 83.7956 108.533V110.043H83.1245V108.607C83.1245 108.048 82.7889 107.563 82.1178 107.563C81.4467 107.563 81.1484 108.048 81.1484 108.607H81.1671ZM84.2057 108.551C84.2057 107.694 84.8955 106.985 85.8835 106.985C86.8716 106.985 87.5054 107.638 87.5054 108.477V108.719H84.8582C84.9328 109.241 85.3615 109.595 85.9581 109.595C86.3682 109.595 86.7224 109.446 86.9275 109.111L87.4308 109.353C87.1325 109.875 86.6106 110.136 85.9581 110.136C84.9514 110.136 84.2057 109.484 84.2057 108.551ZM86.8343 108.328C86.8156 107.843 86.4241 107.526 85.8835 107.526C85.3429 107.526 84.9514 107.88 84.8955 108.328H86.8529H86.8343ZM87.8037 109.465L88.307 109.204C88.4748 109.502 88.7358 109.614 89.1086 109.614C89.4814 109.614 89.7797 109.465 89.7797 109.204C89.7797 108.57 87.8782 109.055 87.8782 107.899C87.8782 107.377 88.3816 106.985 89.1086 106.985C89.7238 106.985 90.1339 107.246 90.3576 107.6L89.8543 107.862C89.7051 107.6 89.4442 107.507 89.1459 107.507C88.8476 107.507 88.568 107.656 88.568 107.899C88.568 108.514 90.4695 108.067 90.4695 109.204C90.4695 109.782 89.8543 110.136 89.1645 110.136C88.5493 110.136 88.0833 109.912 87.8223 109.465H87.8037ZM90.9542 106.072C90.9542 105.848 91.1406 105.661 91.3829 105.661C91.6253 105.661 91.8117 105.848 91.8117 106.072C91.8117 106.295 91.6253 106.463 91.3829 106.463C91.1406 106.463 90.9542 106.277 90.9542 106.072ZM91.7371 107.06V110.062H91.066V107.06H91.7371ZM92.2777 108.551C92.2777 107.694 93.0421 106.985 94.0301 106.985C95.0181 106.985 95.7824 107.656 95.7824 108.551V110.062H95.1486V109.54C94.9063 109.912 94.4589 110.136 93.9182 110.136C92.9675 110.136 92.2591 109.428 92.2591 108.551H92.2777ZM95.13 108.57C95.13 108.011 94.6639 107.563 94.0301 107.563C93.3963 107.563 92.9302 108.011 92.9302 108.57C92.9302 109.129 93.4149 109.558 94.0301 109.558C94.6453 109.558 95.13 109.111 95.13 108.57ZM98.7652 110.062C98.2991 110.062 98.1313 109.838 98.1313 109.502V106.538C98.1313 106.183 98.2991 105.978 98.7652 105.978H101.245V106.538H98.8211V107.731H101.114V108.309H98.8211V109.502H101.3V110.08H98.7652V110.062ZM102.475 108.607V110.062H101.804V108.551C101.804 107.675 102.382 106.985 103.444 106.985C104.507 106.985 105.103 107.675 105.103 108.533V110.043H104.432V108.607C104.432 108.048 104.097 107.563 103.426 107.563C102.755 107.563 102.456 108.048 102.456 108.607H102.475ZM105.532 108.551C105.532 107.694 106.222 106.985 107.21 106.985C108.198 106.985 108.832 107.638 108.832 108.477V108.719H106.185C106.259 109.241 106.688 109.595 107.285 109.595C107.695 109.595 108.049 109.446 108.254 109.111L108.757 109.353C108.459 109.875 107.937 110.136 107.285 110.136C106.278 110.136 105.532 109.484 105.532 108.551ZM108.161 108.328C108.142 107.843 107.751 107.526 107.21 107.526C106.669 107.526 106.278 107.88 106.222 108.328H108.179H108.161ZM109.279 110.062V108.272C109.279 107.545 109.745 107.004 110.603 107.004C110.808 107.004 111.032 107.041 111.199 107.116V107.712C111.032 107.619 110.845 107.582 110.659 107.582C110.211 107.582 109.95 107.862 109.95 108.29V110.062H109.279ZM111.237 110.696L111.796 110.416C111.982 110.733 112.355 110.957 112.84 110.957C113.53 110.957 114.014 110.509 114.014 109.801V109.558C113.791 109.875 113.399 110.099 112.84 110.099C111.908 110.099 111.162 109.428 111.162 108.551C111.162 107.675 111.908 106.985 112.914 106.985C113.921 106.985 114.667 107.656 114.667 108.551V109.782C114.667 110.826 113.903 111.497 112.84 111.497C112.132 111.497 111.535 111.218 111.237 110.677V110.696ZM113.996 108.551C113.996 107.992 113.511 107.563 112.896 107.563C112.281 107.563 111.796 107.992 111.796 108.551C111.796 109.111 112.281 109.54 112.896 109.54C113.511 109.54 113.996 109.092 113.996 108.551ZM115.226 110.714L115.785 110.435C115.972 110.751 116.345 110.957 116.792 110.957C117.5 110.957 117.855 110.472 117.855 109.838V109.577C117.668 109.912 117.314 110.118 116.811 110.118C115.804 110.118 115.301 109.521 115.301 108.626V107.078H115.953V108.607C115.953 109.167 116.27 109.558 116.885 109.558C117.5 109.558 117.836 109.111 117.836 108.57V107.097H118.507V109.857C118.507 110.863 117.855 111.553 116.792 111.553C116.084 111.553 115.506 111.292 115.207 110.752L115.226 110.714ZM120.707 110.062L121.341 106.426C121.397 106.072 121.676 105.885 122.049 105.885C122.366 105.885 122.646 106.034 122.757 106.351L123.634 109.204C123.634 109.204 123.652 109.279 123.69 109.279C123.727 109.279 123.746 109.279 123.764 109.204L124.622 106.351C124.715 106.034 125.013 105.885 125.33 105.885C125.684 105.885 125.964 106.09 126.02 106.444L126.598 110.062H125.908L125.405 106.65C125.405 106.65 125.367 106.5 125.293 106.5C125.237 106.5 125.2 106.538 125.181 106.631L124.249 109.577C124.174 109.819 123.951 109.95 123.708 109.95C123.466 109.95 123.242 109.819 123.168 109.595L122.235 106.65C122.235 106.65 122.18 106.519 122.124 106.519C122.068 106.519 122.012 106.556 122.012 106.668L121.453 110.099H120.744L120.707 110.062ZM126.896 108.551C126.896 107.694 127.66 106.985 128.648 106.985C129.636 106.985 130.401 107.656 130.401 108.551V110.062H129.767V109.54C129.525 109.912 129.077 110.136 128.537 110.136C127.586 110.136 126.877 109.428 126.877 108.551H126.896ZM129.748 108.57C129.748 108.011 129.282 107.563 128.648 107.563C128.015 107.563 127.548 108.011 127.548 108.57C127.548 109.129 128.033 109.558 128.648 109.558C129.264 109.558 129.748 109.111 129.748 108.57ZM131.035 110.062V108.272C131.035 107.545 131.501 107.004 132.358 107.004C132.563 107.004 132.787 107.041 132.955 107.116V107.712C132.787 107.619 132.6 107.582 132.414 107.582C131.967 107.582 131.706 107.862 131.706 108.29V110.062H131.035ZM132.899 108.551C132.899 107.694 133.644 106.985 134.651 106.985C135.658 106.985 136.403 107.656 136.403 108.551V110.062H135.77V109.54C135.527 109.912 135.08 110.136 134.539 110.136C133.588 110.136 132.88 109.428 132.88 108.551H132.899ZM135.751 108.57C135.751 108.011 135.285 107.563 134.651 107.563C134.017 107.563 133.551 108.011 133.551 108.57C133.551 109.129 134.036 109.558 134.651 109.558C135.266 109.558 135.751 109.111 135.751 108.57ZM137.28 108.98V107.582H136.627V107.06H137.28V106.277H137.951V107.06H139.218V107.582H137.951V108.962C137.951 109.353 138.212 109.577 138.603 109.577C138.827 109.577 139.051 109.502 139.218 109.409V109.968C139.051 110.08 138.79 110.136 138.547 110.136C137.727 110.136 137.28 109.67 137.28 108.98ZM139.871 110.062V105.68H140.542V107.395C140.803 107.153 141.194 106.985 141.642 106.985C142.611 106.985 143.152 107.582 143.152 108.495V110.062H142.481V108.551C142.481 108.011 142.164 107.563 141.53 107.563C140.952 107.563 140.523 107.992 140.523 108.57V110.062H139.852H139.871ZM143.562 108.551C143.562 107.694 144.345 106.985 145.333 106.985C146.321 106.985 147.085 107.694 147.085 108.551C147.085 109.409 146.321 110.136 145.333 110.136C144.345 110.136 143.562 109.428 143.562 108.551ZM146.414 108.57C146.414 108.011 145.948 107.563 145.333 107.563C144.718 107.563 144.233 108.011 144.233 108.57C144.233 109.129 144.718 109.558 145.333 109.558C145.948 109.558 146.414 109.111 146.414 108.57ZM148.167 108.607V110.062H147.495V108.551C147.495 107.675 148.073 106.985 149.136 106.985C150.199 106.985 150.795 107.675 150.795 108.533V110.043H150.124V108.607C150.124 108.048 149.788 107.563 149.117 107.563C148.446 107.563 148.148 108.048 148.148 108.607H148.167ZM86.4428 115.338C86.4428 114.164 87.4681 113.213 88.7358 113.213C89.5187 113.213 90.2271 113.567 90.5627 114.182L90.0034 114.481C89.7424 114.07 89.295 113.828 88.7171 113.828C87.8409 113.828 87.1512 114.481 87.1512 115.357C87.1512 116.233 87.8409 116.904 88.7171 116.904C89.295 116.904 89.7611 116.662 90.0034 116.252L90.5627 116.55C90.2271 117.147 89.5187 117.501 88.7358 117.501C87.4681 117.501 86.4428 116.569 86.4428 115.375V115.338ZM91.0101 117.389V113.008H91.6812V114.723C91.9422 114.481 92.3337 114.313 92.7811 114.313C93.7505 114.313 94.2911 114.891 94.2911 115.823V117.389H93.62V115.879C93.62 115.338 93.3031 114.891 92.6692 114.891C92.0913 114.891 91.6626 115.32 91.6626 115.898V117.389H90.9914H91.0101ZM94.7012 115.898C94.7012 115.04 95.4655 114.331 96.4536 114.331C97.4416 114.331 98.2059 115.003 98.2059 115.898V117.408H97.5721V116.886C97.3297 117.259 96.8823 117.482 96.3417 117.482C95.391 117.482 94.6826 116.774 94.6826 115.898H94.7012ZM97.5534 115.898C97.5534 115.357 97.0874 114.891 96.4536 114.891C95.8197 114.891 95.3537 115.338 95.3537 115.898C95.3537 116.457 95.8384 116.904 96.4536 116.904C97.0687 116.904 97.5534 116.457 97.5534 115.898ZM99.6413 113.026V117.408H98.9702V113.026H99.6413ZM101.207 113.026V117.408H100.536V113.026H101.207ZM101.748 115.879C101.748 115.021 102.438 114.313 103.426 114.313C104.414 114.313 105.048 114.965 105.048 115.804V116.047H102.4C102.475 116.569 102.904 116.923 103.5 116.923C103.91 116.923 104.265 116.755 104.47 116.438L104.973 116.681C104.675 117.203 104.153 117.464 103.5 117.464C102.494 117.464 101.748 116.811 101.748 115.879ZM104.358 115.655C104.339 115.17 103.948 114.853 103.407 114.853C102.866 114.853 102.475 115.208 102.419 115.655H104.376H104.358ZM106.166 115.953V117.408H105.495V115.898C105.495 115.021 106.073 114.331 107.135 114.331C108.198 114.331 108.795 115.021 108.795 115.879V117.389H108.123V115.953C108.123 115.394 107.788 114.909 107.117 114.909C106.446 114.909 106.147 115.394 106.147 115.953H106.166ZM109.298 118.042L109.857 117.762C110.044 118.079 110.416 118.303 110.901 118.303C111.591 118.303 112.076 117.855 112.076 117.147V116.904C111.852 117.221 111.46 117.445 110.901 117.445C109.969 117.445 109.223 116.774 109.223 115.898C109.223 115.021 109.988 114.331 110.976 114.331C111.964 114.331 112.728 115.003 112.728 115.898V117.128C112.728 118.172 111.964 118.843 110.901 118.843C110.193 118.843 109.596 118.564 109.298 118.023V118.042ZM112.057 115.879C112.057 115.338 111.572 114.909 110.957 114.909C110.342 114.909 109.857 115.338 109.857 115.879C109.857 116.42 110.342 116.867 110.957 116.867C111.572 116.867 112.057 116.42 112.057 115.879ZM113.157 115.879C113.157 115.021 113.847 114.313 114.835 114.313C115.823 114.313 116.456 114.965 116.456 115.804V116.047H113.809C113.884 116.569 114.313 116.923 114.909 116.923C115.319 116.923 115.674 116.755 115.879 116.438L116.382 116.681C116.084 117.203 115.562 117.464 114.909 117.464C113.903 117.464 113.157 116.811 113.157 115.879ZM115.767 115.655C115.748 115.17 115.357 114.853 114.816 114.853C114.275 114.853 113.884 115.208 113.828 115.655H115.767ZM119.048 117.389C118.638 117.389 118.433 117.184 118.433 116.904C118.433 116.718 118.526 116.55 118.731 116.382L120.073 115.301C120.446 115.003 120.632 114.76 120.632 114.425C120.632 114.052 120.297 113.791 119.849 113.791C119.402 113.791 119.048 114.033 118.843 114.406L118.302 114.145C118.6 113.586 119.16 113.194 119.887 113.194C120.725 113.194 121.322 113.716 121.322 114.369C121.322 114.872 121.08 115.245 120.651 115.581L119.309 116.662C119.309 116.662 119.234 116.737 119.234 116.774C119.234 116.774 119.234 116.811 119.271 116.811H121.434V117.389H119.048ZM121.788 115.338C121.788 114.145 122.515 113.213 123.596 113.213C124.678 113.213 125.405 114.126 125.405 115.338C125.405 116.55 124.678 117.464 123.596 117.464C122.515 117.464 121.788 116.513 121.788 115.338ZM124.696 115.338C124.696 114.499 124.23 113.865 123.596 113.865C122.963 113.865 122.496 114.499 122.496 115.338C122.496 116.177 122.963 116.83 123.596 116.83C124.23 116.83 124.696 116.159 124.696 115.338ZM126.989 117.389V114.014C126.989 114.014 126.989 113.977 126.952 113.977C126.915 113.977 126.896 113.977 126.859 114.014L125.815 114.555L125.498 113.958L126.654 113.38C126.821 113.287 127.008 113.231 127.194 113.231C127.474 113.231 127.66 113.399 127.66 113.716V117.408H126.971L126.989 117.389ZM129.114 117.389C128.704 117.389 128.499 117.184 128.499 116.904C128.499 116.718 128.592 116.55 128.797 116.382L130.14 115.301C130.513 115.003 130.699 114.76 130.699 114.425C130.699 114.052 130.363 113.791 129.916 113.791C129.469 113.791 129.114 114.033 128.909 114.406L128.369 114.145C128.667 113.586 129.226 113.194 129.953 113.194C130.792 113.194 131.389 113.716 131.389 114.369C131.389 114.872 131.146 115.245 130.718 115.581L129.375 116.662C129.375 116.662 129.301 116.737 129.301 116.774C129.301 116.774 129.301 116.811 129.338 116.811H131.501V117.389H129.114Z" fill="#EBAA01"/>
<path d="M41.7576 24.5741C41.7576 17.5822 47.723 12.0633 55.7391 12.0633C60.4555 12.0633 65.0788 14.2634 66.9989 18.2907L61.0707 21.2739C59.9708 19.4654 58.4795 18.2534 55.4222 18.2534C51.6938 18.2534 49.2144 20.9197 49.2144 24.686C49.2144 28.4523 51.7311 31.1559 55.7391 31.1559C57.8643 31.1559 59.1879 30.9881 60.325 30.0558L60.2878 25.1148H67.3531V32.2186C65.3025 35.0527 61.0707 37.085 55.7391 37.085C47.8162 37.085 41.7576 31.5847 41.7576 24.5741ZM70.0935 36.5629V12.5667H81.2041C87.4865 12.5667 92.2775 15.2329 92.2775 20.5281C92.2775 23.6978 90.3201 26.2895 87.2068 27.1658C88.5491 27.9489 89.4066 29.3286 90.5811 31.5101L93.2842 36.5629H85.3986L82.9192 32.0508C82.0244 30.4101 80.9991 29.8134 78.6315 29.8134H77.2893L77.252 36.5629H70.0748H70.0935ZM77.3639 18.6077L77.3266 23.9775H81.2041C83.3293 23.9775 84.8207 22.9147 84.8207 21.1994C84.8207 19.3908 83.3293 18.6077 81.2787 18.6077H77.3452H77.3639ZM100.331 16.3703C101.319 13.4244 104.059 12.026 106.8 12.026C109.54 12.026 112.299 13.4057 113.268 16.3703L120.091 36.5629H112.672L111.46 32.517H102.158L100.909 36.5629H93.4892L100.312 16.3703H100.331ZM103.985 26.6437H109.671L107.154 18.2907C107.079 18.0483 107.005 17.9365 106.837 17.9365C106.669 17.9365 106.595 18.0483 106.52 18.2907L103.966 26.6437H103.985ZM121.676 36.5629V16.0906C121.676 13.5362 123.876 12.0073 126.187 12.0073C128.033 12.0073 129.636 12.5853 130.587 13.9278L139.927 27.3336V12.5853H146.805V33.0577C146.805 35.612 144.606 37.1037 142.294 37.1037C140.486 37.1037 138.845 36.5443 137.895 35.1832L128.555 21.7774V36.5629H121.676ZM161.402 36.5629H150.925V12.5667H161.402C170.071 12.5667 175.85 17.3585 175.85 24.6487C175.85 31.939 169.884 36.5443 161.402 36.5443V36.5629ZM161.402 18.6077H158.177V30.6897H161.402C165.634 30.6897 168.393 28.2659 168.393 24.6487C168.393 21.0316 165.653 18.6077 161.402 18.6077Z" fill="#EBAA01"/>
<path d="M47.9098 69.9752H42.8764V82.3742H39.1667V69.9752H34.1333V66.8615H47.9284V69.9752H47.9098ZM49.3079 82.3742V66.8615H53.0177V73.1076H60.8287V66.8615H64.5385V82.3742H60.8287V76.2027H53.0177V82.3742H49.3079ZM67.8754 82.3742V66.8615H74.4747C78.3522 66.8615 81.3163 68.5022 81.3163 71.8024C81.3163 73.928 79.9368 75.5501 77.7557 76.0908C78.8555 76.6502 79.4894 77.7129 80.3842 79.3164L82.0433 82.3742H78.0167L76.488 79.6147C75.705 78.1791 74.9594 77.4332 73.0206 77.4332H71.5665V82.3928H67.8754V82.3742ZM71.5852 69.9752V74.4127H74.456C76.2084 74.4127 77.476 73.5924 77.476 72.138C77.476 70.6837 76.1711 69.9752 74.4933 69.9752H71.5665H71.5852ZM87.2258 82.3742C84.8583 82.3742 83.9448 81.2741 83.9448 79.5029V69.7701C83.9448 67.9988 84.8583 66.8615 87.2258 66.8615H96.2859V69.882H87.6546V73.1076H95.7452V76.1281H87.6546V79.3537H96.435V82.3742H87.2258ZM101.841 82.3742C99.4736 82.3742 98.5602 81.2741 98.5602 79.5029V69.7701C98.5602 67.9988 99.4736 66.8615 101.841 66.8615H110.901V69.882H102.27V73.1076H110.361V76.1281H102.27V79.3537H111.05V82.3742H101.841ZM117.929 74.6178C117.929 70.143 121.751 66.5818 126.822 66.5818C129.748 66.5818 132.656 67.9242 133.924 70.404L130.904 71.9516C130.047 70.5718 128.723 69.7328 126.672 69.7328C123.802 69.7328 121.751 71.8584 121.751 74.6738C121.751 77.4892 123.82 79.6334 126.822 79.6334C128.499 79.6334 129.73 79.2418 130.513 78.496V75.0653H134.111V79.6334C132.862 81.3301 130.214 82.6912 126.822 82.6912C121.807 82.6912 117.929 79.0927 117.929 74.6178ZM134.875 74.6178C134.875 70.0498 138.715 66.5818 143.786 66.5818C148.856 66.5818 152.715 70.0684 152.715 74.6178C152.715 79.1672 148.838 82.6539 143.786 82.6539C138.734 82.6539 134.875 79.2045 134.875 74.6178ZM148.894 74.6178C148.894 71.877 146.675 69.7515 143.804 69.7515C140.934 69.7515 138.715 71.877 138.715 74.6178C138.715 77.3587 140.952 79.4842 143.804 79.4842C146.657 79.4842 148.894 77.3587 148.894 74.6178ZM158.327 79.2605H166.324V82.3742H157.898C155.53 82.3742 154.617 81.2741 154.617 79.5029V66.8801H158.327V79.2791V79.2605ZM173.911 82.3742H167.592V66.8615H173.986C179.541 66.8615 183.232 69.9566 183.232 74.6365C183.232 79.3164 179.317 82.3742 173.911 82.3742ZM173.986 69.9752H171.32V79.3537H173.911C177.118 79.3537 179.411 77.5265 179.411 74.6365C179.411 71.7465 177.23 69.9752 173.986 69.9752Z" fill="#EBAA01"/>
<path d="M69.2546 100.404L71.1188 89.7015C71.3611 88.415 72.3678 87.7251 73.7473 87.7251C74.9777 87.7251 76.0216 88.2099 76.3385 89.4032L78.6502 97.1782L78.6688 97.2341C78.6874 97.2341 78.7061 97.2341 78.7061 97.1782L80.9804 89.4591C81.3346 88.2658 82.3972 87.7251 83.6276 87.7251C84.9884 87.7251 85.9765 88.4336 86.1815 89.7574L87.878 100.404H84.858L83.5344 90.6337C83.5344 90.6337 83.5157 90.4846 83.4225 90.4846C83.3666 90.4846 83.3293 90.5219 83.292 90.5964L80.7381 98.8376C80.4584 99.7885 79.6382 100.236 78.6502 100.236C77.6621 100.236 76.8232 99.7885 76.5809 98.8935L74.0269 90.5964C74.0269 90.5964 73.971 90.4846 73.9151 90.4846C73.8592 90.4846 73.7846 90.5219 73.7846 90.6151L72.2373 100.404H69.2173H69.2546ZM92.0724 100.404C90.1709 100.404 89.4439 99.5088 89.4439 98.0918V90.2795C89.4439 88.8624 90.1709 87.9488 92.0724 87.9488H99.3428V90.3727H92.4266V92.9644H98.914V95.3882H92.4266V97.9799H99.4733V100.404H92.0724ZM106.427 100.404H101.356V87.9675H106.483C110.938 87.9675 113.902 90.4473 113.902 94.195C113.902 97.9426 110.752 100.404 106.427 100.404ZM106.483 90.4473H104.339V97.9799H106.427C108.999 97.9799 110.845 96.5256 110.845 94.195C110.845 91.8643 109.093 90.4659 106.501 90.4659L106.483 90.4473ZM117.798 89.7201C118.264 88.3777 119.495 87.7251 120.781 87.7251C122.067 87.7251 123.316 88.3777 123.783 89.7201L127.418 100.404H124.379L123.577 97.8494H118.003L117.202 100.404H114.163L117.798 89.7201ZM118.768 95.4442H122.794L121.247 90.5032C121.173 90.2422 121.042 90.1303 120.8 90.1303C120.576 90.1303 120.427 90.2422 120.352 90.5032L118.786 95.4442H118.768ZM131.705 97.9053H138.118V100.404H131.351C129.45 100.404 128.723 99.5088 128.723 98.0918V87.9675H131.705V97.924V97.9053ZM138.23 97.924L140.728 96.7866C141.176 97.7002 142.145 98.1477 143.562 98.1477C144.848 98.1477 145.836 97.6629 145.836 96.7866C145.836 95.7611 144.755 95.5933 143.319 95.3696C141.25 95.0526 138.454 94.3814 138.454 91.5846C138.454 89.4032 140.616 87.7437 143.45 87.7437C145.724 87.7437 147.682 88.6946 148.558 90.4659L146.06 91.5846C145.612 90.7829 144.718 90.2422 143.319 90.2422C142.201 90.2422 141.418 90.727 141.418 91.4728C141.418 92.4796 142.555 92.722 144.046 92.9644C146.097 93.2813 148.781 93.9526 148.781 96.768C148.781 99.0054 146.451 100.628 143.524 100.628C141.045 100.628 139.069 99.6766 138.193 97.9053L138.23 97.924Z" fill="#EBAA01"/>
</g>
<defs>
<clipPath id="clip0_351_7618">
<rect width="218" height="120" fill="white"/>
</clipPath>
</defs>
</svg>
