<svg width="215" height="120" viewBox="0 0 215 120" fill="none" xmlns="http://www.w3.org/2000/svg">
<g clip-path="url(#clip0_351_7576)">
<path d="M50.5421 114.719C49.108 116.228 40.9816 111.094 38.3709 106.677C38.3709 106.677 36.9184 104.248 36.6059 100.825C36.5691 100.512 36.6059 100.181 36.661 99.8683C36.6978 99.6659 36.8081 99.4819 36.992 99.0034C37.3597 99.1322 37.7642 99.2058 38.1319 99.3163C38.1319 99.3163 38.665 99.5003 39.1798 99.7763C44.6219 102.61 48.06 108.352 48.06 108.352C49.7147 111.112 51.351 113.854 50.5421 114.719Z" fill="#EBAA01"/>
<path d="M27.1372 12.7163C27.5785 4.65617 37.6721 -1.78456 46.9016 0.442094C41.3676 6.47798 36.1093 12.3114 27.1372 12.7163Z" fill="#EBAA01"/>
<path d="M15.5358 84.8707C9.76277 77.1786 10.2408 68.5849 16.4919 63.4507C20.3712 70.7011 17.2273 77.4363 15.5358 84.8707Z" fill="#EBAA01"/>
<path d="M10.0207 69.9462C6.52749 61.0212 9.3037 52.7218 16.6211 49.5015C18.3861 57.5616 13.5691 63.2846 10.0207 69.9462Z" fill="#EBAA01"/>
<path d="M11.6936 37.9268C12.5577 29.1858 20.0774 22.6715 27.2477 24.2357C26.163 29.3147 20.629 34.228 11.6936 37.9268Z" fill="#EBAA01"/>
<path d="M8.82518 53.8445C7.55658 44.6067 13.0171 36.3809 20.4448 36.2705C19.8013 44.2754 13.9363 48.5815 8.82518 53.8445Z" fill="#EBAA01"/>
<path d="M37.6719 14.3906C33.002 21.1442 25.6845 21.8803 18.8083 23.8493C20.0586 17.2245 30.6302 10.4894 37.6719 14.3906Z" fill="#EBAA01"/>
<path d="M20.1872 77.0679C25.5558 83.0301 24.5078 90.2806 24.71 97.4574C17.2088 93.1329 15.1496 81.5396 20.1872 77.0679Z" fill="#EBAA01"/>
<path d="M22.5041 98.6165C15.0028 98.6533 7.66698 92.0285 5.9939 83.6924C14.1754 85.5878 18.5328 91.8261 22.5041 98.6165Z" fill="#EBAA01"/>
<path d="M37.0468 108.038C28.4056 104.45 24.6734 97.3652 26.8612 88.8818C33.8661 93.3903 34.7119 100.696 37.0468 108.038Z" fill="#EBAA01"/>
<path d="M49.88 116.264C44.4195 121.012 32.1932 117.258 28.2219 111.774C36.2748 109.161 43.0774 112.786 49.88 116.264Z" fill="#EBAA01"/>
<path d="M5.64481 30.4922C10.0573 37.8714 8.6968 45.2875 6.74794 52.7219C1.39776 48.5998 0.882968 39.086 5.64481 30.4922Z" fill="#EBAA01"/>
<path d="M14.7822 15.1084C17.2642 23.2421 13.5136 29.9773 10.002 36.602C5.75493 31.6703 8.18181 20.3346 14.7822 15.1084Z" fill="#EBAA01"/>
<path d="M7.92442 69.4675C1.30564 65.8974 -1.8199 56.218 1.08501 48.2314C7.50155 54.0097 7.28092 61.8858 7.92442 69.4675Z" fill="#EBAA01"/>
<path d="M17.2271 22.1559C14.5796 15.8992 20.4078 5.33642 28.0562 2.24487C26.4383 7.41586 26.6957 12.8445 22.0625 16.5433C20.224 18.0155 18.937 20.1501 17.2271 22.1743V22.1559Z" fill="#EBAA01"/>
<path d="M1.10359 66.2292C8.64164 70.2409 10.9582 77.4729 13.1277 84.6681C6.67439 84.2081 0.570409 75.007 1.10359 66.2292Z" fill="#EBAA01"/>
<path d="M35.1532 109.327C27.6151 111.259 19.5991 107.119 14.7637 98.5066C19.0107 99.7027 23.0188 100.2 26.3465 101.948C29.5824 103.659 32.1012 106.696 35.1716 109.327H35.1532Z" fill="#EBAA01"/>
<path d="M164.458 114.719C165.892 116.228 174.019 111.094 176.629 106.677C176.629 106.677 178.082 104.248 178.394 100.825C178.431 100.512 178.394 100.181 178.339 99.8683C178.302 99.6659 178.192 99.4819 178.008 99.0034C177.641 99.1322 177.236 99.2058 176.868 99.3163C176.868 99.3163 176.335 99.5003 175.82 99.7763C170.378 102.61 166.94 108.352 166.94 108.352C165.286 111.112 163.649 113.854 164.458 114.719Z" fill="#EBAA01"/>
<path d="M187.863 12.7163C187.422 4.65617 177.328 -1.78456 168.099 0.442094C173.633 6.47798 178.891 12.3114 187.863 12.7163Z" fill="#EBAA01"/>
<path d="M199.465 84.8707C205.238 77.1786 204.76 68.5849 198.508 63.4507C194.629 70.7011 197.773 77.4363 199.465 84.8707Z" fill="#EBAA01"/>
<path d="M204.98 69.9462C208.473 61.0212 205.697 52.7218 198.38 49.5015C196.615 57.5616 201.432 63.2846 204.98 69.9462Z" fill="#EBAA01"/>
<path d="M203.307 37.9268C202.443 29.1858 194.923 22.6715 187.753 24.2357C188.838 29.3147 194.372 34.228 203.307 37.9268Z" fill="#EBAA01"/>
<path d="M206.175 53.8445C207.444 44.6067 201.983 36.3809 194.555 36.2705C195.199 44.2754 201.064 48.5815 206.175 53.8445Z" fill="#EBAA01"/>
<path d="M177.328 14.3906C181.998 21.1442 189.315 21.8803 196.192 23.8493C194.941 17.2245 184.37 10.4894 177.328 14.3906Z" fill="#EBAA01"/>
<path d="M194.813 77.0679C189.444 83.0301 190.492 90.2806 190.29 97.4574C197.791 93.1329 199.85 81.5396 194.813 77.0679Z" fill="#EBAA01"/>
<path d="M192.496 98.6165C199.997 98.6533 207.333 92.0285 209.006 83.6924C200.824 85.5878 196.467 91.8261 192.496 98.6165Z" fill="#EBAA01"/>
<path d="M177.953 108.038C186.595 104.45 190.327 97.3652 188.139 88.8818C181.134 93.3903 180.288 100.696 177.953 108.038Z" fill="#EBAA01"/>
<path d="M165.12 116.264C170.581 121.012 182.807 117.258 186.778 111.774C178.725 109.161 171.923 112.786 165.12 116.264Z" fill="#EBAA01"/>
<path d="M209.356 30.4922C204.943 37.8714 206.304 45.2875 208.253 52.7219C213.603 48.5998 214.118 39.086 209.356 30.4922Z" fill="#EBAA01"/>
<path d="M200.218 15.1084C197.736 23.2421 201.486 29.9773 204.998 36.602C209.245 31.6703 206.818 20.3346 200.218 15.1084Z" fill="#EBAA01"/>
<path d="M207.075 69.4675C213.694 65.8974 216.82 56.218 213.915 48.2314C207.498 54.0097 207.719 61.8858 207.075 69.4675Z" fill="#EBAA01"/>
<path d="M197.773 22.1559C200.42 15.8992 194.592 5.33642 186.944 2.24487C188.562 7.41586 188.304 12.8445 192.938 16.5433C194.776 18.0155 196.063 20.1501 197.773 22.1743V22.1559Z" fill="#EBAA01"/>
<path d="M213.897 66.2292C206.359 70.2409 204.042 77.4729 201.873 84.6681C208.326 84.2081 214.43 75.007 213.897 66.2292Z" fill="#EBAA01"/>
<path d="M179.866 109.327C187.404 111.259 195.42 107.119 200.255 98.5066C196.008 99.7027 192 100.2 188.672 101.948C185.437 103.659 182.918 106.696 179.847 109.327H179.866Z" fill="#EBAA01"/>
<path d="M26.8616 53.2735C26.8616 47.9185 31.4947 43.7044 37.5619 43.7044C41.1655 43.7044 44.7139 45.4526 46.1847 48.4705L41.6435 50.7524C40.7978 49.3906 39.6579 48.4705 37.3229 48.4705C34.4732 48.4705 32.5795 50.4211 32.5795 53.2919C32.5795 56.1626 34.418 58.1132 37.3229 58.1132C39.6579 58.1132 40.8897 57.1931 41.6435 55.8314L46.1847 58.1132C44.7139 61.1312 41.1655 62.8793 37.5619 62.8793C31.4947 62.8793 26.8616 58.6653 26.8616 53.3103V53.2735ZM47.2327 62.4561V44.0908H52.7851V51.01H60.746V44.0908H66.2985V62.4561H60.746V55.6289H52.7851V62.4561H47.2327ZM72.2921 46.9984C73.0459 44.7349 75.1419 43.686 77.2562 43.686C79.3706 43.686 81.4665 44.7533 82.2203 46.9984L87.4418 62.4561H81.7607L80.823 59.3462H73.7078L72.7518 62.4561H67.0707L72.2921 46.9984ZM75.0867 54.856H79.4441L77.5136 48.4521C77.4585 48.2681 77.3849 48.1761 77.2746 48.1761C77.1643 48.1761 77.0908 48.2497 77.0356 48.4521L75.0867 54.856ZM87.5889 62.4561L90.2548 47.0352C90.6409 44.8637 92.3323 43.686 94.7592 43.686C96.8552 43.686 98.6386 44.4957 99.2085 46.5383L101.966 56.273L104.706 46.6119C105.276 44.5693 107.114 43.6676 109.265 43.6676C111.637 43.6676 113.255 44.8637 113.623 47.0904L116.031 62.4377H110.405L108.787 49.4826L105.57 60.1006C105.055 61.7384 103.639 62.5297 101.966 62.5297C100.293 62.5297 98.804 61.7752 98.3628 60.2111L95.1821 49.4642L93.2332 62.4377H87.5889V62.4561ZM118.146 62.4561V44.0908H125.923C131.935 44.0908 135.446 46.6671 135.446 50.9548C135.446 55.2425 132.119 57.966 126.217 57.966H123.698V62.4193H118.146V62.4561ZM123.698 48.7097V53.3287H126.07C128.57 53.3287 129.728 52.4822 129.728 50.9364C129.728 49.501 128.46 48.7097 126.07 48.7097H123.698ZM142.653 44.0908V62.4561H137.101V44.0908H142.653ZM144.455 53.2735C144.455 47.808 149.015 43.7044 155.156 43.7044C161.296 43.7044 165.856 47.808 165.856 53.2735C165.856 58.7389 161.296 62.8426 155.156 62.8426C149.015 62.8426 144.455 58.7389 144.455 53.2735ZM160.138 53.2735C160.138 50.55 157.969 48.4521 155.156 48.4521C152.343 48.4521 150.173 50.55 150.173 53.2735C150.173 55.997 152.343 58.0948 155.156 58.0948C157.969 58.0948 160.138 55.997 160.138 53.2735ZM167.511 62.4561V46.7775C167.511 44.8269 169.202 43.6492 170.967 43.6492C172.383 43.6492 173.615 44.0908 174.332 45.1213L181.484 55.3713V44.0724H186.742V59.751C186.742 61.7016 185.05 62.8609 183.285 62.8609C181.906 62.8609 180.638 62.4193 179.921 61.3888L172.769 51.1388V62.4561H167.511Z" fill="#EBAA01"/>
<path d="M41.1833 26.0202C41.1833 19.1194 47.0667 13.6724 54.9725 13.6724C59.624 13.6724 64.1836 15.8438 66.0773 19.8187L60.2307 22.763C59.146 20.978 57.6751 19.7819 54.6599 19.7819C50.9828 19.7819 48.5375 22.4134 48.5375 26.1306C48.5375 29.8478 51.0196 32.5161 54.9725 32.5161C57.0684 32.5161 58.3738 32.3321 59.4953 31.4304L59.4585 26.5539H66.4266V33.565C64.4042 36.3622 60.2307 38.368 54.9725 38.368C47.1586 38.368 41.1833 32.9394 41.1833 26.0202ZM69.1477 37.8527V14.1692H80.1054C86.3014 14.1692 91.0264 16.8007 91.0264 22.0269C91.0264 25.1553 89.096 27.7132 86.0256 28.5781C87.3493 29.351 88.1951 30.7127 89.3533 32.8658L92.0192 37.8527H84.2422L81.7969 33.3994C80.9144 31.78 79.9032 31.1912 77.5682 31.1912H76.2445L76.2077 37.8527H69.1293H69.1477ZM76.2996 20.1315L76.2629 25.4313H80.0871C82.183 25.4313 83.6538 24.3824 83.6538 22.6894C83.6538 20.9044 82.183 20.1315 80.1606 20.1315H76.2813H76.2996ZM98.9506 17.9233C99.925 15.0157 102.628 13.6356 105.33 13.6356C108.033 13.6356 110.754 14.9973 111.71 17.9233L118.439 37.8527H111.122L109.927 33.8595H100.752L99.5205 37.8527H92.2031L98.9322 17.9233H98.9506ZM102.554 28.0628H108.162L105.68 19.8187C105.606 19.5795 105.533 19.4691 105.367 19.4691C105.202 19.4691 105.128 19.5795 105.055 19.8187L102.536 28.0628H102.554ZM120.002 37.8527V17.6472C120.002 15.1262 122.171 13.6172 124.451 13.6172C126.271 13.6172 127.853 14.1877 128.79 15.5126L138.001 28.7437V14.1877H144.786V34.3931C144.786 36.9142 142.616 38.3864 140.336 38.3864C138.553 38.3864 136.935 37.8343 135.997 36.491L126.786 23.2599V37.8527H120.02H120.002ZM159.181 37.8527H148.849V14.1692H159.181C167.731 14.1692 173.43 18.8986 173.43 26.0938C173.43 33.289 167.547 37.8343 159.181 37.8343V37.8527ZM159.181 20.1315H156.001V32.0561H159.181C163.355 32.0561 166.076 29.6638 166.076 26.0938C166.076 22.5238 163.373 20.1315 159.181 20.1315Z" fill="#EBAA01"/>
<path d="M35.7595 84.5579V71.1428C35.7595 69.2474 36.7523 68.0513 39.2528 68.0513H48.8316V71.3636H39.7124V75.6881H48.2065V78.9821H39.7124V84.5763H35.7595V84.5579ZM49.1993 76.3138C49.1993 71.4557 53.2809 67.7568 58.6678 67.7568C64.0548 67.7568 68.1732 71.4557 68.1732 76.3138C68.1732 81.172 64.0548 84.8708 58.6678 84.8708C53.2809 84.8708 49.1993 81.1904 49.1993 76.3138ZM64.0916 76.3138C64.0916 73.3879 61.7382 71.1428 58.6678 71.1428C55.5975 71.1428 53.2625 73.4063 53.2625 76.3138C53.2625 79.2213 55.6526 81.4848 58.6678 81.4848C61.6831 81.4848 64.0916 79.2213 64.0916 76.3138ZM69.7175 77.2155V68.0329H73.6704V77.1419C73.6704 80.0126 74.9758 81.4112 77.6417 81.4112C80.3076 81.4112 81.6129 80.0126 81.6129 77.1419V68.0329H85.5658V77.2155C85.5658 81.9816 83.047 84.8156 77.6417 84.8156C72.2363 84.8156 69.7175 81.9632 69.7175 77.2155ZM88.6546 84.5579V68.0329H95.6595C99.7778 68.0329 102.94 69.7811 102.94 73.2775C102.94 75.5409 101.469 77.2707 99.1527 77.8412C100.311 78.43 100.991 79.5526 101.947 81.2824L103.712 84.5395H99.4285L97.8106 81.5952C96.9648 80.0678 96.1926 79.2581 94.1335 79.2581H92.5891V84.5395H88.6546V84.5579ZM92.6075 71.3452V76.0746H95.6595C97.5348 76.0746 98.8769 75.1913 98.8769 73.6455C98.8769 72.0997 97.498 71.3452 95.7146 71.3452H92.6075ZM110.809 76.3138C110.809 71.5477 114.872 67.7568 120.259 67.7568C123.366 67.7568 126.455 69.1738 127.816 71.8237L124.598 73.4615C123.679 71.9893 122.263 71.106 120.112 71.106C117.06 71.106 114.891 73.3695 114.891 76.3506C114.891 79.3318 117.079 81.632 120.278 81.632C122.061 81.632 123.366 81.2088 124.212 80.4359V76.7739H128.036V81.632C126.713 83.4538 123.9 84.8892 120.296 84.8892C114.964 84.8892 110.846 81.0615 110.846 76.2954L110.809 76.3138ZM128.845 76.3138C128.845 71.4557 132.927 67.7568 138.314 67.7568C143.701 67.7568 147.819 71.4557 147.819 76.3138C147.819 81.172 143.701 84.8708 138.314 84.8708C132.927 84.8708 128.845 81.1904 128.845 76.3138ZM143.738 76.3138C143.738 73.3879 141.384 71.1428 138.314 71.1428C135.243 71.1428 132.908 73.4063 132.908 76.3138C132.908 79.2213 135.299 81.4848 138.314 81.4848C141.329 81.4848 143.738 79.2213 143.738 76.3138ZM153.776 81.2456H162.27V84.5579H153.316C150.798 84.5579 149.823 83.3802 149.823 81.4848V68.0329H153.776V81.2272V81.2456ZM170.36 84.5579H163.649V68.0329H170.452C176.353 68.0329 180.27 71.3268 180.27 76.2954C180.27 81.264 176.096 84.5395 170.36 84.5395V84.5579ZM170.433 71.3452H167.584V81.3376H170.341C173.761 81.3376 176.188 79.4054 176.188 76.3138C176.188 73.2223 173.853 71.3636 170.415 71.3636L170.433 71.3452Z" fill="#EBAA01"/>
<path d="M68.2473 102.057L70.0859 91.4947C70.3249 90.2249 71.3177 89.544 72.6782 89.544C73.8917 89.544 74.9212 90.0225 75.2338 91.2002L77.5136 98.8739L77.532 98.9291C77.5504 98.9291 77.5688 98.9291 77.5688 98.8739L79.8118 91.2554C80.1611 90.0777 81.2091 89.544 82.4225 89.544C83.7647 89.544 84.7391 90.2433 84.9413 91.5499L86.6144 102.057H83.636L82.3306 92.4148C82.3306 92.4148 82.3122 92.2675 82.2387 92.2675C82.1835 92.2675 82.1467 92.3043 82.11 92.378L79.5912 100.512C79.3154 101.45 78.5064 101.892 77.532 101.892C76.5576 101.892 75.7302 101.45 75.4912 100.567L72.9724 92.378C72.9724 92.378 72.9172 92.2675 72.8805 92.2675C72.8253 92.2675 72.7518 92.3043 72.7518 92.3964L71.2258 102.057H68.2473ZM90.7512 102.057C88.8758 102.057 88.1588 101.174 88.1588 99.7756V92.0651C88.1588 90.6666 88.8758 89.7649 90.7512 89.7649H97.9215V92.1571H91.1005V94.715H97.4986V97.1073H91.1005V99.6652H98.0502V102.057H90.7512ZM104.908 102.057H99.9071V89.7833H104.963C109.357 89.7833 112.281 92.2307 112.281 95.9296C112.281 99.6284 109.173 102.057 104.908 102.057ZM104.963 92.2307H102.849V99.6652H104.908C107.445 99.6652 109.265 98.2298 109.265 95.9296C109.265 93.6293 107.537 92.2491 104.982 92.2491L104.963 92.2307ZM116.123 91.4947C116.583 90.1697 117.796 89.5256 119.065 89.5256C120.333 89.5256 121.565 90.1697 122.025 91.4947L125.61 102.039H122.613L121.823 99.518H116.325L115.535 102.039H112.538L116.123 91.4947ZM117.098 97.1625H121.069L119.543 92.2859C119.469 92.0283 119.341 91.9179 119.102 91.9179C118.881 91.9179 118.734 92.0283 118.66 92.2859L117.116 97.1625H117.098ZM129.857 99.5916H136.182V102.057H129.508C127.632 102.057 126.915 101.174 126.915 99.7756V89.7649H129.857V99.5916ZM136.274 99.61L138.737 98.5058C139.179 99.4076 140.135 99.8492 141.532 99.8492C142.8 99.8492 143.775 99.3707 143.775 98.5058C143.775 97.4753 142.709 97.3281 141.293 97.1073C139.252 96.7945 136.494 96.132 136.494 93.3717C136.494 91.2186 138.627 89.5808 141.422 89.5808C143.665 89.5808 145.595 90.5193 146.459 92.2675L143.996 93.3717C143.554 92.5804 142.672 92.0467 141.293 92.0467C140.19 92.0467 139.418 92.5252 139.418 93.2613C139.418 94.255 140.539 94.4942 142.01 94.7334C144.032 95.0463 146.68 95.7087 146.68 98.4874C146.68 100.696 144.382 102.297 141.495 102.297C139.05 102.297 137.101 101.358 136.237 99.61H136.274Z" fill="#EBAA01"/>
<path d="M67.2357 107.284V111.333H66.5554V107.284H67.2357ZM68.6881 109.897V111.333H68.0263V109.842C68.0263 108.977 68.5962 108.296 69.6442 108.296C70.6922 108.296 71.2805 108.977 71.2805 109.824V111.314H70.6186V109.897C70.6186 109.345 70.2877 108.867 69.6258 108.867C68.9639 108.867 68.6697 109.345 68.6697 109.897H68.6881ZM71.7034 109.86C71.7034 108.959 72.4204 108.296 73.4132 108.296C73.8545 108.296 74.2589 108.48 74.5163 108.738V107.008H75.1782V109.86C75.1782 110.744 74.4244 111.406 73.45 111.406C72.4755 111.406 71.7217 110.707 71.7217 109.86H71.7034ZM74.5163 109.86C74.5163 109.327 74.0567 108.885 73.4316 108.885C72.8065 108.885 72.3468 109.327 72.3468 109.86C72.3468 110.394 72.8249 110.854 73.4316 110.854C74.0383 110.854 74.5163 110.413 74.5163 109.86ZM75.5827 109.842C75.5827 108.996 76.3549 108.296 77.3293 108.296C78.3038 108.296 79.0576 108.996 79.0576 109.842C79.0576 110.689 78.3038 111.406 77.3293 111.406C76.3549 111.406 75.5827 110.707 75.5827 109.842ZM78.3957 109.86C78.3957 109.308 77.936 108.867 77.3293 108.867C76.7226 108.867 76.2446 109.308 76.2446 109.86C76.2446 110.413 76.7226 110.836 77.3293 110.836C77.936 110.836 78.3957 110.394 78.3957 109.86ZM80.1239 109.897V111.333H79.462V109.842C79.462 108.977 80.032 108.296 81.08 108.296C82.1279 108.296 82.7163 108.977 82.7163 109.824V111.314H82.0544V109.897C82.0544 109.345 81.7235 108.867 81.0616 108.867C80.3997 108.867 80.1055 109.345 80.1055 109.897H80.1239ZM83.1391 109.842C83.1391 108.996 83.8194 108.296 84.7938 108.296C85.7683 108.296 86.3934 108.94 86.3934 109.768V110.008H83.7826C83.8562 110.523 84.279 110.873 84.8674 110.873C85.2719 110.873 85.6212 110.707 85.8234 110.394L86.3198 110.633C86.0257 111.149 85.5109 111.406 84.8674 111.406C83.8746 111.406 83.1391 110.762 83.1391 109.842ZM85.7131 109.621C85.6947 109.143 85.3086 108.83 84.7754 108.83C84.2423 108.83 83.8562 109.18 83.801 109.621H85.7315H85.7131ZM86.6875 110.744L87.1839 110.486C87.3494 110.781 87.6252 110.891 87.9745 110.891C88.3238 110.891 88.6364 110.744 88.6364 110.486C88.6364 109.86 86.7611 110.339 86.7611 109.198C86.7611 108.683 87.2575 108.296 87.9745 108.296C88.5812 108.296 88.9857 108.554 89.2063 108.885L88.7099 109.143C88.5629 108.885 88.3055 108.793 88.0113 108.793C87.7171 108.793 87.4413 108.94 87.4413 109.18C87.4413 109.787 89.3167 109.345 89.3167 110.468C89.3167 111.02 88.7099 111.388 88.0297 111.388C87.423 111.388 86.9633 111.167 86.7059 110.725L86.6875 110.744ZM89.7763 107.395C89.7763 107.174 89.9602 106.99 90.2175 106.99C90.4749 106.99 90.6404 107.174 90.6404 107.395C90.6404 107.615 90.4566 107.781 90.2175 107.781C89.9785 107.781 89.7763 107.597 89.7763 107.395ZM90.5485 108.37V111.333H89.8866V108.37H90.5485ZM91.0817 109.842C91.0817 108.996 91.8355 108.296 92.8099 108.296C93.7843 108.296 94.5381 108.959 94.5381 109.842V111.333H93.913V110.817C93.674 111.185 93.2328 111.406 92.6996 111.406C91.7619 111.406 91.0633 110.707 91.0633 109.842H91.0817ZM93.8946 109.86C93.8946 109.308 93.435 108.867 92.8099 108.867C92.1848 108.867 91.7252 109.308 91.7252 109.86C91.7252 110.413 92.2032 110.836 92.8099 110.836C93.4166 110.836 93.8946 110.394 93.8946 109.86ZM97.4982 111.333C97.0386 111.333 96.8731 111.13 96.8731 110.781V107.855C96.8731 107.505 97.0386 107.303 97.4982 107.303H99.9435V107.873H97.5534V109.051H99.8148V109.621H97.5534V110.799H99.9986V111.369H97.4982V111.333ZM101.157 109.897V111.333H100.495V109.842C100.495 108.977 101.065 108.296 102.113 108.296C103.161 108.296 103.749 108.977 103.749 109.824V111.314H103.087V109.897C103.087 109.345 102.756 108.867 102.095 108.867C101.433 108.867 101.139 109.345 101.139 109.897H101.157ZM104.154 109.842C104.154 108.996 104.834 108.296 105.808 108.296C106.783 108.296 107.408 108.94 107.408 109.768V110.008H104.797C104.871 110.523 105.294 110.873 105.882 110.873C106.286 110.873 106.636 110.707 106.838 110.394L107.334 110.633C107.04 111.149 106.525 111.406 105.882 111.406C104.889 111.406 104.154 110.762 104.154 109.842ZM106.746 109.621C106.728 109.143 106.342 108.83 105.808 108.83C105.275 108.83 104.889 109.18 104.834 109.621H106.764H106.746ZM107.868 111.333V109.566C107.868 108.848 108.327 108.315 109.173 108.315C109.375 108.315 109.596 108.351 109.761 108.425V109.014C109.596 108.922 109.412 108.885 109.228 108.885C108.787 108.885 108.53 109.161 108.53 109.584V111.314H107.868V111.333ZM109.78 111.958L110.331 111.682C110.515 111.995 110.883 112.216 111.361 112.216C112.041 112.216 112.519 111.774 112.519 111.075V110.836C112.299 111.149 111.912 111.369 111.361 111.369C110.442 111.369 109.706 110.707 109.706 109.842C109.706 108.977 110.442 108.296 111.434 108.296C112.427 108.296 113.163 108.959 113.163 109.842V111.057C113.163 112.087 112.409 112.75 111.361 112.75C110.662 112.75 110.074 112.474 109.78 111.94V111.958ZM112.501 109.842C112.501 109.29 112.023 108.885 111.416 108.885C110.809 108.885 110.331 109.308 110.331 109.842C110.331 110.376 110.809 110.817 111.416 110.817C112.023 110.817 112.501 110.376 112.501 109.842ZM113.714 111.977L114.266 111.701C114.45 112.014 114.817 112.216 115.259 112.216C115.957 112.216 116.307 111.737 116.307 111.112V110.854C116.123 111.185 115.773 111.388 115.277 111.388C114.284 111.388 113.788 110.799 113.788 109.916V108.388H114.431V109.897C114.431 110.449 114.744 110.836 115.351 110.836C115.957 110.836 116.288 110.394 116.288 109.86V108.407H116.95V111.13C116.95 112.124 116.307 112.805 115.259 112.805C114.56 112.805 113.99 112.547 113.696 112.014L113.714 111.977ZM119.12 111.333L119.745 107.744C119.8 107.395 120.076 107.211 120.443 107.211C120.756 107.211 121.032 107.358 121.142 107.671L122.006 110.486C122.006 110.486 122.024 110.56 122.061 110.56C122.098 110.56 122.116 110.56 122.135 110.486L122.981 107.671C123.072 107.358 123.367 107.211 123.679 107.211C124.028 107.211 124.304 107.395 124.359 107.763L124.929 111.333H124.249L123.753 107.965C123.753 107.965 123.716 107.818 123.642 107.818C123.587 107.818 123.55 107.855 123.514 107.947L122.594 110.836C122.521 111.075 122.3 111.204 122.061 111.204C121.822 111.204 121.602 111.075 121.528 110.854L120.609 107.947C120.609 107.947 120.554 107.818 120.48 107.818C120.407 107.818 120.37 107.855 120.37 107.965L119.818 111.351H119.12V111.333ZM125.224 109.842C125.224 108.996 125.977 108.296 126.952 108.296C127.926 108.296 128.68 108.959 128.68 109.842V111.333H128.055V110.817C127.816 111.185 127.375 111.406 126.841 111.406C125.904 111.406 125.205 110.707 125.205 109.842H125.224ZM128.037 109.86C128.037 109.308 127.577 108.867 126.952 108.867C126.327 108.867 125.867 109.308 125.867 109.86C125.867 110.413 126.345 110.836 126.952 110.836C127.558 110.836 128.037 110.394 128.037 109.86ZM129.305 111.333V109.566C129.305 108.848 129.765 108.315 130.61 108.315C130.813 108.315 131.033 108.351 131.199 108.425V109.014C131.033 108.922 130.849 108.885 130.666 108.885C130.224 108.885 129.967 109.161 129.967 109.584V111.314H129.305V111.333ZM131.144 109.842C131.144 108.996 131.879 108.296 132.872 108.296C133.865 108.296 134.6 108.959 134.6 109.842V111.333H133.975V110.817C133.736 111.185 133.295 111.406 132.762 111.406C131.824 111.406 131.125 110.707 131.125 109.842H131.144ZM133.957 109.86C133.957 109.308 133.497 108.867 132.872 108.867C132.247 108.867 131.787 109.308 131.787 109.86C131.787 110.413 132.265 110.836 132.872 110.836C133.479 110.836 133.957 110.394 133.957 109.86ZM135.464 110.265V108.885H134.821V108.37H135.464V107.597H136.126V108.37H137.376V108.885H136.126V110.247C136.126 110.633 136.384 110.854 136.77 110.854C136.99 110.854 137.211 110.781 137.376 110.67V111.222C137.211 111.333 136.953 111.388 136.714 111.388C135.906 111.388 135.464 110.928 135.464 110.247V110.265ZM138.02 111.333V107.008H138.682V108.701C138.939 108.462 139.325 108.296 139.766 108.296C140.722 108.296 141.256 108.867 141.256 109.787V111.333H140.594V109.842C140.594 109.308 140.281 108.867 139.656 108.867C139.086 108.867 138.663 109.29 138.663 109.86V111.333H138.001H138.02ZM141.679 109.842C141.679 108.996 142.451 108.296 143.425 108.296C144.4 108.296 145.153 108.996 145.153 109.842C145.153 110.689 144.4 111.406 143.425 111.406C142.451 111.406 141.679 110.707 141.679 109.842ZM144.492 109.86C144.492 109.308 144.032 108.867 143.425 108.867C142.818 108.867 142.34 109.308 142.34 109.86C142.34 110.413 142.818 110.836 143.425 110.836C144.032 110.836 144.492 110.394 144.492 109.86ZM146.201 109.897V111.333H145.54V109.842C145.54 108.977 146.109 108.296 147.157 108.296C148.205 108.296 148.794 108.977 148.794 109.824V111.314H148.132V109.897C148.132 109.345 147.801 108.867 147.139 108.867C146.477 108.867 146.183 109.345 146.183 109.897H146.201ZM85.2535 116.54C85.2535 115.381 86.2647 114.461 87.5149 114.461C88.2871 114.461 88.9857 114.811 89.3167 115.418L88.7651 115.712C88.5077 115.307 88.0664 115.068 87.4965 115.068C86.6324 115.068 85.9521 115.712 85.9521 116.577C85.9521 117.442 86.6324 118.105 87.4965 118.105C88.0664 118.105 88.5261 117.865 88.7651 117.461L89.3167 117.755C88.9857 118.344 88.2871 118.693 87.5149 118.693C86.2647 118.693 85.2535 117.773 85.2535 116.596V116.54ZM89.7579 118.565V114.24H90.4198V115.933C90.6772 115.694 91.0633 115.528 91.5045 115.528C92.4606 115.528 92.9938 116.099 92.9938 117.019V118.565H92.3319V117.074C92.3319 116.54 92.0193 116.099 91.3942 116.099C90.8243 116.099 90.4014 116.522 90.4014 117.092V118.565H89.7395H89.7579ZM93.3982 117.074C93.3982 116.228 94.152 115.528 95.1265 115.528C96.1009 115.528 96.8547 116.191 96.8547 117.074V118.565H96.2296V118.049C95.9906 118.417 95.5493 118.638 95.0162 118.638C94.0785 118.638 93.3799 117.939 93.3799 117.074H93.3982ZM96.2112 117.092C96.2112 116.54 95.7516 116.099 95.1265 116.099C94.5014 116.099 94.0417 116.54 94.0417 117.092C94.0417 117.645 94.5198 118.068 95.1265 118.068C95.7332 118.068 96.2112 117.626 96.2112 117.092ZM98.2704 114.259V118.583H97.6085V114.259H98.2704ZM99.7964 114.259V118.583H99.1345V114.259H99.7964ZM100.33 117.074C100.33 116.228 101.01 115.528 101.984 115.528C102.959 115.528 103.584 116.172 103.584 117V117.24H100.973C101.047 117.755 101.469 118.105 102.058 118.105C102.462 118.105 102.812 117.939 103.014 117.626L103.51 117.865C103.216 118.381 102.701 118.638 102.058 118.638C101.065 118.638 100.33 117.994 100.33 117.074ZM102.922 116.853C102.904 116.375 102.517 116.062 101.984 116.062C101.451 116.062 101.065 116.412 101.01 116.853H102.94H102.922ZM104.687 117.129V118.565H104.025V117.074C104.025 116.209 104.595 115.528 105.643 115.528C106.691 115.528 107.279 116.209 107.279 117.056V118.546H106.617V117.129C106.617 116.577 106.286 116.099 105.625 116.099C104.963 116.099 104.669 116.577 104.669 117.129H104.687ZM107.794 119.19L108.346 118.914C108.53 119.227 108.897 119.448 109.375 119.448C110.056 119.448 110.534 119.006 110.534 118.307V118.068C110.313 118.381 109.927 118.601 109.375 118.601C108.456 118.601 107.721 117.939 107.721 117.074C107.721 116.209 108.474 115.528 109.449 115.528C110.423 115.528 111.177 116.191 111.177 117.074V118.289C111.177 119.319 110.423 119.982 109.375 119.982C108.677 119.982 108.088 119.706 107.794 119.172V119.19ZM110.515 117.074C110.515 116.522 110.037 116.117 109.43 116.117C108.824 116.117 108.346 116.54 108.346 117.074C108.346 117.608 108.824 118.049 109.43 118.049C110.037 118.049 110.515 117.608 110.515 117.074ZM111.581 117.074C111.581 116.228 112.262 115.528 113.236 115.528C114.211 115.528 114.836 116.172 114.836 117V117.24H112.225C112.299 117.755 112.721 118.105 113.31 118.105C113.714 118.105 114.064 117.939 114.266 117.626L114.762 117.865C114.468 118.381 113.953 118.638 113.31 118.638C112.317 118.638 111.581 117.994 111.581 117.074ZM114.174 116.853C114.155 116.375 113.769 116.062 113.236 116.062C112.703 116.062 112.317 116.412 112.262 116.853H114.192H114.174ZM117.391 118.565C116.987 118.565 116.785 118.362 116.785 118.086C116.785 117.902 116.877 117.737 117.079 117.571L118.403 116.504C118.77 116.209 118.954 115.97 118.954 115.639C118.954 115.271 118.623 115.013 118.182 115.013C117.741 115.013 117.391 115.252 117.189 115.62L116.656 115.363C116.95 114.811 117.502 114.443 118.219 114.443C119.046 114.443 119.634 114.958 119.634 115.602C119.634 116.099 119.395 116.467 118.972 116.798L117.649 117.865C117.649 117.865 117.575 117.939 117.575 117.976C117.575 117.976 117.575 118.013 117.612 118.013H119.745V118.583H117.391V118.565ZM120.094 116.54C120.094 115.363 120.811 114.461 121.877 114.461C122.944 114.461 123.661 115.363 123.661 116.54C123.661 117.718 122.944 118.657 121.877 118.657C120.811 118.657 120.094 117.718 120.094 116.54ZM122.981 116.54C122.981 115.712 122.521 115.087 121.896 115.087C121.271 115.087 120.811 115.712 120.811 116.54C120.811 117.369 121.271 118.013 121.896 118.013C122.521 118.013 122.981 117.35 122.981 116.54ZM125.242 118.565V115.234C125.242 115.234 125.242 115.197 125.205 115.197C125.168 115.197 125.15 115.197 125.113 115.234L124.084 115.768L123.771 115.197L124.911 114.627C125.076 114.535 125.26 114.479 125.444 114.479C125.72 114.479 125.904 114.645 125.904 114.958V118.601H125.224L125.242 118.565ZM126.768 114.516H128.937C129.36 114.516 129.599 114.737 129.599 115.013C129.599 115.197 129.489 115.363 129.287 115.547L128.367 116.264C128.367 116.264 128.276 116.32 128.276 116.338C128.276 116.338 128.276 116.338 128.294 116.338H128.662C129.287 116.338 129.746 116.78 129.746 117.405C129.746 118.123 129.084 118.657 128.22 118.657C127.485 118.657 126.933 118.362 126.639 117.792L127.228 117.516C127.393 117.884 127.761 118.086 128.22 118.086C128.68 118.086 129.084 117.81 129.084 117.405C129.084 117.037 128.79 116.816 128.312 116.816H128.018C127.724 116.816 127.558 116.632 127.558 116.448C127.558 116.301 127.632 116.172 127.779 116.062L128.735 115.326C128.735 115.326 128.827 115.252 128.827 115.197C128.827 115.142 128.79 115.105 128.717 115.105H126.731V114.535L126.768 114.516Z" fill="#EBAA01"/>
</g>
<defs>
<clipPath id="clip0_351_7576">
<rect width="215" height="120" fill="white"/>
</clipPath>
</defs>
</svg>
