<svg width="130" height="132" viewBox="0 0 130 132" fill="none" xmlns="http://www.w3.org/2000/svg">
<g clip-path="url(#clip0_351_8542)">
<path d="M92.6388 88.7704C92.7791 93.9746 90.675 97.3244 86.9278 99.5377C84.6634 100.874 81.9782 101.492 79.5134 102.469C75.4456 104.084 71.3977 105.759 66.9291 107.573C74.2633 111.681 81.0364 115.469 88.2303 119.497C85.9659 119.936 84.3227 120.414 82.6795 120.494C81.878 120.534 80.9763 119.916 80.2348 119.417C75.6259 116.347 71.0972 113.116 66.388 110.165C65.5063 109.607 63.7229 109.607 62.8211 110.125C59.114 112.299 55.3066 114.452 52.0403 117.204C48.8541 119.876 45.8082 121.292 41.3596 119.278C48.2129 115.429 54.9259 111.661 62.4204 107.454C57.05 105.44 52.2607 103.486 47.3312 101.871C41.7604 100.036 37.5723 97.0652 36.4902 90.9239C36.4502 90.6447 36.4502 90.3456 36.4702 90.0665C36.4702 89.887 36.5704 89.7076 36.6906 89.2689C37.3719 89.4284 38.1534 89.4284 38.7145 89.7873C40.5581 90.9239 43.103 91.8012 44.0248 93.4961C48.253 101.292 56.3086 102.947 63.4223 106.138C64.1437 106.457 65.2859 106.257 66.0875 105.958C70.1152 104.443 74.123 102.868 78.0706 101.153C79.0325 100.734 79.794 99.757 80.5554 98.9196C82.8198 96.467 84.8638 93.8151 87.3085 91.5619C88.6311 90.3456 90.5548 89.8073 92.6388 88.7505V88.7704Z" fill="#CECECE"/>
<path d="M21.4424 12.6226C21.242 5.36462 29.8787 -1.15555 38.3551 0.160452C33.8263 5.98275 29.498 11.6056 21.4424 12.6226Z" fill="#CECECE"/>
<path d="M107.808 12.622C99.7128 11.7048 95.4646 5.94231 90.8757 0.259597C98.8512 -1.43525 107.748 5.14474 107.808 12.622Z" fill="#CECECE"/>
<path d="M16.3121 78.1827C10.5209 71.7024 10.3205 63.966 15.5907 58.9014C19.6385 65.1025 17.294 71.3834 16.3121 78.1827Z" fill="#CECECE"/>
<path d="M114.642 46.5786C120.814 49.3103 122.878 57.5652 119.171 64.7035C114.923 59.28 112.959 51.4039 114.642 46.5786Z" fill="#CECECE"/>
<path d="M10.2397 65.2026C6.43233 57.4462 8.31597 49.8095 14.6883 46.3799C16.8725 53.4783 12.9449 58.9616 10.2397 65.2026Z" fill="#CECECE"/>
<path d="M114.622 23.19C108.37 21.0764 101.957 19.7205 98.2102 13.5593C104.442 10.8077 112.458 15.4934 114.622 23.19Z" fill="#CECECE"/>
<path d="M119.792 36.6287C114.301 32.7206 108.39 29.8892 106.526 23.0102C113.34 21.9933 119.912 28.6929 119.792 36.6287Z" fill="#CECECE"/>
<path d="M112.959 77.904C111.796 71.4037 109.672 65.2026 113.5 59.0015C119.231 62.9893 118.209 73.0188 112.959 77.904Z" fill="#CECECE"/>
<path d="M9.37817 36.3697C9.51845 28.4537 15.8106 22.0731 22.4034 22.9505C21.8022 27.5764 17.1732 32.4017 9.37817 36.3697Z" fill="#CECECE"/>
<path d="M7.95561 50.8653C6.13208 42.6703 10.4404 34.9139 17.1334 34.2559C17.1334 41.4938 12.1838 45.7609 7.95561 50.8653Z" fill="#CECECE"/>
<path d="M31.0808 13.3602C27.3536 19.7608 20.821 20.9571 14.7693 23.2302C15.4105 17.2085 24.448 10.3893 31.0808 13.3602Z" fill="#CECECE"/>
<path d="M112.178 34.2959C118.67 34.8143 122.958 42.4511 121.375 50.367C116.346 46.9175 112.057 39.52 112.178 34.2959Z" fill="#CECECE"/>
<path d="M19.9182 70.8257C25.2084 75.7906 24.7876 82.3706 25.509 88.791C18.4153 85.4612 15.71 75.2323 19.9182 70.8257Z" fill="#CECECE"/>
<path d="M109.412 71.0244C113.399 75.092 110.995 84.6829 104.262 88.7704C102.779 83.4068 105.504 74.0153 109.412 71.0244Z" fill="#CECECE"/>
<path d="M23.6054 90.0072C16.8524 90.6053 9.73861 85.1818 7.6145 77.8242C15.129 78.9209 19.5175 84.1849 23.6054 90.0072Z" fill="#CECECE"/>
<path d="M121.716 77.6045C119.512 84.9222 111.676 91.2829 105.645 89.8672C111.396 82.0111 114.602 79.5386 121.716 77.6045Z" fill="#CECECE"/>
<path d="M37.4323 97.3646C29.3767 94.7725 25.4892 88.7109 26.8318 80.9346C33.4847 84.4638 34.7872 90.9441 37.4323 97.3646Z" fill="#CECECE"/>
<path d="M102.478 81.4927C103.66 88.7705 99.9131 94.6327 92.4988 97.165C92.599 90.9838 98.1497 82.2703 102.478 81.4927Z" fill="#CECECE"/>
<path d="M49.616 103.805C45.0471 108.471 33.7252 105.998 29.7576 101.373C36.8312 98.4415 43.2436 101.173 49.616 103.805Z" fill="#CECECE"/>
<path d="M3.38611 30.1489C7.89482 36.4498 7.23355 43.1893 6.01118 50.0085C0.881262 46.6986 -0.301024 38.2044 3.38611 30.1489Z" fill="#CECECE"/>
<path d="M123.219 50.1281C122.758 46.6786 121.716 43.3487 122.056 40.1783C122.417 36.7887 124.1 33.5385 125.283 30.0093C129.711 35.7917 128.529 46.0006 123.219 50.1281Z" fill="#CECECE"/>
<path d="M99.6531 101.432C92.7998 106.975 84.7242 107.873 79.5542 103.825C85.9265 101.113 92.379 98.5011 99.6531 101.432Z" fill="#CECECE"/>
<path d="M10.4811 15.6729C13.3266 22.7912 10.4411 29.092 7.75587 35.2932C3.54773 31.1857 4.91036 20.8371 10.4811 15.6729Z" fill="#CECECE"/>
<path d="M118.71 15.6729C124.221 20.9169 125.543 30.1488 121.516 35.4128C118.77 29.1319 115.825 22.851 118.71 15.6729Z" fill="#CECECE"/>
<path d="M8.31674 64.9235C2.08469 62.2117 -1.46217 53.7574 0.581783 46.3799C6.7938 51.0856 7.17453 58.164 8.31674 64.9235Z" fill="#CECECE"/>
<path d="M128.628 46.3599C130.632 53.6776 127.306 61.773 120.994 64.9433C121.775 58.0244 122.557 51.1453 128.628 46.3599Z" fill="#CECECE"/>
<path d="M13.2059 21.8146C10.3604 16.411 14.8491 6.50118 21.502 3.15137C20.4199 7.89693 21.0611 12.7621 17.1536 16.411C15.6106 17.8666 14.5886 19.8805 13.2059 21.8146Z" fill="#CECECE"/>
<path d="M115.945 21.5349C111.576 16.231 107.208 10.9271 108.09 3.37012C114.763 7.01902 118.37 15.3736 115.945 21.5349Z" fill="#CECECE"/>
<path d="M114.802 78.3425C116.545 74.8332 117.788 71.284 119.912 68.3729C121.695 65.9203 124.521 64.2255 127.086 62.0122C127.847 69.3499 121.495 77.6247 114.822 78.3226L114.802 78.3425Z" fill="#CECECE"/>
<path d="M93.3613 98.6005C96.5275 96.4072 99.2527 93.8948 102.459 92.4791C105.345 91.2229 108.771 91.1831 112.178 90.5649C109.212 97.1449 99.8539 101.073 93.3413 98.6005H93.3613Z" fill="#CECECE"/>
<path d="M1.9231 62.5298C9.01681 65.5606 11.6419 71.9013 14.1267 78.1822C8.27538 78.242 2.08341 70.4457 1.9231 62.5298Z" fill="#CECECE"/>
<path d="M35.8094 98.6608C29.1566 100.934 21.622 97.8234 16.6123 90.4458C20.5399 91.2035 24.187 91.3431 27.313 92.679C30.3589 93.9751 32.8637 96.5074 35.8094 98.6409V98.6608Z" fill="#CECECE"/>
<path d="M28.8557 46.1204C28.8557 42.0528 30.4989 38.683 33.4446 34.077L42.8227 19.2621H53.5034L45.3877 32.2426C45.7083 32.1828 46.1091 32.1828 46.5098 32.1828C55.2267 32.1828 62.0399 37.2075 62.0399 45.2829C62.0399 53.3584 55.2267 59.7988 45.4678 59.7988C35.709 59.7988 28.8958 53.5977 28.8958 46.1005L28.8557 46.1204ZM52.7219 45.6618C52.7219 42.1126 49.6359 39.1018 45.3877 39.1018C40.8589 39.1018 37.9733 42.5313 37.9733 45.7814C37.9733 49.55 41.1194 52.4013 45.3877 52.4013C49.6559 52.4013 52.7219 49.3905 52.7219 45.6817V45.6618ZM84.3029 59.0012V52.6805H69.6346C64.9856 52.6805 62.4206 50.4472 62.4206 47.4962C62.4206 46.0207 63.0819 44.3657 64.4445 42.7108L81.4174 22.1134C83.321 19.8204 85.1446 18.5044 88.2305 18.5044C91.3165 18.5044 93.6009 20.2192 93.6009 23.5291V45.602H100.093V52.6805H93.6009V59.0012H84.3029ZM71.5783 45.602H84.2829V29.8499C84.2829 29.8499 84.2228 29.9695 84.1426 30.0892L71.5583 45.6219L71.5783 45.602Z" fill="#CECECE"/>
<path d="M96.6872 37.4065V36.6089H96.2263V36.0705H96.6872V35.5122H97.4086V36.0705H98.2903V36.6089H97.4086V37.3865C97.4086 37.6258 97.5689 37.7853 97.8294 37.7853C97.9697 37.7853 98.1701 37.7454 98.2903 37.6856V38.2639C98.1701 38.3436 97.9497 38.3636 97.7693 38.3636C97.0479 38.3636 96.6872 37.9847 96.6872 37.4264V37.4065ZM98.651 38.2838V35.0337H99.3724V36.1902C99.5527 36.0705 99.8133 35.9908 100.074 35.9908C100.835 35.9908 101.236 36.4294 101.236 37.1273V38.2838H100.515V37.1871C100.515 36.8681 100.314 36.589 99.9535 36.589C99.5928 36.589 99.3524 36.8482 99.3524 37.1871V38.2639H98.631L98.651 38.2838ZM96.6471 42.2717V39.2409H97.9497C98.7111 39.2409 99.2922 39.5599 99.2922 40.198C99.2922 40.6167 99.0117 40.9357 98.5909 41.0354C98.8113 41.1351 98.9315 41.3545 99.1119 41.6735L99.4325 42.2717H98.631L98.3304 41.7333C98.1701 41.4542 98.0298 41.3146 97.6491 41.3146H97.3685V42.2916H96.6471V42.2717ZM97.3685 39.859V40.7363H97.9296C98.2703 40.7363 98.5308 40.5768 98.5308 40.2977C98.5308 39.9986 98.2703 39.879 97.9497 39.879H97.3685V39.859ZM100.414 39.6796C100.535 39.3406 100.835 39.201 101.156 39.201C101.476 39.201 101.777 39.3605 101.897 39.6796L102.799 42.2717H102.058L101.857 41.6536H100.495L100.294 42.2717H99.5527L100.454 39.6796H100.414ZM100.655 41.0753H101.637L101.256 39.879C101.256 39.879 101.196 39.7992 101.136 39.7992C101.076 39.7992 101.036 39.8191 101.016 39.879L100.635 41.0753H100.655ZM103.06 42.2717V39.6596C103.06 39.3605 103.3 39.1811 103.581 39.1811C103.801 39.1811 103.981 39.2608 104.082 39.4204L105.424 41.4741V39.2409H106.125V41.853C106.125 42.152 105.885 42.3315 105.604 42.3315C105.384 42.3315 105.204 42.2717 105.083 42.0922L103.741 40.0185V42.2517H103.039L103.06 42.2717ZM106.727 42.2717V39.2409H107.468V40.4572H107.909C107.909 40.4572 108.009 40.2777 108.089 40.178L108.911 39.2409H109.752L108.791 40.3575C108.65 40.517 108.59 40.6367 108.59 40.7363C108.59 40.836 108.67 40.9557 108.791 41.1152L109.793 42.2717H108.891L108.109 41.3545C108.109 41.3545 107.969 41.175 107.929 41.0753H107.488V42.2717H106.747H106.727Z" fill="#CECECE"/>
<path d="M44.4663 74.8928V63.8862H49.5962C52.6822 63.8862 54.5258 65.1025 54.5258 66.9968C54.5258 68.1931 53.8444 69.0107 52.7623 69.4294C53.8444 69.7484 54.6059 70.4463 54.6059 71.7822C54.6059 73.836 52.582 74.8928 49.5962 74.8928H44.4663ZM47.8128 68.233H49.7766C50.7184 68.233 51.1793 67.8741 51.1793 67.2361C51.1793 66.6778 50.7384 66.3188 49.7766 66.3188H47.8128V68.233ZM47.8128 72.4402H49.7766C50.7184 72.4402 51.2594 72.201 51.2594 71.5629C51.2594 70.885 50.7184 70.6856 49.7766 70.6856H47.8128V72.4402ZM58.774 74.8928C56.71 74.8928 55.8684 73.9157 55.8684 72.3605V66.3986C55.8684 64.8433 56.71 63.8663 58.774 63.8663H65.0461V66.5581H59.2349V68.0336H64.6253V70.7254H59.2349V72.201H65.1263V74.8928H58.774ZM65.8076 72.6596L68.593 71.4034C68.9336 72.0813 69.6149 72.3804 70.7571 72.3804C71.6389 72.3804 72.3202 72.1411 72.3202 71.6227C72.3202 70.9647 71.5988 70.865 70.4966 70.7254C68.6731 70.4862 65.9879 69.8481 65.9879 67.2161C65.9879 65.2022 67.9918 63.647 70.7171 63.647C72.8612 63.647 74.6647 64.5044 75.4863 66.1394L72.7009 67.3956C72.3602 66.8572 71.699 66.4185 70.5568 66.4185C69.7552 66.4185 69.3344 66.6379 69.3344 67.0965C69.3344 67.7146 70.1359 67.914 71.3182 68.0735C73.1217 68.3128 75.6666 68.9309 75.6666 71.5828C75.6666 73.5967 73.4824 75.152 70.7571 75.152C68.4327 75.152 66.6292 74.2946 65.7875 72.6596H65.8076ZM85.9866 66.6578H82.5199V74.8928H79.1734V66.6578H75.7067V63.8862H85.9666V66.6578H85.9866Z" fill="#CECECE"/>
<path d="M38.9751 87.654V78.6414H42.8226C45.0869 78.6414 46.8103 79.5985 46.8103 81.5127C46.8103 82.749 46.0087 83.6861 44.7262 84.0051C45.3675 84.3242 45.7282 84.9423 46.2492 85.8794L47.211 87.654H44.8665L43.9848 86.039C43.5239 85.2015 43.1031 84.7628 41.9609 84.7628H41.1193V87.6341H38.9551L38.9751 87.654ZM41.1393 80.4559V83.0281H42.8226C43.8445 83.0281 44.586 82.5496 44.586 81.7121C44.586 80.8747 43.8245 80.4559 42.8426 80.4559H41.1393ZM47.6719 83.1477C47.6719 80.4958 49.9163 78.4819 52.882 78.4819C55.8477 78.4819 58.0921 80.4958 58.0921 83.1477C58.0921 85.7997 55.8277 87.8136 52.882 87.8136C49.9363 87.8136 47.6719 85.7997 47.6719 83.1477ZM55.8477 83.1477C55.8477 81.5526 54.5452 80.3164 52.882 80.3164C51.2188 80.3164 49.9163 81.5526 49.9163 83.1477C49.9163 84.7429 51.2188 85.9791 52.882 85.9791C54.5452 85.9791 55.8477 84.7429 55.8477 83.1477ZM58.3726 83.1477C58.3726 80.4958 60.617 78.4819 63.5827 78.4819C66.5484 78.4819 68.7928 80.4958 68.7928 83.1477C68.7928 85.7997 66.5284 87.8136 63.5827 87.8136C60.637 87.8136 58.3726 85.7997 58.3726 83.1477ZM66.5484 83.1477C66.5484 81.5526 65.2459 80.3164 63.5827 80.3164C61.9195 80.3164 60.617 81.5526 60.617 83.1477C60.617 84.7429 61.9195 85.9791 63.5827 85.9791C65.2459 85.9791 66.5484 84.7429 66.5484 83.1477ZM69.8949 87.654V78.6414H72.0591V82.2704H73.3416C73.4618 81.9913 73.6622 81.7121 73.8826 81.413L76.3073 78.6414H78.7721L75.9266 81.9514C75.5258 82.4299 75.3254 82.7689 75.3254 83.1079C75.3254 83.4468 75.5258 83.7659 75.9266 84.2444L78.8723 87.654H76.2071L73.8826 84.9024C73.6421 84.6233 73.4618 84.3441 73.3416 84.065H72.039V87.654H69.8749H69.8949ZM81.858 78.6414V87.654H79.6938V78.6414H81.858ZM85.5452 87.654C84.1625 87.654 83.6214 87.016 83.6214 85.9791V80.3363C83.6214 79.2994 84.1625 78.6414 85.5452 78.6414H90.8354V80.3961H85.8057V82.2704H90.5348V84.0251H85.8057V85.8994H90.9356V87.654H85.5652H85.5452Z" fill="#CECECE"/>
<path d="M23.9663 129.726V126.057C23.9663 125.538 24.2469 125.219 24.9282 125.219H27.5733V126.136H25.0684V127.313H27.413V128.21H25.0684V129.745H23.9863L23.9663 129.726ZM27.6735 128.051C27.6735 127.094 28.5552 126.296 29.6774 126.296C30.7995 126.296 31.6812 127.094 31.6812 128.051C31.6812 129.008 30.7995 129.805 29.6774 129.805C28.5552 129.805 27.6735 129.008 27.6735 128.051ZM30.6192 128.051C30.6192 127.572 30.2184 127.193 29.6774 127.193C29.1363 127.193 28.7355 127.592 28.7355 128.051C28.7355 128.509 29.1363 128.908 29.6774 128.908C30.2184 128.908 30.6192 128.509 30.6192 128.051ZM32.0219 129.726V127.811C32.0219 126.954 32.5629 126.296 33.6651 126.296C33.9055 126.296 34.166 126.336 34.3464 126.416V127.353C34.166 127.253 33.9456 127.213 33.7653 127.213C33.3444 127.213 33.0839 127.452 33.0839 127.851V129.726H32.0219ZM40.879 127.971V129.706H39.817V128.13C39.817 127.612 39.5765 127.193 38.9954 127.193C38.4142 127.193 38.1738 127.612 38.1738 128.13V129.726H37.1117V128.13C37.1117 127.612 36.8713 127.193 36.2901 127.193C35.709 127.193 35.4685 127.632 35.4685 128.13V129.726H34.4065V127.991C34.4065 127.054 35.0077 126.276 36.21 126.276C36.9113 126.276 37.4323 126.555 37.6528 127.014C37.8932 126.555 38.4142 126.276 39.0755 126.276C40.2778 126.276 40.879 127.054 40.879 127.991V127.971ZM44.0652 127.931V126.396H45.1272V128.051C45.1272 129.028 44.486 129.805 43.2436 129.805C42.0012 129.805 41.38 129.028 41.38 128.051V126.396H42.442V127.951C42.442 128.469 42.7025 128.908 43.2636 128.908C43.8247 128.908 44.0852 128.469 44.0852 127.951L44.0652 127.931ZM46.7904 124.86V129.726H45.7284V124.86H46.7904ZM47.2714 128.051C47.2714 127.094 48.133 126.296 49.2752 126.296C50.4175 126.296 51.2791 127.054 51.2791 128.051V129.726H50.2772V129.327C50.0167 129.626 49.6159 129.805 49.1149 129.805C48.0328 129.805 47.2914 129.008 47.2914 128.051H47.2714ZM50.2171 128.051C50.2171 127.572 49.8163 127.193 49.2752 127.193C48.7342 127.193 48.3334 127.592 48.3334 128.051C48.3334 128.509 48.7342 128.908 49.2752 128.908C49.8163 128.908 50.2171 128.509 50.2171 128.051ZM53.4233 128.828L54.325 128.41C54.4853 128.749 54.846 128.908 55.367 128.908C55.8279 128.908 56.1886 128.729 56.1886 128.41C56.1886 128.031 55.7878 127.971 55.2668 127.891C54.5054 127.771 53.4834 127.532 53.4834 126.515C53.4834 125.718 54.2649 125.12 55.3069 125.12C56.1285 125.12 56.8499 125.459 57.1705 126.117L56.2688 126.535C56.1085 126.236 55.7678 126.037 55.2668 126.037C54.8661 126.037 54.5655 126.216 54.5655 126.495C54.5655 126.854 54.9863 126.954 55.5273 127.034C56.2688 127.153 57.2507 127.393 57.2507 128.41C57.2507 129.227 56.409 129.825 55.3269 129.825C54.4252 129.825 53.7038 129.486 53.3832 128.828H53.4233ZM58.7736 125.837C58.954 125.339 59.3948 125.12 59.8557 125.12C60.3166 125.12 60.7775 125.359 60.9578 125.837L62.2804 129.726H61.1783L60.8777 128.788H58.8337L58.5331 129.726H57.431L58.7536 125.837H58.7736ZM59.1343 127.911H60.5971L60.036 126.117C60.036 126.117 59.9559 125.977 59.8757 125.977C59.7956 125.977 59.7355 126.017 59.7154 126.117L59.1343 127.911ZM63.6631 129.726C62.9617 129.726 62.7012 129.407 62.7012 128.888V126.057C62.7012 125.538 62.9617 125.219 63.6631 125.219H66.3282V126.097H63.8033V127.034H66.1679V127.911H63.8033V128.848H66.3683V129.726H63.6631ZM68.1718 128.828C68.9333 128.828 69.2138 128.549 69.2138 128.051V125.199H70.2959V127.991C70.2959 129.127 69.6146 129.785 68.1718 129.785V128.848V128.828ZM70.7969 128.051C70.7969 127.094 71.6585 126.296 72.8007 126.296C73.9429 126.296 74.8046 127.054 74.8046 128.051V129.726H73.8027V129.327C73.5422 129.626 73.1414 129.805 72.6404 129.805C71.5583 129.805 70.8169 129.008 70.8169 128.051H70.7969ZM73.7426 128.051C73.7426 127.572 73.3418 127.193 72.8007 127.193C72.2597 127.193 71.8589 127.592 71.8589 128.051C71.8589 128.509 72.2597 128.908 72.8007 128.908C73.3418 128.908 73.7426 128.509 73.7426 128.051ZM75.3256 131.261V128.051C75.3256 127.054 76.1672 126.296 77.3295 126.296C78.4917 126.296 79.3334 127.094 79.3334 128.051C79.3334 129.087 78.5518 129.825 77.3896 129.825C77.0089 129.825 76.6682 129.706 76.3877 129.506V131.261H75.3256ZM78.2713 128.051C78.2713 127.572 77.8705 127.193 77.3295 127.193C76.7884 127.193 76.3877 127.572 76.3877 128.051C76.3877 128.529 76.7884 128.908 77.3295 128.908C77.8705 128.908 78.2713 128.509 78.2713 128.051ZM79.4736 128.051C79.4736 127.094 80.3353 126.296 81.4775 126.296C82.6197 126.296 83.4814 127.054 83.4814 128.051V129.726H82.4794V129.327C82.2189 129.626 81.8182 129.805 81.3172 129.805C80.2351 129.805 79.4937 129.008 79.4937 128.051H79.4736ZM82.4394 128.051C82.4394 127.572 82.0386 127.193 81.4975 127.193C80.9565 127.193 80.5557 127.592 80.5557 128.051C80.5557 128.509 80.9565 128.908 81.4975 128.908C82.0386 128.908 82.4394 128.509 82.4394 128.051ZM85.0644 128.17V129.726H84.0024V128.071C84.0024 127.094 84.6436 126.316 85.9261 126.316C87.2086 126.316 87.8699 127.094 87.8699 128.071V129.726H86.8078V128.17C86.8078 127.652 86.5273 127.213 85.9261 127.213C85.325 127.213 85.0644 127.652 85.0644 128.17ZM90.8957 129.726C90.3747 129.726 90.1142 129.466 90.1142 129.127C90.1142 128.868 90.2344 128.669 90.4749 128.469L91.8175 127.413C92.1982 127.114 92.3986 126.894 92.3986 126.575C92.3986 126.276 92.1181 126.037 91.6973 126.037C91.2765 126.037 90.9158 126.316 90.7354 126.655L89.8938 126.236C90.2144 125.598 90.8957 125.12 91.7774 125.12C92.7794 125.12 93.4807 125.738 93.4807 126.495C93.4807 127.074 93.2202 127.472 92.7593 127.831L91.5169 128.808H93.601V129.726H90.8757H90.8957ZM93.9416 127.452C93.9416 126.097 94.8033 125.1 96.0657 125.1C97.3282 125.1 98.1898 126.097 98.1898 127.452C98.1898 128.808 97.3482 129.805 96.0657 129.805C94.7832 129.805 93.9416 128.768 93.9416 127.452ZM97.0877 127.452C97.0877 126.655 96.6468 126.097 96.0657 126.097C95.4846 126.097 95.0437 126.655 95.0437 127.452C95.0437 128.19 95.5046 128.808 96.0657 128.808C96.6268 128.808 97.0877 128.21 97.0877 127.452ZM99.9733 129.726V126.356C99.9733 126.356 99.9733 126.356 99.9532 126.356L98.811 126.894L98.3101 125.957L99.6927 125.299C99.9332 125.179 100.194 125.1 100.414 125.1C100.795 125.1 101.055 125.319 101.055 125.738V129.726H99.9733ZM101.897 125.199H104.402C104.943 125.199 105.223 125.478 105.223 125.817C105.223 126.017 105.103 126.236 104.863 126.455L104.101 127.153H104.201C104.843 127.153 105.404 127.672 105.404 128.37C105.404 129.207 104.662 129.825 103.6 129.825C102.759 129.825 102.097 129.486 101.737 128.828L102.679 128.37C102.839 128.749 103.2 128.928 103.62 128.928C104.041 128.928 104.342 128.689 104.342 128.35C104.342 128.031 104.041 127.831 103.64 127.831H103.38C103.039 127.831 102.839 127.632 102.839 127.413C102.839 127.253 102.939 127.113 103.099 126.954L103.981 126.176C103.981 126.176 104.021 126.156 104.021 126.136C104.021 126.136 104.021 126.136 104.001 126.136H101.957V125.219L101.897 125.199Z" fill="#CECECE"/>
</g>
<defs>
<clipPath id="clip0_351_8542">
<rect width="129.21" height="131.261" fill="white"/>
</clipPath>
</defs>
</svg>
