<svg width="216" height="120" viewBox="0 0 216 120" fill="none" xmlns="http://www.w3.org/2000/svg">
<g clip-path="url(#clip0_351_7534)">
<path d="M50.7775 115.139C49.3367 116.654 41.1723 111.501 38.5494 107.068C38.5494 107.068 37.0901 104.63 36.7761 101.195C36.7392 100.881 36.7761 100.549 36.8315 100.235C36.8685 100.031 36.9793 99.8467 37.164 99.3665C37.5334 99.4957 37.9398 99.5696 38.3092 99.6804C38.3092 99.6804 38.8449 99.8651 39.3621 100.142C44.8297 102.986 48.2838 108.749 48.2838 108.749C49.9463 111.519 51.5902 114.271 50.7775 115.139Z" fill="#EBAA01"/>
<path d="M27.2629 12.7625C27.7063 4.67277 37.8471 -1.79158 47.1198 0.443239C41.5599 6.50126 36.277 12.3561 27.2629 12.7625Z" fill="#EBAA01"/>
<path d="M15.6075 85.1817C9.80743 77.4614 10.2877 68.8361 16.568 63.6831C20.4655 70.9601 17.3069 77.72 15.6075 85.1817Z" fill="#EBAA01"/>
<path d="M10.0661 70.2026C6.55649 61.2448 9.34569 52.915 16.6973 49.6829C18.4706 57.7725 13.6311 63.5166 10.0661 70.2026Z" fill="#EBAA01"/>
<path d="M11.7476 38.0656C12.6157 29.2925 20.1706 22.7543 27.3744 24.3242C26.2846 29.4218 20.7247 34.3532 11.7476 38.0656Z" fill="#EBAA01"/>
<path d="M8.86461 54.0413C7.59008 44.7696 13.0761 36.5136 20.5386 36.4028C19.8921 44.4371 13.9997 48.759 8.86461 54.0413Z" fill="#EBAA01"/>
<path d="M37.8477 14.4429C33.156 21.2213 25.8043 21.9601 18.896 23.9363C20.1521 17.2872 30.7732 10.5274 37.8477 14.4429Z" fill="#EBAA01"/>
<path d="M20.2809 77.3511C25.6746 83.3352 24.6217 90.6122 24.8249 97.8154C17.2886 93.475 15.2197 81.8392 20.2809 77.3511Z" fill="#EBAA01"/>
<path d="M22.6084 98.9781C15.072 99.015 7.7019 92.366 6.021 83.9993C14.2408 85.9016 18.6185 92.1628 22.6084 98.9781Z" fill="#EBAA01"/>
<path d="M37.2194 108.435C28.5378 104.833 24.7881 97.7225 26.9862 89.208C34.0238 93.7331 34.8735 101.065 37.2194 108.435Z" fill="#EBAA01"/>
<path d="M50.1117 116.691C44.6257 121.456 32.3421 117.688 28.3523 112.184C36.4428 109.561 43.2773 113.2 50.1117 116.691Z" fill="#EBAA01"/>
<path d="M5.6696 30.604C10.1028 38.0103 8.73587 45.4536 6.77789 52.9153C1.40269 48.7781 0.885487 39.2293 5.6696 30.604Z" fill="#EBAA01"/>
<path d="M14.8501 15.1631C17.3438 23.3266 13.5756 30.0865 10.0475 36.7356C5.7806 31.7857 8.21884 20.4084 14.8501 15.1631Z" fill="#EBAA01"/>
<path d="M7.96051 69.7226C1.31078 66.1395 -1.82937 56.4245 1.08912 48.4087C7.53567 54.2081 7.31401 62.1131 7.96051 69.7226Z" fill="#EBAA01"/>
<path d="M17.3068 22.237C14.6469 15.9574 20.5024 5.35582 28.1865 2.25293C26.561 7.44288 26.8196 12.8914 22.1648 16.6038C20.3177 18.0814 19.0247 20.2238 17.3068 22.2555V22.237Z" fill="#EBAA01"/>
<path d="M1.1074 66.4722C8.68071 70.4985 11.0081 77.7571 13.1878 84.9787C6.70426 84.517 0.571729 75.2822 1.1074 66.4722Z" fill="#EBAA01"/>
<path d="M35.3172 109.728C27.7438 111.667 19.6903 107.511 14.8323 98.8677C19.0992 100.068 23.126 100.567 26.4693 102.321C29.7203 104.039 32.2509 107.087 35.3356 109.728H35.3172Z" fill="#EBAA01"/>
<path d="M165.227 115.139C166.668 116.654 174.832 111.501 177.455 107.068C177.455 107.068 178.915 104.63 179.229 101.195C179.266 100.881 179.229 100.549 179.173 100.235C179.136 100.031 179.025 99.8467 178.841 99.3665C178.471 99.4957 178.065 99.5696 177.696 99.6804C177.696 99.6804 177.16 99.8651 176.643 100.142C171.175 102.986 167.721 108.749 167.721 108.749C166.058 111.519 164.415 114.271 165.227 115.139Z" fill="#EBAA01"/>
<path d="M188.742 12.7625C188.299 4.67277 178.158 -1.79158 168.885 0.443239C174.445 6.50126 179.728 12.3561 188.742 12.7625Z" fill="#EBAA01"/>
<path d="M200.397 85.1817C206.197 77.4614 205.717 68.8361 199.437 63.6831C195.539 70.9601 198.698 77.72 200.397 85.1817Z" fill="#EBAA01"/>
<path d="M205.939 70.2026C209.448 61.2448 206.659 52.915 199.308 49.6829C197.534 57.7725 202.374 63.5166 205.939 70.2026Z" fill="#EBAA01"/>
<path d="M204.257 38.0656C203.389 29.2925 195.834 22.7543 188.631 24.3242C189.72 29.4218 195.28 34.3532 204.257 38.0656Z" fill="#EBAA01"/>
<path d="M207.139 54.0413C208.413 44.7696 202.927 36.5136 195.465 36.4028C196.111 44.4371 202.004 48.759 207.139 54.0413Z" fill="#EBAA01"/>
<path d="M178.158 14.4429C182.85 21.2213 190.202 21.9601 197.11 23.9363C195.854 17.2872 185.233 10.5274 178.158 14.4429Z" fill="#EBAA01"/>
<path d="M195.724 77.3511C190.33 83.3352 191.383 90.6122 191.18 97.8154C198.716 93.475 200.785 81.8392 195.724 77.3511Z" fill="#EBAA01"/>
<path d="M193.397 98.9781C200.933 99.015 208.303 92.366 209.984 83.9993C201.765 85.9016 197.387 92.1628 193.397 98.9781Z" fill="#EBAA01"/>
<path d="M178.785 108.435C187.467 104.833 191.217 97.7225 189.019 89.208C181.981 93.7331 181.131 101.065 178.785 108.435Z" fill="#EBAA01"/>
<path d="M165.892 116.691C171.378 121.456 183.662 117.688 187.652 112.184C179.561 109.561 172.727 113.2 165.892 116.691Z" fill="#EBAA01"/>
<path d="M210.335 30.604C205.902 38.0103 207.269 45.4536 209.227 52.9153C214.602 48.7781 215.119 39.2293 210.335 30.604Z" fill="#EBAA01"/>
<path d="M201.154 15.1631C198.66 23.3266 202.428 30.0865 205.957 36.7356C210.223 31.7857 207.785 20.4084 201.154 15.1631Z" fill="#EBAA01"/>
<path d="M208.044 69.7226C214.694 66.1395 217.834 56.4245 214.916 48.4087C208.469 54.2081 208.691 62.1131 208.044 69.7226Z" fill="#EBAA01"/>
<path d="M198.698 22.237C201.358 15.9574 195.502 5.35582 187.818 2.25293C189.444 7.44288 189.185 12.8914 193.84 16.6038C195.687 18.0814 196.98 20.2238 198.698 22.2555V22.237Z" fill="#EBAA01"/>
<path d="M214.897 66.4722C207.324 70.4985 204.997 77.7571 202.817 84.9787C209.3 84.517 215.433 75.2822 214.897 66.4722Z" fill="#EBAA01"/>
<path d="M180.706 109.728C188.28 111.667 196.333 107.511 201.191 98.8677C196.924 100.068 192.897 100.567 189.554 102.321C186.303 104.039 183.772 107.087 180.688 109.728H180.706Z" fill="#EBAA01"/>
<path d="M26.9866 53.4689C26.9866 48.0943 31.6414 43.8647 37.737 43.8647C41.3574 43.8647 44.9224 45.6193 46.4001 48.6484L41.8376 50.9386C40.988 49.5718 39.8427 48.6484 37.4968 48.6484C34.6338 48.6484 32.7312 50.6061 32.7312 53.4874C32.7312 56.3686 34.5784 58.3264 37.4968 58.3264C39.8427 58.3264 41.0803 57.4029 41.8376 56.0362L46.4001 58.3264C44.9224 61.3554 41.3574 63.11 37.737 63.11C31.6414 63.11 26.9866 58.8805 26.9866 53.5059V53.4689ZM47.453 62.6852V44.2526H53.0314V51.1972H61.0295V44.2526H66.6079V62.6852H61.0295V55.833H53.0314V62.6852H47.453ZM72.6296 47.1708C73.3869 44.899 75.4927 43.8463 77.6169 43.8463C79.7411 43.8463 81.8469 44.9175 82.6042 47.1708L87.8501 62.6852H82.1424L81.2004 59.5639H74.0519L73.0914 62.6852H67.3837L72.6296 47.1708ZM75.4373 55.0573H79.815L77.8755 48.6299C77.8201 48.4452 77.7462 48.3528 77.6354 48.3528C77.5245 48.3528 77.4507 48.4267 77.3953 48.6299L75.4373 55.0573ZM87.9979 62.6852L90.6762 47.2077C91.0642 45.0283 92.7635 43.8463 95.2018 43.8463C97.3075 43.8463 99.0992 44.6589 99.6719 46.7091L102.443 56.4795L105.195 46.7829C105.767 44.7328 107.615 43.8278 109.776 43.8278C112.159 43.8278 113.784 45.0283 114.154 47.2631L116.573 62.6668H110.921L109.296 49.6642L106.063 60.3211C105.546 61.9649 104.123 62.7591 102.443 62.7591C100.762 62.7591 99.2655 62.0019 98.8222 60.432L95.6266 49.6457L93.6686 62.6668H87.9979V62.6852ZM118.697 62.6852V44.2526H126.511C132.551 44.2526 136.079 46.8383 136.079 51.1418C136.079 55.4452 132.736 58.1787 126.806 58.1787H124.276V62.6483H118.697V62.6852ZM124.276 48.8885V53.5243H126.659C129.171 53.5243 130.335 52.6747 130.335 51.1233C130.335 49.6827 129.06 48.8885 126.659 48.8885H124.276ZM143.32 44.2526V62.6852H137.742V44.2526H143.32ZM145.13 53.4689C145.13 47.9835 149.711 43.8647 155.881 43.8647C162.05 43.8647 166.631 47.9835 166.631 53.4689C166.631 58.9544 162.05 63.0731 155.881 63.0731C149.711 63.0731 145.13 58.9544 145.13 53.4689ZM160.886 53.4689C160.886 50.7354 158.707 48.6299 155.881 48.6299C153.054 48.6299 150.875 50.7354 150.875 53.4689C150.875 56.2024 153.054 58.308 155.881 58.308C158.707 58.308 160.886 56.2024 160.886 53.4689ZM168.293 62.6852V46.9492C168.293 44.9914 169.993 43.8093 171.766 43.8093C173.188 43.8093 174.426 44.2526 175.146 45.2869L182.332 55.5745V44.2341H187.615V59.9702C187.615 61.928 185.915 63.0916 184.142 63.0916C182.757 63.0916 181.482 62.6483 180.762 61.614L173.576 51.3265V62.6852H168.293Z" fill="#EBAA01"/>
<path d="M67.4574 107.234V111.297H66.7739V107.234H67.4574ZM68.9351 109.856V111.297H68.2701V109.801C68.2701 108.933 68.8427 108.25 69.8956 108.25C70.9485 108.25 71.5396 108.933 71.5396 109.783V111.279H70.8746V109.856C70.8746 109.302 70.5421 108.822 69.8771 108.822C69.2122 108.822 68.9166 109.302 68.9166 109.856H68.9351ZM71.9644 109.819C71.9644 108.914 72.6848 108.25 73.6823 108.25C74.1256 108.25 74.5319 108.434 74.7906 108.693V106.957H75.4555V109.819C75.4555 110.706 74.6982 111.371 73.7192 111.371C72.7402 111.371 71.9829 110.669 71.9829 109.819H71.9644ZM74.7906 109.801C74.7906 109.265 74.3288 108.822 73.7007 108.822C73.0727 108.822 72.6109 109.265 72.6109 109.801C72.6109 110.337 73.0912 110.798 73.7007 110.798C74.3103 110.798 74.7906 110.355 74.7906 109.801ZM75.8619 109.801C75.8619 108.951 76.6377 108.25 77.6167 108.25C78.5957 108.25 79.353 108.951 79.353 109.801C79.353 110.651 78.5957 111.371 77.6167 111.371C76.6377 111.371 75.8619 110.669 75.8619 109.801ZM78.688 109.801C78.688 109.247 78.2262 108.804 77.6167 108.804C77.0071 108.804 76.5269 109.247 76.5269 109.801C76.5269 110.355 77.0071 110.78 77.6167 110.78C78.2262 110.78 78.688 110.337 78.688 109.801ZM80.4244 109.856V111.297H79.7594V109.801C79.7594 108.933 80.332 108.25 81.3849 108.25C82.4377 108.25 83.0288 108.933 83.0288 109.783V111.279H82.3639V109.856C82.3639 109.302 82.0314 108.822 81.3664 108.822C80.7014 108.822 80.4059 109.302 80.4059 109.856H80.4244ZM83.4352 109.783C83.4352 108.933 84.1186 108.231 85.0976 108.231C86.0766 108.231 86.7047 108.878 86.7047 109.709V109.949H84.0817C84.1556 110.466 84.5804 110.817 85.1715 110.817C85.5779 110.817 85.9289 110.651 86.132 110.337L86.6308 110.577C86.3352 111.094 85.818 111.352 85.1715 111.352C84.1741 111.352 83.4352 110.706 83.4352 109.783ZM86.0397 109.561C86.0212 109.081 85.6333 108.767 85.0976 108.767C84.562 108.767 84.1741 109.118 84.1186 109.561H86.0582H86.0397ZM87.0002 110.706L87.4989 110.447C87.6652 110.743 87.9422 110.854 88.2932 110.854C88.6442 110.854 88.9582 110.706 88.9582 110.447C88.9582 109.819 87.0741 110.3 87.0741 109.155C87.0741 108.637 87.5728 108.25 88.2932 108.25C88.9028 108.25 89.3091 108.508 89.5308 108.841L89.0321 109.099C88.8843 108.841 88.6257 108.748 88.3301 108.748C88.0346 108.748 87.7575 108.896 87.7575 109.136C87.7575 109.746 89.6416 109.302 89.6416 110.429C89.6416 110.983 89.0321 111.352 88.3486 111.352C87.7391 111.352 87.2773 111.131 87.0187 110.688L87.0002 110.706ZM90.1219 107.345C90.1219 107.123 90.3066 106.938 90.5652 106.938C90.8238 106.938 90.99 107.123 90.99 107.345C90.99 107.566 90.8053 107.732 90.5652 107.732C90.3251 107.732 90.1219 107.548 90.1219 107.345ZM90.8977 108.323V111.297H90.2327V108.323H90.8977ZM91.4334 109.801C91.4334 108.951 92.1907 108.25 93.1697 108.25C94.1487 108.25 94.906 108.914 94.906 109.801V111.297H94.278V110.78C94.0378 111.149 93.5945 111.371 93.0588 111.371C92.1168 111.371 91.4149 110.669 91.4149 109.801H91.4334ZM94.2595 109.801C94.2595 109.247 93.7977 108.804 93.1697 108.804C92.5416 108.804 92.0799 109.247 92.0799 109.801C92.0799 110.355 92.5601 110.78 93.1697 110.78C93.7792 110.78 94.2595 110.337 94.2595 109.801ZM97.8614 111.297C97.3996 111.297 97.2334 111.094 97.2334 110.743V107.806C97.2334 107.455 97.3996 107.252 97.8614 107.252H100.318V107.825H97.9168V109.007H100.189V109.579H97.9168V110.761H100.374V111.334H97.8614V111.297ZM101.537 109.856V111.297H100.872V109.801C100.872 108.933 101.445 108.25 102.498 108.25C103.551 108.25 104.142 108.933 104.142 109.783V111.279H103.477V109.856C103.477 109.302 103.144 108.822 102.479 108.822C101.814 108.822 101.519 109.302 101.519 109.856H101.537ZM104.567 109.783C104.567 108.933 105.25 108.231 106.229 108.231C107.208 108.231 107.836 108.878 107.836 109.709V109.949H105.213C105.287 110.466 105.712 110.817 106.303 110.817C106.709 110.817 107.06 110.651 107.263 110.337L107.762 110.577C107.467 111.094 106.949 111.352 106.303 111.352C105.305 111.352 104.567 110.706 104.567 109.783ZM107.171 109.561C107.153 109.081 106.765 108.767 106.229 108.767C105.693 108.767 105.305 109.118 105.25 109.561H107.19H107.171ZM108.279 111.297V109.524C108.279 108.804 108.741 108.268 109.591 108.268C109.794 108.268 110.016 108.305 110.182 108.379V108.97C110.016 108.878 109.831 108.841 109.646 108.841C109.203 108.841 108.944 109.118 108.944 109.542V111.279H108.279V111.297ZM110.219 111.925L110.773 111.648C110.958 111.962 111.327 112.184 111.807 112.184C112.491 112.184 112.971 111.74 112.971 111.038V110.798C112.749 111.112 112.362 111.334 111.807 111.334C110.884 111.334 110.145 110.669 110.145 109.801C110.145 108.933 110.884 108.25 111.881 108.25C112.879 108.25 113.618 108.914 113.618 109.801V111.02C113.618 112.054 112.86 112.719 111.807 112.719C111.105 112.719 110.514 112.442 110.219 111.907V111.925ZM112.953 109.783C112.953 109.228 112.472 108.822 111.863 108.822C111.253 108.822 110.773 109.247 110.773 109.783C110.773 110.318 111.253 110.761 111.863 110.761C112.472 110.761 112.953 110.318 112.953 109.783ZM114.172 111.943L114.726 111.666C114.911 111.98 115.28 112.184 115.723 112.184C116.425 112.184 116.776 111.703 116.776 111.075V110.817C116.592 111.149 116.241 111.352 115.742 111.352C114.744 111.352 114.246 110.761 114.246 109.875V108.342H114.892V109.856C114.892 110.411 115.206 110.798 115.816 110.798C116.425 110.798 116.758 110.355 116.758 109.819V108.36H117.423V111.094C117.423 112.091 116.776 112.775 115.723 112.775C115.021 112.775 114.449 112.516 114.153 111.98L114.172 111.943ZM119.602 111.297L120.23 107.695C120.286 107.345 120.563 107.16 120.932 107.16C121.246 107.16 121.523 107.308 121.634 107.622L122.502 110.447C122.502 110.447 122.521 110.521 122.558 110.521C122.595 110.521 122.613 110.521 122.632 110.447L123.481 107.622C123.574 107.308 123.869 107.16 124.183 107.16C124.534 107.16 124.811 107.345 124.867 107.714L125.439 111.297H124.756L124.257 107.917C124.257 107.917 124.22 107.769 124.146 107.769C124.091 107.769 124.054 107.806 124.017 107.899L123.093 110.798C123.02 111.038 122.798 111.168 122.558 111.168C122.318 111.168 122.096 111.038 122.022 110.817L121.099 107.899C121.099 107.899 121.043 107.769 120.969 107.769C120.895 107.769 120.858 107.806 120.858 107.917L120.304 111.316H119.602V111.297ZM125.735 109.801C125.735 108.951 126.492 108.25 127.471 108.25C128.45 108.25 129.208 108.914 129.208 109.801V111.297H128.58V110.78C128.339 111.149 127.896 111.371 127.36 111.371C126.418 111.371 125.716 110.669 125.716 109.801H125.735ZM128.561 109.801C128.561 109.247 128.099 108.804 127.471 108.804C126.843 108.804 126.381 109.247 126.381 109.801C126.381 110.355 126.862 110.78 127.471 110.78C128.081 110.78 128.561 110.337 128.561 109.801ZM129.836 111.297V109.524C129.836 108.804 130.297 108.268 131.147 108.268C131.35 108.268 131.572 108.305 131.738 108.379V108.97C131.572 108.878 131.387 108.841 131.202 108.841C130.759 108.841 130.501 109.118 130.501 109.542V111.279H129.836V111.297ZM131.683 109.801C131.683 108.951 132.422 108.25 133.419 108.25C134.417 108.25 135.155 108.914 135.155 109.801V111.297H134.527V110.78C134.287 111.149 133.844 111.371 133.308 111.371C132.366 111.371 131.664 110.669 131.664 109.801H131.683ZM134.509 109.801C134.509 109.247 134.047 108.804 133.419 108.804C132.791 108.804 132.329 109.247 132.329 109.801C132.329 110.355 132.809 110.78 133.419 110.78C134.029 110.78 134.509 110.337 134.509 109.801ZM136.024 110.226V108.841H135.377V108.323H136.024V107.548H136.688V108.323H137.945V108.841H136.688V110.207C136.688 110.595 136.947 110.817 137.335 110.817C137.557 110.817 137.778 110.743 137.945 110.632V111.186C137.778 111.297 137.52 111.352 137.28 111.352C136.467 111.352 136.024 110.891 136.024 110.207V110.226ZM138.591 111.297V106.957H139.256V108.656C139.515 108.416 139.903 108.25 140.346 108.25C141.306 108.25 141.842 108.822 141.842 109.746V111.297H141.177V109.801C141.177 109.265 140.863 108.822 140.235 108.822C139.662 108.822 139.238 109.247 139.238 109.819V111.297H138.573H138.591ZM142.248 109.801C142.248 108.951 143.024 108.25 144.003 108.25C144.982 108.25 145.74 108.951 145.74 109.801C145.74 110.651 144.982 111.371 144.003 111.371C143.024 111.371 142.248 110.669 142.248 109.801ZM145.075 109.801C145.075 109.247 144.613 108.804 144.003 108.804C143.394 108.804 142.913 109.247 142.913 109.801C142.913 110.355 143.394 110.78 144.003 110.78C144.613 110.78 145.075 110.337 145.075 109.801ZM146.811 109.856V111.297H146.146V109.801C146.146 108.933 146.719 108.25 147.771 108.25C148.824 108.25 149.415 108.933 149.415 109.783V111.279H148.75V109.856C148.75 109.302 148.418 108.822 147.753 108.822C147.088 108.822 146.792 109.302 146.792 109.856H146.811ZM85.5225 116.524C85.5225 115.36 86.5384 114.437 87.7945 114.437C88.5703 114.437 89.2722 114.788 89.6047 115.397L89.0505 115.693C88.7919 115.286 88.3486 115.046 87.776 115.046C86.9078 115.046 86.2244 115.693 86.2244 116.561C86.2244 117.429 86.9078 118.094 87.776 118.094C88.3486 118.094 88.8104 117.854 89.0505 117.447L89.6047 117.743C89.2722 118.334 88.5703 118.685 87.7945 118.685C86.5384 118.685 85.5225 117.761 85.5225 116.579V116.524ZM90.048 118.556V114.215H90.713V115.914C90.9716 115.674 91.3595 115.508 91.8028 115.508C92.7633 115.508 93.299 116.081 93.299 117.004V118.556H92.634V117.06C92.634 116.524 92.32 116.081 91.692 116.081C91.1193 116.081 90.6945 116.505 90.6945 117.078V118.556H90.0295H90.048ZM93.7053 117.06C93.7053 116.21 94.4442 115.508 95.4417 115.508C96.4391 115.508 97.178 116.173 97.178 117.06V118.556H96.55V118.038C96.3098 118.408 95.8665 118.629 95.3308 118.629C94.3888 118.629 93.6869 117.928 93.6869 117.06H93.7053ZM96.5315 117.078C96.5315 116.524 96.0697 116.081 95.4417 116.081C94.8136 116.081 94.3519 116.524 94.3519 117.078C94.3519 117.632 94.8321 118.057 95.4417 118.057C96.0512 118.057 96.5315 117.614 96.5315 117.078ZM98.6003 114.215V118.556H97.9353V114.215H98.6003ZM100.152 114.215V118.556H99.4869V114.215H100.152ZM100.688 117.06C100.688 116.21 101.371 115.508 102.35 115.508C103.329 115.508 103.957 116.155 103.957 116.986V117.226H101.334C101.408 117.743 101.833 118.094 102.424 118.094C102.83 118.094 103.181 117.928 103.384 117.614L103.883 117.854C103.588 118.371 103.07 118.629 102.424 118.629C101.426 118.629 100.688 117.983 100.688 117.06ZM103.274 116.838C103.255 116.358 102.867 116.044 102.332 116.044C101.796 116.044 101.408 116.395 101.353 116.838H103.292H103.274ZM105.065 117.115V118.556H104.4V117.06C104.4 116.191 104.973 115.508 106.026 115.508C107.079 115.508 107.67 116.191 107.67 117.041V118.537H107.005V117.115C107.005 116.561 106.672 116.081 106.007 116.081C105.342 116.081 105.047 116.561 105.047 117.115H105.065ZM108.169 119.184L108.723 118.907C108.907 119.221 109.277 119.442 109.757 119.442C110.441 119.442 110.921 118.999 110.921 118.297V118.057C110.699 118.371 110.311 118.593 109.757 118.593C108.833 118.593 108.095 117.928 108.095 117.06C108.095 116.191 108.833 115.508 109.831 115.508C110.828 115.508 111.567 116.173 111.567 117.06V118.279C111.567 119.313 110.81 119.978 109.757 119.978C109.055 119.978 108.464 119.701 108.169 119.165V119.184ZM110.902 117.06C110.902 116.505 110.422 116.099 109.812 116.099C109.203 116.099 108.723 116.524 108.723 117.06C108.723 117.595 109.203 118.038 109.812 118.038C110.422 118.038 110.902 117.595 110.902 117.06ZM111.992 117.06C111.992 116.21 112.676 115.508 113.655 115.508C114.634 115.508 115.262 116.155 115.262 116.986V117.226H112.639C112.713 117.743 113.137 118.094 113.728 118.094C114.135 118.094 114.486 117.928 114.689 117.614L115.188 117.854C114.892 118.371 114.375 118.629 113.728 118.629C112.731 118.629 111.992 117.983 111.992 117.06ZM114.578 116.838C114.56 116.358 114.172 116.044 113.636 116.044C113.1 116.044 112.713 116.395 112.657 116.838H114.597H114.578ZM117.829 118.556C117.423 118.556 117.22 118.352 117.22 118.075C117.22 117.891 117.312 117.724 117.515 117.558L118.845 116.487C119.214 116.191 119.399 115.951 119.399 115.619C119.399 115.25 119.067 114.991 118.623 114.991C118.18 114.991 117.829 115.231 117.626 115.6L117.09 115.342C117.386 114.788 117.94 114.418 118.66 114.418C119.492 114.418 120.083 114.936 120.083 115.582C120.083 116.081 119.842 116.45 119.418 116.783L118.088 117.854C118.088 117.854 118.014 117.928 118.014 117.965C118.014 117.965 118.014 118.002 118.051 118.002H120.193V118.574H117.829V118.556ZM120.544 116.524C120.544 115.342 121.265 114.437 122.336 114.437C123.407 114.437 124.128 115.342 124.128 116.524C124.128 117.706 123.407 118.648 122.336 118.648C121.265 118.648 120.544 117.706 120.544 116.524ZM123.426 116.524C123.426 115.693 122.964 115.065 122.336 115.065C121.708 115.065 121.246 115.693 121.246 116.524C121.246 117.355 121.708 118.002 122.336 118.002C122.964 118.002 123.426 117.337 123.426 116.524ZM125.698 118.556V115.213C125.698 115.213 125.698 115.176 125.661 115.176C125.624 115.176 125.606 115.176 125.569 115.213L124.534 115.748L124.22 115.176L125.365 114.603C125.532 114.511 125.716 114.455 125.901 114.455C126.178 114.455 126.363 114.622 126.363 114.936V118.593H125.679L125.698 118.556ZM129.263 118.556V117.798H127.564C127.157 117.798 126.936 117.614 126.936 117.355C126.936 117.226 126.991 117.078 127.102 116.93L128.783 114.788C128.949 114.585 129.097 114.437 129.411 114.437C129.688 114.437 129.891 114.622 129.891 114.899V117.281H130.611V117.817H129.891V118.574H129.226L129.263 118.556ZM129.263 117.263V115.213C129.263 115.213 129.263 115.139 129.208 115.139C129.152 115.139 129.134 115.176 129.097 115.231L127.619 117.152C127.619 117.152 127.601 117.189 127.601 117.207C127.601 117.244 127.637 117.244 127.674 117.244H129.281L129.263 117.263Z" fill="#EBAA01"/>
<path d="M41.3757 26.116C41.3757 19.1899 47.2866 13.7229 55.2293 13.7229C59.9026 13.7229 64.4836 15.9023 66.3861 19.8917L60.5122 22.8469C59.4224 21.0553 57.9447 19.8548 54.9153 19.8548C51.221 19.8548 48.7643 22.4959 48.7643 26.2268C48.7643 29.9577 51.258 32.6357 55.2293 32.6357C57.3351 32.6357 58.6466 32.4511 59.7733 31.546L59.7364 26.6516H66.7371V33.6885C64.7052 36.4959 60.5122 38.5091 55.2293 38.5091C47.379 38.5091 41.3757 33.0605 41.3757 26.116ZM69.4709 37.9919V14.2216H80.4799C86.7047 14.2216 91.4519 16.8627 91.4519 22.1081C91.4519 25.2479 89.5124 27.8152 86.4277 28.6833C87.7576 29.459 88.6073 30.8257 89.771 32.9867L92.4494 37.9919H84.6359L82.1792 33.5223C81.2926 31.897 80.2767 31.3059 77.9308 31.3059H76.6009L76.5639 37.9919H69.4524H69.4709ZM76.6563 20.2057L76.6193 25.525H80.4614C82.5671 25.525 84.0449 24.4722 84.0449 22.773C84.0449 20.9814 82.5671 20.2057 80.5353 20.2057H76.6378H76.6563ZM99.4131 17.9894C100.392 15.0712 103.107 13.6859 105.823 13.6859C108.538 13.6859 111.272 15.0527 112.232 17.9894L118.993 37.9919H111.641L110.441 33.984H101.223L99.9857 37.9919H92.6341L99.3947 17.9894H99.4131ZM103.034 28.1661H108.667L106.174 19.8917C106.1 19.6516 106.026 19.5408 105.86 19.5408C105.693 19.5408 105.62 19.6516 105.546 19.8917L103.015 28.1661H103.034ZM120.563 37.9919V17.7123C120.563 15.182 122.743 13.6675 125.033 13.6675C126.862 13.6675 128.45 14.24 129.392 15.5698L138.647 28.8495V14.24H145.463V34.5196C145.463 37.05 143.283 38.5275 140.992 38.5275C139.201 38.5275 137.575 37.9735 136.633 36.6252L127.379 23.3455V37.9919H120.581H120.563ZM159.926 37.9919H149.545V14.2216H159.926C168.515 14.2216 174.241 18.9683 174.241 26.1899C174.241 33.4115 168.33 37.9735 159.926 37.9735V37.9919ZM159.926 20.2057H156.73V32.174H159.926C164.119 32.174 166.853 29.773 166.853 26.1899C166.853 22.6068 164.137 20.2057 159.926 20.2057Z" fill="#EBAA01"/>
<path d="M35.9268 84.8681V71.4038C35.9268 69.5014 36.9242 68.3009 39.4363 68.3009H49.06V71.6254H39.8981V75.9658H48.4319V79.2718H39.8981V84.8866H35.9268V84.8681ZM49.4294 76.5937C49.4294 71.7178 53.5301 68.0054 58.9422 68.0054C64.3544 68.0054 68.492 71.7178 68.492 76.5937C68.492 81.4697 64.3544 85.1821 58.9422 85.1821C53.5301 85.1821 49.4294 81.4882 49.4294 76.5937ZM64.3913 76.5937C64.3913 73.6571 62.027 71.4038 58.9422 71.4038C55.8575 71.4038 53.5116 73.6755 53.5116 76.5937C53.5116 79.5119 55.9129 81.7837 58.9422 81.7837C61.9715 81.7837 64.3913 79.5119 64.3913 76.5937ZM70.0436 77.4987V68.2824H74.0149V77.4249C74.0149 80.3061 75.3264 81.7098 78.0048 81.7098C80.6832 81.7098 81.9946 80.3061 81.9946 77.4249V68.2824H85.966V77.4987C85.966 82.2824 83.4354 85.1267 78.0048 85.1267C72.5742 85.1267 70.0436 82.2639 70.0436 77.4987ZM89.0692 84.8681V68.2824H96.1068C100.244 68.2824 103.422 70.037 103.422 73.5462C103.422 75.818 101.944 77.5541 99.6164 78.1267C100.78 78.7177 101.464 79.8444 102.424 81.5805L104.197 84.8496H99.8935L98.268 81.8945C97.4183 80.3615 96.6425 79.5489 94.5737 79.5489H93.0221V84.8496H89.0692V84.8681ZM93.0406 71.6069V76.3536H96.1068C97.9909 76.3536 99.3393 75.4671 99.3393 73.9156C99.3393 72.3642 97.954 71.6069 96.1623 71.6069H93.0406ZM111.327 76.5937C111.327 71.8101 115.41 68.0054 120.822 68.0054C123.943 68.0054 127.047 69.4275 128.413 72.0871L125.181 73.7309C124.257 72.2534 122.835 71.3668 120.674 71.3668C117.608 71.3668 115.428 73.6386 115.428 76.6307C115.428 79.6227 117.626 81.9314 120.84 81.9314C122.632 81.9314 123.943 81.5066 124.793 80.7309V77.0555H128.635V81.9314C127.305 83.7599 124.479 85.2006 120.859 85.2006C115.502 85.2006 111.364 81.3589 111.364 76.5753L111.327 76.5937ZM129.448 76.5937C129.448 71.7178 133.549 68.0054 138.961 68.0054C144.373 68.0054 148.51 71.7178 148.51 76.5937C148.51 81.4697 144.373 85.1821 138.961 85.1821C133.549 85.1821 129.448 81.4882 129.448 76.5937ZM144.41 76.5937C144.41 73.6571 142.045 71.4038 138.961 71.4038C135.876 71.4038 133.53 73.6755 133.53 76.5937C133.53 79.5119 135.931 81.7837 138.961 81.7837C141.99 81.7837 144.41 79.5119 144.41 76.5937ZM154.495 81.5436H163.029V84.8681H154.033C151.503 84.8681 150.524 83.686 150.524 81.7837V68.2824H154.495V81.5251V81.5436ZM171.156 84.8681H164.414V68.2824H171.249C177.178 68.2824 181.113 71.5885 181.113 76.5753C181.113 81.562 176.92 84.8496 171.156 84.8496V84.8681ZM171.23 71.6069H168.367V81.6359H171.138C174.574 81.6359 177.012 79.6966 177.012 76.5937C177.012 73.4908 174.666 71.6254 171.212 71.6254L171.23 71.6069Z" fill="#EBAA01"/>
<path d="M68.5664 102.432L70.4136 91.8302C70.6537 90.5558 71.6511 89.8725 73.018 89.8725C74.2372 89.8725 75.2716 90.3527 75.5856 91.5347L77.876 99.2366L77.8945 99.292C77.913 99.292 77.9314 99.292 77.9314 99.2366L80.185 91.5901C80.5359 90.4081 81.5888 89.8725 82.8079 89.8725C84.1563 89.8725 85.1353 90.5743 85.3385 91.8857L87.0194 102.432H84.027L82.7156 92.7537C82.7156 92.7537 82.6971 92.606 82.6232 92.606C82.5678 92.606 82.5309 92.6429 82.4939 92.7168L79.9633 100.88C79.6862 101.822 78.8735 102.266 77.8945 102.266C76.9155 102.266 76.0843 101.822 75.8442 100.936L73.3136 92.7168C73.3136 92.7168 73.2582 92.606 73.2212 92.606C73.1658 92.606 73.0919 92.6429 73.0919 92.7353L71.5588 102.432H68.5664ZM91.1755 102.432C89.2914 102.432 88.571 101.545 88.571 100.142V92.4028C88.571 90.9991 89.2914 90.0941 91.1755 90.0941H98.3794V92.4952H91.5265V95.0624H97.9545V97.4635H91.5265V100.031H98.5087V102.432H91.1755ZM105.399 102.432H100.374V90.1126H105.454C109.869 90.1126 112.806 92.569 112.806 96.2814C112.806 99.9938 109.684 102.432 105.399 102.432ZM105.454 92.569H103.33V100.031H105.399C107.948 100.031 109.776 98.5901 109.776 96.2814C109.776 93.9727 108.04 92.5875 105.472 92.5875L105.454 92.569ZM116.666 91.8302C117.128 90.5004 118.347 89.854 119.622 89.854C120.896 89.854 122.134 90.5004 122.596 91.8302L126.197 102.413H123.187L122.392 99.883H116.869L116.075 102.413H113.064L116.666 91.8302ZM117.645 97.5189H121.635L120.102 92.6244C120.028 92.3659 119.899 92.255 119.659 92.255C119.437 92.255 119.289 92.3659 119.215 92.6244L117.664 97.5189H117.645ZM130.464 99.9569H136.819V102.432H130.113C128.229 102.432 127.509 101.545 127.509 100.142V90.0941H130.464V99.9569ZM136.911 99.9753L139.386 98.8672C139.829 99.7722 140.79 100.215 142.194 100.215C143.468 100.215 144.447 99.7352 144.447 98.8672C144.447 97.8329 143.376 97.6851 141.954 97.4635C139.903 97.1495 137.133 96.4846 137.133 93.7141C137.133 91.5532 139.275 89.9094 142.083 89.9094C144.336 89.9094 146.276 90.8514 147.144 92.606L144.669 93.7141C144.226 92.92 143.339 92.3843 141.954 92.3843C140.845 92.3843 140.07 92.8645 140.07 93.6033C140.07 94.6007 141.196 94.8408 142.674 95.0809C144.706 95.3949 147.366 96.0598 147.366 98.8487C147.366 101.065 145.057 102.672 142.157 102.672C139.7 102.672 137.742 101.73 136.874 99.9753H136.911Z" fill="#EBAA01"/>
</g>
<defs>
<clipPath id="clip0_351_7534">
<rect width="216" height="120" fill="white"/>
</clipPath>
</defs>
</svg>
