<svg width="218" height="120" viewBox="0 0 218 120" fill="none" xmlns="http://www.w3.org/2000/svg">
<g clip-path="url(#clip0_351_7493)">
<path d="M51.2472 116.233C49.7932 117.762 41.5534 112.56 38.9062 108.085C38.9062 108.085 37.4335 105.624 37.1166 102.156C37.0793 101.839 37.1166 101.503 37.1725 101.186C37.2098 100.981 37.3216 100.795 37.5081 100.31C37.8809 100.441 38.291 100.515 38.6639 100.627C38.6639 100.627 39.2045 100.813 39.7265 101.093C45.2445 103.965 48.7306 109.782 48.7306 109.782C50.4083 112.579 52.0675 115.357 51.2472 116.233Z" fill="#EBAA01"/>
<path d="M27.5164 12.8835C27.9638 4.71697 38.1982 -1.80882 47.5565 0.447242C41.9453 6.56284 36.6137 12.4733 27.5164 12.8835Z" fill="#EBAA01"/>
<path d="M15.7534 85.9912C9.89981 78.1976 10.3845 69.4903 16.7228 64.2883C20.6563 71.6345 17.4685 78.4586 15.7534 85.9912Z" fill="#EBAA01"/>
<path d="M10.1605 70.87C6.61856 61.8271 9.43351 53.4182 16.853 50.1553C18.6427 58.3218 13.7585 64.1205 10.1605 70.87Z" fill="#EBAA01"/>
<path d="M11.8564 38.4276C12.7326 29.5712 20.3572 22.9708 27.6276 24.5557C26.5277 29.7017 20.9165 34.68 11.8564 38.4276Z" fill="#EBAA01"/>
<path d="M8.94859 54.5551C7.66229 45.1953 13.199 36.8609 20.7304 36.749C20.0779 44.8597 14.1311 49.2226 8.94859 54.5551Z" fill="#EBAA01"/>
<path d="M38.198 14.5801C33.4629 21.4229 26.0434 22.1687 19.0713 24.1637C20.3389 17.4515 31.0581 10.6274 38.198 14.5801Z" fill="#EBAA01"/>
<path d="M20.4699 78.0854C25.9134 84.1265 24.8508 91.4726 25.0558 98.7442C17.4499 94.3626 15.362 82.6162 20.4699 78.0854Z" fill="#EBAA01"/>
<path d="M22.8182 99.919C15.2122 99.9563 7.77406 93.2441 6.07764 84.7979C14.3733 86.7183 18.7915 93.039 22.8182 99.919Z" fill="#EBAA01"/>
<path d="M37.5644 109.465C28.8027 105.83 25.0183 98.6513 27.2367 90.0559C34.3394 94.624 35.1969 102.026 37.5644 109.465Z" fill="#EBAA01"/>
<path d="M50.5765 117.8C45.0398 122.61 32.6429 118.807 28.6162 113.25C36.7814 110.603 43.679 114.276 50.5765 117.8Z" fill="#EBAA01"/>
<path d="M5.72381 30.8948C10.1979 38.3715 8.81839 45.8855 6.84234 53.4181C1.4175 49.2416 0.895524 39.602 5.72381 30.8948Z" fill="#EBAA01"/>
<path d="M14.9888 15.3076C17.5055 23.5488 13.7025 30.3729 10.1419 37.0851C5.83554 32.0882 8.29629 20.6028 14.9888 15.3076Z" fill="#EBAA01"/>
<path d="M8.03503 70.3854C1.3239 66.7682 -1.84525 56.9609 1.10019 48.8689C7.60626 54.7235 7.38256 62.7036 8.03503 70.3854Z" fill="#EBAA01"/>
<path d="M17.4683 22.4482C14.7839 16.1088 20.6934 5.40655 28.4485 2.27417C26.808 7.51345 27.069 13.0138 22.3712 16.7614C20.507 18.253 19.2021 20.4159 17.4683 22.4668V22.4482Z" fill="#EBAA01"/>
<path d="M1.11893 67.1038C8.76217 71.1684 11.1111 78.4959 13.3108 85.7862C6.76747 85.32 0.578316 75.9975 1.11893 67.1038Z" fill="#EBAA01"/>
<path d="M35.6433 110.771C28 112.728 19.8721 108.533 14.9692 99.8074C19.2755 101.019 23.3395 101.523 26.7137 103.294C29.9947 105.028 32.5487 108.104 35.6619 110.771H35.6433Z" fill="#EBAA01"/>
<path d="M166.753 116.234C168.207 117.763 176.447 112.561 179.094 108.086C179.094 108.086 180.566 105.625 180.883 102.157C180.921 101.84 180.883 101.504 180.827 101.187C180.79 100.982 180.678 100.796 180.492 100.311C180.119 100.442 179.709 100.516 179.336 100.628C179.336 100.628 178.795 100.814 178.273 101.094C172.755 103.965 169.269 109.783 169.269 109.783C167.592 112.58 165.932 115.358 166.753 116.234Z" fill="#EBAA01"/>
<path d="M190.485 12.8843C190.037 4.71771 179.803 -1.80809 170.445 0.447974C176.056 6.56357 181.387 12.4741 190.485 12.8843Z" fill="#EBAA01"/>
<path d="M202.248 85.9912C208.102 78.1976 207.617 69.4903 201.279 64.2883C197.345 71.6345 200.533 78.4586 202.248 85.9912Z" fill="#EBAA01"/>
<path d="M207.84 70.87C211.382 61.8271 208.568 53.4182 201.148 50.1553C199.358 58.3218 204.243 64.1205 207.84 70.87Z" fill="#EBAA01"/>
<path d="M206.144 38.4279C205.268 29.5714 197.643 22.9711 190.373 24.5559C191.472 29.7019 197.084 34.6802 206.144 38.4279Z" fill="#EBAA01"/>
<path d="M209.052 54.5556C210.338 45.1958 204.801 36.8614 197.27 36.7495C197.922 44.8601 203.869 49.2231 209.052 54.5556Z" fill="#EBAA01"/>
<path d="M179.803 14.5801C184.538 21.4229 191.958 22.1687 198.93 24.1637C197.662 17.4515 186.943 10.6274 179.803 14.5801Z" fill="#EBAA01"/>
<path d="M197.531 78.0862C192.088 84.1272 193.15 91.4734 192.945 98.745C200.551 94.3634 202.639 82.6169 197.531 78.0862Z" fill="#EBAA01"/>
<path d="M195.183 99.919C202.789 99.9563 210.227 93.2441 211.923 84.7979C203.627 86.7183 199.209 93.039 195.183 99.919Z" fill="#EBAA01"/>
<path d="M180.436 109.465C189.198 105.83 192.982 98.6513 190.764 90.0559C183.661 94.624 182.804 102.026 180.436 109.465Z" fill="#EBAA01"/>
<path d="M167.424 117.8C172.961 122.61 185.358 118.807 189.384 113.25C181.219 110.603 174.322 114.276 167.424 117.8Z" fill="#EBAA01"/>
<path d="M212.277 30.895C207.803 38.3717 209.183 45.8857 211.159 53.4183C216.583 49.2418 217.105 39.6023 212.277 30.895Z" fill="#EBAA01"/>
<path d="M203.011 15.3076C200.495 23.5488 204.298 30.3729 207.858 37.0851C212.165 32.0882 209.704 20.6028 203.011 15.3076Z" fill="#EBAA01"/>
<path d="M209.965 70.3854C216.676 66.7682 219.845 56.9609 216.9 48.8689C210.394 54.7235 210.618 62.7036 209.965 70.3854Z" fill="#EBAA01"/>
<path d="M200.533 22.4489C203.217 16.1096 197.308 5.40728 189.552 2.2749C191.193 7.51418 190.932 13.0145 195.63 16.7622C197.494 18.2538 198.799 20.4166 200.533 22.4676V22.4489Z" fill="#EBAA01"/>
<path d="M216.881 67.1038C209.238 71.1684 206.889 78.4959 204.689 85.7862C211.233 85.32 217.422 75.9975 216.881 67.1038Z" fill="#EBAA01"/>
<path d="M182.375 110.771C190.018 112.728 198.146 108.533 203.049 99.8074C198.743 101.019 194.679 101.523 191.304 103.294C188.023 105.028 185.469 108.104 182.356 110.771H182.375Z" fill="#EBAA01"/>
<path d="M46.5305 29.7021L49.7369 28.2478C50.1284 29.0122 50.93 29.3665 52.235 29.3665C53.2603 29.3665 54.0246 29.0868 54.0246 28.4901C54.0246 27.7443 53.1857 27.6325 51.9367 27.4647C49.8488 27.185 46.7729 26.4578 46.7729 23.4187C46.7729 21.088 49.0845 19.2981 52.1977 19.2981C54.6398 19.2981 56.7277 20.2863 57.6785 22.1694L54.472 23.6238C54.0805 23.0085 53.3349 22.5051 52.0299 22.5051C51.1165 22.5051 50.6131 22.7661 50.6131 23.2882C50.6131 23.9967 51.5266 24.2204 52.9061 24.4255C54.9754 24.7052 57.8835 25.4137 57.8835 28.4715C57.8835 30.8021 55.3668 32.5921 52.2536 32.5921C49.5878 32.5921 47.5185 31.6039 46.5678 29.7207L46.5305 29.7021ZM59.263 32.2937V19.5964H63.1033V24.3696H68.6027V19.5964H72.443V32.2937H68.6027V27.5765H63.1033V32.2937H59.263ZM77.8678 32.2937C75.5002 32.2937 74.5495 31.175 74.5495 29.3851V22.5237C74.5495 20.7338 75.5002 19.6151 77.8678 19.6151H85.045V22.7102H78.3711V24.4069H84.5603V27.5019H78.3711V29.1987H85.1382V32.2937H77.8491H77.8678ZM90.6562 29.0868H96.8454V32.2751H90.1342C87.7667 32.2751 86.816 31.1564 86.816 29.3665V19.5964H90.6562V29.0868ZM101.525 29.0868H107.714V32.2751H101.003C98.635 32.2751 97.6843 31.1564 97.6843 29.3665V19.5964H101.525V29.0868ZM113.325 32.2937V19.5964H117.165V24.3696H122.665V19.5964H126.505V32.2937H122.665V27.5765H117.165V32.2937H113.325ZM131.93 32.2937C129.562 32.2937 128.611 31.175 128.611 29.3851V22.5237C128.611 20.7338 129.562 19.6151 131.93 19.6151H139.107V22.7102H132.433V24.4069H138.622V27.5019H132.433V29.1987H139.2V32.2937H131.911H131.93ZM144.718 29.0868H150.907V32.2751H144.196C141.829 32.2751 140.878 31.1564 140.878 29.3665V19.5964H144.718V29.0868ZM155.586 19.5964V32.2937H151.746V19.5964H155.586ZM156.313 32.2937L159.427 27.5019C159.949 26.7189 160.135 26.2527 160.135 25.8239C160.135 25.395 159.93 24.9476 159.427 24.1645L156.444 19.5964H160.937L163.062 23.0831C163.304 23.4932 163.509 23.9221 163.658 24.3882H164.758C164.907 23.9407 165.113 23.5119 165.355 23.0831L167.48 19.5964H171.973L168.99 24.1645C168.487 24.9289 168.282 25.3764 168.282 25.8239C168.282 26.2714 168.468 26.7002 168.99 27.5019L172.103 32.2937H167.517L165.373 28.8258C165.131 28.4156 164.907 28.0054 164.777 27.5579H163.677C163.528 27.9867 163.323 28.3969 163.081 28.8258L160.937 32.2937H156.351H156.313Z" fill="#EBAA01"/>
<path d="M41.0869 46.128H35.1028V60.5033H29.3051V46.128H23.321V41.2802H41.1055V46.128H41.0869ZM42.4851 60.5033V41.2802H51.3587C56.3734 41.2802 60.2136 43.4244 60.2136 47.6569C60.2136 50.1926 58.6477 52.2622 56.1683 52.9894C57.2309 53.6233 57.9207 54.7234 58.8714 56.4574L61.0339 60.5033H54.7329L52.7568 56.8862C52.0298 55.581 51.2282 55.0963 49.3453 55.0963H48.2827L48.2454 60.5033H42.5037H42.4851ZM48.3014 46.128L48.2641 50.435H51.3773C53.0737 50.435 54.2668 49.5773 54.2668 48.2162C54.2668 46.7619 53.0737 46.128 51.4519 46.128H48.32H48.3014ZM69.0313 41.2802V60.5033H63.2336V41.2802H69.0313ZM72.4801 60.5033V41.2802H81.3537C86.6853 41.2802 89.8918 43.4244 89.8918 46.7246C89.8918 48.7942 88.6987 50.2299 86.8531 50.9757C88.736 51.5537 90.0595 52.747 90.0595 55.0776C90.0595 58.6575 86.5362 60.522 81.3724 60.522H72.4987L72.4801 60.5033ZM78.2778 48.8874H81.6706C83.3111 48.8874 84.0941 48.2535 84.0941 47.1534C84.0941 46.1839 83.3484 45.55 81.6706 45.55H78.2778V48.8874ZM78.2778 56.2336H81.6706C83.3111 56.2336 84.2432 55.8048 84.2432 54.7047C84.2432 53.5114 83.2925 53.1572 81.6706 53.1572H78.2778V56.2336ZM90.9916 50.9197C90.9916 45.1957 95.764 40.8887 102.158 40.8887C108.552 40.8887 113.325 45.1957 113.325 50.9197C113.325 56.6438 108.552 60.9508 102.158 60.9508C95.764 60.9508 90.9916 56.6438 90.9916 50.9197ZM107.378 50.9197C107.378 48.067 105.122 45.8856 102.177 45.8856C99.2314 45.8856 96.9757 48.0857 96.9757 50.9197C96.9757 53.7538 99.2314 55.9539 102.177 55.9539C105.122 55.9539 107.378 53.7538 107.378 50.9197ZM121.024 55.6743H130.382V60.522H120.241C116.662 60.522 115.226 58.8066 115.226 56.1031V41.2989H121.024V55.6743ZM130.047 50.9197C130.047 45.1957 134.819 40.8887 141.213 40.8887C147.608 40.8887 152.38 45.1957 152.38 50.9197C152.38 56.6438 147.608 60.9508 141.213 60.9508C134.819 60.9508 130.047 56.6438 130.047 50.9197ZM146.433 50.9197C146.433 48.067 144.177 45.8856 141.232 45.8856C138.286 45.8856 136.031 48.0857 136.031 50.9197C136.031 53.7538 138.286 55.9539 141.232 55.9539C144.177 55.9539 146.433 53.7538 146.433 50.9197ZM152.697 50.9197C152.697 45.3076 157.469 40.8887 163.863 40.8887C167.629 40.8887 171.339 42.66 172.867 45.8669L168.132 48.2535C167.256 46.7992 166.063 45.8296 163.621 45.8296C160.638 45.8296 158.662 47.9738 158.662 50.9757C158.662 53.9775 160.676 56.159 163.863 56.159C165.56 56.159 166.622 56.0099 167.536 55.2827L167.499 51.3299H173.147V57.0353C171.507 59.3101 168.132 60.9322 163.863 60.9322C157.525 60.9322 152.697 56.5133 152.697 50.9011V50.9197ZM172.998 41.2802H179.243L183.344 50.6214L187.39 41.2802H193.635L188.489 52.2249C187.949 53.3436 187.166 54.1826 186.252 54.7606V60.522H180.455V54.8352C179.523 54.2572 178.702 53.4182 178.125 52.2436L172.979 41.2989L172.998 41.2802Z" fill="#EBAA01"/>
<path d="M62.1897 114.613L62.7862 114.351C62.9727 114.724 63.3641 114.911 63.9234 114.911C64.4827 114.911 64.8928 114.668 64.8928 114.258C64.8928 113.792 64.4081 113.699 63.8675 113.606C63.1591 113.475 62.2829 113.27 62.2829 112.356C62.2829 111.647 62.9913 111.107 63.8861 111.107C64.5945 111.107 65.247 111.405 65.5266 112.002L64.9301 112.282C64.7437 111.927 64.3895 111.722 63.8675 111.722C63.3828 111.722 63.0099 111.983 63.0099 112.337C63.0099 112.804 63.5133 112.897 64.0725 113.009C64.7809 113.139 65.6385 113.344 65.6385 114.258C65.6385 115.004 64.8928 115.526 63.9607 115.526C63.1591 115.526 62.5066 115.209 62.227 114.613H62.1897ZM66.2909 115.452V110.902H66.9807V112.692C67.2417 112.431 67.6705 112.263 68.1179 112.263C69.1245 112.263 69.7024 112.878 69.7024 113.829V115.47H69.0127V113.904C69.0127 113.344 68.6771 112.878 68.0247 112.878C67.4095 112.878 66.9807 113.326 66.9807 113.923V115.47H66.2909V115.452ZM70.1498 113.867C70.1498 112.972 70.8582 112.226 71.8836 112.226C72.9089 112.226 73.5613 112.916 73.5613 113.773V114.034H70.8023C70.8769 114.575 71.3243 114.948 71.9395 114.948C72.3682 114.948 72.7411 114.78 72.9462 114.445L73.4868 114.687C73.1885 115.228 72.6292 115.508 71.9581 115.508C70.9142 115.508 70.1312 114.818 70.1312 113.848L70.1498 113.867ZM72.8716 113.643C72.8343 113.139 72.4428 112.804 71.8649 112.804C71.287 112.804 70.8955 113.177 70.8396 113.643H72.8716ZM74.8849 110.883V115.433H74.1952V110.883H74.8849ZM76.5068 110.883V115.433H75.817V110.883H76.5068ZM79.7505 115.452C79.2658 115.452 79.098 115.228 79.098 114.874V111.778C79.098 111.424 79.2658 111.2 79.7505 111.2H82.3417V111.797H79.8064V113.046H82.1926V113.643H79.8064V114.892H82.379V115.489H79.7505V115.452ZM82.7146 113.885C82.7146 112.99 83.5162 112.244 84.5042 112.244C85.138 112.244 85.716 112.505 86.0329 113.065L85.455 113.363C85.2499 113.027 84.9143 112.841 84.5042 112.841C83.9077 112.841 83.4043 113.307 83.4043 113.867C83.4043 114.426 83.9077 114.911 84.5042 114.911C84.9143 114.911 85.2499 114.724 85.455 114.389L86.0329 114.668C85.716 115.228 85.138 115.489 84.5042 115.489C83.5162 115.489 82.7146 114.762 82.7146 113.848V113.885ZM86.182 113.885C86.182 112.99 86.9836 112.244 88.0276 112.244C89.0715 112.244 89.8545 112.99 89.8545 113.885C89.8545 114.78 89.0529 115.526 88.0276 115.526C87.0023 115.526 86.182 114.78 86.182 113.885ZM89.1647 113.885C89.1647 113.307 88.68 112.841 88.0276 112.841C87.3751 112.841 86.8904 113.307 86.8904 113.885C86.8904 114.463 87.3937 114.93 88.0276 114.93C88.6614 114.93 89.1647 114.463 89.1647 113.885ZM92.9863 113.773H90.5629V113.195H92.9863V113.773ZM99.7907 113.811V115.452H99.1009V113.904C99.1009 113.344 98.784 112.841 98.1502 112.841C97.5164 112.841 97.1994 113.326 97.1994 113.885V115.433H96.5097V113.885C96.5097 113.307 96.1928 112.841 95.5589 112.841C94.9251 112.841 94.6268 113.344 94.6268 113.904V115.452H93.9371V113.811C93.9371 112.934 94.4777 112.244 95.5217 112.244C96.2114 112.244 96.7148 112.561 96.8825 113.046C97.069 112.561 97.5536 112.244 98.2061 112.244C99.2501 112.244 99.8093 112.953 99.8093 113.811H99.7907ZM100.238 113.885C100.238 112.99 101.021 112.244 102.065 112.244C103.109 112.244 103.892 112.953 103.892 113.885V115.452H103.239V114.911C102.978 115.303 102.531 115.526 101.953 115.526C100.946 115.526 100.219 114.78 100.219 113.885H100.238ZM103.202 113.885C103.202 113.307 102.717 112.841 102.065 112.841C101.413 112.841 100.928 113.307 100.928 113.885C100.928 114.463 101.431 114.93 102.065 114.93C102.699 114.93 103.202 114.463 103.202 113.885ZM104.544 115.452V113.587C104.544 112.822 105.029 112.263 105.924 112.263C106.148 112.263 106.371 112.3 106.539 112.375V112.99C106.371 112.897 106.166 112.86 105.98 112.86C105.514 112.86 105.234 113.139 105.234 113.606V115.433H104.544V115.452ZM106.502 113.885C106.502 112.99 107.285 112.244 108.329 112.244C109.373 112.244 110.156 112.953 110.156 113.885V115.452H109.503V114.911C109.242 115.303 108.795 115.526 108.217 115.526C107.21 115.526 106.483 114.78 106.483 113.885H106.502ZM109.466 113.885C109.466 113.307 108.981 112.841 108.329 112.841C107.676 112.841 107.192 113.307 107.192 113.885C107.192 114.463 107.695 114.93 108.329 114.93C108.963 114.93 109.466 114.463 109.466 113.885ZM111.069 114.333V112.878H110.379V112.337H111.069V111.536H111.759V112.337H113.082V112.878H111.759V114.314C111.759 114.724 112.02 114.967 112.449 114.967C112.672 114.967 112.915 114.892 113.082 114.78V115.358C112.915 115.47 112.635 115.545 112.374 115.545C111.517 115.545 111.069 115.06 111.069 114.333ZM113.772 115.452V110.902H114.462V112.692C114.723 112.431 115.152 112.263 115.599 112.263C116.606 112.263 117.184 112.878 117.184 113.829V115.47H116.494V113.904C116.494 113.344 116.158 112.878 115.506 112.878C114.891 112.878 114.462 113.326 114.462 113.923V115.47H113.772V115.452ZM117.631 113.885C117.631 112.99 118.433 112.244 119.477 112.244C120.521 112.244 121.304 112.99 121.304 113.885C121.304 114.78 120.502 115.526 119.477 115.526C118.451 115.526 117.631 114.78 117.631 113.885ZM120.595 113.885C120.595 113.307 120.111 112.841 119.458 112.841C118.806 112.841 118.321 113.307 118.321 113.885C118.321 114.463 118.824 114.93 119.458 114.93C120.092 114.93 120.595 114.463 120.595 113.885ZM122.422 113.941V115.452H121.732V113.885C121.732 112.972 122.329 112.263 123.447 112.263C124.566 112.263 125.181 112.972 125.181 113.885V115.47H124.491V113.96C124.491 113.382 124.137 112.878 123.447 112.878C122.758 112.878 122.441 113.382 122.441 113.96L122.422 113.941ZM128.518 111.685C128.667 111.275 129.003 111.088 129.394 111.088C129.786 111.088 130.14 111.275 130.27 111.685L131.557 115.433H130.83L130.494 114.389H128.294L127.959 115.433H127.232L128.518 111.685ZM128.499 113.811H130.308L129.674 111.871C129.618 111.741 129.543 111.666 129.413 111.666C129.264 111.666 129.189 111.722 129.152 111.871L128.518 113.811H128.499ZM131.818 114.818L132.358 114.557C132.526 114.874 132.824 114.986 133.197 114.986C133.57 114.986 133.887 114.836 133.887 114.557C133.887 113.904 131.911 114.389 131.911 113.214C131.911 112.673 132.452 112.263 133.197 112.263C133.831 112.263 134.278 112.524 134.484 112.897L133.943 113.177C133.794 112.897 133.514 112.804 133.197 112.804C132.88 112.804 132.601 112.953 132.601 113.214C132.601 113.848 134.577 113.382 134.577 114.557C134.577 115.153 133.943 115.526 133.216 115.526C132.582 115.526 132.079 115.303 131.818 114.836V114.818ZM135.099 111.293C135.099 111.069 135.304 110.864 135.546 110.864C135.788 110.864 135.994 111.051 135.994 111.293C135.994 111.536 135.788 111.703 135.546 111.703C135.304 111.703 135.099 111.517 135.099 111.293ZM135.9 112.319V115.433H135.211V112.319H135.9ZM136.46 113.885C136.46 112.99 137.243 112.244 138.286 112.244C139.33 112.244 140.113 112.953 140.113 113.885V115.452H139.461V114.911C139.2 115.303 138.753 115.526 138.175 115.526C137.168 115.526 136.441 114.78 136.441 113.885H136.46ZM139.442 113.885C139.442 113.307 138.958 112.841 138.305 112.841C137.653 112.841 137.168 113.307 137.168 113.885C137.168 114.463 137.671 114.93 138.305 114.93C138.939 114.93 139.442 114.463 139.442 113.885ZM143.022 115.452C142.593 115.452 142.369 115.228 142.369 114.948C142.369 114.743 142.462 114.575 142.667 114.407L144.066 113.289C144.457 112.972 144.662 112.729 144.662 112.375C144.662 111.983 144.308 111.722 143.842 111.722C143.376 111.722 143.003 111.983 142.779 112.375L142.22 112.095C142.537 111.517 143.115 111.107 143.879 111.107C144.755 111.107 145.37 111.647 145.37 112.319C145.37 112.841 145.109 113.233 144.681 113.587L143.283 114.706C143.283 114.706 143.189 114.78 143.189 114.818C143.189 114.836 143.189 114.855 143.227 114.855H145.482V115.452H143.003H143.022ZM145.874 113.307C145.874 112.058 146.638 111.107 147.757 111.107C148.875 111.107 149.639 112.058 149.639 113.307C149.639 114.557 148.875 115.526 147.757 115.526C146.638 115.526 145.874 114.538 145.874 113.307ZM148.912 113.307C148.912 112.431 148.428 111.759 147.757 111.759C147.086 111.759 146.601 112.431 146.601 113.307C146.601 114.184 147.086 114.855 147.757 114.855C148.428 114.855 148.912 114.165 148.912 113.307ZM151.317 115.452V111.927C151.317 111.927 151.317 111.89 151.28 111.89C151.243 111.89 151.224 111.909 151.187 111.927L150.106 112.487L149.789 111.871L151 111.275C151.187 111.181 151.373 111.107 151.56 111.107C151.858 111.107 152.044 111.293 152.044 111.61V115.452H151.336H151.317ZM155.064 115.452V114.65H153.275C152.846 114.65 152.622 114.445 152.622 114.184C152.622 114.034 152.678 113.885 152.809 113.736L154.58 111.48C154.747 111.275 154.915 111.125 155.251 111.125C155.549 111.125 155.773 111.312 155.773 111.61V114.128H156.537V114.687H155.773V115.489H155.083L155.064 115.452ZM155.064 114.09V111.946C155.064 111.946 155.064 111.871 155.008 111.871C154.952 111.871 154.934 111.909 154.897 111.965L153.331 113.979C153.331 113.979 153.293 114.016 153.293 114.034C153.293 114.072 153.331 114.072 153.387 114.072H155.064V114.09Z" fill="#EBAA01"/>
<path d="M45.9716 72.9392C46.9037 70.273 49.3085 69.0051 51.8439 69.0051C54.3792 69.0051 56.8399 70.273 57.7534 72.9392L64.9119 94.0082H58.9092L57.3433 88.9741L46.3631 89.0113L44.7972 94.0082H38.7944L45.953 72.9392H45.9716ZM47.8917 84.2382H55.8146L52.7573 74.5054C52.5895 74.002 52.3472 73.7783 51.8625 73.7783C51.4151 73.7783 51.1355 74.002 50.9863 74.5054L47.8917 84.2382ZM62.9545 69.4713H68.8268L73.0958 88.8995C73.1331 89.0486 73.1704 89.0859 73.2076 89.0859C73.2449 89.0859 73.2822 89.0486 73.3195 88.8995L77.2157 73.3681C77.9427 70.3849 79.5832 69.0984 82.0067 69.0984C84.4301 69.0984 86.0334 70.3662 86.7977 73.3308L90.7871 88.8995C90.8244 89.0486 90.8244 89.0859 90.8989 89.0859C90.9362 89.0859 90.9362 89.0113 90.9735 88.8995L95.0747 69.4713H100.947L96.1187 90.4284C95.5222 93.02 93.7512 94.5117 91.1226 94.5117C88.6992 94.5117 86.779 93.1319 86.1266 90.6521L81.988 74.5427L77.8868 90.764C77.2902 93.1319 75.2769 94.5117 72.928 94.5117C70.43 94.5117 68.4912 93.1319 67.8947 90.5402L62.8986 69.4713H62.9545ZM106.167 72.9392C107.099 70.273 109.504 69.0051 112.039 69.0051C114.574 69.0051 117.035 70.273 117.949 72.9392L125.107 94.0082H119.104L117.538 88.9741L106.558 89.0113L104.992 94.0082H98.9896L106.148 72.9392H106.167ZM108.106 84.2382H116.028L112.971 74.5054C112.803 74.002 112.561 73.7783 112.076 73.7783C111.629 73.7783 111.349 74.002 111.181 74.5054L108.087 84.2382H108.106ZM127.736 94.0082V69.4899H138.156C144.271 69.4899 148.988 72.0816 148.988 77.2836C148.988 80.6397 146.806 83.2314 143.358 84.0704C145.091 84.9467 146.098 86.6248 147.496 89.1792L150.106 94.0269H143.749L141.326 89.6453C140.077 87.3892 138.902 86.1773 135.845 86.1773H133.552L133.515 94.0082H127.717H127.736ZM133.608 74.3936L133.571 81.4228H138.156C140.934 81.4228 142.947 80.1176 142.947 77.8056C142.947 75.4936 140.897 74.3749 138.231 74.3749H133.608V74.3936ZM163.528 94.0082H153.555V69.4899H163.659C172.439 69.4899 178.274 74.3749 178.274 81.777C178.274 89.1792 172.085 94.0269 163.547 94.0269L163.528 94.0082ZM163.64 74.3936H159.408V89.2351H163.51C168.58 89.2351 172.197 86.3637 172.197 81.7584C172.197 77.153 168.729 74.3936 163.622 74.3936H163.64Z" fill="#EBAA01"/>
</g>
<defs>
<clipPath id="clip0_351_7493">
<rect width="218" height="120" fill="white"/>
</clipPath>
</defs>
</svg>
