<svg width="130" height="132" viewBox="0 0 130 132" fill="none" xmlns="http://www.w3.org/2000/svg">
<g clip-path="url(#clip0_351_8502)">
<path d="M92.6398 89.2119C92.7801 94.4421 90.676 97.8086 86.9287 100.033C84.6644 101.375 81.9792 101.997 79.5144 102.979C75.4465 104.602 71.3987 106.285 66.9301 108.108C74.2643 112.236 81.0373 116.044 88.2313 120.092C85.9669 120.533 84.3237 121.013 82.6805 121.094C81.879 121.134 80.9772 120.512 80.2358 120.011C75.6269 116.926 71.0981 113.679 66.389 110.714C65.5073 110.152 63.7239 110.152 62.8221 110.673C59.115 112.858 55.3076 115.022 52.0413 117.787C48.8551 120.472 45.8092 121.895 41.3606 119.871C48.2139 116.004 54.9269 112.216 62.4214 107.988C57.051 105.964 52.2617 104.001 47.3322 102.377C41.7614 100.534 37.5733 97.5481 36.4912 91.3761C36.4511 91.0956 36.4511 90.795 36.4712 90.5145C36.4712 90.3341 36.5714 90.1538 36.6916 89.7129C37.3729 89.8732 38.1544 89.8732 38.7155 90.2339C40.5591 91.3761 43.104 92.2578 44.0258 93.9611C48.254 101.796 56.3095 103.459 63.4233 106.666C64.1447 106.986 65.2869 106.786 66.0884 106.485C70.1162 104.962 74.124 103.379 78.0716 101.656C79.0335 101.235 79.7949 100.253 80.5564 99.4117C82.8208 96.9469 84.8647 94.2817 87.3095 92.0174C88.632 90.795 90.5558 90.2539 92.6398 89.1919V89.2119Z" fill="#CECECE"/>
<path d="M21.4421 12.6845C21.2418 5.39044 29.8785 -1.16223 38.3548 0.160324C33.8261 6.01164 29.4977 11.6626 21.4421 12.6845Z" fill="#CECECE"/>
<path d="M107.809 12.684C99.7131 11.7622 95.4649 5.97101 90.876 0.259961C98.8514 -1.44333 107.749 5.16946 107.809 12.684Z" fill="#CECECE"/>
<path d="M16.3118 78.5718C10.5206 72.0592 10.3202 64.2842 15.5904 59.1943C19.6383 65.4264 17.2937 71.7386 16.3118 78.5718Z" fill="#CECECE"/>
<path d="M114.642 46.811C120.814 49.5563 122.878 57.8524 119.171 65.0263C114.922 59.5757 112.959 51.6604 114.642 46.811Z" fill="#CECECE"/>
<path d="M10.2407 65.5264C6.43331 57.7314 8.31695 50.0565 14.6893 46.6099C16.8735 53.7437 12.9459 59.2543 10.2407 65.5264Z" fill="#CECECE"/>
<path d="M114.622 23.3049C108.37 21.1808 101.957 19.8182 98.21 13.6262C104.442 10.8609 112.458 15.57 114.622 23.3049Z" fill="#CECECE"/>
<path d="M119.792 36.8109C114.301 32.8833 108.39 30.0378 106.526 23.1244C113.339 22.1025 119.912 28.8355 119.792 36.8109Z" fill="#CECECE"/>
<path d="M112.958 78.2917C111.796 71.759 109.672 65.527 113.499 59.2949C119.23 63.3027 118.208 73.3822 112.958 78.2917Z" fill="#CECECE"/>
<path d="M9.37842 36.5507C9.51869 28.5953 15.8109 22.1829 22.4036 23.0647C21.8024 27.7136 17.1735 32.563 9.37842 36.5507Z" fill="#CECECE"/>
<path d="M7.95561 51.1181C6.13208 42.8821 10.4404 35.0871 17.1334 34.4258C17.1334 41.6998 12.1838 45.9881 7.95561 51.1181Z" fill="#CECECE"/>
<path d="M31.0803 13.4258C27.3531 19.8583 20.8205 21.0606 14.7688 23.345C15.41 17.2933 24.4475 10.4401 31.0803 13.4258Z" fill="#CECECE"/>
<path d="M112.177 34.4663C118.67 34.9873 122.958 42.6622 121.375 50.6175C116.345 47.1508 112.057 39.7165 112.177 34.4663Z" fill="#CECECE"/>
<path d="M19.9191 71.1772C25.2094 76.1669 24.7886 82.7797 25.51 89.2322C18.4162 85.8857 15.711 75.6058 19.9191 71.1772Z" fill="#CECECE"/>
<path d="M109.412 71.3779C113.4 75.4658 110.995 85.1045 104.262 89.2124C102.779 83.822 105.504 74.3837 109.412 71.3779Z" fill="#CECECE"/>
<path d="M23.6059 90.4551C16.8529 91.0563 9.7391 85.6057 7.61499 78.2114C15.1295 79.3136 19.518 84.6038 23.6059 90.4551Z" fill="#CECECE"/>
<path d="M121.715 77.9907C119.511 85.3449 111.676 91.7373 105.644 90.3146C111.395 82.4193 114.601 79.9345 121.715 77.9907Z" fill="#CECECE"/>
<path d="M37.4328 97.8493C29.3772 95.2443 25.4897 89.1525 26.8323 81.3374C33.4852 84.8843 34.7877 91.3969 37.4328 97.8493Z" fill="#CECECE"/>
<path d="M102.479 81.8979C103.661 89.2121 99.9136 95.1035 92.4993 97.6484C92.5995 91.4364 98.1502 82.6795 102.479 81.8979Z" fill="#CECECE"/>
<path d="M49.616 104.321C45.0471 109.01 33.7252 106.525 29.7576 101.876C36.8312 98.9307 43.2436 101.676 49.616 104.321Z" fill="#CECECE"/>
<path d="M3.38659 30.2988C7.89531 36.6311 7.23403 43.4042 6.01167 50.2574C0.881751 46.931 -0.300536 38.3945 3.38659 30.2988Z" fill="#CECECE"/>
<path d="M123.218 50.3768C122.758 46.9101 121.716 43.5636 122.056 40.3775C122.417 36.9709 124.1 33.7046 125.282 30.1577C129.711 35.969 128.529 46.2288 123.218 50.3768Z" fill="#CECECE"/>
<path d="M99.6528 101.937C92.7996 107.507 84.724 108.409 79.554 104.341C85.9263 101.616 92.3788 98.9909 99.6528 101.937Z" fill="#CECECE"/>
<path d="M10.4804 15.75C13.3259 22.9038 10.4403 29.2361 7.75513 35.4681C3.547 31.3401 4.90963 20.94 10.4804 15.75Z" fill="#CECECE"/>
<path d="M118.71 15.75C124.22 21.0202 125.543 30.2981 121.515 35.5884C118.77 29.2762 115.824 22.964 118.71 15.75Z" fill="#CECECE"/>
<path d="M8.31625 65.2459C2.0842 62.5206 -1.46266 54.0242 0.581295 46.6099C6.79331 51.339 7.17404 58.4528 8.31625 65.2459Z" fill="#CECECE"/>
<path d="M128.629 46.5898C130.633 53.9441 127.307 62.0798 120.994 65.266C121.776 58.3125 122.557 51.3991 128.629 46.5898Z" fill="#CECECE"/>
<path d="M13.2057 21.9223C10.3602 16.4918 14.8489 6.53253 21.5017 3.16602C20.4196 7.93524 21.0609 12.8247 17.1533 16.4918C15.6103 17.9546 14.5884 19.9785 13.2057 21.9223Z" fill="#CECECE"/>
<path d="M115.944 21.6415C111.576 16.3112 107.208 10.9809 108.089 3.38623C114.762 7.05332 118.369 15.4496 115.944 21.6415Z" fill="#CECECE"/>
<path d="M114.802 78.7321C116.545 75.2052 117.788 71.6383 119.912 68.7127C121.695 66.2479 124.521 64.5446 127.086 62.3203C127.847 69.6946 121.495 78.0107 114.822 78.712L114.802 78.7321Z" fill="#CECECE"/>
<path d="M93.3604 99.0912C96.5265 96.887 99.2518 94.3621 102.458 92.9394C105.344 91.6769 108.77 91.6368 112.177 91.0156C109.211 97.6284 99.8529 101.576 93.3403 99.0912H93.3604Z" fill="#CECECE"/>
<path d="M1.92456 62.8418C9.01828 65.8877 11.6434 72.26 14.1282 78.5722C8.27684 78.6323 2.08487 70.7972 1.92456 62.8418Z" fill="#CECECE"/>
<path d="M35.8092 99.152C29.1563 101.436 21.6217 98.3103 16.6121 90.896C20.5397 91.6575 24.1867 91.7977 27.3128 93.1403C30.3586 94.4429 32.8635 96.9878 35.8092 99.1319V99.152Z" fill="#CECECE"/>
<path d="M31.1196 57.1703L39.3556 52.4813C40.8785 55.6073 43.8442 57.4309 47.5915 57.4309C51.3387 57.4309 54.2243 55.0462 54.2243 51.8601C54.2243 48.0327 51.459 46.4095 46.8901 46.4095H40.3174C35.5482 46.4095 32.7027 43.8446 32.7027 39.5763V22.4232H61.3982V30.3785L41.5398 30.4387V38.5744H48.5333C58.212 38.5744 64.1034 42.6423 64.1034 51.279C64.1034 59.9157 57.3303 65.3662 47.5714 65.3662C40.097 65.3662 34.0052 62.3604 31.1196 57.1703ZM41.5598 38.5744V38.7547C41.5598 38.7547 41.6199 38.6345 41.5598 38.5744ZM72.3393 64.5646C67.49 64.5646 65.0853 62.0598 65.0853 59.054C65.0853 56.6694 66.1874 54.7256 68.4719 52.9822L80.9961 43.0831C84.4628 40.2576 86.3264 38.2538 86.3264 35.248C86.3264 32.4826 83.7614 30.1781 79.8939 30.1781C76.0265 30.1781 72.7 32.683 71.0368 35.9493L63.2818 32.0017C66.2476 26.0502 72.4796 21.6016 80.7155 21.6016C89.9935 21.6016 96.4059 27.4328 96.4059 34.4464C96.4059 39.7767 94.0613 43.5841 89.7731 46.9706L78.2908 56.1083H97.6483V64.5646H72.3393Z" fill="#CECECE"/>
<path d="M98.5108 49.1751V47.7122H97.6892V46.7303H98.5108V45.7083H99.7933V46.7303H101.376V47.7122H99.7933V49.135C99.7933 49.5758 100.094 49.8363 100.555 49.8363C100.815 49.8363 101.156 49.7562 101.376 49.6359V50.678C101.156 50.7982 100.755 50.8783 100.455 50.8783C99.1721 50.8783 98.5308 50.177 98.5308 49.155L98.5108 49.1751ZM102.018 50.7581V44.8467H103.3V46.9508C103.641 46.7303 104.082 46.5901 104.562 46.5901C105.925 46.5901 106.647 47.3716 106.647 48.654V50.7581H105.364V48.7743C105.364 48.1932 105.023 47.6922 104.362 47.6922C103.701 47.6922 103.3 48.1531 103.3 48.7943V50.7581H102.018Z" fill="#CECECE"/>
<path d="M23.8264 130.372V126.685C23.8264 126.164 24.107 125.844 24.7883 125.844H27.4334V126.765H24.9285V127.948H27.2731V128.849H24.9285V130.392H23.8465L23.8264 130.372ZM27.5336 128.689C27.5336 127.727 28.4153 126.926 29.5375 126.926C30.6596 126.926 31.5413 127.727 31.5413 128.689C31.5413 129.651 30.6596 130.453 29.5375 130.453C28.4153 130.453 27.5336 129.651 27.5336 128.689ZM30.4793 128.689C30.4793 128.208 30.0785 127.827 29.5375 127.827C28.9964 127.827 28.5956 128.228 28.5956 128.689C28.5956 129.15 28.9964 129.551 29.5375 129.551C30.0785 129.551 30.4793 129.15 30.4793 128.689ZM31.882 130.372V128.449C31.882 127.587 32.423 126.926 33.5252 126.926C33.7656 126.926 34.0261 126.966 34.2065 127.046V127.988C34.0261 127.888 33.8057 127.847 33.6254 127.847C33.2046 127.847 32.944 128.088 32.944 128.489V130.372H31.882ZM40.7592 128.609V130.352H39.6971V128.769C39.6971 128.248 39.4566 127.827 38.8755 127.827C38.2944 127.827 38.0539 128.248 38.0539 128.769V130.372H36.9919V128.769C36.9919 128.248 36.7514 127.827 36.1703 127.827C35.5892 127.827 35.3487 128.268 35.3487 128.769V130.372H34.2866V128.629C34.2866 127.687 34.8878 126.906 36.0901 126.906C36.7915 126.906 37.3125 127.186 37.5329 127.647C37.7734 127.186 38.2944 126.906 38.9557 126.906C40.158 126.906 40.7592 127.687 40.7592 128.629V128.609ZM43.9253 128.569V127.026H44.9873V128.689C44.9873 129.671 44.3461 130.453 43.1037 130.453C41.8613 130.453 41.2401 129.671 41.2401 128.689V127.026H42.3021V128.589C42.3021 129.11 42.5626 129.551 43.1237 129.551C43.6848 129.551 43.9453 129.11 43.9453 128.589L43.9253 128.569ZM46.6506 125.483V130.372H45.5885V125.483H46.6506ZM47.1315 128.689C47.1315 127.727 47.9931 126.926 49.1354 126.926C50.2776 126.926 51.1392 127.687 51.1392 128.689V130.372H50.1373V129.972C49.8768 130.272 49.476 130.453 48.975 130.453C47.893 130.453 47.1515 129.651 47.1515 128.689H47.1315ZM50.0772 128.689C50.0772 128.208 49.6764 127.827 49.1354 127.827C48.5943 127.827 48.1935 128.228 48.1935 128.689C48.1935 129.15 48.5943 129.551 49.1354 129.551C49.6764 129.551 50.0772 129.15 50.0772 128.689ZM53.2834 129.451L54.1851 129.03C54.3454 129.37 54.7061 129.531 55.2271 129.531C55.688 129.531 56.0487 129.35 56.0487 129.03C56.0487 128.649 55.648 128.589 55.1269 128.509C54.3655 128.389 53.3435 128.148 53.3435 127.126C53.3435 126.325 54.125 125.723 55.167 125.723C55.9886 125.723 56.71 126.064 57.0306 126.725L56.1289 127.146C55.9686 126.846 55.6279 126.645 55.1269 126.645C54.7262 126.645 54.4256 126.826 54.4256 127.106C54.4256 127.467 54.8464 127.567 55.3874 127.647C56.1289 127.767 57.1108 128.008 57.1108 129.03C57.1108 129.851 56.2692 130.453 55.1871 130.453C54.2853 130.453 53.5639 130.112 53.2433 129.451H53.2834ZM58.6337 126.465C58.8141 125.964 59.2549 125.743 59.7158 125.743C60.1767 125.743 60.6376 125.984 60.8179 126.465L62.1405 130.372H61.0384L60.7378 129.431H58.6938L58.3933 130.372H57.2911L58.6137 126.465H58.6337ZM58.9944 128.549H60.4572L59.8962 126.745C59.8962 126.745 59.816 126.605 59.7359 126.605C59.6557 126.605 59.5956 126.645 59.5755 126.745L58.9944 128.549ZM63.5232 130.372C62.8218 130.372 62.5613 130.052 62.5613 129.531V126.685C62.5613 126.164 62.8218 125.844 63.5232 125.844H66.1883V126.725H63.6635V127.667H66.028V128.549H63.6635V129.491H66.2284V130.372H63.5232ZM68.0319 129.471C68.7934 129.471 69.0739 129.19 69.0739 128.689V125.824H70.156V128.629C70.156 129.771 69.4747 130.432 68.0319 130.432V129.491V129.471ZM70.657 128.689C70.657 127.727 71.5186 126.926 72.6608 126.926C73.8031 126.926 74.6647 127.687 74.6647 128.689V130.372H73.6628V129.972C73.4023 130.272 73.0015 130.453 72.5005 130.453C71.4184 130.453 70.677 129.651 70.677 128.689H70.657ZM73.6027 128.689C73.6027 128.208 73.2019 127.827 72.6608 127.827C72.1198 127.827 71.719 128.228 71.719 128.689C71.719 129.15 72.1198 129.551 72.6608 129.551C73.2019 129.551 73.6027 129.15 73.6027 128.689ZM75.1857 131.915V128.689C75.1857 127.687 76.0274 126.926 77.1896 126.926C78.3519 126.926 79.1935 127.727 79.1935 128.689C79.1935 129.731 78.412 130.473 77.2497 130.473C76.869 130.473 76.5283 130.352 76.2478 130.152V131.915H75.1857ZM78.1314 128.689C78.1314 128.208 77.7307 127.827 77.1896 127.827C76.6486 127.827 76.2478 128.208 76.2478 128.689C76.2478 129.17 76.6486 129.551 77.1896 129.551C77.7307 129.551 78.1314 129.15 78.1314 128.689ZM79.3538 128.689C79.3538 127.727 80.2155 126.926 81.3577 126.926C82.4999 126.926 83.3615 127.687 83.3615 128.689V130.372H82.3596V129.972C82.0991 130.272 81.6983 130.453 81.1974 130.453C80.1153 130.453 79.3738 129.651 79.3738 128.689H79.3538ZM82.2995 128.689C82.2995 128.208 81.8987 127.827 81.3577 127.827C80.8166 127.827 80.4159 128.228 80.4159 128.689C80.4159 129.15 80.8166 129.551 81.3577 129.551C81.8987 129.551 82.2995 129.15 82.2995 128.689ZM84.9246 128.809V130.372H83.8625V128.709C83.8625 127.727 84.5038 126.946 85.7862 126.946C87.0687 126.946 87.73 127.727 87.73 128.709V130.372H86.6679V128.809C86.6679 128.288 86.3874 127.847 85.7862 127.847C85.1851 127.847 84.9246 128.288 84.9246 128.809ZM90.7558 130.372C90.2348 130.372 89.9743 130.112 89.9743 129.771C89.9743 129.511 90.0946 129.31 90.335 129.11L91.6776 128.048C92.0584 127.747 92.2588 127.527 92.2588 127.206C92.2588 126.906 91.9782 126.665 91.5574 126.665C91.1366 126.665 90.7759 126.946 90.5955 127.286L89.7539 126.866C90.0745 126.224 90.7558 125.743 91.6376 125.743C92.6395 125.743 93.3408 126.365 93.3408 127.126C93.3408 127.707 93.0803 128.108 92.6194 128.469L91.377 129.451H93.4611V130.372H90.7358H90.7558ZM93.8017 128.088C93.8017 126.725 94.6634 125.723 95.9258 125.723C97.1883 125.723 98.0499 126.725 98.0499 128.088C98.0499 129.451 97.2083 130.453 95.9258 130.453C94.6434 130.453 93.8017 129.411 93.8017 128.088ZM96.9478 128.088C96.9478 127.286 96.507 126.725 95.9258 126.725C95.3447 126.725 94.9039 127.286 94.9039 128.088C94.9039 128.829 95.3648 129.451 95.9258 129.451C96.4869 129.451 96.9478 128.849 96.9478 128.088ZM99.8334 130.372V126.986C99.8334 126.986 99.8334 126.986 99.8134 126.986L98.6712 127.527L98.1702 126.585L99.5529 125.924C99.7933 125.804 100.054 125.723 100.274 125.723C100.655 125.723 100.915 125.944 100.915 126.365V130.372H99.8334ZM103.981 130.372V129.651H102.318C101.797 129.651 101.497 129.39 101.497 129.05C101.497 128.89 101.577 128.689 101.737 128.509L103.661 126.144C103.881 125.884 104.082 125.723 104.442 125.723C104.803 125.723 105.064 125.924 105.064 126.304V128.829H105.805V129.631H105.064V130.352H104.001L103.981 130.372ZM102.539 128.829H103.981V127.026C103.981 127.026 103.981 127.026 103.981 127.046L102.559 128.829H102.539Z" fill="#CECECE"/>
<path d="M44.4065 82.2784V71.217H49.5364C52.6224 71.217 54.4659 72.4394 54.4659 74.3431C54.4659 75.5454 53.7846 76.367 52.7025 76.7878C53.7846 77.1084 54.5461 77.8098 54.5461 79.1524C54.5461 81.2164 52.5222 82.2784 49.5364 82.2784H44.4065ZM47.753 75.6055H49.7168C50.6586 75.6055 51.1195 75.2448 51.1195 74.6036C51.1195 74.0425 50.6786 73.6818 49.7168 73.6818H47.753V75.6055ZM47.753 79.8337H49.7168C50.6586 79.8337 51.1996 79.5932 51.1996 78.952C51.1996 78.2707 50.6586 78.0703 49.7168 78.0703H47.753V79.8337ZM58.7142 82.2784C56.6502 82.2784 55.8085 81.2965 55.8085 79.7335V73.7419C55.8085 72.1789 56.6502 71.197 58.7142 71.197H64.9863V73.9022H59.1751V75.3851H64.5655V78.0903H59.1751V79.5732H65.0664V82.2784H58.7142ZM65.7478 80.0341L68.5332 78.7716C68.8738 79.4329 69.5551 79.7535 70.6973 79.7535C71.579 79.7535 72.2604 79.5131 72.2604 78.9921C72.2604 78.3308 71.539 78.2306 70.4368 78.0903C68.6133 77.8499 65.9281 77.2086 65.9281 74.5635C65.9281 72.5396 67.932 70.9766 70.6573 70.9766C72.8014 70.9766 74.6049 71.8382 75.4265 73.4814L72.6411 74.7438C72.3004 74.2028 71.6392 73.762 70.4969 73.762C69.6954 73.762 69.2746 73.9824 69.2746 74.4433C69.2746 75.0645 70.0761 75.2649 71.2584 75.4252C73.0619 75.6656 75.6068 76.2868 75.6068 78.952C75.6068 80.9759 73.4226 82.5389 70.6973 82.5389C68.3728 82.5389 66.5694 81.6773 65.7277 80.0341H65.7478ZM85.9468 74.0024H82.4801V82.2784H79.1337V74.0024H75.6669V71.217H85.9268V74.0024H85.9468Z" fill="#CECECE"/>
<path d="M50.6978 92.5387V85.8658H53.5232C55.1864 85.8658 56.4689 86.5672 56.4689 87.9899C56.4689 88.8917 55.8678 89.6131 54.946 89.8335C55.4069 90.074 55.6874 90.5349 56.0681 91.2162L56.7695 92.5387H55.0462L54.3849 91.3565C54.0442 90.7353 53.7236 90.4146 52.902 90.4146H52.2808V92.5387H50.6978ZM52.2808 87.2084V89.1121H53.5232C54.2847 89.1121 54.8257 88.7514 54.8257 88.1302C54.8257 87.4689 54.2647 87.2084 53.5433 87.2084H52.2808ZM58.9337 86.8077C59.1942 86.0863 59.8354 85.7456 60.5368 85.7456C61.2381 85.7456 61.8994 86.0863 62.1399 86.8077L64.0836 92.5387H62.4605L62.0397 91.1761H59.0539L58.6331 92.5387H57.01L58.9537 86.8077H58.9337ZM59.4747 89.8936H61.6389L60.7973 87.2485C60.7572 87.1082 60.6971 87.0481 60.5568 87.0481C60.4366 87.0481 60.3564 87.1082 60.3164 87.2485L59.4747 89.8936ZM64.7249 92.5387V86.7876C64.7249 86.1263 65.2659 85.7456 65.8671 85.7456C66.348 85.7456 66.7288 85.9059 66.9692 86.2666L69.8748 90.7753V85.8658H71.3777V91.617C71.3777 92.2782 70.8367 92.659 70.2556 92.659C69.7947 92.659 69.3739 92.5187 69.1334 92.138L66.2278 87.5892V92.5187H64.7048L64.7249 92.5387ZM72.7604 92.5387V85.8658H74.3635V88.551H75.3053C75.3855 88.3506 75.5258 88.1302 75.7061 87.9098L77.4896 85.8658H79.3131L77.209 88.3106C76.9084 88.6713 76.7682 88.9117 76.7682 89.1522C76.7682 89.3927 76.9285 89.6331 77.209 89.9938L79.3732 92.5187H77.4094L75.7061 90.4948C75.5258 90.2944 75.4055 90.074 75.3053 89.8736H74.3435V92.5187H72.7404L72.7604 92.5387Z" fill="#CECECE"/>
</g>
<defs>
<clipPath id="clip0_351_8502">
<rect width="129.21" height="131.915" fill="white"/>
</clipPath>
</defs>
</svg>
