<svg width="218" height="120" viewBox="0 0 218 120" fill="none" xmlns="http://www.w3.org/2000/svg">
<g clip-path="url(#clip0_351_7451)">
<path d="M81.0001 58.3403V20.4348C81.0001 20.4348 80.8323 20.5094 80.7577 20.584L68.0811 26.6996L62.4885 16.2024L77.9987 8.80025C80.6645 7.51374 83.5913 6.54419 86.0893 6.54419C90.3397 6.54419 93.1733 9.11722 93.1733 13.648V58.3217H81.0001V58.3403Z" fill="#EBAA01"/>
<path d="M98.5049 40.9073L100.574 39.8631C100.984 40.5716 101.637 40.87 102.606 40.87C103.501 40.87 104.079 40.553 104.079 40.0309C104.079 38.6139 98.7472 39.8258 98.7472 36.4511C98.7472 34.8662 100.276 33.6357 102.681 33.6357C104.769 33.6357 106.018 34.5306 106.614 35.5375L104.545 36.5816C104.228 35.9477 103.52 35.6493 102.737 35.6493C102.047 35.6493 101.544 35.9477 101.544 36.4138C101.544 37.8308 106.875 36.6935 106.875 39.9936C106.875 41.7649 104.974 42.9023 102.755 42.9023C100.742 42.9023 99.3251 42.2311 98.5235 40.9073H98.5049ZM108.609 39.1733V36.0036H106.819V33.878H108.609V31.6406H111.387V33.878H114.817V36.0036H111.387V39.1173C111.387 40.0869 112.039 40.6649 113.064 40.6649C113.642 40.6649 114.351 40.4971 114.835 40.236V42.4921C114.351 42.7718 113.493 42.9209 112.822 42.9209C110.007 42.9209 108.628 41.392 108.628 39.1919L108.609 39.1733ZM99.5302 58.3404V46.3889H104.191C107.938 46.3889 110.231 47.9738 110.231 50.7332C110.231 53.4927 107.975 55.1708 104.34 55.1708H102.401V58.3218H99.5302V58.3404ZM102.382 48.7941V52.7842H104.247C106.129 52.7842 107.267 52.1316 107.267 50.7519C107.267 49.3721 106.129 48.7941 104.247 48.7941H102.382ZM113.68 55.9539H119.85V58.3591H113.344C111.517 58.3591 110.809 57.5014 110.809 56.1403V46.4076H113.68V55.9539ZM124.175 48.0856C124.622 46.7991 125.797 46.1652 127.046 46.1652C128.295 46.1652 129.488 46.7805 129.935 48.0856L133.421 58.3404H130.495L129.73 55.8979H124.38L123.616 58.3404H120.689L124.175 48.0856ZM125.107 53.5859H128.966L127.475 48.8501C127.4 48.6077 127.27 48.4958 127.046 48.4958C126.822 48.4958 126.692 48.6077 126.617 48.8501L125.107 53.5859ZM132.881 52.3926C132.881 48.9247 135.882 46.1838 139.722 46.1838C142.015 46.1838 144.215 47.2839 145.203 49.1484L142.873 50.3417C142.22 49.3162 141.195 48.6636 139.611 48.6636C137.411 48.6636 135.826 50.2485 135.826 52.4113C135.826 54.5741 137.392 56.159 139.611 56.159C141.195 56.159 142.258 55.5064 142.873 54.4809L145.203 55.6742C144.215 57.5387 142.015 58.6388 139.722 58.6388C135.882 58.6388 132.881 55.8793 132.881 52.4299V52.3926ZM148.298 58.3404C146.471 58.3404 145.762 57.4828 145.762 56.1217V48.6263C145.762 47.2652 146.471 46.3889 148.298 46.3889H155.289V48.7196H148.633V51.1994H154.878V53.53H148.633V56.0098H155.4V58.3404H148.298Z" fill="#EBAA01"/>
<path d="M51.2477 116.233C49.7936 117.762 41.5539 112.56 38.9067 108.085C38.9067 108.085 37.434 105.624 37.1171 102.156C37.0798 101.839 37.1171 101.503 37.173 101.186C37.2103 100.981 37.3221 100.795 37.5085 100.31C37.8814 100.441 38.2915 100.515 38.6643 100.627C38.6643 100.627 39.205 100.813 39.7269 101.093C45.245 103.965 48.731 109.782 48.731 109.782C50.4088 112.579 52.068 115.357 51.2477 116.233Z" fill="#EBAA01"/>
<path d="M27.5164 12.8835C27.9638 4.71697 38.1982 -1.80882 47.5565 0.447242C41.9453 6.56284 36.6137 12.4733 27.5164 12.8835Z" fill="#EBAA01"/>
<path d="M15.7529 85.9912C9.89933 78.1976 10.384 69.4903 16.7223 64.2883C20.6558 71.6345 17.468 78.4586 15.7529 85.9912Z" fill="#EBAA01"/>
<path d="M10.1608 70.87C6.61881 61.8271 9.43375 53.4182 16.8533 50.1553C18.6429 58.3218 13.7587 64.1205 10.1608 70.87Z" fill="#EBAA01"/>
<path d="M11.8572 38.4276C12.7334 29.5712 20.3579 22.9708 27.6283 24.5557C26.5285 29.7017 20.9172 34.68 11.8572 38.4276Z" fill="#EBAA01"/>
<path d="M8.94859 54.5551C7.66229 45.1953 13.199 36.8609 20.7304 36.749C20.0779 44.8597 14.1311 49.2226 8.94859 54.5551Z" fill="#EBAA01"/>
<path d="M38.198 14.5801C33.4629 21.4229 26.0434 22.1687 19.0713 24.1637C20.3389 17.4515 31.0581 10.6274 38.198 14.5801Z" fill="#EBAA01"/>
<path d="M20.4696 78.0854C25.9131 84.1265 24.8505 91.4726 25.0556 98.7442C17.4496 94.3626 15.3617 82.6162 20.4696 78.0854Z" fill="#EBAA01"/>
<path d="M22.8184 99.919C15.2125 99.9563 7.77431 93.2441 6.07788 84.7979C14.3736 86.7183 18.7917 93.039 22.8184 99.919Z" fill="#EBAA01"/>
<path d="M37.5644 109.465C28.8027 105.83 25.0183 98.6513 27.2367 90.0559C34.3394 94.624 35.1969 102.026 37.5644 109.465Z" fill="#EBAA01"/>
<path d="M50.5765 117.8C45.0398 122.61 32.6429 118.807 28.6162 113.25C36.7814 110.603 43.679 114.276 50.5765 117.8Z" fill="#EBAA01"/>
<path d="M5.72406 30.8948C10.1981 38.3715 8.81864 45.8855 6.84258 53.4181C1.41775 49.2416 0.895769 39.602 5.72406 30.8948Z" fill="#EBAA01"/>
<path d="M14.989 15.3076C17.5057 23.5488 13.7027 30.3729 10.1421 37.0851C5.83578 32.0882 8.29653 20.6028 14.989 15.3076Z" fill="#EBAA01"/>
<path d="M8.03527 70.3854C1.32414 66.7682 -1.84501 56.9609 1.10044 48.8689C7.60651 54.7235 7.3828 62.7036 8.03527 70.3854Z" fill="#EBAA01"/>
<path d="M17.4679 22.4482C14.7834 16.1088 20.6929 5.40655 28.448 2.27417C26.8075 7.51345 27.0685 13.0138 22.3707 16.7614C20.5065 18.253 19.2016 20.4159 17.4679 22.4668V22.4482Z" fill="#EBAA01"/>
<path d="M1.11918 67.1038C8.76241 71.1684 11.1113 78.4959 13.3111 85.7862C6.76772 85.32 0.57856 75.9975 1.11918 67.1038Z" fill="#EBAA01"/>
<path d="M35.6442 110.771C28.001 112.728 19.8731 108.533 14.9702 99.8074C19.2765 101.019 23.3405 101.523 26.7147 103.294C29.9957 105.028 32.5497 108.104 35.6629 110.771H35.6442Z" fill="#EBAA01"/>
<path d="M166.753 116.234C168.207 117.763 176.447 112.561 179.094 108.086C179.094 108.086 180.567 105.625 180.884 102.157C180.921 101.84 180.884 101.504 180.828 101.187C180.791 100.982 180.679 100.796 180.492 100.311C180.12 100.442 179.709 100.516 179.337 100.628C179.337 100.628 178.796 100.814 178.274 101.094C172.756 103.965 169.27 109.783 169.27 109.783C167.592 112.58 165.933 115.358 166.753 116.234Z" fill="#EBAA01"/>
<path d="M190.484 12.8843C190.037 4.71771 179.802 -1.80809 170.444 0.447974C176.055 6.56357 181.387 12.4741 190.484 12.8843Z" fill="#EBAA01"/>
<path d="M202.247 85.9912C208.101 78.1976 207.616 69.4903 201.278 64.2883C197.345 71.6345 200.532 78.4586 202.247 85.9912Z" fill="#EBAA01"/>
<path d="M207.84 70.87C211.382 61.8271 208.567 53.4182 201.147 50.1553C199.358 58.3218 204.242 64.1205 207.84 70.87Z" fill="#EBAA01"/>
<path d="M206.144 38.4279C205.268 29.5714 197.643 22.9711 190.373 24.5559C191.472 29.7019 197.084 34.6802 206.144 38.4279Z" fill="#EBAA01"/>
<path d="M209.052 54.5556C210.338 45.1958 204.802 36.8614 197.27 36.7495C197.923 44.8601 203.87 49.2231 209.052 54.5556Z" fill="#EBAA01"/>
<path d="M179.802 14.5801C184.537 21.4229 191.957 22.1687 198.929 24.1637C197.661 17.4515 186.942 10.6274 179.802 14.5801Z" fill="#EBAA01"/>
<path d="M197.531 78.0862C192.088 84.1272 193.15 91.4734 192.945 98.745C200.551 94.3634 202.639 82.6169 197.531 78.0862Z" fill="#EBAA01"/>
<path d="M195.182 99.919C202.788 99.9563 210.227 93.2441 211.923 84.7979C203.627 86.7183 199.209 93.039 195.182 99.919Z" fill="#EBAA01"/>
<path d="M180.437 109.465C189.198 105.83 192.983 98.6513 190.764 90.0559C183.662 94.624 182.804 102.026 180.437 109.465Z" fill="#EBAA01"/>
<path d="M167.424 117.8C172.961 122.61 185.358 118.807 189.385 113.25C181.219 110.603 174.322 114.276 167.424 117.8Z" fill="#EBAA01"/>
<path d="M212.277 30.895C207.803 38.3717 209.183 45.8857 211.159 53.4183C216.583 49.2418 217.105 39.6023 212.277 30.895Z" fill="#EBAA01"/>
<path d="M203.012 15.3076C200.496 23.5488 204.298 30.3729 207.859 37.0851C212.165 32.0882 209.705 20.6028 203.012 15.3076Z" fill="#EBAA01"/>
<path d="M209.966 70.3854C216.677 66.7682 219.846 56.9609 216.901 48.8689C210.395 54.7235 210.618 62.7036 209.966 70.3854Z" fill="#EBAA01"/>
<path d="M200.532 22.4489C203.217 16.1096 197.307 5.40728 189.552 2.2749C191.193 7.51418 190.932 13.0145 195.63 16.7622C197.494 18.2538 198.799 20.4166 200.532 22.4676V22.4489Z" fill="#EBAA01"/>
<path d="M216.882 67.1038C209.238 71.1684 206.889 78.4959 204.69 85.7862C211.233 85.32 217.422 75.9975 216.882 67.1038Z" fill="#EBAA01"/>
<path d="M182.375 110.771C190.019 112.728 198.146 108.533 203.049 99.8074C198.743 101.019 194.679 101.523 191.305 103.294C188.024 105.028 185.47 108.104 182.357 110.771H182.375Z" fill="#EBAA01"/>
<path d="M49.0667 77.1722V65.0529H55.7591V77.0044C55.7591 80.4165 57.2132 81.8149 60.1773 81.8149C63.1414 81.8149 64.6327 80.4165 64.6327 77.0044V65.0529H71.3252V77.1722C71.3252 83.7167 67.8205 87.5576 60.1959 87.5576C52.5714 87.5576 49.1039 83.7167 49.1039 77.1722H49.0667ZM74.7367 87.1474V65.0343H84.9712C90.7503 65.0343 95.1684 67.4954 95.1684 72.3618C95.1684 75.2704 93.3601 77.657 90.5079 78.4774C91.7383 79.2046 92.5399 80.4724 93.6211 82.4675L96.1192 87.1101H88.8488L86.5744 82.9522C85.7355 81.442 84.8034 80.8826 82.641 80.8826H81.4106L81.3733 87.1101H74.7554L74.7367 87.1474ZM81.4292 70.6092L81.3919 75.5501H84.9712C86.9286 75.5501 88.2895 74.5619 88.2895 72.9957C88.2895 71.3177 86.91 70.6092 85.0271 70.6092H81.4106H81.4292ZM98.6358 87.1474V65.0343H108.87C115.022 65.0343 118.713 67.4954 118.713 71.2804C118.713 73.667 117.334 75.3077 115.209 76.1654C117.371 76.818 118.9 78.1977 118.9 80.8826C118.9 85.0032 114.854 87.1287 108.889 87.1287H98.6545L98.6358 87.1474ZM105.328 73.7975H109.225C111.107 73.7975 112.002 73.0703 112.002 71.8024C112.002 70.6837 111.126 69.9752 109.225 69.9752H105.328V73.7975ZM105.328 82.2437H109.225C111.107 82.2437 112.189 81.7589 112.189 80.4724C112.189 79.0927 111.107 78.7011 109.225 78.7011H105.328V82.2437ZM125.704 68.5582C126.599 65.836 129.134 64.5681 131.67 64.5681C134.205 64.5681 136.74 65.836 137.635 68.5582L143.917 87.166H137.076L135.957 83.437H127.382L126.226 87.166H119.384L125.667 68.5582H125.704ZM129.078 78.0113H134.317L132.005 70.3108C131.931 70.0871 131.856 69.9752 131.707 69.9752C131.558 69.9752 131.483 70.0685 131.409 70.3108L129.06 78.0113H129.078ZM145.371 87.1474V68.2785C145.371 65.9292 147.403 64.5122 149.529 64.5122C151.225 64.5122 152.716 65.0343 153.574 66.2835L162.187 78.6266V65.0343H168.506V83.9031C168.506 86.2524 166.474 87.6322 164.349 87.6322C162.69 87.6322 161.161 87.1101 160.304 85.8609L151.691 73.5178V87.1474H145.371Z" fill="#EBAA01"/>
<path d="M58.6667 103.48V94.7917C58.6667 93.5611 59.3192 92.7967 60.9224 92.7967H67.1302V94.9408H61.2207V97.7376H66.7388V99.8632H61.2207V103.48H58.6667ZM70.2248 94.3069C70.6349 93.1509 71.6789 92.5916 72.7788 92.5916C73.8787 92.5916 74.9599 93.1509 75.3514 94.3069L78.4832 103.48H75.8734L75.1836 101.299H70.3926L69.7028 103.48H67.093L70.2248 94.3069ZM71.0637 99.2292H74.5125L73.1703 94.9968C73.0957 94.773 73.0025 94.6798 72.7788 94.6798C72.5924 94.6798 72.4619 94.773 72.3873 94.9968L71.0451 99.2292H71.0637ZM78.8747 103.48L80.4779 94.2883C80.683 93.1696 81.5405 92.5916 82.7336 92.5916C83.7776 92.5916 84.691 93.0017 84.9707 94.0459L86.9467 100.721V100.777C86.9467 100.777 86.984 100.777 86.984 100.721L88.9228 94.1018C89.2211 93.0763 90.1345 92.6102 91.1971 92.6102C92.3716 92.6102 93.2104 93.2068 93.3969 94.3628L94.8509 103.499H92.2597L91.1225 95.1086C91.1225 95.1086 91.1225 94.9781 91.0293 94.9781C90.9734 94.9781 90.9361 95.0154 90.9175 95.0714L88.7177 102.157C88.4754 102.958 87.767 103.368 86.9281 103.368C86.0892 103.368 85.3621 102.977 85.1571 102.212L82.9573 95.09C82.9573 95.09 82.9014 94.9968 82.8641 94.9968C82.8082 94.9968 82.7523 95.0341 82.7523 95.1086L81.41 103.499H78.8188L78.8747 103.48ZM98.4861 103.48C96.8456 103.48 96.2305 102.716 96.2305 101.504V94.8103C96.2305 93.5797 96.8643 92.8153 98.4861 92.8153H104.731V94.9036H98.7844V97.1223H104.358V99.2106H98.7844V101.429H104.843V103.518H98.4861V103.48ZM109.578 98.1478C109.578 95.0527 112.263 92.5916 115.711 92.5916C117.762 92.5916 119.738 93.5797 120.614 95.2392L118.526 96.3019C117.948 95.3883 117.035 94.7917 115.618 94.7917C113.661 94.7917 112.225 96.2087 112.225 98.1478C112.225 100.087 113.623 101.504 115.618 101.504C117.035 101.504 117.986 100.926 118.526 99.9937L120.614 101.056C119.738 102.716 117.762 103.704 115.711 103.704C112.263 103.704 109.578 101.243 109.578 98.1478ZM124.1 101.336H129.618V103.48H123.802C122.162 103.48 121.546 102.716 121.546 101.504V92.7967H124.1V101.336ZM132.582 94.3069C132.993 93.1509 134.037 92.5916 135.136 92.5916C136.236 92.5916 137.318 93.1509 137.709 94.3069L140.841 103.48H138.231L137.541 101.299H132.75L132.06 103.48H129.451L132.582 94.3069ZM133.421 99.2292H136.87L135.528 94.9968C135.453 94.773 135.36 94.6798 135.136 94.6798C134.95 94.6798 134.819 94.773 134.745 94.9968L133.403 99.2292H133.421ZM141.195 101.355L143.339 100.385C143.73 101.168 144.551 101.56 145.781 101.56C146.881 101.56 147.738 101.15 147.738 100.385C147.738 99.4902 146.806 99.3597 145.576 99.1546C143.805 98.8936 141.4 98.3156 141.4 95.8917C141.4 94.0272 143.264 92.5916 145.706 92.5916C147.664 92.5916 149.342 93.3933 150.087 94.9222L147.943 95.8917C147.552 95.2019 146.788 94.7357 145.595 94.7357C144.625 94.7357 143.954 95.1459 143.954 95.7985C143.954 96.6562 144.942 96.8799 146.21 97.085C147.962 97.3647 150.274 97.9241 150.274 100.348C150.274 102.268 148.279 103.667 145.762 103.667C143.637 103.667 141.941 102.865 141.176 101.336L141.195 101.355ZM150.982 101.355L153.126 100.385C153.517 101.168 154.338 101.56 155.568 101.56C156.668 101.56 157.525 101.15 157.525 100.385C157.525 99.4902 156.593 99.3597 155.363 99.1546C153.592 98.8936 151.187 98.3156 151.187 95.8917C151.187 94.0272 153.051 92.5916 155.493 92.5916C157.451 92.5916 159.129 93.3933 159.874 94.9222L157.731 95.8917C157.339 95.2019 156.575 94.7357 155.382 94.7357C154.412 94.7357 153.741 95.1459 153.741 95.7985C153.741 96.6562 154.729 96.8799 155.997 97.085C157.749 97.3647 160.061 97.9241 160.061 100.348C160.061 102.268 158.066 103.667 155.549 103.667C153.424 103.667 151.728 102.865 150.963 101.336L150.982 101.355Z" fill="#EBAA01"/>
<path d="M61.8544 113.027L62.4696 112.766C62.656 113.139 63.0475 113.344 63.6068 113.344C64.166 113.344 64.5762 113.102 64.5762 112.692C64.5762 112.225 64.0915 112.132 63.5322 112.039C62.8238 111.908 61.929 111.703 61.929 110.789C61.929 110.081 62.6374 109.54 63.5322 109.54C64.2592 109.54 64.8931 109.857 65.1727 110.435L64.5762 110.715C64.3897 110.361 64.0169 110.137 63.4949 110.137C63.0102 110.137 62.6187 110.398 62.6187 110.752C62.6187 111.218 63.1221 111.312 63.7 111.423C64.4084 111.554 65.2659 111.759 65.2659 112.673C65.2659 113.437 64.5202 113.96 63.5695 113.96C62.7679 113.96 62.0968 113.643 61.8171 113.046L61.8544 113.027ZM65.9743 113.866V109.279H66.6641V111.069C66.9251 110.808 67.3538 110.64 67.8199 110.64C68.8265 110.64 69.4044 111.256 69.4044 112.207V113.848H68.7147V112.281C68.7147 111.722 68.3791 111.237 67.7267 111.237C67.1115 111.237 66.6827 111.685 66.6827 112.3V113.848H65.993L65.9743 113.866ZM69.8332 112.281C69.8332 111.386 70.5416 110.64 71.5856 110.64C72.6295 110.64 73.282 111.33 73.282 112.207V112.468H70.523C70.5975 113.009 71.0449 113.382 71.6788 113.382C72.1075 113.382 72.4804 113.214 72.6854 112.878L73.2261 113.12C72.9278 113.661 72.3685 113.941 71.6974 113.941C70.6535 113.941 69.8705 113.251 69.8705 112.281H69.8332ZM72.5736 112.057C72.5363 111.554 72.1448 111.218 71.5669 111.218C70.989 111.218 70.5975 111.591 70.523 112.057H72.5549H72.5736ZM74.5869 109.298V113.885H73.8972V109.298H74.5869ZM76.2088 109.298V113.885H75.519V109.298H76.2088ZM79.4525 113.866C78.9678 113.866 78.7814 113.643 78.7814 113.27V110.155C78.7814 109.782 78.9492 109.559 79.4525 109.559H82.0437V110.155H79.5084V111.405H81.9133V112.002H79.5084V113.251H82.0997V113.848H79.4525V113.866ZM82.4166 112.3C82.4166 111.405 83.2368 110.659 84.2249 110.659C84.8587 110.659 85.4366 110.92 85.7535 111.479L85.1756 111.778C84.9705 111.442 84.6164 111.256 84.2249 111.256C83.6097 111.256 83.125 111.722 83.125 112.3C83.125 112.878 83.6283 113.344 84.2249 113.344C84.635 113.344 84.9705 113.158 85.1756 112.822L85.7535 113.102C85.4366 113.68 84.8587 113.922 84.2249 113.922C83.2368 113.922 82.4166 113.195 82.4166 112.281V112.3ZM85.9027 112.3C85.9027 111.405 86.7229 110.659 87.7482 110.659C88.7735 110.659 89.5751 111.405 89.5751 112.3C89.5751 113.195 88.7735 113.96 87.7482 113.96C86.7229 113.96 85.9027 113.214 85.9027 112.3ZM88.8854 112.3C88.8854 111.722 88.382 111.256 87.7482 111.256C87.1144 111.256 86.5924 111.722 86.5924 112.3C86.5924 112.878 87.0957 113.344 87.7482 113.344C88.4007 113.344 88.8854 112.878 88.8854 112.3ZM92.7443 112.188H90.3022V111.61H92.7443V112.188ZM99.5673 112.225V113.885H98.8775V112.337C98.8775 111.759 98.5606 111.274 97.9268 111.274C97.2929 111.274 96.976 111.759 96.976 112.337V113.904H96.2863V112.337C96.2863 111.759 95.9693 111.274 95.3355 111.274C94.7017 111.274 94.4034 111.778 94.4034 112.337V113.885H93.7137V112.244C93.7137 111.368 94.2729 110.659 95.2982 110.659C95.988 110.659 96.4913 110.976 96.6591 111.461C96.8455 110.976 97.3302 110.659 98.0013 110.659C99.0453 110.659 99.6045 111.368 99.6045 112.225H99.5673ZM99.996 112.3C99.996 111.405 100.779 110.659 101.842 110.659C102.904 110.659 103.687 111.368 103.687 112.3V113.866H103.016V113.307C102.755 113.699 102.289 113.941 101.73 113.941C100.723 113.941 99.996 113.195 99.996 112.281V112.3ZM102.979 112.3C102.979 111.722 102.475 111.256 101.842 111.256C101.208 111.256 100.704 111.722 100.704 112.3C100.704 112.878 101.208 113.344 101.842 113.344C102.475 113.344 102.979 112.878 102.979 112.3ZM104.321 113.866V112.002C104.321 111.237 104.806 110.678 105.7 110.678C105.924 110.678 106.148 110.715 106.316 110.789V111.423C106.148 111.33 105.943 111.293 105.756 111.293C105.29 111.293 105.011 111.573 105.011 112.039V113.885H104.321V113.866ZM106.278 112.3C106.278 111.405 107.061 110.659 108.124 110.659C109.187 110.659 109.97 111.368 109.97 112.3V113.866H109.298V113.307C109.037 113.699 108.571 113.941 108.012 113.941C107.005 113.941 106.278 113.195 106.278 112.281V112.3ZM109.261 112.3C109.261 111.722 108.776 111.256 108.124 111.256C107.471 111.256 106.987 111.722 106.987 112.3C106.987 112.878 107.49 113.344 108.124 113.344C108.758 113.344 109.261 112.878 109.261 112.3ZM110.864 112.747V111.293H110.175V110.752H110.864V109.932H111.554V110.752H112.878V111.293H111.554V112.729C111.554 113.139 111.815 113.382 112.244 113.382C112.468 113.382 112.71 113.307 112.878 113.195V113.773C112.71 113.885 112.43 113.96 112.169 113.96C111.312 113.96 110.846 113.475 110.846 112.747H110.864ZM113.567 113.866V109.279H114.257V111.069C114.518 110.808 114.947 110.64 115.413 110.64C116.42 110.64 116.998 111.256 116.998 112.207V113.848H116.308V112.281C116.308 111.722 115.972 111.237 115.32 111.237C114.705 111.237 114.276 111.685 114.276 112.3V113.848H113.586L113.567 113.866ZM117.426 112.3C117.426 111.405 118.247 110.659 119.272 110.659C120.297 110.659 121.099 111.405 121.099 112.3C121.099 113.195 120.297 113.96 119.272 113.96C118.247 113.96 117.426 113.214 117.426 112.3ZM120.409 112.3C120.409 111.722 119.906 111.256 119.272 111.256C118.638 111.256 118.116 111.722 118.116 112.3C118.116 112.878 118.619 113.344 119.272 113.344C119.924 113.344 120.409 112.878 120.409 112.3ZM122.236 112.356V113.866H121.546V112.281C121.546 111.368 122.143 110.64 123.261 110.64C124.38 110.64 124.995 111.349 124.995 112.263V113.848H124.305V112.337C124.305 111.74 123.951 111.237 123.261 111.237C122.572 111.237 122.255 111.74 122.255 112.319L122.236 112.356ZM128.351 110.099C128.5 109.689 128.835 109.503 129.227 109.503C129.618 109.503 129.972 109.689 130.122 110.099L131.408 113.866H130.681L130.327 112.822H128.127L127.773 113.866H127.046L128.332 110.099H128.351ZM128.332 112.225H130.14L129.506 110.286C129.45 110.155 129.376 110.081 129.245 110.081C129.096 110.081 129.022 110.137 128.984 110.286L128.351 112.225H128.332ZM131.65 113.251L132.191 112.99C132.359 113.307 132.657 113.419 133.03 113.419C133.403 113.419 133.719 113.27 133.719 112.99C133.719 112.337 131.743 112.822 131.743 111.629C131.743 111.069 132.284 110.678 133.03 110.678C133.664 110.678 134.111 110.939 134.335 111.312L133.794 111.591C133.645 111.312 133.365 111.218 133.048 111.218C132.731 111.218 132.433 111.368 132.433 111.629C132.433 112.263 134.409 111.796 134.409 112.99C134.409 113.587 133.775 113.96 133.048 113.96C132.415 113.96 131.911 113.736 131.65 113.27V113.251ZM134.931 109.689C134.931 109.465 135.136 109.26 135.397 109.26C135.658 109.26 135.845 109.447 135.845 109.689C135.845 109.932 135.64 110.099 135.397 110.099C135.155 110.099 134.931 109.913 134.931 109.689ZM135.751 110.733V113.866H135.062V110.733H135.751ZM136.311 112.3C136.311 111.405 137.094 110.659 138.156 110.659C139.219 110.659 140.002 111.368 140.002 112.3V113.866H139.331V113.307C139.07 113.699 138.604 113.941 138.044 113.941C137.038 113.941 136.311 113.195 136.311 112.281V112.3ZM139.293 112.3C139.293 111.722 138.809 111.256 138.156 111.256C137.504 111.256 137.019 111.722 137.019 112.3C137.019 112.878 137.522 113.344 138.156 113.344C138.79 113.344 139.293 112.878 139.293 112.3ZM142.891 113.866C142.463 113.866 142.239 113.643 142.239 113.363C142.239 113.158 142.332 112.99 142.537 112.822L143.935 111.685C144.327 111.368 144.532 111.125 144.532 110.771C144.532 110.379 144.178 110.118 143.712 110.118C143.246 110.118 142.873 110.379 142.649 110.771L142.09 110.491C142.407 109.913 142.985 109.503 143.749 109.503C144.625 109.503 145.24 110.043 145.24 110.733C145.24 111.256 144.979 111.647 144.551 112.002L143.152 113.12C143.152 113.12 143.059 113.195 143.059 113.232C143.059 113.232 143.059 113.27 143.096 113.27H145.371V113.866H142.873H142.891ZM145.744 111.722C145.744 110.472 146.508 109.503 147.645 109.503C148.782 109.503 149.547 110.454 149.547 111.722C149.547 112.99 148.782 113.96 147.645 113.96C146.508 113.96 145.744 112.971 145.744 111.722ZM148.801 111.722C148.801 110.845 148.316 110.174 147.645 110.174C146.974 110.174 146.489 110.845 146.489 111.722C146.489 112.598 146.974 113.288 147.645 113.288C148.316 113.288 148.801 112.598 148.801 111.722ZM151.187 113.866V110.323C151.187 110.323 151.187 110.286 151.15 110.286C151.112 110.286 151.094 110.286 151.057 110.323L149.975 110.883L149.658 110.267L150.87 109.652C151.057 109.559 151.243 109.484 151.429 109.484C151.728 109.484 151.914 109.671 151.914 109.988V113.848H151.187V113.866ZM154.953 113.866V113.064H153.163C152.734 113.064 152.511 112.859 152.511 112.598C152.511 112.449 152.567 112.3 152.697 112.151L154.468 109.876C154.636 109.671 154.804 109.503 155.139 109.503C155.437 109.503 155.661 109.689 155.661 109.988V112.505H156.425V113.064H155.661V113.866H154.971H154.953ZM154.953 112.505V110.342C154.953 110.342 154.953 110.267 154.897 110.267C154.841 110.267 154.822 110.305 154.785 110.36L153.219 112.393C153.219 112.393 153.182 112.43 153.182 112.449C153.182 112.486 153.219 112.486 153.275 112.486H154.971L154.953 112.505Z" fill="#EBAA01"/>
</g>
<defs>
<clipPath id="clip0_351_7451">
<rect width="218" height="120" fill="white"/>
</clipPath>
</defs>
</svg>
