<svg width="130" height="132" viewBox="0 0 130 132" fill="none" xmlns="http://www.w3.org/2000/svg">
<g clip-path="url(#clip0_351_8462)">
<path d="M92.6386 89.229C92.7788 94.4601 90.6748 97.8273 86.9275 100.052C84.6631 101.395 81.9779 102.016 79.5132 102.998C75.4453 104.622 71.3975 106.305 66.9288 108.129C74.263 112.258 81.0361 116.066 88.23 120.114C85.9657 120.555 84.3225 121.036 82.6793 121.117C81.8777 121.157 80.976 120.535 80.2346 120.034C75.6257 116.948 71.0969 113.701 66.3878 110.735C65.5061 110.173 63.7226 110.173 62.8209 110.695C59.1137 112.879 55.3064 115.044 52.0401 117.81C48.8539 120.495 45.808 121.918 41.3594 119.894C48.2127 116.026 54.9256 112.238 62.4201 108.009C57.0497 105.985 52.2605 104.02 47.331 102.397C41.7602 100.553 37.5721 97.5667 36.49 91.3936C36.4499 91.113 36.4499 90.8124 36.47 90.5318C36.47 90.3514 36.5701 90.171 36.6904 89.7301C37.3717 89.8904 38.1532 89.8904 38.7143 90.2512C40.5579 91.3936 43.1028 92.2755 44.0246 93.9791C48.2527 101.816 56.3083 103.479 63.4221 106.686C64.1435 107.007 65.2857 106.806 66.0872 106.506C70.115 104.982 74.1228 103.399 78.0704 101.675C79.0322 101.255 79.7937 100.272 80.5552 99.4307C82.8196 96.9654 84.8635 94.2998 87.3083 92.035C88.6308 90.8124 90.5545 90.2712 92.6386 89.209V89.229Z" fill="#CECECE"/>
<path d="M21.4409 12.6869C21.2405 5.39144 29.8772 -1.16245 38.3536 0.160356C33.8249 6.01276 29.4965 11.6647 21.4409 12.6869Z" fill="#CECECE"/>
<path d="M107.808 12.6863C99.7123 11.7644 95.4641 5.97212 90.8752 0.260011C98.8507 -1.4436 107.748 5.17042 107.808 12.6863Z" fill="#CECECE"/>
<path d="M16.3108 78.5862C10.5196 72.0723 10.3193 64.2959 15.5894 59.2051C19.6373 65.4383 17.2927 71.7517 16.3108 78.5862Z" fill="#CECECE"/>
<path d="M114.641 46.8188C120.813 49.5647 122.877 57.8623 119.17 65.0375C114.922 59.5859 112.958 51.6691 114.641 46.8188Z" fill="#CECECE"/>
<path d="M10.2387 65.5388C6.43136 57.7422 8.315 50.066 14.6873 46.6187C16.8715 53.7538 12.9439 59.2655 10.2387 65.5388Z" fill="#CECECE"/>
<path d="M114.621 23.3088C108.369 21.1843 101.957 19.8215 98.2095 13.6283C104.442 10.8625 112.457 15.5725 114.621 23.3088Z" fill="#CECECE"/>
<path d="M119.79 36.8174C114.3 32.8891 108.388 30.043 106.525 23.1284C113.338 22.1062 119.911 28.8405 119.79 36.8174Z" fill="#CECECE"/>
<path d="M112.958 78.3059C111.796 71.7721 109.672 65.5389 113.499 59.3057C119.23 63.3142 118.208 73.3955 112.958 78.3059Z" fill="#CECECE"/>
<path d="M9.3772 36.5567C9.51747 28.5998 15.8096 22.1862 22.4024 23.0681C21.8012 27.7179 17.1723 32.5682 9.3772 36.5567Z" fill="#CECECE"/>
<path d="M7.95512 51.128C6.13159 42.8905 10.4399 35.094 17.1329 34.4326C17.1329 41.708 12.1833 45.9971 7.95512 51.128Z" fill="#CECECE"/>
<path d="M31.0799 13.4279C27.3526 19.8616 20.82 21.0641 14.7683 23.349C15.4096 17.2961 24.447 10.4416 31.0799 13.4279Z" fill="#CECECE"/>
<path d="M112.177 34.4731C118.669 34.9942 122.957 42.6705 121.374 50.6274C116.345 47.16 112.056 39.7243 112.177 34.4731Z" fill="#CECECE"/>
<path d="M19.9182 71.1904C25.2084 76.181 24.7876 82.795 25.509 89.2487C18.4153 85.9016 15.71 75.6198 19.9182 71.1904Z" fill="#CECECE"/>
<path d="M109.411 71.3906C113.399 75.4793 110.994 85.1197 104.261 89.2284C102.778 83.837 105.503 74.397 109.411 71.3906Z" fill="#CECECE"/>
<path d="M23.6052 90.4711C16.8521 91.0723 9.73836 85.6208 7.61426 78.2251C15.1288 79.3274 19.5173 84.6186 23.6052 90.4711Z" fill="#CECECE"/>
<path d="M121.715 78.0049C119.511 85.3605 111.675 91.754 105.644 90.331C111.395 82.4343 114.601 79.949 121.715 78.0049Z" fill="#CECECE"/>
<path d="M37.4318 97.8671C29.3763 95.2615 25.4887 89.1686 26.8313 81.3521C33.4842 84.8996 34.7867 91.4134 37.4318 97.8671Z" fill="#CECECE"/>
<path d="M102.478 81.9131C103.66 89.2286 99.9126 95.1211 92.4983 97.6665C92.5985 91.4533 98.1492 82.6947 102.478 81.9131Z" fill="#CECECE"/>
<path d="M49.6155 104.341C45.0466 109.031 33.7248 106.546 29.7571 101.896C36.8308 98.9495 43.2432 101.695 49.6155 104.341Z" fill="#CECECE"/>
<path d="M3.38611 30.3037C7.89482 36.6371 7.23355 43.4115 6.01118 50.266C0.881262 46.939 -0.301024 38.4009 3.38611 30.3037Z" fill="#CECECE"/>
<path d="M123.217 50.3864C122.756 46.9191 121.714 43.572 122.055 40.3852C122.416 36.978 124.099 33.7111 125.281 30.1636C129.71 35.9759 128.528 46.2376 123.217 50.3864Z" fill="#CECECE"/>
<path d="M99.6518 101.956C92.7986 107.528 84.723 108.43 79.553 104.361C85.9253 101.635 92.3778 99.0097 99.6518 101.956Z" fill="#CECECE"/>
<path d="M10.4797 15.7529C13.3252 22.9081 10.4396 29.2415 7.7544 35.4747C3.54626 31.346 4.9089 20.9439 10.4797 15.7529Z" fill="#CECECE"/>
<path d="M118.709 15.7529C124.22 21.0241 125.543 30.3038 121.515 35.595C118.769 29.2816 115.824 22.9682 118.709 15.7529Z" fill="#CECECE"/>
<path d="M8.31552 65.2582C2.08347 62.5324 -1.46339 54.0344 0.580562 46.6187C6.79257 51.3487 7.17331 58.4638 8.31552 65.2582Z" fill="#CECECE"/>
<path d="M128.628 46.5986C130.632 53.9542 127.306 62.0915 120.993 65.2782C121.775 58.3235 122.556 51.4088 128.628 46.5986Z" fill="#CECECE"/>
<path d="M13.205 21.9258C10.3595 16.4943 14.8481 6.53315 21.501 3.16602C20.4189 7.93613 21.0601 12.8265 17.1526 16.4943C15.6096 17.9574 14.5876 19.9817 13.205 21.9258Z" fill="#CECECE"/>
<path d="M115.943 21.6454C111.575 16.3141 107.207 10.9828 108.088 3.38672C114.761 7.05449 118.368 15.4523 115.943 21.6454Z" fill="#CECECE"/>
<path d="M114.801 78.7468C116.545 75.2193 117.787 71.6518 119.911 68.7256C121.695 66.2604 124.52 64.5567 127.085 62.332C127.846 69.7077 121.494 78.0253 114.821 78.7268L114.801 78.7468Z" fill="#CECECE"/>
<path d="M93.3599 99.1098C96.526 96.9052 99.2513 94.3798 102.457 92.9568C105.343 91.6941 108.77 91.654 112.176 91.0327C109.211 97.6467 99.8524 101.595 93.3398 99.1098H93.3599Z" fill="#CECECE"/>
<path d="M1.9231 62.853C9.01681 65.8995 11.6419 72.273 14.1267 78.5864C8.27538 78.6465 2.08341 70.8099 1.9231 62.853Z" fill="#CECECE"/>
<path d="M35.8089 99.1696C29.1561 101.454 21.6215 98.3278 16.6118 90.9121C20.5394 91.6737 24.1865 91.814 27.3125 93.1569C30.3584 94.4596 32.8632 97.005 35.8089 99.1496V99.1696Z" fill="#CECECE"/>
<path d="M49.4355 62.3122V55.9588H34.7672C30.1182 55.9588 27.5532 53.714 27.5532 50.7477C27.5532 49.2646 28.2145 47.601 29.5771 45.9375L46.55 25.2336C48.4536 22.9288 50.2772 21.606 53.3631 21.606C56.4491 21.606 58.7335 23.3296 58.7335 26.6567V48.8437H65.2261V55.9588H58.7335V62.3122H49.4355ZM36.7109 48.8437H49.4155V33.0101C49.4155 33.0101 49.3554 33.1304 49.2752 33.2506L36.6909 48.8637L36.7109 48.8437ZM65.6068 49.3648C65.6068 45.2761 67.25 41.8889 70.1957 37.2591L79.5738 22.3676H90.2545L82.1388 35.4152C82.4594 35.3551 82.8602 35.3551 83.2609 35.3551C91.9778 35.3551 98.791 40.4058 98.791 48.523C98.791 56.6402 91.9778 63.1139 82.2189 63.1139C72.4601 63.1139 65.6469 56.8807 65.6469 49.3447L65.6068 49.3648ZM89.4529 48.9038C89.4529 45.3362 86.3669 42.3098 82.1187 42.3098C77.59 42.3098 74.7044 45.7571 74.7044 49.0241C74.7044 52.8121 77.8505 55.6782 82.1187 55.6782C86.387 55.6782 89.4529 52.6518 89.4529 48.9239V48.9038Z" fill="#CECECE"/>
<path d="M95.5645 32.8296V31.3665H94.7429V30.3845H95.5645V29.3623H96.847V30.3845H98.43V31.3665H96.847V32.7896C96.847 33.2305 97.1476 33.491 97.6085 33.491C97.869 33.491 98.2096 33.4109 98.43 33.2906V34.3328C98.2096 34.4531 97.8089 34.5333 97.5083 34.5333C96.2258 34.5333 95.5846 33.8318 95.5846 32.8096L95.5645 32.8296ZM99.0713 34.433V28.5205H100.354V30.625C100.694 30.4045 101.135 30.2642 101.616 30.2642C102.979 30.2642 103.7 31.0459 103.7 32.3286V34.433H102.418V32.4488C102.418 31.8676 102.077 31.3665 101.416 31.3665C100.755 31.3665 100.354 31.8275 100.354 32.4689V34.433H99.0713Z" fill="#CECECE"/>
<path d="M24.0662 130.396V126.708C24.0662 126.187 24.3467 125.867 25.028 125.867H27.6731V126.789H25.1683V127.971H27.5128V128.873H25.1683V130.416H24.0862L24.0662 130.396ZM27.7733 128.713C27.7733 127.751 28.655 126.949 29.7772 126.949C30.8994 126.949 31.7811 127.751 31.7811 128.713C31.7811 129.675 30.8994 130.476 29.7772 130.476C28.655 130.476 27.7733 129.675 27.7733 128.713ZM30.719 128.713C30.719 128.232 30.3182 127.851 29.7772 127.851C29.2362 127.851 28.8354 128.252 28.8354 128.713C28.8354 129.174 29.2362 129.574 29.7772 129.574C30.3182 129.574 30.719 129.174 30.719 128.713ZM32.1017 130.396V128.472C32.1017 127.61 32.6427 126.949 33.7449 126.949C33.9853 126.949 34.2458 126.989 34.4262 127.069V128.011C34.2458 127.911 34.0254 127.871 33.8451 127.871C33.4243 127.871 33.1638 128.111 33.1638 128.512V130.396H32.1017ZM40.9789 128.632V130.376H39.9168V128.793C39.9168 128.272 39.6763 127.851 39.0952 127.851C38.5141 127.851 38.2736 128.272 38.2736 128.793V130.396H37.2116V128.793C37.2116 128.272 36.9711 127.851 36.39 127.851C35.8089 127.851 35.5684 128.292 35.5684 128.793V130.396H34.5063V128.653C34.5063 127.711 35.1075 126.929 36.3098 126.929C37.0112 126.929 37.5322 127.209 37.7526 127.67C37.9931 127.209 38.5141 126.929 39.1754 126.929C40.3777 126.929 40.9789 127.711 40.9789 128.653V128.632ZM44.145 128.592V127.049H45.207V128.713C45.207 129.695 44.5658 130.476 43.3234 130.476C42.081 130.476 41.4598 129.695 41.4598 128.713V127.049H42.5218V128.612C42.5218 129.134 42.7823 129.574 43.3434 129.574C43.9045 129.574 44.165 129.134 44.165 128.612L44.145 128.592ZM46.8903 125.506V130.396H45.8282V125.506H46.8903ZM47.3712 128.713C47.3712 127.751 48.2329 126.949 49.3751 126.949C50.5173 126.949 51.379 127.711 51.379 128.713V130.396H50.377V129.995C50.1165 130.296 49.7158 130.476 49.2148 130.476C48.1327 130.476 47.3913 129.675 47.3913 128.713H47.3712ZM50.3169 128.713C50.3169 128.232 49.9161 127.851 49.3751 127.851C48.834 127.851 48.4333 128.252 48.4333 128.713C48.4333 129.174 48.834 129.574 49.3751 129.574C49.9161 129.574 50.3169 129.174 50.3169 128.713ZM53.5231 129.474L54.4249 129.053C54.5852 129.394 54.9459 129.554 55.4669 129.554C55.9278 129.554 56.2885 129.374 56.2885 129.053C56.2885 128.673 55.8877 128.612 55.3667 128.532C54.6052 128.412 53.5832 128.172 53.5832 127.149C53.5832 126.348 54.3647 125.746 55.4068 125.746C56.2283 125.746 56.9497 126.087 57.2704 126.748L56.3686 127.169C56.2083 126.869 55.8676 126.668 55.3667 126.668C54.9659 126.668 54.6653 126.849 54.6653 127.129C54.6653 127.49 55.0861 127.59 55.6272 127.67C56.3686 127.791 57.3505 128.031 57.3505 129.053C57.3505 129.875 56.5089 130.476 55.4268 130.476C54.5251 130.476 53.8037 130.136 53.483 129.474H53.5231ZM58.8735 126.488C59.0538 125.987 59.4947 125.766 59.9556 125.766C60.4164 125.766 60.8773 126.007 61.0577 126.488L62.3802 130.396H61.2781L60.9775 129.454H58.9336L58.633 130.396H57.5309L58.8534 126.488H58.8735ZM59.2342 128.572H60.697L60.1359 126.769C60.1359 126.769 60.0557 126.628 59.9756 126.628C59.8954 126.628 59.8353 126.668 59.8153 126.769L59.2342 128.572ZM63.7629 130.396C63.0616 130.396 62.8011 130.076 62.8011 129.554V126.708C62.8011 126.187 63.0616 125.867 63.7629 125.867H66.4281V126.748H63.9032V127.69H66.2678V128.572H63.9032V129.514H66.4681V130.396H63.7629ZM68.2716 129.494C69.0331 129.494 69.3136 129.214 69.3136 128.713V125.847H70.3957V128.653C70.3957 129.795 69.7144 130.456 68.2716 130.456V129.514V129.494ZM70.8967 128.713C70.8967 127.751 71.7584 126.949 72.9006 126.949C74.0428 126.949 74.9045 127.711 74.9045 128.713V130.396H73.9025V129.995C73.642 130.296 73.2412 130.476 72.7403 130.476C71.6582 130.476 70.9167 129.675 70.9167 128.713H70.8967ZM73.8424 128.713C73.8424 128.232 73.4416 127.851 72.9006 127.851C72.3595 127.851 71.9588 128.252 71.9588 128.713C71.9588 129.174 72.3595 129.574 72.9006 129.574C73.4416 129.574 73.8424 129.174 73.8424 128.713ZM75.4255 131.94V128.713C75.4255 127.711 76.2671 126.949 77.4293 126.949C78.5916 126.949 79.4332 127.751 79.4332 128.713C79.4332 129.755 78.6517 130.496 77.4895 130.496C77.1087 130.496 76.7681 130.376 76.4875 130.176V131.94H75.4255ZM78.3712 128.713C78.3712 128.232 77.9704 127.851 77.4293 127.851C76.8883 127.851 76.4875 128.232 76.4875 128.713C76.4875 129.194 76.8883 129.574 77.4293 129.574C77.9704 129.574 78.3712 129.174 78.3712 128.713ZM79.5735 128.713C79.5735 127.751 80.4352 126.949 81.5774 126.949C82.7196 126.949 83.5812 127.711 83.5812 128.713V130.396H82.5793V129.995C82.3188 130.296 81.918 130.476 81.4171 130.476C80.335 130.476 79.5935 129.675 79.5935 128.713H79.5735ZM82.5192 128.713C82.5192 128.232 82.1184 127.851 81.5774 127.851C81.0363 127.851 80.6355 128.252 80.6355 128.713C80.6355 129.174 81.0363 129.574 81.5774 129.574C82.1184 129.574 82.5192 129.174 82.5192 128.713ZM85.1643 128.833V130.396H84.1022V128.733C84.1022 127.751 84.7435 126.969 86.026 126.969C87.3084 126.969 87.9697 127.751 87.9697 128.733V130.396H86.9077V128.833C86.9077 128.312 86.6271 127.871 86.026 127.871C85.4248 127.871 85.1643 128.312 85.1643 128.833ZM90.9755 130.396C90.4545 130.396 90.194 130.136 90.194 129.795C90.194 129.534 90.3143 129.334 90.5547 129.134L91.8973 128.071C92.278 127.771 92.4784 127.55 92.4784 127.23C92.4784 126.929 92.1979 126.688 91.7771 126.688C91.3563 126.688 90.9956 126.969 90.8152 127.31L89.9736 126.889C90.2942 126.247 90.9755 125.766 91.8572 125.766C92.8592 125.766 93.5605 126.388 93.5605 127.149C93.5605 127.731 93.3 128.131 92.8391 128.492L91.5967 129.474H93.6808V130.396H90.9555H90.9755ZM94.0415 128.111C94.0415 126.748 94.9031 125.746 96.1656 125.746C97.428 125.746 98.2897 126.748 98.2897 128.111C98.2897 129.474 97.4481 130.476 96.1656 130.476C94.8831 130.476 94.0415 129.434 94.0415 128.111ZM97.1875 128.111C97.1875 127.31 96.7467 126.748 96.1656 126.748C95.5844 126.748 95.1436 127.31 95.1436 128.111C95.1436 128.853 95.6045 129.474 96.1656 129.474C96.7267 129.474 97.1875 128.873 97.1875 128.111ZM100.073 130.396V127.009C100.073 127.009 100.073 127.009 100.053 127.009L98.9109 127.55L98.4099 126.608L99.7926 125.947C100.033 125.827 100.294 125.746 100.514 125.746C100.895 125.746 101.155 125.967 101.155 126.388V130.396H100.073ZM101.837 129.595L102.718 129.093C102.879 129.434 103.199 129.635 103.6 129.635C104.001 129.635 104.321 129.374 104.321 129.033C104.321 128.612 104.021 128.452 103.54 128.452H102.838C102.317 128.452 102.017 128.172 102.017 127.711V125.867H105.123V126.728H102.979V127.61H103.74C104.782 127.61 105.423 128.051 105.423 128.973C105.423 129.895 104.702 130.496 103.64 130.496C102.838 130.496 102.177 130.176 101.857 129.615L101.837 129.595Z" fill="#CECECE"/>
<path d="M44.4053 82.2947V71.2312H49.5352C52.6212 71.2312 54.4647 72.4538 54.4647 74.3579C54.4647 75.5604 53.7834 76.3822 52.7013 76.803C53.7834 77.1237 54.5449 77.8252 54.5449 79.1681C54.5449 81.2324 52.521 82.2947 49.5352 82.2947H44.4053ZM47.7517 75.6205H49.7155C50.6574 75.6205 51.1183 75.2598 51.1183 74.6184C51.1183 74.0572 50.6774 73.6965 49.7155 73.6965H47.7517V75.6205ZM47.7517 79.8495H49.7155C50.6574 79.8495 51.1984 79.609 51.1984 78.9676C51.1984 78.2862 50.6574 78.0858 49.7155 78.0858H47.7517V79.8495ZM58.7129 82.2947C56.6489 82.2947 55.8073 81.3126 55.8073 79.7493V73.7566C55.8073 72.1933 56.6489 71.2112 58.7129 71.2112H64.9851V73.9169H59.1738V75.4001H64.5643V78.1058H59.1738V79.5889H65.0652V82.2947H58.7129ZM65.7465 80.0499L68.5319 78.7873C68.8726 79.4487 69.5539 79.7693 70.6961 79.7693C71.5778 79.7693 72.2591 79.5288 72.2591 79.0077C72.2591 78.3463 71.5377 78.2461 70.4356 78.1058C68.6121 77.8653 65.9269 77.2239 65.9269 74.5783C65.9269 72.554 67.9308 70.9907 70.656 70.9907C72.8002 70.9907 74.6037 71.8525 75.4253 73.496L72.6399 74.7587C72.2992 74.2176 71.6379 73.7766 70.4957 73.7766C69.6942 73.7766 69.2734 73.9971 69.2734 74.4581C69.2734 75.0794 70.0749 75.2798 71.2572 75.4402C73.0607 75.6807 75.6056 76.302 75.6056 78.9676C75.6056 80.9919 73.4214 82.5552 70.6961 82.5552C68.3716 82.5552 66.5681 81.6934 65.7265 80.0499H65.7465ZM85.9456 74.0171H82.4789V82.2947H79.1324V74.0171H75.6657V71.2312H85.9256V74.0171H85.9456Z" fill="#CECECE"/>
<path d="M50.6975 92.5561V85.882H53.523C55.1862 85.882 56.4687 86.5835 56.4687 88.0065C56.4687 88.9084 55.8675 89.6299 54.9457 89.8504C55.4066 90.0909 55.6872 90.5519 56.0679 91.2333L56.7693 92.5561H55.0459L54.3846 91.3736C54.044 90.7523 53.7234 90.4316 52.9018 90.4316H52.2806V92.5561H50.6975ZM52.2806 87.2248V89.1289H53.523C54.2844 89.1289 54.8255 88.7681 54.8255 88.1468C54.8255 87.5255 54.2644 87.2248 53.543 87.2248H52.2806ZM58.9334 86.824C59.1939 86.1024 59.8352 85.7617 60.5365 85.7617C61.2379 85.7617 61.8992 86.1024 62.1396 86.824L64.0834 92.5561H62.4603L62.0394 91.1932H59.0537L58.6329 92.5561H57.0097L58.9535 86.824H58.9334ZM59.4745 89.9105H61.6387L60.797 87.2649C60.757 87.1246 60.6968 87.0645 60.5566 87.0645C60.4363 87.0645 60.3562 87.1246 60.3161 87.2649L59.4745 89.9105ZM64.7246 92.5561V86.8039C64.7246 86.1425 65.2657 85.7617 65.8668 85.7617C66.3478 85.7617 66.7285 85.9221 66.969 86.2828L69.8746 90.7924V85.882H71.3775V91.6342C71.3775 92.2956 70.8365 92.6764 70.2553 92.6764C69.7944 92.6764 69.3736 92.5361 69.1332 92.1553L66.2275 87.6056V92.5361H64.7046L64.7246 92.5561ZM72.7602 92.5561V85.882H74.3633V88.5677H75.3051C75.3853 88.3672 75.5255 88.1468 75.7059 87.9263L77.4893 85.882H79.3128L77.2088 88.3272C76.9082 88.6879 76.7679 88.9284 76.7679 89.189C76.7679 89.4495 76.9282 89.67 77.2088 90.0308L79.373 92.5561H77.4092L75.7059 90.5318C75.5255 90.3314 75.4053 90.1109 75.3051 89.9105H74.3432V92.5762H72.7401L72.7602 92.5561Z" fill="#CECECE"/>
</g>
<defs>
<clipPath id="clip0_351_8462">
<rect width="129.21" height="131.94" fill="white"/>
</clipPath>
</defs>
</svg>
