<svg width="219" height="120" viewBox="0 0 219 120" fill="none" xmlns="http://www.w3.org/2000/svg">
<g clip-path="url(#clip0_351_7368)">
<path d="M81.3714 58.3405V20.4536C81.3714 20.4536 81.2028 20.5282 81.1279 20.6028L68.3932 26.7184L62.7749 16.2212L78.3562 8.81905C81.0343 7.53253 83.9745 6.56299 86.484 6.56299C90.7539 6.56299 93.6005 9.13601 93.6005 13.6668V58.3591H81.3714V58.3405Z" fill="#EBAA01"/>
<path d="M98.9561 40.907L101.035 39.8629C101.447 40.5714 102.102 40.8697 103.076 40.8697C103.975 40.8697 104.556 40.5527 104.556 40.0307C104.556 38.6137 99.1995 39.8442 99.1995 36.4508C99.1995 34.866 100.735 33.6354 103.151 33.6354C105.249 33.6354 106.503 34.5304 107.103 35.5372L105.024 36.5813C104.705 35.9474 103.994 35.6491 103.207 35.6491C102.514 35.6491 102.009 35.9474 102.009 36.4135C102.009 37.8306 107.365 36.6932 107.365 39.9934C107.365 41.7647 105.455 42.902 103.226 42.902C101.203 42.902 99.7801 42.2308 98.9748 40.907H98.9561ZM109.106 39.173V36.0033H107.309V33.8778H109.106V31.6404H111.916V33.8778H115.361V36.0033H111.916V39.1171C111.916 40.0866 112.571 40.6646 113.582 40.6646C114.163 40.6646 114.874 40.4968 115.361 40.2358V42.4918C114.874 42.7715 114.013 42.9207 113.339 42.9207C110.511 42.9207 109.125 41.3918 109.125 39.1917L109.106 39.173ZM99.9861 58.3402V46.3887H104.668C108.432 46.3887 110.736 47.9735 110.736 50.733C110.736 53.4925 108.47 55.1705 104.818 55.1705H102.87V58.3215H99.9861V58.3402ZM102.851 48.7939V52.7839H104.724C106.616 52.7839 107.758 52.1314 107.758 50.733C107.758 49.3346 106.616 48.7752 104.724 48.7752H102.851V48.7939ZM114.2 55.9536H120.399V58.3588H113.882C112.047 58.3588 111.335 57.5012 111.335 56.1401V46.4073H114.219V55.9536H114.2ZM124.744 48.0854C125.193 46.7802 126.373 46.1649 127.628 46.1649C128.883 46.1649 130.081 46.7802 130.531 48.0854L134.033 58.3402H131.093L130.325 55.8977H124.95L124.182 58.3402H121.242L124.744 48.0854ZM125.68 53.5857H129.557L128.059 48.8498C127.984 48.6074 127.853 48.4956 127.628 48.4956C127.403 48.4956 127.272 48.6074 127.197 48.8498L125.68 53.5857ZM133.49 52.3924C133.49 48.9244 136.505 46.1836 140.363 46.1836C142.666 46.1836 144.876 47.2836 145.869 49.1481L143.528 50.3414C142.872 49.316 141.861 48.6634 140.25 48.6634C138.04 48.6634 136.449 50.2482 136.449 52.411C136.449 54.5739 138.022 56.1587 140.25 56.1587C141.842 56.1587 142.91 55.5061 143.528 54.4807L145.869 55.6739C144.876 57.5385 142.666 58.6385 140.363 58.6385C136.505 58.6385 133.49 55.879 133.49 52.4297V52.3924ZM148.977 58.3402C147.142 58.3402 146.43 57.4825 146.43 56.1214V48.6261C146.43 47.265 147.142 46.3887 148.977 46.3887H156V48.7193H149.314V51.1991H155.588V53.5297H149.314V56.0096H156.113V58.3402H148.977Z" fill="#EBAA01"/>
<path d="M51.4823 116.234C50.0215 117.763 41.744 112.561 39.0847 108.086C39.0847 108.086 37.6052 105.625 37.2868 102.157C37.2493 101.84 37.2868 101.504 37.343 101.187C37.3804 100.982 37.4928 100.796 37.6801 100.311C38.0546 100.441 38.4666 100.516 38.8412 100.628C38.8412 100.628 39.3843 100.814 39.9087 101.094C45.452 103.965 48.9541 109.783 48.9541 109.783C50.6395 112.579 52.3063 115.357 51.4823 116.234Z" fill="#EBAA01"/>
<path d="M27.6421 12.8838C28.0916 4.71722 38.373 -1.80857 47.7742 0.447486C42.1372 6.56309 36.7811 12.4736 27.6421 12.8838Z" fill="#EBAA01"/>
<path d="M15.8247 85.9912C9.94428 78.1976 10.4312 69.4903 16.7986 64.2883C20.7501 71.6345 17.5477 78.4586 15.8247 85.9912Z" fill="#EBAA01"/>
<path d="M10.2066 70.8695C6.64835 61.8266 9.47621 53.4177 16.9298 50.1548C18.7276 58.3213 13.821 64.12 10.2066 70.8695Z" fill="#EBAA01"/>
<path d="M11.9109 38.4276C12.7911 29.5712 20.4506 22.9708 27.7544 24.5557C26.6495 29.7017 21.0125 34.68 11.9109 38.4276Z" fill="#EBAA01"/>
<path d="M8.98924 54.5554C7.69703 45.1955 13.2591 36.8611 20.825 36.7493C20.1696 44.8599 14.1955 49.2229 8.98924 54.5554Z" fill="#EBAA01"/>
<path d="M38.3729 14.5801C33.6161 21.4229 26.1626 22.1687 19.1584 24.1637C20.4319 17.4515 31.2003 10.6274 38.3729 14.5801Z" fill="#EBAA01"/>
<path d="M20.563 78.0854C26.0315 84.1265 24.964 91.4726 25.17 98.7442C17.5292 94.3626 15.4317 82.6162 20.563 78.0854Z" fill="#EBAA01"/>
<path d="M22.9223 99.919C15.2815 99.9563 7.80919 93.2441 6.10498 84.7979C14.4387 86.7183 18.8772 93.039 22.9223 99.919Z" fill="#EBAA01"/>
<path d="M37.7362 109.465C28.9343 105.83 25.1326 98.6513 27.3612 90.0559C34.4964 94.624 35.3578 102.026 37.7362 109.465Z" fill="#EBAA01"/>
<path d="M50.8076 117.8C45.2456 122.61 32.7917 118.806 28.7466 113.25C36.9492 110.603 43.8784 114.276 50.8076 117.8Z" fill="#EBAA01"/>
<path d="M5.74925 30.8948C10.2439 38.3715 8.85802 45.8855 6.8729 53.4181C1.42319 49.2416 0.898815 39.602 5.74925 30.8948Z" fill="#EBAA01"/>
<path d="M15.057 15.3076C17.5852 23.5488 13.7648 30.3729 10.1878 37.0851C5.86176 32.0882 8.3338 20.6028 15.057 15.3076Z" fill="#EBAA01"/>
<path d="M8.07166 70.3851C1.32974 66.768 -1.85395 56.9606 1.10501 48.8687C7.64092 54.7232 7.41619 62.7033 8.07166 70.3851Z" fill="#EBAA01"/>
<path d="M17.548 22.4487C14.8513 16.1093 20.7879 5.40704 28.5785 2.27466C26.9305 7.51394 27.1927 13.0142 22.4734 16.7619C20.6006 18.2535 19.2897 20.4164 17.548 22.4673V22.4487Z" fill="#EBAA01"/>
<path d="M1.12348 67.1035C8.80178 71.1682 11.1614 78.4957 13.3713 85.7859C6.79793 85.3198 0.580382 75.9972 1.12348 67.1035Z" fill="#EBAA01"/>
<path d="M35.8069 110.77C28.1286 112.728 19.9634 108.533 15.0381 99.8071C19.3641 101.019 23.4468 101.522 26.8364 103.294C30.1325 105.028 32.6982 108.104 35.8257 110.77H35.8069Z" fill="#EBAA01"/>
<path d="M167.518 116.234C168.979 117.763 177.256 112.561 179.915 108.086C179.915 108.086 181.395 105.625 181.713 102.157C181.751 101.84 181.713 101.504 181.657 101.187C181.62 100.982 181.507 100.796 181.32 100.311C180.945 100.441 180.533 100.516 180.159 100.628C180.159 100.628 179.616 100.814 179.091 101.094C173.548 103.965 170.046 109.783 170.046 109.783C168.361 112.579 166.694 115.357 167.518 116.234Z" fill="#EBAA01"/>
<path d="M191.358 12.8838C190.909 4.71722 180.627 -1.80857 171.226 0.447486C176.863 6.56309 182.219 12.4736 191.358 12.8838Z" fill="#EBAA01"/>
<path d="M203.175 85.9912C209.056 78.1976 208.569 69.4903 202.201 64.2883C198.25 71.6345 201.452 78.4586 203.175 85.9912Z" fill="#EBAA01"/>
<path d="M208.793 70.87C212.352 61.8271 209.524 53.4182 202.07 50.1553C200.272 58.3218 205.179 64.1205 208.793 70.87Z" fill="#EBAA01"/>
<path d="M207.089 38.4276C206.209 29.5712 198.55 22.9708 191.246 24.5557C192.351 29.7017 197.988 34.68 207.089 38.4276Z" fill="#EBAA01"/>
<path d="M210.011 54.5554C211.303 45.1955 205.741 36.8611 198.175 36.7493C198.831 44.8599 204.805 49.2229 210.011 54.5554Z" fill="#EBAA01"/>
<path d="M180.627 14.5801C185.384 21.4229 192.838 22.1687 199.842 24.1637C198.568 17.4515 187.8 10.6274 180.627 14.5801Z" fill="#EBAA01"/>
<path d="M198.437 78.0854C192.969 84.1265 194.036 91.4726 193.83 98.7442C201.471 94.3626 203.568 82.6162 198.437 78.0854Z" fill="#EBAA01"/>
<path d="M196.077 99.919C203.718 99.9563 211.191 93.2441 212.895 84.7979C204.561 86.7183 200.123 93.039 196.077 99.919Z" fill="#EBAA01"/>
<path d="M181.264 109.465C190.066 105.83 193.868 98.6513 191.639 90.0559C184.504 94.624 183.643 102.026 181.264 109.465Z" fill="#EBAA01"/>
<path d="M168.192 117.8C173.754 122.61 186.208 118.806 190.253 113.25C182.051 110.603 175.122 114.276 168.192 117.8Z" fill="#EBAA01"/>
<path d="M213.25 30.8948C208.756 38.3715 210.142 45.8855 212.127 53.4181C217.576 49.2416 218.101 39.602 213.25 30.8948Z" fill="#EBAA01"/>
<path d="M203.943 15.3076C201.415 23.5488 205.235 30.3729 208.812 37.0851C213.138 32.0882 210.666 20.6028 203.943 15.3076Z" fill="#EBAA01"/>
<path d="M210.929 70.3851C217.671 66.768 220.855 56.9606 217.896 48.8687C211.36 54.7232 211.585 62.7033 210.929 70.3851Z" fill="#EBAA01"/>
<path d="M201.452 22.4487C204.149 16.1093 198.212 5.40704 190.422 2.27466C192.07 7.51394 191.807 13.0142 196.527 16.7619C198.4 18.2535 199.71 20.4164 201.452 22.4673V22.4487Z" fill="#EBAA01"/>
<path d="M217.876 67.1035C210.198 71.1682 207.839 78.4957 205.629 85.7859C212.202 85.3198 218.42 75.9972 217.876 67.1035Z" fill="#EBAA01"/>
<path d="M183.211 110.77C190.89 112.728 199.055 108.533 203.98 99.8071C199.654 101.019 195.572 101.522 192.182 103.294C188.886 105.028 186.32 108.104 183.193 110.77H183.211Z" fill="#EBAA01"/>
<path d="M51.2947 77.2841V65.519H57.8119V77.1163C57.8119 80.4165 59.2164 81.7962 62.1192 81.7962C65.022 81.7962 66.464 80.4351 66.464 77.1163V65.519H72.9812V77.2841C72.9812 83.6421 69.554 87.3525 62.1192 87.3525C54.6844 87.3525 51.2947 83.6421 51.2947 77.2841ZM76.3521 86.9796V65.5377H86.3339C91.9709 65.5377 96.2783 67.9243 96.2783 72.6601C96.2783 75.4942 94.5179 77.8062 91.7275 78.6079C92.926 79.3164 93.6939 80.547 94.7613 82.4861L97.1959 86.9982H90.1169L87.8883 82.9709C87.083 81.5166 86.1654 80.9758 84.0492 80.9758H82.8506L82.8131 87.0169H76.3521V86.9796ZM82.8693 70.9261L82.8319 75.7179H86.3152C88.2254 75.7179 89.5551 74.767 89.5551 73.2381C89.5551 71.616 88.2067 70.9261 86.3901 70.9261H82.8693ZM99.6679 86.9796V65.5377H109.65C115.643 65.5377 119.238 67.9243 119.238 71.616C119.238 73.928 117.89 75.5315 115.811 76.3519C117.927 76.9858 119.407 78.3282 119.407 80.9199C119.407 84.9286 115.455 86.9982 109.631 86.9982H99.6492L99.6679 86.9796ZM106.185 74.0026H109.987C111.822 74.0026 112.702 73.2941 112.702 72.0635C112.702 70.9821 111.86 70.2922 109.987 70.2922H106.185V74.0026ZM106.185 82.2064H109.987C111.822 82.2064 112.871 81.7216 112.871 80.4911C112.871 79.1486 111.822 78.7757 109.987 78.7757H106.185V82.2064ZM126.074 68.9125C126.954 66.2835 129.426 65.0343 131.898 65.0343C134.37 65.0343 136.842 66.2648 137.722 68.9125L143.865 86.9609H137.198L136.112 83.3438H127.759L126.636 86.9609H119.969L126.111 68.9125H126.074ZM129.351 78.1045H134.464L132.198 70.6278C132.123 70.4041 132.048 70.3108 131.917 70.3108C131.786 70.3108 131.711 70.4041 131.636 70.6278L129.351 78.1045ZM145.27 86.9796V68.6701C145.27 66.3767 147.236 65.0156 149.333 65.0156C150.981 65.0156 152.442 65.519 153.285 66.731L161.675 78.7198V65.5377H167.855V83.8472C167.855 86.1405 165.889 87.4643 163.791 87.4643C162.162 87.4643 160.682 86.9609 159.84 85.749L151.45 73.7602V86.9796H145.27Z" fill="#EBAA01"/>
<path d="M80.1539 106.594H74.4607V92.6656H80.2288C85.229 92.6656 88.5625 95.4438 88.5625 99.6389C88.5625 103.834 85.023 106.594 80.1726 106.594H80.1539ZM80.2101 95.481H77.7942V103.909H80.1351C83.0192 103.909 85.0979 102.268 85.0979 99.6762C85.0979 97.0845 83.1316 95.4997 80.2101 95.4997V95.481ZM93.8437 92.6843V106.612H90.4915V92.6843H93.8437ZM99.5369 106.594C97.402 106.594 96.5779 105.605 96.5779 104.002V95.2759C96.5779 93.6911 97.402 92.6656 99.5369 92.6656H107.702V95.3692H99.9302V98.2592H107.234V100.963H99.9302V103.853H107.852V106.556H99.5369V106.594ZM108.938 103.834L111.729 102.566C112.234 103.573 113.32 104.095 114.912 104.095C116.354 104.095 117.459 103.554 117.459 102.566C117.459 101.41 116.242 101.224 114.631 100.981C112.309 100.627 109.163 99.8813 109.163 96.7489C109.163 94.3064 111.597 92.4419 114.781 92.4419C117.328 92.4419 119.538 93.5047 120.512 95.481L117.721 96.7489C117.216 95.8539 116.204 95.2387 114.65 95.2387C113.395 95.2387 112.515 95.7794 112.515 96.6184C112.515 97.7371 113.807 98.0168 115.474 98.2965C117.778 98.6507 120.793 99.3965 120.793 102.566C120.793 105.065 118.171 106.892 114.893 106.892C112.122 106.892 109.893 105.829 108.901 103.853L108.938 103.834ZM125.512 106.594C123.377 106.594 122.553 105.605 122.553 104.002V95.2759C122.553 93.6911 123.377 92.6656 125.512 92.6656H133.677V95.3692H125.905V98.2592H133.209V100.963H125.905V103.853H133.827V106.556H125.512V106.594ZM139.295 103.815H146.506V106.612H138.902C136.767 106.612 135.943 105.624 135.943 104.021V92.6843H139.295V103.815Z" fill="#EBAA01"/>
<path d="M62.475 115.655L63.093 115.394C63.2802 115.767 63.6735 115.972 64.2353 115.972C64.7972 115.972 65.2092 115.73 65.2092 115.32C65.2092 114.854 64.7223 114.761 64.1604 114.667C63.4488 114.537 62.5499 114.332 62.5499 113.418C62.5499 112.71 63.2615 112.169 64.1604 112.169C64.8908 112.169 65.5275 112.467 65.8085 113.064L65.2092 113.343C65.0219 112.989 64.6474 112.765 64.123 112.765C63.6361 112.765 63.2428 113.027 63.2428 113.381C63.2428 113.847 63.7484 113.94 64.329 114.052C65.0406 114.183 65.9021 114.388 65.9021 115.301C65.9021 116.066 65.153 116.588 64.1979 116.588C63.3926 116.588 62.7184 116.271 62.4375 115.674L62.475 115.655ZM66.6137 116.495V111.926H67.3067V113.716C67.5688 113.455 67.9996 113.288 68.4678 113.288C69.4791 113.288 70.0596 113.903 70.0596 114.854V116.495H69.3667V114.928C69.3667 114.369 69.0296 113.884 68.3741 113.884C67.7561 113.884 67.3254 114.332 67.3254 114.947V116.495H66.6325H66.6137ZM70.4903 114.91C70.4903 114.015 71.202 113.269 72.2507 113.269C73.2995 113.269 73.9549 113.959 73.9549 114.835V115.096H71.1833C71.2582 115.637 71.7076 116.01 72.3444 116.01C72.7751 116.01 73.1497 115.842 73.3557 115.506L73.8988 115.749C73.5991 116.289 73.0373 116.569 72.3631 116.569C71.3144 116.569 70.5278 115.879 70.5278 114.91H70.4903ZM73.2433 114.686C73.2058 114.183 72.8126 113.847 72.232 113.847C71.6515 113.847 71.2582 114.22 71.1833 114.686H73.2246H73.2433ZM75.2846 111.926V116.495H74.5917V111.926H75.2846ZM76.9139 111.926V116.495H76.221V111.926H76.9139ZM80.1725 116.495C79.6856 116.495 79.4983 116.271 79.4983 115.898V112.784C79.4983 112.411 79.6668 112.187 80.1725 112.187H82.7756V112.784H80.2287V114.033H82.6445V114.63H80.2287V115.879H82.8318V116.476H80.1725V116.495ZM83.1502 114.928C83.1502 114.033 83.9742 113.288 84.9667 113.288C85.6035 113.288 86.184 113.549 86.5024 114.108L85.9219 114.406C85.7158 114.071 85.36 113.884 84.9667 113.884C84.3487 113.884 83.8618 114.35 83.8618 114.928C83.8618 115.506 84.3675 115.972 84.9667 115.972C85.3787 115.972 85.7158 115.786 85.9219 115.45L86.5024 115.73C86.184 116.308 85.6035 116.55 84.9667 116.55C83.9742 116.55 83.1502 115.823 83.1502 114.91V114.928ZM86.6522 114.928C86.6522 114.033 87.4762 113.288 88.5062 113.288C89.5363 113.288 90.3416 114.033 90.3416 114.928C90.3416 115.823 89.5363 116.588 88.5062 116.588C87.4762 116.588 86.6522 115.842 86.6522 114.928ZM89.6486 114.928C89.6486 114.35 89.1617 113.884 88.5062 113.884C87.8508 113.884 87.3451 114.35 87.3451 114.928C87.3451 115.506 87.8508 115.972 88.5062 115.972C89.1617 115.972 89.6486 115.506 89.6486 114.928ZM93.5065 114.816H91.0532V114.238H93.5065V114.816ZM100.361 114.854V116.513H99.6679V114.966C99.6679 114.388 99.3495 113.903 98.7128 113.903C98.076 113.903 97.7577 114.388 97.7577 114.966V116.532H97.0647V114.966C97.0647 114.388 96.7464 113.903 96.1096 113.903C95.4729 113.903 95.1733 114.406 95.1733 114.966V116.513H94.4803V114.872C94.4803 113.996 95.0422 113.288 96.0722 113.288C96.7651 113.288 97.2707 113.605 97.4393 114.089C97.6266 113.605 98.1135 113.288 98.7877 113.288C99.8364 113.288 100.398 113.996 100.398 114.854H100.361ZM100.792 114.928C100.792 114.033 101.578 113.288 102.646 113.288C103.713 113.288 104.5 113.996 104.5 114.928V116.495H103.825V115.935C103.563 116.327 103.095 116.569 102.533 116.569C101.522 116.569 100.792 115.823 100.792 114.91V114.928ZM103.788 114.928C103.788 114.35 103.301 113.884 102.646 113.884C101.99 113.884 101.503 114.35 101.503 114.928C101.503 115.506 102.009 115.972 102.646 115.972C103.282 115.972 103.788 115.506 103.788 114.928ZM105.155 116.495V114.63C105.155 113.866 105.642 113.306 106.541 113.306C106.766 113.306 106.99 113.343 107.159 113.418V114.052C106.99 113.959 106.784 113.921 106.597 113.921C106.129 113.921 105.848 114.201 105.848 114.667V116.513H105.155V116.495ZM107.103 114.928C107.103 114.033 107.889 113.288 108.957 113.288C110.024 113.288 110.811 113.996 110.811 114.928V116.495H110.137V115.935C109.874 116.327 109.406 116.569 108.844 116.569C107.833 116.569 107.103 115.823 107.103 114.91V114.928ZM110.099 114.928C110.099 114.35 109.612 113.884 108.957 113.884C108.301 113.884 107.814 114.35 107.814 114.928C107.814 115.506 108.32 115.972 108.957 115.972C109.593 115.972 110.099 115.506 110.099 114.928ZM111.71 115.376V113.921H111.017V113.381H111.71V112.56H112.403V113.381H113.732V113.921H112.403V115.357C112.403 115.767 112.665 116.01 113.096 116.01C113.32 116.01 113.564 115.935 113.732 115.823V116.401C113.564 116.513 113.283 116.588 113.021 116.588C112.159 116.588 111.691 116.103 111.691 115.376H111.71ZM114.425 116.495V111.926H115.118V113.716C115.38 113.455 115.811 113.288 116.279 113.288C117.29 113.288 117.871 113.903 117.871 114.854V116.495H117.178V114.928C117.178 114.369 116.841 113.884 116.186 113.884C115.568 113.884 115.137 114.332 115.137 114.947V116.495H114.444H114.425ZM118.302 114.928C118.302 114.033 119.126 113.288 120.156 113.288C121.186 113.288 121.991 114.033 121.991 114.928C121.991 115.823 121.186 116.588 120.156 116.588C119.126 116.588 118.302 115.842 118.302 114.928ZM121.298 114.928C121.298 114.35 120.811 113.884 120.156 113.884C119.5 113.884 118.995 114.35 118.995 114.928C118.995 115.506 119.5 115.972 120.156 115.972C120.811 115.972 121.298 115.506 121.298 114.928ZM123.133 114.984V116.495H122.441V114.91C122.441 113.996 123.04 113.269 124.164 113.269C125.287 113.269 125.905 113.977 125.905 114.891V116.476H125.212V114.966C125.212 114.369 124.856 113.866 124.164 113.866C123.471 113.866 123.152 114.369 123.152 114.947L123.133 114.984ZM129.276 112.728C129.426 112.318 129.763 112.132 130.156 112.132C130.55 112.132 130.905 112.318 131.055 112.728L132.347 116.495H131.617L131.261 115.45H129.051L128.696 116.495H127.965L129.257 112.728H129.276ZM129.257 114.854H131.074L130.437 112.915C130.381 112.784 130.306 112.71 130.175 112.71C130.025 112.71 129.95 112.765 129.913 112.915L129.276 114.854H129.257ZM132.591 115.879L133.134 115.618C133.303 115.935 133.602 116.047 133.977 116.047C134.351 116.047 134.67 115.898 134.67 115.618C134.67 114.966 132.685 115.45 132.685 114.257C132.685 113.698 133.228 113.306 133.977 113.306C134.613 113.306 135.063 113.567 135.288 113.94L134.745 114.22C134.595 113.94 134.314 113.847 133.995 113.847C133.677 113.847 133.377 113.996 133.377 114.257C133.377 114.891 135.363 114.425 135.363 115.618C135.363 116.215 134.726 116.588 133.995 116.588C133.359 116.588 132.853 116.364 132.591 115.898V115.879ZM135.906 112.318C135.906 112.094 136.112 111.889 136.374 111.889C136.636 111.889 136.823 112.076 136.823 112.318C136.823 112.56 136.617 112.728 136.374 112.728C136.13 112.728 135.906 112.542 135.906 112.318ZM136.711 113.362V116.495H136.018V113.362H136.711ZM137.292 114.928C137.292 114.033 138.078 113.288 139.146 113.288C140.213 113.288 141 113.996 141 114.928V116.495H140.325V115.935C140.063 116.327 139.595 116.569 139.033 116.569C138.022 116.569 137.292 115.823 137.292 114.91V114.928ZM140.288 114.928C140.288 114.35 139.801 113.884 139.146 113.884C138.49 113.884 138.003 114.35 138.003 114.928C138.003 115.506 138.509 115.972 139.146 115.972C139.782 115.972 140.288 115.506 140.288 114.928ZM143.884 116.495C143.453 116.495 143.228 116.271 143.228 115.991C143.228 115.786 143.322 115.618 143.528 115.45L144.932 114.313C145.326 113.996 145.532 113.754 145.532 113.399C145.532 113.008 145.176 112.747 144.708 112.747C144.239 112.747 143.865 113.008 143.64 113.399L143.078 113.12C143.397 112.542 143.977 112.132 144.745 112.132C145.625 112.132 146.243 112.672 146.243 113.362C146.243 113.884 145.981 114.276 145.55 114.63L144.146 115.749C144.146 115.749 144.052 115.823 144.052 115.861C144.052 115.879 144.052 115.898 144.09 115.898H146.374V116.495H143.865H143.884ZM146.768 114.35C146.768 113.101 147.535 112.132 148.678 112.132C149.82 112.132 150.588 113.082 150.588 114.35C150.588 115.618 149.82 116.588 148.678 116.588C147.535 116.588 146.768 115.6 146.768 114.35ZM149.82 114.35C149.82 113.474 149.333 112.803 148.659 112.803C147.985 112.803 147.498 113.474 147.498 114.35C147.498 115.227 147.985 115.917 148.659 115.917C149.333 115.917 149.82 115.227 149.82 114.35ZM152.236 116.495V112.952C152.236 112.952 152.236 112.915 152.199 112.915C152.161 112.915 152.142 112.933 152.105 112.952L151.019 113.511L150.7 112.896L151.918 112.281C152.105 112.187 152.292 112.113 152.48 112.113C152.779 112.113 152.966 112.299 152.966 112.616V116.476H152.236V116.495ZM153.697 115.786L154.296 115.45C154.465 115.823 154.858 115.991 155.289 115.991C155.794 115.991 156.188 115.674 156.188 115.245C156.188 114.761 155.813 114.537 155.251 114.537H154.54C154.109 114.537 153.865 114.313 153.865 113.94V112.225H156.637V112.821H154.521V113.884C154.521 113.884 154.577 113.977 154.633 113.977H155.364C156.319 113.977 156.899 114.388 156.899 115.227C156.899 116.066 156.225 116.606 155.289 116.606C154.596 116.606 153.978 116.327 153.697 115.805V115.786Z" fill="#EBAA01"/>
</g>
<defs>
<clipPath id="clip0_351_7368">
<rect width="219" height="120" fill="white"/>
</clipPath>
</defs>
</svg>
