<svg width="218" height="120" viewBox="0 0 218 120" fill="none" xmlns="http://www.w3.org/2000/svg">
<g clip-path="url(#clip0_351_7327)">
<path d="M51.2465 116.234C49.7924 117.763 41.5526 112.561 38.9055 108.086C38.9055 108.086 37.4328 105.625 37.1158 102.157C37.0786 101.84 37.1158 101.504 37.1718 101.187C37.209 100.982 37.3209 100.796 37.5073 100.311C37.8802 100.442 38.2903 100.516 38.6631 100.628C38.6631 100.628 39.2037 100.814 39.7257 101.094C45.2438 103.965 48.7298 109.783 48.7298 109.783C50.4076 112.58 52.0668 115.358 51.2465 116.234Z" fill="#EBAA01"/>
<path d="M27.5151 12.884C27.9625 4.71746 38.197 -1.80833 47.5553 0.44773C41.9441 6.56333 36.6125 12.4738 27.5151 12.884Z" fill="#EBAA01"/>
<path d="M15.7517 85.9912C9.89811 78.1976 10.3828 69.4903 16.7211 64.2883C20.6546 71.6345 17.4668 78.4586 15.7517 85.9912Z" fill="#EBAA01"/>
<path d="M10.1593 70.8702C6.61734 61.8274 9.43229 53.4184 16.8518 50.1555C18.6415 58.3221 13.7572 64.1207 10.1593 70.8702Z" fill="#EBAA01"/>
<path d="M11.8557 38.4276C12.7319 29.5712 20.3565 22.9708 27.6269 24.5557C26.527 29.7017 20.9157 34.68 11.8557 38.4276Z" fill="#EBAA01"/>
<path d="M8.94737 54.5556C7.66107 45.1958 13.1978 36.8614 20.7291 36.7495C20.0767 44.8601 14.1299 49.2231 8.94737 54.5556Z" fill="#EBAA01"/>
<path d="M38.197 14.5801C33.462 21.4229 26.0424 22.1687 19.0703 24.1637C20.338 17.4515 31.0571 10.6274 38.197 14.5801Z" fill="#EBAA01"/>
<path d="M20.4687 78.0859C25.9121 84.127 24.8495 91.4731 25.0546 98.7447C17.4486 94.3631 15.3607 82.6167 20.4687 78.0859Z" fill="#EBAA01"/>
<path d="M22.8172 99.919C15.2113 99.9563 7.77309 93.2441 6.07666 84.7979C14.3724 86.7183 18.7905 93.039 22.8172 99.919Z" fill="#EBAA01"/>
<path d="M37.5632 109.466C28.8015 105.83 25.0171 98.6516 27.2355 90.0562C34.3381 94.6242 35.1957 102.026 37.5632 109.466Z" fill="#EBAA01"/>
<path d="M50.5748 117.8C45.0381 122.61 32.6412 118.807 28.6145 113.25C36.7797 110.603 43.6773 114.276 50.5748 117.8Z" fill="#EBAA01"/>
<path d="M5.7221 30.895C10.1962 38.3717 8.81668 45.8857 6.84063 53.4183C1.41579 49.2418 0.893816 39.6023 5.7221 30.895Z" fill="#EBAA01"/>
<path d="M14.9878 15.3074C17.5045 23.5485 13.7015 30.3726 10.1409 37.0849C5.83456 32.088 8.29531 20.6026 14.9878 15.3074Z" fill="#EBAA01"/>
<path d="M8.03405 70.3854C1.32292 66.7682 -1.84623 56.9609 1.09922 48.8689C7.60529 54.7235 7.38158 62.7036 8.03405 70.3854Z" fill="#EBAA01"/>
<path d="M17.4664 22.4487C14.7819 16.1093 20.6915 5.40704 28.4466 2.27466C26.8061 7.51394 27.067 13.0142 22.3692 16.7619C20.505 18.2535 19.2001 20.4164 17.4664 22.4673V22.4487Z" fill="#EBAA01"/>
<path d="M1.11771 67.1038C8.76095 71.1684 11.1098 78.4959 13.3096 85.7862C6.76625 85.32 0.577095 75.9975 1.11771 67.1038Z" fill="#EBAA01"/>
<path d="M35.643 110.771C27.9998 112.728 19.8719 108.533 14.969 99.8074C19.2753 101.019 23.3393 101.523 26.7135 103.294C29.9945 105.028 32.5484 108.104 35.6617 110.771H35.643Z" fill="#EBAA01"/>
<path d="M166.753 116.233C168.207 117.762 176.447 112.56 179.094 108.086C179.094 108.086 180.566 105.624 180.883 102.156C180.921 101.839 180.883 101.504 180.827 101.187C180.79 100.982 180.678 100.795 180.492 100.311C180.119 100.441 179.709 100.516 179.336 100.628C179.336 100.628 178.795 100.814 178.273 101.094C172.755 103.965 169.269 109.782 169.269 109.782C167.592 112.579 165.932 115.357 166.753 116.233Z" fill="#EBAA01"/>
<path d="M190.484 12.8838C190.037 4.71722 179.802 -1.80857 170.444 0.447486C176.055 6.56309 181.387 12.4736 190.484 12.8838Z" fill="#EBAA01"/>
<path d="M202.247 85.991C208.101 78.1973 207.616 69.4901 201.278 64.2881C197.345 71.6343 200.532 78.4584 202.247 85.991Z" fill="#EBAA01"/>
<path d="M207.84 70.87C211.382 61.8271 208.567 53.4182 201.147 50.1553C199.358 58.3218 204.242 64.1205 207.84 70.87Z" fill="#EBAA01"/>
<path d="M206.143 38.4274C205.267 29.5709 197.643 22.9706 190.372 24.5554C191.472 29.7015 197.083 34.6797 206.143 38.4274Z" fill="#EBAA01"/>
<path d="M209.051 54.5554C210.337 45.1955 204.8 36.8611 197.269 36.7493C197.922 44.8599 203.868 49.2229 209.051 54.5554Z" fill="#EBAA01"/>
<path d="M179.802 14.5799C184.538 21.4226 191.957 22.1685 198.929 24.1635C197.662 17.4512 186.942 10.6271 179.802 14.5799Z" fill="#EBAA01"/>
<path d="M197.531 78.0857C192.087 84.1267 193.15 91.4729 192.945 98.7445C200.551 94.3629 202.639 82.6165 197.531 78.0857Z" fill="#EBAA01"/>
<path d="M195.182 99.9188C202.788 99.9561 210.227 93.2438 211.923 84.7976C203.627 86.7181 199.209 93.0388 195.182 99.9188Z" fill="#EBAA01"/>
<path d="M180.436 109.465C189.198 105.83 192.982 98.6513 190.764 90.0559C183.661 94.624 182.804 102.026 180.436 109.465Z" fill="#EBAA01"/>
<path d="M167.424 117.8C172.961 122.61 185.358 118.806 189.384 113.25C181.219 110.603 174.322 114.276 167.424 117.8Z" fill="#EBAA01"/>
<path d="M212.276 30.8948C207.802 38.3715 209.182 45.8855 211.158 53.4181C216.583 49.2416 217.105 39.602 212.276 30.8948Z" fill="#EBAA01"/>
<path d="M203.011 15.3071C200.495 23.5483 204.298 30.3724 207.858 37.0846C212.164 32.0877 209.704 20.6023 203.011 15.3071Z" fill="#EBAA01"/>
<path d="M209.965 70.3851C216.676 66.768 219.845 56.9606 216.899 48.8687C210.393 54.7232 210.617 62.7033 209.965 70.3851Z" fill="#EBAA01"/>
<path d="M200.532 22.4484C203.217 16.1091 197.307 5.40679 189.552 2.27441C191.193 7.51369 190.932 13.014 195.63 16.7617C197.494 18.2533 198.799 20.4161 200.532 22.4671V22.4484Z" fill="#EBAA01"/>
<path d="M216.881 67.1035C209.237 71.1682 206.888 78.4957 204.689 85.7859C211.232 85.3198 217.421 75.9972 216.881 67.1035Z" fill="#EBAA01"/>
<path d="M182.374 110.77C190.018 112.728 198.146 108.533 203.048 99.8071C198.742 101.019 194.678 101.522 191.304 103.294C188.023 105.028 185.469 108.104 182.356 110.77H182.374Z" fill="#EBAA01"/>
<path d="M29.6407 71.8956C25.6513 71.8956 24.0481 69.9938 24.0481 66.992V55.432C24.0481 52.4301 25.6513 50.5283 29.6407 50.5283H41.7394V55.749H30.5169V58.6017H40.9378V63.8223H30.5169V66.675H41.9072V71.8956H29.6407ZM42.9698 61.2306C42.9698 54.9845 48.3573 50.0808 55.4226 50.0808C59.6171 50.0808 63.737 52.1132 65.4521 55.6184L60.1764 58.2847C59.1883 56.6999 57.8648 55.6184 55.143 55.6184C51.8247 55.6184 49.625 57.8931 49.625 61.2306C49.625 64.5681 51.7502 66.8428 55.143 66.8428C57.8648 66.8428 59.3002 65.7614 60.1764 64.1765L65.4521 66.8428C63.737 70.3667 59.6171 72.3804 55.4226 72.3804C48.3573 72.3804 42.9698 67.4767 42.9698 61.2306ZM64.9301 61.2306C64.9301 54.8726 70.2431 50.0808 77.383 50.0808C84.5229 50.0808 89.8358 54.854 89.8358 61.2306C89.8358 67.6073 84.5229 72.3804 77.383 72.3804C70.2431 72.3804 64.9301 67.6073 64.9301 61.2306ZM83.1806 61.2306C83.1806 58.061 80.664 55.6184 77.383 55.6184C74.102 55.6184 71.5853 58.061 71.5853 61.2306C71.5853 64.4003 74.102 66.8428 77.383 66.8428C80.664 66.8428 83.1806 64.4003 83.1806 61.2306ZM91.7373 71.8956V53.6607C91.7373 51.386 93.6947 50.0249 95.764 50.0249C97.4045 50.0249 98.8399 50.5283 99.6788 51.7403L107.993 63.6731V50.5283H114.108V68.7633C114.108 71.038 112.15 72.3804 110.081 72.3804C108.478 72.3804 107.005 71.877 106.166 70.6651L97.8519 58.7322V71.8956H91.7373ZM116.047 61.2306C116.047 54.8726 121.36 50.0808 128.499 50.0808C135.639 50.0808 140.952 54.854 140.952 61.2306C140.952 67.6073 135.639 72.3804 128.499 72.3804C121.36 72.3804 116.047 67.6073 116.047 61.2306ZM134.297 61.2306C134.297 58.061 131.78 55.6184 128.499 55.6184C125.218 55.6184 122.702 58.061 122.702 61.2306C122.702 64.4003 125.218 66.8428 128.499 66.8428C131.78 66.8428 134.297 64.4003 134.297 61.2306ZM141.623 71.8956L144.737 53.9404C145.184 51.4046 147.141 50.0435 149.975 50.0435C152.417 50.0435 154.486 50.9945 155.158 53.3624L158.383 64.6986L161.57 53.4556C162.242 51.0877 164.367 50.0435 166.883 50.0435C169.642 50.0435 171.525 51.4419 171.954 54.0336L174.75 71.8956H168.207L166.324 56.8304L162.577 69.1734C161.981 71.0752 160.34 71.9889 158.383 71.9889C156.425 71.9889 154.71 71.0939 154.188 69.304L150.478 56.7931L148.204 71.8956H141.623ZM173.166 50.5283H180.119L184.705 60.9137L189.217 50.5283H196.17L190.428 62.6849C189.832 63.9155 188.956 64.8664 187.949 65.5004V71.8956H181.48V65.5563C180.436 64.9224 179.523 63.9715 178.889 62.6663L173.147 50.5097L173.166 50.5283Z" fill="#EBAA01"/>
<path d="M63.9796 112.99L64.5575 112.729C64.7253 113.083 65.1167 113.27 65.6574 113.27C66.198 113.27 66.5895 113.046 66.5895 112.636C66.5895 112.188 66.1234 112.095 65.6014 112.021C64.9117 111.89 64.0728 111.703 64.0728 110.827C64.0728 110.156 64.7625 109.634 65.6014 109.634C66.2912 109.634 66.9064 109.932 67.1674 110.491L66.5895 110.752C66.403 110.417 66.0675 110.212 65.5641 110.212C65.0981 110.212 64.7439 110.454 64.7439 110.808C64.7439 111.256 65.2286 111.349 65.7692 111.442C66.4403 111.573 67.2606 111.759 67.2606 112.636C67.2606 113.363 66.5522 113.867 65.6387 113.867C64.8744 113.867 64.2406 113.55 63.9609 112.99H63.9796ZM67.913 113.792V109.41H68.5842V111.125C68.8452 110.883 69.2366 110.715 69.684 110.715C70.6534 110.715 71.194 111.293 71.194 112.226V113.792H70.5229V112.282C70.5229 111.741 70.206 111.293 69.5722 111.293C68.9943 111.293 68.5655 111.722 68.5655 112.3V113.792H67.8944H67.913ZM71.6228 112.282C71.6228 111.424 72.3126 110.715 73.3006 110.715C74.2886 110.715 74.9225 111.368 74.9225 112.207V112.449H72.2753C72.3499 112.972 72.7786 113.326 73.3752 113.326C73.7853 113.326 74.1395 113.158 74.3446 112.841L74.8479 113.083C74.5496 113.606 74.0276 113.867 73.3752 113.867C72.3685 113.867 71.6228 113.214 71.6228 112.282ZM74.2327 112.058C74.2141 111.573 73.8226 111.256 73.282 111.256C72.7413 111.256 72.3498 111.61 72.2939 112.058H74.2513H74.2327ZM76.1715 109.428V113.811H75.5004V109.428H76.1715ZM77.7188 109.428V113.811H77.0476V109.428H77.7188ZM80.832 113.792C80.3659 113.792 80.1981 113.587 80.1981 113.233V110.268C80.1981 109.913 80.3659 109.708 80.832 109.708H83.3114V110.286H80.8879V111.48H83.1809V112.058H80.8879V113.251H83.3673V113.829H80.832V113.792ZM83.6656 112.282C83.6656 111.424 84.4485 110.715 85.3993 110.715C86.0145 110.715 86.5737 110.958 86.872 111.498L86.3127 111.778C86.1263 111.461 85.7908 111.275 85.3993 111.275C84.8214 111.275 84.3367 111.722 84.3367 112.263C84.3367 112.804 84.8214 113.27 85.3993 113.27C85.7908 113.27 86.1263 113.102 86.3127 112.766L86.872 113.046C86.5737 113.587 86.0145 113.829 85.3993 113.829C84.4485 113.829 83.6656 113.121 83.6656 112.263V112.282ZM87.0025 112.282C87.0025 111.424 87.7855 110.715 88.7735 110.715C89.7615 110.715 90.5258 111.424 90.5258 112.282C90.5258 113.139 89.7615 113.867 88.7735 113.867C87.7855 113.867 87.0025 113.158 87.0025 112.282ZM89.8547 112.3C89.8547 111.741 89.3887 111.293 88.7735 111.293C88.1583 111.293 87.6736 111.741 87.6736 112.3C87.6736 112.86 88.1583 113.289 88.7735 113.289C89.3887 113.289 89.8547 112.841 89.8547 112.3ZM93.5272 112.188H91.1969V111.648H93.5272V112.188ZM100.052 112.226V113.811H99.3808V112.338C99.3808 111.797 99.0825 111.312 98.4673 111.312C97.8522 111.312 97.5725 111.778 97.5725 112.319V113.811H96.9014V112.319C96.9014 111.759 96.6031 111.312 95.988 111.312C95.3728 111.312 95.0931 111.797 95.0931 112.338V113.811H94.422V112.244C94.422 111.405 94.944 110.734 95.932 110.734C96.5845 110.734 97.0692 111.032 97.237 111.498C97.4234 111.032 97.8894 110.734 98.5046 110.734C99.5113 110.734 100.033 111.405 100.033 112.244L100.052 112.226ZM100.462 112.282C100.462 111.424 101.208 110.715 102.214 110.715C103.221 110.715 103.967 111.386 103.967 112.282V113.792H103.333V113.27C103.091 113.643 102.643 113.867 102.103 113.867C101.152 113.867 100.443 113.158 100.443 112.282H100.462ZM103.314 112.3C103.314 111.741 102.848 111.293 102.214 111.293C101.581 111.293 101.115 111.741 101.115 112.3C101.115 112.86 101.599 113.289 102.214 113.289C102.83 113.289 103.314 112.841 103.314 112.3ZM104.619 113.792V112.002C104.619 111.275 105.085 110.734 105.943 110.734C106.148 110.734 106.372 110.771 106.539 110.846V111.442C106.372 111.349 106.185 111.312 105.999 111.312C105.551 111.312 105.29 111.592 105.29 112.021V113.773H104.619V113.792ZM106.483 112.282C106.483 111.424 107.229 110.715 108.236 110.715C109.242 110.715 109.988 111.386 109.988 112.282V113.792H109.354V113.27C109.112 113.643 108.665 113.867 108.124 113.867C107.173 113.867 106.465 113.158 106.465 112.282H106.483ZM109.317 112.3C109.317 111.741 108.851 111.293 108.217 111.293C107.583 111.293 107.117 111.741 107.117 112.3C107.117 112.86 107.602 113.289 108.217 113.289C108.832 113.289 109.317 112.841 109.317 112.3ZM110.864 112.71V111.312H110.212V110.79H110.864V110.007H111.535V110.79H112.803V111.312H111.535V112.692C111.535 113.083 111.796 113.307 112.188 113.307C112.412 113.307 112.635 113.233 112.803 113.121V113.68C112.635 113.792 112.374 113.848 112.132 113.848C111.312 113.848 110.864 113.382 110.864 112.692V112.71ZM113.456 113.792V109.41H114.127V111.125C114.388 110.883 114.779 110.715 115.227 110.715C116.196 110.715 116.737 111.293 116.737 112.226V113.792H116.065V112.282C116.065 111.741 115.749 111.293 115.115 111.293C114.537 111.293 114.108 111.722 114.108 112.3V113.792H113.437H113.456ZM117.147 112.282C117.147 111.424 117.93 110.715 118.918 110.715C119.906 110.715 120.67 111.424 120.67 112.282C120.67 113.139 119.906 113.867 118.918 113.867C117.93 113.867 117.147 113.158 117.147 112.282ZM119.999 112.3C119.999 111.741 119.533 111.293 118.918 111.293C118.302 111.293 117.818 111.741 117.818 112.3C117.818 112.86 118.302 113.289 118.918 113.289C119.533 113.289 119.999 112.841 119.999 112.3ZM121.751 112.338V113.792H121.08V112.282C121.08 111.405 121.658 110.715 122.721 110.715C123.783 110.715 124.38 111.405 124.38 112.263V113.773H123.709V112.338C123.709 111.778 123.373 111.293 122.702 111.293C122.031 111.293 121.733 111.778 121.733 112.338H121.751ZM127.586 110.193C127.717 109.801 128.052 109.615 128.425 109.615C128.798 109.615 129.133 109.801 129.283 110.193L130.513 113.792H129.805L129.469 112.785H127.363L127.027 113.792H126.337L127.568 110.193H127.586ZM127.568 112.226H129.301L128.686 110.379C128.63 110.249 128.556 110.193 128.425 110.193C128.295 110.193 128.201 110.249 128.164 110.379L127.549 112.226H127.568ZM130.755 113.195L131.259 112.934C131.426 113.233 131.706 113.345 132.06 113.345C132.414 113.345 132.731 113.195 132.731 112.934C132.731 112.3 130.83 112.785 130.83 111.629C130.83 111.107 131.333 110.715 132.06 110.715C132.675 110.715 133.086 110.976 133.309 111.312L132.806 111.573C132.657 111.312 132.396 111.219 132.098 111.219C131.799 111.219 131.52 111.368 131.52 111.61C131.52 112.226 133.421 111.778 133.421 112.916C133.421 113.475 132.806 113.848 132.116 113.848C131.501 113.848 131.035 113.624 130.774 113.177L130.755 113.195ZM133.906 109.801C133.906 109.578 134.092 109.391 134.353 109.391C134.614 109.391 134.782 109.578 134.782 109.801C134.782 110.025 134.596 110.193 134.353 110.193C134.111 110.193 133.906 110.007 133.906 109.801ZM134.67 110.79V113.792H133.999V110.79H134.67ZM135.211 112.282C135.211 111.424 135.975 110.715 136.963 110.715C137.951 110.715 138.716 111.386 138.716 112.282V113.792H138.082V113.27C137.839 113.643 137.392 113.867 136.851 113.867C135.901 113.867 135.192 113.158 135.192 112.282H135.211ZM138.063 112.3C138.063 111.741 137.597 111.293 136.963 111.293C136.329 111.293 135.863 111.741 135.863 112.3C135.863 112.86 136.348 113.289 136.963 113.289C137.578 113.289 138.063 112.841 138.063 112.3ZM141.493 113.792C141.083 113.792 140.878 113.587 140.878 113.307C140.878 113.121 140.971 112.953 141.176 112.785L142.518 111.703C142.891 111.405 143.078 111.163 143.078 110.827C143.078 110.454 142.742 110.193 142.295 110.193C141.847 110.193 141.493 110.435 141.288 110.808L140.747 110.547C141.046 109.988 141.605 109.596 142.332 109.596C143.171 109.596 143.768 110.118 143.768 110.771C143.768 111.275 143.525 111.648 143.096 111.983L141.754 113.065C141.754 113.065 141.68 113.139 141.68 113.177C141.68 113.177 141.68 113.214 141.717 113.214H143.879V113.792H141.493ZM144.234 111.741C144.234 110.547 144.961 109.615 146.042 109.615C147.123 109.615 147.85 110.529 147.85 111.741C147.85 112.953 147.123 113.867 146.042 113.867C144.961 113.867 144.234 112.916 144.234 111.741ZM147.16 111.741C147.16 110.902 146.694 110.268 146.06 110.268C145.427 110.268 144.961 110.902 144.961 111.741C144.961 112.58 145.427 113.233 146.06 113.233C146.694 113.233 147.16 112.561 147.16 111.741ZM149.453 113.792V110.417C149.453 110.417 149.453 110.379 149.416 110.379C149.379 110.379 149.36 110.379 149.323 110.417L148.279 110.958L147.962 110.379L149.118 109.801C149.286 109.708 149.472 109.652 149.658 109.652C149.938 109.652 150.124 109.82 150.124 110.137V113.829H149.435L149.453 113.792ZM150.833 112.468C150.833 112.076 151.001 111.759 151.243 111.349L152.287 109.689H153.07L152.194 111.088C152.306 111.069 152.436 111.051 152.548 111.051C153.424 111.051 154.114 111.592 154.114 112.412C154.114 113.233 153.424 113.867 152.473 113.867C151.523 113.867 150.833 113.251 150.833 112.468ZM153.424 112.449C153.424 111.965 152.995 111.592 152.455 111.592C151.858 111.592 151.485 112.039 151.485 112.468C151.485 112.972 151.914 113.326 152.455 113.326C152.995 113.326 153.424 112.953 153.424 112.449Z" fill="#EBAA01"/>
<path d="M58.3491 42.8094V21.5912C58.3491 17.713 60.4184 15.2705 65.5636 15.2705H80.8873V22.2065H66.7008V27.5576H79.862V34.4936H66.7008V42.8094H58.3678H58.3491ZM82.677 30.3731V15.2705H91.01V30.168C91.01 34.419 92.8182 36.1717 96.5094 36.1717C100.2 36.1717 102.046 34.419 102.046 30.168V15.2705H110.379V30.3731C110.379 38.5396 106.017 43.3128 96.5094 43.3128C87.0019 43.3128 82.677 38.5396 82.677 30.3731ZM121.415 42.8094C116.27 42.8094 114.201 40.3668 114.201 36.4887V21.5912C114.201 17.713 116.27 15.2705 121.415 15.2705H137V22.0014H122.534V25.6745H135.956V32.4054H122.534V36.0785H137.224V42.8094H121.415ZM149.173 35.8734H162.595V42.8094H148.036C142.891 42.8094 140.821 40.3668 140.821 36.4887V15.2705H149.154V35.8734H149.173Z" fill="#EBAA01"/>
<path d="M59.6913 82.2437C60.4184 80.1554 62.3012 79.1672 64.2959 79.1672C66.2906 79.1672 68.2107 80.1741 68.9378 82.2437L74.549 98.7446H69.8512L68.6209 94.8105L60.0082 94.8478L58.7779 98.7633H54.0801L59.6913 82.2623V82.2437ZM61.22 91.1001H67.4278L65.0416 83.4743C64.9111 83.0827 64.7247 82.8963 64.3518 82.8963C63.9976 82.8963 63.7926 83.0641 63.6621 83.4743L61.2386 91.1001H61.22ZM73.0017 79.5401H77.6063L80.9432 94.7546C80.9805 94.8664 80.9992 94.9037 81.0365 94.9037C81.0737 94.9037 81.0924 94.8664 81.1297 94.7546L84.187 82.5979C84.7462 80.2673 86.0512 79.2605 87.934 79.2605C89.8169 79.2605 91.0845 80.2673 91.6811 82.5793L94.7943 94.7732C94.8316 94.8851 94.8316 94.9224 94.8875 94.9224C94.9248 94.9224 94.9248 94.8664 94.9434 94.7732L98.1499 79.5588H102.754L98.9701 95.9665C98.5041 97.9988 97.1059 99.1548 95.0553 99.1548C93.1724 99.1548 91.6438 98.0734 91.1404 96.1343L87.8967 83.5302L84.6903 96.2275C84.2243 98.092 82.6397 99.1735 80.8128 99.1735C78.8553 99.1735 77.3453 98.092 76.8793 96.0597L72.9645 79.5588L73.0017 79.5401ZM106.856 82.2437C107.583 80.1554 109.466 79.1672 111.46 79.1672C113.455 79.1672 115.375 80.1741 116.102 82.2437L121.713 98.7446H117.016L115.785 94.8105L107.173 94.8478L105.942 98.7633H101.244L106.856 82.2623V82.2437ZM108.366 91.1001H114.573L112.187 83.4743C112.057 83.0827 111.87 82.8963 111.498 82.8963C111.143 82.8963 110.938 83.0641 110.808 83.4743L108.384 91.1001H108.366ZM123.745 98.7446V79.5401H131.911C136.702 79.5401 140.393 81.5725 140.393 85.6371C140.393 88.2661 138.696 90.2797 135.975 90.951C137.335 91.6408 138.118 92.946 139.218 94.941L141.269 98.7446H136.291L134.409 95.3139C133.439 93.5426 132.526 92.6104 130.121 92.6104H128.331L128.294 98.7446H123.764H123.745ZM128.35 83.3997L128.313 88.9H131.911C134.092 88.9 135.658 87.8745 135.658 86.0659C135.658 84.2574 134.054 83.381 131.967 83.381H128.35V83.3997ZM151.764 98.7446H143.953V79.5401H151.858C158.736 79.5401 163.304 83.3624 163.304 89.161C163.304 94.9597 158.457 98.7446 151.764 98.7446ZM151.858 83.3997H148.539V95.0156H151.746C155.716 95.0156 158.55 92.7595 158.55 89.161C158.55 85.5625 155.847 83.3997 151.839 83.3997H151.858Z" fill="#EBAA01"/>
</g>
<defs>
<clipPath id="clip0_351_7327">
<rect width="218" height="120" fill="white"/>
</clipPath>
</defs>
</svg>
