<svg width="131" height="133" viewBox="0 0 131 133" fill="none" xmlns="http://www.w3.org/2000/svg">
<g clip-path="url(#clip0_351_8422)">
<path d="M93.4245 89.5226C93.5659 94.7708 91.444 98.149 87.665 100.381C85.3815 101.728 82.6735 102.352 80.1879 103.337C76.0855 104.966 72.0034 106.655 67.4969 108.485C74.8932 112.627 81.7237 116.448 88.9786 120.509C86.695 120.952 85.0379 121.434 83.3808 121.515C82.5725 121.555 81.6631 120.932 80.9154 120.429C76.2674 117.332 71.7003 114.075 66.9513 111.099C66.0621 110.536 64.2635 110.536 63.3541 111.059C59.6156 113.25 55.7759 115.422 52.4819 118.197C49.2688 120.892 46.1971 122.319 41.7108 120.288C48.6221 116.407 55.392 112.607 62.95 108.364C57.5341 106.333 52.7042 104.363 47.7329 102.734C42.1149 100.884 37.8913 97.8876 36.8001 91.6943C36.7597 91.4127 36.7597 91.1111 36.7799 90.8296C36.7799 90.6486 36.8809 90.4676 37.0022 90.0253C37.6893 90.1861 38.4774 90.1861 39.0432 90.5481C40.9024 91.6943 43.4689 92.579 44.3985 94.2882C48.6625 102.151 56.7864 103.82 63.9604 107.037C64.6879 107.359 65.8398 107.158 66.6481 106.856C70.7101 105.328 74.7518 103.739 78.7329 102.01C79.7029 101.588 80.4708 100.602 81.2387 99.7577C83.5223 97.2844 85.5836 94.61 88.049 92.3377C89.3828 91.1111 91.3228 90.5682 93.4245 89.5024V89.5226Z" fill="#CECECE"/>
<path d="M21.6241 12.7291C21.422 5.40968 30.1319 -1.16574 38.6801 0.161407C34.1129 6.03304 29.7479 11.7036 21.6241 12.7291Z" fill="#CECECE"/>
<path d="M108.722 12.729C100.558 11.8041 96.2735 5.99275 91.6458 0.261876C99.6888 -1.44733 108.661 5.18842 108.722 12.729Z" fill="#CECECE"/>
<path d="M16.4504 78.8451C10.6102 72.3099 10.4081 64.5079 15.7229 59.4004C19.8051 65.6541 17.4407 71.9882 16.4504 78.8451Z" fill="#CECECE"/>
<path d="M115.614 46.9731C121.838 49.728 123.919 58.0528 120.181 65.2516C115.897 59.7822 113.916 51.8394 115.614 46.9731Z" fill="#CECECE"/>
<path d="M10.3268 65.7547C6.48722 57.9326 8.38682 50.2311 14.8131 46.7725C17.0159 53.931 13.055 59.4608 10.3268 65.7547Z" fill="#CECECE"/>
<path d="M115.594 23.3863C109.289 21.2548 102.822 19.8874 99.043 13.6739C105.328 10.899 113.411 15.6244 115.594 23.3863Z" fill="#CECECE"/>
<path d="M120.807 36.9394C115.27 32.9981 109.309 30.1427 107.429 23.2054C114.3 22.1798 120.929 28.9362 120.807 36.9394Z" fill="#CECECE"/>
<path d="M113.916 78.5637C112.744 72.0084 110.602 65.7547 114.462 59.501C120.242 63.5226 119.211 73.6371 113.916 78.5637Z" fill="#CECECE"/>
<path d="M9.45825 36.6784C9.59971 28.6954 15.9452 22.2607 22.5938 23.1455C21.9876 27.8106 17.3194 32.6768 9.45825 36.6784Z" fill="#CECECE"/>
<path d="M8.02337 51.2966C6.18439 43.0321 10.5292 35.21 17.2789 34.5464C17.2789 41.8457 12.2874 46.1489 8.02337 51.2966Z" fill="#CECECE"/>
<path d="M31.3446 13.4728C27.5858 19.9276 20.9978 21.1341 14.8948 23.4264C15.5414 17.3537 24.6555 10.4766 31.3446 13.4728Z" fill="#CECECE"/>
<path d="M113.129 34.5869C119.677 35.1097 124.001 42.8112 122.405 50.7942C117.332 47.3155 113.008 39.8553 113.129 34.5869Z" fill="#CECECE"/>
<path d="M20.0879 71.4248C25.423 76.4318 24.9986 83.0675 25.7261 89.5424C18.5723 86.1843 15.8441 75.8687 20.0879 71.4248Z" fill="#CECECE"/>
<path d="M110.339 71.626C114.361 75.7281 111.936 85.4002 105.145 89.5224C103.65 84.1133 106.398 74.6422 110.339 71.626Z" fill="#CECECE"/>
<path d="M23.8064 90.7696C16.9961 91.3728 9.82204 85.9034 7.67993 78.4834C15.2581 79.5894 19.6838 84.898 23.8064 90.7696Z" fill="#CECECE"/>
<path d="M122.748 78.2617C120.525 85.6415 112.624 92.056 106.541 90.6283C112.341 82.7057 115.574 80.2122 122.748 78.2617Z" fill="#CECECE"/>
<path d="M37.75 98.1894C29.6261 95.5753 25.7056 89.4624 27.0596 81.6201C33.7689 85.1793 35.0824 91.7145 37.75 98.1894Z" fill="#CECECE"/>
<path d="M103.347 82.1831C104.54 89.5226 100.761 95.4345 93.2834 97.9883C93.3845 91.7547 98.9823 82.9673 103.347 82.1831Z" fill="#CECECE"/>
<path d="M50.0369 104.684C45.4294 109.39 34.0115 106.896 30.0103 102.231C37.1439 99.275 43.6106 102.03 50.0369 104.684Z" fill="#CECECE"/>
<path d="M3.41553 30.4038C7.96246 36.758 7.29558 43.5547 6.06285 50.4317C0.889459 47.0937 -0.302847 38.5276 3.41553 30.4038Z" fill="#CECECE"/>
<path d="M124.264 50.5525C123.799 47.0737 122.748 43.7157 123.091 40.5184C123.455 37.1 125.153 33.8224 126.345 30.2632C130.811 36.0946 129.619 46.3901 124.264 50.5525Z" fill="#CECECE"/>
<path d="M100.498 102.291C93.5869 107.881 85.4428 108.786 80.229 104.704C86.6553 101.969 93.1625 99.3353 100.498 102.291Z" fill="#CECECE"/>
<path d="M10.57 15.8052C13.4396 22.9839 10.5296 29.3381 7.82166 35.5918C3.57786 31.4495 4.95204 21.0132 10.57 15.8052Z" fill="#CECECE"/>
<path d="M119.717 15.8052C125.274 21.0937 126.608 30.4038 122.546 35.7124C119.778 29.3783 116.807 23.0442 119.717 15.8052Z" fill="#CECECE"/>
<path d="M8.3872 65.4732C2.10234 62.7385 -1.47458 54.2125 0.586695 46.7725C6.85135 51.518 7.23531 58.6565 8.3872 65.4732Z" fill="#CECECE"/>
<path d="M129.719 46.752C131.74 54.1317 128.385 62.2957 122.02 65.4929C122.808 58.5153 123.596 51.578 129.719 46.752Z" fill="#CECECE"/>
<path d="M13.3183 21.9986C10.4487 16.5493 14.9754 6.55545 21.6846 3.17725C20.5934 7.96303 21.24 12.8695 17.2994 16.5493C15.7433 18.0172 14.7127 20.0481 13.3183 21.9986Z" fill="#CECECE"/>
<path d="M116.928 21.7171C112.522 16.3683 108.117 11.0195 109.006 3.39844C115.735 7.07826 119.373 15.5037 116.928 21.7171Z" fill="#CECECE"/>
<path d="M115.775 79.0058C117.534 75.4668 118.786 71.8875 120.929 68.9517C122.727 66.4783 125.577 64.7691 128.163 62.5371C128.931 69.937 122.525 78.2819 115.796 78.9857L115.775 79.0058Z" fill="#CECECE"/>
<path d="M94.1525 99.4362C97.3455 97.2243 100.094 94.6906 103.327 93.2629C106.237 91.9961 109.693 91.9559 113.128 91.3325C110.138 97.9683 100.7 101.93 94.1323 99.4362H94.1525Z" fill="#CECECE"/>
<path d="M1.94019 63.0601C9.09402 66.1165 11.7413 72.511 14.2472 78.8451C8.3463 78.9054 2.10185 71.0431 1.94019 63.0601Z" fill="#CECECE"/>
<path d="M36.114 99.4961C29.4047 101.788 21.8063 98.6515 16.7542 91.2114C20.715 91.9755 24.393 92.1163 27.5455 93.4636C30.6172 94.7706 33.1433 97.3244 36.114 99.476V99.4961Z" fill="#CECECE"/>
<path d="M42.1347 62.5371C37.3048 62.5371 34.8798 60.0436 34.8798 57.0676C34.8798 54.6948 35.9913 52.7845 38.2546 51.0351L50.7637 41.2021C54.2194 38.4071 56.0786 36.4163 56.0786 33.4202C56.0786 30.6855 53.5323 28.373 49.6523 28.373C45.7722 28.373 42.4782 30.8664 40.8009 34.1039L33.061 30.1828C36.0317 24.2709 42.2559 19.8672 50.4606 19.8672C59.7161 19.8672 66.1425 25.6584 66.1425 32.6159C66.1425 37.9044 63.7983 41.7048 59.514 45.0629L48.0558 54.1519H67.3954V62.5572H42.1145L42.1347 62.5371ZM71.6998 62.5371L87.0987 29.1371V29.0768H66.7285V20.6715H89.0994C94.7578 20.6715 97.7284 23.1046 97.7284 26.885C97.7284 28.2524 97.3041 29.861 96.5563 31.6105L82.6731 62.517H71.6998V62.5371Z" fill="#CECECE"/>
<path d="M90.1508 60.5464V59.0785H89.3223V58.0932H90.1508V57.0677H91.4442V58.0932H93.0406V59.0785H91.4442V60.5062C91.4442 60.9486 91.7473 61.21 92.2121 61.21C92.4748 61.21 92.8183 61.1296 93.0406 61.0089V62.0546C92.8183 62.1752 92.4142 62.2556 92.1111 62.2556C90.8177 62.2556 90.171 61.5519 90.171 60.5263L90.1508 60.5464ZM93.6873 62.1551V56.2231H94.9807V58.3345C95.3242 58.1133 95.7688 57.9726 96.2538 57.9726C97.628 57.9726 98.3555 58.7568 98.3555 60.0437V62.1551H97.0621V60.1644C97.0621 59.5812 96.7186 59.0785 96.0517 59.0785C95.3848 59.0785 94.9807 59.541 94.9807 60.1845V62.1551H93.6873Z" fill="#CECECE"/>
<path d="M44.8428 80.4734V69.3736H50.0162C53.1283 69.3736 54.9875 70.6002 54.9875 72.5105C54.9875 73.717 54.3004 74.5415 53.2091 74.9637C54.3004 75.2855 55.0683 75.9893 55.0683 77.3365C55.0683 79.4077 53.0272 80.4734 50.0162 80.4734H44.8428ZM48.2176 73.7572H50.198C51.1478 73.7572 51.6126 73.3953 51.6126 72.7518C51.6126 72.1888 51.1681 71.8268 50.198 71.8268H48.2176V73.7572ZM48.2176 78.0001H50.198C51.1478 78.0001 51.6935 77.7588 51.6935 77.1153C51.6935 76.4316 51.1478 76.2306 50.198 76.2306H48.2176V78.0001ZM59.2717 80.4734C57.1902 80.4734 56.3414 79.4881 56.3414 77.9197V71.9073C56.3414 70.3388 57.1902 69.3535 59.2717 69.3535H65.597V72.0681H59.7365V73.5562H65.1726V76.2708H59.7365V77.7588H65.6778V80.4734H59.2717ZM66.3649 78.2213L69.1739 76.9545C69.5174 77.6381 70.2045 77.9398 71.3564 77.9398C72.2456 77.9398 72.9327 77.6985 72.9327 77.1757C72.9327 76.5121 72.2052 76.4115 71.0937 76.2708C69.2547 76.0295 66.5468 75.386 66.5468 72.7317C66.5468 70.7008 68.5676 69.1323 71.316 69.1323C73.4783 69.1323 75.2971 69.997 76.1256 71.6459L73.3166 72.9127C72.9731 72.3698 72.3062 71.9274 71.1543 71.9274C70.346 71.9274 69.9216 72.1486 69.9216 72.6111C69.9216 73.2344 70.7299 73.4355 71.9223 73.5964C73.741 73.8377 76.3075 74.461 76.3075 77.1354C76.3075 79.1664 74.1048 80.7348 71.3564 80.7348C69.0122 80.7348 67.1935 79.8702 66.3447 78.2213H66.3649ZM86.7149 72.1687H83.2188V80.4734H79.844V72.1687H76.3479V69.3736H86.6947V72.1687H86.7149Z" fill="#CECECE"/>
<path d="M51.168 90.7694V84.0733H54.0174C55.6947 84.0733 56.988 84.7771 56.988 86.2048C56.988 87.1096 56.3818 87.8335 55.4522 88.0547C55.917 88.296 56.1999 88.7585 56.5839 89.4422L57.2912 90.7694H55.5532L54.8863 89.583C54.5428 88.9596 54.2195 88.6379 53.3909 88.6379H52.7644V90.7694H51.168ZM52.7847 85.4205V87.3308H54.0376C54.8055 87.3308 55.3511 86.9689 55.3511 86.3455C55.3511 85.682 54.7853 85.4205 54.0578 85.4205H52.7847ZM59.4939 85.0184C59.7566 84.2945 60.4033 83.9526 61.1106 83.9526C61.8179 83.9526 62.4848 84.2945 62.7273 85.0184L64.6875 90.7694H63.0506L62.6262 89.402H59.6152L59.1908 90.7694H57.5539L59.5141 85.0184H59.4939ZM60.0193 88.095H62.2018L61.3531 85.4407C61.3127 85.2999 61.252 85.2396 61.1106 85.2396C60.9893 85.2396 60.9085 85.2999 60.8681 85.4407L60.0193 88.095ZM65.3342 90.7694V84.9983C65.3342 84.3347 65.8798 83.9526 66.4861 83.9526C66.9711 83.9526 67.355 84.1135 67.5975 84.4755L70.5278 88.9998V84.0733H72.0434V89.8444C72.0434 90.508 71.4978 90.89 70.9117 90.89C70.4469 90.89 70.0226 90.7493 69.7801 90.3672L66.8498 85.8026V90.7493H65.314L65.3342 90.7694ZM73.4176 90.7694V84.0733H75.0343V86.7678H75.9841C76.0649 86.5667 76.2064 86.3455 76.3883 86.1243L78.1868 84.0733H80.0258L77.9039 86.5265C77.6008 86.8885 77.4593 87.1298 77.4593 87.3711C77.4593 87.6124 77.621 87.8537 77.9039 88.2156L80.0864 90.7493H78.106L76.3883 88.7183C76.2064 88.5172 76.0851 88.296 75.9841 88.095H75.0141V90.7493H73.3974L73.4176 90.7694Z" fill="#CECECE"/>
<path d="M24.1499 130.825V127.125C24.1499 126.602 24.4328 126.28 25.1199 126.28H27.7874V127.205H25.2614V128.392H27.6258V129.297H25.2614V130.845H24.1701L24.1499 130.825ZM27.8885 129.136C27.8885 128.171 28.7777 127.366 29.9093 127.366C31.041 127.366 31.9302 128.171 31.9302 129.136C31.9302 130.101 31.041 130.905 29.9093 130.905C28.7777 130.905 27.8885 130.101 27.8885 129.136ZM30.8794 129.136C30.8794 128.653 30.4752 128.271 29.9296 128.271C29.3839 128.271 28.9798 128.673 28.9798 129.136C28.9798 129.598 29.3839 130 29.9296 130C30.4752 130 30.8794 129.598 30.8794 129.136ZM32.2737 130.825V128.894C32.2737 128.03 32.8194 127.366 33.9309 127.366C34.1734 127.366 34.4361 127.406 34.6179 127.487V128.432C34.4361 128.331 34.2138 128.291 34.0319 128.291C33.6075 128.291 33.3448 128.533 33.3448 128.935V130.825H32.2737ZM41.2261 129.055V130.805H40.1551V129.216C40.1551 128.693 39.9126 128.271 39.3265 128.271C38.7405 128.271 38.498 128.693 38.498 129.216V130.825H37.4269V129.216C37.4269 128.693 37.1844 128.271 36.5984 128.271C36.0123 128.271 35.7698 128.714 35.7698 129.216V130.825H34.6988V129.075C34.6988 128.13 35.305 127.346 36.5175 127.346C37.2248 127.346 37.7503 127.628 37.9726 128.09C38.2151 127.628 38.7405 127.346 39.4074 127.346C40.6199 127.346 41.2261 128.13 41.2261 129.075V129.055ZM44.4191 129.015V127.467H45.4902V129.136C45.4902 130.121 44.8435 130.905 43.5905 130.905C42.3376 130.905 41.7111 130.121 41.7111 129.136V127.467H42.7822V129.035C42.7822 129.558 43.0449 130 43.6108 130C44.1766 130 44.4393 129.558 44.4393 129.035L44.4191 129.015ZM47.1877 125.918V130.825H46.1166V125.918H47.1877ZM47.6727 129.136C47.6727 128.171 48.5416 127.366 49.6935 127.366C50.8454 127.366 51.7144 128.13 51.7144 129.136V130.825H50.704V130.423C50.4412 130.724 50.0371 130.905 49.5319 130.905C48.4406 130.905 47.6929 130.101 47.6929 129.136H47.6727ZM50.6433 129.136C50.6433 128.653 50.2392 128.271 49.6935 128.271C49.1479 128.271 48.7437 128.673 48.7437 129.136C48.7437 129.598 49.1479 130 49.6935 130C50.2392 130 50.6433 129.598 50.6433 129.136ZM53.8565 129.92L54.7659 129.498C54.9276 129.84 55.2913 130 55.8167 130C56.2815 130 56.6453 129.819 56.6453 129.498C56.6453 129.116 56.2411 129.055 55.7157 128.975C54.9478 128.854 53.9171 128.613 53.9171 127.587C53.9171 126.783 54.7053 126.18 55.7561 126.18C56.5847 126.18 57.3122 126.522 57.6355 127.185L56.7261 127.608C56.5644 127.306 56.2209 127.105 55.7157 127.105C55.3115 127.105 55.0084 127.286 55.0084 127.567C55.0084 127.929 55.4328 128.03 55.9784 128.11C56.7261 128.231 57.7163 128.472 57.7163 129.498C57.7163 130.322 56.8676 130.925 55.7763 130.925C54.8669 130.925 54.1394 130.584 53.8161 129.92H53.8565ZM59.2522 126.904C59.4341 126.401 59.8787 126.18 60.3434 126.18C60.8082 126.18 61.273 126.421 61.4549 126.904L62.7887 130.825H61.6772L61.3741 129.88H59.3128L59.0097 130.825H57.8982L59.232 126.904H59.2522ZM59.6159 128.995H61.0912L60.5253 127.185C60.5253 127.185 60.4445 127.045 60.3637 127.045C60.2828 127.045 60.2222 127.085 60.202 127.185L59.6159 128.995ZM64.2033 130.825C63.496 130.825 63.2333 130.503 63.2333 129.98V127.125C63.2333 126.602 63.496 126.28 64.2033 126.28H66.891V127.165H64.3447V128.11H66.7294V128.995H64.3447V129.94H66.9314V130.825H64.2033ZM68.7502 129.92C69.5181 129.92 69.8011 129.639 69.8011 129.136V126.26H70.8923V129.075C70.8923 130.222 70.2052 130.885 68.7502 130.885V129.94V129.92ZM71.3975 129.136C71.3975 128.171 72.2665 127.366 73.4184 127.366C74.5703 127.366 75.4393 128.13 75.4393 129.136V130.825H74.4288V130.423C74.1661 130.724 73.7619 130.905 73.2567 130.905C72.1655 130.905 71.4177 130.101 71.4177 129.136H71.3975ZM74.3682 129.136C74.3682 128.653 73.964 128.271 73.4184 128.271C72.8728 128.271 72.4686 128.673 72.4686 129.136C72.4686 129.598 72.8728 130 73.4184 130C73.964 130 74.3682 129.598 74.3682 129.136ZM75.9647 132.373V129.136C75.9647 128.13 76.8134 127.366 77.9855 127.366C79.1576 127.366 80.0064 128.171 80.0064 129.136C80.0064 130.181 79.2182 130.925 78.0462 130.925C77.6622 130.925 77.3186 130.805 77.0357 130.604V132.373H75.9647ZM78.9151 129.136C78.9151 128.653 78.511 128.271 77.9653 128.271C77.4197 128.271 77.0155 128.653 77.0155 129.136C77.0155 129.618 77.4197 130 77.9653 130C78.511 130 78.9151 129.598 78.9151 129.136ZM80.1478 129.136C80.1478 128.171 81.0168 127.366 82.1687 127.366C83.3206 127.366 84.1896 128.13 84.1896 129.136V130.825H83.1791V130.423C82.9164 130.724 82.5122 130.905 82.007 130.905C80.9158 130.905 80.168 130.101 80.168 129.136H80.1478ZM83.1185 129.136C83.1185 128.653 82.7143 128.271 82.1687 128.271C81.6231 128.271 81.2189 128.673 81.2189 129.136C81.2189 129.598 81.6231 130 82.1687 130C82.7143 130 83.1185 129.598 83.1185 129.136ZM85.786 129.256V130.825H84.715V129.156C84.715 128.171 85.3617 127.386 86.655 127.386C87.9484 127.386 88.6152 128.171 88.6152 129.156V130.825H87.5442V129.256C87.5442 128.734 87.2613 128.291 86.655 128.291C86.0487 128.291 85.786 128.734 85.786 129.256ZM91.6465 130.825C91.1211 130.825 90.8584 130.563 90.8584 130.222C90.8584 129.96 90.9796 129.759 91.2221 129.558L92.5761 128.492C92.9601 128.191 93.1622 127.97 93.1622 127.648C93.1622 127.346 92.8792 127.105 92.4549 127.105C92.0305 127.105 91.6667 127.386 91.4849 127.728L90.6361 127.306C90.9594 126.662 91.6465 126.18 92.5357 126.18C93.5461 126.18 94.2534 126.803 94.2534 127.567C94.2534 128.15 93.9907 128.553 93.5259 128.915L92.273 129.9H94.3747V130.825H91.6263H91.6465ZM94.7384 128.533C94.7384 127.165 95.6074 126.16 96.8805 126.16C98.1537 126.16 99.0226 127.165 99.0226 128.533C99.0226 129.9 98.1739 130.905 96.8805 130.905C95.5872 130.905 94.7384 129.86 94.7384 128.533ZM97.9112 128.533C97.9112 127.728 97.4666 127.165 96.8805 127.165C96.2945 127.165 95.8499 127.728 95.8499 128.533C95.8499 129.277 96.3147 129.9 96.8805 129.9C97.4464 129.9 97.9112 129.297 97.9112 128.533ZM100.821 130.825V127.427C100.821 127.427 100.821 127.427 100.801 127.427L99.6491 127.97L99.1439 127.024L100.538 126.361C100.781 126.24 101.044 126.16 101.266 126.16C101.65 126.16 101.912 126.381 101.912 126.803V130.825H100.821ZM102.6 129.337C102.6 128.874 102.781 128.492 103.125 127.949L104.196 126.24H105.429L104.499 127.728C104.499 127.728 104.58 127.728 104.62 127.728C105.631 127.728 106.399 128.311 106.399 129.236C106.399 130.161 105.611 130.905 104.499 130.905C103.388 130.905 102.6 130.202 102.6 129.337ZM105.328 129.277C105.328 128.874 104.964 128.533 104.479 128.533C103.954 128.533 103.63 128.935 103.63 129.297C103.63 129.739 103.994 130.061 104.479 130.061C104.964 130.061 105.328 129.719 105.328 129.297V129.277Z" fill="#CECECE"/>
</g>
<defs>
<clipPath id="clip0_351_8422">
<rect width="130.305" height="132.373" fill="white"/>
</clipPath>
</defs>
</svg>
