<svg width="218" height="120" viewBox="0 0 218 120" fill="none" xmlns="http://www.w3.org/2000/svg">
<g clip-path="url(#clip0_351_8039)">
<path d="M69.4971 58.3408C63.6621 58.3408 60.7353 55.3203 60.7353 51.7032C60.7353 48.8318 62.0775 46.5012 64.8179 44.3756L79.8993 32.4428C84.0751 29.0493 86.3122 26.6255 86.3122 23.0083C86.3122 19.6895 83.2363 16.8927 78.5571 16.8927C73.878 16.8927 69.8886 19.9132 67.8939 23.8287L58.5542 19.0742C62.1335 11.8958 69.6462 6.54468 79.5638 6.54468C90.7304 6.54468 98.4854 13.5739 98.4854 22.0201C98.4854 28.4341 95.6519 33.0394 90.488 37.1227L76.6556 48.1419H99.9954V58.3222H69.4784L69.4971 58.3408Z" fill="#CECECE"/>
<path d="M107.322 38.5578V42.6411H104.544V38.2595C104.544 35.7051 106.204 33.6168 109.615 33.6168C113.027 33.6168 114.723 35.6864 114.723 38.2595V42.6411H111.945V38.5578C111.945 37.2153 111.218 36.0593 109.634 36.0593C108.049 36.0593 107.359 37.2153 107.359 38.5578H107.322ZM115.562 38.2595C115.562 35.5186 117.65 33.6168 120.67 33.6168C121.658 33.6168 122.59 33.9338 123.298 34.4559V29.8132H126.113V38.2595C126.113 40.9257 123.876 42.9021 120.838 42.9021C117.799 42.9021 115.581 40.8139 115.581 38.2595H115.562ZM123.298 38.2595C123.298 37.0102 122.236 35.9848 120.8 35.9848C119.365 35.9848 118.321 37.0102 118.321 38.2595C118.321 39.5087 119.365 40.5155 120.8 40.5155C122.236 40.5155 123.298 39.5087 123.298 38.2595ZM105.122 58.3403V46.3887H109.783C113.53 46.3887 115.823 47.9736 115.823 50.7331C115.823 53.4925 113.567 55.1706 109.932 55.1706H107.993V58.3216H105.122V58.3403ZM107.975 48.794V52.784H109.839C111.722 52.784 112.859 52.1314 112.859 50.7331C112.859 49.3347 111.722 48.7753 109.839 48.7753H107.975V48.794ZM119.272 55.9537H125.442V58.3589H118.955C117.128 58.3589 116.419 57.5012 116.419 56.1401V46.4074H119.29V55.9537H119.272ZM129.767 48.0855C130.215 46.7803 131.389 46.165 132.638 46.165C133.887 46.165 135.08 46.7803 135.527 48.0855L139.014 58.3403H136.087L135.322 55.8978H129.972L129.208 58.3403H126.281L129.767 48.0855ZM130.699 53.5858H134.558L133.067 48.8499C132.992 48.6075 132.862 48.4956 132.638 48.4956C132.414 48.4956 132.284 48.6075 132.209 48.8499L130.699 53.5858ZM138.473 52.3925C138.473 48.9245 141.474 46.1836 145.315 46.1836C147.608 46.1836 149.807 47.2837 150.795 49.1482L148.465 50.3415C147.813 49.316 146.806 48.6634 145.203 48.6634C143.003 48.6634 141.418 50.2483 141.418 52.4111C141.418 54.574 142.984 56.1588 145.203 56.1588C146.787 56.1588 147.85 55.5062 148.465 54.4807L150.795 55.674C149.807 57.5385 147.608 58.6386 145.315 58.6386C141.474 58.6386 138.473 55.8791 138.473 52.4298V52.3925ZM153.89 58.3403C152.063 58.3403 151.355 57.4826 151.355 56.1215V48.6262C151.355 47.2651 152.063 46.3887 153.89 46.3887H160.881V48.7194H154.225V51.1992H160.471V53.5298H154.225V56.0096H160.993V58.3403H153.89Z" fill="#CECECE"/>
<path d="M51.2467 116.233C49.7927 117.762 41.5529 112.56 38.9057 108.086C38.9057 108.086 37.433 105.624 37.1161 102.156C37.0788 101.839 37.1161 101.504 37.172 101.187C37.2093 100.982 37.3211 100.795 37.5076 100.311C37.8804 100.441 38.2905 100.516 38.6634 100.628C38.6634 100.628 39.204 100.814 39.726 101.094C45.244 103.965 48.7301 109.782 48.7301 109.782C50.4079 112.579 52.067 115.357 51.2467 116.233Z" fill="#CECECE"/>
<path d="M27.5159 12.8835C27.9633 4.71697 38.1978 -1.80882 47.5561 0.447242C41.9448 6.56284 36.6132 12.4733 27.5159 12.8835Z" fill="#CECECE"/>
<path d="M15.7524 85.9908C9.89884 78.1971 10.3835 69.4898 16.7218 64.2878C20.6553 71.634 17.4675 78.4581 15.7524 85.9908Z" fill="#CECECE"/>
<path d="M10.1603 70.8695C6.61832 61.8266 9.43327 53.4177 16.8528 50.1548C18.6424 58.3213 13.7582 64.12 10.1603 70.8695Z" fill="#CECECE"/>
<path d="M11.8564 38.4271C12.7326 29.5707 20.3572 22.9703 27.6276 24.5552C26.5277 29.7012 20.9165 34.6795 11.8564 38.4271Z" fill="#CECECE"/>
<path d="M8.9481 54.5549C7.6618 45.195 13.1985 36.8607 20.7299 36.7488C20.0774 44.8594 14.1306 49.2224 8.9481 54.5549Z" fill="#CECECE"/>
<path d="M38.1973 14.5801C33.4622 21.4229 26.0427 22.1687 19.0706 24.1637C20.3382 17.4515 31.0574 10.6274 38.1973 14.5801Z" fill="#CECECE"/>
<path d="M20.4694 78.0854C25.9129 84.1265 24.8503 91.4726 25.0553 98.7442C17.4494 94.3626 15.3615 82.6162 20.4694 78.0854Z" fill="#CECECE"/>
<path d="M22.8179 99.9186C15.212 99.9558 7.77382 93.2436 6.07739 84.7974C14.3731 86.7178 18.7913 93.0385 22.8179 99.9186Z" fill="#CECECE"/>
<path d="M37.5642 109.465C28.8024 105.829 25.0181 98.6511 27.2365 90.0557C34.3391 94.6237 35.1967 102.026 37.5642 109.465Z" fill="#CECECE"/>
<path d="M50.5758 117.799C45.0391 122.61 32.6422 118.806 28.6155 113.25C36.7807 110.602 43.6782 114.275 50.5758 117.799Z" fill="#CECECE"/>
<path d="M5.72259 30.895C10.1967 38.3717 8.81717 45.8857 6.84111 53.4183C1.41628 49.2418 0.894304 39.6023 5.72259 30.895Z" fill="#CECECE"/>
<path d="M14.9878 15.3074C17.5045 23.5485 13.7015 30.3726 10.1409 37.0849C5.83456 32.088 8.29531 20.6026 14.9878 15.3074Z" fill="#CECECE"/>
<path d="M8.03454 70.3849C1.32341 66.7677 -1.84574 56.9604 1.0997 48.8684C7.60577 54.723 7.38207 62.7031 8.03454 70.3849Z" fill="#CECECE"/>
<path d="M17.4671 22.4484C14.7827 16.1091 20.6922 5.40679 28.4473 2.27441C26.8068 7.51369 27.0678 13.014 22.37 16.7617C20.5058 18.2533 19.2008 20.4161 17.4671 22.4671V22.4484Z" fill="#CECECE"/>
<path d="M1.11869 67.1035C8.76193 71.1682 11.1108 78.4957 13.3106 85.7859C6.76723 85.3198 0.578072 75.9972 1.11869 67.1035Z" fill="#CECECE"/>
<path d="M35.644 110.77C28.0008 112.728 19.8728 108.533 14.97 99.8071C19.2763 101.019 23.3402 101.522 26.7145 103.294C29.9954 105.028 32.5494 108.104 35.6626 110.77H35.644Z" fill="#CECECE"/>
<path d="M166.753 116.233C168.207 117.762 176.447 112.56 179.094 108.086C179.094 108.086 180.567 105.624 180.884 102.156C180.921 101.839 180.884 101.504 180.828 101.187C180.79 100.982 180.679 100.795 180.492 100.311C180.119 100.441 179.709 100.516 179.336 100.628C179.336 100.628 178.796 100.814 178.274 101.094C172.756 103.965 169.27 109.782 169.27 109.782C167.592 112.579 165.933 115.357 166.753 116.233Z" fill="#CECECE"/>
<path d="M190.486 12.8835C190.039 4.71697 179.804 -1.80882 170.446 0.447242C176.057 6.56284 181.389 12.4733 190.486 12.8835Z" fill="#CECECE"/>
<path d="M202.248 85.9908C208.102 78.1971 207.617 69.4898 201.279 64.2878C197.345 71.634 200.533 78.4581 202.248 85.9908Z" fill="#CECECE"/>
<path d="M207.84 70.8695C211.382 61.8266 208.568 53.4177 201.148 50.1548C199.358 58.3213 204.243 64.12 207.84 70.8695Z" fill="#CECECE"/>
<path d="M206.144 38.4271C205.268 29.5707 197.643 22.9703 190.373 24.5552C191.473 29.7012 197.084 34.6795 206.144 38.4271Z" fill="#CECECE"/>
<path d="M209.053 54.5549C210.339 45.195 204.802 36.8607 197.271 36.7488C197.923 44.8594 203.87 49.2224 209.053 54.5549Z" fill="#CECECE"/>
<path d="M179.803 14.5801C184.538 21.4229 191.957 22.1687 198.929 24.1637C197.662 17.4515 186.943 10.6274 179.803 14.5801Z" fill="#CECECE"/>
<path d="M197.531 78.0854C192.088 84.1265 193.15 91.4726 192.945 98.7442C200.551 94.3626 202.639 82.6162 197.531 78.0854Z" fill="#CECECE"/>
<path d="M195.183 99.9186C202.789 99.9558 210.227 93.2436 211.923 84.7974C203.627 86.7178 199.209 93.0385 195.183 99.9186Z" fill="#CECECE"/>
<path d="M180.437 109.465C189.199 105.829 192.983 98.6511 190.764 90.0557C183.662 94.6237 182.804 102.026 180.437 109.465Z" fill="#CECECE"/>
<path d="M167.425 117.799C172.961 122.61 185.358 118.806 189.385 113.25C181.22 110.602 174.322 114.275 167.425 117.799Z" fill="#CECECE"/>
<path d="M212.278 30.895C207.804 38.3717 209.183 45.8857 211.159 53.4183C216.584 49.2418 217.106 39.6023 212.278 30.895Z" fill="#CECECE"/>
<path d="M203.012 15.3074C200.496 23.5485 204.299 30.3726 207.859 37.0849C212.166 32.088 209.705 20.6026 203.012 15.3074Z" fill="#CECECE"/>
<path d="M209.966 70.3849C216.677 66.7677 219.847 56.9604 216.901 48.8684C210.395 54.723 210.619 62.7031 209.966 70.3849Z" fill="#CECECE"/>
<path d="M200.533 22.4484C203.217 16.1091 197.308 5.40679 189.552 2.27441C191.193 7.51369 190.932 13.014 195.63 16.7617C197.494 18.2533 198.799 20.4161 200.533 22.4671V22.4484Z" fill="#CECECE"/>
<path d="M216.882 67.1035C209.238 71.1682 206.889 78.4957 204.69 85.7859C211.233 85.3198 217.422 75.9972 216.882 67.1035Z" fill="#CECECE"/>
<path d="M182.375 110.77C190.018 112.728 198.146 108.533 203.049 99.8071C198.743 101.019 194.679 101.522 191.305 103.294C188.024 105.028 185.47 108.104 182.356 110.77H182.375Z" fill="#CECECE"/>
<path d="M56.5598 77.06V66.4136H62.4507V76.9295C62.4507 79.9313 63.7184 81.1619 66.3282 81.1619C68.9381 81.1619 70.2431 79.9313 70.2431 76.9295V66.4136H76.1339V77.06C76.1339 82.8213 73.058 86.1961 66.3469 86.1961C59.6357 86.1961 56.5785 82.8213 56.5785 77.06H56.5598ZM79.1353 85.8419V66.4136H88.1394C93.2287 66.4136 97.1062 68.5765 97.1062 72.8649C97.1062 75.4192 95.5217 77.5261 93.005 78.2533C94.0862 78.8872 94.7946 80.0059 95.7454 81.7586L97.9451 85.8419H91.5509L89.5562 82.1874C88.8292 80.8636 87.9903 80.3788 86.0888 80.3788H85.0076L84.9703 85.8419H79.154H79.1353ZM85.0262 71.2987L84.9889 75.643H88.1394C89.8545 75.643 91.0662 74.7853 91.0662 73.4056C91.0662 71.9326 89.8545 71.2987 88.1953 71.2987H85.0076H85.0262ZM100.164 85.8419V66.4136H109.168C114.574 66.4136 117.818 68.5765 117.818 71.9139C117.818 74.0208 116.606 75.4565 114.742 76.2023C116.643 76.7803 117.985 77.9923 117.985 80.3415C117.985 83.9773 114.425 85.8419 109.168 85.8419H100.164ZM106.036 74.0954H109.466C111.125 74.0954 111.908 73.4615 111.908 72.3428C111.908 71.3732 111.144 70.7393 109.466 70.7393H106.036V74.1141V74.0954ZM106.036 81.5162H109.466C111.125 81.5162 112.076 81.0873 112.076 79.9686C112.076 78.7567 111.125 78.4211 109.466 78.4211H106.036V81.5348V81.5162ZM123.969 69.4901C124.771 67.1035 126.989 65.9848 129.208 65.9848C131.426 65.9848 133.663 67.1035 134.446 69.4901L139.983 85.8419H133.98L132.992 82.5603H125.461L124.435 85.8419H118.433L123.969 69.4901ZM126.933 77.8058H131.538L129.506 71.0376C129.45 70.8325 129.376 70.758 129.245 70.758C129.115 70.758 129.059 70.8512 128.984 71.0376L126.915 77.8058H126.933ZM141.269 85.8419V69.2663C141.269 67.1967 143.059 65.9475 144.923 65.9475C146.414 65.9475 147.719 66.4136 148.484 67.4951L156.052 78.3465V66.395H161.626V82.9705C161.626 85.0401 159.837 86.252 157.972 86.252C156.518 86.252 155.176 85.7859 154.412 84.7045L146.843 73.853V85.8232H141.269V85.8419Z" fill="#CECECE"/>
<path d="M48.1526 98.1851C48.1526 94.6612 51.2099 91.8458 55.1247 91.8458C57.4736 91.8458 59.7107 92.9645 60.6987 94.8663L58.3125 96.0782C57.66 95.0341 56.6161 94.3629 54.9942 94.3629C52.7572 94.3629 51.1353 95.9664 51.1353 98.1851C51.1353 100.404 52.7385 102.007 54.9942 102.007C56.6161 102.007 57.6973 101.336 58.3125 100.292L60.6987 101.504C59.692 103.406 57.455 104.524 55.1247 104.524C51.2099 104.524 48.1526 101.728 48.1526 98.1851ZM60.6427 98.1851C60.6427 94.6053 63.6628 91.8644 67.6335 91.8644C71.6043 91.8644 74.6616 94.6053 74.6616 98.1851C74.6616 101.765 71.6229 104.506 67.6335 104.506C63.6441 104.506 60.6427 101.784 60.6427 98.1851ZM71.6416 98.1851C71.6416 96.0409 69.9078 94.3629 67.6335 94.3629C65.3592 94.3629 63.6255 96.0223 63.6255 98.1851C63.6255 100.348 65.3778 102.007 67.6335 102.007C69.8892 102.007 71.6416 100.348 71.6416 98.1851ZM76.0038 104.263V93.7476C76.0038 92.5357 76.9918 91.8271 78.0917 91.8271C78.9679 91.8271 79.6763 92.1255 80.105 92.778L85.418 101.038V92.0882H88.177V102.604C88.177 103.816 87.189 104.506 86.1451 104.506C85.2875 104.506 84.5418 104.226 84.1131 103.574L78.8001 95.2765V104.282H76.0224L76.0038 104.263ZM89.5565 98.1851C89.5565 94.6612 92.6138 91.8458 96.5287 91.8458C98.8776 91.8458 101.115 92.9645 102.103 94.8663L99.7165 96.0782C99.064 95.0341 98.02 94.3629 96.3982 94.3629C94.1611 94.3629 92.5393 95.9664 92.5393 98.1851C92.5393 100.404 94.1425 102.007 96.3982 102.007C98.02 102.007 99.1013 101.336 99.7165 100.292L102.103 101.504C101.096 103.406 98.8589 104.524 96.5287 104.524C92.6138 104.524 89.5565 101.728 89.5565 98.1851ZM105.57 104.263C103.706 104.263 102.997 103.387 102.997 102.007V94.3629C102.997 92.9645 103.724 92.0882 105.57 92.0882H112.691V94.4561H105.906V96.9918H112.263V99.3598H105.906V101.896H112.803V104.263H105.57ZM114.649 104.263V92.0882H119.384C123.205 92.0882 125.536 93.6917 125.536 96.5257C125.536 99.3598 123.243 101.056 119.533 101.056H117.557V104.263H114.63H114.649ZM117.576 94.5307V98.5953H119.477C121.397 98.5953 122.553 97.9241 122.553 96.5071C122.553 95.09 121.397 94.512 119.477 94.512H117.576V94.5307ZM136.236 94.5307H132.284V104.263H129.357V94.5307H125.405V92.0882H136.236V94.5307ZM144.886 92.0882V104.263H141.959V92.0882H144.886ZM146.359 98.1851C146.359 94.6612 149.416 91.8458 153.331 91.8458C155.68 91.8458 157.917 92.9645 158.905 94.8663L156.519 96.0782C155.866 95.0341 154.822 94.3629 153.2 94.3629C150.963 94.3629 149.342 95.9664 149.342 98.1851C149.342 100.404 150.945 102.007 153.2 102.007C154.822 102.007 155.904 101.336 156.519 100.292L158.905 101.504C157.898 103.406 155.661 104.524 153.331 104.524C149.416 104.524 146.359 101.728 146.359 98.1851ZM162.372 104.263C160.508 104.263 159.8 103.387 159.8 102.007V94.3629C159.8 92.9645 160.527 92.0882 162.372 92.0882H169.494V94.4561H162.708V96.9918H169.065V99.3598H162.708V101.896H169.605V104.263H162.372Z" fill="#CECECE"/>
<path d="M62.414 116.196L63.0292 115.935C63.2156 116.308 63.6071 116.513 64.1663 116.513C64.7256 116.513 65.1357 116.271 65.1357 115.861C65.1357 115.395 64.651 115.301 64.0918 115.208C63.3834 115.078 62.4886 114.872 62.4886 113.959C62.4886 113.25 63.197 112.71 64.0918 112.71C64.8188 112.71 65.4526 113.008 65.7323 113.605L65.1357 113.884C64.9493 113.53 64.5765 113.306 64.0545 113.306C63.5698 113.306 63.1783 113.567 63.1783 113.922C63.1783 114.388 63.6817 114.481 64.2596 114.593C64.968 114.723 65.8255 114.928 65.8255 115.842C65.8255 116.606 65.0798 117.129 64.1291 117.129C63.3275 117.129 62.6563 116.812 62.3767 116.215L62.414 116.196ZM66.5152 117.035V112.467H67.205V114.257C67.466 113.996 67.8947 113.828 68.3608 113.828C69.3675 113.828 69.9454 114.444 69.9454 115.395V117.035H69.2556V115.469C69.2556 114.91 68.9201 114.425 68.2676 114.425C67.6524 114.425 67.2236 114.872 67.2236 115.488V117.035H66.5339H66.5152ZM70.3741 115.45C70.3741 114.555 71.0825 113.81 72.1265 113.81C73.1704 113.81 73.8229 114.5 73.8229 115.376V115.637H71.0639C71.1385 116.178 71.5859 116.551 72.2197 116.551C72.6485 116.551 73.0213 116.383 73.2264 116.047L73.767 116.289C73.4687 116.83 72.9095 117.11 72.2383 117.11C71.1944 117.11 70.4114 116.42 70.4114 115.45H70.3741ZM73.1145 115.227C73.0772 114.723 72.6858 114.388 72.1079 114.388C71.5299 114.388 71.1385 114.761 71.0639 115.227H73.0959H73.1145ZM75.1465 112.467V117.035H74.4567V112.467H75.1465ZM76.7684 112.467V117.035H76.0786V112.467H76.7684ZM80.0121 117.035C79.5274 117.035 79.341 116.812 79.341 116.439V113.325C79.341 112.952 79.5087 112.728 80.0121 112.728H82.6033V113.325H80.068V114.574H82.4728V115.171H80.068V116.42H82.6592V117.017H80.0121V117.035ZM82.9762 115.469C82.9762 114.574 83.7964 113.828 84.7844 113.828C85.4183 113.828 85.9962 114.089 86.3131 114.649L85.7352 114.947C85.5301 114.611 85.1759 114.425 84.7844 114.425C84.1692 114.425 83.6846 114.891 83.6846 115.469C83.6846 116.047 84.1879 116.513 84.7844 116.513C85.1946 116.513 85.5301 116.327 85.7352 115.991L86.3131 116.271C85.9962 116.849 85.4183 117.091 84.7844 117.091C83.7964 117.091 82.9762 116.364 82.9762 115.45V115.469ZM86.4622 115.469C86.4622 114.574 87.2825 113.828 88.3078 113.828C89.3331 113.828 90.1347 114.574 90.1347 115.469C90.1347 116.364 89.3331 117.129 88.3078 117.129C87.2825 117.129 86.4622 116.383 86.4622 115.469ZM89.4449 115.469C89.4449 114.891 88.9602 114.425 88.3078 114.425C87.6553 114.425 87.152 114.891 87.152 115.469C87.152 116.047 87.6553 116.513 88.3078 116.513C88.9602 116.513 89.4449 116.047 89.4449 115.469ZM93.2852 115.357H90.8431V114.779H93.2852V115.357ZM100.108 115.395V117.054H99.4184V115.506C99.4184 114.928 99.1015 114.444 98.4677 114.444C97.8339 114.444 97.5169 114.928 97.5169 115.506V117.073H96.8272V115.506C96.8272 114.928 96.5103 114.444 95.8764 114.444C95.2426 114.444 94.9443 114.947 94.9443 115.506V117.054H94.2546V115.413C94.2546 114.537 94.8138 113.828 95.8392 113.828C96.5289 113.828 97.0322 114.145 97.2 114.63C97.3864 114.145 97.8711 113.828 98.5423 113.828C99.5862 113.828 100.145 114.537 100.145 115.395H100.108ZM100.537 115.469C100.537 114.574 101.32 113.828 102.383 113.828C103.445 113.828 104.228 114.537 104.228 115.469V117.035H103.557V116.476C103.296 116.867 102.83 117.11 102.271 117.11C101.264 117.11 100.537 116.364 100.537 115.45V115.469ZM103.52 115.469C103.52 114.891 103.035 114.425 102.383 114.425C101.73 114.425 101.245 114.891 101.245 115.469C101.245 116.047 101.749 116.513 102.383 116.513C103.016 116.513 103.52 116.047 103.52 115.469ZM104.881 117.035V115.171C104.881 114.406 105.365 113.847 106.26 113.847C106.484 113.847 106.707 113.884 106.875 113.959V114.593C106.707 114.5 106.502 114.462 106.316 114.462C105.85 114.462 105.57 114.742 105.57 115.208V117.054H104.881V117.035ZM106.819 115.469C106.819 114.574 107.602 113.828 108.665 113.828C109.727 113.828 110.51 114.537 110.51 115.469V117.035H109.839V116.476C109.578 116.867 109.112 117.11 108.553 117.11C107.546 117.11 106.819 116.364 106.819 115.45V115.469ZM109.802 115.469C109.802 114.891 109.317 114.425 108.665 114.425C108.012 114.425 107.528 114.891 107.528 115.469C107.528 116.047 108.031 116.513 108.665 116.513C109.299 116.513 109.802 116.047 109.802 115.469ZM111.405 115.917V114.462H110.716V113.922H111.405V113.101H112.095V113.922H113.419V114.462H112.095V115.898C112.095 116.308 112.356 116.551 112.785 116.551C113.008 116.551 113.251 116.476 113.419 116.364V116.942C113.251 117.054 112.971 117.129 112.71 117.129C111.853 117.129 111.387 116.644 111.387 115.917H111.405ZM114.127 117.035V112.467H114.817V114.257C115.078 113.996 115.507 113.828 115.973 113.828C116.979 113.828 117.557 114.444 117.557 115.395V117.035H116.867V115.469C116.867 114.91 116.532 114.425 115.879 114.425C115.264 114.425 114.835 114.872 114.835 115.488V117.035H114.146H114.127ZM117.986 115.469C117.986 114.574 118.806 113.828 119.831 113.828C120.857 113.828 121.658 114.574 121.658 115.469C121.658 116.364 120.857 117.129 119.831 117.129C118.806 117.129 117.986 116.383 117.986 115.469ZM120.969 115.469C120.969 114.891 120.484 114.425 119.831 114.425C119.179 114.425 118.676 114.891 118.676 115.469C118.676 116.047 119.179 116.513 119.831 116.513C120.484 116.513 120.969 116.047 120.969 115.469ZM122.796 115.525V117.035H122.106V115.45C122.106 114.537 122.702 113.81 123.821 113.81C124.939 113.81 125.555 114.518 125.555 115.432V117.017H124.865V115.506C124.865 114.91 124.511 114.406 123.821 114.406C123.131 114.406 122.814 114.91 122.814 115.488L122.796 115.525ZM128.891 113.269C129.041 112.859 129.376 112.672 129.768 112.672C130.159 112.672 130.513 112.859 130.662 113.269L131.949 117.035H131.222L130.868 115.991H128.668L128.314 117.035H127.587L128.873 113.269H128.891ZM128.873 115.395H130.681L130.047 113.455C129.991 113.325 129.917 113.25 129.786 113.25C129.637 113.25 129.563 113.306 129.525 113.455L128.891 115.395H128.873ZM132.21 116.401L132.75 116.14C132.918 116.457 133.216 116.569 133.589 116.569C133.962 116.569 134.279 116.42 134.279 116.14C134.279 115.488 132.303 115.973 132.303 114.779C132.303 114.22 132.844 113.828 133.589 113.828C134.223 113.828 134.671 114.089 134.894 114.462L134.354 114.742C134.204 114.462 133.925 114.369 133.608 114.369C133.291 114.369 132.993 114.518 132.993 114.779C132.993 115.413 134.969 114.947 134.969 116.14C134.969 116.737 134.335 117.11 133.608 117.11C132.974 117.11 132.471 116.886 132.21 116.42V116.401ZM135.491 112.859C135.491 112.635 135.696 112.43 135.957 112.43C136.218 112.43 136.404 112.616 136.404 112.859C136.404 113.101 136.199 113.269 135.957 113.269C135.714 113.269 135.491 113.083 135.491 112.859ZM136.292 113.903V117.035H135.603V113.903H136.292ZM136.87 115.469C136.87 114.574 137.653 113.828 138.716 113.828C139.778 113.828 140.561 114.537 140.561 115.469V117.035H139.89V116.476C139.629 116.867 139.163 117.11 138.604 117.11C137.597 117.11 136.87 116.364 136.87 115.45V115.469ZM139.853 115.469C139.853 114.891 139.368 114.425 138.716 114.425C138.063 114.425 137.579 114.891 137.579 115.469C137.579 116.047 138.082 116.513 138.716 116.513C139.35 116.513 139.853 116.047 139.853 115.469ZM143.432 117.035C143.004 117.035 142.78 116.812 142.78 116.532C142.78 116.327 142.873 116.159 143.078 115.991L144.476 114.854C144.868 114.537 145.073 114.294 145.073 113.94C145.073 113.549 144.719 113.288 144.253 113.288C143.786 113.288 143.414 113.549 143.19 113.94L142.631 113.661C142.948 113.083 143.525 112.672 144.29 112.672C145.166 112.672 145.781 113.213 145.781 113.903C145.781 114.425 145.52 114.817 145.091 115.171L143.693 116.289C143.693 116.289 143.6 116.364 143.6 116.401C143.6 116.42 143.6 116.439 143.637 116.439H145.912V117.035H143.414H143.432ZM146.303 114.891C146.303 113.642 147.067 112.672 148.205 112.672C149.342 112.672 150.106 113.623 150.106 114.891C150.106 116.159 149.342 117.129 148.205 117.129C147.067 117.129 146.303 116.14 146.303 114.891ZM149.36 114.891C149.36 114.015 148.876 113.344 148.205 113.344C147.534 113.344 147.049 114.015 147.049 114.891C147.049 115.767 147.534 116.457 148.205 116.457C148.876 116.457 149.36 115.767 149.36 114.891ZM151.747 117.035V113.493C151.747 113.493 151.747 113.455 151.709 113.455C151.672 113.455 151.653 113.474 151.616 113.493L150.535 114.052L150.218 113.437L151.43 112.821C151.616 112.728 151.803 112.654 151.989 112.654C152.287 112.654 152.474 112.84 152.474 113.157V117.017H151.747V117.035ZM153.611 117.035L155.251 113.567C155.251 113.567 155.307 113.455 155.307 113.399C155.307 113.362 155.27 113.344 155.214 113.344H153.033V112.747H155.27C155.792 112.747 156.034 112.952 156.034 113.306C156.034 113.437 155.997 113.605 155.922 113.772L154.394 117.054H153.611V117.035Z" fill="#CECECE"/>
</g>
<defs>
<clipPath id="clip0_351_8039">
<rect width="218" height="120" fill="white"/>
</clipPath>
</defs>
</svg>
