<svg width="218" height="120" viewBox="0 0 218 120" fill="none" xmlns="http://www.w3.org/2000/svg">
<g clip-path="url(#clip0_351_7285)">
<path d="M81.0001 58.341V20.4541C81.0001 20.4541 80.8323 20.5287 80.7577 20.6033L68.0811 26.7188L62.4885 16.2216L77.9987 8.81954C80.6645 7.53302 83.5913 6.56348 86.0893 6.56348C90.3397 6.56348 93.1733 9.1365 93.1733 13.6673V58.3596H81.0001V58.341Z" fill="#EBAA01"/>
<path d="M98.5051 40.9073L100.574 39.8631C100.985 40.5716 101.637 40.87 102.606 40.87C103.501 40.87 104.079 40.553 104.079 40.0309C104.079 38.6139 98.7475 39.8445 98.7475 36.4511C98.7475 34.8662 100.276 33.6357 102.681 33.6357C104.769 33.6357 106.018 34.5306 106.614 35.5375L104.545 36.5816C104.228 35.9477 103.52 35.6493 102.737 35.6493C102.047 35.6493 101.544 35.9477 101.544 36.4138C101.544 37.8308 106.875 36.6935 106.875 39.9936C106.875 41.7649 104.974 42.9023 102.756 42.9023C100.742 42.9023 99.3254 42.2311 98.5238 40.9073H98.5051ZM108.609 39.1733V36.0036H106.819V33.878H108.609V31.6406H111.405V33.878H114.836V36.0036H111.405V39.1173C111.405 40.0869 112.058 40.6649 113.065 40.6649C113.642 40.6649 114.351 40.4971 114.836 40.236V42.4921C114.351 42.7718 113.493 42.9209 112.822 42.9209C110.007 42.9209 108.628 41.392 108.628 39.1919L108.609 39.1733ZM99.5304 58.3404V46.3889H104.191C107.938 46.3889 110.231 47.9738 110.231 50.7332C110.231 53.4927 107.975 55.1708 104.34 55.1708H102.401V58.3218H99.5304V58.3404ZM102.383 48.7941V52.7842H104.247C106.13 52.7842 107.267 52.1316 107.267 50.7332C107.267 49.3348 106.13 48.7755 104.247 48.7755H102.383V48.7941ZM113.68 55.9539H119.85V58.3591H113.363C111.536 58.3591 110.828 57.5014 110.828 56.1403V46.4076H113.698V55.9539H113.68ZM124.175 48.0856C124.623 46.7805 125.797 46.1652 127.046 46.1652C128.295 46.1652 129.488 46.7805 129.936 48.0856L133.422 58.3404H130.495L129.731 55.8979H124.38L123.616 58.3404H120.689L124.175 48.0856ZM125.107 53.5859H128.966L127.475 48.8501C127.4 48.6077 127.27 48.4958 127.046 48.4958C126.822 48.4958 126.692 48.6077 126.617 48.8501L125.107 53.5859ZM132.881 52.3926C132.881 48.9247 135.882 46.1838 139.723 46.1838C142.016 46.1838 144.215 47.2839 145.203 49.1484L142.873 50.3417C142.221 49.3162 141.214 48.6636 139.611 48.6636C137.411 48.6636 135.826 50.2485 135.826 52.4113C135.826 54.5741 137.392 56.159 139.611 56.159C141.195 56.159 142.258 55.5064 142.873 54.4809L145.203 55.6742C144.215 57.5387 142.016 58.6388 139.723 58.6388C135.882 58.6388 132.881 55.8793 132.881 52.4299V52.3926ZM148.298 58.3404C146.471 58.3404 145.763 57.4828 145.763 56.1217V48.6263C145.763 47.2652 146.471 46.3889 148.298 46.3889H155.289V48.7196H148.634V51.1994H154.879V53.53H148.634V56.0098H155.401V58.3404H148.298Z" fill="#EBAA01"/>
<path d="M51.2477 116.234C49.7936 117.763 41.5539 112.561 38.9067 108.086C38.9067 108.086 37.434 105.625 37.1171 102.157C37.0798 101.84 37.1171 101.504 37.173 101.187C37.2103 100.982 37.3221 100.796 37.5085 100.311C37.8814 100.442 38.2915 100.516 38.6643 100.628C38.6643 100.628 39.205 100.814 39.7269 101.094C45.245 103.965 48.731 109.783 48.731 109.783C50.4088 112.58 52.068 115.358 51.2477 116.234Z" fill="#EBAA01"/>
<path d="M27.5161 12.884C27.9635 4.71746 38.198 -1.80833 47.5563 0.44773C41.945 6.56333 36.6134 12.4738 27.5161 12.884Z" fill="#EBAA01"/>
<path d="M15.7529 85.9912C9.89933 78.1976 10.384 69.4903 16.7223 64.2883C20.6558 71.6345 17.468 78.4586 15.7529 85.9912Z" fill="#EBAA01"/>
<path d="M10.1605 70.8702C6.61856 61.8274 9.43351 53.4184 16.853 50.1555C18.6427 58.3221 13.7585 64.1207 10.1605 70.8702Z" fill="#EBAA01"/>
<path d="M11.8569 38.4276C12.7331 29.5712 20.3577 22.9708 27.6281 24.5557C26.5282 29.7017 20.917 34.68 11.8569 38.4276Z" fill="#EBAA01"/>
<path d="M8.94834 54.5556C7.66204 45.1958 13.1987 36.8614 20.7301 36.7495C20.0776 44.8601 14.1308 49.2231 8.94834 54.5556Z" fill="#EBAA01"/>
<path d="M38.198 14.5801C33.4629 21.4229 26.0434 22.1687 19.0713 24.1637C20.3389 17.4515 31.0581 10.6274 38.198 14.5801Z" fill="#EBAA01"/>
<path d="M20.4694 78.0859C25.9129 84.127 24.8503 91.4731 25.0553 98.7447C17.4494 94.3631 15.3615 82.6167 20.4694 78.0859Z" fill="#EBAA01"/>
<path d="M22.8179 99.919C15.212 99.9563 7.77382 93.2441 6.07739 84.7979C14.3731 86.7183 18.7913 93.039 22.8179 99.919Z" fill="#EBAA01"/>
<path d="M37.5642 109.466C28.8024 105.83 25.0181 98.6516 27.2365 90.0562C34.3391 94.6242 35.1967 102.026 37.5642 109.466Z" fill="#EBAA01"/>
<path d="M50.5765 117.8C45.0398 122.61 32.6429 118.807 28.6162 113.25C36.7814 110.603 43.679 114.276 50.5765 117.8Z" fill="#EBAA01"/>
<path d="M5.72357 30.895C10.1977 38.3717 8.81815 45.8857 6.84209 53.4183C1.41726 49.2418 0.89528 39.6023 5.72357 30.895Z" fill="#EBAA01"/>
<path d="M14.9888 15.3074C17.5055 23.5485 13.7025 30.3726 10.1419 37.0849C5.83554 32.088 8.29629 20.6026 14.9888 15.3074Z" fill="#EBAA01"/>
<path d="M8.03527 70.3854C1.32414 66.7682 -1.84501 56.9609 1.10044 48.8689C7.60651 54.7235 7.3828 62.7036 8.03527 70.3854Z" fill="#EBAA01"/>
<path d="M17.4679 22.4487C14.7834 16.1093 20.6929 5.40704 28.448 2.27466C26.8075 7.51394 27.0685 13.0142 22.3707 16.7619C20.5065 18.2535 19.2016 20.4164 17.4679 22.4673V22.4487Z" fill="#EBAA01"/>
<path d="M1.11893 67.1038C8.76217 71.1684 11.1111 78.4959 13.3108 85.7862C6.76747 85.32 0.578316 75.9975 1.11893 67.1038Z" fill="#EBAA01"/>
<path d="M35.644 110.771C28.0008 112.728 19.8728 108.533 14.97 99.8074C19.2763 101.019 23.3402 101.523 26.7145 103.294C29.9955 105.028 32.5494 108.104 35.6626 110.771H35.644Z" fill="#EBAA01"/>
<path d="M166.753 116.233C168.207 117.762 176.447 112.56 179.094 108.086C179.094 108.086 180.567 105.624 180.884 102.156C180.921 101.839 180.884 101.504 180.828 101.187C180.791 100.982 180.679 100.795 180.493 100.311C180.12 100.441 179.71 100.516 179.337 100.628C179.337 100.628 178.796 100.814 178.274 101.094C172.756 103.965 169.27 109.782 169.27 109.782C167.592 112.579 165.933 115.357 166.753 116.233Z" fill="#EBAA01"/>
<path d="M190.485 12.8838C190.037 4.71722 179.803 -1.80857 170.444 0.447486C176.056 6.56309 181.387 12.4736 190.485 12.8838Z" fill="#EBAA01"/>
<path d="M202.248 85.991C208.101 78.1973 207.617 69.4901 201.278 64.2881C197.345 71.6343 200.533 78.4584 202.248 85.991Z" fill="#EBAA01"/>
<path d="M207.84 70.87C211.382 61.8271 208.567 53.4182 201.148 50.1553C199.358 58.3218 204.242 64.1205 207.84 70.87Z" fill="#EBAA01"/>
<path d="M206.144 38.4274C205.268 29.5709 197.643 22.9706 190.373 24.5554C191.473 29.7015 197.084 34.6797 206.144 38.4274Z" fill="#EBAA01"/>
<path d="M209.052 54.5554C210.339 45.1955 204.802 36.8611 197.271 36.7493C197.923 44.8599 203.87 49.2229 209.052 54.5554Z" fill="#EBAA01"/>
<path d="M179.802 14.5799C184.537 21.4226 191.957 22.1685 198.929 24.1635C197.661 17.4512 186.942 10.6271 179.802 14.5799Z" fill="#EBAA01"/>
<path d="M197.531 78.0857C192.088 84.1267 193.15 91.4729 192.945 98.7445C200.551 94.3629 202.639 82.6165 197.531 78.0857Z" fill="#EBAA01"/>
<path d="M195.182 99.9188C202.788 99.9561 210.226 93.2438 211.923 84.7976C203.627 86.7181 199.209 93.0388 195.182 99.9188Z" fill="#EBAA01"/>
<path d="M180.437 109.465C189.199 105.83 192.983 98.6513 190.764 90.0559C183.662 94.624 182.804 102.026 180.437 109.465Z" fill="#EBAA01"/>
<path d="M167.425 117.8C172.961 122.61 185.358 118.806 189.385 113.25C181.22 110.603 174.322 114.276 167.425 117.8Z" fill="#EBAA01"/>
<path d="M212.277 30.8948C207.803 38.3715 209.183 45.8855 211.159 53.4181C216.583 49.2416 217.105 39.602 212.277 30.8948Z" fill="#EBAA01"/>
<path d="M203.012 15.3071C200.496 23.5483 204.299 30.3724 207.859 37.0846C212.166 32.0877 209.705 20.6023 203.012 15.3071Z" fill="#EBAA01"/>
<path d="M209.966 70.3851C216.677 66.768 219.846 56.9606 216.9 48.8687C210.394 54.7232 210.618 62.7033 209.966 70.3851Z" fill="#EBAA01"/>
<path d="M200.532 22.4484C203.217 16.1091 197.307 5.40679 189.552 2.27441C191.193 7.51369 190.932 13.014 195.63 16.7617C197.494 18.2533 198.799 20.4161 200.532 22.4671V22.4484Z" fill="#EBAA01"/>
<path d="M216.882 67.1035C209.238 71.1682 206.889 78.4957 204.69 85.7859C211.233 85.3198 217.422 75.9972 216.882 67.1035Z" fill="#EBAA01"/>
<path d="M182.375 110.77C190.018 112.728 198.146 108.533 203.049 99.8071C198.743 101.019 194.679 101.522 191.305 103.294C188.024 105.028 185.47 108.104 182.356 110.77H182.375Z" fill="#EBAA01"/>
<path d="M51.0608 77.2841V65.519H57.5482V77.1163C57.5482 80.4165 58.9464 81.7962 61.8359 81.7962C64.7254 81.7962 66.1608 80.4351 66.1608 77.1163V65.519H72.6483V77.2841C72.6483 83.6421 69.2368 87.3525 61.8359 87.3525C54.435 87.3525 51.0608 83.6421 51.0608 77.2841ZM76.0038 86.9796V65.5377H85.94C91.5513 65.5377 95.839 67.9243 95.839 72.6601C95.839 75.4942 94.0866 77.8062 91.3089 78.6079C92.502 79.3164 93.2664 80.547 94.329 82.4861L96.7524 86.9982H89.7057L87.4873 82.9709C86.6857 81.5166 85.7723 80.9758 83.6657 80.9758H82.4726L82.4353 87.0169H76.0038V86.9796ZM82.4913 70.9261L82.454 75.7179H85.9214C87.8229 75.7179 89.1465 74.767 89.1465 73.2381C89.1465 71.616 87.8042 70.9261 85.996 70.9261H82.4913ZM99.2132 86.9796V65.5377H109.149C115.115 65.5377 118.694 67.9243 118.694 71.616C118.694 73.928 117.352 75.5315 115.283 76.3519C117.389 76.9858 118.862 78.3282 118.862 80.9199C118.862 84.9286 114.928 86.9982 109.131 86.9982H99.1945L99.2132 86.9796ZM105.701 74.0026H109.485C111.312 74.0026 112.188 73.2941 112.188 72.0635C112.188 70.9821 111.349 70.2922 109.485 70.2922H105.701V74.0026ZM105.701 82.2064H109.485C111.312 82.2064 112.356 81.7216 112.356 80.4911C112.356 79.1486 111.312 78.7757 109.485 78.7757H105.701V82.2064ZM125.498 68.9125C126.375 66.2835 128.835 65.0343 131.296 65.0343C133.757 65.0343 136.218 66.2648 137.094 68.9125L143.208 86.9609H136.572L135.491 83.3438H127.176L126.058 86.9609H119.421L125.536 68.9125H125.498ZM128.761 78.1045H133.85L131.594 70.6278C131.52 70.4041 131.445 70.3108 131.315 70.3108C131.184 70.3108 131.11 70.4041 131.035 70.6278L128.761 78.1045ZM144.607 86.9796V68.6701C144.607 66.3767 146.564 65.0156 148.652 65.0156C150.292 65.0156 151.746 65.519 152.585 66.731L160.937 78.7198V65.5377H167.089V83.8472C167.089 86.1405 165.131 87.4643 163.044 87.4643C161.422 87.4643 159.949 86.9609 159.11 85.749L150.758 73.7602V86.9796H144.607Z" fill="#EBAA01"/>
<path d="M79.7885 106.594H74.1213V92.6664H79.8631C84.8405 92.6664 88.1588 95.4445 88.1588 99.6396C88.1588 103.835 84.6355 106.594 79.8072 106.594H79.7885ZM79.8444 95.4818H77.4396V103.909H79.7699C82.6408 103.909 84.71 102.269 84.71 99.6769C84.71 97.0853 82.7526 95.5004 79.8444 95.5004V95.4818ZM93.4159 92.685V106.613H90.0789V92.685H93.4159ZM99.083 106.594C96.9578 106.594 96.1376 105.606 96.1376 104.003V95.2767C96.1376 93.6918 96.9578 92.6664 99.083 92.6664H107.211V95.3699H99.4745V98.2599H106.745V100.963H99.4745V103.853H107.36V106.557H99.083V106.594ZM108.441 103.835L111.219 102.567C111.722 103.574 112.804 104.096 114.388 104.096C115.824 104.096 116.923 103.555 116.923 102.567C116.923 101.411 115.712 101.224 114.109 100.982C111.797 100.628 108.665 99.882 108.665 96.7496C108.665 94.3071 111.089 92.4426 114.258 92.4426C116.793 92.4426 118.993 93.5054 119.962 95.4818L117.184 96.7496C116.681 95.8547 115.674 95.2394 114.127 95.2394C112.878 95.2394 112.002 95.7801 112.002 96.6191C112.002 97.7378 113.288 98.0175 114.947 98.2972C117.24 98.6515 120.242 99.3973 120.242 102.567C120.242 105.065 117.632 106.893 114.369 106.893C111.61 106.893 109.392 105.83 108.404 103.853L108.441 103.835ZM124.94 106.594C122.814 106.594 121.994 105.606 121.994 104.003V95.2767C121.994 93.6918 122.814 92.6664 124.94 92.6664H133.067V95.3699H125.331V98.2599H132.601V100.963H125.331V103.853H133.217V106.557H124.94V106.594ZM138.66 103.816H145.837V106.613H138.269C136.143 106.613 135.323 105.625 135.323 104.021V92.685H138.66V103.816Z" fill="#EBAA01"/>
<path d="M62.4137 115.657L63.0289 115.396C63.2154 115.768 63.6068 115.974 64.1661 115.974C64.7254 115.974 65.1355 115.731 65.1355 115.321C65.1355 114.855 64.6508 114.761 64.0915 114.668C63.3831 114.538 62.4883 114.333 62.4883 113.419C62.4883 112.71 63.1967 112.169 64.0915 112.169C64.8186 112.169 65.4524 112.468 65.732 113.064L65.1355 113.344C64.9491 112.99 64.5762 112.766 64.0543 112.766C63.5696 112.766 63.1781 113.027 63.1781 113.382C63.1781 113.848 63.6814 113.941 64.2593 114.053C64.9677 114.183 65.8252 114.389 65.8252 115.302C65.8252 116.067 65.0796 116.589 64.1288 116.589C63.3272 116.589 62.6561 116.272 62.3765 115.675L62.4137 115.657ZM66.515 116.496V111.927H67.2048V113.717C67.4657 113.456 67.8945 113.288 68.3606 113.288C69.3672 113.288 69.9451 113.904 69.9451 114.855V116.496H69.2554V114.929C69.2554 114.37 68.9198 113.885 68.2673 113.885C67.6522 113.885 67.2234 114.333 67.2234 114.948V116.496H66.5336H66.515ZM70.3739 114.911C70.3739 114.016 71.0823 113.27 72.1262 113.27C73.1702 113.27 73.8227 113.96 73.8227 114.836V115.097H71.0637C71.1382 115.638 71.5856 116.011 72.2195 116.011C72.6482 116.011 73.0211 115.843 73.2261 115.507L73.7667 115.75C73.4685 116.291 72.9092 116.57 72.2381 116.57C71.1941 116.57 70.4112 115.88 70.4112 114.911H70.3739ZM73.1143 114.687C73.077 114.183 72.6855 113.848 72.1076 113.848C71.5297 113.848 71.1382 114.221 71.0637 114.687H73.0956H73.1143ZM75.1463 111.927V116.496H74.4565V111.927H75.1463ZM76.7681 111.927V116.496H76.0784V111.927H76.7681ZM80.0118 116.496C79.5271 116.496 79.3407 116.272 79.3407 115.899V112.785C79.3407 112.412 79.5085 112.188 80.0118 112.188H82.6031V112.785H80.0678V114.034H82.4726V114.631H80.0678V115.88H82.659V116.477H80.0118V116.496ZM82.9759 114.929C82.9759 114.034 83.7962 113.288 84.7842 113.288C85.418 113.288 85.9959 113.549 86.3128 114.109L85.7349 114.407C85.5299 114.071 85.1757 113.885 84.7842 113.885C84.169 113.885 83.6843 114.351 83.6843 114.929C83.6843 115.507 84.1876 115.974 84.7842 115.974C85.1943 115.974 85.5299 115.787 85.7349 115.451L86.3128 115.731C85.9959 116.309 85.418 116.552 84.7842 116.552C83.7962 116.552 82.9759 115.824 82.9759 114.911V114.929ZM86.462 114.929C86.462 114.034 87.2822 113.288 88.3075 113.288C89.3328 113.288 90.1345 114.034 90.1345 114.929C90.1345 115.824 89.3328 116.589 88.3075 116.589C87.2822 116.589 86.462 115.843 86.462 114.929ZM89.4447 114.929C89.4447 114.351 88.96 113.885 88.3075 113.885C87.6551 113.885 87.1517 114.351 87.1517 114.929C87.1517 115.507 87.6551 115.974 88.3075 115.974C88.96 115.974 89.4447 115.507 89.4447 114.929ZM93.285 114.817H90.8429V114.239H93.285V114.817ZM100.108 114.855V116.514H99.4182V114.967C99.4182 114.389 99.1013 113.904 98.4674 113.904C97.8336 113.904 97.5167 114.389 97.5167 114.967V116.533H96.8269V114.967C96.8269 114.389 96.51 113.904 95.8762 113.904C95.2424 113.904 94.9441 114.407 94.9441 114.967V116.514H94.2544V114.873C94.2544 113.997 94.8136 113.288 95.8389 113.288C96.5287 113.288 97.032 113.605 97.1998 114.09C97.3862 113.605 97.8709 113.288 98.542 113.288C99.586 113.288 100.145 113.997 100.145 114.855H100.108ZM100.537 114.929C100.537 114.034 101.32 113.288 102.382 113.288C103.445 113.288 104.228 113.997 104.228 114.929V116.496H103.557V115.936C103.296 116.328 102.83 116.57 102.27 116.57C101.264 116.57 100.537 115.824 100.537 114.911V114.929ZM103.519 114.929C103.519 114.351 103.035 113.885 102.382 113.885C101.73 113.885 101.245 114.351 101.245 114.929C101.245 115.507 101.748 115.974 102.382 115.974C103.016 115.974 103.519 115.507 103.519 114.929ZM104.88 116.496V114.631C104.88 113.866 105.365 113.307 106.26 113.307C106.484 113.307 106.707 113.344 106.875 113.419V114.053C106.707 113.96 106.502 113.922 106.316 113.922C105.85 113.922 105.57 114.202 105.57 114.668V116.514H104.88V116.496ZM106.819 114.929C106.819 114.034 107.602 113.288 108.665 113.288C109.727 113.288 110.51 113.997 110.51 114.929V116.496H109.839V115.936C109.578 116.328 109.112 116.57 108.553 116.57C107.546 116.57 106.819 115.824 106.819 114.911V114.929ZM109.802 114.929C109.802 114.351 109.317 113.885 108.665 113.885C108.012 113.885 107.527 114.351 107.527 114.929C107.527 115.507 108.031 115.974 108.665 115.974C109.298 115.974 109.802 115.507 109.802 114.929ZM111.405 115.377V113.922H110.715V113.382H111.405V112.561H112.095V113.382H113.418V113.922H112.095V115.358C112.095 115.768 112.356 116.011 112.785 116.011C113.008 116.011 113.251 115.936 113.418 115.824V116.403C113.251 116.514 112.971 116.589 112.71 116.589C111.852 116.589 111.386 116.104 111.386 115.377H111.405ZM114.108 116.496V111.927H114.798V113.717C115.059 113.456 115.488 113.288 115.954 113.288C116.96 113.288 117.538 113.904 117.538 114.855V116.496H116.848V114.929C116.848 114.37 116.513 113.885 115.86 113.885C115.245 113.885 114.817 114.333 114.817 114.948V116.496H114.127H114.108ZM117.986 114.929C117.986 114.034 118.806 113.288 119.831 113.288C120.857 113.288 121.658 114.034 121.658 114.929C121.658 115.824 120.857 116.589 119.831 116.589C118.806 116.589 117.986 115.843 117.986 114.929ZM120.968 114.929C120.968 114.351 120.484 113.885 119.831 113.885C119.179 113.885 118.675 114.351 118.675 114.929C118.675 115.507 119.179 115.974 119.831 115.974C120.484 115.974 120.968 115.507 120.968 114.929ZM122.795 114.985V116.496H122.106V114.911C122.106 113.997 122.702 113.27 123.821 113.27C124.939 113.27 125.554 113.978 125.554 114.892V116.477H124.865V114.967C124.865 114.37 124.51 113.866 123.821 113.866C123.131 113.866 122.814 114.37 122.814 114.948L122.795 114.985ZM128.891 112.729C129.04 112.319 129.376 112.132 129.767 112.132C130.159 112.132 130.513 112.319 130.662 112.729L131.949 116.496H131.222L130.867 115.451H128.668L128.313 116.496H127.586L128.873 112.729H128.891ZM128.873 114.855H130.681L130.047 112.915C129.991 112.785 129.917 112.71 129.786 112.71C129.637 112.71 129.562 112.766 129.525 112.915L128.891 114.855H128.873ZM132.21 115.88L132.75 115.619C132.918 115.936 133.216 116.048 133.589 116.048C133.962 116.048 134.279 115.899 134.279 115.619C134.279 114.967 132.303 115.451 132.303 114.258C132.303 113.699 132.843 113.307 133.589 113.307C134.223 113.307 134.67 113.568 134.894 113.941L134.353 114.221C134.204 113.941 133.925 113.848 133.608 113.848C133.291 113.848 132.992 113.997 132.992 114.258C132.992 114.892 134.969 114.426 134.969 115.619C134.969 116.216 134.335 116.589 133.608 116.589C132.974 116.589 132.471 116.365 132.21 115.899V115.88ZM135.491 112.319C135.491 112.095 135.696 111.89 135.957 111.89C136.218 111.89 136.404 112.076 136.404 112.319C136.404 112.561 136.199 112.729 135.957 112.729C135.714 112.729 135.491 112.542 135.491 112.319ZM136.292 113.363V116.496H135.602V113.363H136.292ZM136.87 114.929C136.87 114.034 137.653 113.288 138.716 113.288C139.778 113.288 140.561 113.997 140.561 114.929V116.496H139.89V115.936C139.629 116.328 139.163 116.57 138.604 116.57C137.597 116.57 136.87 115.824 136.87 114.911V114.929ZM139.853 114.929C139.853 114.351 139.368 113.885 138.716 113.885C138.063 113.885 137.578 114.351 137.578 114.929C137.578 115.507 138.082 115.974 138.716 115.974C139.349 115.974 139.853 115.507 139.853 114.929ZM143.432 116.496C143.003 116.496 142.78 116.272 142.78 115.992C142.78 115.787 142.873 115.619 143.078 115.451L144.476 114.314C144.867 113.997 145.073 113.754 145.073 113.4C145.073 113.009 144.718 112.747 144.252 112.747C143.786 112.747 143.413 113.009 143.19 113.4L142.63 113.12C142.947 112.542 143.525 112.132 144.29 112.132C145.166 112.132 145.781 112.673 145.781 113.363C145.781 113.885 145.52 114.277 145.091 114.631L143.693 115.75C143.693 115.75 143.6 115.824 143.6 115.862C143.6 115.88 143.6 115.899 143.637 115.899H145.911V116.496H143.413H143.432ZM146.303 114.351C146.303 113.102 147.067 112.132 148.204 112.132C149.342 112.132 150.106 113.083 150.106 114.351C150.106 115.619 149.342 116.589 148.204 116.589C147.067 116.589 146.303 115.601 146.303 114.351ZM149.36 114.351C149.36 113.475 148.876 112.803 148.204 112.803C147.533 112.803 147.049 113.475 147.049 114.351C147.049 115.228 147.533 115.918 148.204 115.918C148.876 115.918 149.36 115.228 149.36 114.351ZM151.746 116.496V112.953C151.746 112.953 151.746 112.915 151.709 112.915C151.672 112.915 151.653 112.934 151.616 112.953L150.535 113.512L150.218 112.897L151.429 112.281C151.616 112.188 151.802 112.113 151.989 112.113C152.287 112.113 152.473 112.3 152.473 112.617V116.477H151.746V116.496ZM153.611 116.496L155.251 113.027C155.251 113.027 155.307 112.915 155.307 112.859C155.307 112.822 155.27 112.803 155.214 112.803H153.033V112.207H155.27C155.792 112.207 156.034 112.412 156.034 112.766C156.034 112.897 155.997 113.064 155.922 113.232L154.394 116.514H153.611V116.496Z" fill="#EBAA01"/>
</g>
<defs>
<clipPath id="clip0_351_7285">
<rect width="218" height="120" fill="white"/>
</clipPath>
</defs>
</svg>
