<svg width="218" height="120" viewBox="0 0 218 120" fill="none" xmlns="http://www.w3.org/2000/svg">
<g clip-path="url(#clip0_351_7243)">
<path d="M51.2472 116.234C49.7932 117.763 41.5534 112.561 38.9062 108.086C38.9062 108.086 37.4335 105.625 37.1166 102.157C37.0793 101.84 37.1166 101.504 37.1725 101.187C37.2098 100.982 37.3216 100.796 37.5081 100.311C37.8809 100.442 38.291 100.516 38.6639 100.628C38.6639 100.628 39.2045 100.814 39.7265 101.094C45.2445 103.965 48.7306 109.783 48.7306 109.783C50.4083 112.58 52.0675 115.358 51.2472 116.234Z" fill="#EBAA01"/>
<path d="M27.5154 12.884C27.9628 4.71746 38.1973 -1.80833 47.5556 0.44773C41.9443 6.56333 36.6127 12.4738 27.5154 12.884Z" fill="#EBAA01"/>
<path d="M15.7527 85.9917C9.89908 78.1981 10.3838 69.4908 16.7221 64.2888C20.6555 71.635 17.4677 78.4591 15.7527 85.9917Z" fill="#EBAA01"/>
<path d="M10.1598 70.8702C6.61783 61.8274 9.43278 53.4184 16.8523 50.1555C18.6419 58.3221 13.7577 64.1207 10.1598 70.8702Z" fill="#EBAA01"/>
<path d="M11.8562 38.4279C12.7324 29.5714 20.357 22.9711 27.6274 24.5559C26.5275 29.7019 20.9162 34.6802 11.8562 38.4279Z" fill="#EBAA01"/>
<path d="M8.94859 54.5561C7.66229 45.1962 13.199 36.8619 20.7304 36.75C20.0779 44.8606 14.1311 49.2236 8.94859 54.5561Z" fill="#EBAA01"/>
<path d="M38.197 14.5809C33.462 21.4236 26.0424 22.1694 19.0703 24.1645C20.338 17.4522 31.0571 10.6281 38.197 14.5809Z" fill="#EBAA01"/>
<path d="M20.4682 78.0862C25.9116 84.1272 24.849 91.4734 25.0541 98.745C17.4482 94.3634 15.3602 82.6169 20.4682 78.0862Z" fill="#EBAA01"/>
<path d="M22.8179 99.9198C15.212 99.9571 7.77382 93.2448 6.07739 84.7986C14.3731 86.719 18.7913 93.0397 22.8179 99.9198Z" fill="#EBAA01"/>
<path d="M37.5637 109.466C28.8019 105.83 25.0176 98.6516 27.236 90.0562C34.3386 94.6242 35.1962 102.026 37.5637 109.466Z" fill="#EBAA01"/>
<path d="M50.5758 117.8C45.0391 122.611 32.6422 118.807 28.6155 113.251C36.7807 110.603 43.6782 114.276 50.5758 117.8Z" fill="#EBAA01"/>
<path d="M5.72308 30.8955C10.1972 38.3722 8.81766 45.8862 6.8416 53.4188C1.41677 49.2423 0.894792 39.6028 5.72308 30.8955Z" fill="#EBAA01"/>
<path d="M14.9878 15.3081C17.5045 23.5492 13.7015 30.3734 10.1409 37.0856C5.83456 32.0887 8.29531 20.6033 14.9878 15.3081Z" fill="#EBAA01"/>
<path d="M8.03454 70.3861C1.32341 66.7689 -1.84574 56.9616 1.0997 48.8696C7.60577 54.7242 7.38207 62.7043 8.03454 70.3861Z" fill="#EBAA01"/>
<path d="M17.4676 22.4494C14.7832 16.1101 20.6927 5.40777 28.4478 2.27539C26.8073 7.51467 27.0683 13.015 22.3705 16.7626C20.5063 18.2543 19.2013 20.4171 17.4676 22.4681V22.4494Z" fill="#EBAA01"/>
<path d="M1.11845 67.1042C8.76168 71.1689 11.1106 78.4964 13.3103 85.7866C6.76698 85.3205 0.577827 75.998 1.11845 67.1042Z" fill="#EBAA01"/>
<path d="M35.6433 110.771C28 112.729 19.8721 108.534 14.9692 99.8079C19.2755 101.02 23.3395 101.523 26.7137 103.295C29.9947 105.028 32.5487 108.105 35.6619 110.771H35.6433Z" fill="#EBAA01"/>
<path d="M166.753 116.233C168.207 117.762 176.447 112.56 179.094 108.085C179.094 108.085 180.567 105.624 180.884 102.156C180.921 101.839 180.884 101.504 180.828 101.187C180.791 100.982 180.679 100.795 180.492 100.31C180.12 100.441 179.709 100.515 179.337 100.627C179.337 100.627 178.796 100.814 178.274 101.093C172.756 103.965 169.27 109.782 169.27 109.782C167.592 112.579 165.933 115.357 166.753 116.233Z" fill="#EBAA01"/>
<path d="M190.485 12.8835C190.038 4.71697 179.803 -1.80882 170.445 0.447242C176.056 6.56284 181.388 12.4733 190.485 12.8835Z" fill="#EBAA01"/>
<path d="M202.248 85.9908C208.102 78.1971 207.617 69.4898 201.279 64.2878C197.346 71.634 200.533 78.4581 202.248 85.9908Z" fill="#EBAA01"/>
<path d="M207.84 70.8695C211.382 61.8266 208.567 53.4177 201.148 50.1548C199.358 58.3213 204.242 64.12 207.84 70.8695Z" fill="#EBAA01"/>
<path d="M206.144 38.4271C205.268 29.5707 197.643 22.9703 190.373 24.5552C191.472 29.7012 197.084 34.6795 206.144 38.4271Z" fill="#EBAA01"/>
<path d="M209.052 54.5549C210.338 45.195 204.802 36.8607 197.27 36.7488C197.923 44.8594 203.87 49.2224 209.052 54.5549Z" fill="#EBAA01"/>
<path d="M179.803 14.5799C184.538 21.4226 191.958 22.1685 198.93 24.1635C197.662 17.4512 186.943 10.6271 179.803 14.5799Z" fill="#EBAA01"/>
<path d="M197.531 78.085C192.088 84.126 193.15 91.4722 192.945 98.7438C200.551 94.3621 202.639 82.6157 197.531 78.085Z" fill="#EBAA01"/>
<path d="M195.182 99.9186C202.788 99.9558 210.227 93.2436 211.923 84.7974C203.627 86.7178 199.209 93.0385 195.182 99.9186Z" fill="#EBAA01"/>
<path d="M180.437 109.465C189.199 105.829 192.983 98.6508 190.764 90.0554C183.662 94.6235 182.804 102.026 180.437 109.465Z" fill="#EBAA01"/>
<path d="M167.424 117.799C172.961 122.61 185.358 118.806 189.385 113.25C181.219 110.602 174.322 114.275 167.424 117.799Z" fill="#EBAA01"/>
<path d="M212.277 30.895C207.803 38.3717 209.183 45.8857 211.159 53.4183C216.583 49.2418 217.105 39.6023 212.277 30.895Z" fill="#EBAA01"/>
<path d="M203.012 15.3074C200.495 23.5485 204.298 30.3726 207.859 37.0849C212.165 32.088 209.704 20.6026 203.012 15.3074Z" fill="#EBAA01"/>
<path d="M209.965 70.3849C216.676 66.7677 219.846 56.9604 216.9 48.8684C210.394 54.723 210.618 62.7031 209.965 70.3849Z" fill="#EBAA01"/>
<path d="M200.532 22.4482C203.217 16.1088 197.307 5.40655 189.552 2.27417C191.193 7.51345 190.932 13.0138 195.63 16.7614C197.494 18.253 198.799 20.4159 200.532 22.4668V22.4482Z" fill="#EBAA01"/>
<path d="M216.882 67.1035C209.239 71.1682 206.89 78.4957 204.69 85.7859C211.233 85.3198 217.422 75.9972 216.882 67.1035Z" fill="#EBAA01"/>
<path d="M182.375 110.77C190.018 112.728 198.146 108.533 203.049 99.8069C198.743 101.019 194.679 101.522 191.305 103.294C188.024 105.028 185.47 108.104 182.356 110.77H182.375Z" fill="#EBAA01"/>
<path d="M57.0814 43.5555V15.0844H70.2799C78.2028 15.0844 82.9565 18.254 82.9565 23.1391C82.9565 26.2155 81.1855 28.3224 78.4265 29.4225C81.2228 30.2615 83.1802 32.0328 83.1802 35.5008C83.1802 40.8146 77.9605 43.5555 70.2613 43.5555H57.0627H57.0814ZM65.7126 26.3274H70.746C73.1695 26.3274 74.3439 25.3951 74.3439 23.7544C74.3439 22.3187 73.2254 21.3864 70.746 21.3864H65.7126V26.3274ZM65.7126 37.2161H70.746C73.1695 37.2161 74.5676 36.5822 74.5676 34.9414C74.5676 33.1701 73.1695 32.6667 70.746 32.6667H65.7126V37.2161ZM93.8994 43.5555C88.5864 43.5555 86.4426 41.0197 86.4426 37.011V21.6102C86.4426 17.6015 88.5864 15.0657 93.8994 15.0657H110.025V22.0204H95.0552V25.824H108.944V32.7786H95.0552V36.5822H110.248V43.5368H93.8808L93.8994 43.5555ZM111.982 37.7755L119.159 34.5312C120.054 36.2652 121.825 37.067 124.752 37.067C127.045 37.067 128.76 36.433 128.76 35.0906C128.76 33.3939 126.896 33.1515 124.044 32.7786C119.327 32.1447 112.43 30.5039 112.43 23.6984C112.43 18.4591 117.612 14.4504 124.603 14.4504C130.102 14.4504 134.763 16.6879 136.907 20.9017L129.729 24.1459C128.835 22.7475 127.157 21.6102 124.23 21.6102C122.179 21.6102 121.061 22.2068 121.061 23.3815C121.061 24.9849 123.111 25.4883 126.187 25.9172C130.848 26.5511 137.373 28.1546 137.373 34.9974C137.373 40.2366 131.724 44.2453 124.733 44.2453C118.768 44.2453 114.107 42.0079 111.964 37.7941L111.982 37.7755ZM163.956 22.2441H155.045V43.5555H146.414V22.2441H137.503V15.0657H163.938V22.2441H163.956Z" fill="#EBAA01"/>
<path d="M33.9463 59.1427C33.9463 53.5492 38.7746 49.1676 45.1129 49.1676C48.8786 49.1676 52.5697 50.9762 54.117 54.1272L49.3819 56.5138C48.5057 55.0967 47.3126 54.1272 44.8705 54.1272C41.8878 54.1272 39.9117 56.1782 39.9117 59.1427C39.9117 62.1073 41.8319 64.1583 44.8705 64.1583C47.3126 64.1583 48.5989 63.1887 49.3819 61.7717L54.117 64.1583C52.5883 67.3093 48.8786 69.1179 45.1129 69.1179C38.7746 69.1179 33.9463 64.7176 33.9463 59.1427ZM53.6323 59.1427C53.6323 53.4373 58.4046 49.1676 64.7989 49.1676C71.1931 49.1676 75.9654 53.456 75.9654 59.1427C75.9654 64.8295 71.1931 69.1179 64.7989 69.1179C58.4046 69.1179 53.6323 64.8295 53.6323 59.1427ZM69.9813 59.1427C69.9813 56.3087 67.7257 54.1272 64.7802 54.1272C61.8348 54.1272 59.5791 56.3087 59.5791 59.1427C59.5791 61.9768 61.8348 64.1583 64.7802 64.1583C67.7257 64.1583 69.9813 61.9768 69.9813 59.1427ZM76.4688 64.8109L81.2971 62.6294C81.8936 63.7854 83.0867 64.3261 85.0628 64.3261C86.5914 64.3261 87.7658 63.8972 87.7658 63.0023C87.7658 61.8649 86.5168 61.6971 84.5967 61.4361C81.4276 61.0073 76.7857 59.9072 76.7857 55.3391C76.7857 51.8152 80.2718 49.1303 84.9695 49.1303C88.6607 49.1303 91.8112 50.6406 93.2466 53.4746L88.4183 55.6561C87.8218 54.7238 86.7032 53.9594 84.7272 53.9594C83.3477 53.9594 82.602 54.3509 82.602 55.1527C82.602 56.2341 83.9815 56.5697 86.0508 56.8494C89.1826 57.2782 93.5822 58.3596 93.5822 62.9463C93.5822 66.4703 89.7978 69.1552 85.0814 69.1552C81.0734 69.1552 77.9415 67.6449 76.4874 64.8109H76.4688ZM111.423 54.3696H105.438V68.689H99.6408V54.3696H93.6567V49.5405H111.423V54.3696ZM123.447 52.5797C124.23 50.2304 126.429 49.1117 128.611 49.1117C130.792 49.1117 132.991 50.2117 133.774 52.5797L139.237 68.689H133.308L132.339 65.4634H124.901L123.894 68.689H117.966L123.428 52.5797H123.447ZM126.373 60.7835H130.922L128.909 54.1272C128.853 53.9221 128.778 53.8475 128.666 53.8475C128.555 53.8475 128.48 53.9408 128.424 54.1272L126.392 60.7835H126.373ZM140.504 68.689V52.3559C140.504 50.305 142.257 49.093 144.102 49.093C145.575 49.093 146.861 49.5405 147.607 50.6219L155.064 61.3242V49.5591H160.544V65.8923C160.544 67.9432 158.792 69.1179 156.946 69.1179C155.511 69.1179 154.187 68.6704 153.442 67.589L145.985 56.8867V68.689H140.504ZM172.214 68.689H163.844V49.5405H172.214C179.149 49.5405 183.754 53.3628 183.754 59.18C183.754 64.9973 178.981 68.689 172.214 68.689ZM172.214 54.3696H169.642V64.0091H172.214C175.607 64.0091 177.788 62.0887 177.788 59.18C177.788 56.2714 175.588 54.3509 172.214 54.3509V54.3696Z" fill="#EBAA01"/>
<path d="M34.8414 88.3034L36.7242 77.4893C36.9666 76.1841 37.9919 75.4942 39.3901 75.4942C40.6204 75.4942 41.683 75.979 42.0186 77.1909L44.3488 85.0405L44.3675 85.0965C44.3861 85.0965 44.4048 85.0965 44.4048 85.0405L46.6977 77.2469C47.0519 76.0349 48.1145 75.4942 49.3822 75.4942C50.7617 75.4942 51.7497 76.2027 51.9548 77.5452L53.6699 88.3034H50.6126L49.2703 78.4402C49.2703 78.3469 49.2517 78.291 49.1585 78.291C49.1026 78.291 49.0466 78.3283 49.028 78.4029L46.4554 86.7372C46.1571 87.6881 45.3369 88.1543 44.3488 88.1543C43.3608 88.1543 42.5033 87.7068 42.2609 86.7932L39.6883 78.4029C39.6883 78.4029 39.6324 78.291 39.5765 78.291C39.5205 78.291 39.446 78.3283 39.446 78.4215L37.88 88.3034H34.8228H34.8414ZM57.8084 77.4893C58.2744 76.1282 59.5235 75.4756 60.8284 75.4756C62.1333 75.4756 63.3823 76.1282 63.867 77.4893L67.5395 88.2848H64.4636L63.662 85.7118H58.0321L57.2305 88.2848H54.1545L57.827 77.4893H57.8084ZM58.7964 83.2879H62.8604L61.2944 78.291C61.2199 78.03 61.0894 77.9181 60.847 77.9181C60.6233 77.9181 60.4742 78.03 60.3996 78.291L58.8151 83.2879H58.7964ZM68.7326 88.3034V77.452C68.7326 76.2027 69.7393 75.4756 70.8764 75.4756C71.7899 75.4756 72.5169 75.7739 72.9644 76.4638L78.4638 84.9846V75.7366H81.316V86.5881C81.316 87.8373 80.3093 88.5458 79.2094 88.5458C78.3146 88.5458 77.5503 88.2661 77.1029 87.5763L71.6035 78.9995V88.3034H68.7326ZM83.5344 82.7099V75.718H86.5544V82.654C86.5544 84.8354 87.5424 85.8982 89.5931 85.8982C91.6437 85.8982 92.6317 84.8354 92.6317 82.654V75.718H95.6517V82.7099C95.6517 86.327 93.7316 88.5085 89.5931 88.5085C85.4545 88.5085 83.5344 86.3457 83.5344 82.7099ZM97.8328 88.3034V78.0859C97.8328 76.6502 98.5972 75.7366 100.499 75.7366H107.806V78.2537H100.853V81.5353H107.34V84.0337H100.853V88.3034H97.8328ZM111.442 77.4893C111.908 76.1282 113.157 75.4756 114.462 75.4756C115.766 75.4756 117.015 76.1282 117.5 77.4893L121.173 88.2848H118.097L117.295 85.7118H111.665L110.864 88.2848H107.788L111.46 77.4893H111.442ZM112.43 83.2879H116.494L114.928 78.291C114.853 78.03 114.723 77.9181 114.48 77.9181C114.256 77.9181 114.107 78.03 114.033 78.291L112.448 83.2879H112.43ZM120.93 82.02C120.93 78.3656 124.081 75.4756 128.145 75.4756C130.568 75.4756 132.88 76.6316 133.905 78.5893L131.444 79.8385C130.755 78.7571 129.692 78.0673 128.014 78.0673C125.703 78.0673 124.025 79.7267 124.025 82.02C124.025 84.3134 125.684 85.9728 128.014 85.9728C129.692 85.9728 130.811 85.2829 131.444 84.2015L133.905 85.4507C132.88 87.4085 130.568 88.5645 128.145 88.5645C124.099 88.5645 120.93 85.6745 120.93 82.02ZM144.643 78.2351H140.56V88.2848H137.54V78.2351H133.458V75.718H144.643V78.2351ZM145.426 82.7099V75.718H148.446V82.654C148.446 84.8354 149.434 85.8982 151.485 85.8982C153.535 85.8982 154.523 84.8354 154.523 82.654V75.718H157.543V82.7099C157.543 86.327 155.623 88.5085 151.485 88.5085C147.346 88.5085 145.426 86.3457 145.426 82.7099ZM159.874 88.3034V75.718H165.224C168.356 75.718 170.779 77.0418 170.779 79.7267C170.779 81.442 169.661 82.7658 167.89 83.1947C168.784 83.6421 169.288 84.4998 170.015 85.805L171.357 88.2848H168.095L166.864 86.0474C166.23 84.8914 165.634 84.2761 164.049 84.2761H162.875V88.3034H159.874ZM162.875 78.2351V81.8522H165.205C166.622 81.8522 167.666 81.181 167.666 80.0064C167.666 78.8317 166.622 78.2537 165.242 78.2537H162.875V78.2351ZM175.57 88.3034C173.65 88.3034 172.904 87.4085 172.904 85.9728V78.0859C172.904 76.6502 173.65 75.7366 175.57 75.7366H182.915V78.1791H175.906V80.7894H182.468V83.232H175.906V85.8423H183.027V88.2848H175.551L175.57 88.3034Z" fill="#EBAA01"/>
<path d="M65.7683 99.6954C65.7683 96.5444 68.4155 94.1392 71.9202 94.1392C75.4249 94.1392 78.0721 96.5444 78.0721 99.6954C78.0721 102.846 75.4062 105.252 71.9202 105.252C68.4341 105.252 65.7683 102.865 65.7683 99.6954ZM75.4249 99.6954C75.4249 97.8122 73.8962 96.3393 71.9202 96.3393C69.9441 96.3393 68.4155 97.7936 68.4155 99.6954C68.4155 101.597 69.9628 103.052 71.9202 103.052C73.8776 103.052 75.4249 101.597 75.4249 99.6954ZM80.9802 103.294L77.9416 94.3443H80.5701L83.2918 102.623C83.3664 102.828 83.4782 102.94 83.6647 102.94C83.8511 102.94 83.9443 102.828 84.0189 102.623L86.722 94.3443H89.3505L86.3118 103.294C85.8644 104.618 85.0069 105.27 83.646 105.27C82.2852 105.27 81.4276 104.618 80.9802 103.294ZM92.3891 105.047C90.7486 105.047 90.1335 104.282 90.1335 103.052V96.3393C90.1335 95.1087 90.7673 94.3443 92.3891 94.3443H98.6342V96.4325H92.6874V98.6513H98.2614V100.74H92.6874V102.958H98.7461V105.047H92.3891ZM100.368 105.047V94.3443H104.917C107.582 94.3443 109.633 95.4816 109.633 97.7563C109.633 99.2106 108.682 100.348 107.172 100.721C107.918 101.094 108.365 101.84 108.981 102.94L110.118 105.047H107.34L106.296 103.145C105.755 102.157 105.252 101.634 103.91 101.634H102.903V105.047H100.349H100.368ZM102.941 96.4884V99.5649H104.917C106.128 99.5649 107.004 98.9869 107.004 97.9987C107.004 97.0105 106.11 96.5071 104.954 96.5071H102.941V96.4884ZM110.845 102.902L112.989 101.933C113.38 102.716 114.2 103.107 115.431 103.107C116.531 103.107 117.388 102.697 117.388 101.933C117.388 101.038 116.456 100.907 115.226 100.702C113.455 100.441 111.05 99.8632 111.05 97.4393C111.05 95.5562 112.914 94.1392 115.356 94.1392C117.314 94.1392 118.991 94.9595 119.737 96.4698L117.593 97.4393C117.202 96.7495 116.437 96.2833 115.244 96.2833C114.275 96.2833 113.604 96.6935 113.604 97.3461C113.604 98.2038 114.592 98.4275 115.859 98.6326C117.612 98.9123 119.923 99.4717 119.923 101.914C119.923 103.835 117.929 105.233 115.412 105.233C113.287 105.233 111.59 104.413 110.826 102.902H110.845ZM123.521 105.047C121.881 105.047 121.266 104.282 121.266 103.052V96.3393C121.266 95.1087 121.899 94.3443 123.521 94.3443H129.766V96.4325H123.82V98.6513H129.394V100.74H123.82V102.958H129.878V105.047H123.521ZM133.495 95.8545C133.905 94.6985 134.949 94.1392 136.049 94.1392C137.149 94.1392 138.23 94.6985 138.621 95.8545L141.753 105.047H139.143L138.454 102.846H133.663L132.973 105.047H130.363L133.495 95.8545ZM134.334 100.777H137.783L136.44 96.5257C136.366 96.302 136.272 96.2088 136.049 96.2088C135.862 96.2088 135.732 96.302 135.657 96.5257L134.315 100.777H134.334ZM142.126 102.902L144.27 101.933C144.661 102.716 145.482 103.107 146.712 103.107C147.812 103.107 148.669 102.697 148.669 101.933C148.669 101.038 147.737 100.907 146.507 100.702C144.736 100.441 142.331 99.8632 142.331 97.4393C142.331 95.5562 144.195 94.1392 146.637 94.1392C148.576 94.1392 150.273 94.9595 151.018 96.4698L148.875 97.4393C148.483 96.7495 147.719 96.2833 146.526 96.2833C145.556 96.2833 144.885 96.6935 144.885 97.3461C144.885 98.2038 145.873 98.4275 147.141 98.6326C148.893 98.9123 151.205 99.4717 151.205 101.914C151.205 103.835 149.21 105.233 146.693 105.233C144.568 105.233 142.872 104.413 142.107 102.902H142.126Z" fill="#EBAA01"/>
<path d="M65.2837 116.812V113.12C65.2837 112.747 65.4515 112.523 65.9548 112.523H68.546V113.12H66.0107V114.574H68.3969V115.171H66.0107V116.812H65.2837ZM68.6952 115.246C68.6952 114.351 69.5154 113.605 70.5407 113.605C71.5661 113.605 72.3677 114.351 72.3677 115.246C72.3677 116.14 71.5661 116.905 70.5407 116.905C69.5154 116.905 68.6952 116.159 68.6952 115.246ZM71.6779 115.246C71.6779 114.668 71.1746 114.201 70.5407 114.201C69.9069 114.201 69.3849 114.668 69.3849 115.246C69.3849 115.824 69.8883 116.29 70.5407 116.29C71.1932 116.29 71.6779 115.824 71.6779 115.246ZM72.8151 116.812V114.947C72.8151 114.183 73.2998 113.623 74.1946 113.623C74.4183 113.623 74.642 113.661 74.8098 113.735V114.369C74.642 114.276 74.4369 114.239 74.2505 114.239C73.7845 114.239 73.5048 114.518 73.5048 114.984V116.83H72.8151V116.812ZM80.8498 115.171V116.83H80.16V115.283C80.16 114.705 79.8431 114.22 79.2093 114.22C78.5755 114.22 78.2585 114.705 78.2585 115.283V116.849H77.5688V115.283C77.5688 114.705 77.2519 114.22 76.618 114.22C75.9842 114.22 75.6859 114.723 75.6859 115.283V116.83H74.9962V115.19C74.9962 114.313 75.5555 113.605 76.5808 113.605C77.2705 113.605 77.7739 113.922 77.9416 114.406C78.1281 113.922 78.6127 113.605 79.2839 113.605C80.3278 113.605 80.8871 114.313 80.8871 115.171H80.8498ZM84.1308 115.19V113.679H84.8205V115.264C84.8205 116.178 84.2054 116.886 83.1241 116.886C82.0429 116.886 81.4463 116.159 81.4463 115.246V113.661H82.1361V115.171C82.1361 115.749 82.4903 116.252 83.1241 116.252C83.7579 116.252 84.1121 115.749 84.1121 115.171L84.1308 115.19ZM86.256 112.244V116.83H85.5662V112.244H86.256ZM86.8339 115.246C86.8339 114.351 87.6169 113.605 88.6794 113.605C89.742 113.605 90.525 114.313 90.525 115.246V116.812H89.8539V116.252C89.5929 116.644 89.1269 116.886 88.5676 116.886C87.5609 116.886 86.8339 116.14 86.8339 115.227V115.246ZM89.8166 115.246C89.8166 114.668 89.3319 114.201 88.6794 114.201C88.027 114.201 87.5423 114.668 87.5423 115.246C87.5423 115.824 88.0456 116.29 88.6794 116.29C89.3133 116.29 89.8166 115.824 89.8166 115.246ZM92.6875 115.973L93.3027 115.712C93.4891 116.085 93.8806 116.29 94.4398 116.29C94.9991 116.29 95.4092 116.047 95.4092 115.637C95.4092 115.171 94.9245 115.078 94.3653 114.984C93.6569 114.854 92.762 114.649 92.762 113.735C92.762 113.027 93.4704 112.486 94.3653 112.486C95.0923 112.486 95.7261 112.803 96.0058 113.381L95.4092 113.661C95.2228 113.306 94.85 113.083 94.328 113.083C93.8433 113.083 93.4518 113.344 93.4518 113.698C93.4518 114.164 93.9551 114.257 94.533 114.369C95.2414 114.5 96.099 114.705 96.099 115.618C96.099 116.383 95.3533 116.905 94.4026 116.905C93.6009 116.905 92.9298 116.588 92.6502 115.991L92.6875 115.973ZM96.8447 115.693V114.239H96.1549V113.698H96.8447V112.878H97.5344V113.698H98.858V114.239H97.5344V115.674C97.5344 116.085 97.7954 116.327 98.2242 116.327C98.4479 116.327 98.6902 116.252 98.858 116.14V116.718C98.6902 116.83 98.4106 116.905 98.1496 116.905C97.2921 116.905 96.826 116.42 96.826 115.693H96.8447ZM102.064 115.19V113.679H102.754V115.264C102.754 116.178 102.139 116.886 101.058 116.886C99.9765 116.886 99.38 116.159 99.38 115.246V113.661H100.07V115.171C100.07 115.749 100.424 116.252 101.058 116.252C101.692 116.252 102.046 115.749 102.046 115.171L102.064 115.19ZM103.164 115.264C103.164 114.313 103.929 113.605 104.973 113.605C105.439 113.605 105.867 113.791 106.147 114.071V112.244H106.855V115.264C106.855 116.196 106.054 116.905 105.01 116.905C103.966 116.905 103.164 116.178 103.164 115.264ZM106.147 115.246C106.147 114.686 105.644 114.201 105.01 114.201C104.376 114.201 103.873 114.668 103.873 115.246C103.873 115.824 104.376 116.29 105.01 116.29C105.644 116.29 106.147 115.824 106.147 115.246ZM107.284 115.227C107.284 114.332 107.993 113.586 109.037 113.586C110.081 113.586 110.733 114.276 110.733 115.152V115.413H107.974C108.049 115.954 108.496 116.327 109.13 116.327C109.559 116.327 109.931 116.159 110.136 115.824L110.677 116.066C110.379 116.607 109.82 116.886 109.148 116.886C108.104 116.886 107.321 116.196 107.321 115.227H107.284ZM110.025 115.003C109.987 114.5 109.596 114.164 109.018 114.164C108.44 114.164 108.049 114.537 107.974 115.003H110.006H110.025ZM111.889 115.301V116.812H111.199V115.227C111.199 114.313 111.796 113.586 112.914 113.586C114.033 113.586 114.648 114.295 114.648 115.208V116.793H113.958V115.283C113.958 114.686 113.604 114.183 112.914 114.183C112.224 114.183 111.907 114.686 111.907 115.264L111.889 115.301ZM115.561 115.693V114.239H114.872V113.698H115.561V112.878H116.251V113.698H117.575V114.239H116.251V115.674C116.251 116.085 116.512 116.327 116.941 116.327C117.164 116.327 117.407 116.252 117.575 116.14V116.718C117.407 116.83 117.127 116.905 116.866 116.905C116.009 116.905 115.543 116.42 115.543 115.693H115.561ZM119.346 116.215C120.054 116.215 120.39 115.879 120.39 115.301V112.523H121.117V115.246C121.117 116.252 120.52 116.83 119.364 116.83V116.196L119.346 116.215ZM121.657 115.246C121.657 114.351 122.44 113.605 123.503 113.605C124.565 113.605 125.348 114.313 125.348 115.246V116.812H124.677V116.252C124.416 116.644 123.95 116.886 123.391 116.886C122.384 116.886 121.657 116.14 121.657 115.227V115.246ZM124.64 115.246C124.64 114.668 124.137 114.201 123.503 114.201C122.869 114.201 122.366 114.668 122.366 115.246C122.366 115.824 122.869 116.29 123.503 116.29C124.137 116.29 124.64 115.824 124.64 115.246ZM125.982 118.266V115.246C125.982 114.313 126.784 113.605 127.828 113.605C128.872 113.605 129.655 114.351 129.655 115.246C129.655 116.196 128.89 116.905 127.846 116.905C127.38 116.905 126.952 116.718 126.672 116.439V118.266H125.982ZM128.965 115.246C128.965 114.668 128.48 114.201 127.828 114.201C127.175 114.201 126.691 114.668 126.691 115.246C126.691 115.824 127.175 116.29 127.828 116.29C128.48 116.29 128.965 115.805 128.965 115.246ZM129.878 115.246C129.878 114.351 130.661 113.605 131.724 113.605C132.787 113.605 133.569 114.313 133.569 115.246V116.812H132.898V116.252C132.637 116.644 132.171 116.886 131.612 116.886C130.605 116.886 129.878 116.14 129.878 115.227V115.246ZM132.861 115.246C132.861 114.668 132.358 114.201 131.724 114.201C131.09 114.201 130.587 114.668 130.587 115.246C130.587 115.824 131.09 116.29 131.724 116.29C132.358 116.29 132.861 115.824 132.861 115.246ZM134.912 115.301V116.812H134.222V115.227C134.222 114.313 134.818 113.586 135.937 113.586C137.056 113.586 137.671 114.295 137.671 115.208V116.793H136.981V115.283C136.981 114.686 136.627 114.183 135.937 114.183C135.247 114.183 134.93 114.686 134.93 115.264L134.912 115.301ZM140.542 116.812C140.113 116.812 139.889 116.588 139.889 116.308C139.889 116.103 139.982 115.935 140.187 115.768L141.586 114.63C141.977 114.313 142.182 114.071 142.182 113.717C142.182 113.325 141.828 113.064 141.362 113.064C140.896 113.064 140.523 113.325 140.299 113.717L139.74 113.437C140.057 112.859 140.635 112.449 141.399 112.449C142.275 112.449 142.89 112.989 142.89 113.679C142.89 114.201 142.629 114.593 142.201 114.947L140.803 116.066C140.803 116.066 140.709 116.14 140.709 116.178C140.709 116.178 140.709 116.215 140.747 116.215H143.021V116.812H140.523H140.542ZM143.412 114.668C143.412 113.418 144.177 112.449 145.314 112.449C146.451 112.449 147.215 113.4 147.215 114.668C147.215 115.935 146.451 116.905 145.314 116.905C144.177 116.905 143.412 115.917 143.412 114.668ZM146.47 114.668C146.47 113.791 145.985 113.12 145.314 113.12C144.643 113.12 144.158 113.791 144.158 114.668C144.158 115.544 144.643 116.234 145.314 116.234C145.985 116.234 146.47 115.544 146.47 114.668ZM148.856 116.812V113.269C148.856 113.269 148.856 113.232 148.819 113.232C148.781 113.232 148.763 113.232 148.725 113.269L147.644 113.828L147.327 113.213L148.539 112.598C148.725 112.505 148.912 112.43 149.098 112.43C149.397 112.43 149.583 112.617 149.583 112.934V116.793H148.856V116.812ZM150.72 116.812L152.361 113.344C152.361 113.344 152.417 113.213 152.417 113.176C152.417 113.139 152.379 113.12 152.323 113.12H150.142V112.523H152.379C152.901 112.523 153.144 112.728 153.144 113.083C153.144 113.213 153.106 113.381 153.032 113.549L151.503 116.83H150.72V116.812Z" fill="#EBAA01"/>
</g>
<defs>
<clipPath id="clip0_351_7243">
<rect width="218" height="120" fill="white"/>
</clipPath>
</defs>
</svg>
