<svg width="218" height="120" viewBox="0 0 218 120" fill="none" xmlns="http://www.w3.org/2000/svg">
<g clip-path="url(#clip0_351_8250)">
<path d="M58.9638 7.53247H86.9828C92.9855 7.53247 96.1547 10.7021 96.1547 14.3939C96.1547 16.7245 94.7379 19.0738 92.2399 21.4977L83.6459 29.3473H84.7271C91.9043 29.3473 98.0748 35.1645 98.0748 43.0887C98.0748 52.4486 89.7418 59.3846 77.8109 59.3846C68.3967 59.3846 60.9772 55.6928 57.0437 48.2161L67.5578 43.1633C69.3847 47.3212 73.3182 49.4281 77.9787 49.4281C82.6392 49.4281 86.1439 46.7805 86.1439 42.9396C86.1439 39.3224 82.9002 37.0477 78.221 37.0477H75.2197C71.4726 37.0477 69.2169 34.7916 69.1424 32.2932C69.1424 30.4846 70.2236 28.8252 71.976 27.1658L81.7258 18.4026C81.9681 18.2534 82.1359 18.1788 82.1359 17.8805C82.1359 17.7314 81.9681 17.7314 81.8003 17.7314H58.9638V7.55112V7.53247Z" fill="#966034"/>
<path d="M102.661 42.6411V37.6069C102.661 35.3508 104.078 33.6355 106.968 33.6355C107.602 33.6355 108.291 33.7474 108.776 33.9338V36.3763C108.31 36.1339 107.732 36.0034 107.229 36.0034C106.129 36.0034 105.458 36.6373 105.458 37.7001V42.6597H102.68L102.661 42.6411ZM108.645 38.2595C108.645 35.5186 110.733 33.5982 113.753 33.5982C114.741 33.5982 115.674 33.9152 116.382 34.4372V29.8132H119.197V38.2595C119.197 40.9257 116.96 42.8835 113.921 42.8835C110.883 42.8835 108.664 40.7952 108.664 38.2595H108.645ZM116.401 38.2595C116.401 37.0102 115.338 35.9848 113.903 35.9848C112.467 35.9848 111.423 37.0102 111.423 38.2595C111.423 39.5087 112.467 40.5155 113.903 40.5155C115.338 40.5155 116.401 39.5087 116.401 38.2595ZM103.258 58.3403V46.3887H107.918C111.665 46.3887 113.958 47.9736 113.958 50.7331C113.958 53.4925 111.703 55.1706 108.068 55.1706H106.129V58.3216H103.258V58.3403ZM106.11 48.794V52.784H107.974C109.857 52.784 110.994 52.1314 110.994 50.7517C110.994 49.372 109.857 48.794 107.974 48.794H106.11ZM117.407 55.9537H123.578V58.3589H117.072C115.245 58.3589 114.536 57.5012 114.536 56.1401V46.4074H117.407V55.9537ZM127.903 48.0855C128.35 46.7989 129.525 46.165 130.774 46.165C132.023 46.165 133.216 46.7803 133.663 48.0855L137.149 58.3403H134.222L133.458 55.8978H128.108L127.343 58.3403H124.417L127.903 48.0855ZM128.835 53.5858H132.694L131.202 48.8499C131.128 48.6075 130.997 48.4956 130.774 48.4956C130.55 48.4956 130.419 48.6075 130.345 48.8499L128.835 53.5858ZM136.609 52.3925C136.609 48.9245 139.61 46.1836 143.45 46.1836C145.743 46.1836 147.943 47.2837 148.931 49.1482L146.601 50.3415C145.948 49.316 144.923 48.6634 143.338 48.6634C141.139 48.6634 139.554 50.2483 139.554 52.4111C139.554 54.574 141.12 56.1588 143.338 56.1588C144.923 56.1588 145.985 55.5062 146.601 54.4807L148.931 55.674C147.943 57.5385 145.743 58.6386 143.45 58.6386C139.61 58.6386 136.609 55.8791 136.609 52.4298V52.3925ZM152.025 58.3403C150.199 58.3403 149.49 57.4826 149.49 56.1215V48.6262C149.49 47.2651 150.199 46.3887 152.025 46.3887H159.016V48.7194H152.361V51.1992H158.606V53.5298H152.361V56.0096H159.128V58.3403H152.025Z" fill="#966034"/>
<path d="M51.2465 116.233C49.7924 117.762 41.5526 112.56 38.9055 108.086C38.9055 108.086 37.4328 105.624 37.1158 102.156C37.0786 101.839 37.1158 101.504 37.1718 101.187C37.209 100.982 37.3209 100.795 37.5073 100.311C37.8802 100.441 38.2903 100.516 38.6631 100.628C38.6631 100.628 39.2037 100.814 39.7257 101.094C45.2438 103.965 48.7298 109.782 48.7298 109.782C50.4076 112.579 52.0667 115.357 51.2465 116.233Z" fill="#966034"/>
<path d="M27.5149 12.8835C27.9623 4.71697 38.1968 -1.80882 47.5551 0.447242C41.9438 6.56284 36.6122 12.4733 27.5149 12.8835Z" fill="#966034"/>
<path d="M15.7517 85.9908C9.89811 78.1971 10.3828 69.4898 16.7211 64.2878C20.6546 71.634 17.4668 78.4581 15.7517 85.9908Z" fill="#966034"/>
<path d="M10.1588 70.8695C6.61685 61.8266 9.4318 53.4177 16.8513 50.1548C18.641 58.3213 13.7568 64.12 10.1588 70.8695Z" fill="#966034"/>
<path d="M11.8555 38.4271C12.7316 29.5707 20.3562 22.9703 27.6266 24.5552C26.5268 29.7012 20.9155 34.6795 11.8555 38.4271Z" fill="#966034"/>
<path d="M8.9481 54.5549C7.6618 45.195 13.1985 36.8607 20.7299 36.7488C20.0774 44.8594 14.1306 49.2224 8.9481 54.5549Z" fill="#966034"/>
<path d="M38.1973 14.5801C33.4622 21.4229 26.0427 22.1687 19.0706 24.1637C20.3382 17.4515 31.0574 10.6274 38.1973 14.5801Z" fill="#966034"/>
<path d="M20.4689 78.0854C25.9124 84.1265 24.8498 91.4726 25.0548 98.7442C17.4489 94.3626 15.361 82.6162 20.4689 78.0854Z" fill="#966034"/>
<path d="M22.8167 99.9186C15.2108 99.9558 7.7726 93.2436 6.07617 84.7974C14.3719 86.7178 18.79 93.0385 22.8167 99.9186Z" fill="#966034"/>
<path d="M37.563 109.465C28.8012 105.829 25.0169 98.6511 27.2353 90.0557C34.3379 94.6237 35.1954 102.026 37.563 109.465Z" fill="#966034"/>
<path d="M50.5751 117.799C45.0384 122.61 32.6414 118.806 28.6147 113.25C36.78 110.602 43.6775 114.275 50.5751 117.799Z" fill="#966034"/>
<path d="M5.72308 30.895C10.1972 38.3717 8.81766 45.8857 6.8416 53.4183C1.41677 49.2418 0.894792 39.6023 5.72308 30.895Z" fill="#966034"/>
<path d="M14.9873 15.3074C17.504 23.5485 13.701 30.3726 10.1404 37.0849C5.83408 32.088 8.29482 20.6026 14.9873 15.3074Z" fill="#966034"/>
<path d="M8.03381 70.3849C1.32268 66.7677 -1.84647 56.9604 1.09897 48.8684C7.60504 54.723 7.38134 62.7031 8.03381 70.3849Z" fill="#966034"/>
<path d="M17.4666 22.4484C14.7822 16.1091 20.6917 5.40679 28.4468 2.27441C26.8063 7.51369 27.0673 13.014 22.3695 16.7617C20.5053 18.2533 19.2003 20.4161 17.4666 22.4671V22.4484Z" fill="#966034"/>
<path d="M1.11747 67.1035C8.76071 71.1682 11.1096 78.4957 13.3094 85.7859C6.76601 85.3198 0.576851 75.9972 1.11747 67.1035Z" fill="#966034"/>
<path d="M35.6428 110.77C27.9995 112.728 19.8716 108.533 14.9688 99.8071C19.2751 101.019 23.339 101.522 26.7132 103.294C29.9942 105.028 32.5482 108.104 35.6614 110.77H35.6428Z" fill="#966034"/>
<path d="M166.753 116.233C168.207 117.762 176.447 112.56 179.094 108.086C179.094 108.086 180.566 105.624 180.883 102.156C180.921 101.839 180.883 101.504 180.827 101.187C180.79 100.982 180.678 100.795 180.492 100.311C180.119 100.441 179.709 100.516 179.336 100.628C179.336 100.628 178.795 100.814 178.273 101.094C172.755 103.965 169.269 109.782 169.269 109.782C167.592 112.579 165.932 115.357 166.753 116.233Z" fill="#966034"/>
<path d="M190.484 12.8835C190.037 4.71697 179.802 -1.80882 170.444 0.447242C176.055 6.56284 181.387 12.4733 190.484 12.8835Z" fill="#966034"/>
<path d="M202.247 85.9908C208.101 78.1971 207.616 69.4898 201.278 64.2878C197.344 71.634 200.532 78.4581 202.247 85.9908Z" fill="#966034"/>
<path d="M207.839 70.8695C211.381 61.8266 208.567 53.4177 201.147 50.1548C199.357 58.3213 204.242 64.12 207.839 70.8695Z" fill="#966034"/>
<path d="M206.143 38.4271C205.267 29.5707 197.642 22.9703 190.372 24.5552C191.472 29.7012 197.083 34.6795 206.143 38.4271Z" fill="#966034"/>
<path d="M209.052 54.5549C210.338 45.195 204.802 36.8607 197.27 36.7488C197.923 44.8594 203.87 49.2224 209.052 54.5549Z" fill="#966034"/>
<path d="M179.802 14.5801C184.537 21.4229 191.957 22.1687 198.929 24.1637C197.661 17.4515 186.942 10.6274 179.802 14.5801Z" fill="#966034"/>
<path d="M197.53 78.0854C192.086 84.1265 193.149 91.4726 192.944 98.7442C200.55 94.3626 202.638 82.6162 197.53 78.0854Z" fill="#966034"/>
<path d="M195.182 99.9186C202.788 99.9558 210.226 93.2436 211.922 84.7974C203.626 86.7178 199.208 93.0385 195.182 99.9186Z" fill="#966034"/>
<path d="M180.436 109.465C189.197 105.829 192.982 98.6511 190.763 90.0557C183.661 94.6237 182.803 102.026 180.436 109.465Z" fill="#966034"/>
<path d="M167.424 117.799C172.96 122.61 185.357 118.806 189.384 113.25C181.219 110.602 174.321 114.275 167.424 117.799Z" fill="#966034"/>
<path d="M212.277 30.895C207.803 38.3717 209.182 45.8857 211.158 53.4183C216.583 49.2418 217.105 39.6023 212.277 30.895Z" fill="#966034"/>
<path d="M203.011 15.3074C200.494 23.5485 204.297 30.3726 207.858 37.0849C212.164 32.088 209.703 20.6026 203.011 15.3074Z" fill="#966034"/>
<path d="M209.965 70.3849C216.676 66.7677 219.845 56.9604 216.899 48.8684C210.393 54.723 210.617 62.7031 209.965 70.3849Z" fill="#966034"/>
<path d="M200.531 22.4484C203.216 16.1091 197.306 5.40679 189.551 2.27441C191.192 7.51369 190.931 13.014 195.629 16.7617C197.493 18.2533 198.798 20.4161 200.531 22.4671V22.4484Z" fill="#966034"/>
<path d="M216.88 67.1035C209.237 71.1682 206.888 78.4957 204.688 85.7859C211.232 85.3198 217.421 75.9972 216.88 67.1035Z" fill="#966034"/>
<path d="M182.374 110.77C190.017 112.728 198.145 108.533 203.048 99.8071C198.742 101.019 194.678 101.522 191.304 103.294C188.023 105.028 185.469 108.104 182.355 110.77H182.374Z" fill="#966034"/>
<path d="M57.0068 62.256H62.3757L64.8923 74.394L67.0921 65.5749C67.7259 62.9832 69.0868 61.8645 71.1747 61.8645C73.2626 61.8645 74.6235 62.9646 75.2573 65.5749L77.4571 74.394L79.9738 62.256H85.3427L81.8566 77.0976C81.3719 79.2231 79.806 80.4164 77.6808 80.4164C75.7606 80.4164 74.0456 79.2604 73.5609 77.3213L71.1561 67.7377L68.7512 77.3213C68.2666 79.2604 66.5515 80.4164 64.6314 80.4164C62.5062 80.4164 60.9402 79.2417 60.4555 77.0976L56.9695 62.256H57.0068ZM85.0817 71.1311C85.0817 65.8546 89.4998 61.8831 95.4094 61.8831C101.319 61.8831 105.737 65.8546 105.737 71.1311C105.737 76.4077 101.319 80.3791 95.4094 80.3791C89.4998 80.3791 85.0817 76.4077 85.0817 71.1311ZM100.238 71.1311C100.238 68.5022 98.1497 66.4885 95.428 66.4885C92.7063 66.4885 90.6184 68.5022 90.6184 71.1311C90.6184 73.7601 92.7063 75.7738 95.428 75.7738C98.1497 75.7738 100.238 73.7601 100.238 71.1311ZM107.471 79.9876V62.256H115.673C120.315 62.256 123.857 64.2324 123.857 68.1293C123.857 70.4599 122.403 72.3803 120.11 73.0329C121.098 73.6109 121.732 74.6364 122.608 76.2399L124.603 79.9689H118.768L116.941 76.6314C116.27 75.4195 115.524 74.972 113.772 74.972H112.784L112.746 79.9689H107.433L107.471 79.9876ZM112.84 66.7309L112.802 70.7023H115.673C117.239 70.7023 118.339 69.9192 118.339 68.6513C118.339 67.3089 117.239 66.7309 115.729 66.7309H112.821H112.84ZM132.022 75.5314H140.672V79.9876H131.295C127.996 79.9876 126.653 78.4027 126.653 75.9229V62.2747H132.022V75.5314ZM149.564 79.9876H141.809V62.256H149.564C155.977 62.256 160.246 65.7986 160.246 71.1871C160.246 76.5755 155.828 79.9876 149.564 79.9876ZM149.564 66.7309H147.178V75.6619H149.564C152.696 75.6619 154.728 73.872 154.728 71.2057C154.728 68.5395 152.696 66.7495 149.564 66.7495V66.7309Z" fill="#966034"/>
<path d="M43.5276 91.2865C43.5276 86.8862 47.3492 83.381 52.2334 83.381C55.1602 83.381 57.9379 84.7793 59.1869 87.1473L56.2228 88.6575C55.4026 87.3524 54.0976 86.5133 52.0843 86.5133C49.288 86.5133 47.2746 88.527 47.2746 91.2865C47.2746 94.046 49.2693 96.0596 52.0843 96.0596C54.0976 96.0596 55.4585 95.2206 56.2228 93.9154L59.1869 95.4257C57.9379 97.7936 55.1416 99.192 52.2334 99.192C47.3492 99.192 43.5276 95.6867 43.5276 91.2865ZM60.5291 98.875V83.6793H64.1643V89.7949H71.8262V83.6793H75.4614V98.875H71.8262V92.8154H64.1643V98.875H60.5291ZM81.1659 85.8235C81.7438 84.1827 83.2351 83.381 84.8011 83.381C86.367 83.381 87.8956 84.164 88.4735 85.8235L92.9103 98.875H89.2006L88.2312 95.7613H81.4269L80.4575 98.875H76.7477L81.1845 85.8235H81.1659ZM82.359 92.834H87.2805L85.379 86.8117C85.2858 86.4947 85.1366 86.3642 84.8383 86.3642C84.5587 86.3642 84.3909 86.4947 84.2977 86.8117L82.3776 92.834H82.359ZM93.4696 98.875L95.7439 85.8048C96.0422 84.22 97.2726 83.381 98.969 83.381C100.46 83.381 101.747 83.9589 102.138 85.4319L104.953 94.9223L104.972 94.9969C104.99 94.9969 105.028 94.9969 105.028 94.9223L107.805 85.5065C108.234 84.0335 109.52 83.381 111.049 83.381C112.727 83.381 113.92 84.2386 114.162 85.8608L116.232 98.875H112.54L110.919 86.9422C110.919 86.8303 110.9 86.7557 110.788 86.7557C110.713 86.7557 110.658 86.793 110.639 86.8862L107.526 96.9546C107.172 98.1106 106.183 98.6699 104.99 98.6699C103.797 98.6699 102.772 98.1292 102.474 97.0292L99.3605 86.8862C99.3418 86.7744 99.2859 86.7557 99.23 86.7557C99.1554 86.7557 99.0809 86.793 99.0809 86.9049L97.1794 98.8564H93.4883L93.4696 98.875ZM118.394 98.875V83.6793H124.304C129.076 83.6793 131.984 85.6929 131.984 89.2169C131.984 92.7408 129.113 94.8663 124.509 94.8663H122.048V98.8564H118.413L118.394 98.875ZM122.029 86.7371V91.8272H124.397C126.783 91.8272 128.237 90.9882 128.237 89.2355C128.237 87.5575 126.783 86.7557 124.397 86.7557H122.029V86.7371ZM137.316 83.6793V98.875H133.68V83.6793H137.316ZM139.161 91.2865C139.161 86.8117 142.927 83.3996 147.886 83.3996C152.845 83.3996 156.647 86.8117 156.647 91.2865C156.647 95.7613 152.863 99.1734 147.886 99.1734C142.908 99.1734 139.161 95.78 139.161 91.2865ZM152.882 91.2865C152.882 88.6016 150.719 86.5133 147.886 86.5133C145.052 86.5133 142.89 88.5829 142.89 91.2865C142.89 93.99 145.089 96.0596 147.886 96.0596C150.682 96.0596 152.882 93.99 152.882 91.2865ZM158.325 98.875V85.7489C158.325 84.2386 159.556 83.3623 160.917 83.3623C162.016 83.3623 162.893 83.7166 163.433 84.5556L170.07 94.8477V83.6606H173.519V96.7868C173.519 98.297 172.288 99.1547 170.983 99.1547C169.902 99.1547 168.989 98.8191 168.448 97.9801L161.811 87.6134V98.8564H158.344L158.325 98.875Z" fill="#966034"/>
<path d="M64.2773 107.135L64.9671 106.836C65.1721 107.265 65.6382 107.489 66.272 107.489C66.9058 107.489 67.3905 107.209 67.3905 106.743C67.3905 106.202 66.8499 106.109 66.1974 105.997C65.3772 105.848 64.3705 105.606 64.3705 104.58C64.3705 103.76 65.1908 103.163 66.2161 103.163C67.0363 103.163 67.782 103.518 68.0989 104.189L67.4092 104.506C67.1855 104.096 66.7753 103.853 66.1788 103.853C65.6382 103.853 65.1908 104.152 65.1908 104.562C65.1908 105.084 65.7687 105.196 66.4211 105.326C67.2227 105.475 68.2108 105.718 68.2108 106.743C68.2108 107.601 67.3532 108.197 66.272 108.197C65.3585 108.197 64.5942 107.825 64.2773 107.153V107.135ZM68.9751 108.086V102.865H69.7767V104.916C70.075 104.618 70.5597 104.431 71.1003 104.431C72.2561 104.431 72.9086 105.14 72.9086 106.221V108.086H72.107V106.296C72.107 105.662 71.7155 105.102 70.9698 105.102C70.2614 105.102 69.7767 105.606 69.7767 106.314V108.086H68.9751ZM73.3933 106.277C73.3933 105.252 74.2135 104.413 75.388 104.413C76.5624 104.413 77.3267 105.196 77.3267 106.202V106.501H74.1576C74.2508 107.116 74.7541 107.545 75.4812 107.545C75.9659 107.545 76.3946 107.358 76.637 106.967L77.2522 107.247C76.898 107.862 76.2641 108.197 75.4998 108.197C74.2881 108.197 73.3933 107.414 73.3933 106.296V106.277ZM76.5251 106.016C76.4878 105.438 76.0404 105.065 75.3693 105.065C74.6982 105.065 74.2694 105.494 74.1762 106.016H76.5065H76.5251ZM78.8367 102.865V108.086H78.0351V102.865H78.8367ZM80.6823 102.865V108.086H79.8807V102.865H80.6823ZM84.3921 108.086C83.8328 108.086 83.6277 107.825 83.6277 107.414V103.853C83.6277 103.443 83.8328 103.182 84.3921 103.182H87.3561V103.853H84.448V105.27H87.1884V105.941H84.448V107.377H87.4121V108.048H84.3921V108.086ZM87.7849 106.296C87.7849 105.27 88.717 104.413 89.8542 104.431C90.5812 104.431 91.2523 104.73 91.6065 105.382L90.9354 105.718C90.6931 105.326 90.3016 105.121 89.8355 105.121C89.1458 105.121 88.5679 105.662 88.5679 106.314C88.5679 106.967 89.1458 107.508 89.8355 107.508C90.3016 107.508 90.6931 107.303 90.9354 106.911L91.6065 107.247C91.2337 107.899 90.5812 108.197 89.8542 108.197C88.717 108.197 87.7849 107.358 87.7849 106.314V106.296ZM91.7743 106.296C91.7743 105.27 92.7064 104.431 93.8995 104.431C95.0926 104.431 96.006 105.289 96.006 106.296C96.006 107.303 95.0926 108.179 93.8995 108.179C92.7064 108.179 91.7743 107.34 91.7743 106.296ZM95.1858 106.296C95.1858 105.643 94.6265 105.102 93.8809 105.102C93.1352 105.102 92.5573 105.643 92.5573 106.296C92.5573 106.948 93.1352 107.489 93.8809 107.489C94.6265 107.489 95.1858 106.948 95.1858 106.296ZM99.5853 106.165H96.789V105.513H99.5853V106.165ZM107.396 106.202V108.086H106.595V106.314C106.595 105.662 106.241 105.102 105.495 105.102C104.749 105.102 104.414 105.643 104.414 106.314V108.104H103.612V106.314C103.612 105.662 103.239 105.102 102.512 105.102C101.785 105.102 101.431 105.68 101.431 106.314V108.086H100.629V106.202C100.629 105.196 101.263 104.394 102.456 104.394C103.239 104.394 103.817 104.767 104.022 105.308C104.246 104.748 104.805 104.394 105.551 104.394C106.744 104.394 107.396 105.196 107.396 106.184V106.202ZM107.881 106.296C107.881 105.27 108.794 104.431 109.988 104.431C111.181 104.431 112.094 105.233 112.094 106.296V108.086H111.33V107.452C111.032 107.899 110.51 108.16 109.857 108.16C108.701 108.16 107.862 107.321 107.862 106.277L107.881 106.296ZM111.293 106.296C111.293 105.643 110.733 105.102 109.988 105.102C109.242 105.102 108.683 105.643 108.683 106.296C108.683 106.948 109.261 107.489 109.988 107.489C110.715 107.489 111.293 106.948 111.293 106.296ZM112.821 108.086V105.941C112.821 105.065 113.362 104.413 114.406 104.413C114.648 104.413 114.909 104.45 115.114 104.543V105.252C114.928 105.158 114.685 105.102 114.48 105.102C113.94 105.102 113.623 105.438 113.623 105.96V108.067H112.821V108.086ZM115.058 106.296C115.058 105.27 115.972 104.431 117.165 104.431C118.358 104.431 119.271 105.233 119.271 106.296V108.086H118.507V107.452C118.209 107.899 117.687 108.16 117.034 108.16C115.878 108.16 115.04 107.321 115.04 106.277L115.058 106.296ZM118.47 106.296C118.47 105.643 117.91 105.102 117.165 105.102C116.419 105.102 115.86 105.643 115.86 106.296C115.86 106.948 116.438 107.489 117.165 107.489C117.892 107.489 118.47 106.948 118.47 106.296ZM120.297 106.799V105.14H119.514V104.506H120.297V103.574H121.098V104.506H122.608V105.14H121.098V106.78C121.098 107.247 121.396 107.526 121.881 107.526C122.142 107.526 122.422 107.433 122.608 107.321V107.992C122.403 108.123 122.086 108.197 121.807 108.197C120.819 108.197 120.297 107.638 120.297 106.818V106.799ZM123.391 108.086V102.865H124.193V104.916C124.491 104.618 124.976 104.431 125.516 104.431C126.672 104.431 127.325 105.14 127.325 106.221V108.086H126.523V106.296C126.523 105.662 126.132 105.102 125.386 105.102C124.677 105.102 124.193 105.606 124.193 106.314V108.086H123.391ZM127.809 106.296C127.809 105.27 128.741 104.431 129.935 104.431C131.128 104.431 132.041 105.289 132.041 106.296C132.041 107.303 131.128 108.179 129.935 108.179C128.741 108.179 127.809 107.34 127.809 106.296ZM131.221 106.296C131.221 105.643 130.662 105.102 129.916 105.102C129.17 105.102 128.592 105.643 128.592 106.296C128.592 106.948 129.17 107.489 129.916 107.489C130.662 107.489 131.221 106.948 131.221 106.296ZM133.309 106.352V108.086H132.507V106.277C132.507 105.233 133.197 104.413 134.465 104.413C135.732 104.413 136.459 105.233 136.459 106.277V108.086H135.658V106.352C135.658 105.68 135.248 105.102 134.465 105.102C133.682 105.102 133.309 105.68 133.309 106.352ZM139.759 108.086C139.274 108.086 139.013 107.825 139.013 107.508C139.013 107.284 139.125 107.079 139.367 106.892L140.971 105.606C141.418 105.233 141.642 104.972 141.642 104.562C141.642 104.114 141.232 103.816 140.691 103.816C140.15 103.816 139.722 104.114 139.479 104.562L138.845 104.245C139.2 103.574 139.871 103.126 140.747 103.126C141.754 103.126 142.462 103.741 142.462 104.524C142.462 105.121 142.164 105.569 141.66 105.979L140.057 107.265C140.057 107.265 139.964 107.34 139.964 107.396C139.964 107.414 139.964 107.433 140.001 107.433H142.611V108.123H139.759V108.086ZM143.04 105.643C143.04 104.207 143.916 103.107 145.221 103.107C146.526 103.107 147.402 104.207 147.402 105.643C147.402 107.079 146.526 108.197 145.221 108.197C143.916 108.197 143.04 107.06 143.04 105.643ZM146.526 105.643C146.526 104.636 145.967 103.872 145.202 103.872C144.438 103.872 143.879 104.636 143.879 105.643C143.879 106.65 144.438 107.433 145.202 107.433C145.967 107.433 146.526 106.631 146.526 105.643ZM149.266 108.086V104.058C149.266 104.058 149.266 104.002 149.229 104.002C149.192 104.002 149.154 104.021 149.117 104.04L147.868 104.674L147.495 103.965L148.893 103.275C149.099 103.163 149.322 103.089 149.527 103.089C149.863 103.089 150.087 103.294 150.087 103.667V108.086H149.266ZM151.392 108.086L153.274 104.133C153.274 104.133 153.33 104.002 153.33 103.946C153.33 103.89 153.293 103.872 153.218 103.872H150.72V103.182H153.274C153.871 103.182 154.151 103.424 154.151 103.816C154.151 103.965 154.095 104.152 154.02 104.338L152.268 108.086H151.373H151.392ZM60.1201 116.308H58.2932V111.404H60.1761C61.9098 111.404 63.0842 112.374 63.0842 113.828C63.0842 115.357 61.8166 116.308 60.1388 116.308H60.1201ZM60.1574 112.094H59.1135V115.618H60.1201C61.2946 115.618 62.208 114.947 62.208 113.828C62.208 112.784 61.3691 112.094 60.1574 112.094ZM63.6248 116.308V114.164C63.6248 113.288 64.1655 112.635 65.2094 112.635C65.4518 112.635 65.7127 112.672 65.9178 112.766V113.474C65.7314 113.381 65.489 113.325 65.284 113.325C64.7434 113.325 64.4264 113.661 64.4264 114.183V116.289H63.6248V116.308ZM66.011 111.535C66.011 111.274 66.2534 111.05 66.533 111.05C66.8126 111.05 67.055 111.274 67.055 111.535C67.055 111.796 66.8313 112.001 66.533 112.001C66.2347 112.001 66.011 111.796 66.011 111.535ZM66.9431 112.728V116.308H66.1415V112.728H66.9431ZM67.3532 112.728H68.2108L69.3666 115.637C69.3666 115.637 69.4039 115.711 69.4598 115.711C69.5157 115.711 69.553 115.674 69.553 115.637L70.7088 112.728H71.5663L70.28 115.842C70.1309 116.215 69.8513 116.401 69.4598 116.401C69.0683 116.401 68.7887 116.215 68.6209 115.842L67.3532 112.728ZM71.4918 114.5C71.4918 113.474 72.312 112.635 73.4865 112.635C74.6609 112.635 75.4252 113.418 75.4252 114.425V114.723H72.2561C72.3493 115.339 72.8526 115.767 73.5797 115.767C74.0644 115.767 74.4931 115.581 74.7355 115.189L75.3507 115.469C74.9965 116.084 74.3626 116.42 73.5983 116.42C72.3866 116.42 71.4918 115.637 71.4918 114.518V114.5ZM74.6423 114.239C74.605 113.661 74.1576 113.288 73.4865 113.288C72.8154 113.288 72.3866 113.716 72.2934 114.239H74.6236H74.6423ZM75.9845 116.308V114.164C75.9845 113.288 76.5251 112.635 77.5691 112.635C77.8114 112.635 78.0724 112.672 78.2775 112.766V113.474C78.0911 113.381 77.8487 113.325 77.6436 113.325C77.103 113.325 76.7861 113.661 76.7861 114.183V116.289H75.9845V116.308ZM78.3148 115.6L78.9299 115.301C79.135 115.656 79.4519 115.786 79.8993 115.786C80.3467 115.786 80.7009 115.618 80.7009 115.301C80.7009 114.555 78.4266 115.115 78.4266 113.754C78.4266 113.12 79.0418 112.672 79.8993 112.672C80.6264 112.672 81.1297 112.989 81.3907 113.399L80.7755 113.716C80.6077 113.399 80.2908 113.288 79.918 113.288C79.5451 113.288 79.2282 113.455 79.2282 113.754C79.2282 114.481 81.5025 113.959 81.5025 115.301C81.5025 115.973 80.7755 116.42 79.9366 116.42C79.2096 116.42 78.6317 116.159 78.3334 115.618L78.3148 115.6ZM82.0618 113.288L82.3601 112.057C82.2482 111.964 82.155 111.833 82.155 111.684C82.155 111.423 82.3974 111.218 82.6956 111.218C82.9939 111.218 83.2176 111.423 83.2176 111.684C83.2176 111.759 83.199 111.833 83.1617 111.908L82.6024 113.288H82.0804H82.0618ZM85.5292 111.404H86.3495L87.3002 115.506C87.3189 115.618 87.3561 115.674 87.4307 115.674C87.5053 115.674 87.5426 115.637 87.5612 115.506L88.456 112.02C88.5679 111.572 88.8289 111.367 89.2017 111.367C89.5745 111.367 89.8542 111.572 89.966 112.02L90.8981 115.506C90.9354 115.6 90.9541 115.656 91.0286 115.656C91.1032 115.656 91.1405 115.6 91.1591 115.506L92.0353 111.404H92.8555L91.8862 115.693C91.7929 116.122 91.5133 116.401 91.0659 116.401C90.6185 116.401 90.3389 116.159 90.2084 115.73L89.2763 112.188C89.2763 112.188 89.239 112.094 89.2017 112.094C89.1644 112.094 89.1458 112.132 89.1271 112.188L88.2137 115.767C88.1018 116.178 87.7849 116.401 87.4121 116.401C86.9833 116.401 86.685 116.159 86.5732 115.73L85.5292 111.404ZM92.781 114.5C92.781 113.474 93.7131 112.635 94.9062 112.635C96.0993 112.635 97.0127 113.493 97.0127 114.5C97.0127 115.506 96.0993 116.383 94.9062 116.383C93.7131 116.383 92.781 115.544 92.781 114.5ZM96.1925 114.518C96.1925 113.866 95.6332 113.325 94.8875 113.325C94.1418 113.325 93.5639 113.866 93.5639 114.518C93.5639 115.171 94.1418 115.711 94.8875 115.711C95.6332 115.711 96.1925 115.171 96.1925 114.518ZM97.4788 116.308V114.164C97.4788 113.288 98.0194 112.635 99.0633 112.635C99.3057 112.635 99.5667 112.672 99.7717 112.766V113.474C99.5853 113.381 99.343 113.325 99.1379 113.325C98.5973 113.325 98.2804 113.661 98.2804 114.183V116.289H97.4788V116.308ZM100.797 111.087V116.308H99.9954V111.087H100.797ZM101.45 114.518C101.45 113.437 102.326 112.635 103.519 112.635C104.059 112.635 104.544 112.84 104.861 113.176V111.087H105.663V114.537C105.663 115.6 104.749 116.401 103.556 116.401C102.363 116.401 101.45 115.562 101.45 114.537V114.518ZM104.861 114.518C104.861 113.866 104.302 113.325 103.556 113.325C102.81 113.325 102.251 113.866 102.251 114.518C102.251 115.171 102.829 115.711 103.556 115.711C104.283 115.711 104.861 115.171 104.861 114.518ZM108.049 113.847C108.049 112.43 109.279 111.311 110.808 111.311C111.74 111.311 112.579 111.74 112.989 112.467L112.318 112.821C112.001 112.337 111.46 112.038 110.771 112.038C109.727 112.038 108.888 112.821 108.888 113.866C108.888 114.91 109.708 115.711 110.771 115.711C111.46 115.711 112.02 115.413 112.318 114.928L112.989 115.283C112.579 115.991 111.721 116.42 110.808 116.42C109.279 116.42 108.049 115.301 108.049 113.884V113.847ZM113.492 116.308V111.087H114.294V113.138C114.592 112.84 115.077 112.654 115.617 112.654C116.773 112.654 117.426 113.362 117.426 114.444V116.308H116.624V114.518C116.624 113.884 116.233 113.325 115.487 113.325C114.779 113.325 114.294 113.828 114.294 114.537V116.308H113.492ZM117.91 114.5C117.91 113.474 118.824 112.635 120.017 112.635C121.21 112.635 122.124 113.437 122.124 114.5V116.289H121.359V115.656C121.061 116.103 120.539 116.364 119.886 116.364C118.731 116.364 117.892 115.525 117.892 114.481L117.91 114.5ZM121.322 114.518C121.322 113.866 120.763 113.325 120.017 113.325C119.271 113.325 118.712 113.866 118.712 114.518C118.712 115.171 119.29 115.711 120.017 115.711C120.744 115.711 121.322 115.171 121.322 114.518ZM129.618 114.425V116.308H128.816V114.537C128.816 113.884 128.462 113.325 127.716 113.325C126.97 113.325 126.635 113.866 126.635 114.537V116.327H125.833V114.537C125.833 113.884 125.479 113.325 124.733 113.325C123.988 113.325 123.652 113.903 123.652 114.537V116.308H122.851V114.425C122.851 113.418 123.484 112.616 124.677 112.616C125.46 112.616 126.038 112.989 126.243 113.53C126.467 112.971 127.026 112.616 127.772 112.616C128.965 112.616 129.618 113.418 129.618 114.406V114.425ZM130.345 117.949V114.5C130.345 113.437 131.258 112.635 132.451 112.635C133.644 112.635 134.558 113.493 134.558 114.5C134.558 115.581 133.7 116.383 132.489 116.383C131.948 116.383 131.463 116.178 131.146 115.842V117.93H130.345V117.949ZM133.756 114.518C133.756 113.866 133.197 113.325 132.451 113.325C131.706 113.325 131.146 113.866 131.146 114.518C131.146 115.171 131.706 115.711 132.451 115.711C133.197 115.711 133.756 115.171 133.756 114.518ZM135.08 111.535C135.08 111.274 135.322 111.05 135.602 111.05C135.881 111.05 136.124 111.274 136.124 111.535C136.124 111.796 135.9 112.001 135.602 112.001C135.303 112.001 135.08 111.796 135.08 111.535ZM136.012 112.728V116.308H135.21V112.728H136.012ZM136.664 114.5C136.664 113.474 137.596 112.635 138.79 112.635C139.983 112.635 140.896 113.493 140.896 114.5C140.896 115.506 139.983 116.383 138.79 116.383C137.596 116.383 136.664 115.544 136.664 114.5ZM140.076 114.518C140.076 113.866 139.517 113.325 138.771 113.325C138.025 113.325 137.447 113.866 137.447 114.518C137.447 115.171 138.025 115.711 138.771 115.711C139.517 115.711 140.076 115.171 140.076 114.518ZM142.164 114.574V116.308H141.362V114.5C141.362 113.455 142.052 112.635 143.32 112.635C144.587 112.635 145.314 113.455 145.314 114.5V116.308H144.513V114.574C144.513 113.903 144.102 113.325 143.32 113.325C142.537 113.325 142.164 113.903 142.164 114.574ZM145.873 115.6L146.489 115.301C146.694 115.656 147.011 115.786 147.458 115.786C147.905 115.786 148.26 115.618 148.26 115.301C148.26 114.555 145.985 115.115 145.985 113.754C145.985 113.12 146.601 112.672 147.458 112.672C148.185 112.672 148.688 112.989 148.949 113.399L148.334 113.716C148.166 113.399 147.85 113.288 147.477 113.288C147.104 113.288 146.787 113.455 146.787 113.754C146.787 114.481 149.061 113.959 149.061 115.301C149.061 115.973 148.334 116.42 147.495 116.42C146.768 116.42 146.19 116.159 145.892 115.618L145.873 115.6ZM149.751 116.308V111.087H150.553V113.138C150.851 112.84 151.336 112.654 151.876 112.654C153.032 112.654 153.703 113.362 153.703 114.444V116.308H152.902V114.518C152.902 113.884 152.51 113.325 151.764 113.325C151.056 113.325 150.571 113.828 150.571 114.537V116.308H149.77H149.751ZM154.449 111.535C154.449 111.274 154.691 111.05 154.971 111.05C155.25 111.05 155.493 111.274 155.493 111.535C155.493 111.796 155.269 112.001 154.971 112.001C154.673 112.001 154.449 111.796 154.449 111.535ZM155.381 112.728V116.308H154.579V112.728H155.381ZM156.276 117.949V114.5C156.276 113.437 157.189 112.635 158.382 112.635C159.575 112.635 160.489 113.493 160.489 114.5C160.489 115.581 159.631 116.383 158.42 116.383C157.879 116.383 157.394 116.178 157.077 115.842V117.93H156.276V117.949ZM159.687 114.518C159.687 113.866 159.128 113.325 158.382 113.325C157.637 113.325 157.077 113.866 157.077 114.518C157.077 115.171 157.637 115.711 158.382 115.711C159.128 115.711 159.687 115.171 159.687 114.518Z" fill="#966034"/>
</g>
<defs>
<clipPath id="clip0_351_8250">
<rect width="218" height="120" fill="white"/>
</clipPath>
</defs>
</svg>
