<svg width="218" height="120" viewBox="0 0 218 120" fill="none" xmlns="http://www.w3.org/2000/svg">
<g clip-path="url(#clip0_351_7159)">
<path d="M80.9993 58.3405V20.4536C80.9993 20.4536 80.8316 20.5282 80.757 20.6028L68.0804 26.7184L62.4878 16.2212L77.998 8.81905C80.6638 7.53253 83.5906 6.56299 86.0886 6.56299C90.339 6.56299 93.1726 9.13601 93.1726 13.6668V58.3405H80.9993Z" fill="#EBAA01"/>
<path d="M98.5046 40.9073L100.574 39.8631C100.984 40.5716 101.637 40.87 102.606 40.87C103.501 40.87 104.079 40.553 104.079 40.0309C104.079 38.6139 98.747 39.8445 98.747 36.4511C98.747 34.8662 100.276 33.6357 102.68 33.6357C104.768 33.6357 106.017 34.5306 106.614 35.5375L104.545 36.5816C104.228 35.9477 103.519 35.6493 102.736 35.6493C102.047 35.6493 101.543 35.9477 101.543 36.4138C101.543 37.8308 106.875 36.6935 106.875 39.9936C106.875 41.7649 104.973 42.9023 102.755 42.9023C100.742 42.9023 99.3249 42.2311 98.5233 40.9073H98.5046ZM108.609 39.1733V36.0036H106.819V33.878H108.609V31.6406H111.386V33.878H114.816V36.0036H111.386V39.1173C111.386 40.0869 112.039 40.6649 113.064 40.6649C113.642 40.6649 114.35 40.4971 114.835 40.236V42.4921C114.35 42.7718 113.493 42.9209 112.822 42.9209C110.007 42.9209 108.627 41.392 108.627 39.1919L108.609 39.1733ZM99.5299 58.3404V46.3889H104.19C107.938 46.3889 110.23 47.9738 110.23 50.7332C110.23 53.4927 107.975 55.1708 104.34 55.1708H102.401V58.3218H99.5299V58.3404ZM102.382 48.7941V52.7842H104.246C106.129 52.7842 107.266 52.1316 107.266 50.7519C107.266 49.3721 106.129 48.7941 104.246 48.7941H102.382ZM113.679 55.9539H119.85V58.3591H113.344C111.517 58.3591 110.808 57.5014 110.808 56.1403V46.4076H113.679V55.9539ZM124.175 48.0856C124.622 46.7991 125.797 46.1652 127.046 46.1652C128.295 46.1652 129.488 46.7805 129.935 48.0856L133.421 58.3404H130.494L129.73 55.8979H124.38L123.615 58.3404H120.689L124.175 48.0856ZM125.107 53.5859H128.966L127.474 48.8501C127.4 48.6077 127.269 48.4958 127.046 48.4958C126.822 48.4958 126.691 48.6077 126.617 48.8501L125.107 53.5859ZM132.881 52.374C132.881 48.906 135.882 46.1652 139.722 46.1652C142.015 46.1652 144.215 47.2652 145.203 49.1298L142.873 50.323C142.22 49.2976 141.195 48.645 139.61 48.645C137.411 48.645 135.826 50.2298 135.826 52.3926C135.826 54.5555 137.392 56.1403 139.61 56.1403C141.195 56.1403 142.257 55.4877 142.873 54.4623L145.203 55.6555C144.215 57.5201 142.015 58.6201 139.722 58.6201C135.882 58.6201 132.881 55.8606 132.881 52.4113V52.374ZM148.298 58.3404C146.471 58.3404 145.762 57.4828 145.762 56.1217V48.6263C145.762 47.2652 146.471 46.3889 148.298 46.3889H155.288V48.7196H148.633V51.1994H154.878V53.53H148.633V56.0098H155.4V58.3404H148.298Z" fill="#EBAA01"/>
<path d="M51.2472 116.233C49.7932 117.762 41.5534 112.56 38.9062 108.086C38.9062 108.086 37.4335 105.624 37.1166 102.156C37.0793 101.839 37.1166 101.504 37.1725 101.187C37.2098 100.982 37.3216 100.795 37.5081 100.311C37.8809 100.441 38.291 100.516 38.6639 100.628C38.6639 100.628 39.2045 100.814 39.7265 101.094C45.2445 103.965 48.7306 109.782 48.7306 109.782C50.4083 112.579 52.0675 115.357 51.2472 116.233Z" fill="#EBAA01"/>
<path d="M27.5154 12.8835C27.9628 4.71697 38.1973 -1.80882 47.5556 0.447242C41.9443 6.56284 36.6127 12.4733 27.5154 12.8835Z" fill="#EBAA01"/>
<path d="M15.7524 85.9908C9.89884 78.1971 10.3835 69.4898 16.7218 64.2878C20.6553 71.634 17.4675 78.4581 15.7524 85.9908Z" fill="#EBAA01"/>
<path d="M10.1603 70.8698C6.61832 61.8269 9.43327 53.4179 16.8528 50.155C18.6424 58.3216 13.7582 64.1202 10.1603 70.8698Z" fill="#EBAA01"/>
<path d="M11.8564 38.4276C12.7326 29.5712 20.3572 22.9708 27.6276 24.5557C26.5277 29.7017 20.9165 34.68 11.8564 38.4276Z" fill="#EBAA01"/>
<path d="M8.9481 54.5554C7.6618 45.1955 13.1985 36.8611 20.7299 36.7493C20.0774 44.8599 14.1306 49.2229 8.9481 54.5554Z" fill="#EBAA01"/>
<path d="M38.1973 14.5801C33.4622 21.4229 26.0427 22.1687 19.0706 24.1637C20.3382 17.4515 31.0574 10.6274 38.1973 14.5801Z" fill="#EBAA01"/>
<path d="M20.4689 78.0854C25.9124 84.1265 24.8498 91.4726 25.0548 98.7442C17.4489 94.3626 15.361 82.6162 20.4689 78.0854Z" fill="#EBAA01"/>
<path d="M22.8175 99.9188C15.2115 99.9561 7.77333 93.2438 6.0769 84.7976C14.3726 86.7181 18.7908 93.0388 22.8175 99.9188Z" fill="#EBAA01"/>
<path d="M37.5635 109.465C28.8017 105.829 25.0174 98.6511 27.2358 90.0557C34.3384 94.6237 35.1959 102.026 37.5635 109.465Z" fill="#EBAA01"/>
<path d="M50.5756 117.799C45.0389 122.61 32.6419 118.806 28.6152 113.25C36.7804 110.602 43.678 114.275 50.5756 117.799Z" fill="#EBAA01"/>
<path d="M5.72332 30.8948C10.1974 38.3715 8.8179 45.8855 6.84185 53.4181C1.41701 49.2416 0.895036 39.602 5.72332 30.8948Z" fill="#EBAA01"/>
<path d="M14.9883 15.3071C17.505 23.5483 13.702 30.3724 10.1414 37.0846C5.83505 32.0877 8.2958 20.6023 14.9883 15.3071Z" fill="#EBAA01"/>
<path d="M8.03454 70.3849C1.32341 66.7677 -1.84574 56.9604 1.0997 48.8684C7.60577 54.723 7.38207 62.7031 8.03454 70.3849Z" fill="#EBAA01"/>
<path d="M17.4671 22.4482C14.7827 16.1088 20.6922 5.40655 28.4473 2.27417C26.8068 7.51345 27.0678 13.0138 22.37 16.7614C20.5058 18.253 19.2008 20.4159 17.4671 22.4668V22.4482Z" fill="#EBAA01"/>
<path d="M1.11869 67.1035C8.76193 71.1682 11.1108 78.4957 13.3106 85.7859C6.76723 85.3198 0.578072 75.9972 1.11869 67.1035Z" fill="#EBAA01"/>
<path d="M35.6433 110.77C28 112.728 19.8721 108.533 14.9692 99.8071C19.2755 101.019 23.3395 101.522 26.7137 103.294C29.9947 105.028 32.5487 108.104 35.6619 110.77H35.6433Z" fill="#EBAA01"/>
<path d="M166.753 116.233C168.207 117.762 176.447 112.56 179.094 108.086C179.094 108.086 180.567 105.624 180.884 102.156C180.921 101.839 180.884 101.504 180.828 101.187C180.791 100.982 180.679 100.795 180.492 100.311C180.12 100.441 179.709 100.516 179.337 100.628C179.337 100.628 178.796 100.814 178.274 101.094C172.756 103.965 169.27 109.782 169.27 109.782C167.592 112.579 165.933 115.357 166.753 116.233Z" fill="#EBAA01"/>
<path d="M190.484 12.8835C190.037 4.71697 179.802 -1.80882 170.444 0.447242C176.055 6.56284 181.387 12.4733 190.484 12.8835Z" fill="#EBAA01"/>
<path d="M202.247 85.9908C208.101 78.1971 207.616 69.4898 201.278 64.2878C197.344 71.634 200.532 78.4581 202.247 85.9908Z" fill="#EBAA01"/>
<path d="M207.84 70.8698C211.382 61.8269 208.567 53.4179 201.147 50.155C199.358 58.3216 204.242 64.1202 207.84 70.8698Z" fill="#EBAA01"/>
<path d="M206.144 38.4276C205.268 29.5712 197.643 22.9708 190.373 24.5557C191.473 29.7017 197.084 34.68 206.144 38.4276Z" fill="#EBAA01"/>
<path d="M209.052 54.5554C210.338 45.1955 204.801 36.8611 197.27 36.7493C197.922 44.8599 203.869 49.2229 209.052 54.5554Z" fill="#EBAA01"/>
<path d="M179.802 14.5801C184.538 21.4229 191.957 22.1687 198.929 24.1637C197.662 17.4515 186.942 10.6274 179.802 14.5801Z" fill="#EBAA01"/>
<path d="M197.531 78.0854C192.088 84.1265 193.15 91.4726 192.945 98.7442C200.551 94.3626 202.639 82.6162 197.531 78.0854Z" fill="#EBAA01"/>
<path d="M195.182 99.9188C202.788 99.9561 210.226 93.2438 211.922 84.7976C203.627 86.7181 199.209 93.0388 195.182 99.9188Z" fill="#EBAA01"/>
<path d="M180.437 109.465C189.198 105.829 192.983 98.6511 190.764 90.0557C183.662 94.6237 182.804 102.026 180.437 109.465Z" fill="#EBAA01"/>
<path d="M167.424 117.799C172.961 122.61 185.358 118.806 189.385 113.25C181.219 110.602 174.322 114.275 167.424 117.799Z" fill="#EBAA01"/>
<path d="M212.277 30.8948C207.803 38.3715 209.182 45.8855 211.158 53.4181C216.583 49.2416 217.105 39.602 212.277 30.8948Z" fill="#EBAA01"/>
<path d="M203.012 15.3071C200.495 23.5483 204.298 30.3724 207.859 37.0846C212.165 32.0877 209.704 20.6023 203.012 15.3071Z" fill="#EBAA01"/>
<path d="M209.965 70.3849C216.676 66.7677 219.845 56.9604 216.9 48.8684C210.394 54.723 210.618 62.7031 209.965 70.3849Z" fill="#EBAA01"/>
<path d="M200.532 22.4482C203.217 16.1088 197.307 5.40655 189.552 2.27417C191.193 7.51345 190.932 13.0138 195.629 16.7614C197.494 18.253 198.798 20.4159 200.532 22.4668V22.4482Z" fill="#EBAA01"/>
<path d="M216.881 67.1035C209.238 71.1682 206.889 78.4957 204.689 85.7859C211.233 85.3198 217.422 75.9972 216.881 67.1035Z" fill="#EBAA01"/>
<path d="M182.375 110.77C190.018 112.728 198.146 108.533 203.049 99.8071C198.743 101.019 194.679 101.522 191.304 103.294C188.023 105.028 185.469 108.104 182.356 110.77H182.375Z" fill="#EBAA01"/>
<path d="M57.0073 62.2558H62.3762L64.8928 74.3938L67.0926 65.5746C67.7264 62.983 69.0873 61.8643 71.1752 61.8643C73.2631 61.8643 74.624 62.9643 75.2578 65.5746L77.4576 74.3938L79.9742 62.2558H85.3431L81.8571 77.0973C81.3724 79.2229 79.8065 80.3975 77.6813 80.3975C75.7611 80.3975 74.0461 79.2415 73.5614 77.3024L71.1566 67.7188L68.7517 77.3024C68.267 79.2415 66.552 80.3975 64.6318 80.3975C62.5067 80.3975 60.9407 79.2229 60.456 77.0973L56.97 62.2558H57.0073ZM85.0822 71.1309C85.0822 65.8543 89.5003 61.8829 95.4098 61.8829C101.319 61.8829 105.738 65.8543 105.738 71.1309C105.738 76.4075 101.319 80.3789 95.4098 80.3789C89.5003 80.3789 85.0822 76.4075 85.0822 71.1309ZM100.238 71.1309C100.238 68.5019 98.1502 66.4882 95.4285 66.4882C92.7068 66.4882 90.6188 68.5019 90.6188 71.1309C90.6188 73.7598 92.7068 75.7735 95.4285 75.7735C98.1502 75.7735 100.238 73.7598 100.238 71.1309ZM107.471 79.9873V62.2558H115.674C120.316 62.2558 123.858 64.2322 123.858 68.129C123.858 70.4597 122.404 72.3801 120.111 73.0327C121.099 73.6107 121.732 74.6362 122.609 76.2396L124.603 79.9687H118.768L116.941 76.6312C116.27 75.4193 115.525 74.9718 113.772 74.9718H112.784L112.747 79.9687H107.434L107.471 79.9873ZM112.84 66.7306L112.803 70.702H115.674C117.24 70.702 118.34 69.9189 118.34 68.6511C118.34 67.3086 117.24 66.7306 115.73 66.7306H112.822H112.84ZM132.023 75.5311H140.673V79.9873H131.296C127.996 79.9873 126.654 78.4025 126.654 75.9227V62.2745H132.023V75.5311ZM149.565 79.9873H141.81V62.2558H149.565C155.978 62.2558 160.247 65.7984 160.247 71.1868C160.247 76.5753 155.829 79.9873 149.565 79.9873ZM149.565 66.7306H147.179V75.6617H149.565C152.697 75.6617 154.729 73.8717 154.729 71.2055C154.729 68.5392 152.697 66.7493 149.565 66.7493V66.7306Z" fill="#EBAA01"/>
<path d="M43.5293 91.2862C43.5293 86.886 47.3509 83.3807 52.2351 83.3807C55.1619 83.3807 57.9396 84.7791 59.1886 87.147L56.2245 88.6573C55.4043 87.3521 54.0993 86.5131 52.086 86.5131C49.2897 86.5131 47.2763 88.5268 47.2763 91.2862C47.2763 94.0457 49.271 96.0594 52.086 96.0594C54.0993 96.0594 55.4602 95.2204 56.2245 93.9152L59.1886 95.4255C57.9396 97.7934 55.1433 99.1918 52.2351 99.1918C47.3509 99.1918 43.5293 95.6865 43.5293 91.2862ZM60.5308 98.8748V83.679H64.166V89.7946H71.8279V83.679H75.4631V98.8748H71.8279V92.8151H64.166V98.8748H60.5308ZM81.1676 85.8232C81.7455 84.1824 83.2368 83.3807 84.8028 83.3807C86.3687 83.3807 87.8973 84.1638 88.4752 85.8232L92.9121 98.8748H89.2023L88.2329 95.7611H81.4286L80.4592 98.8748H76.7494L81.1862 85.8232H81.1676ZM82.3607 92.8338H87.2822L85.3807 86.8114C85.2875 86.4944 85.1383 86.3639 84.84 86.3639C84.5604 86.3639 84.3926 86.4944 84.2994 86.8114L82.3793 92.8338H82.3607ZM93.4713 98.8748L95.7456 85.8046C96.0439 84.2197 97.2743 83.3807 98.9707 83.3807C100.462 83.3807 101.748 83.9587 102.14 85.4317L104.955 94.922L104.973 94.9966C104.992 94.9966 105.029 94.9966 105.029 94.922L107.807 85.5063C108.236 84.0333 109.522 83.3807 111.051 83.3807C112.729 83.3807 113.922 84.2384 114.164 85.8605L116.233 98.8748H112.542L110.92 86.9419C110.92 86.8301 110.902 86.7555 110.79 86.7555C110.715 86.7555 110.659 86.7928 110.641 86.886L107.527 96.9544C107.173 98.1104 106.185 98.6697 104.992 98.6697C103.799 98.6697 102.774 98.129 102.475 97.0289L99.3622 86.886C99.3436 86.7741 99.2876 86.7555 99.2317 86.7555C99.1571 86.7555 99.0826 86.7928 99.0826 86.9046L97.1811 98.8562H93.49L93.4713 98.8748ZM118.396 98.8748V83.679H124.305C129.078 83.679 131.986 85.6927 131.986 89.2166C131.986 92.7406 129.115 94.8661 124.51 94.8661H122.05V98.8562H118.414L118.396 98.8748ZM122.031 86.7182V91.8083H124.398C126.785 91.8083 128.239 90.9693 128.239 89.2166C128.239 87.5386 126.785 86.7368 124.398 86.7368H122.031V86.7182ZM137.317 83.679V98.8748H133.682V83.679H137.317ZM139.163 91.2862C139.163 86.8114 142.929 83.3994 147.887 83.3994C152.846 83.3994 156.649 86.8114 156.649 91.2862C156.649 95.7611 152.865 99.1731 147.887 99.1731C142.91 99.1731 139.163 95.7797 139.163 91.2862ZM152.883 91.2862C152.883 88.6013 150.721 86.5131 147.887 86.5131C145.054 86.5131 142.891 88.5827 142.891 91.2862C142.891 93.9898 145.091 96.0594 147.887 96.0594C150.684 96.0594 152.883 93.9898 152.883 91.2862ZM158.327 98.8748V85.7486C158.327 84.2384 159.557 83.3621 160.918 83.3621C162.018 83.3621 162.894 83.7163 163.435 84.5553L170.071 94.8475V83.6604H173.52V96.7865C173.52 98.2968 172.29 99.1545 170.985 99.1545C169.904 99.1545 168.99 98.8189 168.45 97.9798L161.813 87.6132V98.8562H158.346L158.327 98.8748Z" fill="#EBAA01"/>
<path d="M63.6067 107.135L64.2964 106.836C64.5015 107.265 64.9675 107.489 65.6014 107.489C66.2352 107.489 66.7199 107.209 66.7199 106.743C66.7199 106.202 66.1793 106.109 65.5268 105.997C64.7066 105.848 63.6999 105.606 63.6999 104.58C63.6999 103.76 64.5201 103.163 65.5455 103.163C66.3657 103.163 67.1114 103.518 67.4283 104.189L66.7385 104.506C66.5148 104.096 66.1047 103.853 65.5082 103.853C64.9675 103.853 64.5201 104.152 64.5201 104.562C64.5201 105.084 65.098 105.196 65.7505 105.326C66.5521 105.475 67.5402 105.718 67.5402 106.743C67.5402 107.601 66.6826 108.197 65.6014 108.197C64.6879 108.197 63.9236 107.825 63.6067 107.153V107.135ZM68.3231 108.086V102.865H69.1247V104.916C69.423 104.618 69.9077 104.431 70.4483 104.431C71.6041 104.431 72.2752 105.14 72.2752 106.221V108.086H71.4736V106.296C71.4736 105.662 71.0821 105.102 70.3365 105.102C69.6281 105.102 69.1434 105.606 69.1434 106.314V108.086H68.3418H68.3231ZM72.7226 106.277C72.7226 105.252 73.5429 104.413 74.7173 104.413C75.8918 104.413 76.6561 105.196 76.6561 106.202V106.501H73.487C73.5802 107.116 74.0835 107.545 74.8105 107.545C75.2952 107.545 75.724 107.358 75.9664 106.967L76.5815 107.247C76.2273 107.862 75.5935 108.197 74.8292 108.197C73.6175 108.197 72.7226 107.414 72.7226 106.296V106.277ZM75.8731 106.016C75.8359 105.438 75.3885 105.065 74.7173 105.065C74.0462 105.065 73.6175 105.494 73.5242 106.016H75.8545H75.8731ZM78.1661 102.865V108.086H77.3645V102.865H78.1661ZM80.0303 102.865V108.086H79.2287V102.865H80.0303ZM83.7401 108.086C83.1808 108.086 82.9758 107.825 82.9758 107.414V103.853C82.9758 103.443 83.1808 103.182 83.7401 103.182H86.7042V103.853H83.796V105.27H86.5364V105.941H83.796V107.377H86.7601V108.048H83.7401V108.086ZM87.1329 106.296C87.1329 105.27 88.065 104.413 89.2022 104.431C89.9292 104.431 90.6004 104.73 90.9546 105.382L90.2834 105.718C90.0411 105.326 89.6496 105.121 89.1836 105.121C88.4938 105.121 87.9159 105.662 87.9159 106.314C87.9159 106.967 88.4938 107.508 89.1836 107.508C89.6496 107.508 90.0411 107.303 90.2834 106.911L90.9546 107.247C90.6004 107.899 89.9292 108.197 89.2022 108.197C88.065 108.197 87.1329 107.358 87.1329 106.314V106.296ZM91.1037 106.296C91.1037 105.27 92.0358 104.431 93.2289 104.431C94.422 104.431 95.3354 105.289 95.3354 106.296C95.3354 107.303 94.422 108.179 93.2289 108.179C92.0358 108.179 91.1037 107.34 91.1037 106.296ZM94.5338 106.296C94.5338 105.643 93.9746 105.102 93.2289 105.102C92.4832 105.102 91.9053 105.643 91.9053 106.296C91.9053 106.948 92.4832 107.489 93.2289 107.489C93.9746 107.489 94.5338 106.948 94.5338 106.296ZM98.9147 106.165H96.1184V105.513H98.9147V106.165ZM106.726 106.202V108.086H105.924V106.314C105.924 105.662 105.57 105.102 104.824 105.102C104.079 105.102 103.743 105.643 103.743 106.314V108.104H102.941V106.314C102.941 105.662 102.587 105.102 101.842 105.102C101.096 105.102 100.76 105.68 100.76 106.314V108.086H99.9587V106.202C99.9587 105.196 100.592 104.394 101.786 104.394C102.569 104.394 103.146 104.767 103.352 105.308C103.575 104.748 104.134 104.394 104.88 104.394C106.073 104.394 106.726 105.196 106.726 106.184V106.202ZM107.21 106.296C107.21 105.27 108.124 104.431 109.317 104.431C110.51 104.431 111.424 105.233 111.424 106.296V108.086H110.659V107.452C110.361 107.899 109.839 108.16 109.186 108.16C108.031 108.16 107.192 107.321 107.192 106.277L107.21 106.296ZM110.622 106.296C110.622 105.643 110.063 105.102 109.317 105.102C108.571 105.102 108.012 105.643 108.012 106.296C108.012 106.948 108.59 107.489 109.317 107.489C110.044 107.489 110.622 106.948 110.622 106.296ZM112.169 108.086V105.941C112.169 105.065 112.71 104.413 113.754 104.413C113.996 104.413 114.257 104.45 114.462 104.543V105.252C114.276 105.158 114.033 105.102 113.828 105.102C113.288 105.102 112.971 105.438 112.971 105.96V108.067H112.169V108.086ZM114.388 106.296C114.388 105.27 115.301 104.431 116.494 104.431C117.687 104.431 118.601 105.233 118.601 106.296V108.086H117.836V107.452C117.538 107.899 117.016 108.16 116.364 108.16C115.208 108.16 114.369 107.321 114.369 106.277L114.388 106.296ZM117.799 106.296C117.799 105.643 117.24 105.102 116.494 105.102C115.748 105.102 115.189 105.643 115.189 106.296C115.189 106.948 115.767 107.489 116.494 107.489C117.221 107.489 117.799 106.948 117.799 106.296ZM119.626 106.799V105.14H118.843V104.506H119.626V103.574H120.428V104.506H121.938V105.14H120.428V106.78C120.428 107.247 120.726 107.526 121.211 107.526C121.472 107.526 121.751 107.433 121.938 107.321V107.992C121.733 108.123 121.416 108.197 121.136 108.197C120.148 108.197 119.626 107.638 119.626 106.818V106.799ZM122.739 108.086V102.865H123.541V104.916C123.839 104.618 124.324 104.431 124.864 104.431C126.02 104.431 126.691 105.14 126.691 106.221V108.086H125.89V106.296C125.89 105.662 125.498 105.102 124.753 105.102C124.044 105.102 123.559 105.606 123.559 106.314V108.086H122.758H122.739ZM127.139 106.296C127.139 105.27 128.071 104.431 129.264 104.431C130.457 104.431 131.37 105.289 131.37 106.296C131.37 107.303 130.457 108.179 129.264 108.179C128.071 108.179 127.139 107.34 127.139 106.296ZM130.569 106.296C130.569 105.643 130.01 105.102 129.264 105.102C128.518 105.102 127.94 105.643 127.94 106.296C127.94 106.948 128.518 107.489 129.264 107.489C130.01 107.489 130.569 106.948 130.569 106.296ZM132.657 106.352V108.086H131.855V106.277C131.855 105.233 132.545 104.413 133.813 104.413C135.08 104.413 135.807 105.233 135.807 106.277V108.086H135.006V106.352C135.006 105.68 134.596 105.102 133.813 105.102C133.03 105.102 132.657 105.68 132.657 106.352ZM139.107 108.086C138.622 108.086 138.361 107.825 138.361 107.508C138.361 107.284 138.473 107.079 138.715 106.892L140.319 105.606C140.766 105.233 140.99 104.972 140.99 104.562C140.99 104.114 140.58 103.816 140.039 103.816C139.498 103.816 139.07 104.114 138.827 104.562L138.193 104.245C138.548 103.574 139.219 103.126 140.095 103.126C141.102 103.126 141.81 103.741 141.81 104.524C141.81 105.121 141.512 105.569 141.008 105.979L139.405 107.265C139.405 107.265 139.312 107.34 139.312 107.396C139.312 107.414 139.312 107.433 139.349 107.433H141.959V108.123H139.107V108.086ZM142.369 105.643C142.369 104.207 143.245 103.107 144.55 103.107C145.855 103.107 146.732 104.207 146.732 105.643C146.732 107.079 145.855 108.197 144.55 108.197C143.245 108.197 142.369 107.06 142.369 105.643ZM145.874 105.643C145.874 104.636 145.315 103.872 144.55 103.872C143.786 103.872 143.227 104.636 143.227 105.643C143.227 106.65 143.786 107.433 144.55 107.433C145.315 107.433 145.874 106.631 145.874 105.643ZM148.596 108.086V104.058C148.596 104.058 148.596 104.002 148.558 104.002C148.521 104.002 148.484 104.021 148.447 104.04L147.198 104.674L146.825 103.965L148.223 103.275C148.428 103.163 148.652 103.089 148.857 103.089C149.192 103.089 149.416 103.294 149.416 103.667V108.086H148.596ZM150.46 106.818C150.46 106.258 150.833 105.811 151.448 105.662C150.889 105.513 150.572 105.084 150.572 104.543C150.572 103.723 151.336 103.126 152.511 103.126C153.685 103.126 154.431 103.704 154.431 104.543C154.431 105.065 154.132 105.531 153.555 105.662C154.17 105.811 154.524 106.277 154.524 106.818C154.524 107.657 153.76 108.197 152.492 108.197C151.224 108.197 150.46 107.657 150.46 106.836V106.818ZM153.722 106.743C153.722 106.221 153.2 105.96 152.492 105.96C151.784 105.96 151.262 106.24 151.262 106.743C151.262 107.228 151.746 107.526 152.492 107.526C153.238 107.526 153.722 107.228 153.722 106.743ZM153.61 104.562C153.61 104.096 153.163 103.76 152.492 103.76C151.821 103.76 151.392 104.096 151.392 104.562C151.392 105.065 151.784 105.363 152.492 105.363C153.2 105.363 153.61 105.065 153.61 104.562ZM60.1206 116.308H58.2937V111.404H60.1765C61.9103 111.404 63.0847 112.374 63.0847 113.828C63.0847 115.357 61.817 116.308 60.1393 116.308H60.1206ZM60.1579 112.094H59.1139V115.618H60.1206C61.2951 115.618 62.2085 114.947 62.2085 113.828C62.2085 112.784 61.3696 112.094 60.1579 112.094ZM63.6253 116.308V114.164C63.6253 113.288 64.1659 112.635 65.2099 112.635C65.4522 112.635 65.7132 112.672 65.9183 112.766V113.474C65.7319 113.381 65.4895 113.325 65.2845 113.325C64.7438 113.325 64.4269 113.661 64.4269 114.183V116.289H63.6253V116.308ZM66.0115 111.535C66.0115 111.274 66.2538 111.05 66.5335 111.05C66.8131 111.05 67.0555 111.274 67.0555 111.535C67.0555 111.796 66.8318 112.001 66.5335 112.001C66.2352 112.001 66.0115 111.796 66.0115 111.535ZM66.9436 112.728V116.308H66.142V112.728H66.9436ZM67.3537 112.728H68.2113L69.3671 115.637C69.3671 115.637 69.4044 115.711 69.4603 115.711C69.5162 115.711 69.5535 115.674 69.5535 115.637L70.7093 112.728H71.5668L70.2805 115.842C70.1314 116.215 69.8518 116.401 69.4603 116.401C69.0688 116.401 68.7892 116.215 68.6214 115.842L67.3537 112.728ZM71.4923 114.5C71.4923 113.474 72.3125 112.635 73.487 112.635C74.6614 112.635 75.4257 113.418 75.4257 114.425V114.723H72.2566C72.3498 115.339 72.8531 115.767 73.5802 115.767C74.0649 115.767 74.4936 115.581 74.736 115.189L75.3512 115.469C74.997 116.084 74.3631 116.42 73.5988 116.42C72.3871 116.42 71.4923 115.637 71.4923 114.518V114.5ZM74.6428 114.239C74.6055 113.661 74.1581 113.288 73.487 113.288C72.8158 113.288 72.3871 113.716 72.2939 114.239H74.6241H74.6428ZM75.985 116.308V114.164C75.985 113.288 76.5256 112.635 77.5696 112.635C77.8119 112.635 78.0729 112.672 78.278 112.766V113.474C78.0915 113.381 77.8492 113.325 77.6441 113.325C77.1035 113.325 76.7866 113.661 76.7866 114.183V116.289H75.985V116.308ZM78.3152 115.6L78.9304 115.301C79.1355 115.656 79.4524 115.786 79.8998 115.786C80.3472 115.786 80.7014 115.618 80.7014 115.301C80.7014 114.555 78.4271 115.115 78.4271 113.754C78.4271 113.12 79.0423 112.672 79.8998 112.672C80.6269 112.672 81.1302 112.989 81.3912 113.399L80.776 113.716C80.6082 113.399 80.2913 113.288 79.9185 113.288C79.5456 113.288 79.2287 113.455 79.2287 113.754C79.2287 114.481 81.503 113.959 81.503 115.301C81.503 115.973 80.776 116.42 79.9371 116.42C79.2101 116.42 78.6322 116.159 78.3339 115.618L78.3152 115.6ZM82.0623 113.288L82.3606 112.057C82.2487 111.964 82.1555 111.833 82.1555 111.684C82.1555 111.423 82.3979 111.218 82.6961 111.218C82.9944 111.218 83.2181 111.423 83.2181 111.684C83.2181 111.759 83.1995 111.833 83.1622 111.908L82.6029 113.288H82.0809H82.0623ZM85.5297 111.404H86.35L87.3007 115.506C87.3194 115.618 87.3566 115.674 87.4312 115.674C87.5058 115.674 87.5431 115.637 87.5617 115.506L88.4565 112.02C88.5684 111.572 88.8294 111.367 89.2022 111.367C89.575 111.367 89.8547 111.572 89.9665 112.02L90.8986 115.506C90.9359 115.6 90.9546 115.656 91.0291 115.656C91.1037 115.656 91.141 115.6 91.1596 115.506L92.0358 111.404H92.856L91.8867 115.693C91.7934 116.122 91.5138 116.401 91.0664 116.401C90.619 116.401 90.3394 116.159 90.2089 115.73L89.2768 112.188C89.2768 112.188 89.2395 112.094 89.2022 112.094C89.1649 112.094 89.1463 112.132 89.1276 112.188L88.2142 115.767C88.1023 116.178 87.7854 116.401 87.4126 116.401C86.9838 116.401 86.6855 116.159 86.5737 115.73L85.5297 111.404ZM92.7815 114.5C92.7815 113.474 93.7136 112.635 94.9067 112.635C96.0998 112.635 97.0132 113.493 97.0132 114.5C97.0132 115.506 96.0998 116.383 94.9067 116.383C93.7136 116.383 92.7815 115.544 92.7815 114.5ZM96.193 114.518C96.193 113.866 95.6337 113.325 94.888 113.325C94.1423 113.325 93.5644 113.866 93.5644 114.518C93.5644 115.171 94.1423 115.711 94.888 115.711C95.6337 115.711 96.193 115.171 96.193 114.518ZM97.4793 116.308V114.164C97.4793 113.288 98.0199 112.635 99.0638 112.635C99.3062 112.635 99.5672 112.672 99.7722 112.766V113.474C99.5858 113.381 99.3435 113.325 99.1384 113.325C98.5978 113.325 98.2809 113.661 98.2809 114.183V116.289H97.4793V116.308ZM100.798 111.087V116.308H99.9959V111.087H100.798ZM101.45 114.518C101.45 113.437 102.326 112.635 103.519 112.635C104.06 112.635 104.545 112.84 104.862 113.176V111.087H105.663V114.537C105.663 115.6 104.75 116.401 103.557 116.401C102.363 116.401 101.45 115.562 101.45 114.537V114.518ZM104.862 114.518C104.862 113.866 104.302 113.325 103.557 113.325C102.811 113.325 102.252 113.866 102.252 114.518C102.252 115.171 102.83 115.711 103.557 115.711C104.284 115.711 104.862 115.171 104.862 114.518ZM108.049 113.847C108.049 112.43 109.28 111.311 110.808 111.311C111.74 111.311 112.579 111.74 112.989 112.467L112.318 112.821C112.001 112.337 111.461 112.038 110.771 112.038C109.727 112.038 108.888 112.821 108.888 113.866C108.888 114.91 109.708 115.711 110.771 115.711C111.461 115.711 112.02 115.413 112.318 114.928L112.989 115.283C112.579 115.991 111.722 116.42 110.808 116.42C109.28 116.42 108.049 115.301 108.049 113.884V113.847ZM113.493 116.308V111.087H114.294V113.138C114.593 112.84 115.077 112.654 115.618 112.654C116.774 112.654 117.426 113.362 117.426 114.444V116.308H116.625V114.518C116.625 113.884 116.233 113.325 115.487 113.325C114.779 113.325 114.294 113.828 114.294 114.537V116.308H113.493ZM117.911 114.5C117.911 113.474 118.824 112.635 120.017 112.635C121.211 112.635 122.124 113.437 122.124 114.5V116.289H121.36V115.656C121.061 116.103 120.539 116.364 119.887 116.364C118.731 116.364 117.892 115.525 117.892 114.481L117.911 114.5ZM121.322 114.518C121.322 113.866 120.763 113.325 120.017 113.325C119.272 113.325 118.713 113.866 118.713 114.518C118.713 115.171 119.29 115.711 120.017 115.711C120.745 115.711 121.322 115.171 121.322 114.518ZM129.618 114.425V116.308H128.817V114.537C128.817 113.884 128.462 113.325 127.717 113.325C126.971 113.325 126.635 113.866 126.635 114.537V116.327H125.834V114.537C125.834 113.884 125.48 113.325 124.734 113.325C123.988 113.325 123.653 113.903 123.653 114.537V116.308H122.851V114.425C122.851 113.418 123.485 112.616 124.678 112.616C125.461 112.616 126.039 112.989 126.244 113.53C126.468 112.971 127.027 112.616 127.773 112.616C128.966 112.616 129.618 113.418 129.618 114.406V114.425ZM130.345 117.949V114.5C130.345 113.437 131.259 112.635 132.452 112.635C133.645 112.635 134.558 113.493 134.558 114.5C134.558 115.581 133.701 116.383 132.489 116.383C131.948 116.383 131.464 116.178 131.147 115.842V117.93H130.345V117.949ZM133.757 114.518C133.757 113.866 133.197 113.325 132.452 113.325C131.706 113.325 131.147 113.866 131.147 114.518C131.147 115.171 131.706 115.711 132.452 115.711C133.197 115.711 133.757 115.171 133.757 114.518ZM135.08 111.535C135.08 111.274 135.323 111.05 135.602 111.05C135.882 111.05 136.124 111.274 136.124 111.535C136.124 111.796 135.901 112.001 135.602 112.001C135.304 112.001 135.08 111.796 135.08 111.535ZM136.012 112.728V116.308H135.211V112.728H136.012ZM136.665 114.5C136.665 113.474 137.597 112.635 138.79 112.635C139.983 112.635 140.897 113.493 140.897 114.5C140.897 115.506 139.983 116.383 138.79 116.383C137.597 116.383 136.665 115.544 136.665 114.5ZM140.076 114.518C140.076 113.866 139.517 113.325 138.771 113.325C138.026 113.325 137.448 113.866 137.448 114.518C137.448 115.171 138.026 115.711 138.771 115.711C139.517 115.711 140.076 115.171 140.076 114.518ZM142.164 114.574V116.308H141.363V114.5C141.363 113.455 142.052 112.635 143.32 112.635C144.588 112.635 145.315 113.455 145.315 114.5V116.308H144.513V114.574C144.513 113.903 144.103 113.325 143.32 113.325C142.537 113.325 142.164 113.903 142.164 114.574ZM145.874 115.6L146.489 115.301C146.694 115.656 147.011 115.786 147.459 115.786C147.906 115.786 148.26 115.618 148.26 115.301C148.26 114.555 145.986 115.115 145.986 113.754C145.986 113.12 146.601 112.672 147.459 112.672C148.186 112.672 148.689 112.989 148.95 113.399L148.335 113.716C148.167 113.399 147.85 113.288 147.477 113.288C147.104 113.288 146.787 113.455 146.787 113.754C146.787 114.481 149.062 113.959 149.062 115.301C149.062 115.973 148.335 116.42 147.496 116.42C146.769 116.42 146.191 116.159 145.893 115.618L145.874 115.6ZM149.752 116.308V111.087H150.553V113.138C150.851 112.84 151.336 112.654 151.877 112.654C153.033 112.654 153.704 113.362 153.704 114.444V116.308H152.902V114.518C152.902 113.884 152.511 113.325 151.765 113.325C151.056 113.325 150.572 113.828 150.572 114.537V116.308H149.77H149.752ZM154.449 111.535C154.449 111.274 154.692 111.05 154.971 111.05C155.251 111.05 155.493 111.274 155.493 111.535C155.493 111.796 155.27 112.001 154.971 112.001C154.673 112.001 154.449 111.796 154.449 111.535ZM155.381 112.728V116.308H154.58V112.728H155.381ZM156.276 117.949V114.5C156.276 113.437 157.19 112.635 158.383 112.635C159.576 112.635 160.489 113.493 160.489 114.5C160.489 115.581 159.632 116.383 158.42 116.383C157.879 116.383 157.395 116.178 157.078 115.842V117.93H156.276V117.949ZM159.688 114.518C159.688 113.866 159.128 113.325 158.383 113.325C157.637 113.325 157.078 113.866 157.078 114.518C157.078 115.171 157.637 115.711 158.383 115.711C159.128 115.711 159.688 115.171 159.688 114.518Z" fill="#EBAA01"/>
</g>
<defs>
<clipPath id="clip0_351_7159">
<rect width="218" height="120" fill="white"/>
</clipPath>
</defs>
</svg>
