<svg width="218" height="120" viewBox="0 0 218 120" fill="none" xmlns="http://www.w3.org/2000/svg">
<g clip-path="url(#clip0_351_8081)">
<path d="M51.2472 116.234C49.7932 117.763 41.5534 112.561 38.9062 108.086C38.9062 108.086 37.4335 105.625 37.1166 102.157C37.0793 101.84 37.1166 101.504 37.1725 101.187C37.2098 100.982 37.3216 100.796 37.5081 100.311C37.8809 100.442 38.291 100.516 38.6639 100.628C38.6639 100.628 39.2045 100.814 39.7265 101.094C45.2445 103.965 48.7306 109.783 48.7306 109.783C50.4083 112.58 52.0675 115.358 51.2472 116.234Z" fill="#CECECE"/>
<path d="M27.5164 12.884C27.9638 4.71746 38.1982 -1.80833 47.5565 0.44773C41.9453 6.56333 36.6137 12.4738 27.5164 12.884Z" fill="#CECECE"/>
<path d="M15.7524 85.9913C9.89884 78.1976 10.3835 69.4903 16.7218 64.2883C20.6553 71.6345 17.4675 78.4586 15.7524 85.9913Z" fill="#CECECE"/>
<path d="M10.1598 70.8702C6.61783 61.8274 9.43278 53.4184 16.8523 50.1555C18.6419 58.3221 13.7577 64.1207 10.1598 70.8702Z" fill="#CECECE"/>
<path d="M11.8567 38.4281C12.7329 29.5717 20.3575 22.9713 27.6279 24.5561C26.528 29.7022 20.9167 34.6804 11.8567 38.4281Z" fill="#CECECE"/>
<path d="M8.94785 54.5559C7.66155 45.196 13.1982 36.8616 20.7296 36.7498C20.0772 44.8604 14.1303 49.2233 8.94785 54.5559Z" fill="#CECECE"/>
<path d="M38.1983 14.5806C33.4632 21.4234 26.0437 22.1692 19.0715 24.1642C20.3392 17.452 31.0584 10.6279 38.1983 14.5806Z" fill="#CECECE"/>
<path d="M20.4689 78.0857C25.9124 84.1267 24.8498 91.4729 25.0548 98.7445C17.4489 94.3629 15.361 82.6165 20.4689 78.0857Z" fill="#CECECE"/>
<path d="M22.8182 99.9193C15.2122 99.9566 7.77406 93.2443 6.07764 84.7981C14.3733 86.7185 18.7915 93.0392 22.8182 99.9193Z" fill="#CECECE"/>
<path d="M37.5637 109.466C28.8019 105.83 25.0176 98.6516 27.236 90.0562C34.3386 94.6242 35.1962 102.026 37.5637 109.466Z" fill="#CECECE"/>
<path d="M50.5758 117.8C45.0391 122.61 32.6422 118.807 28.6155 113.25C36.7807 110.603 43.6782 114.276 50.5758 117.8Z" fill="#CECECE"/>
<path d="M5.72308 30.8953C10.1972 38.372 8.81766 45.8859 6.8416 53.4186C1.41677 49.2421 0.894792 39.6025 5.72308 30.8953Z" fill="#CECECE"/>
<path d="M14.988 15.3076C17.5047 23.5488 13.7017 30.3729 10.1411 37.0851C5.83481 32.0882 8.29556 20.6028 14.988 15.3076Z" fill="#CECECE"/>
<path d="M8.03454 70.3854C1.32341 66.7682 -1.84574 56.9609 1.0997 48.8689C7.60577 54.7235 7.38207 62.7036 8.03454 70.3854Z" fill="#CECECE"/>
<path d="M17.4674 22.4487C14.7829 16.1093 20.6924 5.40704 28.4475 2.27466C26.807 7.51394 27.068 13.0142 22.3702 16.7619C20.506 18.2535 19.2011 20.4164 17.4674 22.4673V22.4487Z" fill="#CECECE"/>
<path d="M1.11845 67.104C8.76168 71.1686 11.1106 78.4962 13.3103 85.7864C6.76698 85.3203 0.577827 75.9977 1.11845 67.104Z" fill="#CECECE"/>
<path d="M35.6442 110.771C28.001 112.729 19.8731 108.534 14.9702 99.8076C19.2765 101.02 23.3405 101.523 26.7147 103.294C29.9957 105.028 32.5497 108.105 35.6629 110.771H35.6442Z" fill="#CECECE"/>
<path d="M166.754 116.234C168.208 117.763 176.448 112.561 179.095 108.086C179.095 108.086 180.568 105.625 180.885 102.157C180.922 101.84 180.885 101.504 180.829 101.187C180.791 100.982 180.68 100.796 180.493 100.311C180.12 100.442 179.71 100.516 179.337 100.628C179.337 100.628 178.797 100.814 178.275 101.094C172.757 103.965 169.271 109.783 169.271 109.783C167.593 112.58 165.934 115.358 166.754 116.234Z" fill="#CECECE"/>
<path d="M190.486 12.884C190.038 4.71746 179.804 -1.80833 170.446 0.44773C176.057 6.56333 181.388 12.4738 190.486 12.884Z" fill="#CECECE"/>
<path d="M202.249 85.9913C208.102 78.1976 207.618 69.4903 201.279 64.2883C197.346 71.6345 200.534 78.4586 202.249 85.9913Z" fill="#CECECE"/>
<path d="M207.841 70.8702C211.383 61.8274 208.568 53.4184 201.149 50.1555C199.359 58.3221 204.244 64.1207 207.841 70.8702Z" fill="#CECECE"/>
<path d="M206.145 38.4281C205.269 29.5717 197.644 22.9713 190.374 24.5561C191.473 29.7022 197.085 34.6804 206.145 38.4281Z" fill="#CECECE"/>
<path d="M209.053 54.5559C210.339 45.196 204.802 36.8616 197.271 36.7498C197.923 44.8604 203.87 49.2233 209.053 54.5559Z" fill="#CECECE"/>
<path d="M179.804 14.5806C184.539 21.4234 191.958 22.1692 198.93 24.1642C197.663 17.452 186.944 10.6279 179.804 14.5806Z" fill="#CECECE"/>
<path d="M197.532 78.0859C192.088 84.127 193.151 91.4731 192.946 98.7447C200.552 94.3631 202.64 82.6167 197.532 78.0859Z" fill="#CECECE"/>
<path d="M195.184 99.9193C202.79 99.9566 210.228 93.2443 211.924 84.7981C203.629 86.7185 199.211 93.0392 195.184 99.9193Z" fill="#CECECE"/>
<path d="M180.437 109.466C189.199 105.83 192.983 98.6516 190.765 90.0562C183.662 94.6242 182.805 102.026 180.437 109.466Z" fill="#CECECE"/>
<path d="M167.425 117.8C172.962 122.61 185.359 118.807 189.386 113.25C181.22 110.603 174.323 114.276 167.425 117.8Z" fill="#CECECE"/>
<path d="M212.278 30.8953C207.804 38.372 209.183 45.8859 211.159 53.4186C216.584 49.2421 217.106 39.6025 212.278 30.8953Z" fill="#CECECE"/>
<path d="M203.013 15.3076C200.496 23.5488 204.299 30.3729 207.86 37.0851C212.166 32.0882 209.705 20.6028 203.013 15.3076Z" fill="#CECECE"/>
<path d="M209.966 70.3854C216.677 66.7682 219.846 56.9609 216.901 48.8689C210.395 54.7235 210.619 62.7036 209.966 70.3854Z" fill="#CECECE"/>
<path d="M200.533 22.4487C203.218 16.1093 197.308 5.40704 189.553 2.27466C191.194 7.51394 190.933 13.0142 195.631 16.7619C197.495 18.2535 198.8 20.4164 200.533 22.4673V22.4487Z" fill="#CECECE"/>
<path d="M216.882 67.104C209.239 71.1686 206.89 78.4962 204.69 85.7864C211.234 85.3203 217.423 75.9977 216.882 67.104Z" fill="#CECECE"/>
<path d="M182.376 110.771C190.019 112.729 198.147 108.534 203.05 99.8076C198.743 101.02 194.679 101.523 191.305 103.294C188.024 105.028 185.47 108.105 182.357 110.771H182.376Z" fill="#CECECE"/>
<path d="M33.7796 87.4642V67.98H42.8024C47.9103 67.98 51.7878 70.1429 51.7878 74.4499C51.7878 77.0229 50.1846 79.1298 47.6679 79.857C48.7492 80.4909 49.4576 81.6096 50.4083 83.3809L52.6081 87.4828H46.1952L44.1819 83.8098C43.4548 82.486 42.616 81.9825 40.7145 81.9825H39.6332L39.5959 87.4642H33.761H33.7796ZM39.6892 72.8837L39.6519 77.2467H42.8024C44.5174 77.2467 45.7292 76.389 45.7292 74.9906C45.7292 73.5176 44.5174 72.8837 42.8583 72.8837H39.6705H39.6892ZM59.6361 87.4642C56.0009 87.4642 54.5282 85.7302 54.5282 82.9894V72.4549C54.5282 69.714 56.0009 67.98 59.6361 67.98H70.6722V72.7532H60.4377V75.3449H69.9452V80.118H60.4377V82.7097H70.84V87.4828H59.6548L59.6361 87.4642ZM71.7907 77.7314C71.7907 72.0447 76.6377 67.5699 83.1437 67.5699C86.9654 67.5699 90.731 69.3598 92.297 72.6227L87.4873 75.0465C86.5925 73.5736 85.3808 72.5854 82.9014 72.5854C79.8814 72.5854 77.868 74.7482 77.868 77.806C77.868 80.8638 79.9 83.0639 83.1624 83.0639C84.8775 83.0639 85.9773 82.9148 86.8908 82.169L86.8535 78.1603H92.5953V83.9403C90.9361 86.2523 87.4873 87.893 83.1624 87.893C76.7122 87.893 71.8094 83.4182 71.8094 77.7314H71.7907ZM100.705 67.9614V87.4456H94.8137V67.9614H100.705ZM102.625 77.7314C102.625 71.9328 107.472 67.5699 113.978 67.5699C120.484 67.5699 125.331 71.9328 125.331 77.7314C125.331 83.5301 120.484 87.893 113.978 87.893C107.472 87.893 102.625 83.5301 102.625 77.7314ZM119.272 77.7314C119.272 74.8414 116.979 72.6227 113.978 72.6227C110.976 72.6227 108.683 74.8414 108.683 77.7314C108.683 80.6214 110.976 82.8402 113.978 82.8402C116.979 82.8402 119.272 80.6214 119.272 77.7314ZM127.064 87.4642V70.8328C127.064 68.7445 128.854 67.5139 130.737 67.5139C132.228 67.5139 133.552 67.98 134.316 69.0801L141.903 79.9689V67.98H147.477V84.6115C147.477 86.6998 145.688 87.9117 143.805 87.9117C142.332 87.9117 140.99 87.4456 140.226 86.3455L132.638 75.4567V87.4642H127.064ZM153.667 71.0565C154.468 68.6513 156.687 67.5326 158.924 67.5326C161.161 67.5326 163.379 68.6513 164.181 71.0565L169.736 87.4642H163.715L162.727 84.164H155.177L154.151 87.4642H148.13L153.685 71.0565H153.667ZM156.631 79.4095H161.254L159.222 72.6227C159.166 72.4176 159.091 72.3244 158.961 72.3244C158.83 72.3244 158.774 72.4176 158.7 72.6227L156.631 79.4095ZM177.062 82.5419H186.57V87.4456H176.279C172.644 87.4456 171.171 85.7116 171.171 82.9707V67.9614H177.062V82.5419Z" fill="#CECECE"/>
<path d="M52.7427 99.7272C52.7427 95.9703 56.0162 92.9755 60.2148 92.9755C62.7233 92.9755 65.1073 94.1805 66.1748 96.2007L63.6307 97.4943C62.919 96.3779 61.816 95.6514 60.0725 95.6514C57.6707 95.6514 55.945 97.3703 55.945 99.7272C55.945 102.084 57.653 103.803 60.0725 103.803C61.7982 103.803 62.9546 103.094 63.6307 101.96L66.1748 103.254C65.1073 105.274 62.7056 106.479 60.2148 106.479C56.0162 106.479 52.7427 103.484 52.7427 99.7272ZM67.349 106.213V93.2236H70.4802V98.4513H77.045V93.2236H80.1762V106.213H77.045V101.039H70.4802V106.213H67.349ZM85.0331 95.0666C85.5312 93.6666 86.8122 92.9755 88.1643 92.9755C89.5164 92.9755 90.8151 93.6489 91.3132 95.0666L95.1205 106.231H91.9359L91.0998 103.573H85.2644L84.4282 106.231H81.2436L85.0509 95.0666H85.0331ZM86.0649 101.039H90.2814L88.6624 95.8817C88.5735 95.6159 88.4489 95.4919 88.1998 95.4919C87.9686 95.4919 87.8084 95.5982 87.7373 95.8817L86.0827 101.039H86.0649ZM95.6008 106.213L97.54 95.0311C97.7891 93.6843 98.8388 92.9578 100.298 92.9578C101.579 92.9578 102.664 93.454 103.02 94.7121L105.439 102.828L105.457 102.882C105.475 102.882 105.493 102.882 105.493 102.828L107.859 94.783C108.215 93.5248 109.335 92.9755 110.634 92.9755C112.075 92.9755 113.089 93.7021 113.303 95.102L115.082 106.231H111.915L110.527 96.0412C110.527 95.9526 110.51 95.8817 110.421 95.8817C110.349 95.8817 110.314 95.9172 110.296 96.0058L107.627 104.618C107.325 105.611 106.471 106.089 105.439 106.089C104.407 106.089 103.536 105.628 103.286 104.671L100.618 96.0058C100.6 95.9172 100.547 95.8817 100.511 95.8817C100.44 95.8817 100.387 95.9172 100.387 96.0235L98.7676 106.231H95.6008V106.213ZM116.985 106.213V93.2236H122.056C126.148 93.2236 128.638 94.9425 128.638 97.9551C128.638 100.968 126.183 102.775 122.216 102.775H120.099V106.195H116.968L116.985 106.213ZM120.099 95.8286V100.17H122.127C124.173 100.17 125.418 99.4614 125.418 97.9551C125.418 96.5197 124.173 95.8286 122.127 95.8286H120.099ZM133.228 93.2236V106.213H130.097V93.2236H133.228ZM134.812 99.7272C134.812 95.8994 138.05 92.9932 142.302 92.9932C146.554 92.9932 149.81 95.9172 149.81 99.7272C149.81 103.537 146.554 106.461 142.302 106.461C138.05 106.461 134.812 103.573 134.812 99.7272ZM146.572 99.7272C146.572 97.4235 144.704 95.6514 142.302 95.6514C139.9 95.6514 138.032 97.4235 138.032 99.7272C138.032 102.031 139.918 103.803 142.302 103.803C144.686 103.803 146.572 102.031 146.572 99.7272ZM151.251 106.213V94.9957C151.251 93.702 152.3 92.9578 153.474 92.9578C154.417 92.9578 155.165 93.259 155.627 93.9856L161.32 102.793V93.2413H164.274V104.459C164.274 105.752 163.224 106.479 162.085 106.479C161.16 106.479 160.377 106.195 159.897 105.469L154.204 96.6083V106.231H151.233L151.251 106.213Z" fill="#CECECE"/>
<path d="M62.8816 117.006L63.4957 116.742C63.6711 117.112 64.0746 117.305 64.6361 117.305C65.1975 117.305 65.6186 117.076 65.6186 116.636C65.6186 116.161 65.1449 116.073 64.5834 115.985C63.8641 115.862 62.9869 115.651 62.9869 114.736C62.9869 114.032 63.7062 113.486 64.601 113.486C65.3203 113.486 65.9695 113.803 66.2502 114.384L65.6537 114.665C65.4607 114.313 65.1098 114.102 64.5834 114.102C64.1097 114.102 63.7062 114.366 63.7062 114.718C63.7062 115.176 64.215 115.281 64.7764 115.387C65.4782 115.51 66.3379 115.721 66.3379 116.636C66.3379 117.393 65.601 117.921 64.6361 117.921C63.829 117.921 63.1623 117.587 62.8816 117.006ZM66.9871 117.851V113.257H67.6888V115.052C67.952 114.788 68.3731 114.63 68.8468 114.63C69.8644 114.63 70.4434 115.246 70.4434 116.214V117.851H69.7416V116.267C69.7416 115.704 69.4082 115.228 68.7415 115.228C68.1275 115.228 67.6888 115.686 67.6888 116.284V117.851H66.9871ZM70.8469 116.249C70.8469 115.352 71.5662 114.612 72.6014 114.612C73.6365 114.612 74.3032 115.299 74.3032 116.179V116.443H71.5311C71.6013 116.988 72.0575 117.358 72.6891 117.358C73.1102 117.358 73.4961 117.2 73.7067 116.848L74.2506 117.094C73.9523 117.64 73.3909 117.921 72.7066 117.921C71.6539 117.921 70.8644 117.235 70.8644 116.267L70.8469 116.249ZM73.6014 116.02C73.5663 115.528 73.1628 115.176 72.6014 115.176C72.0399 115.176 71.6364 115.545 71.5662 116.02H73.6014ZM75.619 113.257V117.851H74.9173V113.257H75.619ZM77.2332 113.257V117.851H76.5314V113.257H77.2332ZM80.4789 117.851C79.9877 117.851 79.8122 117.622 79.8122 117.252V114.137C79.8122 113.768 79.9877 113.539 80.4789 113.539H83.0755V114.137H80.5316V115.387H82.9352V115.985H80.5316V117.235H83.1282V117.833H80.4789V117.851ZM83.444 116.267C83.444 115.369 84.251 114.612 85.2511 114.63C85.8827 114.63 86.4792 114.894 86.795 115.457L86.216 115.756C86.0055 115.422 85.6722 115.228 85.2511 115.228C84.637 115.228 84.1458 115.704 84.1458 116.267C84.1458 116.83 84.6546 117.323 85.2511 117.323C85.6546 117.323 86.0055 117.147 86.216 116.795L86.795 117.076C86.4792 117.64 85.8827 117.904 85.2511 117.904C84.251 117.904 83.444 117.164 83.444 116.249V116.267ZM86.9354 116.267C86.9354 115.369 87.7424 114.63 88.7951 114.63C89.8478 114.63 90.6373 115.369 90.6373 116.267C90.6373 117.164 89.8302 117.921 88.7951 117.921C87.76 117.921 86.9354 117.182 86.9354 116.267ZM89.918 116.284C89.918 115.704 89.4267 115.228 88.7776 115.228C88.1284 115.228 87.6196 115.704 87.6196 116.284C87.6196 116.865 88.1284 117.323 88.7776 117.323C89.4267 117.323 89.918 116.848 89.918 116.284ZM93.7603 116.161H91.3215V115.58H93.7603V116.161ZM100.603 116.196V117.851H99.9009V116.302C99.9009 115.739 99.5851 115.228 98.9359 115.228C98.2868 115.228 97.9885 115.704 97.9885 116.284V117.851H97.2867V116.284C97.2867 115.704 96.9709 115.228 96.3218 115.228C95.6726 115.228 95.3744 115.721 95.3744 116.302V117.851H94.6726V116.196C94.6726 115.316 95.2165 114.612 96.2691 114.612C96.9534 114.612 97.4622 114.929 97.6376 115.422C97.8306 114.929 98.3219 114.612 98.971 114.612C100.024 114.612 100.585 115.316 100.585 116.196H100.603ZM101.024 116.267C101.024 115.369 101.813 114.63 102.866 114.63C103.919 114.63 104.708 115.334 104.708 116.267V117.851H104.041V117.305C103.778 117.692 103.322 117.939 102.761 117.939C101.761 117.939 101.024 117.2 101.024 116.284V116.267ZM104.006 116.284C104.006 115.704 103.515 115.228 102.866 115.228C102.217 115.228 101.726 115.704 101.726 116.284C101.726 116.865 102.234 117.323 102.866 117.323C103.498 117.323 104.006 116.848 104.006 116.284ZM105.357 117.851V115.985C105.357 115.228 105.831 114.648 106.743 114.648C106.954 114.648 107.182 114.683 107.357 114.771V115.404C107.182 115.316 106.989 115.264 106.796 115.264C106.322 115.264 106.042 115.545 106.042 116.02V117.868H105.34L105.357 117.851ZM107.305 116.267C107.305 115.369 108.094 114.63 109.147 114.63C110.2 114.63 110.989 115.334 110.989 116.267V117.851H110.322V117.305C110.059 117.692 109.603 117.939 109.042 117.939C108.042 117.939 107.305 117.2 107.305 116.284V116.267ZM110.287 116.284C110.287 115.704 109.796 115.228 109.147 115.228C108.498 115.228 108.007 115.704 108.007 116.284C108.007 116.865 108.515 117.323 109.147 117.323C109.779 117.323 110.287 116.848 110.287 116.284ZM111.884 116.724V115.264H111.2V114.718H111.884V113.908H112.586V114.718H113.919V115.264H112.586V116.707C112.586 117.112 112.849 117.358 113.27 117.358C113.498 117.358 113.744 117.288 113.919 117.164V117.745C113.744 117.851 113.463 117.921 113.217 117.921C112.358 117.921 111.901 117.428 111.901 116.707L111.884 116.724ZM114.603 117.851V113.257H115.305V115.052C115.568 114.788 115.989 114.63 116.463 114.63C117.481 114.63 118.06 115.246 118.06 116.214V117.851H117.358V116.267C117.358 115.704 117.025 115.228 116.358 115.228C115.744 115.228 115.305 115.686 115.305 116.284V117.851H114.603ZM118.463 116.267C118.463 115.369 119.27 114.63 120.323 114.63C121.376 114.63 122.165 115.369 122.165 116.267C122.165 117.164 121.358 117.921 120.323 117.921C119.288 117.921 118.463 117.182 118.463 116.267ZM121.446 116.284C121.446 115.704 120.955 115.228 120.305 115.228C119.656 115.228 119.147 115.704 119.147 116.284C119.147 116.865 119.656 117.323 120.305 117.323C120.955 117.323 121.446 116.848 121.446 116.284ZM123.27 116.32V117.833H122.569V116.249C122.569 115.334 123.165 114.612 124.288 114.612C125.411 114.612 126.025 115.334 126.025 116.249V117.833H125.323V116.32C125.323 115.721 124.972 115.228 124.27 115.228C123.569 115.228 123.253 115.739 123.253 116.32H123.27ZM129.376 114.067C129.516 113.662 129.867 113.468 130.253 113.468C130.639 113.468 131.008 113.662 131.148 114.067L132.446 117.851H131.709L131.359 116.795H129.148L128.797 117.851H128.078L129.376 114.067ZM129.358 116.214H131.183L130.551 114.278C130.499 114.137 130.411 114.084 130.288 114.084C130.148 114.084 130.06 114.155 130.025 114.278L129.376 116.214H129.358ZM132.674 117.217L133.218 116.953C133.394 117.27 133.674 117.376 134.06 117.376C134.446 117.376 134.762 117.235 134.762 116.953C134.762 116.284 132.78 116.795 132.78 115.598C132.78 115.052 133.324 114.648 134.078 114.648C134.727 114.648 135.166 114.912 135.376 115.281L134.832 115.563C134.692 115.281 134.394 115.193 134.078 115.193C133.762 115.193 133.464 115.352 133.464 115.598C133.464 116.232 135.446 115.774 135.446 116.953C135.446 117.552 134.815 117.921 134.078 117.921C133.429 117.921 132.938 117.692 132.674 117.217ZM135.973 113.662C135.973 113.433 136.183 113.24 136.429 113.24C136.675 113.24 136.885 113.433 136.885 113.662C136.885 113.891 136.692 114.084 136.429 114.084C136.166 114.084 135.973 113.891 135.973 113.662ZM136.78 114.7V117.851H136.078V114.7H136.78ZM137.341 116.267C137.341 115.369 138.131 114.63 139.183 114.63C140.236 114.63 141.026 115.334 141.026 116.267V117.851H140.359V117.305C140.096 117.692 139.64 117.939 139.078 117.939C138.078 117.939 137.341 117.2 137.341 116.284V116.267ZM140.341 116.284C140.341 115.704 139.85 115.228 139.201 115.228C138.552 115.228 138.061 115.704 138.061 116.284C138.061 116.865 138.569 117.323 139.201 117.323C139.833 117.323 140.341 116.848 140.341 116.284ZM143.921 117.851C143.482 117.851 143.271 117.622 143.271 117.358C143.271 117.164 143.377 116.988 143.57 116.812L144.973 115.668C145.359 115.352 145.57 115.105 145.57 114.753C145.57 114.366 145.201 114.084 144.745 114.084C144.289 114.084 143.903 114.348 143.692 114.736L143.131 114.454C143.447 113.873 144.026 113.468 144.798 113.468C145.675 113.468 146.289 114.014 146.289 114.7C146.289 115.228 146.026 115.616 145.587 115.985L144.184 117.112C144.184 117.112 144.096 117.182 144.096 117.217C144.096 117.235 144.096 117.252 144.131 117.252H146.412V117.851H143.903H143.921ZM146.78 115.686C146.78 114.436 147.552 113.468 148.675 113.468C149.798 113.468 150.57 114.436 150.57 115.686C150.57 116.936 149.798 117.921 148.675 117.921C147.552 117.921 146.78 116.918 146.78 115.686ZM149.851 115.686C149.851 114.806 149.359 114.137 148.693 114.137C148.026 114.137 147.535 114.806 147.535 115.686C147.535 116.566 148.026 117.252 148.693 117.252C149.359 117.252 149.851 116.548 149.851 115.686ZM152.237 117.851V114.313C152.237 114.313 152.237 114.26 152.202 114.26C152.167 114.26 152.131 114.278 152.114 114.296L151.026 114.859L150.693 114.243L151.903 113.627C152.079 113.539 152.272 113.468 152.465 113.468C152.763 113.468 152.956 113.644 152.956 113.961V117.833H152.237V117.851ZM153.868 116.724C153.868 116.232 154.202 115.844 154.728 115.704C154.237 115.58 153.956 115.193 153.956 114.718C153.956 113.996 154.623 113.486 155.64 113.486C156.658 113.486 157.325 113.996 157.325 114.718C157.325 115.176 157.062 115.58 156.553 115.704C157.097 115.844 157.412 116.232 157.412 116.707C157.412 117.446 156.746 117.921 155.623 117.921C154.5 117.921 153.833 117.446 153.833 116.724H153.868ZM156.711 116.654C156.711 116.196 156.254 115.968 155.64 115.968C155.026 115.968 154.57 116.196 154.57 116.654C154.57 117.076 154.991 117.34 155.64 117.34C156.29 117.34 156.711 117.076 156.711 116.654ZM156.623 114.753C156.623 114.348 156.219 114.049 155.64 114.049C155.061 114.049 154.675 114.348 154.675 114.753C154.675 115.193 155.009 115.457 155.64 115.457C156.272 115.457 156.623 115.193 156.623 114.753Z" fill="#CECECE"/>
<path d="M66.3479 59.6829C60.5129 59.6829 57.5861 56.6624 57.5861 53.0452C57.5861 50.1739 58.9284 47.8432 61.6688 45.7177L76.7502 33.7848C80.926 30.3914 83.163 27.9675 83.163 24.3504C83.163 21.0315 80.0871 18.2348 75.4079 18.2348C70.7288 18.2348 66.7394 21.2553 64.7447 25.1707L55.405 20.4162C58.9843 13.2379 66.497 7.88672 76.4146 7.88672C87.5812 7.88672 95.3363 14.9159 95.3363 23.3622C95.3363 29.7761 92.5027 34.3814 87.3388 38.4647L73.5064 49.484H96.8463V59.6642H66.3293L66.3479 59.6829Z" fill="#CECECE"/>
<path d="M103.873 39.919V44.0023H101.096V39.6206C101.096 37.0663 102.755 34.978 106.166 34.978C109.578 34.978 111.274 37.0476 111.274 39.6206V44.0023H108.478V39.919C108.478 38.5765 107.751 37.4205 106.166 37.4205C104.582 37.4205 103.892 38.5765 103.892 39.919H103.873ZM112.113 39.602C112.113 36.8612 114.201 34.9594 117.221 34.9594C118.209 34.9594 119.141 35.2763 119.85 35.7984V31.1558H122.665V39.602C122.665 42.2683 120.427 44.2446 117.389 44.2446C114.35 44.2446 112.132 42.1564 112.132 39.602H112.113ZM119.868 39.602C119.868 38.3528 118.806 37.3273 117.37 37.3273C115.935 37.3273 114.891 38.3528 114.891 39.602C114.891 40.8512 115.935 41.8581 117.37 41.8581C118.806 41.8581 119.868 40.8512 119.868 39.602ZM101.674 59.7014V47.7499H106.334C110.081 47.7499 112.374 49.3348 112.374 52.0942C112.374 54.8537 110.118 56.5318 106.483 56.5318H104.544V59.6828H101.674V59.7014ZM104.544 50.1365V54.1266H106.409C108.292 54.1266 109.429 53.474 109.429 52.0942C109.429 50.7145 108.292 50.1365 106.409 50.1365H104.544ZM115.823 57.2962H121.993V59.7014H115.487C113.66 59.7014 112.952 58.8438 112.952 57.4827V47.7499H115.823V57.2962ZM126.318 49.428C126.766 48.1228 127.94 47.5075 129.189 47.5075C130.438 47.5075 131.631 48.1228 132.079 49.428L135.565 59.6828H132.638L131.874 57.2403H126.523L125.759 59.6828H122.832L126.318 49.428ZM127.25 54.9469H131.109L129.618 50.2111C129.543 49.9687 129.413 49.8568 129.189 49.8568C128.966 49.8568 128.835 49.9687 128.76 50.2111L127.25 54.9469ZM135.024 53.735C135.024 50.267 138.026 47.5262 141.866 47.5262C144.159 47.5262 146.359 48.6262 147.347 50.4908L145.016 51.684C144.364 50.6586 143.339 49.9873 141.754 49.9873C139.554 49.9873 137.97 51.5722 137.97 53.735C137.97 55.8978 139.536 57.4827 141.754 57.4827C143.339 57.4827 144.401 56.8301 145.016 55.8046L147.347 56.9979C146.359 58.8624 144.159 59.9625 141.866 59.9625C138.026 59.9625 135.024 57.203 135.024 53.7536V53.735ZM150.441 59.7014C148.614 59.7014 147.906 58.8438 147.906 57.4827V49.9873C147.906 48.6262 148.614 47.7499 150.441 47.7499H157.432V50.0806H150.777V52.5604H157.022V54.891H150.777V57.3708H157.544V59.7014H150.441Z" fill="#CECECE"/>
</g>
<defs>
<clipPath id="clip0_351_8081">
<rect width="218" height="120" fill="white"/>
</clipPath>
</defs>
</svg>
