<svg width="218" height="120" viewBox="0 0 218 120" fill="none" xmlns="http://www.w3.org/2000/svg">
<g clip-path="url(#clip0_351_7201)">
<path d="M80.9993 58.3407V20.4538C80.9993 20.4538 80.8316 20.5284 80.757 20.603L68.0804 26.7186L62.4878 16.2214L77.998 8.81929C80.6638 7.53278 83.5906 6.56323 86.0886 6.56323C90.339 6.56323 93.1726 9.13626 93.1726 13.667V58.3594H80.9993V58.3407Z" fill="#EBAA01"/>
<path d="M98.5042 40.9073L100.573 39.8631C100.984 40.5716 101.636 40.87 102.605 40.87C103.5 40.87 104.078 40.553 104.078 40.0309C104.078 38.6139 98.7465 39.8445 98.7465 36.4511C98.7465 34.8662 100.275 33.6357 102.68 33.6357C104.768 33.6357 106.017 34.5306 106.613 35.5375L104.544 36.5816C104.227 35.9477 103.519 35.6493 102.736 35.6493C102.046 35.6493 101.543 35.9477 101.543 36.4138C101.543 37.8308 106.874 36.6935 106.874 39.9936C106.874 41.7649 104.973 42.9023 102.755 42.9023C100.741 42.9023 99.3244 42.2311 98.5228 40.9073H98.5042ZM108.608 39.1733V36.0036H106.818V33.878H108.608V31.6406H111.404V33.878H114.835V36.0036H111.404V39.1173C111.404 40.0869 112.057 40.6649 113.064 40.6649C113.641 40.6649 114.35 40.4971 114.835 40.236V42.4921C114.35 42.7718 113.492 42.9209 112.821 42.9209C110.006 42.9209 108.627 41.392 108.627 39.1919L108.608 39.1733ZM99.5295 58.3404V46.3889H104.19C107.937 46.3889 110.23 47.9738 110.23 50.7332C110.23 53.4927 107.974 55.1708 104.339 55.1708H102.4V58.3218H99.5295V58.3404ZM102.382 48.7941V52.7842H104.246C106.129 52.7842 107.266 52.1316 107.266 50.7332C107.266 49.3348 106.129 48.7755 104.246 48.7755H102.382V48.7941ZM113.679 55.9539H119.849V58.3591H113.362C111.535 58.3591 110.827 57.5014 110.827 56.1403V46.4076H113.697V55.9539H113.679ZM124.174 48.0856C124.622 46.7805 125.796 46.1652 127.045 46.1652C128.294 46.1652 129.487 46.7805 129.935 48.0856L133.421 58.3404H130.494L129.73 55.8979H124.379L123.615 58.3404H120.688L124.174 48.0856ZM125.106 53.5859H128.965L127.474 48.8501C127.399 48.6077 127.269 48.4958 127.045 48.4958C126.821 48.4958 126.691 48.6077 126.616 48.8501L125.106 53.5859ZM132.88 52.3926C132.88 48.9247 135.881 46.1838 139.722 46.1838C142.015 46.1838 144.214 47.2839 145.202 49.1484L142.872 50.3417C142.22 49.3162 141.213 48.6636 139.61 48.6636C137.41 48.6636 135.826 50.2485 135.826 52.4113C135.826 54.5741 137.391 56.159 139.61 56.159C141.194 56.159 142.257 55.5064 142.872 54.4809L145.202 55.6742C144.214 57.5387 142.015 58.6388 139.722 58.6388C135.881 58.6388 132.88 55.8793 132.88 52.4299V52.3926ZM148.297 58.3404C146.47 58.3404 145.762 57.4828 145.762 56.1217V48.6263C145.762 47.2652 146.47 46.3889 148.297 46.3889H155.288V48.7196H148.633V51.1994H154.878V53.53H148.633V56.0098H155.4V58.3404H148.297Z" fill="#EBAA01"/>
<path d="M51.2467 116.234C49.7927 117.763 41.5529 112.561 38.9057 108.086C38.9057 108.086 37.433 105.625 37.1161 102.157C37.0788 101.84 37.1161 101.504 37.172 101.187C37.2093 100.982 37.3211 100.796 37.5076 100.311C37.8804 100.441 38.2905 100.516 38.6634 100.628C38.6634 100.628 39.204 100.814 39.726 101.094C45.244 103.965 48.7301 109.783 48.7301 109.783C50.4079 112.579 52.067 115.357 51.2467 116.234Z" fill="#EBAA01"/>
<path d="M27.5151 12.8838C27.9625 4.71722 38.197 -1.80857 47.5553 0.447486C41.9441 6.56308 36.6125 12.4736 27.5151 12.8838Z" fill="#EBAA01"/>
<path d="M15.7522 85.991C9.89859 78.1973 10.3833 69.4901 16.7216 64.2881C20.6551 71.6343 17.4673 78.4584 15.7522 85.991Z" fill="#EBAA01"/>
<path d="M10.1601 70.87C6.61807 61.8271 9.43302 53.4182 16.8526 50.1553C18.6422 58.3218 13.758 64.1205 10.1601 70.87Z" fill="#EBAA01"/>
<path d="M11.8562 38.4279C12.7324 29.5714 20.357 22.9711 27.6274 24.5559C26.5275 29.702 20.9162 34.6802 11.8562 38.4279Z" fill="#EBAA01"/>
<path d="M8.94785 54.5556C7.66155 45.1958 13.1982 36.8614 20.7296 36.7495C20.0772 44.8601 14.1303 49.2231 8.94785 54.5556Z" fill="#EBAA01"/>
<path d="M38.197 14.5804C33.462 21.4231 26.0424 22.1689 19.0703 24.164C20.338 17.4517 31.0571 10.6276 38.197 14.5804Z" fill="#EBAA01"/>
<path d="M20.4687 78.0857C25.9121 84.1267 24.8495 91.4729 25.0546 98.7445C17.4486 94.3629 15.3607 82.6165 20.4687 78.0857Z" fill="#EBAA01"/>
<path d="M22.8177 99.919C15.2117 99.9563 7.77357 93.2441 6.07715 84.7979C14.3729 86.7183 18.791 93.039 22.8177 99.919Z" fill="#EBAA01"/>
<path d="M37.5632 109.465C28.8015 105.83 25.0171 98.6513 27.2355 90.0559C34.3381 94.624 35.1957 102.026 37.5632 109.465Z" fill="#EBAA01"/>
<path d="M50.5756 117.8C45.0389 122.61 32.6419 118.806 28.6152 113.25C36.7804 110.603 43.678 114.276 50.5756 117.8Z" fill="#EBAA01"/>
<path d="M5.72284 30.895C10.1969 38.3717 8.81741 45.8857 6.84136 53.4183C1.41653 49.2418 0.894548 39.6023 5.72284 30.895Z" fill="#EBAA01"/>
<path d="M14.988 15.3074C17.5047 23.5485 13.7017 30.3726 10.1411 37.0849C5.83481 32.088 8.29556 20.6026 14.988 15.3074Z" fill="#EBAA01"/>
<path d="M8.0343 70.3851C1.32316 66.768 -1.84598 56.9606 1.09946 48.8687C7.60553 54.7232 7.38183 62.7033 8.0343 70.3851Z" fill="#EBAA01"/>
<path d="M17.4671 22.4484C14.7827 16.1091 20.6922 5.40679 28.4473 2.27441C26.8068 7.51369 27.0678 13.014 22.37 16.7617C20.5058 18.2533 19.2008 20.4161 17.4671 22.4671V22.4484Z" fill="#EBAA01"/>
<path d="M1.11845 67.1038C8.76168 71.1684 11.1106 78.4959 13.3103 85.7862C6.76698 85.32 0.577827 75.9975 1.11845 67.1038Z" fill="#EBAA01"/>
<path d="M35.643 110.771C27.9998 112.728 19.8719 108.533 14.969 99.8074C19.2753 101.019 23.3393 101.523 26.7135 103.294C29.9945 105.028 32.5484 108.104 35.6617 110.771H35.643Z" fill="#EBAA01"/>
<path d="M166.753 116.234C168.207 117.763 176.447 112.561 179.094 108.086C179.094 108.086 180.567 105.625 180.884 102.157C180.921 101.84 180.884 101.504 180.828 101.187C180.79 100.982 180.679 100.796 180.492 100.311C180.119 100.441 179.709 100.516 179.336 100.628C179.336 100.628 178.796 100.814 178.274 101.094C172.756 103.965 169.27 109.783 169.27 109.783C167.592 112.579 165.933 115.357 166.753 116.234Z" fill="#EBAA01"/>
<path d="M190.485 12.8838C190.037 4.71722 179.803 -1.80857 170.445 0.447486C176.056 6.56308 181.387 12.4736 190.485 12.8838Z" fill="#EBAA01"/>
<path d="M202.248 85.991C208.102 78.1973 207.617 69.4901 201.279 64.2881C197.345 71.6343 200.533 78.4584 202.248 85.991Z" fill="#EBAA01"/>
<path d="M207.84 70.87C211.382 61.8271 208.568 53.4182 201.148 50.1553C199.358 58.3218 204.243 64.1205 207.84 70.87Z" fill="#EBAA01"/>
<path d="M206.144 38.4279C205.268 29.5714 197.643 22.9711 190.373 24.5559C191.473 29.702 197.084 34.6802 206.144 38.4279Z" fill="#EBAA01"/>
<path d="M209.051 54.5556C210.337 45.1958 204.801 36.8614 197.269 36.7495C197.922 44.8601 203.869 49.2231 209.051 54.5556Z" fill="#EBAA01"/>
<path d="M179.802 14.5804C184.538 21.4231 191.957 22.1689 198.929 24.164C197.662 17.4517 186.942 10.6276 179.802 14.5804Z" fill="#EBAA01"/>
<path d="M197.531 78.0857C192.087 84.1267 193.15 91.4729 192.945 98.7445C200.551 94.3629 202.639 82.6165 197.531 78.0857Z" fill="#EBAA01"/>
<path d="M195.183 99.919C202.789 99.9563 210.227 93.2441 211.923 84.7979C203.627 86.7183 199.209 93.039 195.183 99.919Z" fill="#EBAA01"/>
<path d="M180.436 109.465C189.198 105.83 192.982 98.6513 190.764 90.0559C183.661 94.624 182.804 102.026 180.436 109.465Z" fill="#EBAA01"/>
<path d="M167.424 117.8C172.961 122.61 185.358 118.806 189.385 113.25C181.219 110.603 174.322 114.276 167.424 117.8Z" fill="#EBAA01"/>
<path d="M212.277 30.895C207.803 38.3717 209.182 45.8857 211.158 53.4183C216.583 49.2418 217.105 39.6023 212.277 30.895Z" fill="#EBAA01"/>
<path d="M203.011 15.3074C200.495 23.5485 204.298 30.3726 207.858 37.0849C212.165 32.088 209.704 20.6026 203.011 15.3074Z" fill="#EBAA01"/>
<path d="M209.965 70.3851C216.676 66.768 219.845 56.9606 216.9 48.8687C210.394 54.7232 210.618 62.7033 209.965 70.3851Z" fill="#EBAA01"/>
<path d="M200.533 22.4484C203.217 16.1091 197.308 5.40679 189.552 2.27441C191.193 7.51369 190.932 13.014 195.63 16.7617C197.494 18.2533 198.799 20.4161 200.533 22.4671V22.4484Z" fill="#EBAA01"/>
<path d="M216.881 67.1038C209.238 71.1684 206.889 78.4959 204.689 85.7862C211.233 85.32 217.422 75.9975 216.881 67.1038Z" fill="#EBAA01"/>
<path d="M182.375 110.771C190.018 112.728 198.146 108.533 203.049 99.8074C198.742 101.019 194.678 101.523 191.304 103.294C188.023 105.028 185.469 108.104 182.356 110.771H182.375Z" fill="#EBAA01"/>
<path d="M61.2017 75.6993V65.9851H66.5706V75.5687C66.5706 78.2909 67.7264 79.4283 70.1126 79.4283C72.4987 79.4283 73.6732 78.2909 73.6732 75.5687V65.9851H79.0421V75.6993C79.0421 80.9572 76.2271 84.015 70.1126 84.015C63.998 84.015 61.2017 80.9385 61.2017 75.6993ZM81.7825 83.7167V65.9851H89.985C94.6268 65.9851 98.1688 67.9615 98.1688 71.8584C98.1688 74.189 96.7147 76.1094 94.4218 76.762C95.4098 77.34 96.0436 78.3655 96.9198 79.969L98.9145 83.698H93.0795L91.2526 80.3605C90.5815 79.1486 89.8358 78.7011 88.0835 78.7011H87.0954L87.0582 83.698H81.7452L81.7825 83.7167ZM87.1514 70.46L87.1141 74.4314H89.985C91.5509 74.4314 92.6508 73.6483 92.6508 72.3804C92.6508 71.038 91.5509 70.46 90.0409 70.46H87.1327H87.1514ZM100.946 83.7167V65.9851H109.149C114.089 65.9851 117.035 67.9615 117.035 71.0007C117.035 72.9211 115.935 74.2263 114.22 74.9162C115.953 75.4382 117.184 76.5383 117.184 78.7011C117.184 82.0013 113.94 83.7167 109.149 83.7167H100.946ZM106.315 72.9957H109.447C110.957 72.9957 111.684 72.4177 111.684 71.3922C111.684 70.4973 110.995 69.9193 109.447 69.9193H106.315V72.9957ZM106.315 79.7825H109.447C110.957 79.7825 111.833 79.391 111.833 78.3655C111.833 77.2654 110.957 76.9485 109.447 76.9485H106.315V79.7825ZM122.683 68.8006C123.41 66.6191 125.442 65.5936 127.474 65.5936C129.506 65.5936 131.538 66.6191 132.265 68.8006L137.317 83.7167H131.836L130.942 80.7148H124.063L123.131 83.7167H117.65L122.702 68.8006H122.683ZM125.386 76.3891H129.599L127.735 70.2176C127.679 70.0311 127.623 69.9566 127.511 69.9566C127.4 69.9566 127.344 70.0311 127.288 70.2176L125.405 76.3891H125.386ZM138.454 83.7167V68.5955C138.454 66.7123 140.076 65.575 141.791 65.575C143.152 65.575 144.345 66.0038 145.035 66.992L151.932 76.8925V65.9851H157.003V81.1063C157.003 82.9895 155.381 84.1082 153.666 84.1082C152.324 84.1082 151.112 83.6794 150.422 82.6912L143.525 72.7906V83.7167H138.454Z" fill="#EBAA01"/>
<path d="M48.1523 95.1461C48.1523 91.6221 51.2096 88.8067 55.1245 88.8067C57.4734 88.8067 59.7104 89.9254 60.6984 91.8272L58.3123 93.0392C57.6598 91.9951 56.6158 91.3238 54.994 91.3238C52.7569 91.3238 51.1351 92.9273 51.1351 95.1461C51.1351 97.3648 52.7383 98.9683 54.994 98.9683C56.6158 98.9683 57.6971 98.2971 58.3123 97.253L60.6984 98.4649C59.6918 100.367 57.4547 101.485 55.1245 101.485C51.2096 101.485 48.1523 98.6886 48.1523 95.1461ZM60.6425 95.1461C60.6425 91.5662 63.6625 88.8254 67.6333 88.8254C71.604 88.8254 74.6613 91.5662 74.6613 95.1461C74.6613 98.7259 71.6227 101.467 67.6333 101.467C63.6439 101.467 60.6425 98.7446 60.6425 95.1461ZM71.6413 95.1461C71.6413 93.0019 69.9076 91.3238 67.6333 91.3238C65.3589 91.3238 63.6252 92.9832 63.6252 95.1461C63.6252 97.3089 65.3776 98.9683 67.6333 98.9683C69.889 98.9683 71.6413 97.3089 71.6413 95.1461ZM76.0035 101.224V90.7085C76.0035 89.4966 76.9916 88.7881 78.0915 88.7881C78.9676 88.7881 79.676 89.0864 80.1048 89.739L85.4178 97.9988V89.0491H88.1768V99.565C88.1768 100.777 87.1888 101.467 86.1448 101.467C85.2873 101.467 84.5416 101.187 84.1128 100.535L78.7999 92.2374V101.243H76.0222L76.0035 101.224ZM89.5563 95.1461C89.5563 91.6221 92.6136 88.8067 96.5284 88.8067C98.8773 88.8067 101.114 89.9254 102.102 91.8272L99.7162 93.0392C99.0638 91.9951 98.0198 91.3238 96.3979 91.3238C94.1609 91.3238 92.539 92.9273 92.539 95.1461C92.539 97.3648 94.1423 98.9683 96.3979 98.9683C98.0198 98.9683 99.101 98.2971 99.7162 97.253L102.102 98.4649C101.096 100.367 98.8587 101.485 96.5284 101.485C92.6136 101.485 89.5563 98.6886 89.5563 95.1461ZM105.57 101.224C103.706 101.224 102.997 100.348 102.997 98.9683V91.3238C102.997 89.9254 103.724 89.0491 105.57 89.0491H112.691V91.417H105.905V93.9528H112.262V96.3207H105.905V98.8565H112.803V101.224H105.57ZM114.648 101.224V89.0491H119.384C123.205 89.0491 125.535 90.6526 125.535 93.4867C125.535 96.3207 123.242 98.0174 119.533 98.0174H117.557V101.224H114.63H114.648ZM117.575 91.4916V95.5563H119.477C121.397 95.5563 122.553 94.885 122.553 93.468C122.553 92.051 121.397 91.473 119.477 91.473H117.575V91.4916ZM136.236 91.4916H132.284V101.224H129.357V91.4916H125.405V89.0491H136.236V91.4916ZM144.886 89.0491V101.224H141.959V89.0491H144.886ZM146.359 95.1461C146.359 91.6221 149.416 88.8067 153.331 88.8067C155.68 88.8067 157.917 89.9254 158.905 91.8272L156.519 93.0392C155.866 91.9951 154.822 91.3238 153.2 91.3238C150.963 91.3238 149.341 92.9273 149.341 95.1461C149.341 97.3648 150.945 98.9683 153.2 98.9683C154.822 98.9683 155.903 98.2971 156.519 97.253L158.905 98.4649C157.898 100.367 155.661 101.485 153.331 101.485C149.416 101.485 146.359 98.6886 146.359 95.1461ZM162.372 101.224C160.508 101.224 159.8 100.348 159.8 98.9683V91.3238C159.8 89.9254 160.527 89.0491 162.372 89.0491H169.493V91.417H162.708V93.9528H169.065V96.3207H162.708V98.8565H169.605V101.224H162.372Z" fill="#EBAA01"/>
<path d="M61.8351 114.333L62.4503 114.072C62.6367 114.445 63.0282 114.65 63.5875 114.65C64.1467 114.65 64.5569 114.407 64.5569 113.997C64.5569 113.531 64.0722 113.438 63.5129 113.344C62.8045 113.214 61.9097 113.009 61.9097 112.095C61.9097 111.386 62.6181 110.845 63.5129 110.845C64.24 110.845 64.8738 111.144 65.1534 111.741L64.5569 112.02C64.3705 111.666 63.9976 111.442 63.4756 111.442C62.9909 111.442 62.5995 111.703 62.5995 112.058C62.5995 112.524 63.1028 112.617 63.6807 112.729C64.3891 112.859 65.2466 113.065 65.2466 113.978C65.2466 114.743 64.5009 115.265 63.5502 115.265C62.7486 115.265 62.0775 114.948 61.7979 114.351L61.8351 114.333ZM65.9364 115.172V110.603H66.6261V112.393C66.8871 112.132 67.3159 111.964 67.7819 111.964C68.7886 111.964 69.3665 112.58 69.3665 113.531V115.172H68.6768V113.605C68.6768 113.046 68.3412 112.561 67.6887 112.561C67.0735 112.561 66.6448 113.009 66.6448 113.624V115.172H65.955H65.9364ZM69.7953 113.587C69.7953 112.692 70.5037 111.946 71.5476 111.946C72.5916 111.946 73.2441 112.636 73.2441 113.512V113.773H70.485C70.5596 114.314 71.007 114.687 71.6408 114.687C72.0696 114.687 72.4425 114.519 72.6475 114.183L73.1881 114.426C72.8899 114.967 72.3306 115.246 71.6595 115.246C70.6155 115.246 69.8326 114.556 69.8326 113.587H69.7953ZM72.5357 113.363C72.4984 112.859 72.1069 112.524 71.529 112.524C70.9511 112.524 70.5596 112.897 70.485 113.363H72.517H72.5357ZM74.5676 110.603V115.172H73.8779V110.603H74.5676ZM76.1895 110.603V115.172H75.4997V110.603H76.1895ZM79.4332 115.172C78.9485 115.172 78.7621 114.948 78.7621 114.575V111.461C78.7621 111.088 78.9299 110.864 79.4332 110.864H82.0245V111.461H79.4891V112.71H81.894V113.307H79.4891V114.556H82.0804V115.153H79.4332V115.172ZM82.3973 113.605C82.3973 112.71 83.2175 111.964 84.2056 111.964C84.8394 111.964 85.4173 112.225 85.7342 112.785L85.1563 113.083C84.9513 112.748 84.5971 112.561 84.2056 112.561C83.5904 112.561 83.1057 113.027 83.1057 113.605C83.1057 114.183 83.609 114.65 84.2056 114.65C84.6157 114.65 84.9513 114.463 85.1563 114.127L85.7342 114.407C85.4173 114.985 84.8394 115.228 84.2056 115.228C83.2175 115.228 82.3973 114.5 82.3973 113.587V113.605ZM85.8834 113.605C85.8834 112.71 86.7036 111.964 87.7289 111.964C88.7542 111.964 89.5558 112.71 89.5558 113.605C89.5558 114.5 88.7542 115.265 87.7289 115.265C86.7036 115.265 85.8834 114.519 85.8834 113.605ZM88.8661 113.605C88.8661 113.027 88.3814 112.561 87.7289 112.561C87.0765 112.561 86.5731 113.027 86.5731 113.605C86.5731 114.183 87.0765 114.65 87.7289 114.65C88.3814 114.65 88.8661 114.183 88.8661 113.605ZM92.7063 113.475H90.2642V112.897H92.7063V113.475ZM99.5293 113.531V115.19H98.8396V113.643C98.8396 113.065 98.5227 112.58 97.8888 112.58C97.255 112.58 96.9381 113.065 96.9381 113.643V115.209H96.2483V113.643C96.2483 113.065 95.9314 112.58 95.2976 112.58C94.6638 112.58 94.3655 113.083 94.3655 113.643V115.19H93.6757V113.549C93.6757 112.673 94.235 111.964 95.2603 111.964C95.9501 111.964 96.4534 112.281 96.6212 112.766C96.8076 112.281 97.2923 111.964 97.9634 111.964C99.0074 111.964 99.5666 112.673 99.5666 113.531H99.5293ZM99.9581 113.605C99.9581 112.71 100.741 111.964 101.804 111.964C102.866 111.964 103.649 112.673 103.649 113.605V115.172H102.978V114.612C102.717 115.004 102.251 115.246 101.692 115.246C100.685 115.246 99.9581 114.5 99.9581 113.587V113.605ZM102.941 113.605C102.941 113.027 102.456 112.561 101.804 112.561C101.151 112.561 100.666 113.027 100.666 113.605C100.666 114.183 101.17 114.65 101.804 114.65C102.437 114.65 102.941 114.183 102.941 113.605ZM104.302 115.172V113.307C104.302 112.542 104.786 111.983 105.681 111.983C105.905 111.983 106.129 112.02 106.296 112.095V112.729C106.129 112.636 105.924 112.598 105.737 112.598C105.271 112.598 104.991 112.878 104.991 113.344V115.19H104.302V115.172ZM106.24 113.605C106.24 112.71 107.023 111.964 108.086 111.964C109.149 111.964 109.932 112.673 109.932 113.605V115.172H109.26V114.612C108.999 115.004 108.533 115.246 107.974 115.246C106.968 115.246 106.24 114.5 106.24 113.587V113.605ZM109.223 113.605C109.223 113.027 108.738 112.561 108.086 112.561C107.434 112.561 106.949 113.027 106.949 113.605C106.949 114.183 107.452 114.65 108.086 114.65C108.72 114.65 109.223 114.183 109.223 113.605ZM110.826 114.053V112.598H110.137V112.058H110.826V111.237H111.516V112.058H112.84V112.598H111.516V114.034C111.516 114.445 111.777 114.687 112.206 114.687C112.43 114.687 112.672 114.612 112.84 114.5V115.079C112.672 115.19 112.392 115.265 112.131 115.265C111.274 115.265 110.808 114.78 110.808 114.053H110.826ZM113.53 115.172V110.603H114.219V112.393C114.48 112.132 114.909 111.964 115.375 111.964C116.382 111.964 116.96 112.58 116.96 113.531V115.172H116.27V113.605C116.27 113.046 115.934 112.561 115.282 112.561C114.667 112.561 114.238 113.009 114.238 113.624V115.172H113.548H113.53ZM117.388 113.605C117.388 112.71 118.209 111.964 119.234 111.964C120.259 111.964 121.061 112.71 121.061 113.605C121.061 114.5 120.259 115.265 119.234 115.265C118.209 115.265 117.388 114.519 117.388 113.605ZM120.39 113.605C120.39 113.027 119.905 112.561 119.253 112.561C118.6 112.561 118.097 113.027 118.097 113.605C118.097 114.183 118.6 114.65 119.253 114.65C119.905 114.65 120.39 114.183 120.39 113.605ZM122.217 113.661V115.172H121.527V113.587C121.527 112.673 122.123 111.946 123.242 111.946C124.361 111.946 124.976 112.654 124.976 113.568V115.153H124.286V113.643C124.286 113.046 123.932 112.542 123.242 112.542C122.552 112.542 122.235 113.046 122.235 113.624L122.217 113.661ZM128.313 111.405C128.462 110.995 128.797 110.808 129.189 110.808C129.58 110.808 129.934 110.995 130.084 111.405L131.37 115.172H130.643L130.289 114.127H128.089L127.735 115.172H127.008L128.294 111.405H128.313ZM128.294 113.531H130.102L129.468 111.591C129.413 111.461 129.338 111.386 129.207 111.386C129.058 111.386 128.984 111.442 128.946 111.591L128.313 113.531H128.294ZM131.631 114.538L132.172 114.277C132.339 114.594 132.638 114.706 133.01 114.706C133.383 114.706 133.7 114.556 133.7 114.277C133.7 113.624 131.724 114.109 131.724 112.915C131.724 112.356 132.265 111.964 133.01 111.964C133.644 111.964 134.092 112.225 134.315 112.598L133.775 112.878C133.626 112.598 133.346 112.505 133.029 112.505C132.712 112.505 132.414 112.654 132.414 112.915C132.414 113.549 134.39 113.083 134.39 114.277C134.39 114.873 133.756 115.246 133.029 115.246C132.395 115.246 131.892 115.023 131.631 114.556V114.538ZM134.912 110.995C134.912 110.771 135.117 110.566 135.378 110.566C135.639 110.566 135.825 110.752 135.825 110.995C135.825 111.237 135.62 111.405 135.378 111.405C135.136 111.405 134.912 111.218 134.912 110.995ZM135.714 112.039V115.172H135.024V112.039H135.714ZM136.291 113.605C136.291 112.71 137.074 111.964 138.137 111.964C139.2 111.964 139.983 112.673 139.983 113.605V115.172H139.311V114.612C139.05 115.004 138.584 115.246 138.025 115.246C137.018 115.246 136.291 114.5 136.291 113.587V113.605ZM139.274 113.605C139.274 113.027 138.789 112.561 138.137 112.561C137.485 112.561 137 113.027 137 113.605C137 114.183 137.503 114.65 138.137 114.65C138.771 114.65 139.274 114.183 139.274 113.605ZM142.853 115.172C142.425 115.172 142.201 114.948 142.201 114.668C142.201 114.463 142.294 114.295 142.499 114.127L143.897 112.99C144.289 112.673 144.494 112.43 144.494 112.076C144.494 111.685 144.14 111.423 143.674 111.423C143.208 111.423 142.835 111.685 142.611 112.076L142.052 111.796C142.369 111.218 142.947 110.808 143.711 110.808C144.587 110.808 145.202 111.349 145.202 112.039C145.202 112.561 144.941 112.953 144.513 113.307L143.114 114.426C143.114 114.426 143.021 114.5 143.021 114.538C143.021 114.556 143.021 114.575 143.058 114.575H145.333V115.172H142.835H142.853ZM145.724 113.027C145.724 111.778 146.489 110.808 147.626 110.808C148.763 110.808 149.527 111.759 149.527 113.027C149.527 114.295 148.763 115.265 147.626 115.265C146.489 115.265 145.724 114.277 145.724 113.027ZM148.782 113.027C148.782 112.151 148.297 111.479 147.626 111.479C146.955 111.479 146.47 112.151 146.47 113.027C146.47 113.904 146.955 114.594 147.626 114.594C148.297 114.594 148.782 113.904 148.782 113.027ZM151.168 115.172V111.629C151.168 111.629 151.168 111.591 151.13 111.591C151.093 111.591 151.075 111.61 151.037 111.629L149.956 112.188L149.639 111.573L150.851 110.957C151.037 110.864 151.224 110.789 151.41 110.789C151.708 110.789 151.895 110.976 151.895 111.293V115.153H151.168V115.172ZM152.79 114.053C152.79 113.568 153.107 113.176 153.647 113.027C153.162 112.897 152.883 112.524 152.883 112.039C152.883 111.312 153.554 110.808 154.561 110.808C155.567 110.808 156.238 111.312 156.238 112.039C156.238 112.505 155.977 112.897 155.474 113.027C156.015 113.158 156.332 113.549 156.332 114.034C156.332 114.78 155.661 115.246 154.561 115.246C153.461 115.246 152.79 114.78 152.79 114.053ZM155.642 113.997C155.642 113.549 155.176 113.307 154.561 113.307C153.945 113.307 153.479 113.549 153.479 113.997C153.479 114.426 153.89 114.687 154.561 114.687C155.232 114.687 155.642 114.426 155.642 113.997ZM155.549 112.076C155.549 111.666 155.157 111.386 154.579 111.386C154.001 111.386 153.629 111.685 153.629 112.076C153.629 112.505 153.964 112.766 154.579 112.766C155.194 112.766 155.549 112.505 155.549 112.076Z" fill="#EBAA01"/>
</g>
<defs>
<clipPath id="clip0_351_7201">
<rect width="218" height="120" fill="white"/>
</clipPath>
</defs>
</svg>
