<svg width="218" height="120" viewBox="0 0 218 120" fill="none" xmlns="http://www.w3.org/2000/svg">
<g clip-path="url(#clip0_351_7076)">
<path d="M81.0003 58.341V20.4541C81.0003 20.4541 80.8325 20.5287 80.758 20.6033L68.0814 26.7189L62.4888 16.2216L77.9989 8.81954C80.6648 7.53302 83.5916 6.56348 86.0896 6.56348C90.34 6.56348 93.1736 9.1365 93.1736 13.6673V58.341H81.0003Z" fill="#EBAA01"/>
<path d="M98.5051 40.9075L100.574 39.8634C100.985 40.5719 101.637 40.8702 102.606 40.8702C103.501 40.8702 104.079 40.5532 104.079 40.0312C104.079 38.6141 98.7475 39.8447 98.7475 36.4513C98.7475 34.8665 100.276 33.6359 102.681 33.6359C104.769 33.6359 106.018 34.5309 106.614 35.5377L104.545 36.5818C104.228 35.9479 103.52 35.6496 102.737 35.6496C102.047 35.6496 101.544 35.9479 101.544 36.414C101.544 37.8311 106.875 36.6937 106.875 39.9939C106.875 41.7652 104.974 42.9025 102.756 42.9025C100.742 42.9025 99.3254 42.2313 98.5238 40.9075H98.5051ZM108.609 39.1735V36.0038H106.819V33.8783H108.609V31.6409H111.387V33.8783H114.817V36.0038H111.387V39.1176C111.387 40.0871 112.039 40.6651 113.065 40.6651C113.642 40.6651 114.351 40.4973 114.836 40.2363V42.4923C114.351 42.772 113.493 42.9212 112.822 42.9212C110.007 42.9212 108.628 41.3923 108.628 39.1921L108.609 39.1735ZM99.5304 58.3407V46.3892H104.191C107.938 46.3892 110.231 47.974 110.231 50.7335C110.231 53.493 107.975 55.171 104.34 55.171H102.401V58.322H99.5304V58.3407ZM102.383 48.7944V52.7844H104.247C106.13 52.7844 107.267 52.1319 107.267 50.7335C107.267 49.3351 106.13 48.7757 104.247 48.7757H102.383V48.7944ZM113.68 55.9541H119.85V58.3593H113.344C111.517 58.3593 110.809 57.5017 110.809 56.1406V46.4078H113.68V55.9541ZM124.175 48.0859C124.623 46.7807 125.797 46.1654 127.046 46.1654C128.295 46.1654 129.488 46.7807 129.936 48.0859L133.422 58.3407H130.495L129.731 55.8982H124.38L123.616 58.3407H120.689L124.175 48.0859ZM125.107 53.5862H128.966L127.475 48.8503C127.4 48.6079 127.27 48.4961 127.046 48.4961C126.822 48.4961 126.692 48.6079 126.617 48.8503L125.107 53.5862ZM132.881 52.3929C132.881 48.9249 135.882 46.1841 139.723 46.1841C142.016 46.1841 144.215 47.2841 145.203 49.1486L142.873 50.3419C142.221 49.3164 141.195 48.6639 139.611 48.6639C137.411 48.6639 135.826 50.2487 135.826 52.4115C135.826 54.5744 137.392 56.1592 139.611 56.1592C141.195 56.1592 142.258 55.5066 142.873 54.4811L145.203 55.6744C144.215 57.5389 142.016 58.639 139.723 58.639C135.882 58.639 132.881 55.8795 132.881 52.4302V52.3929ZM148.298 58.3407C146.471 58.3407 145.763 57.483 145.763 56.1219V48.6266C145.763 47.2655 146.471 46.3892 148.298 46.3892H155.289V48.7198H148.634V51.1996H154.879V53.5302H148.634V56.01H155.401V58.3407H148.298Z" fill="#EBAA01"/>
<path d="M51.2472 116.234C49.7932 117.763 41.5534 112.561 38.9062 108.086C38.9062 108.086 37.4335 105.625 37.1166 102.157C37.0793 101.84 37.1166 101.504 37.1725 101.187C37.2098 100.982 37.3216 100.796 37.5081 100.311C37.8809 100.441 38.291 100.516 38.6639 100.628C38.6639 100.628 39.2045 100.814 39.7265 101.094C45.2445 103.965 48.7306 109.783 48.7306 109.783C50.4083 112.579 52.0675 115.357 51.2472 116.234Z" fill="#EBAA01"/>
<path d="M27.5159 12.884C27.9633 4.71746 38.1978 -1.80833 47.5561 0.44773C41.9448 6.56333 36.6132 12.4738 27.5159 12.884Z" fill="#EBAA01"/>
<path d="M15.7529 85.9915C9.89933 78.1978 10.384 69.4906 16.7223 64.2886C20.6558 71.6348 17.468 78.4589 15.7529 85.9915Z" fill="#EBAA01"/>
<path d="M10.1603 70.8702C6.61832 61.8274 9.43327 53.4184 16.8528 50.1555C18.6424 58.3221 13.7582 64.1207 10.1603 70.8702Z" fill="#EBAA01"/>
<path d="M11.8569 38.4279C12.7331 29.5714 20.3577 22.9711 27.6281 24.5559C26.5282 29.702 20.917 34.6802 11.8569 38.4279Z" fill="#EBAA01"/>
<path d="M8.94859 54.5559C7.66229 45.196 13.199 36.8616 20.7304 36.7498C20.0779 44.8604 14.1311 49.2233 8.94859 54.5559Z" fill="#EBAA01"/>
<path d="M38.1978 14.5806C33.4627 21.4234 26.0432 22.1692 19.071 24.1642C20.3387 17.452 31.0579 10.6279 38.1978 14.5806Z" fill="#EBAA01"/>
<path d="M20.4691 78.0859C25.9126 84.127 24.85 91.4731 25.0551 98.7447C17.4491 94.3631 15.3612 82.6167 20.4691 78.0859Z" fill="#EBAA01"/>
<path d="M22.8179 99.9193C15.212 99.9566 7.77382 93.2443 6.07739 84.7981C14.3731 86.7185 18.7913 93.0392 22.8179 99.9193Z" fill="#EBAA01"/>
<path d="M37.5639 109.466C28.8022 105.83 25.0179 98.6518 27.2363 90.0564C34.3389 94.6245 35.1964 102.027 37.5639 109.466Z" fill="#EBAA01"/>
<path d="M50.5763 117.8C45.0396 122.61 32.6426 118.807 28.616 113.25C36.7812 110.603 43.6787 114.276 50.5763 117.8Z" fill="#EBAA01"/>
<path d="M5.72381 30.8953C10.1979 38.372 8.81839 45.8859 6.84233 53.4186C1.4175 49.2421 0.895525 39.6025 5.72381 30.8953Z" fill="#EBAA01"/>
<path d="M14.9885 15.3076C17.5052 23.5488 13.7022 30.3729 10.1416 37.0851C5.8353 32.0882 8.29605 20.6028 14.9885 15.3076Z" fill="#EBAA01"/>
<path d="M8.03479 70.3854C1.32365 66.7682 -1.84549 56.9609 1.09995 48.8689C7.60602 54.7235 7.38231 62.7036 8.03479 70.3854Z" fill="#EBAA01"/>
<path d="M17.4679 22.4489C14.7834 16.1096 20.6929 5.40728 28.448 2.2749C26.8075 7.51418 27.0685 13.0145 22.3707 16.7622C20.5065 18.2538 19.2016 20.4166 17.4679 22.4676V22.4489Z" fill="#EBAA01"/>
<path d="M1.11869 67.104C8.76193 71.1686 11.1108 78.4962 13.3106 85.7864C6.76723 85.3203 0.578072 75.9977 1.11869 67.104Z" fill="#EBAA01"/>
<path d="M35.6437 110.771C28.0005 112.729 19.8726 108.534 14.9697 99.8076C19.276 101.02 23.34 101.523 26.7142 103.294C29.9952 105.028 32.5492 108.105 35.6624 110.771H35.6437Z" fill="#EBAA01"/>
<path d="M166.753 116.234C168.207 117.763 176.447 112.561 179.094 108.086C179.094 108.086 180.567 105.625 180.884 102.157C180.921 101.84 180.884 101.504 180.828 101.187C180.791 100.982 180.679 100.796 180.493 100.311C180.12 100.441 179.71 100.516 179.337 100.628C179.337 100.628 178.796 100.814 178.274 101.094C172.756 103.965 169.27 109.783 169.27 109.783C167.592 112.579 165.933 115.357 166.753 116.234Z" fill="#EBAA01"/>
<path d="M190.485 12.8838C190.037 4.71722 179.803 -1.80857 170.445 0.447486C176.056 6.56309 181.387 12.4736 190.485 12.8838Z" fill="#EBAA01"/>
<path d="M202.248 85.991C208.102 78.1973 207.617 69.4901 201.279 64.2881C197.345 71.6343 200.533 78.4584 202.248 85.991Z" fill="#EBAA01"/>
<path d="M207.841 70.8698C211.383 61.8269 208.568 53.4179 201.148 50.155C199.359 58.3216 204.243 64.1202 207.841 70.8698Z" fill="#EBAA01"/>
<path d="M206.144 38.4276C205.268 29.5712 197.643 22.9708 190.373 24.5557C191.473 29.7017 197.084 34.68 206.144 38.4276Z" fill="#EBAA01"/>
<path d="M209.052 54.5556C210.338 45.1958 204.802 36.8614 197.27 36.7495C197.923 44.8601 203.87 49.2231 209.052 54.5556Z" fill="#EBAA01"/>
<path d="M179.803 14.5804C184.538 21.4231 191.958 22.1689 198.93 24.164C197.662 17.4517 186.943 10.6276 179.803 14.5804Z" fill="#EBAA01"/>
<path d="M197.531 78.0854C192.088 84.1265 193.15 91.4726 192.945 98.7442C200.551 94.3626 202.639 82.6162 197.531 78.0854Z" fill="#EBAA01"/>
<path d="M195.183 99.919C202.789 99.9563 210.227 93.2441 211.924 84.7979C203.628 86.7183 199.21 93.039 195.183 99.919Z" fill="#EBAA01"/>
<path d="M180.436 109.465C189.198 105.83 192.982 98.6513 190.764 90.0559C183.661 94.624 182.804 102.026 180.436 109.465Z" fill="#EBAA01"/>
<path d="M167.425 117.8C172.961 122.61 185.358 118.807 189.385 113.25C181.22 110.603 174.322 114.276 167.425 117.8Z" fill="#EBAA01"/>
<path d="M212.277 30.895C207.803 38.3717 209.183 45.8857 211.159 53.4183C216.584 49.2418 217.106 39.6023 212.277 30.895Z" fill="#EBAA01"/>
<path d="M203.012 15.3076C200.495 23.5488 204.298 30.3729 207.859 37.0851C212.165 32.0882 209.704 20.6028 203.012 15.3076Z" fill="#EBAA01"/>
<path d="M209.965 70.3851C216.676 66.768 219.846 56.9606 216.9 48.8687C210.394 54.7232 210.618 62.7033 209.965 70.3851Z" fill="#EBAA01"/>
<path d="M200.533 22.4484C203.217 16.1091 197.308 5.40679 189.553 2.27441C191.193 7.51369 190.932 13.014 195.63 16.7617C197.494 18.2533 198.799 20.4161 200.533 22.4671V22.4484Z" fill="#EBAA01"/>
<path d="M216.881 67.104C209.238 71.1686 206.889 78.4962 204.689 85.7864C211.233 85.3203 217.422 75.9977 216.881 67.104Z" fill="#EBAA01"/>
<path d="M182.375 110.771C190.018 112.729 198.146 108.534 203.049 99.8076C198.743 101.02 194.679 101.523 191.305 103.294C188.024 105.028 185.47 108.105 182.356 110.771H182.375Z" fill="#EBAA01"/>
<path d="M54.2488 75.6994V64.6615H60.3447V75.5503C60.3447 78.6454 61.6683 79.9319 64.3714 79.9319C67.0745 79.9319 68.4354 78.6454 68.4354 75.5503V64.6615H74.5313V75.6994C74.5313 81.6659 71.3249 85.1525 64.3714 85.1525C57.4179 85.1525 54.2488 81.6659 54.2488 75.6994ZM77.6632 84.7983V64.6615H86.9842C92.2599 64.6615 96.2866 66.8989 96.2866 71.3551C96.2866 74.0027 94.6461 76.1842 92.0362 76.93C93.1547 77.5826 93.8817 78.7572 94.8698 80.5658L97.1441 84.7983H90.5262L88.4569 81.0133C87.6926 79.6336 86.8351 79.1301 84.859 79.1301H83.7405L83.7032 84.7983H77.6632ZM83.7591 69.733L83.7218 74.2451H86.9842C88.7552 74.2451 90.0228 73.3502 90.0228 71.9145C90.0228 70.3856 88.7738 69.733 87.0588 69.733H83.7591ZM99.4557 84.7983V64.6615H108.777C114.388 64.6615 117.744 66.899 117.744 70.3669C117.744 72.5484 116.495 74.04 114.537 74.8045C116.513 75.4011 117.893 76.6503 117.893 79.1115C117.893 82.8778 114.202 84.8169 108.758 84.8169H99.4371L99.4557 84.7983ZM105.57 72.623H109.131C110.846 72.623 111.666 71.9704 111.666 70.7958C111.666 69.7889 110.883 69.1177 109.131 69.1177H105.57V72.6044V72.623ZM105.57 80.3234H109.131C110.846 80.3234 111.834 79.876 111.834 78.72C111.834 77.4707 110.846 77.1165 109.131 77.1165H105.57V80.3421V80.3234ZM124.156 67.8498C124.977 65.37 127.288 64.214 129.6 64.214C131.911 64.214 134.223 65.37 135.043 67.8498L140.785 84.7983H134.559L133.533 81.4049H125.722L124.66 84.7983H118.433L124.175 67.8498H124.156ZM127.232 76.4639H132.005L129.898 69.4533C129.824 69.2482 129.768 69.155 129.637 69.155C129.507 69.155 129.432 69.2482 129.376 69.4533L127.232 76.4639ZM142.109 84.7983V67.6075C142.109 65.4633 143.954 64.1768 145.893 64.1768C147.44 64.1768 148.801 64.6615 149.584 65.7802L157.432 77.0233V64.6429H163.193V81.8337C163.193 83.9779 161.347 85.2271 159.409 85.2271C157.899 85.2271 156.5 84.7423 155.717 83.6236L147.869 72.3806V84.7983H142.109Z" fill="#EBAA01"/>
<path d="M46.9597 97.1225C46.9597 93.6172 49.9984 90.8391 53.8759 90.8391C56.1875 90.8391 58.4246 91.9578 59.4126 93.841L57.0451 95.0529C56.3926 94.0088 55.3673 93.3562 53.7454 93.3562C51.527 93.3562 49.9238 94.9597 49.9238 97.1412C49.9238 99.3226 51.5084 100.926 53.7454 100.926C55.3486 100.926 56.4299 100.255 57.0451 99.2294L59.4126 100.441C58.4246 102.325 56.2062 103.443 53.8759 103.443C49.9984 103.443 46.9597 100.665 46.9597 97.1598V97.1225ZM59.3567 97.1225C59.3567 93.5613 62.358 90.8578 66.2915 90.8578C70.225 90.8578 73.245 93.5613 73.245 97.1225C73.245 100.684 70.225 103.387 66.2915 103.387C62.358 103.387 59.3567 100.702 59.3567 97.1225ZM70.2623 97.1225C70.2623 94.9783 68.5286 93.3376 66.2915 93.3376C64.0545 93.3376 62.3208 94.997 62.3208 97.1225C62.3208 99.2481 64.0731 100.907 66.2915 100.907C68.5099 100.907 70.2623 99.2481 70.2623 97.1225ZM74.5686 103.164V92.7409C74.5686 91.529 75.538 90.8391 76.6378 90.8391C77.514 90.8391 78.2038 91.1188 78.6325 91.79L83.9082 99.9752V91.0815H86.6486V101.504C86.6486 102.716 85.6792 103.387 84.6353 103.387C83.7777 103.387 83.0507 103.126 82.6219 102.455L77.3462 94.2139V103.145H74.5872L74.5686 103.164ZM88.0095 97.1225C88.0095 93.6172 91.0481 90.8391 94.9257 90.8391C97.2373 90.8391 99.4743 91.9578 100.462 93.841L98.0948 95.0529C97.4423 94.0088 96.417 93.3562 94.7952 93.3562C92.5768 93.3562 90.9736 94.9597 90.9736 97.1412C90.9736 99.3226 92.5581 100.926 94.7952 100.926C96.3984 100.926 97.4796 100.255 98.0948 99.2294L100.462 100.441C99.4743 102.325 97.2559 103.443 94.9257 103.443C91.0481 103.443 88.0095 100.665 88.0095 97.1598V97.1225ZM103.892 103.164C102.047 103.164 101.339 102.306 101.339 100.926V93.3562C101.339 91.9765 102.047 91.1001 103.892 91.1001H110.958V93.4494H104.228V95.9665H110.529V98.3158H104.228V100.833H111.07V103.182H103.892V103.164ZM112.915 103.164V91.0815H117.613C121.397 91.0815 123.728 92.685 123.728 95.4817C123.728 98.2785 121.453 99.9752 117.781 99.9752H115.823V103.145H112.934L112.915 103.164ZM115.805 93.5054V97.5514H117.688C119.589 97.5514 120.745 96.8801 120.745 95.4817C120.745 94.1579 119.589 93.5054 117.688 93.5054H115.805ZM134.316 93.5054H130.383V103.164H127.493V93.5054H123.56V91.0815H134.298V93.5054H134.316ZM142.892 91.0815V103.164H140.002V91.0815H142.892ZM144.364 97.1225C144.364 93.6172 147.403 90.8391 151.281 90.8391C153.592 90.8391 155.829 91.9578 156.817 93.841L154.45 95.0529C153.797 94.0088 152.772 93.3562 151.15 93.3562C148.932 93.3562 147.328 94.9597 147.328 97.1412C147.328 99.3226 148.913 100.926 151.15 100.926C152.753 100.926 153.835 100.255 154.45 99.2294L156.817 100.441C155.829 102.325 153.611 103.443 151.281 103.443C147.403 103.443 144.364 100.665 144.364 97.1598V97.1225ZM160.247 103.164C158.402 103.164 157.693 102.306 157.693 100.926V93.3562C157.693 91.9765 158.402 91.1001 160.247 91.1001H167.313V93.4494H160.583V95.9665H166.884V98.3158H160.583V100.833H167.425V103.182H160.247V103.164Z" fill="#EBAA01"/>
<path d="M58.7973 110.864L59.4125 110.603C59.5989 110.976 59.9904 111.181 60.5496 111.181C61.1089 111.181 61.519 110.939 61.519 110.528C61.519 110.062 61.0343 109.969 60.4751 109.876C59.7667 109.745 58.8719 109.54 58.8719 108.627C58.8719 107.918 59.5803 107.377 60.4751 107.377C61.2021 107.377 61.8359 107.676 62.1156 108.272L61.519 108.552C61.3326 108.198 60.9598 107.974 60.4378 107.974C59.9531 107.974 59.5616 108.235 59.5616 108.589C59.5616 109.055 60.0649 109.149 60.6429 109.26C61.3512 109.391 62.2088 109.596 62.2088 110.51C62.2088 111.274 61.4631 111.796 60.5124 111.796C59.7108 111.796 59.0396 111.479 58.76 110.883L58.7973 110.864ZM62.9172 111.722V107.154H63.6069V108.944C63.8679 108.682 64.2967 108.515 64.7627 108.515C65.7694 108.515 66.3473 109.13 66.3473 110.081V111.722H65.6576V110.155C65.6576 109.596 65.322 109.111 64.6695 109.111C64.0543 109.111 63.6256 109.559 63.6256 110.174V111.722H62.9358H62.9172ZM66.7761 110.118C66.7761 109.223 67.4845 108.477 68.5284 108.477C69.5724 108.477 70.2249 109.167 70.2249 110.044V110.305H67.4658C67.5404 110.845 67.9878 111.218 68.6216 111.218C69.0504 111.218 69.4233 111.05 69.6283 110.715L70.1689 110.957C69.8707 111.498 69.3114 111.778 68.6403 111.778C67.5963 111.778 66.8134 111.088 66.8134 110.118H66.7761ZM69.5165 109.894C69.4792 109.391 69.0877 109.055 68.5098 109.055C67.9319 109.055 67.5404 109.428 67.4658 109.894H69.4978H69.5165ZM71.5484 107.135V111.703H70.8587V107.135H71.5484ZM73.1703 107.135V111.703H72.4806V107.135H73.1703ZM76.414 111.722C75.9293 111.722 75.7429 111.498 75.7429 111.125V108.011C75.7429 107.638 75.9107 107.415 76.414 107.415H79.0053V108.011H76.4699V109.26H78.8748V109.857H76.4699V111.106H79.0612V111.703H76.414V111.722ZM79.3781 110.137C79.3781 109.242 80.1983 108.496 81.1864 108.496C81.8202 108.496 82.3981 108.757 82.715 109.316L82.1371 109.615C81.9321 109.279 81.5779 109.093 81.1864 109.093C80.5712 109.093 80.0865 109.559 80.0865 110.137C80.0865 110.715 80.5898 111.181 81.1864 111.181C81.5965 111.181 81.9507 110.994 82.1371 110.659L82.715 110.939C82.3981 111.517 81.8202 111.759 81.1864 111.759C80.1983 111.759 79.3781 111.032 79.3781 110.118V110.137ZM82.8642 110.137C82.8642 109.242 83.6844 108.496 84.7097 108.496C85.735 108.496 86.5366 109.242 86.5366 110.137C86.5366 111.032 85.735 111.796 84.7097 111.796C83.6844 111.796 82.8642 111.05 82.8642 110.137ZM85.8469 110.137C85.8469 109.559 85.3622 109.093 84.7097 109.093C84.0573 109.093 83.5539 109.559 83.5539 110.137C83.5539 110.715 84.0573 111.181 84.7097 111.181C85.3622 111.181 85.8469 110.715 85.8469 110.137ZM89.6871 110.025H87.245V109.447H89.6871V110.025ZM96.5101 110.062V111.722H95.8204V110.174C95.8204 109.596 95.5035 109.111 94.8696 109.111C94.2358 109.111 93.9189 109.596 93.9189 110.174V111.74H93.2291V110.174C93.2291 109.596 92.9122 109.111 92.2784 109.111C91.6446 109.111 91.3463 109.615 91.3463 110.174V111.722H90.6565V110.081C90.6565 109.205 91.1972 108.496 92.2411 108.496C92.9309 108.496 93.4342 108.813 93.602 109.298C93.7884 108.813 94.2731 108.496 94.9442 108.496C95.9882 108.496 96.5474 109.205 96.5474 110.062H96.5101ZM96.9389 110.137C96.9389 109.242 97.7219 108.496 98.7845 108.496C99.8471 108.496 100.63 109.205 100.63 110.137V111.703H99.9589V111.144C99.6979 111.535 99.2319 111.778 98.6726 111.778C97.6659 111.778 96.9389 111.032 96.9389 110.118V110.137ZM99.9216 110.137C99.9216 109.559 99.4369 109.093 98.7845 109.093C98.132 109.093 97.6473 109.559 97.6473 110.137C97.6473 110.715 98.1506 111.181 98.7845 111.181C99.4183 111.181 99.9216 110.715 99.9216 110.137ZM101.264 111.722V109.857C101.264 109.093 101.749 108.533 102.643 108.533C102.867 108.533 103.091 108.571 103.259 108.645V109.279C103.091 109.186 102.886 109.149 102.699 109.149C102.233 109.149 101.954 109.428 101.954 109.894V111.74H101.264V111.722ZM103.221 110.137C103.221 109.242 104.004 108.496 105.067 108.496C106.129 108.496 106.912 109.205 106.912 110.137V111.703H106.241V111.144C105.98 111.535 105.514 111.778 104.955 111.778C103.948 111.778 103.221 111.032 103.221 110.118V110.137ZM106.204 110.137C106.204 109.559 105.701 109.093 105.067 109.093C104.433 109.093 103.93 109.559 103.93 110.137C103.93 110.715 104.433 111.181 105.067 111.181C105.701 111.181 106.204 110.715 106.204 110.137ZM107.807 110.584V109.13H107.117V108.589H107.807V107.769H108.497V108.589H109.821V109.13H108.497V110.566C108.497 110.976 108.758 111.218 109.187 111.218C109.41 111.218 109.653 111.144 109.821 111.032V111.61C109.653 111.722 109.373 111.796 109.112 111.796C108.255 111.796 107.789 111.311 107.789 110.584H107.807ZM110.51 111.722V107.154H111.2V108.944C111.461 108.682 111.89 108.515 112.356 108.515C113.363 108.515 113.94 109.13 113.94 110.081V111.722H113.251V110.155C113.251 109.596 112.915 109.111 112.263 109.111C111.647 109.111 111.219 109.559 111.219 110.174V111.722H110.529H110.51ZM114.369 110.137C114.369 109.242 115.189 108.496 116.215 108.496C117.24 108.496 118.042 109.242 118.042 110.137C118.042 111.032 117.24 111.796 116.215 111.796C115.189 111.796 114.369 111.05 114.369 110.137ZM117.352 110.137C117.352 109.559 116.867 109.093 116.215 109.093C115.562 109.093 115.059 109.559 115.059 110.137C115.059 110.715 115.562 111.181 116.215 111.181C116.867 111.181 117.352 110.715 117.352 110.137ZM119.179 110.193V111.703H118.489V110.118C118.489 109.205 119.086 108.477 120.204 108.477C121.323 108.477 121.938 109.186 121.938 110.1V111.684H121.248V110.174C121.248 109.577 120.894 109.074 120.204 109.074C119.514 109.074 119.197 109.577 119.197 110.155L119.179 110.193ZM125.293 107.937C125.443 107.526 125.778 107.34 126.17 107.34C126.561 107.34 126.915 107.526 127.064 107.937L128.351 111.703H127.624L127.269 110.659H125.07L124.716 111.703H123.989L125.275 107.937H125.293ZM125.275 110.081H127.083L126.449 108.142C126.393 108.011 126.319 107.937 126.188 107.937C126.039 107.937 125.965 107.993 125.927 108.142L125.293 110.081H125.275ZM128.593 111.088L129.134 110.827C129.301 111.144 129.6 111.256 129.973 111.256C130.345 111.256 130.662 111.106 130.662 110.827C130.662 110.174 128.686 110.659 128.686 109.466C128.686 108.906 129.227 108.515 129.973 108.515C130.606 108.515 131.054 108.776 131.278 109.149L130.737 109.428C130.588 109.149 130.308 109.055 129.991 109.055C129.674 109.055 129.376 109.205 129.376 109.466C129.376 110.1 131.352 109.633 131.352 110.827C131.352 111.423 130.718 111.796 129.991 111.796C129.357 111.796 128.854 111.572 128.593 111.106V111.088ZM131.893 107.545C131.893 107.321 132.098 107.116 132.359 107.116C132.62 107.116 132.806 107.303 132.806 107.545C132.806 107.788 132.601 107.955 132.359 107.955C132.116 107.955 131.893 107.769 131.893 107.545ZM132.694 108.571V111.703H132.005V108.571H132.694ZM133.272 110.137C133.272 109.242 134.055 108.496 135.118 108.496C136.18 108.496 136.963 109.205 136.963 110.137V111.703H136.292V111.144C136.031 111.535 135.565 111.778 135.006 111.778C133.999 111.778 133.272 111.032 133.272 110.118V110.137ZM136.255 110.137C136.255 109.559 135.752 109.093 135.118 109.093C134.484 109.093 133.981 109.559 133.981 110.137C133.981 110.715 134.484 111.181 135.118 111.181C135.752 111.181 136.255 110.715 136.255 110.137ZM139.461 111.722V107.433H140.971C142.239 107.433 143.059 107.955 143.059 108.944C143.059 109.932 142.22 110.472 141.009 110.472H140.188V111.703H139.461V111.722ZM140.188 108.03V109.876H140.99C141.773 109.876 142.332 109.596 142.332 108.944C142.332 108.291 141.792 108.03 140.99 108.03H140.188ZM143.227 110.137C143.227 109.242 144.01 108.496 145.073 108.496C146.135 108.496 146.918 109.205 146.918 110.137V111.703H146.247V111.144C145.986 111.535 145.52 111.778 144.961 111.778C143.954 111.778 143.227 111.032 143.227 110.118V110.137ZM146.21 110.137C146.21 109.559 145.706 109.093 145.073 109.093C144.439 109.093 143.935 109.559 143.935 110.137C143.935 110.715 144.439 111.181 145.073 111.181C145.706 111.181 146.21 110.715 146.21 110.137ZM147.328 110.137C147.328 109.242 148.149 108.496 149.137 108.496C149.77 108.496 150.348 108.757 150.665 109.316L150.087 109.615C149.882 109.279 149.528 109.093 149.137 109.093C148.521 109.093 148.037 109.559 148.037 110.137C148.037 110.715 148.54 111.181 149.137 111.181C149.547 111.181 149.882 110.994 150.087 110.659L150.665 110.939C150.348 111.517 149.77 111.759 149.137 111.759C148.149 111.759 147.328 111.032 147.328 110.118V110.137ZM151.057 107.545C151.057 107.321 151.262 107.116 151.523 107.116C151.784 107.116 151.97 107.303 151.97 107.545C151.97 107.788 151.765 107.955 151.523 107.955C151.28 107.955 151.057 107.769 151.057 107.545ZM151.877 108.571V111.703H151.187V108.571H151.877ZM153.033 111.722V109.13H152.38V108.589H153.033V108.254C153.033 107.582 153.499 107.098 154.356 107.098C154.58 107.098 154.804 107.135 154.99 107.21V107.825C154.822 107.732 154.617 107.676 154.431 107.676C154.002 107.676 153.741 107.843 153.741 108.272V108.589H155.866V111.722H155.177V109.13H153.76V111.722H153.07H153.033ZM156.314 110.137C156.314 109.242 157.134 108.496 158.122 108.496C158.756 108.496 159.334 108.757 159.651 109.316L159.073 109.615C158.868 109.279 158.514 109.093 158.122 109.093C157.507 109.093 157.022 109.559 157.022 110.137C157.022 110.715 157.526 111.181 158.122 111.181C158.532 111.181 158.886 110.994 159.073 110.659L159.651 110.939C159.334 111.517 158.756 111.759 158.122 111.759C157.134 111.759 156.314 111.032 156.314 110.118V110.137ZM69.0877 117.8C69.0877 116.905 69.8707 116.159 70.9333 116.159C71.9959 116.159 72.7788 116.868 72.7788 117.8V119.366H72.1077V118.807C71.8467 119.198 71.3807 119.441 70.8214 119.441C69.8147 119.441 69.0877 118.695 69.0877 117.781V117.8ZM72.0704 117.819C72.0704 117.241 71.5857 116.774 70.9333 116.774C70.2808 116.774 69.7961 117.241 69.7961 117.819C69.7961 118.397 70.2994 118.863 70.9333 118.863C71.5671 118.863 72.0704 118.397 72.0704 117.819ZM74.121 117.856V119.366H73.4313V117.781C73.4313 116.868 74.0278 116.141 75.1464 116.141C76.2649 116.141 76.8801 116.849 76.8801 117.763V119.348H76.1903V117.837C76.1903 117.241 75.8361 116.737 75.1464 116.737C74.4566 116.737 74.1397 117.241 74.1397 117.819L74.121 117.856ZM77.3088 117.819C77.3088 116.868 78.0732 116.159 79.1171 116.159C79.5832 116.159 80.0119 116.346 80.2916 116.625V114.798H81V117.819C81 118.751 80.1983 119.459 79.1544 119.459C78.1104 119.459 77.3088 118.732 77.3088 117.819ZM80.2916 117.819C80.2916 117.241 79.7882 116.774 79.1544 116.774C78.5206 116.774 78.0172 117.241 78.0172 117.819C78.0172 118.397 78.5206 118.863 79.1544 118.863C79.7882 118.863 80.2916 118.397 80.2916 117.819ZM86.518 115.693H85.0639V119.385H84.3369V115.693H82.8828V115.096H86.4994V115.693H86.518ZM86.8908 119.385V114.817H87.5806V116.607C87.8416 116.346 88.2704 116.178 88.7364 116.178C89.7431 116.178 90.321 116.793 90.321 117.744V119.385H89.6312V117.819C89.6312 117.259 89.2957 116.774 88.6432 116.774C88.028 116.774 87.5992 117.222 87.5992 117.837V119.385H86.9095H86.8908ZM90.7684 117.8C90.7684 116.905 91.4768 116.159 92.5207 116.159C93.5647 116.159 94.2172 116.849 94.2172 117.725V117.986H91.4581C91.5327 118.527 91.9801 118.9 92.6139 118.9C93.0427 118.9 93.4156 118.732 93.6206 118.397L94.1612 118.639C93.863 119.18 93.3037 119.459 92.6326 119.459C91.5886 119.459 90.8057 118.77 90.8057 117.8H90.7684ZM93.5088 117.558C93.4715 117.054 93.08 116.719 92.5021 116.719C91.9242 116.719 91.5327 117.091 91.4581 117.558H93.4901H93.5088ZM96.2305 119.385L96.9016 115.581C96.9575 115.208 97.2558 115.003 97.6473 115.003C97.9829 115.003 98.2811 115.152 98.3743 115.488L99.2878 118.471C99.2878 118.471 99.3251 118.546 99.3437 118.546C99.381 118.546 99.3997 118.527 99.4183 118.471L100.313 115.488C100.406 115.152 100.723 115.003 101.059 115.003C101.432 115.003 101.73 115.208 101.786 115.581L102.382 119.366H101.655L101.133 115.786C101.133 115.786 101.096 115.637 101.022 115.637C100.966 115.637 100.91 115.674 100.891 115.768L99.9216 118.844C99.8471 119.105 99.6234 119.236 99.3437 119.236C99.0827 119.236 98.859 119.105 98.7658 118.863L97.7964 115.768C97.7964 115.768 97.7405 115.637 97.6659 115.637C97.5914 115.637 97.5541 115.674 97.5354 115.786L96.9575 119.366H96.2305V119.385ZM102.942 115.208C102.942 114.985 103.147 114.779 103.408 114.779C103.669 114.779 103.855 114.966 103.855 115.208C103.855 115.451 103.65 115.618 103.408 115.618C103.165 115.618 102.942 115.432 102.942 115.208ZM103.762 116.252V119.385H103.072V116.252H103.762ZM104.321 117.819C104.321 116.868 105.085 116.159 106.129 116.159C106.595 116.159 107.024 116.346 107.304 116.625V114.798H108.012V117.819C108.012 118.751 107.211 119.459 106.167 119.459C105.123 119.459 104.321 118.732 104.321 117.819ZM107.304 117.819C107.304 117.241 106.801 116.774 106.167 116.774C105.533 116.774 105.03 117.241 105.03 117.819C105.03 118.397 105.533 118.863 106.167 118.863C106.801 118.863 107.304 118.397 107.304 117.819ZM108.441 117.819C108.441 116.868 109.205 116.159 110.249 116.159C110.715 116.159 111.144 116.346 111.424 116.625V114.798H112.132V117.819C112.132 118.751 111.331 119.459 110.287 119.459C109.243 119.459 108.441 118.732 108.441 117.819ZM111.424 117.819C111.424 117.241 110.939 116.774 110.287 116.774C109.634 116.774 109.149 117.241 109.149 117.819C109.149 118.397 109.653 118.863 110.287 118.863C110.92 118.863 111.424 118.397 111.424 117.819ZM113.605 114.798V119.366H112.915V114.798H113.605ZM114.164 117.8C114.164 116.905 114.873 116.159 115.916 116.159C116.96 116.159 117.613 116.849 117.613 117.725V117.986H114.854C114.928 118.527 115.376 118.9 116.01 118.9C116.438 118.9 116.811 118.732 117.016 118.397L117.557 118.639C117.259 119.18 116.699 119.459 116.028 119.459C114.984 119.459 114.201 118.77 114.201 117.8H114.164ZM116.923 117.558C116.886 117.054 116.494 116.719 115.916 116.719C115.339 116.719 114.947 117.091 114.873 117.558H116.905H116.923ZM120.558 119.385C120.074 119.385 119.887 119.161 119.887 118.788V115.674C119.887 115.302 120.055 115.078 120.558 115.078H123.15V115.674H120.614V116.924H123.019V117.52H120.614V118.77H123.206V119.366H120.558V119.385ZM123.522 117.8C123.522 116.905 124.305 116.159 125.368 116.159C126.431 116.159 127.214 116.868 127.214 117.8V119.366H126.542V118.807C126.281 119.198 125.815 119.441 125.256 119.441C124.249 119.441 123.522 118.695 123.522 117.781V117.8ZM126.505 117.819C126.505 117.241 126.002 116.774 125.368 116.774C124.734 116.774 124.231 117.241 124.231 117.819C124.231 118.397 124.734 118.863 125.368 118.863C126.002 118.863 126.505 118.397 126.505 117.819ZM127.698 118.751L128.239 118.49C128.407 118.807 128.705 118.919 129.078 118.919C129.451 118.919 129.768 118.77 129.768 118.49C129.768 117.837 127.791 118.322 127.791 117.129C127.791 116.569 128.332 116.178 129.078 116.178C129.712 116.178 130.159 116.439 130.383 116.812L129.842 117.091C129.693 116.812 129.413 116.719 129.096 116.719C128.779 116.719 128.481 116.868 128.481 117.129C128.481 117.763 130.457 117.297 130.457 118.49C130.457 119.086 129.823 119.459 129.096 119.459C128.463 119.459 127.959 119.236 127.698 118.77V118.751ZM131.203 118.247V116.793H130.513V116.252H131.203V115.432H131.893V116.252H133.216V116.793H131.893V118.229C131.893 118.639 132.154 118.881 132.582 118.881C132.806 118.881 133.049 118.807 133.216 118.695V119.273C133.049 119.385 132.769 119.459 132.508 119.459C131.65 119.459 131.184 118.975 131.184 118.247H131.203ZM136.013 119.385C135.584 119.385 135.36 119.161 135.36 118.881C135.36 118.676 135.453 118.508 135.658 118.341L137.057 117.203C137.448 116.886 137.653 116.644 137.653 116.29C137.653 115.898 137.299 115.637 136.833 115.637C136.367 115.637 135.994 115.898 135.77 116.29L135.211 116.01C135.528 115.432 136.106 115.022 136.87 115.022C137.746 115.022 138.362 115.563 138.362 116.252C138.362 116.774 138.101 117.166 137.672 117.52L136.274 118.639C136.274 118.639 136.18 118.714 136.18 118.751C136.18 118.77 136.18 118.788 136.218 118.788H138.492V119.385H135.994H136.013ZM138.865 117.222C138.865 115.973 139.629 115.003 140.766 115.003C141.903 115.003 142.668 115.954 142.668 117.222C142.668 118.49 141.903 119.459 140.766 119.459C139.629 119.459 138.865 118.471 138.865 117.222ZM141.922 117.222C141.922 116.346 141.437 115.674 140.766 115.674C140.095 115.674 139.611 116.346 139.611 117.222C139.611 118.098 140.095 118.788 140.766 118.788C141.437 118.788 141.922 118.098 141.922 117.222ZM144.327 119.385V115.842C144.327 115.842 144.327 115.805 144.29 115.805C144.252 115.805 144.234 115.824 144.196 115.842L143.115 116.402L142.798 115.786L144.01 115.171C144.196 115.078 144.383 115.003 144.569 115.003C144.868 115.003 145.054 115.19 145.054 115.507V119.366H144.327V119.385ZM149.193 116.476C149.193 116.886 149.025 117.222 148.764 117.651L147.72 119.385H146.9L147.794 117.912C147.683 117.949 147.552 117.949 147.422 117.949C146.527 117.949 145.781 117.371 145.781 116.513C145.781 115.656 146.508 114.985 147.496 114.985C148.484 114.985 149.211 115.637 149.211 116.439L149.193 116.476ZM146.471 116.513C146.471 117.017 146.9 117.408 147.477 117.408C148.093 117.408 148.484 116.942 148.484 116.495C148.484 115.973 148.037 115.6 147.477 115.6C146.918 115.6 146.471 115.991 146.471 116.513Z" fill="#EBAA01"/>
</g>
<defs>
<clipPath id="clip0_351_7076">
<rect width="218" height="120" fill="white"/>
</clipPath>
</defs>
</svg>
