<svg width="218" height="120" viewBox="0 0 218 120" fill="none" xmlns="http://www.w3.org/2000/svg">
<g clip-path="url(#clip0_351_7118)">
<path d="M51.2472 116.233C49.7932 117.762 41.5534 112.56 38.9062 108.086C38.9062 108.086 37.4335 105.624 37.1166 102.156C37.0793 101.839 37.1166 101.504 37.1725 101.187C37.2098 100.982 37.3216 100.795 37.5081 100.311C37.8809 100.441 38.291 100.516 38.6639 100.628C38.6639 100.628 39.2045 100.814 39.7265 101.094C45.2445 103.965 48.7306 109.782 48.7306 109.782C50.4083 112.579 52.0675 115.357 51.2472 116.233Z" fill="#EBAA01"/>
<path d="M27.5154 12.8838C27.9628 4.71722 38.1973 -1.80857 47.5556 0.447486C41.9443 6.56309 36.6127 12.4736 27.5154 12.8838Z" fill="#EBAA01"/>
<path d="M15.7524 85.9912C9.89884 78.1976 10.3835 69.4903 16.7218 64.2883C20.6553 71.6345 17.4675 78.4586 15.7524 85.9912Z" fill="#EBAA01"/>
<path d="M10.1598 70.87C6.61783 61.8271 9.43278 53.4182 16.8523 50.1553C18.6419 58.3218 13.7577 64.1205 10.1598 70.87Z" fill="#EBAA01"/>
<path d="M11.8564 38.4276C12.7326 29.5712 20.3572 22.9708 27.6276 24.5557C26.5277 29.7017 20.9165 34.68 11.8564 38.4276Z" fill="#EBAA01"/>
<path d="M8.94785 54.5556C7.66155 45.1958 13.1982 36.8614 20.7296 36.7495C20.0772 44.8601 14.1303 49.2231 8.94785 54.5556Z" fill="#EBAA01"/>
<path d="M38.1978 14.5804C33.4627 21.4231 26.0432 22.1689 19.071 24.164C20.3387 17.4517 31.0579 10.6276 38.1978 14.5804Z" fill="#EBAA01"/>
<path d="M20.4689 78.0857C25.9124 84.1267 24.8498 91.4729 25.0548 98.7445C17.4489 94.3629 15.361 82.6165 20.4689 78.0857Z" fill="#EBAA01"/>
<path d="M22.8177 99.919C15.2117 99.9563 7.77357 93.2441 6.07715 84.7979C14.3729 86.7183 18.791 93.039 22.8177 99.919Z" fill="#EBAA01"/>
<path d="M37.5635 109.466C28.8017 105.83 25.0174 98.6516 27.2358 90.0562C34.3384 94.6242 35.1959 102.026 37.5635 109.466Z" fill="#EBAA01"/>
<path d="M50.5758 117.8C45.0391 122.61 32.6422 118.806 28.6155 113.25C36.7807 110.603 43.6782 114.276 50.5758 117.8Z" fill="#EBAA01"/>
<path d="M5.72235 30.895C10.1964 38.3717 8.81693 45.8857 6.84087 53.4183C1.41604 49.2418 0.89406 39.6023 5.72235 30.895Z" fill="#EBAA01"/>
<path d="M14.9883 15.3074C17.505 23.5485 13.702 30.3726 10.1414 37.0849C5.83505 32.088 8.2958 20.6026 14.9883 15.3074Z" fill="#EBAA01"/>
<path d="M8.03454 70.3851C1.32341 66.768 -1.84574 56.9606 1.0997 48.8687C7.60577 54.7232 7.38207 62.7033 8.03454 70.3851Z" fill="#EBAA01"/>
<path d="M17.4676 22.4487C14.7832 16.1093 20.6927 5.40704 28.4478 2.27466C26.8073 7.51394 27.0683 13.0142 22.3705 16.7619C20.5063 18.2535 19.2013 20.4164 17.4676 22.4673V22.4487Z" fill="#EBAA01"/>
<path d="M1.11796 67.1038C8.76119 71.1684 11.1101 78.4959 13.3099 85.7862C6.7665 85.32 0.577339 75.9975 1.11796 67.1038Z" fill="#EBAA01"/>
<path d="M35.6435 110.771C28.0003 112.728 19.8723 108.533 14.9695 99.8074C19.2758 101.019 23.3398 101.523 26.714 103.294C29.995 105.028 32.5489 108.104 35.6621 110.771H35.6435Z" fill="#EBAA01"/>
<path d="M166.753 116.233C168.207 117.762 176.447 112.56 179.094 108.086C179.094 108.086 180.567 105.624 180.884 102.156C180.921 101.839 180.884 101.504 180.828 101.187C180.791 100.982 180.679 100.795 180.492 100.311C180.12 100.441 179.709 100.516 179.337 100.628C179.337 100.628 178.796 100.814 178.274 101.094C172.756 103.965 169.27 109.782 169.27 109.782C167.592 112.579 165.933 115.357 166.753 116.233Z" fill="#EBAA01"/>
<path d="M190.485 12.8835C190.037 4.71697 179.803 -1.80882 170.444 0.447242C176.056 6.56284 181.387 12.4733 190.485 12.8835Z" fill="#EBAA01"/>
<path d="M202.248 85.9908C208.101 78.1971 207.617 69.4898 201.278 64.2878C197.345 71.634 200.533 78.4581 202.248 85.9908Z" fill="#EBAA01"/>
<path d="M207.84 70.8695C211.382 61.8266 208.568 53.4177 201.148 50.1548C199.358 58.3213 204.243 64.12 207.84 70.8695Z" fill="#EBAA01"/>
<path d="M206.144 38.4274C205.268 29.5709 197.643 22.9706 190.373 24.5554C191.473 29.7015 197.084 34.6797 206.144 38.4274Z" fill="#EBAA01"/>
<path d="M209.052 54.5554C210.338 45.1955 204.801 36.8611 197.27 36.7493C197.922 44.8599 203.869 49.2229 209.052 54.5554Z" fill="#EBAA01"/>
<path d="M179.803 14.5801C184.538 21.4229 191.957 22.1687 198.929 24.1637C197.662 17.4515 186.943 10.6274 179.803 14.5801Z" fill="#EBAA01"/>
<path d="M197.531 78.0854C192.088 84.1265 193.15 91.4726 192.945 98.7442C200.551 94.3626 202.639 82.6162 197.531 78.0854Z" fill="#EBAA01"/>
<path d="M195.182 99.9188C202.788 99.9561 210.227 93.2438 211.923 84.7976C203.627 86.7181 199.209 93.0388 195.182 99.9188Z" fill="#EBAA01"/>
<path d="M180.436 109.465C189.198 105.829 192.982 98.6511 190.764 90.0557C183.661 94.6237 182.804 102.026 180.436 109.465Z" fill="#EBAA01"/>
<path d="M167.424 117.8C172.961 122.61 185.358 118.806 189.385 113.25C181.219 110.603 174.322 114.276 167.424 117.8Z" fill="#EBAA01"/>
<path d="M212.277 30.8948C207.803 38.3715 209.182 45.8855 211.158 53.4181C216.583 49.2416 217.105 39.602 212.277 30.8948Z" fill="#EBAA01"/>
<path d="M203.011 15.3074C200.495 23.5485 204.298 30.3726 207.858 37.0849C212.165 32.088 209.704 20.6026 203.011 15.3074Z" fill="#EBAA01"/>
<path d="M209.965 70.3849C216.676 66.7677 219.846 56.9604 216.9 48.8684C210.394 54.723 210.618 62.7031 209.965 70.3849Z" fill="#EBAA01"/>
<path d="M200.533 22.4482C203.217 16.1088 197.308 5.40655 189.553 2.27417C191.193 7.51345 190.932 13.0138 195.63 16.7614C197.494 18.253 198.799 20.4159 200.533 22.4668V22.4482Z" fill="#EBAA01"/>
<path d="M216.881 67.1038C209.238 71.1684 206.889 78.4959 204.689 85.7862C211.232 85.32 217.421 75.9975 216.881 67.1038Z" fill="#EBAA01"/>
<path d="M182.374 110.771C190.018 112.728 198.146 108.533 203.048 99.8074C198.742 101.019 194.678 101.523 191.304 103.294C188.023 105.028 185.469 108.104 182.356 110.771H182.374Z" fill="#EBAA01"/>
<path d="M58.3687 115.824V111.535H59.0957V113.381H59.7854C59.8414 113.232 59.9346 113.083 60.0651 112.934L61.3887 111.535H62.2089L60.7362 113.139C60.5498 113.344 60.4379 113.512 60.4379 113.68C60.4379 113.847 60.5498 113.997 60.7362 114.202L62.2648 115.824H61.37L60.0651 114.426C59.9346 114.276 59.8414 114.127 59.7854 113.978H59.0957V115.824H58.3687ZM62.0784 114.258C62.0784 113.363 62.8987 112.617 63.924 112.617C64.9493 112.617 65.7509 113.363 65.7509 114.258C65.7509 115.153 64.9493 115.917 63.924 115.917C62.8987 115.917 62.0784 115.171 62.0784 114.258ZM65.0611 114.258C65.0611 113.68 64.5765 113.213 63.924 113.213C63.2715 113.213 62.7682 113.68 62.7682 114.258C62.7682 114.836 63.2715 115.302 63.924 115.302C64.5765 115.302 65.0611 114.836 65.0611 114.258ZM66.8881 114.314V115.824H66.1983V114.239C66.1983 113.325 66.7949 112.598 67.9134 112.598C69.0319 112.598 69.6471 113.307 69.6471 114.22V115.805H68.9573V114.295C68.9573 113.698 68.6031 113.195 67.9134 113.195C67.2236 113.195 66.9067 113.698 66.9067 114.276L66.8881 114.314ZM70.5419 114.705V113.251H69.8522V112.71H70.5419V111.889H71.2317V112.71H72.5552V113.251H71.2317V114.687C71.2317 115.097 71.4927 115.339 71.9214 115.339C72.1451 115.339 72.3875 115.265 72.5552 115.153V115.731C72.3875 115.843 72.1078 115.917 71.8468 115.917C70.9893 115.917 70.5233 115.433 70.5233 114.705H70.5419ZM72.8349 114.239C72.8349 113.344 73.5433 112.598 74.5872 112.598C75.6312 112.598 76.2836 113.288 76.2836 114.164V114.426H73.5246C73.5992 114.966 74.0466 115.339 74.6804 115.339C75.1092 115.339 75.482 115.171 75.6871 114.817L76.2277 115.06C75.9295 115.6 75.3702 115.88 74.6991 115.88C73.6551 115.88 72.8722 115.19 72.8722 114.22L72.8349 114.239ZM75.5753 114.015C75.538 113.512 75.1465 113.176 74.5686 113.176C73.9907 113.176 73.5992 113.549 73.5246 114.015H75.5566H75.5753ZM76.5819 115.209L77.1225 114.948C77.2903 115.265 77.5886 115.377 77.9614 115.377C78.3343 115.377 78.6512 115.227 78.6512 114.948C78.6512 114.295 76.6751 114.78 76.6751 113.586C76.6751 113.046 77.2158 112.635 77.9614 112.635C78.5953 112.635 79.0427 112.896 79.2664 113.269L78.7258 113.549C78.5766 113.269 78.297 113.176 77.9801 113.176C77.6632 113.176 77.3649 113.325 77.3649 113.586C77.3649 114.22 79.3409 113.754 79.3409 114.948C79.3409 115.544 78.7071 115.917 77.9801 115.917C77.3463 115.917 76.8429 115.694 76.5819 115.227V115.209ZM81.3916 115.843L82.0627 112.039C82.1186 111.666 82.4169 111.479 82.8084 111.479C83.1439 111.479 83.4422 111.628 83.5354 111.964L84.4489 114.948C84.4489 114.948 84.4862 115.022 84.5048 115.022C84.5421 115.022 84.5607 115.004 84.5794 114.948L85.4742 111.964C85.5674 111.628 85.8843 111.479 86.2199 111.479C86.5927 111.479 86.891 111.684 86.9469 112.057L87.5434 115.843H86.8164L86.2944 112.262C86.2944 112.262 86.2571 112.113 86.1826 112.113C86.1266 112.113 86.0707 112.15 86.0521 112.244L85.0827 115.321C85.0081 115.582 84.7844 115.712 84.5048 115.712C84.2438 115.712 84.0201 115.582 83.9269 115.339L82.9575 112.244C82.9575 112.244 82.9016 112.113 82.827 112.113C82.7524 112.113 82.7152 112.15 82.6965 112.262L82.1186 115.843H81.3916ZM87.8604 114.258C87.8604 113.363 88.6806 112.617 89.7059 112.617C90.7312 112.617 91.5328 113.363 91.5328 114.258C91.5328 115.153 90.7312 115.917 89.7059 115.917C88.6806 115.917 87.8604 115.171 87.8604 114.258ZM90.8431 114.258C90.8431 113.68 90.3397 113.213 89.7059 113.213C89.0721 113.213 88.5501 113.68 88.5501 114.258C88.5501 114.836 89.0534 115.302 89.7059 115.302C90.3584 115.302 90.8431 114.836 90.8431 114.258ZM91.9802 114.258V111.237H92.67V113.064C92.9496 112.784 93.3784 112.598 93.8445 112.598C94.8884 112.598 95.6527 113.307 95.6527 114.258C95.6527 115.153 94.8698 115.899 93.8258 115.899C92.7819 115.899 91.9802 115.19 91.9802 114.258ZM94.963 114.258C94.963 113.68 94.4783 113.213 93.8258 113.213C93.1733 113.213 92.6886 113.68 92.6886 114.258C92.6886 114.836 93.1733 115.302 93.8258 115.302C94.4783 115.302 94.963 114.836 94.963 114.258ZM96.1188 111.647C96.1188 111.423 96.3238 111.218 96.5848 111.218C96.8458 111.218 97.0322 111.404 97.0322 111.647C97.0322 111.889 96.8272 112.057 96.5848 112.057C96.3425 112.057 96.1188 111.871 96.1188 111.647ZM96.939 112.691V115.824H96.2493V112.691H96.939ZM98.5236 111.255V115.824H97.8338V111.255H98.5236ZM101.171 115.824V111.535H101.898V113.381H104.396V111.535H105.123V115.824H104.396V113.978H101.898V115.824H101.171ZM105.757 114.239C105.757 113.344 106.465 112.598 107.509 112.598C108.553 112.598 109.205 113.288 109.205 114.164V114.426H106.446C106.521 114.966 106.968 115.339 107.602 115.339C108.031 115.339 108.404 115.171 108.609 114.817L109.15 115.06C108.851 115.6 108.292 115.88 107.621 115.88C106.577 115.88 105.794 115.19 105.794 114.22L105.757 114.239ZM108.497 114.015C108.46 113.512 108.068 113.176 107.49 113.176C106.913 113.176 106.521 113.549 106.446 114.015H108.478H108.497ZM115.581 114.183V115.843H114.891V114.295C114.891 113.736 114.574 113.232 113.941 113.232C113.307 113.232 112.99 113.717 112.99 114.295V115.861H112.3V114.295C112.3 113.717 111.983 113.232 111.349 113.232C110.715 113.232 110.417 113.736 110.417 114.295V115.843H109.727V114.202C109.727 113.325 110.287 112.617 111.312 112.617C112.002 112.617 112.505 112.934 112.673 113.419C112.859 112.934 113.344 112.617 114.015 112.617C115.059 112.617 115.618 113.325 115.618 114.183H115.581ZM116.01 114.258C116.01 113.363 116.793 112.617 117.855 112.617C118.918 112.617 119.701 113.325 119.701 114.258V115.824H119.03V115.283C118.769 115.675 118.303 115.917 117.744 115.917C116.737 115.917 116.01 115.171 116.01 114.258ZM118.993 114.258C118.993 113.68 118.489 113.213 117.855 113.213C117.222 113.213 116.718 113.68 116.718 114.258C116.718 114.836 117.222 115.302 117.855 115.302C118.489 115.302 118.993 114.836 118.993 114.258ZM120.596 114.705V113.251H119.906V112.71H120.596V111.889H121.286V112.71H122.609V113.251H121.286V114.687C121.286 115.097 121.547 115.339 121.975 115.339C122.199 115.339 122.441 115.265 122.609 115.153V115.731C122.441 115.843 122.162 115.917 121.901 115.917C121.043 115.917 120.577 115.433 120.577 114.705H120.596ZM125.629 115.824C125.144 115.824 124.958 115.6 124.958 115.227V112.113C124.958 111.74 125.126 111.516 125.629 111.516H128.22V112.113H125.685V113.363H128.09V113.959H125.685V115.209H128.276V115.805H125.629V115.824ZM129.507 114.314V115.824H128.817V114.239C128.817 113.325 129.413 112.598 130.532 112.598C131.651 112.598 132.266 113.307 132.266 114.22V115.805H131.576V114.295C131.576 113.698 131.222 113.195 130.532 113.195C129.842 113.195 129.525 113.698 129.525 114.276L129.507 114.314ZM132.694 114.239C132.694 113.344 133.403 112.598 134.447 112.598C135.491 112.598 136.143 113.288 136.143 114.164V114.426H133.384C133.459 114.966 133.906 115.339 134.54 115.339C134.969 115.339 135.342 115.171 135.547 114.817L136.087 115.06C135.789 115.6 135.23 115.88 134.559 115.88C133.515 115.88 132.732 115.19 132.732 114.22L132.694 114.239ZM135.435 114.015C135.398 113.512 135.006 113.176 134.428 113.176C133.85 113.176 133.459 113.549 133.384 114.015H135.416H135.435ZM136.628 115.824V113.959C136.628 113.195 137.113 112.635 138.007 112.635C138.231 112.635 138.455 112.673 138.623 112.747V113.381C138.455 113.288 138.25 113.251 138.063 113.251C137.597 113.251 137.318 113.549 137.318 113.997V115.843H136.628V115.824ZM138.66 116.495L139.238 116.216C139.443 116.551 139.816 116.775 140.319 116.775C141.046 116.775 141.531 116.309 141.531 115.563V115.321C141.307 115.638 140.878 115.899 140.3 115.899C139.312 115.899 138.548 115.19 138.548 114.276C138.548 113.363 139.331 112.635 140.394 112.635C141.456 112.635 142.239 113.344 142.239 114.276V115.563C142.239 116.645 141.438 117.353 140.338 117.353C139.592 117.353 138.977 117.055 138.66 116.495ZM141.549 114.239C141.549 113.661 141.046 113.213 140.412 113.213C139.778 113.213 139.275 113.661 139.275 114.239C139.275 114.817 139.797 115.283 140.412 115.283C141.027 115.283 141.549 114.817 141.549 114.239ZM142.929 111.647C142.929 111.423 143.134 111.218 143.395 111.218C143.656 111.218 143.842 111.404 143.842 111.647C143.842 111.889 143.637 112.057 143.395 112.057C143.153 112.057 142.929 111.871 142.929 111.647ZM143.749 112.691V115.824H143.059V112.691H143.749ZM146.769 115.824C146.34 115.824 146.117 115.6 146.117 115.321C146.117 115.115 146.21 114.948 146.415 114.78L147.813 113.642C148.205 113.325 148.41 113.083 148.41 112.729C148.41 112.337 148.055 112.076 147.589 112.076C147.123 112.076 146.751 112.337 146.527 112.729L145.968 112.449C146.285 111.871 146.862 111.46 147.627 111.46C148.503 111.46 149.118 112.001 149.118 112.691C149.118 113.213 148.857 113.605 148.428 113.959L147.03 115.078C147.03 115.078 146.937 115.153 146.937 115.19C146.937 115.209 146.937 115.227 146.974 115.227H149.249V115.824H146.751H146.769ZM149.621 113.68C149.621 112.43 150.386 111.46 151.523 111.46C152.66 111.46 153.424 112.412 153.424 113.68C153.424 114.948 152.66 115.917 151.523 115.917C150.386 115.917 149.621 114.929 149.621 113.68ZM152.679 113.68C152.679 112.803 152.194 112.132 151.523 112.132C150.852 112.132 150.367 112.803 150.367 113.68C150.367 114.556 150.852 115.246 151.523 115.246C152.194 115.246 152.679 114.556 152.679 113.68ZM155.065 115.824V112.3C155.065 112.3 155.065 112.262 155.028 112.262C154.99 112.262 154.972 112.281 154.934 112.3L153.853 112.859L153.536 112.244L154.748 111.628C154.934 111.535 155.121 111.479 155.307 111.479C155.606 111.479 155.792 111.666 155.792 111.983V115.843H155.065V115.824ZM159.949 112.915C159.949 113.325 159.781 113.661 159.52 114.09L158.476 115.824H157.656L158.551 114.351C158.439 114.388 158.309 114.388 158.178 114.388C157.283 114.388 156.538 113.81 156.538 112.952C156.538 112.094 157.265 111.423 158.253 111.423C159.241 111.423 159.968 112.076 159.968 112.878L159.949 112.915ZM157.227 112.952C157.227 113.456 157.656 113.847 158.234 113.847C158.849 113.847 159.241 113.381 159.241 112.934C159.241 112.411 158.793 112.039 158.234 112.039C157.675 112.039 157.227 112.43 157.227 112.952Z" fill="#EBAA01"/>
<path d="M36.6316 22.374H43.3241L46.4746 37.5139L49.2336 26.4946C50.0352 23.2503 51.7316 21.8706 54.3415 21.8706C56.9514 21.8706 58.6478 23.2503 59.4494 26.4946L62.2085 37.5139L65.359 22.374H72.0515L67.7079 40.8886C67.0927 43.5362 65.1353 45.0092 62.4881 45.0092C60.1019 45.0092 57.9581 43.5735 57.3429 41.1497L54.3415 29.1795L51.3402 41.1497C50.725 43.5735 48.5811 45.0092 46.195 45.0092C43.5478 45.0092 41.5904 43.5362 40.9752 40.8886L36.6316 22.374ZM80.1794 22.374V44.5058H73.4869V22.374H80.1794ZM83.9824 44.5058V25.6369C83.9824 23.269 86.0143 21.8706 88.1395 21.8706C89.836 21.8706 91.3273 22.3927 92.2035 23.6419L100.816 36.0036V22.4113H107.154V41.2802C107.154 43.6481 105.122 45.0092 102.997 45.0092C101.338 45.0092 99.8095 44.4871 98.9333 43.2379L90.3207 30.8762V44.5058H83.9824ZM110.771 44.5058V25.6369C110.771 23.269 112.803 21.8706 114.928 21.8706C116.625 21.8706 118.116 22.3927 118.992 23.6419L127.605 36.0036V22.4113H133.943V41.2802C133.943 43.6481 131.911 45.0092 129.786 45.0092C128.127 45.0092 126.598 44.4871 125.722 43.2379L117.109 30.8762V44.5058H110.771ZM143.189 44.5058C139.07 44.5058 137.392 42.548 137.392 39.4343V27.4641C137.392 24.3504 139.051 22.3927 143.189 22.3927H155.717V27.7998H144.084V30.7457H154.878V36.1528H144.084V39.0987H155.885V44.5058H143.171H143.189ZM158.793 44.5058V22.374H169.046C174.844 22.374 179.262 24.8352 179.262 29.7202C179.262 32.6288 177.454 35.0341 174.583 35.8544C175.813 36.5816 176.615 37.8495 177.696 39.8445L180.194 44.5058H172.924L170.649 40.3479C169.81 38.8377 168.878 38.2783 166.697 38.2783H165.467L165.429 44.5058H158.812H158.793ZM165.485 27.9489L165.448 32.8899H169.027C170.985 32.8899 172.364 31.9017 172.364 30.3355C172.364 28.6574 170.985 27.9489 169.102 27.9489H165.485Z" fill="#EBAA01"/>
<path d="M34.4131 66.6379V51.5726H42.7461V66.4514C42.7461 70.6838 44.5544 72.4365 48.2268 72.4365C51.8993 72.4365 53.7635 70.6838 53.7635 66.4514V51.5726H62.0965V66.6379C62.0965 74.7858 57.7343 79.5589 48.2268 79.5589C38.7194 79.5589 34.4131 74.7858 34.4131 66.6379ZM66.3655 79.0555V51.5539H79.0981C86.2939 51.5539 91.7933 54.6117 91.7933 60.6714C91.7933 64.3072 89.5376 67.2718 85.9956 68.2973C87.5243 69.1922 88.5123 70.7771 89.8731 73.2755L92.9864 79.0555H83.945L81.1114 73.8908C80.0674 72.0076 78.9116 71.3178 76.2085 71.3178H74.6799L74.6426 79.0555H66.4028H66.3655ZM74.6985 58.4899L74.6612 64.6428H79.1167C81.5402 64.6428 83.2552 63.4122 83.2552 61.4545C83.2552 59.3849 81.5402 58.4899 79.2099 58.4899H74.7172H74.6985ZM96.1182 79.0555V51.5539H108.851C116.494 51.5539 121.099 54.6117 121.099 59.329C121.099 62.2935 119.383 64.3445 116.736 65.4073C119.439 66.2277 121.322 67.9244 121.322 71.2805C121.322 76.4079 116.289 79.0555 108.851 79.0555H96.1182ZM104.451 62.4427H109.317C111.666 62.4427 112.784 61.5477 112.784 59.9629C112.784 58.5832 111.703 57.6882 109.317 57.6882H104.451V62.4613V62.4427ZM104.451 72.9399H109.317C111.666 72.9399 113.008 72.3246 113.008 70.7398C113.008 69.0244 111.666 68.5396 109.317 68.5396H104.451V72.9399ZM129.842 55.9169C130.96 52.5421 134.111 50.9387 137.261 50.9387C140.412 50.9387 143.562 52.5235 144.681 55.9169L152.51 79.0555H144.01L142.611 74.4129H131.948L130.513 79.0555H122.012L129.842 55.9169ZM134.017 67.7006H140.542L137.671 58.1357C137.578 57.856 137.485 57.7255 137.317 57.7255C137.149 57.7255 137.038 57.856 136.963 58.1357L134.036 67.7006H134.017ZM154.337 79.0555V55.5813C154.337 52.654 156.854 50.9014 159.52 50.9014C161.626 50.9014 163.472 51.5539 164.553 53.1015L175.272 68.4651V51.5539H183.139V75.0282C183.139 77.9554 180.623 79.6708 177.957 79.6708C175.888 79.6708 174.005 79.0182 172.923 77.4707L162.204 62.1071V79.0555H154.337Z" fill="#EBAA01"/>
<path d="M68.7523 104.375H60.96V85.2454H68.8455C75.6872 85.2454 80.2358 89.049 80.2358 94.829C80.2358 100.609 75.4075 104.375 68.7337 104.375H68.7523ZM68.8455 89.0863H65.5459V100.646H68.7523C72.7044 100.646 75.538 98.4089 75.538 94.829C75.538 91.2492 72.8349 89.0863 68.8455 89.0863ZM87.5062 85.2454V104.375H82.9203V85.2454H87.5062ZM95.28 104.375C92.3532 104.375 91.2346 103.014 91.2346 100.814V88.8253C91.2346 86.6438 92.3718 85.2454 95.28 85.2454H106.465V88.9745H95.8206V92.9459H105.813V96.6749H95.8206V100.646H106.652V104.375H95.28ZM108.162 100.572L112.002 98.8377C112.692 100.236 114.164 100.945 116.364 100.945C118.34 100.945 119.85 100.199 119.85 98.8377C119.85 97.2529 118.191 96.9919 115.991 96.6563C112.822 96.1715 108.516 95.146 108.516 90.839C108.516 87.4829 111.853 84.9285 116.215 84.9285C119.701 84.9285 122.721 86.3828 124.063 89.105L120.223 90.839C119.533 89.6084 118.154 88.7694 116.01 88.7694C114.276 88.7694 113.083 89.5152 113.083 90.6712C113.083 92.2001 114.835 92.6103 117.128 92.9832C120.26 93.4679 124.417 94.4934 124.417 98.8377C124.417 102.268 120.838 104.786 116.345 104.786C112.542 104.786 109.504 103.331 108.143 100.609L108.162 100.572ZM130.83 104.375C127.904 104.375 126.785 103.014 126.785 100.814V88.8253C126.785 86.6438 127.922 85.2454 130.83 85.2454H142.016V88.9745H131.371V92.9459H141.363V96.6749H131.371V100.646H142.202V104.375H130.83ZM149.696 100.534H159.558V104.375H149.155C146.229 104.375 145.11 103.014 145.11 100.814V85.2454H149.696V100.534Z" fill="#EBAA01"/>
</g>
<defs>
<clipPath id="clip0_351_7118">
<rect width="218" height="120" fill="white"/>
</clipPath>
</defs>
</svg>
