<svg width="218" height="120" viewBox="0 0 218 120" fill="none" xmlns="http://www.w3.org/2000/svg">
<g clip-path="url(#clip0_351_7034)">
<path d="M51.247 116.233C49.7929 117.762 41.5531 112.56 38.906 108.085C38.906 108.085 37.4332 105.624 37.1163 102.156C37.079 101.839 37.1163 101.504 37.1723 101.187C37.2095 100.982 37.3214 100.795 37.5078 100.31C37.8807 100.441 38.2908 100.515 38.6636 100.627C38.6636 100.627 39.2042 100.814 39.7262 101.093C45.2443 103.965 48.7303 109.782 48.7303 109.782C50.4081 112.579 52.0672 115.357 51.247 116.233Z" fill="#EBAA01"/>
<path d="M27.5149 12.8835C27.9623 4.71697 38.1968 -1.80882 47.5551 0.447242C41.9438 6.56284 36.6122 12.4733 27.5149 12.8835Z" fill="#EBAA01"/>
<path d="M15.7522 85.9905C9.89859 78.1969 10.3833 69.4896 16.7216 64.2876C20.6551 71.6338 17.4673 78.4579 15.7522 85.9905Z" fill="#EBAA01"/>
<path d="M10.1593 70.8693C6.61734 61.8264 9.43229 53.4174 16.8518 50.1545C18.6415 58.3211 13.7572 64.1197 10.1593 70.8693Z" fill="#EBAA01"/>
<path d="M11.8557 38.4274C12.7319 29.5709 20.3565 22.9706 27.6269 24.5554C26.527 29.7015 20.9157 34.6797 11.8557 38.4274Z" fill="#EBAA01"/>
<path d="M8.94712 54.5554C7.66082 45.1955 13.1975 36.8611 20.7289 36.7493C20.0764 44.8599 14.1296 49.2229 8.94712 54.5554Z" fill="#EBAA01"/>
<path d="M38.1973 14.5799C33.4622 21.4226 26.0427 22.1685 19.0706 24.1635C20.3382 17.4512 31.0574 10.6271 38.1973 14.5799Z" fill="#EBAA01"/>
<path d="M20.4684 78.0852C25.9119 84.1262 24.8493 91.4724 25.0544 98.744C17.4484 94.3624 15.3605 82.616 20.4684 78.0852Z" fill="#EBAA01"/>
<path d="M22.8174 99.9186C15.2115 99.9558 7.77333 93.2436 6.0769 84.7974C14.3726 86.7178 18.7908 93.0385 22.8174 99.9186Z" fill="#EBAA01"/>
<path d="M37.5632 109.465C28.8015 105.829 25.0171 98.6508 27.2355 90.0554C34.3381 94.6235 35.1957 102.026 37.5632 109.465Z" fill="#EBAA01"/>
<path d="M50.5753 117.799C45.0386 122.61 32.6417 118.806 28.615 113.25C36.7802 110.602 43.6778 114.275 50.5753 117.799Z" fill="#EBAA01"/>
<path d="M5.7221 30.8948C10.1962 38.3715 8.81668 45.8855 6.84063 53.4181C1.41579 49.2416 0.893815 39.602 5.7221 30.8948Z" fill="#EBAA01"/>
<path d="M14.9876 15.3071C17.5042 23.5483 13.7013 30.3724 10.1406 37.0846C5.83432 32.0877 8.29507 20.6023 14.9876 15.3071Z" fill="#EBAA01"/>
<path d="M8.03503 70.3844C1.3239 66.7672 -1.84525 56.9599 1.10019 48.8679C7.60626 54.7225 7.38256 62.7026 8.03503 70.3844Z" fill="#EBAA01"/>
<path d="M17.4669 22.4482C14.7824 16.1088 20.692 5.40655 28.447 2.27417C26.8065 7.51345 27.0675 13.0138 22.3697 16.7614C20.5055 18.253 19.2006 20.4159 17.4669 22.4668V22.4482Z" fill="#EBAA01"/>
<path d="M1.11747 67.1035C8.76071 71.1682 11.1096 78.4957 13.3094 85.7859C6.76601 85.3198 0.576851 75.9972 1.11747 67.1035Z" fill="#EBAA01"/>
<path d="M35.643 110.77C27.9998 112.728 19.8719 108.533 14.969 99.8071C19.2753 101.019 23.3393 101.522 26.7135 103.294C29.9945 105.028 32.5484 108.104 35.6617 110.77H35.643Z" fill="#EBAA01"/>
<path d="M166.753 116.233C168.207 117.762 176.447 112.56 179.094 108.085C179.094 108.085 180.567 105.624 180.884 102.156C180.921 101.839 180.884 101.504 180.828 101.187C180.79 100.982 180.679 100.795 180.492 100.31C180.119 100.441 179.709 100.515 179.336 100.627C179.336 100.627 178.796 100.814 178.274 101.093C172.756 103.965 169.27 109.782 169.27 109.782C167.592 112.579 165.933 115.357 166.753 116.233Z" fill="#EBAA01"/>
<path d="M190.485 12.8835C190.037 4.71697 179.803 -1.80882 170.444 0.447242C176.056 6.56284 181.387 12.4733 190.485 12.8835Z" fill="#EBAA01"/>
<path d="M202.248 85.9905C208.102 78.1969 207.617 69.4896 201.279 64.2876C197.346 71.6338 200.533 78.4579 202.248 85.9905Z" fill="#EBAA01"/>
<path d="M207.84 70.8695C211.382 61.8266 208.567 53.4177 201.147 50.1548C199.358 58.3213 204.242 64.12 207.84 70.8695Z" fill="#EBAA01"/>
<path d="M206.144 38.4274C205.268 29.5709 197.643 22.9706 190.373 24.5554C191.473 29.7015 197.084 34.6797 206.144 38.4274Z" fill="#EBAA01"/>
<path d="M209.051 54.5554C210.338 45.1955 204.801 36.8611 197.27 36.7493C197.922 44.8599 203.869 49.2229 209.051 54.5554Z" fill="#EBAA01"/>
<path d="M179.803 14.5799C184.538 21.4226 191.958 22.1685 198.93 24.1635C197.662 17.4512 186.943 10.6271 179.803 14.5799Z" fill="#EBAA01"/>
<path d="M197.531 78.0854C192.088 84.1265 193.15 91.4726 192.945 98.7442C200.551 94.3626 202.639 82.6162 197.531 78.0854Z" fill="#EBAA01"/>
<path d="M195.183 99.9186C202.789 99.9558 210.227 93.2436 211.923 84.7974C203.627 86.7178 199.209 93.0385 195.183 99.9186Z" fill="#EBAA01"/>
<path d="M180.436 109.465C189.198 105.829 192.982 98.6508 190.764 90.0554C183.661 94.6235 182.804 102.026 180.436 109.465Z" fill="#EBAA01"/>
<path d="M167.425 117.799C172.961 122.61 185.358 118.806 189.385 113.25C181.22 110.602 174.322 114.275 167.425 117.799Z" fill="#EBAA01"/>
<path d="M212.277 30.8948C207.803 38.3715 209.183 45.8855 211.159 53.4181C216.584 49.2416 217.106 39.602 212.277 30.8948Z" fill="#EBAA01"/>
<path d="M203.011 15.3071C200.495 23.5483 204.298 30.3724 207.858 37.0846C212.164 32.0877 209.704 20.6023 203.011 15.3071Z" fill="#EBAA01"/>
<path d="M209.965 70.3846C216.676 66.7675 219.845 56.9601 216.9 48.8682C210.394 54.7227 210.617 62.7028 209.965 70.3846Z" fill="#EBAA01"/>
<path d="M200.533 22.4482C203.217 16.1088 197.308 5.40655 189.553 2.27417C191.193 7.51345 190.932 13.0138 195.63 16.7614C197.494 18.253 198.799 20.4159 200.533 22.4668V22.4482Z" fill="#EBAA01"/>
<path d="M216.882 67.1035C209.238 71.1682 206.889 78.4957 204.69 85.7859C211.233 85.3198 217.422 75.9972 216.882 67.1035Z" fill="#EBAA01"/>
<path d="M182.375 110.77C190.018 112.728 198.146 108.533 203.049 99.8071C198.743 101.019 194.679 101.522 191.305 103.294C188.024 105.028 185.47 108.104 182.356 110.77H182.375Z" fill="#EBAA01"/>
<path d="M57.6978 117.689V113.4H58.4248V115.246H59.1145C59.1705 115.097 59.2637 114.947 59.3942 114.798L60.7178 113.381H61.538L60.0653 114.985C59.8789 115.19 59.767 115.358 59.767 115.525C59.767 115.693 59.8789 115.842 60.0653 116.048L61.5939 117.67H60.6991L59.3942 116.271C59.2637 116.122 59.1705 115.973 59.1145 115.824H58.4248V117.67H57.6978V117.689ZM61.4075 116.122C61.4075 115.227 62.2278 114.481 63.2531 114.481C64.2784 114.481 65.08 115.227 65.08 116.122C65.08 117.017 64.2784 117.782 63.2531 117.782C62.2278 117.782 61.4075 117.036 61.4075 116.122ZM64.3902 116.122C64.3902 115.544 63.9056 115.078 63.2531 115.078C62.6006 115.078 62.0973 115.544 62.0973 116.122C62.0973 116.7 62.6006 117.166 63.2531 117.166C63.9056 117.166 64.3902 116.7 64.3902 116.122ZM66.2172 116.178V117.689H65.5274V116.104C65.5274 115.19 66.124 114.462 67.2425 114.462C68.361 114.462 68.9762 115.171 68.9762 116.085V117.67H68.2864V116.159C68.2864 115.563 67.9322 115.059 67.2425 115.059C66.5527 115.059 66.2358 115.563 66.2358 116.141L66.2172 116.178ZM69.871 116.57V115.115H69.1812V114.574H69.871V113.754H70.5608V114.574H71.8843V115.115H70.5608V116.551C70.5608 116.961 70.8217 117.204 71.2505 117.204C71.4742 117.204 71.7166 117.129 71.8843 117.017V117.595C71.7166 117.707 71.4369 117.782 71.1759 117.782C70.3184 117.782 69.8524 117.297 69.8524 116.57H69.871ZM72.164 116.104C72.164 115.208 72.8724 114.462 73.9163 114.462C74.9603 114.462 75.6128 115.152 75.6128 116.029V116.29H72.8537C72.9283 116.831 73.3757 117.204 74.0095 117.204C74.4383 117.204 74.8111 117.036 75.0162 116.7L75.5568 116.943C75.2585 117.483 74.6993 117.763 74.0282 117.763C72.9842 117.763 72.2013 117.073 72.2013 116.104H72.164ZM74.9044 115.88C74.8671 115.376 74.4756 115.041 73.8977 115.041C73.3198 115.041 72.9283 115.414 72.8537 115.88H74.8857H74.9044ZM75.911 117.073L76.4516 116.812C76.6194 117.129 76.9177 117.241 77.2905 117.241C77.6634 117.241 77.9803 117.092 77.9803 116.812C77.9803 116.159 76.0042 116.644 76.0042 115.451C76.0042 114.891 76.5448 114.5 77.2905 114.5C77.9244 114.5 78.3718 114.761 78.5955 115.134L78.0549 115.414C77.9057 115.134 77.6261 115.041 77.3092 115.041C76.9923 115.041 76.694 115.19 76.694 115.451C76.694 116.085 78.67 115.619 78.67 116.812C78.67 117.409 78.0362 117.782 77.3092 117.782C76.6753 117.782 76.172 117.558 75.911 117.092V117.073ZM80.7207 117.689L81.3918 113.884C81.4477 113.511 81.746 113.306 82.1375 113.306C82.473 113.306 82.7713 113.455 82.8645 113.791L83.778 116.775C83.778 116.775 83.8152 116.849 83.8339 116.849C83.8712 116.849 83.8898 116.831 83.9085 116.775L84.8033 113.791C84.8965 113.455 85.2134 113.306 85.549 113.306C85.9218 113.306 86.2201 113.511 86.276 113.884L86.8725 117.67H86.1455L85.6235 114.09C85.6235 114.09 85.5862 113.94 85.5117 113.94C85.4557 113.94 85.3998 113.978 85.3812 114.071L84.4118 117.148C84.3372 117.409 84.1135 117.539 83.8339 117.539C83.5729 117.539 83.3492 117.409 83.256 117.166L82.2866 114.071C82.2866 114.071 82.2307 113.94 82.1561 113.94C82.0815 113.94 82.0443 113.978 82.0256 114.09L81.4477 117.67H80.7207V117.689ZM87.1895 116.122C87.1895 115.227 88.0097 114.481 89.035 114.481C90.0603 114.481 90.8619 115.227 90.8619 116.122C90.8619 117.017 90.0603 117.782 89.035 117.782C88.0097 117.782 87.1895 117.036 87.1895 116.122ZM90.1722 116.122C90.1722 115.544 89.6688 115.078 89.035 115.078C88.4012 115.078 87.8792 115.544 87.8792 116.122C87.8792 116.7 88.3825 117.166 89.035 117.166C89.6875 117.166 90.1722 116.7 90.1722 116.122ZM91.3093 116.122V113.101H91.9991V114.929C92.2787 114.649 92.7075 114.462 93.1735 114.462C94.2175 114.462 94.9818 115.152 94.9818 116.122C94.9818 117.017 94.1989 117.763 93.1549 117.763C92.111 117.763 91.3093 117.055 91.3093 116.122ZM94.2921 116.122C94.2921 115.544 93.8074 115.078 93.1549 115.078C92.5024 115.078 92.0177 115.544 92.0177 116.122C92.0177 116.7 92.5024 117.166 93.1549 117.166C93.8074 117.166 94.2921 116.7 94.2921 116.122ZM95.4479 113.511C95.4479 113.288 95.6529 113.083 95.9139 113.083C96.1749 113.083 96.3613 113.269 96.3613 113.511C96.3613 113.754 96.1563 113.922 95.9139 113.922C95.6716 113.922 95.4479 113.735 95.4479 113.511ZM96.2681 114.556V117.689H95.5784V114.556H96.2681ZM97.8527 113.12V117.689H97.1629V113.12H97.8527ZM100.5 117.689V113.4H101.227V115.246H103.725V113.4H104.452V117.689H103.725V115.842H101.227V117.689H100.5ZM105.086 116.104C105.086 115.208 105.794 114.462 106.838 114.462C107.882 114.462 108.535 115.152 108.535 116.029V116.29H105.776C105.85 116.831 106.298 117.204 106.931 117.204C107.36 117.204 107.733 117.036 107.938 116.7L108.479 116.943C108.18 117.483 107.621 117.763 106.95 117.763C105.906 117.763 105.123 117.073 105.123 116.104H105.086ZM107.826 115.88C107.789 115.376 107.397 115.041 106.82 115.041C106.242 115.041 105.85 115.414 105.776 115.88H107.808H107.826ZM114.91 116.048V117.707H114.22V116.159C114.22 115.581 113.903 115.097 113.27 115.097C112.636 115.097 112.319 115.581 112.319 116.159V117.726H111.629V116.159C111.629 115.581 111.312 115.097 110.678 115.097C110.045 115.097 109.746 115.6 109.746 116.159V117.707H109.057V116.066C109.057 115.19 109.616 114.481 110.641 114.481C111.331 114.481 111.834 114.798 112.002 115.283C112.188 114.798 112.673 114.481 113.344 114.481C114.388 114.481 114.947 115.19 114.947 116.048H114.91ZM115.339 116.122C115.339 115.227 116.122 114.481 117.184 114.481C118.247 114.481 119.03 115.19 119.03 116.122V117.689H118.359V117.129C118.098 117.521 117.632 117.763 117.073 117.763C116.066 117.763 115.339 117.017 115.339 116.104V116.122ZM118.322 116.122C118.322 115.544 117.818 115.078 117.184 115.078C116.551 115.078 116.047 115.544 116.047 116.122C116.047 116.7 116.551 117.166 117.184 117.166C117.818 117.166 118.322 116.7 118.322 116.122ZM119.925 116.57V115.115H119.235V114.574H119.925V113.754H120.615V114.574H121.938V115.115H120.615V116.551C120.615 116.961 120.876 117.204 121.304 117.204C121.528 117.204 121.77 117.129 121.938 117.017V117.595C121.77 117.707 121.491 117.782 121.23 117.782C120.372 117.782 119.906 117.297 119.906 116.57H119.925ZM124.958 117.689C124.474 117.689 124.287 117.465 124.287 117.092V113.978C124.287 113.605 124.455 113.381 124.958 113.381H127.549V113.978H125.014V115.227H127.419V115.824H125.014V117.073H127.605V117.67H124.958V117.689ZM128.836 116.178V117.689H128.146V116.104C128.146 115.19 128.743 114.462 129.861 114.462C130.98 114.462 131.595 115.171 131.595 116.085V117.67H130.905V116.159C130.905 115.563 130.551 115.059 129.861 115.059C129.171 115.059 128.854 115.563 128.854 116.141L128.836 116.178ZM132.024 116.104C132.024 115.208 132.732 114.462 133.776 114.462C134.82 114.462 135.472 115.152 135.472 116.029V116.29H132.713C132.788 116.831 133.235 117.204 133.869 117.204C134.298 117.204 134.671 117.036 134.876 116.7L135.416 116.943C135.118 117.483 134.559 117.763 133.888 117.763C132.844 117.763 132.061 117.073 132.061 116.104H132.024ZM134.764 115.88C134.727 115.376 134.335 115.041 133.757 115.041C133.179 115.041 132.788 115.414 132.713 115.88H134.745H134.764ZM135.957 117.689V115.824C135.957 115.059 136.442 114.5 137.337 114.5C137.56 114.5 137.784 114.537 137.952 114.612V115.246C137.784 115.152 137.579 115.115 137.392 115.115C136.926 115.115 136.647 115.395 136.647 115.861V117.707H135.957V117.689ZM137.989 118.36L138.567 118.08C138.772 118.416 139.145 118.64 139.648 118.64C140.375 118.64 140.86 118.173 140.86 117.428V117.185C140.636 117.521 140.207 117.763 139.63 117.763C138.641 117.763 137.877 117.055 137.877 116.141C137.877 115.227 138.66 114.5 139.723 114.5C140.785 114.5 141.568 115.208 141.568 116.141V117.428C141.568 118.509 140.767 119.218 139.667 119.218C138.921 119.218 138.306 118.919 137.989 118.36ZM140.879 116.104C140.879 115.525 140.375 115.078 139.741 115.078C139.108 115.078 138.604 115.525 138.604 116.104C138.604 116.682 139.126 117.148 139.741 117.148C140.357 117.148 140.879 116.682 140.879 116.104ZM142.258 113.511C142.258 113.288 142.463 113.083 142.724 113.083C142.985 113.083 143.171 113.269 143.171 113.511C143.171 113.754 142.966 113.922 142.724 113.922C142.482 113.922 142.258 113.735 142.258 113.511ZM143.078 114.556V117.689H142.389V114.556H143.078ZM146.098 117.689C145.67 117.689 145.446 117.465 145.446 117.185C145.446 116.98 145.539 116.812 145.744 116.644L147.142 115.507C147.534 115.19 147.739 114.947 147.739 114.593C147.739 114.201 147.385 113.94 146.919 113.94C146.452 113.94 146.08 114.201 145.856 114.593L145.297 114.313C145.614 113.735 146.191 113.325 146.956 113.325C147.832 113.325 148.447 113.866 148.447 114.556C148.447 115.078 148.186 115.469 147.757 115.824L146.359 116.943C146.359 116.943 146.266 117.017 146.266 117.055C146.266 117.073 146.266 117.092 146.303 117.092H148.578V117.689H146.08H146.098ZM148.951 115.544C148.951 114.295 149.715 113.325 150.852 113.325C151.989 113.325 152.753 114.276 152.753 115.544C152.753 116.812 151.989 117.782 150.852 117.782C149.715 117.782 148.951 116.794 148.951 115.544ZM152.008 115.544C152.008 114.668 151.523 113.996 150.852 113.996C150.181 113.996 149.696 114.668 149.696 115.544C149.696 116.421 150.181 117.111 150.852 117.111C151.523 117.111 152.008 116.421 152.008 115.544ZM153.872 117.689C153.443 117.689 153.22 117.465 153.22 117.185C153.22 116.98 153.313 116.812 153.518 116.644L154.916 115.507C155.307 115.19 155.513 114.947 155.513 114.593C155.513 114.201 155.158 113.94 154.692 113.94C154.226 113.94 153.853 114.201 153.63 114.593L153.07 114.313C153.387 113.735 153.965 113.325 154.73 113.325C155.606 113.325 156.221 113.866 156.221 114.556C156.221 115.078 155.96 115.469 155.531 115.824L154.133 116.943C154.133 116.943 154.04 117.017 154.04 117.055C154.04 117.073 154.04 117.092 154.077 117.092H156.351V117.689H153.853H153.872ZM156.724 115.544C156.724 114.295 157.489 113.325 158.626 113.325C159.763 113.325 160.527 114.276 160.527 115.544C160.527 116.812 159.763 117.782 158.626 117.782C157.489 117.782 156.724 116.794 156.724 115.544ZM159.782 115.544C159.782 114.668 159.297 113.996 158.626 113.996C157.955 113.996 157.47 114.668 157.47 115.544C157.47 116.421 157.955 117.111 158.626 117.111C159.297 117.111 159.782 116.421 159.782 115.544Z" fill="#EBAA01"/>
<path d="M36.6313 23.5489H43.3238L46.4743 38.6888L49.2334 27.6695C50.035 24.4252 51.7314 23.0455 54.3413 23.0455C56.9512 23.0455 58.6476 24.4252 59.4492 27.6695L62.2082 38.6888L65.3587 23.5489H72.0512L67.7076 42.0635C67.0924 44.7111 65.135 46.1841 62.4879 46.1841C60.1017 46.1841 57.9578 44.7484 57.3427 42.3246L54.3413 30.3544L51.3399 42.3246C50.7247 44.7484 48.5809 46.1841 46.1947 46.1841C43.5475 46.1841 41.5901 44.7111 40.9749 42.0635L36.6313 23.5489ZM80.1791 23.5489V45.6807H73.4867V23.5489H80.1791ZM83.9821 45.662V26.7932C83.9821 24.4252 86.0141 23.0269 88.1393 23.0269C89.8357 23.0269 91.3271 23.5489 92.2033 24.7981L100.816 37.1599V23.5676H107.154V42.4364C107.154 44.8044 105.122 46.1654 102.997 46.1654C101.338 46.1654 99.8092 45.6434 98.933 44.3942L90.3204 32.0324V45.662H83.9821ZM110.771 45.662V26.7932C110.771 24.4252 112.803 23.0269 114.928 23.0269C116.624 23.0269 118.116 23.5489 118.992 24.7981L127.604 37.1599V23.5676H133.943V42.4364C133.943 44.8044 131.911 46.1654 129.786 46.1654C128.126 46.1654 126.598 45.6434 125.722 44.3942L117.109 32.0324V45.662H110.771ZM143.189 45.662C139.069 45.662 137.392 43.7043 137.392 40.5906V28.6204C137.392 25.5067 139.051 23.5489 143.189 23.5489H155.717V28.956H144.084V31.9019H154.878V37.309H144.084V40.2549H155.884V45.662H143.171H143.189ZM158.793 45.662V23.5303H169.046C174.843 23.5303 179.262 25.9914 179.262 30.8764C179.262 33.7851 177.453 36.1903 174.582 37.0107C175.813 37.7379 176.614 39.0057 177.696 41.0007L180.194 45.662H172.923L170.649 41.5042C169.81 39.9939 168.878 39.4346 166.697 39.4346H165.466L165.429 45.662H158.811H158.793ZM165.485 29.1052L165.448 34.0461H169.027C170.985 34.0461 172.364 33.0579 172.364 31.4917C172.364 29.8137 170.985 29.1052 169.102 29.1052H165.485Z" fill="#EBAA01"/>
<path d="M39.3347 58.3592L37.1536 51.9266H39.0551L41.0125 57.893C41.0684 58.0422 41.143 58.1168 41.2735 58.1168C41.4039 58.1168 41.4785 58.0422 41.5344 57.893L43.4732 51.9266H45.3747L43.1936 58.3592C42.858 59.3101 42.2615 59.7762 41.2735 59.7762C40.2854 59.7762 39.6889 59.3101 39.3533 58.3592H39.3347ZM47.5372 59.6084C46.3627 59.6084 45.9153 59.0677 45.9153 58.1727V53.3436C45.9153 52.4673 46.3627 51.9079 47.5372 51.9079H52.0299V53.3996H47.7422V55.003H51.7503V56.4946H47.7422V58.0981H52.1045V59.5897H47.5372V59.6084ZM53.2789 59.6084V51.9079H55.1245V55.003H59.002V51.9079H60.8476V59.6084H59.002V56.5506H55.1245V59.6084H53.2789ZM64.3523 51.9266V59.627H62.5067V51.9266H64.3523ZM65.2844 55.7675C65.2844 53.5301 67.2232 51.7588 69.6839 51.7588C71.1566 51.7588 72.5734 52.4673 73.2073 53.6606L71.6973 54.425C71.2871 53.7538 70.616 53.3436 69.6094 53.3436C68.1926 53.3436 67.1672 54.3691 67.1672 55.7488C67.1672 57.1286 68.1739 58.1541 69.6094 58.1541C70.6347 58.1541 71.3058 57.7252 71.6973 57.0727L73.2073 57.8371C72.5734 59.0304 71.1566 59.7389 69.6839 59.7389C67.2045 59.7389 65.2844 57.9676 65.2844 55.7302V55.7675ZM75.7426 58.0795H79.7133V59.627H75.5375C74.3631 59.627 73.9157 59.0863 73.9157 58.1914V51.9266H75.7612V58.0795H75.7426ZM81.8572 59.6084C80.6827 59.6084 80.2353 59.0677 80.2353 58.1727V53.3436C80.2353 52.4673 80.6827 51.9079 81.8572 51.9079H86.3499V53.3996H82.0622V55.003H86.0703V56.4946H82.0622V58.0981H86.4245V59.5897H81.8572V59.6084ZM93.6762 59.6084H90.5444V51.9079H93.7135C96.4725 51.9079 98.2994 53.4368 98.2994 55.7675C98.2994 58.0981 96.3607 59.6084 93.6762 59.6084ZM93.7135 53.4555H92.3899V58.1168H93.6762C95.2608 58.1168 96.398 57.2218 96.398 55.7675C96.398 54.3132 95.3167 53.4555 93.7135 53.4555ZM100.891 59.6084C99.7162 59.6084 99.2688 59.0677 99.2688 58.1727V53.3436C99.2688 52.4673 99.7162 51.9079 100.891 51.9079H105.383V53.3996H101.096V55.003H105.104V56.4946H101.096V58.0981H105.458V59.5897H100.891V59.6084ZM106.073 58.0795L107.62 57.3896C107.9 57.949 108.497 58.2286 109.373 58.2286C110.174 58.2286 110.771 57.9303 110.771 57.3896C110.771 56.7557 110.1 56.6438 109.224 56.5133C107.956 56.3268 106.222 55.898 106.222 54.164C106.222 52.8216 107.565 51.7774 109.317 51.7774C110.715 51.7774 111.927 52.3554 112.467 53.4555L110.92 54.1454C110.64 53.6606 110.081 53.3063 109.224 53.3063C108.534 53.3063 108.049 53.6047 108.049 54.0708C108.049 54.6861 108.758 54.8539 109.671 55.003C110.939 55.1895 112.598 55.6183 112.598 57.3523C112.598 58.7321 111.162 59.7389 109.354 59.7389C107.826 59.7389 106.595 59.1609 106.055 58.0608L106.073 58.0795ZM115.525 51.9266V59.627H113.679V51.9266H115.525ZM116.475 55.7675C116.475 53.5487 118.377 51.7774 120.875 51.7774C122.329 51.7774 123.764 52.4487 124.398 53.6792L122.888 54.4437C122.46 53.7538 121.807 53.3436 120.8 53.3436C119.365 53.3436 118.358 54.3878 118.358 55.7861C118.358 57.1845 119.384 58.2473 120.875 58.2473C121.714 58.2473 122.31 58.0608 122.702 57.6879V55.9912H124.492V58.2473C123.876 59.0863 122.553 59.7762 120.875 59.7762C118.396 59.7762 116.475 57.9863 116.475 55.7675ZM125.498 59.6084V52.9707C125.498 52.2063 126.113 51.7588 126.803 51.7588C127.362 51.7588 127.81 51.9452 128.071 52.3554L131.426 57.5761V51.9079H133.179V58.5456C133.179 59.3101 132.564 59.7389 131.892 59.7389C131.352 59.7389 130.886 59.5711 130.606 59.1423L127.251 53.8843V59.5711H125.498V59.6084ZM137.149 59.6084L138.305 52.9894C138.454 52.1876 139.07 51.7588 139.927 51.7588C140.691 51.7588 141.325 52.0571 141.53 52.8029L142.966 57.6134V57.6506C142.966 57.6506 142.984 57.6506 142.984 57.6134L144.383 52.8402C144.588 52.0944 145.259 51.7588 146.023 51.7588C146.862 51.7588 147.477 52.1876 147.608 53.008L148.652 59.5897H146.787L145.967 53.5487C145.967 53.5487 145.967 53.4555 145.911 53.4555C145.874 53.4555 145.855 53.4741 145.837 53.5301L144.252 58.6388C144.084 59.2168 143.562 59.5152 142.966 59.5152C142.369 59.5152 141.847 59.2355 141.698 58.6761L140.114 53.5487C140.114 53.5487 140.076 53.4741 140.058 53.4741C140.02 53.4741 139.983 53.4928 139.983 53.5487L139.032 59.6084H137.168H137.149ZM149.08 55.7675C149.08 53.5114 150.982 51.7774 153.499 51.7774C156.015 51.7774 157.935 53.5114 157.935 55.7675C157.935 58.0236 156.015 59.7575 153.499 59.7575C150.982 59.7575 149.08 58.0422 149.08 55.7675ZM156.034 55.7675C156.034 54.4064 154.934 53.3623 153.517 53.3623C152.1 53.3623 151 54.4064 151 55.7675C151 57.1286 152.119 58.1727 153.517 58.1727C154.915 58.1727 156.034 57.1286 156.034 55.7675ZM162.018 59.6084H158.886V51.9079H162.055C164.814 51.9079 166.641 53.4368 166.641 55.7675C166.641 58.0981 164.702 59.6084 162.018 59.6084ZM162.055 53.4555H160.732V58.1168H162.018C163.603 58.1168 164.74 57.2218 164.74 55.7675C164.74 54.3132 163.658 53.4555 162.055 53.4555ZM169.214 59.6084C168.039 59.6084 167.592 59.0677 167.592 58.1727V53.3436C167.592 52.4673 168.039 51.9079 169.214 51.9079H173.706V53.3996H169.419V55.003H173.427V56.4946H169.419V58.0981H173.781V59.5897H169.214V59.6084ZM176.82 58.0795H180.79V59.627H176.615C175.44 59.627 174.993 59.0863 174.993 58.1914V51.9266H176.838V58.0795H176.82Z" fill="#EBAA01"/>
<path d="M51.0793 77.806V66.1155H57.5481V77.6568C57.5481 80.9384 58.9463 82.2994 61.8172 82.2994C64.688 82.2994 66.1048 80.9384 66.1048 77.6568V66.1155H72.5736V77.806C72.5736 84.1267 69.1808 87.8184 61.8172 87.8184C54.4536 87.8184 51.098 84.1267 51.098 77.806H51.0793ZM75.8733 87.4455V66.1155H85.7535C91.3462 66.1155 95.5965 68.4834 95.5965 73.2006C95.5965 76.016 93.8442 78.328 91.0852 79.1111C92.2783 79.801 93.0426 81.0316 94.0865 82.9707L96.4914 87.4641H89.4633L87.2635 83.4554C86.4619 82.0011 85.5485 81.4604 83.4606 81.4604H82.2675L82.2302 87.4641H75.836L75.8733 87.4455ZM82.342 71.4853L82.3048 76.2584H85.7535C87.6364 76.2584 88.96 75.3075 88.96 73.7973C88.96 72.1938 87.6364 71.4853 85.8095 71.4853H82.3234H82.342ZM98.9707 87.4455V66.1155H108.851C114.798 66.1155 118.358 68.4834 118.358 72.1565C118.358 74.4685 117.035 76.0533 114.966 76.8737C117.054 77.5076 118.526 78.8315 118.526 81.4231C118.526 85.4132 114.611 87.4641 108.851 87.4641H98.9707V87.4455ZM105.421 74.5431H109.187C110.995 74.5431 111.871 73.8532 111.871 72.6226C111.871 71.5412 111.032 70.8513 109.187 70.8513H105.421V74.5431ZM105.421 82.691H109.187C110.995 82.691 112.057 82.2249 112.057 80.9756C112.057 79.6518 111.014 79.2603 109.187 79.2603H105.421V82.6723V82.691ZM125.126 69.4902C126.002 66.8613 128.444 65.6307 130.886 65.6307C133.328 65.6307 135.77 66.8613 136.646 69.4902L142.724 87.4455H136.124L135.043 83.847H126.766L125.648 87.4455H119.048L125.126 69.4902ZM128.369 78.6264H133.44L131.203 71.2056C131.128 70.9819 131.072 70.8886 130.923 70.8886C130.774 70.8886 130.718 70.9819 130.644 71.2056L128.369 78.6264ZM144.122 87.4455V69.2479C144.122 66.9732 146.079 65.6121 148.13 65.6121C149.77 65.6121 151.206 66.1155 152.045 67.3274L160.359 79.2416V66.1155H166.474V84.3131C166.474 86.5878 164.516 87.9116 162.466 87.9116C160.862 87.9116 159.39 87.4082 158.551 86.1963L150.236 74.282V87.4269H144.122V87.4455Z" fill="#EBAA01"/>
<path d="M61.8728 100.05C61.8728 96.2649 65.1538 93.2444 69.3669 93.2444C71.8836 93.2444 74.2884 94.4563 75.351 96.4886L72.797 97.7938C72.0886 96.6751 70.9701 95.9479 69.2364 95.9479C66.8316 95.9479 65.0979 97.6819 65.0979 100.05C65.0979 102.418 66.8129 104.152 69.2364 104.152C70.9701 104.152 72.1446 103.425 72.797 102.306L75.351 103.611C74.2698 105.643 71.8649 106.855 69.3669 106.855C65.1538 106.855 61.8728 103.835 61.8728 100.05ZM75.2951 100.05C75.2951 96.209 78.5388 93.263 82.8078 93.263C87.0768 93.263 90.3392 96.1903 90.3392 100.05C90.3392 103.909 87.0768 106.837 82.8078 106.837C78.5388 106.837 75.2951 103.928 75.2951 100.05ZM87.0955 100.05C87.0955 97.7379 85.2313 95.9479 82.8078 95.9479C80.3843 95.9479 78.5201 97.7379 78.5201 100.05C78.5201 102.362 80.403 104.152 82.8078 104.152C85.2126 104.152 87.0955 102.362 87.0955 100.05ZM91.7746 106.594V95.2954C91.7746 93.9902 92.8186 93.2444 94.0117 93.2444C94.9624 93.2444 95.7081 93.5614 96.1742 94.2699L101.879 103.126V93.5054H104.843V104.786C104.843 106.091 103.799 106.818 102.643 106.818C101.711 106.818 100.928 106.52 100.443 105.811L94.7387 96.8988V106.576H91.756L91.7746 106.594ZM106.334 100.05C106.334 96.2649 109.615 93.2444 113.828 93.2444C116.345 93.2444 118.75 94.4563 119.812 96.4886L117.258 97.7938C116.55 96.6751 115.431 95.9479 113.698 95.9479C111.293 95.9479 109.559 97.6819 109.559 100.05C109.559 102.418 111.274 104.152 113.698 104.152C115.431 104.152 116.606 103.425 117.258 102.306L119.812 103.611C118.731 105.643 116.326 106.855 113.828 106.855C109.615 106.855 106.334 103.835 106.334 100.05ZM123.522 106.594C121.527 106.594 120.744 105.662 120.744 104.17V95.9666C120.744 94.475 121.509 93.5241 123.522 93.5241H131.165V96.0784H123.876V98.8006H130.699V101.355H123.876V104.077H131.277V106.632H123.503L123.522 106.594ZM133.29 106.594V93.5241H138.38C142.481 93.5241 144.998 95.2581 144.998 98.2786C144.998 101.299 142.537 103.145 138.547 103.145H136.422V106.576H133.29V106.594ZM136.441 96.1344V100.497H138.473C140.542 100.497 141.773 99.7702 141.773 98.2599C141.773 96.7497 140.524 96.1157 138.473 96.1157H136.441V96.1344ZM156.462 96.1344H152.212V106.594H149.08V96.1344H144.83V93.5054H156.462V96.1344Z" fill="#EBAA01"/>
</g>
<defs>
<clipPath id="clip0_351_7034">
<rect width="218" height="120" fill="white"/>
</clipPath>
</defs>
</svg>
