<svg width="218" height="120" viewBox="0 0 218 120" fill="none" xmlns="http://www.w3.org/2000/svg">
<g clip-path="url(#clip0_351_6950)">
<path d="M51.2467 116.233C49.7927 117.762 41.5529 112.56 38.9057 108.085C38.9057 108.085 37.433 105.624 37.1161 102.156C37.0788 101.839 37.1161 101.504 37.172 101.187C37.2093 100.982 37.3211 100.795 37.5076 100.31C37.8804 100.441 38.2905 100.515 38.6634 100.627C38.6634 100.627 39.204 100.814 39.726 101.093C45.244 103.965 48.7301 109.782 48.7301 109.782C50.4079 112.579 52.067 115.357 51.2467 116.233Z" fill="#EBAA01"/>
<path d="M27.5149 12.8835C27.9623 4.71697 38.1968 -1.80882 47.5551 0.447242C41.9438 6.56284 36.6122 12.4733 27.5149 12.8835Z" fill="#EBAA01"/>
<path d="M15.7517 85.9905C9.89811 78.1969 10.3828 69.4896 16.7211 64.2876C20.6546 71.6338 17.4668 78.4579 15.7517 85.9905Z" fill="#EBAA01"/>
<path d="M10.1593 70.8695C6.61734 61.8266 9.43229 53.4177 16.8518 50.1548C18.6415 58.3213 13.7572 64.12 10.1593 70.8695Z" fill="#EBAA01"/>
<path d="M11.8557 38.4274C12.7319 29.5709 20.3565 22.9706 27.6269 24.5554C26.527 29.7015 20.9157 34.6797 11.8557 38.4274Z" fill="#EBAA01"/>
<path d="M8.94712 54.5554C7.66082 45.1955 13.1975 36.8611 20.7289 36.7493C20.0764 44.8599 14.1296 49.2229 8.94712 54.5554Z" fill="#EBAA01"/>
<path d="M38.1973 14.5799C33.4622 21.4226 26.0427 22.1685 19.0706 24.1635C20.3382 17.4512 31.0574 10.6271 38.1973 14.5799Z" fill="#EBAA01"/>
<path d="M20.4687 78.0854C25.9121 84.1265 24.8495 91.4726 25.0546 98.7442C17.4486 94.3626 15.3607 82.6162 20.4687 78.0854Z" fill="#EBAA01"/>
<path d="M22.8172 99.9186C15.2113 99.9558 7.77309 93.2436 6.07666 84.7974C14.3724 86.7178 18.7905 93.0385 22.8172 99.9186Z" fill="#EBAA01"/>
<path d="M37.563 109.465C28.8012 105.829 25.0169 98.6508 27.2353 90.0554C34.3379 94.6235 35.1954 102.026 37.563 109.465Z" fill="#EBAA01"/>
<path d="M50.5748 117.799C45.0381 122.61 32.6412 118.806 28.6145 113.25C36.7797 110.602 43.6773 114.275 50.5748 117.799Z" fill="#EBAA01"/>
<path d="M5.72235 30.8948C10.1964 38.3715 8.81693 45.8855 6.84087 53.4181C1.41604 49.2416 0.89406 39.602 5.72235 30.8948Z" fill="#EBAA01"/>
<path d="M14.9878 15.3071C17.5045 23.5483 13.7015 30.3724 10.1409 37.0846C5.83456 32.0877 8.29531 20.6023 14.9878 15.3071Z" fill="#EBAA01"/>
<path d="M8.03405 70.3846C1.32292 66.7675 -1.84623 56.9601 1.09922 48.8682C7.60529 54.7227 7.38158 62.7028 8.03405 70.3846Z" fill="#EBAA01"/>
<path d="M17.4666 22.4482C14.7822 16.1088 20.6917 5.40655 28.4468 2.27417C26.8063 7.51345 27.0673 13.0138 22.3695 16.7614C20.5053 18.253 19.2003 20.4159 17.4666 22.4668V22.4482Z" fill="#EBAA01"/>
<path d="M1.11771 67.1035C8.76095 71.1682 11.1098 78.4957 13.3096 85.7859C6.76625 85.3198 0.577095 75.9972 1.11771 67.1035Z" fill="#EBAA01"/>
<path d="M35.643 110.77C27.9998 112.728 19.8719 108.533 14.969 99.8071C19.2753 101.019 23.3393 101.522 26.7135 103.294C29.9945 105.028 32.5484 108.104 35.6617 110.77H35.643Z" fill="#EBAA01"/>
<path d="M166.753 116.233C168.207 117.762 176.447 112.56 179.094 108.085C179.094 108.085 180.567 105.624 180.884 102.156C180.921 101.839 180.884 101.504 180.828 101.187C180.79 100.982 180.679 100.795 180.492 100.31C180.119 100.441 179.709 100.515 179.336 100.627C179.336 100.627 178.796 100.814 178.274 101.093C172.756 103.965 169.27 109.782 169.27 109.782C167.592 112.579 165.933 115.357 166.753 116.233Z" fill="#EBAA01"/>
<path d="M190.484 12.8835C190.037 4.71697 179.802 -1.80882 170.444 0.447242C176.055 6.56284 181.387 12.4733 190.484 12.8835Z" fill="#EBAA01"/>
<path d="M202.248 85.9905C208.102 78.1969 207.617 69.4896 201.279 64.2876C197.346 71.6338 200.533 78.4579 202.248 85.9905Z" fill="#EBAA01"/>
<path d="M207.84 70.8695C211.382 61.8266 208.568 53.4177 201.148 50.1548C199.358 58.3213 204.243 64.12 207.84 70.8695Z" fill="#EBAA01"/>
<path d="M206.143 38.4274C205.267 29.5709 197.643 22.9706 190.372 24.5554C191.472 29.7015 197.083 34.6797 206.143 38.4274Z" fill="#EBAA01"/>
<path d="M209.051 54.5554C210.338 45.1955 204.801 36.8611 197.27 36.7493C197.922 44.8599 203.869 49.2229 209.051 54.5554Z" fill="#EBAA01"/>
<path d="M179.803 14.5799C184.538 21.4226 191.957 22.1685 198.929 24.1635C197.662 17.4512 186.943 10.6271 179.803 14.5799Z" fill="#EBAA01"/>
<path d="M197.531 78.0854C192.088 84.1265 193.15 91.4726 192.945 98.7442C200.551 94.3626 202.639 82.6162 197.531 78.0854Z" fill="#EBAA01"/>
<path d="M195.183 99.9186C202.789 99.9558 210.227 93.2436 211.923 84.7974C203.628 86.7178 199.21 93.0385 195.183 99.9186Z" fill="#EBAA01"/>
<path d="M180.437 109.465C189.198 105.829 192.983 98.6508 190.764 90.0554C183.662 94.6235 182.804 102.026 180.437 109.465Z" fill="#EBAA01"/>
<path d="M167.424 117.799C172.961 122.61 185.358 118.806 189.385 113.25C181.219 110.602 174.322 114.275 167.424 117.799Z" fill="#EBAA01"/>
<path d="M212.277 30.8948C207.803 38.3715 209.182 45.8855 211.158 53.4181C216.583 49.2416 217.105 39.602 212.277 30.8948Z" fill="#EBAA01"/>
<path d="M203.012 15.3071C200.495 23.5483 204.298 30.3724 207.859 37.0846C212.165 32.0877 209.704 20.6023 203.012 15.3071Z" fill="#EBAA01"/>
<path d="M209.965 70.3846C216.676 66.7675 219.846 56.9601 216.9 48.8682C210.394 54.7227 210.618 62.7028 209.965 70.3846Z" fill="#EBAA01"/>
<path d="M200.533 22.4482C203.217 16.1088 197.308 5.40655 189.552 2.27417C191.193 7.51345 190.932 13.0138 195.63 16.7614C197.494 18.253 198.799 20.4159 200.533 22.4668V22.4482Z" fill="#EBAA01"/>
<path d="M216.881 67.1035C209.238 71.1682 206.889 78.4957 204.689 85.7859C211.233 85.3198 217.422 75.9972 216.881 67.1035Z" fill="#EBAA01"/>
<path d="M182.375 110.77C190.018 112.728 198.146 108.533 203.049 99.8071C198.743 101.019 194.679 101.522 191.304 103.294C188.023 105.028 185.469 108.104 182.356 110.77H182.375Z" fill="#EBAA01"/>
<path d="M57.6975 117.689V113.4H58.4245V115.246H59.1143C59.1702 115.097 59.2634 114.947 59.3939 114.798L60.7175 113.381H61.5378L60.065 114.985C59.8786 115.19 59.7668 115.358 59.7668 115.525C59.7668 115.693 59.8786 115.842 60.065 116.048L61.5937 117.67H60.6989L59.3939 116.271C59.2634 116.122 59.1702 115.973 59.1143 115.824H58.4245V117.67H57.6975V117.689ZM61.4073 116.122C61.4073 115.227 62.2275 114.481 63.2528 114.481C64.2781 114.481 65.0798 115.227 65.0798 116.122C65.0798 117.017 64.2781 117.782 63.2528 117.782C62.2275 117.782 61.4073 117.036 61.4073 116.122ZM64.39 116.122C64.39 115.544 63.9053 115.078 63.2528 115.078C62.6004 115.078 62.097 115.544 62.097 116.122C62.097 116.7 62.6004 117.166 63.2528 117.166C63.9053 117.166 64.39 116.7 64.39 116.122ZM66.2169 116.178V117.689H65.5272V116.104C65.5272 115.19 66.1237 114.462 67.2422 114.462C68.3608 114.462 68.9759 115.171 68.9759 116.085V117.67H68.2862V116.159C68.2862 115.563 67.932 115.059 67.2422 115.059C66.5525 115.059 66.2356 115.563 66.2356 116.141L66.2169 116.178ZM69.8708 116.57V115.115H69.181V114.574H69.8708V113.754H70.5605V114.574H71.8841V115.115H70.5605V116.551C70.5605 116.961 70.8215 117.204 71.2503 117.204C71.474 117.204 71.7163 117.129 71.8841 117.017V117.595C71.7163 117.707 71.4367 117.782 71.1757 117.782C70.3182 117.782 69.8521 117.297 69.8521 116.57H69.8708ZM72.1637 116.104C72.1637 115.208 72.8721 114.462 73.9161 114.462C74.96 114.462 75.6125 115.152 75.6125 116.029V116.29H72.8535C72.9281 116.831 73.3755 117.204 74.0093 117.204C74.4381 117.204 74.8109 117.036 75.016 116.7L75.5566 116.943C75.2583 117.483 74.699 117.763 74.0279 117.763C72.984 117.763 72.201 117.073 72.201 116.104H72.1637ZM74.9041 115.88C74.8668 115.376 74.4753 115.041 73.8974 115.041C73.3195 115.041 72.9281 115.414 72.8535 115.88H74.8855H74.9041ZM75.9108 117.073L76.4514 116.812C76.6192 117.129 76.9174 117.241 77.2903 117.241C77.6631 117.241 77.98 117.092 77.98 116.812C77.98 116.159 76.004 116.644 76.004 115.451C76.004 114.891 76.5446 114.5 77.2903 114.5C77.9241 114.5 78.3715 114.761 78.5952 115.134L78.0546 115.414C77.9055 115.134 77.6258 115.041 77.3089 115.041C76.992 115.041 76.6937 115.19 76.6937 115.451C76.6937 116.085 78.6698 115.619 78.6698 116.812C78.6698 117.409 78.036 117.782 77.3089 117.782C76.6751 117.782 76.1718 117.558 75.9108 117.092V117.073ZM80.7204 117.689L81.3915 113.884C81.4475 113.511 81.7457 113.306 82.1372 113.306C82.4728 113.306 82.771 113.455 82.8643 113.791L83.7777 116.775C83.7777 116.775 83.815 116.849 83.8336 116.849C83.8709 116.849 83.8896 116.831 83.9082 116.775L84.803 113.791C84.8962 113.455 85.2132 113.306 85.5487 113.306C85.9215 113.306 86.2198 113.511 86.2757 113.884L86.8723 117.67H86.1453L85.6233 114.09C85.6233 114.09 85.586 113.94 85.5114 113.94C85.4555 113.94 85.3996 113.978 85.3809 114.071L84.4115 117.148C84.337 117.409 84.1133 117.539 83.8336 117.539C83.5727 117.539 83.3489 117.409 83.2557 117.166L82.2864 114.071C82.2864 114.071 82.2304 113.94 82.1559 113.94C82.0813 113.94 82.044 113.978 82.0254 114.09L81.4475 117.67H80.7204V117.689ZM87.1892 116.122C87.1892 115.227 88.0095 114.481 89.0348 114.481C90.0601 114.481 90.8617 115.227 90.8617 116.122C90.8617 117.017 90.0601 117.782 89.0348 117.782C88.0095 117.782 87.1892 117.036 87.1892 116.122ZM90.1719 116.122C90.1719 115.544 89.6686 115.078 89.0348 115.078C88.4009 115.078 87.879 115.544 87.879 116.122C87.879 116.7 88.3823 117.166 89.0348 117.166C89.6872 117.166 90.1719 116.7 90.1719 116.122ZM91.3091 116.122V113.101H91.9989V114.929C92.2785 114.649 92.7073 114.462 93.1733 114.462C94.2173 114.462 94.9816 115.152 94.9816 116.122C94.9816 117.017 94.1986 117.763 93.1547 117.763C92.1107 117.763 91.3091 117.055 91.3091 116.122ZM94.2918 116.122C94.2918 115.544 93.8071 115.078 93.1547 115.078C92.5022 115.078 92.0175 115.544 92.0175 116.122C92.0175 116.7 92.5022 117.166 93.1547 117.166C93.8071 117.166 94.2918 116.7 94.2918 116.122ZM95.4476 113.511C95.4476 113.288 95.6527 113.083 95.9137 113.083C96.1747 113.083 96.3611 113.269 96.3611 113.511C96.3611 113.754 96.156 113.922 95.9137 113.922C95.6713 113.922 95.4476 113.735 95.4476 113.511ZM96.2679 114.556V117.689H95.5781V114.556H96.2679ZM97.8525 113.12V117.689H97.1627V113.12H97.8525ZM100.5 117.689V113.4H101.227V115.246H103.725V113.4H104.452V117.689H103.725V115.842H101.227V117.689H100.5ZM105.086 116.104C105.086 115.208 105.794 114.462 106.838 114.462C107.882 114.462 108.534 115.152 108.534 116.029V116.29H105.775C105.85 116.831 106.297 117.204 106.931 117.204C107.36 117.204 107.733 117.036 107.938 116.7L108.478 116.943C108.18 117.483 107.621 117.763 106.95 117.763C105.906 117.763 105.123 117.073 105.123 116.104H105.086ZM107.826 115.88C107.789 115.376 107.397 115.041 106.819 115.041C106.241 115.041 105.85 115.414 105.775 115.88H107.807H107.826ZM114.91 116.048V117.707H114.22V116.159C114.22 115.581 113.903 115.097 113.269 115.097C112.636 115.097 112.319 115.581 112.319 116.159V117.726H111.629V116.159C111.629 115.581 111.312 115.097 110.678 115.097C110.044 115.097 109.746 115.6 109.746 116.159V117.707H109.056V116.066C109.056 115.19 109.616 114.481 110.641 114.481C111.331 114.481 111.834 114.798 112.002 115.283C112.188 114.798 112.673 114.481 113.344 114.481C114.388 114.481 114.947 115.19 114.947 116.048H114.91ZM115.339 116.122C115.339 115.227 116.122 114.481 117.184 114.481C118.247 114.481 119.03 115.19 119.03 116.122V117.689H118.359V117.129C118.098 117.521 117.632 117.763 117.072 117.763C116.066 117.763 115.339 117.017 115.339 116.104V116.122ZM118.321 116.122C118.321 115.544 117.818 115.078 117.184 115.078C116.55 115.078 116.047 115.544 116.047 116.122C116.047 116.7 116.55 117.166 117.184 117.166C117.818 117.166 118.321 116.7 118.321 116.122ZM119.925 116.57V115.115H119.235V114.574H119.925V113.754H120.614V114.574H121.938V115.115H120.614V116.551C120.614 116.961 120.875 117.204 121.304 117.204C121.528 117.204 121.77 117.129 121.938 117.017V117.595C121.77 117.707 121.491 117.782 121.23 117.782C120.372 117.782 119.906 117.297 119.906 116.57H119.925ZM124.958 117.689C124.473 117.689 124.287 117.465 124.287 117.092V113.978C124.287 113.605 124.455 113.381 124.958 113.381H127.549V113.978H125.014V115.227H127.419V115.824H125.014V117.073H127.605V117.67H124.958V117.689ZM128.836 116.178V117.689H128.146V116.104C128.146 115.19 128.742 114.462 129.861 114.462C130.979 114.462 131.595 115.171 131.595 116.085V117.67H130.905V116.159C130.905 115.563 130.551 115.059 129.861 115.059C129.171 115.059 128.854 115.563 128.854 116.141L128.836 116.178ZM132.023 116.104C132.023 115.208 132.732 114.462 133.776 114.462C134.82 114.462 135.472 115.152 135.472 116.029V116.29H132.713C132.788 116.831 133.235 117.204 133.869 117.204C134.298 117.204 134.67 117.036 134.876 116.7L135.416 116.943C135.118 117.483 134.559 117.763 133.888 117.763C132.844 117.763 132.061 117.073 132.061 116.104H132.023ZM134.764 115.88C134.726 115.376 134.335 115.041 133.757 115.041C133.179 115.041 132.788 115.414 132.713 115.88H134.745H134.764ZM135.957 117.689V115.824C135.957 115.059 136.441 114.5 137.336 114.5C137.56 114.5 137.784 114.537 137.951 114.612V115.246C137.784 115.152 137.579 115.115 137.392 115.115C136.926 115.115 136.647 115.395 136.647 115.861V117.707H135.957V117.689ZM137.989 118.36L138.567 118.08C138.772 118.416 139.145 118.64 139.648 118.64C140.375 118.64 140.86 118.173 140.86 117.428V117.185C140.636 117.521 140.207 117.763 139.629 117.763C138.641 117.763 137.877 117.055 137.877 116.141C137.877 115.227 138.66 114.5 139.722 114.5C140.785 114.5 141.568 115.208 141.568 116.141V117.428C141.568 118.509 140.766 119.218 139.667 119.218C138.921 119.218 138.306 118.919 137.989 118.36ZM140.878 116.104C140.878 115.525 140.375 115.078 139.741 115.078C139.107 115.078 138.604 115.525 138.604 116.104C138.604 116.682 139.126 117.148 139.741 117.148C140.356 117.148 140.878 116.682 140.878 116.104ZM142.258 113.511C142.258 113.288 142.463 113.083 142.724 113.083C142.985 113.083 143.171 113.269 143.171 113.511C143.171 113.754 142.966 113.922 142.724 113.922C142.481 113.922 142.258 113.735 142.258 113.511ZM143.078 114.556V117.689H142.388V114.556H143.078ZM146.098 117.689C145.669 117.689 145.446 117.465 145.446 117.185C145.446 116.98 145.539 116.812 145.744 116.644L147.142 115.507C147.533 115.19 147.739 114.947 147.739 114.593C147.739 114.201 147.384 113.94 146.918 113.94C146.452 113.94 146.079 114.201 145.856 114.593L145.296 114.313C145.613 113.735 146.191 113.325 146.956 113.325C147.832 113.325 148.447 113.866 148.447 114.556C148.447 115.078 148.186 115.469 147.757 115.824L146.359 116.943C146.359 116.943 146.266 117.017 146.266 117.055C146.266 117.073 146.266 117.092 146.303 117.092H148.577V117.689H146.079H146.098ZM148.95 115.544C148.95 114.295 149.715 113.325 150.852 113.325C151.989 113.325 152.753 114.276 152.753 115.544C152.753 116.812 151.989 117.782 150.852 117.782C149.715 117.782 148.95 116.794 148.95 115.544ZM152.008 115.544C152.008 114.668 151.523 113.996 150.852 113.996C150.181 113.996 149.696 114.668 149.696 115.544C149.696 116.421 150.181 117.111 150.852 117.111C151.523 117.111 152.008 116.421 152.008 115.544ZM153.872 117.689C153.443 117.689 153.219 117.465 153.219 117.185C153.219 116.98 153.313 116.812 153.518 116.644L154.916 115.507C155.307 115.19 155.512 114.947 155.512 114.593C155.512 114.201 155.158 113.94 154.692 113.94C154.226 113.94 153.853 114.201 153.629 114.593L153.07 114.313C153.387 113.735 153.965 113.325 154.729 113.325C155.605 113.325 156.221 113.866 156.221 114.556C156.221 115.078 155.96 115.469 155.531 115.824L154.133 116.943C154.133 116.943 154.04 117.017 154.04 117.055C154.04 117.073 154.04 117.092 154.077 117.092H156.351V117.689H153.853H153.872ZM156.724 115.544C156.724 114.295 157.488 113.325 158.625 113.325C159.763 113.325 160.527 114.276 160.527 115.544C160.527 116.812 159.763 117.782 158.625 117.782C157.488 117.782 156.724 116.794 156.724 115.544ZM159.781 115.544C159.781 114.668 159.297 113.996 158.625 113.996C157.954 113.996 157.47 114.668 157.47 115.544C157.47 116.421 157.954 117.111 158.625 117.111C159.297 117.111 159.781 116.421 159.781 115.544Z" fill="#EBAA01"/>
<path d="M36.6316 23.5489H43.3241L46.4746 38.6888L49.2336 27.6695C50.0352 24.4252 51.7316 23.0455 54.3415 23.0455C56.9514 23.0455 58.6478 24.4252 59.4494 27.6695L62.2085 38.6888L65.359 23.5489H72.0515L67.7079 42.0635C67.0927 44.7111 65.1353 46.1841 62.4881 46.1841C60.1019 46.1841 57.9581 44.7484 57.3429 42.3246L54.3415 30.3544L51.3402 42.3246C50.725 44.7484 48.5811 46.1841 46.195 46.1841C43.5478 46.1841 41.5904 44.7111 40.9752 42.0635L36.6316 23.5489ZM80.1794 23.5489V45.6807H73.4869V23.5489H80.1794ZM83.9824 45.662V26.7932C83.9824 24.4252 86.0143 23.0269 88.1395 23.0269C89.836 23.0269 91.3273 23.5489 92.2035 24.7981L100.816 37.1599V23.5676H107.154V42.4364C107.154 44.8044 105.122 46.1654 102.997 46.1654C101.338 46.1654 99.8095 45.6434 98.9333 44.3942L90.3207 32.0324V45.662H83.9824ZM110.771 45.662V26.7932C110.771 24.4252 112.803 23.0269 114.928 23.0269C116.625 23.0269 118.116 23.5489 118.992 24.7981L127.605 37.1599V23.5676H133.943V42.4364C133.943 44.8044 131.911 46.1654 129.786 46.1654C128.127 46.1654 126.598 45.6434 125.722 44.3942L117.109 32.0324V45.662H110.771ZM143.189 45.662C139.07 45.662 137.392 43.7043 137.392 40.5906V28.6204C137.392 25.5067 139.051 23.5489 143.189 23.5489H155.717V28.956H144.084V31.9019H154.878V37.309H144.084V40.2549H155.885V45.662H143.171H143.189ZM158.793 45.662V23.5303H169.046C174.844 23.5303 179.262 25.9914 179.262 30.8764C179.262 33.7851 177.454 36.1903 174.583 37.0107C175.813 37.7379 176.615 39.0057 177.696 41.0007L180.194 45.662H172.924L170.649 41.5042C169.81 39.9939 168.878 39.4346 166.697 39.4346H165.467L165.429 45.662H158.812H158.793ZM165.485 29.1052L165.448 34.0461H169.027C170.985 34.0461 172.364 33.0579 172.364 31.4917C172.364 29.8137 170.985 29.1052 169.102 29.1052H165.485Z" fill="#EBAA01"/>
<path d="M44.9827 55.7675C44.9827 53.5114 46.8842 51.7774 49.4008 51.7774C51.9175 51.7774 53.8376 53.5114 53.8376 55.7675C53.8376 58.0236 51.9175 59.7575 49.4008 59.7575C46.8842 59.7575 44.9827 58.0422 44.9827 55.7675ZM51.9175 55.7675C51.9175 54.4064 50.8176 53.3623 49.4008 53.3623C47.984 53.3623 46.8842 54.4064 46.8842 55.7675C46.8842 57.1286 48.0027 58.1727 49.4008 58.1727C50.799 58.1727 51.9175 57.1286 51.9175 55.7675ZM54.6765 59.6084V53.3436C54.6765 52.4673 55.1426 51.9079 56.2984 51.9079H60.7725V53.4555H56.5221V55.4692H60.4928V56.9981H56.5221V59.6084H54.6765ZM63.8857 55.7675C63.8857 53.5114 65.7872 51.7774 68.3039 51.7774C70.8205 51.7774 72.7407 53.5114 72.7407 55.7675C72.7407 58.0236 70.8205 59.7575 68.3039 59.7575C65.7872 59.7575 63.8857 58.0422 63.8857 55.7675ZM70.8392 55.7675C70.8392 54.4064 69.7393 53.3623 68.3225 53.3623C66.9057 53.3623 65.8058 54.4064 65.8058 55.7675C65.8058 57.1286 66.9244 58.1727 68.3225 58.1727C69.7207 58.1727 70.8392 57.1286 70.8392 55.7675ZM74.8286 58.3592L72.6475 51.9266H74.5489L76.5064 57.893C76.5623 58.0422 76.6369 58.1168 76.7673 58.1168C76.8978 58.1168 76.9724 58.0422 77.0283 57.893L78.9671 51.9266H80.8686L78.6875 58.3592C78.3519 59.3101 77.7554 59.7762 76.7673 59.7762C75.7793 59.7762 75.1828 59.3101 74.8472 58.3592H74.8286ZM83.0311 59.6084C81.8566 59.6084 81.4092 59.0677 81.4092 58.1727V53.3436C81.4092 52.4673 81.8566 51.9079 83.0311 51.9079H87.5238V53.3996H83.2361V55.003H87.2442V56.4946H83.2361V58.0981H87.5984V59.5897H83.0311V59.6084ZM88.7915 59.6084V51.9079H92.0538C93.9739 51.9079 95.4467 52.7283 95.4467 54.3505C95.4467 55.3946 94.7569 56.215 93.6757 56.476C94.2163 56.7557 94.5332 57.2777 94.9806 58.0795L95.8009 59.6084H93.8062L93.0418 58.2286C92.6504 57.5201 92.2775 57.1472 91.3268 57.1472H90.5997V59.6084H88.7728H88.7915ZM90.637 53.4555V55.6556H92.0725C92.9486 55.6556 93.5825 55.2454 93.5825 54.5183C93.5825 53.7911 92.93 53.4368 92.1097 53.4368H90.6557L90.637 53.4555ZM98.3175 53.008C98.6158 52.169 99.3615 51.7774 100.163 51.7774C100.965 51.7774 101.729 52.169 102.027 53.008L104.283 59.627H102.4L101.915 58.0422H98.4667L97.982 59.627H96.0991L98.3548 53.008H98.3175ZM98.9327 56.5506H101.412L100.461 53.4928C100.405 53.325 100.331 53.269 100.182 53.269C100.051 53.269 99.958 53.3436 99.9021 53.4928L98.9327 56.5506ZM106.949 58.0795H110.92V59.627H106.744C105.569 59.627 105.122 59.0863 105.122 58.1914V51.9266H106.967V58.0795H106.949ZM113.399 58.0795H117.37V59.627H113.194C112.019 59.627 111.572 59.0863 111.572 58.1914V51.9266H113.418V58.0795H113.399ZM120.241 55.7675C120.241 53.5301 122.179 51.7588 124.64 51.7588C126.113 51.7588 127.53 52.4673 128.163 53.6606L126.653 54.425C126.243 53.7538 125.572 53.3436 124.566 53.3436C123.149 53.3436 122.123 54.3691 122.123 55.7488C122.123 57.1286 123.13 58.1541 124.566 58.1541C125.591 58.1541 126.262 57.7252 126.653 57.0727L128.163 57.8371C127.53 59.0304 126.113 59.7389 124.64 59.7389C122.161 59.7389 120.241 57.9676 120.241 55.7302V55.7675ZM128.853 59.6084V51.9079H132.116C134.036 51.9079 135.508 52.7283 135.508 54.3505C135.508 55.3946 134.819 56.215 133.737 56.476C134.278 56.7557 134.595 57.2777 135.042 58.0795L135.863 59.6084H133.868L133.104 58.2286C132.712 57.5201 132.339 57.1472 131.389 57.1472H130.661V59.6084H128.835H128.853ZM130.699 53.4555V55.6556H132.134C133.01 55.6556 133.644 55.2454 133.644 54.5183C133.644 53.7911 132.992 53.4368 132.171 53.4368H130.717L130.699 53.4555ZM138.808 51.9266V59.627H136.962V51.9266H138.808ZM146.321 53.4555H143.823V59.6084H141.977V53.4555H139.479V51.9079H146.321V53.4555ZM148.521 59.6084C147.346 59.6084 146.899 59.0677 146.899 58.1727V53.3436C146.899 52.4673 147.346 51.9079 148.521 51.9079H153.013V53.3996H148.726V55.003H152.734V56.4946H148.726V58.0981H153.088V59.5897H148.521V59.6084ZM154.281 59.6084V51.9079H157.543C159.463 51.9079 160.936 52.7283 160.936 54.3505C160.936 55.3946 160.246 56.215 159.165 56.476C159.706 56.7557 160.023 57.2777 160.47 58.0795L161.29 59.6084H159.296L158.531 58.2286C158.14 57.5201 157.767 57.1472 156.816 57.1472H156.089V59.6084H154.262H154.281ZM156.127 53.4555V55.6556H157.562C158.438 55.6556 159.072 55.2454 159.072 54.5183C159.072 53.7911 158.419 53.4368 157.599 53.4368H156.145L156.127 53.4555ZM164.217 51.9266V59.627H162.372V51.9266H164.217ZM167.088 53.008C167.386 52.169 168.132 51.7774 168.934 51.7774C169.735 51.7774 170.5 52.169 170.798 53.008L173.053 59.627H171.171L170.686 58.0422H167.237L166.752 59.627H164.87L167.125 53.008H167.088ZM167.703 56.5506H170.183L169.232 53.4928C169.176 53.325 169.101 53.269 168.952 53.269C168.822 53.269 168.729 53.3436 168.673 53.4928L167.703 56.5506Z" fill="#EBAA01"/>
<path d="M51.0793 77.806V66.1155H57.5481V77.6568C57.5481 80.9384 58.9463 82.2994 61.8172 82.2994C64.688 82.2994 66.1048 80.9384 66.1048 77.6568V66.1155H72.5736V77.806C72.5736 84.1267 69.1808 87.8184 61.8172 87.8184C54.4536 87.8184 51.098 84.1267 51.098 77.806H51.0793ZM75.8733 87.4455V66.1155H85.7535C91.3462 66.1155 95.5965 68.4834 95.5965 73.2006C95.5965 76.016 93.8442 78.328 91.0852 79.1111C92.2783 79.801 93.0426 81.0316 94.0865 82.9707L96.4914 87.4641H89.4633L87.2635 83.4554C86.4619 82.0011 85.5485 81.4604 83.4606 81.4604H82.2675L82.2302 87.4641H75.836L75.8733 87.4455ZM82.342 71.4853L82.3048 76.2584H85.7535C87.6364 76.2584 88.96 75.3075 88.96 73.7973C88.96 72.1938 87.6364 71.4853 85.8095 71.4853H82.3234H82.342ZM98.9707 87.4455V66.1155H108.851C114.798 66.1155 118.358 68.4834 118.358 72.1565C118.358 74.4685 117.035 76.0533 114.966 76.8737C117.054 77.5076 118.526 78.8315 118.526 81.4231C118.526 85.4132 114.611 87.4641 108.851 87.4641H98.9707V87.4455ZM105.421 74.5431H109.187C110.995 74.5431 111.871 73.8532 111.871 72.6226C111.871 71.5412 111.032 70.8513 109.187 70.8513H105.421V74.5431ZM105.421 82.691H109.187C110.995 82.691 112.057 82.2249 112.057 80.9756C112.057 79.6518 111.014 79.2603 109.187 79.2603H105.421V82.6723V82.691ZM125.126 69.4902C126.002 66.8613 128.444 65.6307 130.886 65.6307C133.328 65.6307 135.77 66.8613 136.646 69.4902L142.724 87.4455H136.124L135.043 83.847H126.766L125.648 87.4455H119.048L125.126 69.4902ZM128.369 78.6264H133.44L131.203 71.2056C131.128 70.9819 131.072 70.8886 130.923 70.8886C130.774 70.8886 130.718 70.9819 130.644 71.2056L128.369 78.6264ZM144.122 87.4455V69.2479C144.122 66.9732 146.079 65.6121 148.13 65.6121C149.77 65.6121 151.206 66.1155 152.045 67.3274L160.359 79.2416V66.1155H166.474V84.3131C166.474 86.5878 164.516 87.9116 162.466 87.9116C160.862 87.9116 159.39 87.4082 158.551 86.1963L150.236 74.282V87.4269H144.122V87.4455Z" fill="#EBAA01"/>
<path d="M61.8726 100.05C61.8726 96.2649 65.1536 93.2444 69.3667 93.2444C71.8833 93.2444 74.2882 94.4563 75.3507 96.4886L72.7968 97.7938C72.0884 96.6751 70.9699 95.9479 69.2362 95.9479C66.8313 95.9479 65.0976 97.6819 65.0976 100.05C65.0976 102.418 66.8127 104.152 69.2362 104.152C70.9699 104.152 72.1443 103.425 72.7968 102.306L75.3507 103.611C74.2695 105.643 71.8647 106.855 69.3667 106.855C65.1536 106.855 61.8726 103.835 61.8726 100.05ZM75.2948 100.05C75.2948 96.209 78.5385 93.263 82.8076 93.263C87.0766 93.263 90.3389 96.1903 90.3389 100.05C90.3389 103.909 87.0766 106.837 82.8076 106.837C78.5385 106.837 75.2948 103.928 75.2948 100.05ZM87.0952 100.05C87.0952 97.7379 85.231 95.9479 82.8076 95.9479C80.3841 95.9479 78.5199 97.7379 78.5199 100.05C78.5199 102.362 80.4027 104.152 82.8076 104.152C85.2124 104.152 87.0952 102.362 87.0952 100.05ZM91.7744 106.594V95.2954C91.7744 93.9902 92.8183 93.2444 94.0114 93.2444C94.9622 93.2444 95.7079 93.5614 96.1739 94.2699L101.878 103.126V93.5054H104.842V104.786C104.842 106.091 103.799 106.818 102.643 106.818C101.711 106.818 100.928 106.52 100.443 105.811L94.7385 96.8988V106.576H91.7557L91.7744 106.594ZM106.334 100.05C106.334 96.2649 109.615 93.2444 113.828 93.2444C116.345 93.2444 118.749 94.4563 119.812 96.4886L117.258 97.7938C116.55 96.6751 115.431 95.9479 113.697 95.9479C111.293 95.9479 109.559 97.6819 109.559 100.05C109.559 102.418 111.274 104.152 113.697 104.152C115.431 104.152 116.606 103.425 117.258 102.306L119.812 103.611C118.731 105.643 116.326 106.855 113.828 106.855C109.615 106.855 106.334 103.835 106.334 100.05ZM123.522 106.594C121.527 106.594 120.744 105.662 120.744 104.17V95.9666C120.744 94.475 121.508 93.5241 123.522 93.5241H131.165V96.0784H123.876V98.8006H130.699V101.355H123.876V104.077H131.277V106.632H123.503L123.522 106.594ZM133.29 106.594V93.5241H138.379C142.481 93.5241 144.997 95.2581 144.997 98.2786C144.997 101.299 142.537 103.145 138.547 103.145H136.422V106.576H133.29V106.594ZM136.441 96.1344V100.497H138.473C140.542 100.497 141.772 99.7702 141.772 98.2599C141.772 96.7497 140.523 96.1157 138.473 96.1157H136.441V96.1344ZM156.462 96.1344H152.212V106.594H149.08V96.1344H144.83V93.5054H156.462V96.1344Z" fill="#EBAA01"/>
</g>
<defs>
<clipPath id="clip0_351_6950">
<rect width="218" height="120" fill="white"/>
</clipPath>
</defs>
</svg>
