<svg width="218" height="120" viewBox="0 0 218 120" fill="none" xmlns="http://www.w3.org/2000/svg">
<g clip-path="url(#clip0_351_6992)">
<path d="M51.246 116.233C49.7919 117.762 41.5522 112.56 38.905 108.085C38.905 108.085 37.4323 105.624 37.1153 102.156C37.0781 101.839 37.1154 101.504 37.1713 101.187C37.2086 100.982 37.3204 100.795 37.5068 100.31C37.8797 100.441 38.2898 100.515 38.6626 100.627C38.6626 100.627 39.2033 100.814 39.7252 101.093C45.2433 103.965 48.7293 109.782 48.7293 109.782C50.4071 112.579 52.0663 115.357 51.246 116.233Z" fill="#EBAA01"/>
<path d="M27.5151 12.8835C27.9625 4.71697 38.197 -1.80882 47.5553 0.447242C41.9441 6.56284 36.6125 12.4733 27.5151 12.8835Z" fill="#EBAA01"/>
<path d="M15.7515 85.9905C9.89786 78.1969 10.3826 69.4896 16.7208 64.2876C20.6543 71.6338 17.4665 78.4579 15.7515 85.9905Z" fill="#EBAA01"/>
<path d="M10.1598 70.8695C6.61783 61.8266 9.43278 53.4177 16.8523 50.1548C18.6419 58.3213 13.7577 64.12 10.1598 70.8695Z" fill="#EBAA01"/>
<path d="M11.8557 38.4274C12.7319 29.5709 20.3565 22.9706 27.6269 24.5554C26.527 29.7015 20.9157 34.6797 11.8557 38.4274Z" fill="#EBAA01"/>
<path d="M8.94639 54.5554C7.66009 45.1955 13.1968 36.8611 20.7282 36.7493C20.0757 44.8599 14.1289 49.2229 8.94639 54.5554Z" fill="#EBAA01"/>
<path d="M38.1973 14.5799C33.4622 21.4226 26.0427 22.1685 19.0706 24.1635C20.3382 17.4512 31.0574 10.6271 38.1973 14.5799Z" fill="#EBAA01"/>
<path d="M20.4684 78.0854C25.9119 84.1265 24.8493 91.4726 25.0544 98.7442C17.4484 94.3626 15.3605 82.6162 20.4684 78.0854Z" fill="#EBAA01"/>
<path d="M22.817 99.9186C15.211 99.9558 7.77284 93.2436 6.07642 84.7974C14.3721 86.7178 18.7903 93.0385 22.817 99.9186Z" fill="#EBAA01"/>
<path d="M37.5632 109.465C28.8015 105.829 25.0171 98.6508 27.2355 90.0554C34.3381 94.6235 35.1957 102.026 37.5632 109.465Z" fill="#EBAA01"/>
<path d="M50.5751 117.799C45.0384 122.61 32.6414 118.806 28.6147 113.25C36.78 110.602 43.6775 114.275 50.5751 117.799Z" fill="#EBAA01"/>
<path d="M5.72186 30.8948C10.1959 38.3715 8.81644 45.8855 6.84038 53.4181C1.41555 49.2416 0.893571 39.602 5.72186 30.8948Z" fill="#EBAA01"/>
<path d="M14.9876 15.3071C17.5042 23.5483 13.7013 30.3724 10.1406 37.0846C5.83432 32.0877 8.29507 20.6023 14.9876 15.3071Z" fill="#EBAA01"/>
<path d="M8.03381 70.3846C1.32268 66.7675 -1.84647 56.9601 1.09897 48.8682C7.60504 54.7227 7.38134 62.7028 8.03381 70.3846Z" fill="#EBAA01"/>
<path d="M17.4669 22.4482C14.7824 16.1088 20.692 5.40655 28.447 2.27417C26.8065 7.51345 27.0675 13.0138 22.3697 16.7614C20.5055 18.253 19.2006 20.4159 17.4669 22.4668V22.4482Z" fill="#EBAA01"/>
<path d="M1.11771 67.1035C8.76095 71.1682 11.1098 78.4957 13.3096 85.7859C6.76625 85.3198 0.577095 75.9972 1.11771 67.1035Z" fill="#EBAA01"/>
<path d="M35.6433 110.77C28 112.728 19.8721 108.533 14.9692 99.8071C19.2755 101.019 23.3395 101.522 26.7137 103.294C29.9947 105.028 32.5487 108.104 35.6619 110.77H35.6433Z" fill="#EBAA01"/>
<path d="M166.753 116.233C168.207 117.762 176.447 112.56 179.094 108.085C179.094 108.085 180.567 105.624 180.884 102.156C180.921 101.839 180.884 101.504 180.828 101.187C180.79 100.982 180.679 100.795 180.492 100.31C180.119 100.441 179.709 100.515 179.336 100.627C179.336 100.627 178.796 100.814 178.274 101.093C172.756 103.965 169.27 109.782 169.27 109.782C167.592 112.579 165.933 115.357 166.753 116.233Z" fill="#EBAA01"/>
<path d="M190.485 12.8835C190.038 4.71697 179.803 -1.80882 170.445 0.447242C176.056 6.56284 181.388 12.4733 190.485 12.8835Z" fill="#EBAA01"/>
<path d="M202.248 85.9905C208.102 78.1969 207.617 69.4896 201.279 64.2876C197.345 71.6338 200.533 78.4579 202.248 85.9905Z" fill="#EBAA01"/>
<path d="M207.84 70.8695C211.382 61.8266 208.567 53.4177 201.148 50.1548C199.358 58.3213 204.242 64.12 207.84 70.8695Z" fill="#EBAA01"/>
<path d="M206.144 38.4274C205.268 29.5709 197.643 22.9706 190.373 24.5554C191.473 29.7015 197.084 34.6797 206.144 38.4274Z" fill="#EBAA01"/>
<path d="M209.051 54.5554C210.338 45.1955 204.801 36.8611 197.27 36.7493C197.922 44.8599 203.869 49.2229 209.051 54.5554Z" fill="#EBAA01"/>
<path d="M179.802 14.5799C184.538 21.4226 191.957 22.1685 198.929 24.1635C197.662 17.4512 186.942 10.6271 179.802 14.5799Z" fill="#EBAA01"/>
<path d="M197.531 78.0854C192.087 84.1265 193.15 91.4726 192.945 98.7442C200.551 94.3626 202.639 82.6162 197.531 78.0854Z" fill="#EBAA01"/>
<path d="M195.182 99.9186C202.788 99.9558 210.226 93.2436 211.923 84.7974C203.627 86.7178 199.209 93.0385 195.182 99.9186Z" fill="#EBAA01"/>
<path d="M180.437 109.465C189.198 105.829 192.983 98.6508 190.764 90.0554C183.662 94.6235 182.804 102.026 180.437 109.465Z" fill="#EBAA01"/>
<path d="M167.424 117.799C172.961 122.61 185.358 118.806 189.384 113.25C181.219 110.602 174.322 114.275 167.424 117.799Z" fill="#EBAA01"/>
<path d="M212.277 30.8948C207.803 38.3715 209.182 45.8855 211.158 53.4181C216.583 49.2416 217.105 39.602 212.277 30.8948Z" fill="#EBAA01"/>
<path d="M203.011 15.3071C200.495 23.5483 204.298 30.3724 207.858 37.0846C212.164 32.0877 209.704 20.6023 203.011 15.3071Z" fill="#EBAA01"/>
<path d="M209.965 70.3846C216.676 66.7675 219.846 56.9601 216.9 48.8682C210.394 54.7227 210.618 62.7028 209.965 70.3846Z" fill="#EBAA01"/>
<path d="M200.533 22.4482C203.217 16.1088 197.308 5.40655 189.552 2.27417C191.193 7.51345 190.932 13.0138 195.63 16.7614C197.494 18.253 198.799 20.4159 200.533 22.4668V22.4482Z" fill="#EBAA01"/>
<path d="M216.881 67.1035C209.238 71.1682 206.889 78.4957 204.689 85.7859C211.232 85.3198 217.421 75.9972 216.881 67.1035Z" fill="#EBAA01"/>
<path d="M182.375 110.77C190.018 112.728 198.146 108.533 203.049 99.8071C198.742 101.019 194.678 101.522 191.304 103.294C188.023 105.028 185.469 108.104 182.356 110.77H182.375Z" fill="#EBAA01"/>
<path d="M57.6973 117.689V113.4H58.4243V115.246H59.1141C59.17 115.097 59.2632 114.947 59.3937 114.798L60.7173 113.381H61.5375L60.0648 114.985C59.8784 115.19 59.7665 115.358 59.7665 115.525C59.7665 115.693 59.8784 115.842 60.0648 116.048L61.5935 117.67H60.6986L59.3937 116.271C59.2632 116.122 59.17 115.973 59.1141 115.824H58.4243V117.67H57.6973V117.689ZM61.407 116.122C61.407 115.227 62.2273 114.481 63.2526 114.481C64.2779 114.481 65.0795 115.227 65.0795 116.122C65.0795 117.017 64.2779 117.782 63.2526 117.782C62.2273 117.782 61.407 117.036 61.407 116.122ZM64.3898 116.122C64.3898 115.544 63.9051 115.078 63.2526 115.078C62.6001 115.078 62.0968 115.544 62.0968 116.122C62.0968 116.7 62.6001 117.166 63.2526 117.166C63.9051 117.166 64.3898 116.7 64.3898 116.122ZM66.2167 116.178V117.689H65.5269V116.104C65.5269 115.19 66.1235 114.462 67.242 114.462C68.3605 114.462 68.9757 115.171 68.9757 116.085V117.67H68.2859V116.159C68.2859 115.563 67.9317 115.059 67.242 115.059C66.5522 115.059 66.2353 115.563 66.2353 116.141L66.2167 116.178ZM69.8705 116.57V115.115H69.1808V114.574H69.8705V113.754H70.5603V114.574H71.8839V115.115H70.5603V116.551C70.5603 116.961 70.8213 117.204 71.25 117.204C71.4737 117.204 71.7161 117.129 71.8839 117.017V117.595C71.7161 117.707 71.4364 117.782 71.1755 117.782C70.3179 117.782 69.8519 117.297 69.8519 116.57H69.8705ZM72.1635 116.104C72.1635 115.208 72.8719 114.462 73.9158 114.462C74.9598 114.462 75.6123 115.152 75.6123 116.029V116.29H72.8532C72.9278 116.831 73.3752 117.204 74.009 117.204C74.4378 117.204 74.8107 117.036 75.0157 116.7L75.5563 116.943C75.2581 117.483 74.6988 117.763 74.0277 117.763C72.9837 117.763 72.2008 117.073 72.2008 116.104H72.1635ZM74.9039 115.88C74.8666 115.376 74.4751 115.041 73.8972 115.041C73.3193 115.041 72.9278 115.414 72.8532 115.88H74.8852H74.9039ZM75.9105 117.073L76.4511 116.812C76.6189 117.129 76.9172 117.241 77.29 117.241C77.6629 117.241 77.9798 117.092 77.9798 116.812C77.9798 116.159 76.0037 116.644 76.0037 115.451C76.0037 114.891 76.5444 114.5 77.29 114.5C77.9239 114.5 78.3713 114.761 78.595 115.134L78.0544 115.414C77.9052 115.134 77.6256 115.041 77.3087 115.041C76.9918 115.041 76.6935 115.19 76.6935 115.451C76.6935 116.085 78.6696 115.619 78.6696 116.812C78.6696 117.409 78.0357 117.782 77.3087 117.782C76.6749 117.782 76.1715 117.558 75.9105 117.092V117.073ZM80.7202 117.689L81.3913 113.884C81.4472 113.511 81.7455 113.306 82.137 113.306C82.4725 113.306 82.7708 113.455 82.864 113.791L83.7775 116.775C83.7775 116.775 83.8148 116.849 83.8334 116.849C83.8707 116.849 83.8893 116.831 83.908 116.775L84.8028 113.791C84.896 113.455 85.2129 113.306 85.5485 113.306C85.9213 113.306 86.2196 113.511 86.2755 113.884L86.872 117.67H86.145L85.623 114.09C85.623 114.09 85.5857 113.94 85.5112 113.94C85.4553 113.94 85.3993 113.978 85.3807 114.071L84.4113 117.148C84.3367 117.409 84.113 117.539 83.8334 117.539C83.5724 117.539 83.3487 117.409 83.2555 117.166L82.2861 114.071C82.2861 114.071 82.2302 113.94 82.1556 113.94C82.081 113.94 82.0438 113.978 82.0251 114.09L81.4472 117.67H80.7202V117.689ZM87.189 116.122C87.189 115.227 88.0092 114.481 89.0345 114.481C90.0598 114.481 90.8614 115.227 90.8614 116.122C90.8614 117.017 90.0598 117.782 89.0345 117.782C88.0092 117.782 87.189 117.036 87.189 116.122ZM90.1717 116.122C90.1717 115.544 89.6684 115.078 89.0345 115.078C88.4007 115.078 87.8787 115.544 87.8787 116.122C87.8787 116.7 88.3821 117.166 89.0345 117.166C89.687 117.166 90.1717 116.7 90.1717 116.122ZM91.3089 116.122V113.101H91.9986V114.929C92.2782 114.649 92.707 114.462 93.1731 114.462C94.217 114.462 94.9813 115.152 94.9813 116.122C94.9813 117.017 94.1984 117.763 93.1544 117.763C92.1105 117.763 91.3089 117.055 91.3089 116.122ZM94.2916 116.122C94.2916 115.544 93.8069 115.078 93.1544 115.078C92.5019 115.078 92.0173 115.544 92.0173 116.122C92.0173 116.7 92.5019 117.166 93.1544 117.166C93.8069 117.166 94.2916 116.7 94.2916 116.122ZM95.4474 113.511C95.4474 113.288 95.6525 113.083 95.9134 113.083C96.1744 113.083 96.3608 113.269 96.3608 113.511C96.3608 113.754 96.1558 113.922 95.9134 113.922C95.6711 113.922 95.4474 113.735 95.4474 113.511ZM96.2676 114.556V117.689H95.5779V114.556H96.2676ZM97.8522 113.12V117.689H97.1625V113.12H97.8522ZM100.499 117.689V113.4H101.226V115.246H103.724V113.4H104.451V117.689H103.724V115.842H101.226V117.689H100.499ZM105.085 116.104C105.085 115.208 105.794 114.462 106.838 114.462C107.882 114.462 108.534 115.152 108.534 116.029V116.29H105.775C105.85 116.831 106.297 117.204 106.931 117.204C107.36 117.204 107.732 117.036 107.938 116.7L108.478 116.943C108.18 117.483 107.621 117.763 106.95 117.763C105.906 117.763 105.123 117.073 105.123 116.104H105.085ZM107.826 115.88C107.788 115.376 107.397 115.041 106.819 115.041C106.241 115.041 105.85 115.414 105.775 115.88H107.807H107.826ZM114.91 116.048V117.707H114.22V116.159C114.22 115.581 113.903 115.097 113.269 115.097C112.635 115.097 112.318 115.581 112.318 116.159V117.726H111.629V116.159C111.629 115.581 111.312 115.097 110.678 115.097C110.044 115.097 109.746 115.6 109.746 116.159V117.707H109.056V116.066C109.056 115.19 109.615 114.481 110.641 114.481C111.33 114.481 111.834 114.798 112.002 115.283C112.188 114.798 112.673 114.481 113.344 114.481C114.388 114.481 114.947 115.19 114.947 116.048H114.91ZM115.338 116.122C115.338 115.227 116.121 114.481 117.184 114.481C118.247 114.481 119.03 115.19 119.03 116.122V117.689H118.358V117.129C118.097 117.521 117.631 117.763 117.072 117.763C116.065 117.763 115.338 117.017 115.338 116.104V116.122ZM118.321 116.122C118.321 115.544 117.818 115.078 117.184 115.078C116.55 115.078 116.047 115.544 116.047 116.122C116.047 116.7 116.55 117.166 117.184 117.166C117.818 117.166 118.321 116.7 118.321 116.122ZM119.924 116.57V115.115H119.235V114.574H119.924V113.754H120.614V114.574H121.938V115.115H120.614V116.551C120.614 116.961 120.875 117.204 121.304 117.204C121.528 117.204 121.77 117.129 121.938 117.017V117.595C121.77 117.707 121.49 117.782 121.229 117.782C120.372 117.782 119.906 117.297 119.906 116.57H119.924ZM124.958 117.689C124.473 117.689 124.287 117.465 124.287 117.092V113.978C124.287 113.605 124.454 113.381 124.958 113.381H127.549V113.978H125.014V115.227H127.418V115.824H125.014V117.073H127.605V117.67H124.958V117.689ZM128.835 116.178V117.689H128.146V116.104C128.146 115.19 128.742 114.462 129.861 114.462C130.979 114.462 131.594 115.171 131.594 116.085V117.67H130.905V116.159C130.905 115.563 130.55 115.059 129.861 115.059C129.171 115.059 128.854 115.563 128.854 116.141L128.835 116.178ZM132.023 116.104C132.023 115.208 132.731 114.462 133.775 114.462C134.819 114.462 135.472 115.152 135.472 116.029V116.29H132.713C132.787 116.831 133.235 117.204 133.869 117.204C134.297 117.204 134.67 117.036 134.875 116.7L135.416 116.943C135.118 117.483 134.558 117.763 133.887 117.763C132.843 117.763 132.06 117.073 132.06 116.104H132.023ZM134.763 115.88C134.726 115.376 134.335 115.041 133.757 115.041C133.179 115.041 132.787 115.414 132.713 115.88H134.745H134.763ZM135.957 117.689V115.824C135.957 115.059 136.441 114.5 137.336 114.5C137.56 114.5 137.783 114.537 137.951 114.612V115.246C137.783 115.152 137.578 115.115 137.392 115.115C136.926 115.115 136.646 115.395 136.646 115.861V117.707H135.957V117.689ZM137.989 118.36L138.566 118.08C138.771 118.416 139.144 118.64 139.648 118.64C140.375 118.64 140.859 118.173 140.859 117.428V117.185C140.636 117.521 140.207 117.763 139.629 117.763C138.641 117.763 137.877 117.055 137.877 116.141C137.877 115.227 138.66 114.5 139.722 114.5C140.785 114.5 141.568 115.208 141.568 116.141V117.428C141.568 118.509 140.766 119.218 139.666 119.218C138.921 119.218 138.305 118.919 137.989 118.36ZM140.878 116.104C140.878 115.525 140.375 115.078 139.741 115.078C139.107 115.078 138.604 115.525 138.604 116.104C138.604 116.682 139.126 117.148 139.741 117.148C140.356 117.148 140.878 116.682 140.878 116.104ZM142.258 113.511C142.258 113.288 142.463 113.083 142.724 113.083C142.985 113.083 143.171 113.269 143.171 113.511C143.171 113.754 142.966 113.922 142.724 113.922C142.481 113.922 142.258 113.735 142.258 113.511ZM143.078 114.556V117.689H142.388V114.556H143.078ZM146.098 117.689C145.669 117.689 145.445 117.465 145.445 117.185C145.445 116.98 145.539 116.812 145.744 116.644L147.142 115.507C147.533 115.19 147.738 114.947 147.738 114.593C147.738 114.201 147.384 113.94 146.918 113.94C146.452 113.94 146.079 114.201 145.855 114.593L145.296 114.313C145.613 113.735 146.191 113.325 146.955 113.325C147.832 113.325 148.447 113.866 148.447 114.556C148.447 115.078 148.186 115.469 147.757 115.824L146.359 116.943C146.359 116.943 146.266 117.017 146.266 117.055C146.266 117.073 146.266 117.092 146.303 117.092H148.577V117.689H146.079H146.098ZM148.95 115.544C148.95 114.295 149.714 113.325 150.852 113.325C151.989 113.325 152.753 114.276 152.753 115.544C152.753 116.812 151.989 117.782 150.852 117.782C149.714 117.782 148.95 116.794 148.95 115.544ZM152.007 115.544C152.007 114.668 151.523 113.996 150.852 113.996C150.18 113.996 149.696 114.668 149.696 115.544C149.696 116.421 150.18 117.111 150.852 117.111C151.523 117.111 152.007 116.421 152.007 115.544ZM153.872 117.689C153.443 117.689 153.219 117.465 153.219 117.185C153.219 116.98 153.312 116.812 153.517 116.644L154.915 115.507C155.307 115.19 155.512 114.947 155.512 114.593C155.512 114.201 155.158 113.94 154.692 113.94C154.226 113.94 153.853 114.201 153.629 114.593L153.07 114.313C153.387 113.735 153.965 113.325 154.729 113.325C155.605 113.325 156.22 113.866 156.22 114.556C156.22 115.078 155.959 115.469 155.531 115.824L154.133 116.943C154.133 116.943 154.039 117.017 154.039 117.055C154.039 117.073 154.039 117.092 154.077 117.092H156.351V117.689H153.853H153.872ZM156.724 115.544C156.724 114.295 157.488 113.325 158.625 113.325C159.762 113.325 160.527 114.276 160.527 115.544C160.527 116.812 159.762 117.782 158.625 117.782C157.488 117.782 156.724 116.794 156.724 115.544ZM159.781 115.544C159.781 114.668 159.296 113.996 158.625 113.996C157.954 113.996 157.469 114.668 157.469 115.544C157.469 116.421 157.954 117.111 158.625 117.111C159.296 117.111 159.781 116.421 159.781 115.544Z" fill="#EBAA01"/>
<path d="M36.6313 23.5489H43.3238L46.4743 38.6888L49.2334 27.6695C50.035 24.4252 51.7314 23.0455 54.3413 23.0455C56.9512 23.0455 58.6476 24.4252 59.4492 27.6695L62.2082 38.6888L65.3587 23.5489H72.0512L67.7076 42.0635C67.0924 44.7111 65.135 46.1841 62.4879 46.1841C60.1017 46.1841 57.9578 44.7484 57.3427 42.3246L54.3413 30.3544L51.3399 42.3246C50.7247 44.7484 48.5809 46.1841 46.1947 46.1841C43.5475 46.1841 41.5901 44.7111 40.9749 42.0635L36.6313 23.5489ZM80.1791 23.5489V45.6807H73.4867V23.5489H80.1791ZM83.9821 45.662V26.7932C83.9821 24.4252 86.0141 23.0269 88.1393 23.0269C89.8357 23.0269 91.3271 23.5489 92.2033 24.7981L100.816 37.1599V23.5676H107.154V42.4364C107.154 44.8044 105.122 46.1654 102.997 46.1654C101.338 46.1654 99.8092 45.6434 98.933 44.3942L90.3204 32.0324V45.662H83.9821ZM110.771 45.662V26.7932C110.771 24.4252 112.803 23.0269 114.928 23.0269C116.624 23.0269 118.116 23.5489 118.992 24.7981L127.604 37.1599V23.5676H133.943V42.4364C133.943 44.8044 131.911 46.1654 129.786 46.1654C128.126 46.1654 126.598 45.6434 125.722 44.3942L117.109 32.0324V45.662H110.771ZM143.189 45.662C139.069 45.662 137.392 43.7043 137.392 40.5906V28.6204C137.392 25.5067 139.051 23.5489 143.189 23.5489H155.717V28.956H144.084V31.9019H154.878V37.309H144.084V40.2549H155.884V45.662H143.171H143.189ZM158.793 45.662V23.5303H169.046C174.843 23.5303 179.262 25.9914 179.262 30.8764C179.262 33.7851 177.453 36.1903 174.582 37.0107C175.813 37.7379 176.614 39.0057 177.696 41.0007L180.194 45.662H172.923L170.649 41.5042C169.81 39.9939 168.878 39.4346 166.697 39.4346H165.466L165.429 45.662H158.811H158.793ZM165.485 29.1052L165.448 34.0461H169.027C170.985 34.0461 172.364 33.0579 172.364 31.4917C172.364 29.8137 170.985 29.1052 169.102 29.1052H165.485Z" fill="#EBAA01"/>
<path d="M48.339 53.008C48.6373 52.169 49.383 51.7774 50.1846 51.7774C50.9862 51.7774 51.7505 52.169 52.0488 53.008L54.3045 59.627H52.4216L51.9369 58.0422H48.4881L48.0035 59.627H46.1206L48.3763 53.008H48.339ZM48.9356 56.5506H51.4149L50.4642 53.4928C50.4083 53.325 50.3337 53.269 50.1846 53.269C50.0541 53.269 49.9609 53.3436 49.9049 53.4928L48.9356 56.5506ZM56.6161 59.6084C55.4416 59.6084 54.9942 59.0677 54.9942 58.1727V53.3436C54.9942 52.4673 55.4416 51.9079 56.6161 51.9079H61.1088V53.3996H56.8211V55.003H60.8292V56.4946H56.8211V58.0981H61.1834V59.5897H56.6161V59.6084ZM62.3765 59.6084V51.9079H65.6388C67.5589 51.9079 69.0317 52.7283 69.0317 54.3505C69.0317 55.3946 68.3419 56.215 67.2607 56.476C67.8013 56.7557 68.1182 57.2777 68.5656 58.0795L69.3859 59.6084H67.3912L66.6269 58.2286C66.2354 57.5201 65.8625 57.1472 64.9118 57.1472H64.1847V59.6084H62.3578H62.3765ZM64.222 53.4555V55.6556H65.6575C66.5336 55.6556 67.1675 55.2454 67.1675 54.5183C67.1675 53.7911 66.515 53.4368 65.6947 53.4368H64.2407L64.222 53.4555ZM69.7774 55.7675C69.7774 53.5114 71.6788 51.7774 74.1955 51.7774C76.7122 51.7774 78.6323 53.5114 78.6323 55.7675C78.6323 58.0235 76.7122 59.7575 74.1955 59.7575C71.6788 59.7575 69.7774 58.0422 69.7774 55.7675ZM76.7308 55.7675C76.7308 54.4064 75.631 53.3623 74.2142 53.3623C72.7974 53.3623 71.6975 54.4064 71.6975 55.7675C71.6975 57.1286 72.816 58.1727 74.2142 58.1727C75.6123 58.1727 76.7308 57.1286 76.7308 55.7675ZM82.7149 59.6084H79.5831V51.9079H82.7522C85.5112 51.9079 87.3381 53.4368 87.3381 55.7675C87.3381 58.0981 85.3994 59.6084 82.7149 59.6084ZM82.7522 53.4555H81.4286V58.1168H82.7149C84.2995 58.1168 85.4367 57.2218 85.4367 55.7675C85.4367 54.3132 84.3554 53.4555 82.7522 53.4555ZM87.3195 51.9266H89.2956L91.0293 55.7861C91.1038 55.9353 91.1411 56.0099 91.2157 56.0099C91.2903 56.0099 91.3275 55.9167 91.4021 55.7861L93.1358 51.9266H95.1305L93.0613 56.2523C92.8375 56.7184 92.5206 57.054 92.1478 57.2591V59.627H90.3022V57.2777C89.9294 57.0726 89.5752 56.737 89.3515 56.2523L87.3009 51.9266H87.3195ZM95.6898 59.6084V52.9707C95.6898 52.2063 96.305 51.7588 96.9947 51.7588C97.554 51.7588 98.0014 51.9452 98.2624 52.3554L101.618 57.5761V51.9079H103.352V58.5456C103.352 59.3101 102.736 59.7389 102.065 59.7389C101.525 59.7389 101.059 59.5711 100.779 59.1423L97.4235 53.8843V59.5711H95.6711L95.6898 59.6084ZM106.185 53.008C106.484 52.169 107.229 51.7774 108.031 51.7774C108.832 51.7774 109.597 52.169 109.895 53.008L112.151 59.627H110.268L109.783 58.0422H106.334L105.85 59.627H103.967L106.223 53.008H106.185ZM106.8 56.5506H109.28L108.329 53.4928C108.273 53.325 108.199 53.269 108.049 53.269C107.919 53.269 107.826 53.3436 107.77 53.4928L106.8 56.5506ZM112.412 59.6084L113.567 52.9894C113.717 52.1876 114.332 51.7588 115.189 51.7588C115.954 51.7588 116.588 52.0571 116.793 52.8029L118.228 57.6134V57.6506C118.228 57.6506 118.247 57.6506 118.247 57.6134L119.645 52.8402C119.869 52.0944 120.521 51.7588 121.285 51.7588C122.124 51.7588 122.739 52.1876 122.87 53.008L123.914 59.5897H122.05L121.229 53.5487C121.229 53.5487 121.229 53.4555 121.173 53.4555C121.136 53.4555 121.118 53.4741 121.099 53.5301L119.514 58.6388C119.347 59.2168 118.825 59.5152 118.228 59.5152C117.631 59.5152 117.109 59.2355 116.96 58.6761L115.376 53.5487C115.376 53.5487 115.338 53.4741 115.32 53.4741C115.283 53.4741 115.245 53.4928 115.245 53.5487L114.295 59.6084H112.43H112.412ZM126.897 51.9266V59.627H125.051V51.9266H126.897ZM127.829 55.7675C127.829 53.5301 129.767 51.7588 132.228 51.7588C133.701 51.7588 135.118 52.4673 135.752 53.6606L134.242 54.425C133.831 53.7538 133.16 53.3436 132.154 53.3436C130.737 53.3436 129.712 54.3691 129.712 55.7488C129.712 57.1286 130.718 58.1541 132.154 58.1541C133.179 58.1541 133.85 57.7252 134.242 57.0726L135.752 57.8371C135.118 59.0304 133.701 59.7389 132.228 59.7389C129.749 59.7389 127.829 57.9676 127.829 55.7302V55.7675ZM139.387 59.6084V51.9079H142.668C144.793 51.9079 146.061 52.7097 146.061 54.0335C146.061 54.9098 145.539 55.5065 144.737 55.7861C145.576 56.0099 146.154 56.4946 146.154 57.4642C146.154 58.9745 144.681 59.6084 142.649 59.6084H139.387ZM141.232 55.1149H142.761C143.768 55.1149 144.234 54.7979 144.234 54.164C144.234 53.586 143.73 53.2877 142.78 53.2877H141.232V55.1149ZM141.232 58.2473H142.742C143.637 58.2473 144.308 58.0608 144.308 57.3523C144.308 56.6997 143.786 56.4946 142.761 56.4946H141.232V58.2473ZM146.638 55.7675C146.638 53.5114 148.54 51.7774 151.057 51.7774C153.573 51.7774 155.493 53.5114 155.493 55.7675C155.493 58.0235 153.573 59.7575 151.057 59.7575C148.54 59.7575 146.638 58.0422 146.638 55.7675ZM153.592 55.7675C153.592 54.4064 152.492 53.3623 151.075 53.3623C149.658 53.3623 148.559 54.4064 148.559 55.7675C148.559 57.1286 149.677 58.1727 151.075 58.1727C152.473 58.1727 153.592 57.1286 153.592 55.7675ZM159.576 59.6084H156.444V51.9079H159.613C162.372 51.9079 164.199 53.4368 164.199 55.7675C164.199 58.0981 162.261 59.6084 159.576 59.6084ZM159.613 53.4555H158.29V58.1168H159.576C161.161 58.1168 162.298 57.2218 162.298 55.7675C162.298 54.3132 161.217 53.4555 159.613 53.4555ZM164.181 51.9266H166.157L167.909 55.7861C167.984 55.9353 168.021 56.0099 168.095 56.0099C168.17 56.0099 168.207 55.9167 168.282 55.7861L170.016 51.9266H172.01L169.941 56.2523C169.717 56.7184 169.4 57.054 169.028 57.2591V59.627H167.182V57.2777C166.809 57.0726 166.455 56.737 166.231 56.2523L164.181 51.9266Z" fill="#EBAA01"/>
<path d="M51.0784 77.806V66.1155H57.5472V77.6568C57.5472 80.9384 58.9453 82.2994 61.8162 82.2994C64.6871 82.2994 66.1039 80.9384 66.1039 77.6568V66.1155H72.5726V77.806C72.5726 84.1267 69.1798 87.8184 61.8162 87.8184C54.4526 87.8184 51.097 84.1267 51.097 77.806H51.0784ZM75.8723 87.4455V66.1155H85.7526C91.3452 66.1155 95.5956 68.4834 95.5956 73.2006C95.5956 76.016 93.8432 78.328 91.0842 79.1111C92.2773 79.801 93.0416 81.0316 94.0856 82.9707L96.4904 87.4641H89.4623L87.2626 83.4554C86.461 82.0011 85.5475 81.4604 83.4596 81.4604H82.2665L82.2292 87.4641H75.835L75.8723 87.4455ZM82.3411 71.4853L82.3038 76.2584H85.7526C87.6354 76.2584 88.959 75.3075 88.959 73.7973C88.959 72.1938 87.6354 71.4853 85.8085 71.4853H82.3224H82.3411ZM98.9698 87.4455V66.1155H108.85C114.797 66.1155 118.357 68.4834 118.357 72.1565C118.357 74.4685 117.034 76.0533 114.965 76.8737C117.053 77.5076 118.525 78.8315 118.525 81.4231C118.525 85.4132 114.61 87.4641 108.85 87.4641H98.9698V87.4455ZM105.42 74.5431H109.186C110.994 74.5431 111.87 73.8532 111.87 72.6226C111.87 71.5412 111.031 70.8513 109.186 70.8513H105.42V74.5431ZM105.42 82.691H109.186C110.994 82.691 112.056 82.2249 112.056 80.9756C112.056 79.6518 111.013 79.2603 109.186 79.2603H105.42V82.6723V82.691ZM125.125 69.4902C126.001 66.8613 128.443 65.6307 130.885 65.6307C133.327 65.6307 135.769 66.8613 136.645 69.4902L142.723 87.4455H136.123L135.042 83.847H126.765L125.647 87.4455H119.047L125.125 69.4902ZM128.368 78.6264H133.439L131.202 71.2056C131.127 70.9819 131.071 70.8886 130.922 70.8886C130.773 70.8886 130.717 70.9819 130.643 71.2056L128.368 78.6264ZM144.121 87.4455V69.2479C144.121 66.9732 146.078 65.6121 148.129 65.6121C149.769 65.6121 151.205 66.1155 152.044 67.3274L160.358 79.2416V66.1155H166.473V84.3131C166.473 86.5878 164.515 87.9116 162.465 87.9116C160.861 87.9116 159.389 87.4082 158.55 86.1963L150.235 74.282V87.4269H144.121V87.4455Z" fill="#EBAA01"/>
<path d="M61.8728 100.049C61.8728 96.2645 65.1538 93.244 69.3669 93.244C71.8836 93.244 74.2884 94.4559 75.351 96.4882L72.797 97.7934C72.0886 96.6747 70.9701 95.9475 69.2364 95.9475C66.8316 95.9475 65.0979 97.6815 65.0979 100.049C65.0979 102.417 66.8129 104.151 69.2364 104.151C70.9701 104.151 72.1446 103.424 72.797 102.306L75.351 103.611C74.2698 105.643 71.8649 106.855 69.3669 106.855C65.1538 106.855 61.8728 103.834 61.8728 100.049ZM75.2951 100.049C75.2951 96.2086 78.5388 93.2626 82.8078 93.2626C87.0768 93.2626 90.3392 96.1899 90.3392 100.049C90.3392 103.909 87.0768 106.836 82.8078 106.836C78.5388 106.836 75.2951 103.928 75.2951 100.049ZM87.0955 100.049C87.0955 97.7375 85.2313 95.9475 82.8078 95.9475C80.3843 95.9475 78.5201 97.7375 78.5201 100.049C78.5201 102.361 80.403 104.151 82.8078 104.151C85.2126 104.151 87.0955 102.361 87.0955 100.049ZM91.7746 106.575V95.2763C91.7746 93.9711 92.8186 93.2253 94.0117 93.2253C94.9624 93.2253 95.7081 93.5423 96.1742 94.2508L101.879 103.107V93.4864H104.843V104.767C104.843 106.072 103.799 106.799 102.643 106.799C101.711 106.799 100.928 106.501 100.443 105.792L94.7387 96.8798V106.557H91.756L91.7746 106.575ZM106.334 100.049C106.334 96.2645 109.615 93.244 113.828 93.244C116.345 93.244 118.75 94.4559 119.812 96.4882L117.258 97.7934C116.55 96.6747 115.431 95.9475 113.698 95.9475C111.293 95.9475 109.559 97.6815 109.559 100.049C109.559 102.417 111.274 104.151 113.698 104.151C115.431 104.151 116.606 103.424 117.258 102.306L119.812 103.611C118.731 105.643 116.326 106.855 113.828 106.855C109.615 106.855 106.334 103.834 106.334 100.049ZM123.522 106.575C121.527 106.575 120.744 105.643 120.744 104.151V95.9475C120.744 94.4559 121.509 93.505 123.522 93.505H131.165V96.0594H123.876V98.7816H130.699V101.336H123.876V104.058H131.277V106.613H123.503L123.522 106.575ZM133.29 106.575V93.505H138.38C142.481 93.505 144.998 95.239 144.998 98.2595C144.998 101.28 142.537 103.126 138.547 103.126H136.422V106.557H133.29V106.575ZM136.441 96.134V100.497H138.473C140.542 100.497 141.773 99.7698 141.773 98.2595C141.773 96.7493 140.524 96.1153 138.473 96.1153H136.441V96.134ZM156.462 96.134H152.212V106.594H149.08V96.134H144.83V93.505H156.462V96.134Z" fill="#EBAA01"/>
</g>
<defs>
<clipPath id="clip0_351_6992">
<rect width="218" height="120" fill="white"/>
</clipPath>
</defs>
</svg>
