<svg width="216" height="120" viewBox="0 0 216 120" fill="none" xmlns="http://www.w3.org/2000/svg">
<g clip-path="url(#clip0_351_8377)">
<path d="M50.7769 115.302C49.3361 116.819 41.172 111.659 38.5491 107.22C38.5491 107.22 37.0899 104.778 36.7759 101.338C36.7389 101.024 36.7759 100.691 36.8313 100.376C36.8682 100.173 36.979 99.988 37.1637 99.5071C37.5332 99.6365 37.9395 99.7105 38.309 99.8215C38.309 99.8215 38.8446 100.006 39.3618 100.284C44.8292 103.132 48.2833 108.903 48.2833 108.903C49.9457 111.677 51.5896 114.433 50.7769 115.302Z" fill="#6B6B6B"/>
<path d="M27.2637 12.7807C27.707 4.67963 37.8476 -1.79386 47.12 0.444114C41.5602 6.5107 36.2775 12.3738 27.2637 12.7807Z" fill="#6B6B6B"/>
<path d="M15.6091 85.3022C9.80918 77.571 10.2894 68.9335 16.5696 63.7732C20.467 71.0605 17.3084 77.8299 15.6091 85.3022Z" fill="#6B6B6B"/>
<path d="M10.0673 70.3024C6.55776 61.332 9.34689 52.9904 16.6983 49.7537C18.4716 57.8548 13.6322 63.6069 10.0673 70.3024Z" fill="#6B6B6B"/>
<path d="M11.748 38.1195C12.6162 29.334 20.1708 22.7866 27.3745 24.3587C26.2847 29.4635 20.725 34.4019 11.748 38.1195Z" fill="#6B6B6B"/>
<path d="M8.86607 54.1187C7.59157 44.8339 13.0775 36.5663 20.5397 36.4553C19.8933 44.5009 14.001 48.8289 8.86607 54.1187Z" fill="#6B6B6B"/>
<path d="M37.8475 14.4636C33.1559 21.2515 25.8044 21.9914 18.8962 23.9704C20.1523 17.3119 30.7731 10.5425 37.8475 14.4636Z" fill="#6B6B6B"/>
<path d="M20.2814 77.46C25.6749 83.4526 24.622 90.7399 24.8252 97.9532C17.289 93.6067 15.2203 81.9544 20.2814 77.46Z" fill="#6B6B6B"/>
<path d="M22.6089 99.1184C15.0728 99.1554 7.70283 92.497 6.02197 84.1184C14.2416 86.0235 18.6192 92.2935 22.6089 99.1184Z" fill="#6B6B6B"/>
<path d="M37.2194 108.588C28.538 104.981 24.7884 97.8605 26.9864 89.334C34.0239 93.8654 34.8735 101.208 37.2194 108.588Z" fill="#6B6B6B"/>
<path d="M50.1121 116.856C44.6262 121.628 32.343 117.855 28.3533 112.343C36.4436 109.716 43.2778 113.36 50.1121 116.856Z" fill="#6B6B6B"/>
<path d="M5.67098 30.6475C10.104 38.0642 8.73717 45.518 6.77924 52.9902C1.40418 48.8472 0.886991 39.2849 5.67098 30.6475Z" fill="#6B6B6B"/>
<path d="M14.8511 15.1851C17.3447 23.3602 13.5766 30.1296 10.0487 36.788C5.78188 31.8312 8.22005 20.4378 14.8511 15.1851Z" fill="#6B6B6B"/>
<path d="M7.96129 69.8213C1.31172 66.2332 -1.82835 56.5044 1.09007 48.4773C7.53645 54.2849 7.3148 62.2011 7.96129 69.8213Z" fill="#6B6B6B"/>
<path d="M17.3075 22.2689C14.6477 15.9804 20.503 5.36387 28.187 2.25659C26.5615 7.45388 26.8201 12.9101 22.1654 16.6277C20.3183 18.1074 19.0253 20.2529 17.3075 22.2874V22.2689Z" fill="#6B6B6B"/>
<path d="M1.10862 66.5657C8.68174 70.5977 11.0091 77.8665 13.1887 85.0983C6.70534 84.636 0.572963 75.3881 1.10862 66.5657Z" fill="#6B6B6B"/>
<path d="M35.3174 109.883C27.7442 111.825 19.6909 107.664 14.833 99.0076C19.0998 100.21 23.1265 100.709 26.4697 102.466C29.7206 104.186 32.2512 107.238 35.3358 109.883H35.3174Z" fill="#6B6B6B"/>
<path d="M165.222 115.302C166.663 116.819 174.827 111.659 177.45 107.22C177.45 107.22 178.909 104.778 179.223 101.338C179.26 101.023 179.223 100.691 179.168 100.376C179.131 100.173 179.02 99.9877 178.835 99.5068C178.466 99.6363 178.059 99.7103 177.69 99.8213C177.69 99.8213 177.154 100.006 176.637 100.284C171.17 103.132 167.716 108.903 167.716 108.903C166.053 111.677 164.409 114.433 165.222 115.302Z" fill="#6B6B6B"/>
<path d="M188.736 12.7805C188.293 4.67938 178.153 -1.79411 168.88 0.44387C174.44 6.51046 179.723 12.3736 188.736 12.7805Z" fill="#6B6B6B"/>
<path d="M200.392 85.3019C206.192 77.5707 205.711 68.9332 199.431 63.7729C195.534 71.0602 198.692 77.8297 200.392 85.3019Z" fill="#6B6B6B"/>
<path d="M205.933 70.3021C209.443 61.3317 206.653 52.9902 199.302 49.7534C197.529 57.8545 202.368 63.6067 205.933 70.3021Z" fill="#6B6B6B"/>
<path d="M204.252 38.1192C203.384 29.3338 195.829 22.7863 188.625 24.3585C189.715 29.4633 195.275 34.4016 204.252 38.1192Z" fill="#6B6B6B"/>
<path d="M207.133 54.1185C208.408 44.8336 202.922 36.5661 195.46 36.4551C196.106 44.5007 201.998 48.8287 207.133 54.1185Z" fill="#6B6B6B"/>
<path d="M178.152 14.4634C182.844 21.2513 190.195 21.9911 197.104 23.9701C195.848 17.3117 185.227 10.5423 178.152 14.4634Z" fill="#6B6B6B"/>
<path d="M195.718 77.4597C190.325 83.4523 191.378 90.7396 191.175 97.9529C198.711 93.6064 200.779 81.9542 195.718 77.4597Z" fill="#6B6B6B"/>
<path d="M193.391 99.1182C200.927 99.1552 208.297 92.4967 209.978 84.1182C201.758 86.0232 197.38 92.2933 193.391 99.1182Z" fill="#6B6B6B"/>
<path d="M178.78 108.588C187.462 104.981 191.211 97.8603 189.013 89.3337C181.976 93.8652 181.126 101.208 178.78 108.588Z" fill="#6B6B6B"/>
<path d="M165.887 116.856C171.373 121.627 183.657 117.854 187.646 112.343C179.556 109.716 172.722 113.36 165.887 116.856Z" fill="#6B6B6B"/>
<path d="M210.328 30.6472C205.895 38.064 207.262 45.5177 209.22 52.99C214.595 48.847 215.112 39.2847 210.328 30.6472Z" fill="#6B6B6B"/>
<path d="M201.149 15.1848C198.655 23.3599 202.423 30.1293 205.951 36.7878C210.218 31.8309 207.78 20.4376 201.149 15.1848Z" fill="#6B6B6B"/>
<path d="M208.038 69.8211C214.688 66.2329 217.828 56.5042 214.909 48.4771C208.463 54.2847 208.685 62.2009 208.038 69.8211Z" fill="#6B6B6B"/>
<path d="M198.692 22.2687C201.352 15.9801 195.497 5.36362 187.813 2.25635C189.438 7.45363 189.18 12.9099 193.834 16.6275C195.681 18.1071 196.974 20.2526 198.692 22.2872V22.2687Z" fill="#6B6B6B"/>
<path d="M214.891 66.5654C207.318 70.5975 204.991 77.8663 202.811 85.0981C209.295 84.6357 215.427 75.3879 214.891 66.5654Z" fill="#6B6B6B"/>
<path d="M180.701 109.883C188.274 111.825 196.328 107.663 201.186 99.0073C196.919 100.21 192.892 100.709 189.549 102.466C186.298 104.186 183.768 107.238 180.683 109.883H180.701Z" fill="#6B6B6B"/>
<path d="M54.0089 79.698L49.0217 65.0124H54.563L58.8668 78.2368C58.8668 78.2368 58.9222 78.3478 58.9776 78.3478C59.033 78.3478 59.07 78.3293 59.0884 78.2368L63.3368 65.0124H68.8781L63.8909 79.698C63.0782 82.1394 61.582 83.3602 58.9407 83.3602C56.2993 83.3602 54.8032 82.1394 53.9904 79.698H54.0089ZM75.3244 65.0124V82.9348H69.9124V65.0124H75.3244ZM78.5569 82.9348V65.0124H86.8504C91.542 65.0124 95.1069 67.01 95.1069 70.968C95.1069 73.3355 93.6477 75.2775 91.3203 75.9434C92.3178 76.5352 92.9643 77.571 93.8324 79.1801L95.8457 82.9532H89.9535L88.1064 79.587C87.4414 78.3663 86.6656 77.9224 84.9109 77.9224H83.9135L83.8765 82.9717H78.5199L78.5569 82.9348ZM83.9689 69.5254L83.9319 73.5389H86.8319C88.4204 73.5389 89.5287 72.7436 89.5287 71.4674C89.5287 70.1172 88.4204 69.5254 86.8873 69.5254H83.9504H83.9689ZM112.617 69.5254H107.021V82.9348H101.609V69.5254H96.012V65.0124H112.617V69.5254ZM113.486 74.8336V65.0124H118.898V74.7042C118.898 77.46 120.061 78.6068 122.462 78.6068C124.864 78.6068 126.064 77.46 126.064 74.7042V65.0124H131.476V74.8336C131.476 80.1419 128.632 83.2492 122.462 83.2492C116.293 83.2492 113.467 80.1419 113.467 74.8336H113.486ZM136.593 67.8608C137.332 65.6598 139.382 64.624 141.432 64.624C143.482 64.624 145.533 65.6598 146.272 67.8608L151.37 82.9532H145.828L144.923 79.92H137.978L137.036 82.9532H131.495L136.593 67.8608ZM139.326 75.5365H143.575L141.709 69.3034C141.654 69.1185 141.598 69.0445 141.469 69.0445C141.34 69.0445 141.284 69.1185 141.229 69.3034L139.326 75.5365ZM158.093 78.4218H166.811V82.9348H157.354C154.011 82.9348 152.663 81.3441 152.663 78.8102V64.9939H158.075V78.4033L158.093 78.4218Z" fill="#6B6B6B"/>
<path d="M49.5761 98.5631H55.4129V100.838H49.2621C47.5258 100.838 46.8608 100.024 46.8608 98.7296V89.4817H49.5761V98.5631ZM58.553 100.857C56.8167 100.857 56.1518 100.043 56.1518 98.7481V91.6272C56.1518 90.3325 56.8167 89.5002 58.553 89.5002H65.1841V91.7197H58.8855V94.0871H64.7962V96.3066H58.8855V98.6741H65.2949V100.894H58.553V100.857ZM69.1369 91.0908C69.5617 89.8516 70.6884 89.2598 71.8521 89.2598C73.0158 89.2598 74.161 89.8516 74.5858 91.0908L77.8921 100.838H75.1215L74.4011 98.5076H69.3216L68.6012 100.838H65.8306L69.1369 91.0908ZM70.0235 96.3251H73.6807L72.2585 91.8122C72.1846 91.5717 72.0738 91.4792 71.8521 91.4792C71.6489 91.4792 71.5196 91.5902 71.4458 91.8122L70.005 96.3251H70.0235ZM77.6705 95.1784C77.6705 91.9047 80.4596 89.2968 84.1538 89.2968C86.2965 89.2968 88.4206 90.277 89.3442 92.0896L87.1276 93.2178C86.4996 92.2006 85.5207 91.5902 84.043 91.5902C81.9373 91.5902 80.4596 93.1439 80.4596 95.1969C80.4596 97.2499 81.9742 98.822 84.1538 98.822C85.3729 98.822 86.278 98.5446 86.8506 97.9897V95.4743H89.4735V98.822C88.5684 100.08 86.6289 101.06 84.1538 101.06C80.4966 101.06 77.6705 98.4336 77.6705 95.1599V95.1784ZM90.7849 95.8072V89.5002H93.5001V95.7702C93.5001 97.7493 94.3867 98.7111 96.2339 98.7111C98.081 98.7111 98.9676 97.7493 98.9676 95.7702V89.5002H101.683V95.8072C101.683 99.081 99.9465 101.042 96.2339 101.042C92.5212 101.042 90.7849 99.081 90.7849 95.8072ZM106.005 100.857C104.269 100.857 103.604 100.043 103.604 98.7481V91.6272C103.604 90.3325 104.269 89.5002 106.005 89.5002H112.636V91.7197H106.337V94.0871H112.248V96.3066H106.337V98.6741H112.747V100.894H106.005V100.857ZM127.468 91.7752H123.793V100.857H121.077V91.7752H117.402V89.5002H127.487V91.7752H127.468ZM129.703 91.0908C130.128 89.8516 131.255 89.2598 132.419 89.2598C133.582 89.2598 134.727 89.8516 135.152 91.0908L138.459 100.838H135.688L134.968 98.5076H129.888L129.168 100.838H126.397L129.703 91.0908ZM130.59 96.3251H134.247L132.825 91.8122C132.751 91.5717 132.64 91.4792 132.419 91.4792C132.215 91.4792 132.086 91.5902 132.012 91.8122L130.571 96.3251H130.59ZM139.678 100.857V89.5002H144.517C147.639 89.5002 149.523 90.6839 149.523 92.626C149.523 93.9207 148.765 94.8085 147.565 95.2154C148.802 95.5298 149.652 96.2696 149.652 97.6938C149.652 99.9133 147.472 100.875 144.48 100.875H139.678V100.857ZM142.393 94.2166H144.646C146.143 94.2166 146.807 93.7357 146.807 92.8109C146.807 91.9601 146.069 91.5162 144.665 91.5162H142.393V94.2166ZM142.393 98.822H144.628C145.958 98.822 146.937 98.5446 146.937 97.5088C146.937 96.5471 146.179 96.2511 144.646 96.2511H142.393V98.8405V98.822ZM154.104 98.5631H159.94V100.838H153.79C152.053 100.838 151.388 100.024 151.388 98.7296V89.4817H154.104V98.5631ZM163.099 100.857C161.363 100.857 160.698 100.043 160.698 98.7481V91.6272C160.698 90.3325 161.363 89.5002 163.099 89.5002H169.73V91.7197H163.431V94.0871H169.342V96.3066H163.431V98.6741H169.841V100.894H163.099V100.857Z" fill="#6B6B6B"/>
<path d="M75.1951 109.606L75.8231 109.328C76.0078 109.717 76.4326 109.92 77.0052 109.92C77.5778 109.92 78.0211 109.68 78.0211 109.236C78.0211 108.736 77.5224 108.662 76.9498 108.551C76.211 108.422 75.2874 108.2 75.2874 107.257C75.2874 106.517 76.0263 105.962 76.9498 105.962C77.6887 105.962 78.3721 106.276 78.6492 106.887L78.0211 107.183C77.818 106.813 77.4485 106.591 76.9129 106.591C76.4142 106.591 76.0078 106.85 76.0078 107.238C76.0078 107.719 76.525 107.83 77.1161 107.922C77.8549 108.052 78.7415 108.274 78.7415 109.217C78.7415 109.994 77.9657 110.549 76.9868 110.549C76.1556 110.549 75.4537 110.216 75.1766 109.606H75.1951ZM79.4619 110.475V105.74H80.1823V107.59C80.4593 107.312 80.8842 107.146 81.3829 107.146C82.4357 107.146 83.0268 107.775 83.0268 108.773V110.475H82.3064V108.847C82.3064 108.274 81.9555 107.775 81.272 107.775C80.6256 107.775 80.1823 108.237 80.1823 108.866V110.475H79.4619ZM83.4701 108.829C83.4701 107.885 84.2089 107.127 85.2802 107.127C86.3516 107.127 87.035 107.83 87.035 108.755V109.014H84.1535C84.2274 109.569 84.7076 109.957 85.3541 109.957C85.7974 109.957 86.1853 109.791 86.407 109.421L86.9611 109.68C86.6471 110.234 86.0745 110.53 85.3726 110.53C84.2828 110.53 83.4701 109.809 83.4701 108.81V108.829ZM86.3146 108.588C86.2777 108.07 85.8713 107.719 85.2802 107.719C84.6892 107.719 84.2828 108.107 84.2089 108.588H86.3331H86.3146ZM88.4019 105.74V110.475H87.6815V105.74H88.4019ZM90.0827 105.74V110.475H89.3623V105.74H90.0827ZM93.4444 110.475C92.9457 110.475 92.761 110.234 92.761 109.865V106.646C92.761 106.276 92.9457 106.036 93.4444 106.036H96.1412V106.646H93.4998V107.941H95.9934V108.551H93.4998V109.846H96.1966V110.456H93.4444V110.475ZM96.5291 108.847C96.5291 107.904 97.3788 107.146 98.4131 107.146C99.0781 107.146 99.6876 107.423 100.002 107.996L99.3921 108.311C99.1704 107.959 98.8195 107.775 98.3947 107.775C97.7667 107.775 97.2495 108.255 97.2495 108.847C97.2495 109.439 97.7667 109.939 98.3947 109.939C98.8195 109.939 99.1704 109.754 99.3921 109.402L100.002 109.698C99.6692 110.29 99.0596 110.549 98.4131 110.549C97.3788 110.549 96.5291 109.791 96.5291 108.847ZM100.131 108.847C100.131 107.904 100.981 107.146 102.052 107.146C103.123 107.146 103.954 107.922 103.954 108.847C103.954 109.772 103.123 110.567 102.052 110.567C100.981 110.567 100.131 109.791 100.131 108.847ZM103.234 108.847C103.234 108.255 102.717 107.756 102.052 107.756C101.387 107.756 100.851 108.255 100.851 108.847C100.851 109.439 101.368 109.92 102.052 109.92C102.735 109.92 103.234 109.421 103.234 108.847ZM107.224 108.718H104.693V108.126H107.224V108.718ZM114.298 108.755V110.475H113.578V108.866C113.578 108.274 113.264 107.756 112.58 107.756C111.897 107.756 111.601 108.255 111.601 108.847V110.475H110.881V108.847C110.881 108.255 110.549 107.756 109.884 107.756C109.219 107.756 108.905 108.274 108.905 108.866V110.475H108.184V108.773C108.184 107.867 108.757 107.127 109.828 107.127C110.549 107.127 111.066 107.46 111.25 107.959C111.454 107.46 111.952 107.127 112.636 107.127C113.726 107.127 114.298 107.849 114.298 108.755ZM114.742 108.847C114.742 107.922 115.554 107.146 116.662 107.146C117.771 107.146 118.583 107.867 118.583 108.847V110.475H117.9V109.902C117.623 110.308 117.161 110.549 116.57 110.549C115.536 110.549 114.76 109.772 114.76 108.829L114.742 108.847ZM117.845 108.847C117.845 108.255 117.327 107.756 116.662 107.756C115.998 107.756 115.48 108.255 115.48 108.847C115.48 109.439 115.998 109.92 116.662 109.92C117.327 109.92 117.845 109.421 117.845 108.847ZM119.23 110.475V108.533C119.23 107.738 119.729 107.146 120.671 107.146C120.892 107.146 121.132 107.183 121.317 107.257V107.904C121.132 107.812 120.929 107.756 120.745 107.756C120.264 107.756 119.969 108.052 119.969 108.533V110.438H119.248L119.23 110.475ZM121.262 108.847C121.262 107.922 122.074 107.146 123.183 107.146C124.291 107.146 125.104 107.867 125.104 108.847V110.475H124.42V109.902C124.143 110.308 123.681 110.549 123.09 110.549C122.056 110.549 121.28 109.772 121.28 108.829L121.262 108.847ZM124.365 108.847C124.365 108.255 123.848 107.756 123.183 107.756C122.518 107.756 122.001 108.255 122.001 108.847C122.001 109.439 122.518 109.92 123.183 109.92C123.848 109.92 124.365 109.421 124.365 108.847ZM126.009 109.31V107.793H125.307V107.22H126.009V106.369H126.729V107.22H128.115V107.793H126.729V109.291C126.729 109.717 127.006 109.976 127.431 109.976C127.671 109.976 127.93 109.902 128.096 109.791V110.401C127.911 110.512 127.634 110.586 127.357 110.586C126.471 110.586 125.99 110.068 125.99 109.328L126.009 109.31ZM128.816 110.475V105.74H129.537V107.59C129.814 107.312 130.239 107.146 130.737 107.146C131.79 107.146 132.381 107.775 132.381 108.773V110.475H131.661V108.847C131.661 108.274 131.31 107.775 130.627 107.775C129.98 107.775 129.537 108.237 129.537 108.866V110.475H128.816ZM132.825 108.847C132.825 107.904 133.674 107.146 134.746 107.146C135.817 107.146 136.648 107.922 136.648 108.847C136.648 109.772 135.817 110.567 134.746 110.567C133.674 110.567 132.825 109.791 132.825 108.847ZM135.928 108.847C135.928 108.255 135.411 107.756 134.746 107.756C134.081 107.756 133.545 108.255 133.545 108.847C133.545 109.439 134.062 109.92 134.746 109.92C135.429 109.92 135.928 109.421 135.928 108.847ZM137.812 108.903V110.475H137.091V108.829C137.091 107.885 137.719 107.146 138.865 107.146C140.01 107.146 140.675 107.885 140.675 108.829V110.475H139.954V108.903C139.954 108.292 139.585 107.775 138.865 107.775C138.144 107.775 137.812 108.292 137.812 108.903ZM70.0232 117.799L68.7302 114.008H69.4875L70.7066 117.633C70.762 117.799 70.8544 117.873 70.9837 117.873C71.113 117.873 71.2238 117.799 71.2608 117.633L72.4614 114.008H73.2372L71.9442 117.799C71.7779 118.28 71.4455 118.521 70.9837 118.521C70.5219 118.521 70.171 118.28 70.0047 117.799H70.0232ZM73.6066 114.1C73.6066 113.86 73.8282 113.656 74.0868 113.656C74.3454 113.656 74.5486 113.86 74.5486 114.1C74.5486 114.34 74.3454 114.525 74.0868 114.525C73.8282 114.525 73.6066 114.34 73.6066 114.1ZM74.4378 115.191V118.447H73.7174V115.191H74.4378ZM75.2505 118.428V116.486C75.2505 115.691 75.7492 115.099 76.6912 115.099C76.9129 115.099 77.153 115.136 77.3377 115.21V115.857C77.153 115.765 76.9498 115.709 76.7651 115.709C76.2849 115.709 75.9893 116.005 75.9893 116.486V118.391H75.269L75.2505 118.428ZM77.9842 117.263V115.746H77.2823V115.173H77.9842V114.322H78.7046V115.173H80.0899V115.746H78.7046V117.244C78.7046 117.67 78.9816 117.929 79.4065 117.929C79.6466 117.929 79.9052 117.855 80.0714 117.744V118.354C79.8867 118.465 79.6097 118.539 79.3326 118.539C78.446 118.539 77.9657 118.021 77.9657 117.281L77.9842 117.263ZM83.3962 116.745V115.173H84.1166V116.819C84.1166 117.762 83.4886 118.502 82.3618 118.502C81.2351 118.502 80.6256 117.744 80.6256 116.819V115.173H81.3459V116.745C81.3459 117.337 81.6969 117.873 82.3618 117.873C83.0268 117.873 83.3962 117.355 83.3962 116.745ZM84.5414 116.8C84.5414 115.876 85.3541 115.099 86.4624 115.099C87.5707 115.099 88.3834 115.82 88.3834 116.8V118.428H87.7V117.855C87.4229 118.262 86.9611 118.502 86.37 118.502C85.3357 118.502 84.5599 117.725 84.5599 116.782L84.5414 116.8ZM87.6261 116.8C87.6261 116.209 87.1089 115.709 86.4439 115.709C85.779 115.709 85.2618 116.209 85.2618 116.8C85.2618 117.392 85.779 117.873 86.4439 117.873C87.1089 117.873 87.6261 117.374 87.6261 116.8ZM89.898 113.693V118.428H89.1776V113.693H89.898ZM92.6502 118.428V113.989H94.2017C95.5132 113.989 96.3813 114.525 96.3813 115.561C96.3813 116.597 95.5132 117.152 94.2387 117.152H93.389V118.428H92.6502ZM93.389 114.618V116.523H94.2202C95.0329 116.523 95.6055 116.246 95.6055 115.561C95.6055 114.877 95.0514 114.618 94.2202 114.618H93.389ZM96.7692 118.428V116.486C96.7692 115.691 97.2679 115.099 98.21 115.099C98.4316 115.099 98.6717 115.136 98.8564 115.21V115.857C98.6717 115.765 98.4685 115.709 98.2838 115.709C97.8036 115.709 97.5081 116.005 97.5081 116.486V118.391H96.7877L96.7692 118.428ZM98.7826 116.8C98.7826 115.857 99.6322 115.099 100.704 115.099C101.775 115.099 102.606 115.876 102.606 116.8C102.606 117.725 101.775 118.521 100.704 118.521C99.6322 118.521 98.7826 117.744 98.7826 116.8ZM101.886 116.8C101.886 116.209 101.368 115.709 100.704 115.709C100.039 115.709 99.5029 116.209 99.5029 116.8C99.5029 117.392 100.02 117.873 100.704 117.873C101.387 117.873 101.886 117.374 101.886 116.8ZM102.92 119.131L103.53 118.835C103.733 119.186 104.139 119.408 104.656 119.408C105.414 119.408 105.931 118.909 105.931 118.151V117.892C105.691 118.225 105.266 118.484 104.656 118.484C103.64 118.484 102.828 117.762 102.828 116.8C102.828 115.839 103.64 115.117 104.749 115.117C105.857 115.117 106.67 115.839 106.67 116.819V118.151C106.67 119.279 105.838 120.019 104.693 120.019C103.917 120.019 103.271 119.723 102.939 119.131H102.92ZM105.912 116.782C105.912 116.19 105.377 115.728 104.73 115.728C104.084 115.728 103.548 116.19 103.548 116.782C103.548 117.374 104.084 117.855 104.73 117.855C105.377 117.855 105.912 117.374 105.912 116.782ZM107.316 118.428V116.486C107.316 115.691 107.815 115.099 108.757 115.099C108.979 115.099 109.219 115.136 109.403 115.21V115.857C109.219 115.765 109.015 115.709 108.831 115.709C108.351 115.709 108.055 116.005 108.055 116.486V118.391H107.335L107.316 118.428ZM109.348 116.8C109.348 115.876 110.161 115.099 111.269 115.099C112.377 115.099 113.19 115.82 113.19 116.8V118.428H112.507V117.855C112.229 118.262 111.768 118.502 111.177 118.502C110.142 118.502 109.366 117.725 109.366 116.782L109.348 116.8ZM112.433 116.8C112.433 116.209 111.915 115.709 111.25 115.709C110.586 115.709 110.068 116.209 110.068 116.8C110.068 117.392 110.586 117.873 111.25 117.873C111.915 117.873 112.433 117.374 112.433 116.8ZM119.969 116.726V118.447H119.248V116.837C119.248 116.246 118.934 115.728 118.251 115.728C117.568 115.728 117.272 116.227 117.272 116.819V118.447H116.552V116.819C116.552 116.227 116.219 115.728 115.554 115.728C114.889 115.728 114.575 116.246 114.575 116.837V118.447H113.855V116.745C113.855 115.839 114.427 115.099 115.499 115.099C116.219 115.099 116.736 115.432 116.921 115.931C117.124 115.432 117.623 115.099 118.306 115.099C119.396 115.099 119.969 115.82 119.969 116.726ZM126.748 116.726V118.447H126.027V116.837C126.027 116.246 125.713 115.728 125.03 115.728C124.346 115.728 124.051 116.227 124.051 116.819V118.447H123.331V116.819C123.331 116.227 122.998 115.728 122.333 115.728C121.668 115.728 121.354 116.246 121.354 116.837V118.447H120.634V116.745C120.634 115.839 121.206 115.099 122.278 115.099C122.998 115.099 123.515 115.432 123.7 115.931C123.903 115.432 124.402 115.099 125.085 115.099C126.175 115.099 126.748 115.82 126.748 116.726ZM127.191 116.782C127.191 115.839 127.93 115.08 129.001 115.08C130.072 115.08 130.756 115.783 130.756 116.708V116.967H127.874C127.948 117.522 128.429 117.91 129.075 117.91C129.518 117.91 129.906 117.744 130.128 117.374L130.682 117.633C130.368 118.188 129.795 118.484 129.093 118.484C128.004 118.484 127.191 117.762 127.191 116.763V116.782ZM130.036 116.541C129.999 116.024 129.592 115.672 129.001 115.672C128.41 115.672 128.004 116.061 127.93 116.541H130.054H130.036ZM133.582 118.428C133.139 118.428 132.917 118.188 132.917 117.91C132.917 117.707 133.028 117.522 133.231 117.355L134.69 116.19C135.097 115.857 135.3 115.617 135.3 115.247C135.3 114.858 134.93 114.562 134.45 114.562C133.97 114.562 133.563 114.821 133.342 115.228L132.769 114.932C133.083 114.322 133.693 113.915 134.505 113.915C135.411 113.915 136.057 114.47 136.057 115.173C136.057 115.709 135.798 116.116 135.337 116.486L133.877 117.651C133.877 117.651 133.785 117.725 133.785 117.762C133.785 117.781 133.785 117.799 133.822 117.799H136.186V118.428H133.6H133.582ZM136.556 116.209C136.556 114.914 137.35 113.915 138.532 113.915C139.714 113.915 140.509 114.914 140.509 116.209C140.509 117.503 139.714 118.521 138.532 118.521C137.35 118.521 136.556 117.485 136.556 116.209ZM139.714 116.209C139.714 115.302 139.197 114.599 138.514 114.599C137.83 114.599 137.313 115.302 137.313 116.209C137.313 117.115 137.83 117.836 138.514 117.836C139.197 117.836 139.714 117.115 139.714 116.209ZM141.635 118.428C141.192 118.428 140.97 118.188 140.97 117.91C140.97 117.707 141.081 117.522 141.284 117.355L142.744 116.19C143.15 115.857 143.353 115.617 143.353 115.247C143.353 114.858 142.984 114.562 142.503 114.562C142.023 114.562 141.617 114.821 141.395 115.228L140.823 114.932C141.137 114.322 141.746 113.915 142.559 113.915C143.464 113.915 144.11 114.47 144.11 115.173C144.11 115.709 143.852 116.116 143.39 116.486L141.931 117.651C141.931 117.651 141.838 117.725 141.838 117.762C141.838 117.781 141.838 117.799 141.875 117.799H144.24V118.428H141.654H141.635ZM145.884 118.428V114.766C145.884 114.766 145.884 114.729 145.847 114.729C145.81 114.729 145.773 114.747 145.754 114.766L144.628 115.339L144.295 114.71L145.551 114.082C145.736 113.989 145.939 113.915 146.124 113.915C146.438 113.915 146.622 114.1 146.622 114.433V118.447H145.884V118.428Z" fill="#6B6B6B"/>
<path d="M79.8684 57.059V49.7902H63.0598C57.7216 49.7902 54.8032 47.2008 54.8032 43.7976C54.8032 42.096 55.5605 40.1909 57.1306 38.2858L76.5621 14.5559C78.7417 11.911 80.8474 10.4128 84.3753 10.4128C87.9033 10.4128 90.5262 12.3919 90.5262 16.202V41.6336H97.9515V49.7902H90.5262V57.059H79.8684ZM65.3132 41.6336H79.8684V23.4708C79.8684 23.4708 79.7945 23.6003 79.7206 23.7482L65.3132 41.6336Z" fill="#6B6B6B"/>
<path d="M101.794 38.6372V35.4929H100.021V33.3844H101.794V31.1649H104.546V33.3844H107.945V35.4929H104.546V38.5817C104.546 39.5435 105.193 40.1168 106.209 40.1168C106.781 40.1168 107.483 39.9504 107.963 39.6914V41.9294C107.483 42.2069 106.633 42.3548 105.968 42.3548C103.179 42.3548 101.812 40.8382 101.812 38.6557L101.794 38.6372ZM109.349 42.0959V29.3708H112.119V33.9208C112.84 33.4399 113.8 33.144 114.834 33.144C117.771 33.144 119.304 34.8271 119.304 37.5829V42.1144H116.534V37.8419C116.534 36.6027 115.795 35.5114 114.391 35.5114C112.987 35.5114 112.101 36.4917 112.101 37.8789V42.1144H109.33L109.349 42.0959ZM101.572 57.6692V45.8135H106.19C109.903 45.8135 112.175 47.3856 112.175 50.123C112.175 52.8604 109.94 54.525 106.338 54.525H104.417V57.6508H101.572V57.6692ZM104.417 48.181V52.139H106.264C108.13 52.139 109.256 51.4917 109.256 50.1045C109.256 48.7173 108.13 48.1625 106.264 48.1625H104.417V48.181ZM115.592 55.2833H121.706V57.6692H115.259C113.449 57.6692 112.747 56.8184 112.747 55.4683V45.8135H115.592V55.2833ZM125.991 47.4781C126.434 46.1834 127.598 45.5731 128.836 45.5731C130.073 45.5731 131.255 46.1834 131.699 47.4781L135.153 57.6508H132.253L131.495 55.2278H126.194L125.437 57.6508H122.537L125.991 47.4781ZM126.933 52.9344H130.757L129.279 48.2364C129.205 47.996 129.076 47.885 128.854 47.885C128.632 47.885 128.503 47.996 128.429 48.2364L126.933 52.9344ZM134.617 51.7506C134.617 48.3104 137.591 45.5916 141.396 45.5916C143.668 45.5916 145.847 46.6828 146.826 48.5324L144.517 49.7161C143.871 48.6988 142.855 48.0515 141.285 48.0515C139.105 48.0515 137.535 49.6236 137.535 51.7691C137.535 53.9146 139.087 55.4868 141.285 55.4868C142.855 55.4868 143.908 54.8394 144.517 53.8221L146.826 55.0059C145.847 56.8554 143.668 57.9467 141.396 57.9467C137.591 57.9467 134.617 55.2093 134.617 51.7876V51.7506ZM149.911 57.6692C148.101 57.6692 147.399 56.8184 147.399 55.4683V48.033C147.399 46.6828 148.101 45.8135 149.911 45.8135H156.838V48.1255H150.243V50.5854H156.431V52.8974H150.243V55.3573H156.948V57.6692H149.911Z" fill="#6B6B6B"/>
</g>
<defs>
<clipPath id="clip0_351_8377">
<rect width="216" height="120" fill="white"/>
</clipPath>
</defs>
</svg>
