<svg width="218" height="120" viewBox="0 0 218 120" fill="none" xmlns="http://www.w3.org/2000/svg">
<g clip-path="url(#clip0_351_6908)">
<path d="M51.2498 116.237C49.8011 117.761 41.5417 112.567 38.9077 108.089C38.9077 108.089 37.4402 105.623 37.1204 102.161C37.0827 101.841 37.1204 101.521 37.1768 101.201C37.2144 100.994 37.3273 100.806 37.5155 100.317C37.8918 100.43 38.2869 100.524 38.6819 100.618C38.6819 100.618 39.2087 100.806 39.7355 101.07C45.2669 103.949 48.7475 109.763 48.7475 109.763C50.422 112.567 52.0965 115.333 51.2686 116.218L51.2498 116.237Z" fill="#EBAA01"/>
<path d="M27.5061 12.8901C27.9576 4.72328 38.1926 -1.80644 47.5432 0.451679C41.9366 6.56741 36.5934 12.4761 27.5061 12.8901Z" fill="#EBAA01"/>
<path d="M15.7472 85.978C9.89598 78.1687 10.3663 69.4749 16.7255 64.2625C20.6577 71.6013 17.4781 78.4321 15.7472 85.978Z" fill="#EBAA01"/>
<path d="M10.1595 70.8671C6.6224 61.8159 9.42571 53.4044 16.8573 50.1489C18.6447 58.3158 13.753 64.1116 10.1595 70.8671Z" fill="#EBAA01"/>
<path d="M11.8528 38.4257C12.7371 29.5626 20.3568 22.9764 27.6191 24.5571C26.5279 29.6943 20.9024 34.681 11.8528 38.4257Z" fill="#EBAA01"/>
<path d="M8.93674 54.5712C7.63856 45.2001 13.1699 36.8827 20.7144 36.7698C20.0559 44.8802 14.1106 49.227 8.93674 54.5712Z" fill="#EBAA01"/>
<path d="M38.2114 14.5836C33.4702 21.4332 26.0574 22.1671 19.0962 24.1618C20.3567 17.4627 31.0808 10.6319 38.2114 14.5836Z" fill="#EBAA01"/>
<path d="M20.4696 78.0745C25.9069 84.1149 24.8533 91.4726 25.0603 98.7362C17.4593 94.3517 15.371 82.6095 20.4696 78.0745Z" fill="#EBAA01"/>
<path d="M22.8215 99.9216C15.2206 99.9592 7.77018 93.2413 6.0769 84.7922C14.374 86.7116 18.7765 93.0344 22.8215 99.9216Z" fill="#EBAA01"/>
<path d="M37.572 109.462C28.8234 105.83 25.0418 98.661 27.2431 90.0425C34.336 94.6152 35.2015 102.01 37.572 109.462Z" fill="#EBAA01"/>
<path d="M50.5724 117.799C45.041 122.616 32.6424 118.815 28.6162 113.245C36.7816 110.61 43.6864 114.261 50.5724 117.799Z" fill="#EBAA01"/>
<path d="M5.71914 30.8987C10.1781 38.3881 8.82348 45.8963 6.82918 53.4234C1.41069 49.2459 0.883892 39.6112 5.71914 30.8987Z" fill="#EBAA01"/>
<path d="M14.9947 15.3179C17.5158 23.56 13.6965 30.3908 10.1407 37.0899C5.8322 32.0844 8.29686 20.6056 14.9947 15.3179Z" fill="#EBAA01"/>
<path d="M8.03361 70.378C1.33575 66.765 -1.84384 56.9422 1.10998 48.8506C7.60088 54.7029 7.39392 62.6815 8.03361 70.378Z" fill="#EBAA01"/>
<path d="M17.4596 22.4496C14.7692 16.1269 20.6957 5.41966 28.4471 2.2583C26.8103 7.4896 27.0549 13.0032 22.3701 16.7479C20.5075 18.2345 19.1905 20.3985 17.4596 22.4496Z" fill="#EBAA01"/>
<path d="M1.12856 67.104C8.78593 71.1686 11.1189 78.5075 13.3201 85.7899C6.77281 85.3195 0.582944 76.0047 1.12856 67.104Z" fill="#EBAA01"/>
<path d="M35.6338 110.78C27.9953 112.737 19.8675 108.54 14.957 99.8091C19.2655 101.032 23.3293 101.521 26.6971 103.309C29.9708 105.04 32.5483 108.108 35.6338 110.78Z" fill="#EBAA01"/>
<path d="M166.75 116.237C168.199 117.761 176.458 112.567 179.092 108.089C179.092 108.089 180.56 105.623 180.879 102.161C180.917 101.841 180.879 101.521 180.823 101.201C180.785 100.994 180.672 100.806 180.484 100.317C180.108 100.43 179.713 100.524 179.318 100.618C179.318 100.618 178.791 100.806 178.264 101.07C172.733 103.949 169.252 109.763 169.252 109.763C167.578 112.567 165.903 115.333 166.731 116.218L166.75 116.237Z" fill="#EBAA01"/>
<path d="M190.494 12.8901C190.042 4.72328 179.807 -1.80644 170.457 0.451679C176.063 6.56741 181.406 12.4761 190.494 12.8901Z" fill="#EBAA01"/>
<path d="M202.252 85.978C208.104 78.1687 207.633 69.4749 201.274 64.2625C197.342 71.6013 200.522 78.4321 202.252 85.978Z" fill="#EBAA01"/>
<path d="M207.84 70.8671C211.377 61.8159 208.574 53.4044 201.143 50.1489C199.355 58.3158 204.247 64.1116 207.84 70.8671Z" fill="#EBAA01"/>
<path d="M206.147 38.4257C205.263 29.5626 197.643 22.9764 190.381 24.5571C191.472 29.6943 197.097 34.681 206.147 38.4257Z" fill="#EBAA01"/>
<path d="M209.064 54.5712C210.362 45.2001 204.831 36.8827 197.286 36.7698C197.945 44.8802 203.89 49.227 209.064 54.5712Z" fill="#EBAA01"/>
<path d="M179.807 14.5836C184.549 21.4332 191.961 22.1671 198.923 24.1618C197.662 17.4627 186.938 10.6319 179.807 14.5836Z" fill="#EBAA01"/>
<path d="M197.53 78.0745C192.093 84.1149 193.147 91.4726 192.94 98.7362C200.541 94.3517 202.629 82.6095 197.53 78.0745Z" fill="#EBAA01"/>
<path d="M195.179 99.9216C202.78 99.9592 210.23 93.2413 211.923 84.7922C203.626 86.7116 199.224 93.0344 195.179 99.9216Z" fill="#EBAA01"/>
<path d="M180.428 109.462C189.177 105.83 192.958 98.661 190.757 90.0425C183.664 94.6152 182.799 102.01 180.428 109.462Z" fill="#EBAA01"/>
<path d="M167.427 117.799C172.959 122.616 185.357 118.815 189.384 113.245C181.218 110.61 174.313 114.261 167.427 117.799Z" fill="#EBAA01"/>
<path d="M212.281 30.8987C207.822 38.3881 209.177 45.8963 211.171 53.4234C216.589 49.2459 217.116 39.6112 212.281 30.8987Z" fill="#EBAA01"/>
<path d="M203.005 15.3179C200.484 23.56 204.303 30.3908 207.859 37.0899C212.168 32.0844 209.703 20.6056 203.005 15.3179Z" fill="#EBAA01"/>
<path d="M209.966 70.378C216.664 66.765 219.844 56.9422 216.89 48.8506C210.399 54.7029 210.606 62.6815 209.966 70.378Z" fill="#EBAA01"/>
<path d="M200.541 22.4496C203.231 16.1269 197.305 5.41966 189.553 2.2583C191.19 7.4896 190.945 13.0032 195.63 16.7479C197.493 18.2345 198.81 20.3985 200.541 22.4496Z" fill="#EBAA01"/>
<path d="M216.871 67.104C209.214 71.1686 206.881 78.5075 204.679 85.7899C211.227 85.3195 217.417 76.0047 216.871 67.104Z" fill="#EBAA01"/>
<path d="M182.366 110.78C190.005 112.737 198.132 108.54 203.043 99.8091C198.734 101.032 194.67 101.521 191.303 103.309C188.029 105.04 185.451 108.108 182.366 110.78Z" fill="#EBAA01"/>
<path d="M44.74 79.3161H40.2622V69.0793H44.74C48.4464 69.0793 50.911 71.1304 50.911 74.2354C50.911 77.3403 48.3711 79.3161 44.74 79.3161ZM44.74 71.6573H43.3665V76.8134H44.74C46.5461 76.8134 47.7314 75.7784 47.7314 74.2354C47.7314 72.6923 46.565 71.6573 44.74 71.6573ZM53.9025 70.6976C54.3164 69.4369 55.5017 68.8535 56.6682 68.8535C57.8347 68.8535 59.02 69.4369 59.4339 70.6976L62.3501 79.3161H59.1893L58.6625 77.5849H54.6927L54.1471 79.3161H50.9863L53.9025 70.6976ZM55.4641 75.0822H57.8911L56.8187 71.5256C56.7811 71.4127 56.7434 71.3751 56.687 71.3751C56.6305 71.3751 56.5929 71.4127 56.5553 71.5256L55.4641 75.0822ZM70.6847 71.6573H67.4863V79.3161H64.382V71.6573H61.1836V69.0793H70.6847V71.6573ZM72.4157 70.6976C72.8296 69.4369 74.0149 68.8535 75.1813 68.8535C76.3478 68.8535 77.5331 69.4369 77.947 70.6976L80.8632 79.3161H77.7024L77.1756 77.5849H73.2058L72.6602 79.3161H69.4995L72.4157 70.6976ZM73.9772 75.0822H76.4043L75.3319 71.5256C75.2942 71.4127 75.2566 71.3751 75.2002 71.3751C75.1437 71.3751 75.1061 71.4127 75.0685 71.5256L73.9772 75.0822ZM93.8826 71.6573H90.6842V79.3161H87.5799V71.6573H84.3815V69.0793H93.8826V71.6573ZM97.1563 79.3161C95.2373 79.3161 94.4659 78.4129 94.4659 76.9639V71.4315C94.4659 69.9826 95.2373 69.0793 97.1563 69.0793H102.951V71.5821H97.5702V72.9558H102.575V75.4585H97.5702V76.8322H103.045V79.3349H97.1563V79.3161ZM107.485 76.7381H112.49V79.3161H107.071C105.152 79.3161 104.381 78.4129 104.381 76.9639V69.0793H107.485V76.7381ZM115.651 79.3161C113.732 79.3161 112.96 78.4129 112.96 76.9639V71.4315C112.96 69.9826 113.732 69.0793 115.651 69.0793H121.445V71.5821H116.065V72.9558H121.069V75.4585H116.065V76.8322H121.539V79.3349H115.651V79.3161ZM122.198 79.3161L123.684 70.7165C123.91 69.5121 124.832 68.8535 126.205 68.8535C127.372 68.8535 128.369 69.3051 128.689 70.453L130.232 75.8725L131.756 70.4906C132.075 69.3616 133.091 68.8535 134.296 68.8535C135.612 68.8535 136.534 69.5121 136.723 70.7729L138.058 79.3161H134.916L134.013 72.109L132.226 78.0177C131.944 78.9209 131.154 79.3726 130.213 79.3726C129.272 79.3726 128.444 78.9398 128.2 78.0742L126.431 72.0902L125.34 79.3161H122.179H122.198ZM141.765 79.3161C139.846 79.3161 139.074 78.4129 139.074 76.9639V71.4315C139.074 69.9826 139.846 69.0793 141.765 69.0793H147.56V71.5821H142.179V72.9558H147.183V75.4585H142.179V76.8322H147.654V79.3349H141.765V79.3161ZM157.399 71.6573H154.201V79.3161H151.097V71.6573H147.898V69.0793H157.399V71.6573ZM158.152 79.3161V69.0793H162.893C165.584 69.0793 167.615 70.2084 167.615 72.4665C167.615 73.8214 166.769 74.9316 165.452 75.308C166.016 75.6467 166.393 76.23 166.9 77.1521L168.048 79.2973H164.68L163.627 77.3779C163.251 76.6816 162.799 76.4182 161.802 76.4182H161.237V79.2973H158.152V79.3161ZM161.256 71.6573V73.9531H162.893C163.796 73.9531 164.436 73.5015 164.436 72.7676C164.436 71.9961 163.796 71.6573 162.931 71.6573H161.256ZM167.973 69.0793H171.303L173.504 74.0472L175.668 69.0793H178.998L176.251 74.894C175.969 75.4773 175.555 75.9478 175.066 76.2488V79.3161H171.962V76.2865C171.454 75.9854 171.021 75.5338 170.72 74.9128L167.973 69.0981V69.0793Z" fill="#EBAA01"/>
<path d="M68.7283 87.295C69.3116 85.6014 70.8732 84.7734 72.4912 84.7734C74.1092 84.7734 75.6896 85.5826 76.2728 87.295L80.8635 100.768H77.0254L76.0283 97.5506H68.9917L67.9946 100.768H64.1565L68.7472 87.295H68.7283ZM69.9701 94.5398H75.0499L73.0932 88.3112C72.9992 87.9913 72.8298 87.8407 72.5288 87.8407C72.2466 87.8407 72.0585 87.9724 71.9644 88.3112L69.9889 94.5398H69.9701ZM79.6029 85.0933H83.3658L86.0938 97.513C86.0938 97.513 86.1503 97.6259 86.1691 97.6259C86.1879 97.6259 86.2255 97.6071 86.2444 97.513L88.7466 87.5773C89.217 85.6579 90.2706 84.8487 91.8134 84.8487C93.3561 84.8487 94.3909 85.6579 94.8801 87.5584L97.42 97.513C97.42 97.513 97.4388 97.6259 97.4952 97.6259C97.5141 97.6259 97.5141 97.5882 97.5517 97.513L100.186 85.0933H103.949L100.863 98.4915C100.468 100.147 99.339 101.107 97.6646 101.107C96.1218 101.107 94.8801 100.223 94.4662 98.642L91.8134 88.33L89.1794 98.6985C88.7843 100.223 87.5049 101.107 86.0186 101.107C84.4194 101.107 83.1776 100.223 82.8014 98.5668L79.6029 85.0933ZM107.241 87.295C107.824 85.6014 109.386 84.7734 111.004 84.7734C112.622 84.7734 114.202 85.5826 114.785 87.295L119.376 100.768H115.538L114.541 97.5506H107.504L106.507 100.768H102.669L107.26 87.295H107.241ZM108.483 94.5398H113.563L111.606 88.3112C111.512 87.9913 111.342 87.8407 111.041 87.8407C110.759 87.8407 110.571 87.9724 110.477 88.3112L108.502 94.5398H108.483ZM121.032 100.787V85.0933H127.692C131.605 85.0933 134.616 86.7493 134.616 90.08C134.616 92.2252 133.223 93.8812 131.003 94.4081C132.113 94.9726 132.753 96.0452 133.656 97.6635L135.331 100.768H131.267L129.724 97.9646C128.934 96.5156 128.181 95.7441 126.225 95.7441H124.757V100.75H121.032V100.787ZM124.795 88.2359V92.7333H127.711C129.479 92.7333 130.778 91.8865 130.778 90.4187C130.778 88.951 129.461 88.2359 127.767 88.2359H124.813H124.795ZM143.929 100.787H137.551V85.0933H144.023C149.629 85.0933 153.373 88.2171 153.373 92.9591C153.373 97.7012 149.404 100.787 143.947 100.787H143.929ZM144.004 88.2359H141.295V97.72H143.929C147.165 97.72 149.498 95.8758 149.498 92.9403C149.498 90.0047 147.278 88.2359 144.004 88.2359Z" fill="#EBAA01"/>
<path d="M58.7942 109.236L59.3962 108.973C59.5844 109.349 59.9795 109.538 60.5439 109.538C61.1083 109.538 61.5222 109.312 61.5222 108.879C61.5222 108.408 61.0331 108.333 60.4875 108.22C59.7725 108.089 58.8883 107.882 58.8883 106.978C58.8883 106.263 59.6032 105.736 60.5063 105.736C61.2212 105.736 61.8609 106.037 62.1431 106.621L61.5411 106.903C61.3529 106.546 60.9954 106.339 60.4687 106.339C59.9795 106.339 59.6032 106.602 59.6032 106.959C59.6032 107.411 60.1112 107.524 60.6756 107.618C61.3905 107.75 62.2372 107.957 62.2372 108.86C62.2372 109.613 61.5034 110.14 60.5439 110.14C59.7537 110.14 59.0764 109.82 58.7942 109.236ZM62.9145 110.083V105.529H63.6106V107.317C63.874 107.054 64.2879 106.884 64.7583 106.884C65.7743 106.884 66.3387 107.505 66.3387 108.446V110.083H65.6426V108.521C65.6426 107.976 65.3039 107.486 64.6454 107.486C64.0245 107.486 63.5918 107.938 63.5918 108.54V110.083H62.8957H62.9145ZM66.7714 108.503C66.7714 107.599 67.4863 106.865 68.5211 106.865C69.5559 106.865 70.2144 107.543 70.2144 108.427V108.691H67.4487C67.524 109.218 67.9755 109.594 68.5964 109.594C69.0291 109.594 69.4054 109.425 69.6123 109.086L70.158 109.331C69.8569 109.857 69.2925 110.158 68.6152 110.158C67.5616 110.158 66.7714 109.462 66.7714 108.503ZM69.5183 108.258C69.4807 107.769 69.0855 107.43 68.5211 107.43C67.9567 107.43 67.5616 107.806 67.4863 108.258H69.5183ZM71.5314 105.511V110.064H70.8353V105.511H71.5314ZM73.1682 105.511V110.064H72.4721V105.511H73.1682ZM76.4043 110.083C75.9151 110.083 75.7458 109.857 75.7458 109.5V106.395C75.7458 106.037 75.9151 105.812 76.4043 105.812H79.0006V106.395H76.4607V107.637H78.8689V108.22H76.4607V109.462H79.0571V110.046H76.4043V110.083ZM79.3769 108.503C79.3769 107.599 80.1859 106.865 81.1831 106.865C81.8228 106.865 82.406 107.129 82.7258 107.693L82.1426 107.994C81.9356 107.656 81.597 107.486 81.1831 107.486C80.581 107.486 80.073 107.957 80.073 108.521C80.073 109.086 80.581 109.575 81.1831 109.575C81.597 109.575 81.9356 109.406 82.1426 109.067L82.7258 109.349C82.406 109.914 81.8228 110.177 81.1831 110.177C80.1859 110.177 79.3769 109.443 79.3769 108.54V108.503ZM82.8575 108.503C82.8575 107.599 83.6665 106.865 84.7013 106.865C85.7361 106.865 86.5451 107.599 86.5451 108.503C86.5451 109.406 85.7549 110.14 84.7013 110.14C83.6477 110.14 82.8575 109.406 82.8575 108.503ZM85.849 108.521C85.849 107.957 85.3598 107.468 84.7201 107.468C84.0805 107.468 83.5725 107.938 83.5725 108.521C83.5725 109.105 84.0805 109.556 84.7201 109.556C85.3598 109.556 85.849 109.086 85.849 108.521ZM89.6871 108.39H87.2412V107.806H89.6871V108.39ZM96.5166 108.427V110.064H95.8205V108.521C95.8205 107.957 95.5007 107.449 94.861 107.449C94.2213 107.449 93.9203 107.919 93.9203 108.503V110.064H93.2242V108.503C93.2242 107.938 92.9043 107.449 92.2646 107.449C91.625 107.449 91.3239 107.938 91.3239 108.521V110.064H90.6278V108.427C90.6278 107.562 91.1734 106.847 92.2082 106.847C92.9043 106.847 93.3935 107.166 93.5816 107.656C93.7698 107.166 94.2589 106.847 94.9174 106.847C95.971 106.847 96.5355 107.543 96.5355 108.408L96.5166 108.427ZM96.9306 108.503C96.9306 107.618 97.7207 106.865 98.7743 106.865C99.8279 106.865 100.618 107.562 100.618 108.503V110.064H99.9596V109.519C99.6962 109.895 99.2447 110.14 98.6803 110.14C97.6831 110.14 96.9494 109.406 96.9494 108.503H96.9306ZM99.922 108.521C99.922 107.957 99.4328 107.468 98.7743 107.468C98.1158 107.468 97.6267 107.938 97.6267 108.521C97.6267 109.105 98.1347 109.556 98.7743 109.556C99.414 109.556 99.922 109.086 99.922 108.521ZM101.277 110.083V108.22C101.277 107.468 101.766 106.903 102.669 106.903C102.895 106.903 103.12 106.941 103.29 107.016V107.637C103.12 107.543 102.913 107.505 102.725 107.505C102.255 107.505 101.973 107.787 101.973 108.258V110.102H101.277V110.083ZM103.214 108.503C103.214 107.618 104.005 106.865 105.058 106.865C106.112 106.865 106.902 107.562 106.902 108.503V110.064H106.244V109.519C105.98 109.895 105.529 110.14 104.964 110.14C103.967 110.14 103.233 109.406 103.233 108.503H103.214ZM106.206 108.521C106.206 107.957 105.717 107.468 105.058 107.468C104.4 107.468 103.911 107.938 103.911 108.521C103.911 109.105 104.419 109.556 105.058 109.556C105.698 109.556 106.206 109.086 106.206 108.521ZM107.805 108.954V107.505H107.128V106.959H107.805V106.15H108.501V106.959H109.837V107.505H108.501V108.935C108.501 109.349 108.765 109.594 109.179 109.594C109.404 109.594 109.649 109.519 109.818 109.406V109.989C109.649 110.102 109.367 110.158 109.103 110.158C108.238 110.158 107.786 109.669 107.786 108.954H107.805ZM110.514 110.083V105.529H111.211V107.317C111.474 107.054 111.888 106.884 112.358 106.884C113.374 106.884 113.939 107.505 113.939 108.446V110.083H113.242V108.521C113.242 107.976 112.904 107.486 112.245 107.486C111.624 107.486 111.192 107.938 111.192 108.54V110.083H110.496H110.514ZM114.371 108.503C114.371 107.599 115.18 106.865 116.215 106.865C117.25 106.865 118.059 107.599 118.059 108.503C118.059 109.406 117.269 110.14 116.215 110.14C115.162 110.14 114.371 109.406 114.371 108.503ZM117.363 108.521C117.363 107.957 116.874 107.468 116.234 107.468C115.594 107.468 115.086 107.938 115.086 108.521C115.086 109.105 115.594 109.556 116.234 109.556C116.874 109.556 117.363 109.086 117.363 108.521ZM119.188 108.559V110.064H118.492V108.484C118.492 107.58 119.094 106.865 120.204 106.865C121.314 106.865 121.953 107.58 121.953 108.484V110.064H121.257V108.559C121.257 107.976 120.9 107.468 120.204 107.468C119.508 107.468 119.188 107.976 119.188 108.559ZM125.302 106.32C125.453 105.925 125.792 105.736 126.187 105.736C126.582 105.736 126.939 105.925 127.071 106.32L128.369 110.083H127.635L127.297 109.029H125.095L124.757 110.083H124.023L125.321 106.32H125.302ZM125.284 108.446H127.09L126.45 106.508C126.394 106.376 126.318 106.32 126.187 106.32C126.036 106.32 125.961 106.376 125.923 106.508L125.284 108.446ZM128.595 109.443L129.14 109.18C129.31 109.5 129.592 109.613 129.987 109.613C130.382 109.613 130.683 109.462 130.683 109.199C130.683 108.54 128.708 109.048 128.708 107.844C128.708 107.298 129.253 106.903 130.006 106.903C130.646 106.903 131.078 107.166 131.304 107.543L130.758 107.825C130.608 107.543 130.326 107.449 130.006 107.449C129.686 107.449 129.404 107.599 129.404 107.844C129.404 108.484 131.379 108.013 131.379 109.199C131.379 109.782 130.74 110.158 130.006 110.158C129.366 110.158 128.877 109.933 128.595 109.462V109.443ZM131.887 105.925C131.887 105.699 132.094 105.511 132.339 105.511C132.583 105.511 132.79 105.699 132.79 105.925C132.79 106.15 132.583 106.339 132.339 106.339C132.094 106.339 131.887 106.15 131.887 105.925ZM132.696 106.959V110.083H132V106.959H132.696ZM133.261 108.503C133.261 107.618 134.051 106.865 135.105 106.865C136.158 106.865 136.948 107.562 136.948 108.503V110.064H136.29V109.519C136.026 109.895 135.575 110.14 135.01 110.14C134.013 110.14 133.28 109.406 133.28 108.503H133.261ZM136.252 108.521C136.252 107.957 135.763 107.468 135.105 107.468C134.446 107.468 133.957 107.938 133.957 108.521C133.957 109.105 134.465 109.556 135.105 109.556C135.744 109.556 136.252 109.086 136.252 108.521ZM139.469 110.083V105.812H140.975C142.254 105.812 143.063 106.32 143.063 107.317C143.063 108.314 142.216 108.841 140.993 108.841H140.166V110.064H139.451L139.469 110.083ZM140.184 106.414V108.258H140.993C141.765 108.258 142.329 107.976 142.329 107.336C142.329 106.696 141.784 106.433 140.993 106.433H140.184V106.414ZM143.213 108.503C143.213 107.618 144.004 106.865 145.057 106.865C146.111 106.865 146.901 107.562 146.901 108.503V110.064H146.243V109.519C145.979 109.895 145.528 110.14 144.963 110.14C143.966 110.14 143.232 109.406 143.232 108.503H143.213ZM146.205 108.521C146.205 107.957 145.716 107.468 145.057 107.468C144.399 107.468 143.91 107.938 143.91 108.521C143.91 109.105 144.418 109.556 145.057 109.556C145.697 109.556 146.205 109.086 146.205 108.521ZM147.334 108.503C147.334 107.599 148.143 106.865 149.14 106.865C149.78 106.865 150.363 107.129 150.683 107.693L150.099 107.994C149.892 107.656 149.554 107.486 149.14 107.486C148.538 107.486 148.03 107.957 148.03 108.521C148.03 109.086 148.538 109.575 149.14 109.575C149.554 109.575 149.892 109.406 150.099 109.067L150.683 109.349C150.363 109.914 149.78 110.177 149.14 110.177C148.143 110.177 147.334 109.443 147.334 108.54V108.503ZM151.059 105.925C151.059 105.699 151.266 105.511 151.511 105.511C151.755 105.511 151.962 105.699 151.962 105.925C151.962 106.15 151.755 106.339 151.511 106.339C151.266 106.339 151.059 106.15 151.059 105.925ZM151.868 106.959V110.083H151.172V106.959H151.868ZM153.034 110.083V107.505H152.376V106.959H153.034V106.64C153.034 105.981 153.486 105.473 154.37 105.473C154.596 105.473 154.822 105.511 154.991 105.586V106.207C154.822 106.113 154.615 106.075 154.427 106.075C153.994 106.075 153.731 106.244 153.731 106.658V106.959H155.857V110.083H155.16V107.505H153.749V110.083H153.053H153.034ZM156.308 108.503C156.308 107.599 157.117 106.865 158.114 106.865C158.754 106.865 159.337 107.129 159.657 107.693L159.074 107.994C158.867 107.656 158.528 107.486 158.114 107.486C157.512 107.486 157.004 107.957 157.004 108.521C157.004 109.086 157.512 109.575 158.114 109.575C158.528 109.575 158.867 109.406 159.074 109.067L159.657 109.349C159.337 109.914 158.754 110.177 158.114 110.177C157.117 110.177 156.308 109.443 156.308 108.54V108.503ZM69.142 116.18C69.142 115.296 69.9322 114.543 70.9858 114.543C72.0394 114.543 72.8296 115.239 72.8296 116.18V117.742H72.1711V117.196C71.9077 117.573 71.4561 117.817 70.8917 117.817C69.8946 117.817 69.1608 117.083 69.1608 116.18H69.142ZM72.1335 116.18C72.1335 115.616 71.6443 115.126 70.9858 115.126C70.3273 115.126 69.8381 115.597 69.8381 116.18C69.8381 116.763 70.3461 117.215 70.9858 117.215C71.6255 117.215 72.1335 116.745 72.1335 116.18ZM74.1842 116.237V117.742H73.4881V116.161C73.4881 115.258 74.0901 114.543 75.2002 114.543C76.3102 114.543 76.9499 115.258 76.9499 116.161V117.742H76.2538V116.237C76.2538 115.653 75.8963 115.145 75.2002 115.145C74.504 115.145 74.1842 115.653 74.1842 116.237ZM77.3638 116.18C77.3638 115.239 78.1352 114.543 79.17 114.543C79.6403 114.543 80.0542 114.731 80.3364 115.013V113.188H81.0514V116.199C81.0514 117.121 80.2612 117.836 79.2076 117.836C78.154 117.836 77.3638 117.102 77.3638 116.199V116.18ZM80.3552 116.18C80.3552 115.616 79.8661 115.145 79.2076 115.145C78.5491 115.145 78.0599 115.616 78.0599 116.18C78.0599 116.745 78.5679 117.234 79.2076 117.234C79.8473 117.234 80.3552 116.763 80.3552 116.18ZM86.5827 114.073H85.1341V117.742H84.4191V114.073H82.9704V113.47H86.6016V114.073H86.5827ZM86.959 117.742V113.188H87.6552V114.976C87.9186 114.712 88.3325 114.543 88.8028 114.543C89.8188 114.543 90.3832 115.164 90.3832 116.105V117.742H89.6871V116.18C89.6871 115.634 89.3484 115.145 88.6899 115.145C88.0691 115.145 87.6363 115.597 87.6363 116.199V117.742H86.9402H86.959ZM90.8159 116.161C90.8159 115.258 91.5309 114.524 92.5657 114.524C93.6004 114.524 94.2589 115.202 94.2589 116.086V116.349H91.4933C91.5685 116.876 92.0201 117.253 92.6409 117.253C93.0736 117.253 93.4499 117.083 93.6569 116.745L94.2025 116.989C93.9015 117.516 93.337 117.817 92.6597 117.817C91.6061 117.817 90.8159 117.121 90.8159 116.161ZM93.5628 115.936C93.5252 115.446 93.1301 115.108 92.5657 115.108C92.0012 115.108 91.6061 115.484 91.5309 115.936H93.5628ZM96.2909 117.742L96.9494 113.96C97.0058 113.583 97.3068 113.395 97.6831 113.395C98.0218 113.395 98.304 113.546 98.4169 113.884L99.32 116.858C99.32 116.858 99.3576 116.933 99.3764 116.933C99.414 116.933 99.4328 116.914 99.4517 116.858L100.355 113.884C100.449 113.546 100.75 113.395 101.088 113.395C101.465 113.395 101.747 113.602 101.822 113.978L102.424 117.742H101.691L101.164 114.185C101.164 114.185 101.126 114.035 101.051 114.035C100.994 114.035 100.938 114.073 100.919 114.167L99.9408 117.234C99.8656 117.497 99.6398 117.61 99.3764 117.61C99.113 117.61 98.8872 117.479 98.812 117.234L97.8524 114.148C97.8524 114.148 97.796 114.016 97.7207 114.016C97.6455 114.016 97.6079 114.054 97.589 114.167L97.0058 117.742H96.2721H96.2909ZM103.008 113.583C103.008 113.357 103.214 113.169 103.459 113.169C103.704 113.169 103.911 113.357 103.911 113.583C103.911 113.809 103.704 113.997 103.459 113.997C103.214 113.997 103.008 113.809 103.008 113.583ZM103.817 114.618V117.742H103.12V114.618H103.817ZM104.381 116.18C104.381 115.239 105.152 114.543 106.187 114.543C106.657 114.543 107.071 114.731 107.354 115.013V113.188H108.069V116.199C108.069 117.121 107.278 117.836 106.225 117.836C105.171 117.836 104.381 117.102 104.381 116.199V116.18ZM107.372 116.18C107.372 115.616 106.883 115.145 106.225 115.145C105.566 115.145 105.077 115.616 105.077 116.18C105.077 116.745 105.585 117.234 106.225 117.234C106.864 117.234 107.372 116.763 107.372 116.18ZM108.501 116.18C108.501 115.239 109.273 114.543 110.307 114.543C110.778 114.543 111.192 114.731 111.474 115.013V113.188H112.189V116.199C112.189 117.121 111.399 117.836 110.345 117.836C109.291 117.836 108.501 117.102 108.501 116.199V116.18ZM111.474 116.18C111.474 115.616 110.985 115.145 110.326 115.145C109.668 115.145 109.179 115.616 109.179 116.18C109.179 116.745 109.687 117.234 110.326 117.234C110.966 117.234 111.474 116.763 111.474 116.18ZM113.656 113.188V117.742H112.96V113.188H113.656ZM114.221 116.161C114.221 115.258 114.936 114.524 115.971 114.524C117.005 114.524 117.664 115.202 117.664 116.086V116.349H114.898C114.973 116.876 115.425 117.253 116.046 117.253C116.478 117.253 116.855 117.083 117.062 116.745L117.607 116.989C117.306 117.516 116.742 117.817 116.065 117.817C115.011 117.817 114.221 117.121 114.221 116.161ZM116.968 115.936C116.93 115.446 116.535 115.108 115.971 115.108C115.406 115.108 115.011 115.484 114.936 115.936H116.968ZM120.618 117.742C120.128 117.742 119.959 117.516 119.959 117.159V114.054C119.959 113.696 120.128 113.47 120.618 113.47H123.214V114.054H120.674V115.296H123.082V115.879H120.674V117.121H123.27V117.704H120.618V117.742ZM123.571 116.18C123.571 115.296 124.362 114.543 125.415 114.543C126.469 114.543 127.259 115.239 127.259 116.18V117.742H126.601V117.196C126.337 117.573 125.886 117.817 125.321 117.817C124.324 117.817 123.59 117.083 123.59 116.18H123.571ZM126.563 116.18C126.563 115.616 126.074 115.126 125.415 115.126C124.757 115.126 124.268 115.597 124.268 116.18C124.268 116.763 124.776 117.215 125.415 117.215C126.055 117.215 126.563 116.745 126.563 116.18ZM127.748 117.121L128.294 116.858C128.463 117.177 128.745 117.29 129.14 117.29C129.536 117.29 129.837 117.14 129.837 116.876C129.837 116.218 127.861 116.726 127.861 115.522C127.861 114.976 128.407 114.581 129.159 114.581C129.799 114.581 130.232 114.844 130.457 115.22L129.912 115.503C129.761 115.22 129.479 115.126 129.159 115.126C128.839 115.126 128.557 115.277 128.557 115.522C128.557 116.161 130.533 115.691 130.533 116.876C130.533 117.46 129.893 117.836 129.159 117.836C128.52 117.836 128.03 117.61 127.748 117.14V117.121ZM131.266 116.613V115.164H130.589V114.618H131.266V113.809H131.963V114.618H133.298V115.164H131.963V116.594C131.963 117.008 132.226 117.253 132.64 117.253C132.866 117.253 133.11 117.177 133.28 117.065V117.648C133.11 117.761 132.828 117.817 132.565 117.817C131.699 117.817 131.248 117.328 131.248 116.613H131.266ZM136.064 117.742C135.631 117.742 135.406 117.516 135.406 117.253C135.406 117.065 135.5 116.876 135.707 116.726L137.118 115.597C137.513 115.277 137.72 115.051 137.72 114.694C137.72 114.317 137.362 114.035 136.892 114.035C136.422 114.035 136.045 114.298 135.838 114.675L135.274 114.392C135.594 113.809 136.177 113.414 136.948 113.414C137.833 113.414 138.453 113.96 138.453 114.637C138.453 115.145 138.19 115.54 137.757 115.898L136.365 117.027C136.365 117.027 136.271 117.102 136.271 117.14C136.271 117.159 136.271 117.177 136.309 117.177H138.585V117.78H136.083L136.064 117.742ZM138.924 115.597C138.924 114.355 139.695 113.395 140.824 113.395C141.953 113.395 142.724 114.355 142.724 115.597C142.724 116.839 141.953 117.817 140.824 117.817C139.695 117.817 138.924 116.839 138.924 115.597ZM141.991 115.597C141.991 114.731 141.501 114.054 140.824 114.054C140.147 114.054 139.658 114.731 139.658 115.597C139.658 116.462 140.147 117.159 140.824 117.159C141.501 117.159 141.991 116.462 141.991 115.597ZM143.834 117.742C143.402 117.742 143.176 117.516 143.176 117.253C143.176 117.065 143.27 116.876 143.477 116.726L144.888 115.597C145.283 115.277 145.49 115.051 145.49 114.694C145.49 114.317 145.133 114.035 144.662 114.035C144.192 114.035 143.816 114.298 143.609 114.675L143.044 114.392C143.364 113.809 143.947 113.414 144.719 113.414C145.603 113.414 146.224 113.96 146.224 114.637C146.224 115.145 145.96 115.54 145.528 115.898L144.135 117.027C144.135 117.027 144.041 117.102 144.041 117.14C144.041 117.159 144.041 117.177 144.079 117.177H146.355V117.78H143.853L143.834 117.742ZM147.936 117.742V114.223C147.936 114.223 147.936 114.185 147.898 114.185C147.861 114.185 147.842 114.204 147.804 114.223L146.713 114.769L146.393 114.148L147.616 113.546C147.804 113.452 147.992 113.395 148.18 113.395C148.481 113.395 148.67 113.564 148.67 113.884V117.742H147.955H147.936Z" fill="#EBAA01"/>
<path d="M80.9009 62.3991V24.5192C80.9009 24.5192 80.7315 24.5945 80.6563 24.6698L67.9755 30.7855L62.3877 20.2853L77.8906 12.89C80.5622 11.6104 83.4784 10.6318 85.9807 10.6318C90.2327 10.6318 93.0736 13.191 93.0736 17.7261V62.4179H80.9009V62.3991Z" fill="#EBAA01"/>
<path d="M98.398 44.9741L100.449 43.9203C100.863 44.6354 101.502 44.9365 102.481 44.9365C103.384 44.9365 103.948 44.6166 103.948 44.1085C103.948 42.6784 98.6237 43.9203 98.6237 40.5143C98.6237 38.9337 100.148 37.6917 102.537 37.6917C104.607 37.6917 105.867 38.5761 106.45 39.5923L104.4 40.6461C104.08 40.0063 103.384 39.7052 102.594 39.7052C101.916 39.7052 101.389 40.0063 101.389 40.4767C101.389 41.9068 106.714 40.759 106.714 44.0709C106.714 45.8397 104.814 46.9876 102.594 46.9876C100.58 46.9876 99.1694 46.3102 98.3604 44.9929L98.398 44.9741ZM108.501 43.2429V40.0627H106.714V37.9363H108.501V35.697H111.286V37.9363H114.71V40.0627H111.286V43.1676C111.286 44.1461 111.925 44.7107 112.96 44.7107C113.525 44.7107 114.258 44.5601 114.729 44.2779V46.536C114.24 46.8182 113.393 46.9688 112.716 46.9688C109.912 46.9688 108.52 45.4446 108.52 43.2429H108.501ZM99.4139 62.418V50.45H104.061C107.805 50.45 110.1 52.0307 110.1 54.7969C110.1 57.5631 107.843 59.2379 104.212 59.2379H102.274V62.3804H99.4139V62.418ZM102.274 52.8587V56.848H104.136C106.018 56.848 107.147 56.1894 107.147 54.7969C107.147 53.4044 106.018 52.8399 104.136 52.8399H102.274V52.8587ZM113.562 60.0282H119.714V62.418H113.224C111.399 62.418 110.702 61.5713 110.702 60.1976V50.45H113.562V60.0094V60.0282ZM124.061 52.1436C124.512 50.8452 125.697 50.2242 126.92 50.2242C128.143 50.2242 129.347 50.8452 129.799 52.1436L133.298 62.418H130.382L129.611 59.9718H124.249L123.477 62.418H120.561L124.061 52.1436ZM125.001 57.6572H128.858L127.372 52.9152C127.297 52.6705 127.184 52.5576 126.939 52.5576C126.732 52.5576 126.582 52.6705 126.506 52.9152L125.001 57.6572ZM132.772 56.4529C132.772 52.9904 135.763 50.2242 139.62 50.2242C141.915 50.2242 144.116 51.3345 145.095 53.1974L142.762 54.3829C142.122 53.348 141.087 52.6893 139.507 52.6893C137.306 52.6893 135.725 54.27 135.725 56.434C135.725 58.5981 137.287 60.1788 139.507 60.1788C141.087 60.1788 142.16 59.5201 142.762 58.4852L145.095 59.6707C144.116 61.5336 141.915 62.6439 139.62 62.6439C135.782 62.6439 132.772 59.8965 132.772 56.4152V56.4529ZM148.18 62.418C146.355 62.418 145.659 61.5713 145.659 60.1976V52.6893C145.659 51.3157 146.374 50.45 148.18 50.45H155.16V52.7834H148.519V55.2674H154.746V57.6007H148.519V60.0847H155.292V62.418H148.199H148.18Z" fill="#EBAA01"/>
</g>
<defs>
<clipPath id="clip0_351_6908">
<rect width="218" height="120" fill="white"/>
</clipPath>
</defs>
</svg>
