<svg width="218" height="120" viewBox="0 0 218 120" fill="none" xmlns="http://www.w3.org/2000/svg">
<g clip-path="url(#clip0_351_7996)">
<path d="M51.247 116.233C49.7929 117.762 41.5531 112.56 38.906 108.085C38.906 108.085 37.4332 105.624 37.1163 102.156C37.079 101.839 37.1163 101.504 37.1723 101.187C37.2095 100.982 37.3214 100.795 37.5078 100.31C37.8807 100.441 38.2908 100.515 38.6636 100.627C38.6636 100.627 39.2042 100.814 39.7262 101.093C45.2443 103.965 48.7303 109.782 48.7303 109.782C50.4081 112.579 52.0672 115.357 51.247 116.233Z" fill="#CECECE"/>
<path d="M27.5154 12.8835C27.9628 4.71697 38.1973 -1.80882 47.5556 0.447242C41.9443 6.56284 36.6127 12.4733 27.5154 12.8835Z" fill="#CECECE"/>
<path d="M15.7522 85.9908C9.89859 78.1971 10.3833 69.4898 16.7216 64.2878C20.6551 71.634 17.4673 78.4581 15.7522 85.9908Z" fill="#CECECE"/>
<path d="M10.1601 70.87C6.61807 61.8271 9.43302 53.4182 16.8526 50.1553C18.6422 58.3218 13.758 64.1205 10.1601 70.87Z" fill="#CECECE"/>
<path d="M11.8562 38.4271C12.7324 29.5707 20.357 22.9703 27.6274 24.5552C26.5275 29.7012 20.9162 34.6795 11.8562 38.4271Z" fill="#CECECE"/>
<path d="M8.94834 54.5554C7.66204 45.1955 13.1987 36.8611 20.7301 36.7493C20.0776 44.8599 14.1308 49.2229 8.94834 54.5554Z" fill="#CECECE"/>
<path d="M38.1973 14.5804C33.4622 21.4231 26.0427 22.1689 19.0706 24.164C20.3382 17.4517 31.0574 10.6276 38.1973 14.5804Z" fill="#CECECE"/>
<path d="M20.4684 78.0852C25.9119 84.1262 24.8493 91.4724 25.0544 98.744C17.4484 94.3624 15.3605 82.616 20.4684 78.0852Z" fill="#CECECE"/>
<path d="M22.8175 99.9186C15.2115 99.9558 7.77333 93.2436 6.0769 84.7974C14.3726 86.7178 18.7908 93.0385 22.8175 99.9186Z" fill="#CECECE"/>
<path d="M37.5637 109.465C28.8019 105.829 25.0176 98.6508 27.236 90.0554C34.3386 94.6235 35.1962 102.026 37.5637 109.465Z" fill="#CECECE"/>
<path d="M50.5758 117.799C45.0391 122.61 32.6422 118.806 28.6155 113.25C36.7807 110.602 43.6782 114.275 50.5758 117.799Z" fill="#CECECE"/>
<path d="M5.72308 30.8945C10.1972 38.3712 8.81766 45.8852 6.8416 53.4178C1.41677 49.2413 0.894792 39.6018 5.72308 30.8945Z" fill="#CECECE"/>
<path d="M14.9878 15.3071C17.5045 23.5483 13.7015 30.3724 10.1409 37.0846C5.83456 32.0877 8.29531 20.6023 14.9878 15.3071Z" fill="#CECECE"/>
<path d="M8.03479 70.3849C1.32365 66.7677 -1.84549 56.9604 1.09995 48.8684C7.60602 54.723 7.38231 62.7031 8.03479 70.3849Z" fill="#CECECE"/>
<path d="M17.4676 22.4482C14.7832 16.1088 20.6927 5.40655 28.4478 2.27417C26.8073 7.51345 27.0683 13.0138 22.3705 16.7614C20.5063 18.253 19.2013 20.4159 17.4676 22.4668V22.4482Z" fill="#CECECE"/>
<path d="M1.11869 67.1033C8.76193 71.1679 11.1108 78.4954 13.3106 85.7857C6.76723 85.3195 0.578072 75.997 1.11869 67.1033Z" fill="#CECECE"/>
<path d="M35.6435 110.77C28.0003 112.728 19.8723 108.533 14.9695 99.8071C19.2758 101.019 23.3398 101.522 26.714 103.294C29.995 105.028 32.5489 108.104 35.6621 110.77H35.6435Z" fill="#CECECE"/>
<path d="M166.753 116.233C168.207 117.762 176.447 112.56 179.094 108.085C179.094 108.085 180.566 105.624 180.883 102.156C180.921 101.839 180.883 101.504 180.827 101.187C180.79 100.982 180.678 100.795 180.492 100.31C180.119 100.441 179.709 100.515 179.336 100.627C179.336 100.627 178.795 100.814 178.273 101.093C172.755 103.965 169.269 109.782 169.269 109.782C167.592 112.579 165.932 115.357 166.753 116.233Z" fill="#CECECE"/>
<path d="M190.485 12.8835C190.037 4.71697 179.803 -1.80882 170.444 0.447242C176.056 6.56284 181.387 12.4733 190.485 12.8835Z" fill="#CECECE"/>
<path d="M202.247 85.9908C208.101 78.1971 207.616 69.4898 201.278 64.2878C197.344 71.634 200.532 78.4581 202.247 85.9908Z" fill="#CECECE"/>
<path d="M207.84 70.87C211.382 61.8271 208.567 53.4182 201.147 50.1553C199.358 58.3218 204.242 64.1205 207.84 70.87Z" fill="#CECECE"/>
<path d="M206.143 38.4271C205.267 29.5707 197.643 22.9703 190.372 24.5552C191.472 29.7012 197.083 34.6795 206.143 38.4271Z" fill="#CECECE"/>
<path d="M209.052 54.5554C210.338 45.1955 204.802 36.8611 197.27 36.7493C197.923 44.8599 203.87 49.2229 209.052 54.5554Z" fill="#CECECE"/>
<path d="M179.802 14.5804C184.537 21.4231 191.957 22.1689 198.929 24.164C197.661 17.4517 186.942 10.6276 179.802 14.5804Z" fill="#CECECE"/>
<path d="M197.531 78.0852C192.088 84.1262 193.15 91.4724 192.945 98.744C200.551 94.3624 202.639 82.616 197.531 78.0852Z" fill="#CECECE"/>
<path d="M195.183 99.9186C202.789 99.9558 210.227 93.2436 211.923 84.7974C203.627 86.7178 199.209 93.0385 195.183 99.9186Z" fill="#CECECE"/>
<path d="M180.437 109.465C189.198 105.829 192.983 98.6508 190.764 90.0554C183.662 94.6235 182.804 102.026 180.437 109.465Z" fill="#CECECE"/>
<path d="M167.424 117.799C172.961 122.61 185.358 118.806 189.385 113.25C181.219 110.602 174.322 114.275 167.424 117.799Z" fill="#CECECE"/>
<path d="M212.277 30.8945C207.803 38.3712 209.183 45.8852 211.159 53.4178C216.583 49.2413 217.105 39.6018 212.277 30.8945Z" fill="#CECECE"/>
<path d="M203.011 15.3071C200.495 23.5483 204.298 30.3724 207.858 37.0846C212.165 32.0877 209.704 20.6023 203.011 15.3071Z" fill="#CECECE"/>
<path d="M209.965 70.3849C216.676 66.7677 219.845 56.9604 216.9 48.8684C210.394 54.723 210.618 62.7031 209.965 70.3849Z" fill="#CECECE"/>
<path d="M200.532 22.4482C203.217 16.1088 197.307 5.40655 189.552 2.27417C191.193 7.51345 190.932 13.0138 195.63 16.7614C197.494 18.253 198.799 20.4159 200.532 22.4668V22.4482Z" fill="#CECECE"/>
<path d="M216.881 67.1033C209.238 71.1679 206.889 78.4954 204.689 85.7857C211.233 85.3195 217.422 75.997 216.881 67.1033Z" fill="#CECECE"/>
<path d="M182.375 110.77C190.018 112.728 198.146 108.533 203.049 99.8071C198.743 101.019 194.679 101.522 191.304 103.294C188.023 105.028 185.469 108.104 182.356 110.77H182.375Z" fill="#CECECE"/>
<path d="M31.5421 66.1902C32.1201 64.4562 33.7419 63.6358 35.3638 63.6358C36.9856 63.6358 38.6075 64.4562 39.1854 66.1902L43.2121 78.1044H38.8312L38.1041 75.7179H32.6234L31.8777 78.1044H27.4968L31.5235 66.1902H31.5421ZM33.686 72.2499H37.0416L35.5688 67.3276C35.5315 67.1784 35.4756 67.1225 35.3824 67.1225C35.2892 67.1225 35.2519 67.1784 35.196 67.3276L33.686 72.2499ZM43.2121 71.7092V63.9528H47.4997V71.5973C47.4997 73.7788 48.4318 74.6737 50.3333 74.6737C52.2348 74.6737 53.1856 73.7788 53.1856 71.5973V63.9528H57.4732V71.7092C57.4732 75.9043 55.2362 78.3468 50.3333 78.3468C45.4305 78.3468 43.2307 75.8857 43.2307 71.7092H43.2121ZM71.2683 67.514H66.8502V78.1044H62.5625V67.514H58.1443V63.9528H71.2683V67.514ZM71.1565 71.0379C71.1565 66.8241 74.6798 63.6545 79.3963 63.6545C84.1127 63.6545 87.636 66.8241 87.636 71.0379C87.636 75.2517 84.1127 78.4214 79.3963 78.4214C74.6798 78.4214 71.1565 75.2517 71.1565 71.0379ZM83.2552 71.0379C83.2552 68.9497 81.596 67.3276 79.4149 67.3276C77.2338 67.3276 75.5746 68.9497 75.5746 71.0379C75.5746 73.1262 77.2338 74.7483 79.4149 74.7483C81.596 74.7483 83.2552 73.1262 83.2552 71.0379ZM88.9223 78.1044V66.0224C88.9223 64.5122 90.2273 63.6172 91.5882 63.6172C92.6694 63.6172 93.6201 63.9528 94.1794 64.7545L99.6974 72.6601V63.9528H103.743V76.0348C103.743 77.5451 102.438 78.4214 101.077 78.4214C100.014 78.4214 99.045 78.0858 98.4857 77.2841L92.9677 69.3785V78.1044H88.9223ZM105.01 71.0379C105.01 66.8241 108.534 63.6545 113.25 63.6545C117.967 63.6545 121.49 66.8241 121.49 71.0379C121.49 75.2517 117.967 78.4214 113.25 78.4214C108.534 78.4214 105.01 75.2517 105.01 71.0379ZM117.109 71.0379C117.109 68.9497 115.45 67.3276 113.269 67.3276C111.088 67.3276 109.429 68.9497 109.429 71.0379C109.429 73.1262 111.088 74.7483 113.269 74.7483C115.45 74.7483 117.109 73.1262 117.109 71.0379ZM121.975 78.1044L124.044 66.2089C124.342 64.5308 125.647 63.6358 127.511 63.6358C129.133 63.6358 130.494 64.2698 130.941 65.836L133.067 73.3499L135.173 65.9105C135.621 64.3443 137.019 63.6545 138.697 63.6545C140.524 63.6545 141.773 64.5867 142.052 66.3021L143.898 78.1231H139.573L138.324 68.148L135.844 76.3332C135.453 77.5824 134.372 78.1977 133.067 78.1977C131.762 78.1977 130.643 77.6197 130.289 76.4077L127.828 68.1293L126.318 78.1231H121.975V78.1044ZM144.364 71.0379C144.364 66.8241 147.887 63.6545 152.604 63.6545C157.32 63.6545 160.843 66.8241 160.843 71.0379C160.843 75.2517 157.32 78.4214 152.604 78.4214C147.887 78.4214 144.364 75.2517 144.364 71.0379ZM156.444 71.0379C156.444 68.9497 154.785 67.3276 152.604 67.3276C150.422 67.3276 148.763 68.9497 148.763 71.0379C148.763 73.1262 150.422 74.7483 152.604 74.7483C154.785 74.7483 156.444 73.1262 156.444 71.0379ZM161.887 71.7092V63.9528H166.175V71.5973C166.175 73.7788 167.107 74.6737 169.009 74.6737C170.91 74.6737 171.861 73.7788 171.861 71.5973V63.9528H176.148V71.7092C176.148 75.9043 173.911 78.3468 169.009 78.3468C164.106 78.3468 161.906 75.8857 161.906 71.7092H161.887ZM177.342 75.2331L180.902 73.611C181.35 74.4686 182.226 74.8602 183.68 74.8602C184.817 74.8602 185.675 74.5432 185.675 73.872C185.675 73.033 184.742 72.9025 183.344 72.716C181.014 72.399 177.584 71.5787 177.584 68.2039C177.584 65.6122 180.156 63.6172 183.624 63.6172C186.364 63.6172 188.676 64.7359 189.738 66.8242L186.178 68.4463C185.73 67.7564 184.91 67.1971 183.437 67.1971C182.412 67.1971 181.872 67.4954 181.872 68.0734C181.872 68.8751 182.897 69.1175 184.426 69.3226C186.737 69.6396 189.981 70.4413 189.981 73.8347C189.981 76.4264 187.185 78.4214 183.698 78.4214C180.734 78.4214 178.423 77.3027 177.36 75.2145L177.342 75.2331Z" fill="#CECECE"/>
<path d="M49.5318 93.4678V83.6419H53.3534C56.4294 83.6419 58.3122 84.947 58.3122 87.2217C58.3122 89.4964 56.448 90.8762 53.4653 90.8762H51.8621V93.4678H49.5132H49.5318ZM51.8994 85.6182V88.8998H53.428C54.9753 88.8998 55.9074 88.3591 55.9074 87.2217C55.9074 86.0844 54.9753 85.6182 53.428 85.6182H51.8994ZM59.4121 93.4678V83.6419H63.5879C66.03 83.6419 67.9315 84.686 67.9315 86.7742C67.9315 88.1167 67.0553 89.1608 65.6758 89.4964C66.3656 89.8507 66.7757 90.5219 67.335 91.5474L68.3789 93.4865H65.825L64.8556 91.7338C64.3522 90.8202 63.8862 90.3541 62.6558 90.3541H61.7424V93.4865H59.4121V93.4678ZM61.7796 85.6182V88.4337H63.6066C64.7251 88.4337 65.5267 87.9116 65.5267 86.998C65.5267 86.0844 64.7064 85.6182 63.6438 85.6182H61.7796ZM68.8636 88.5642C68.8636 85.6742 71.3057 83.4741 74.5122 83.4741C77.7186 83.4741 80.1793 85.6742 80.1793 88.5642C80.1793 91.4542 77.7186 93.6543 74.5122 93.6543C71.3057 93.6543 68.8636 91.4728 68.8636 88.5642ZM77.7372 88.5642C77.7372 86.8302 76.3391 85.4877 74.5122 85.4877C72.6852 85.4877 71.2871 86.8302 71.2871 88.5642C71.2871 90.2982 72.7039 91.6406 74.5122 91.6406C76.3204 91.6406 77.7372 90.2982 77.7372 88.5642ZM80.459 88.5642C80.459 85.7301 82.8824 83.4741 86.0889 83.4741C87.9344 83.4741 89.78 84.3131 90.5816 85.8979L88.6615 86.8675C88.1209 85.9911 87.282 85.4691 85.977 85.4691C84.1501 85.4691 82.8638 86.8115 82.8638 88.6015C82.8638 90.3914 84.1687 91.7338 86.0702 91.7338C87.1328 91.7338 87.9158 91.4915 88.4005 91.0253V88.8439H90.6748V91.7338C89.8918 92.8153 88.2141 93.6729 86.0702 93.6729C82.9011 93.6729 80.4403 91.3982 80.4403 88.5642H80.459ZM92.0916 93.4678V83.6419H96.2674C98.7095 83.6419 100.611 84.686 100.611 86.7742C100.611 88.1167 99.7348 89.1608 98.3553 89.4964C99.0451 89.8507 99.4552 90.5219 100.014 91.5474L101.058 93.4865H98.5045L97.5351 91.7338C97.0317 90.8202 96.5657 90.3541 95.3353 90.3541H94.4219V93.4865H92.0916V93.4678ZM94.4405 85.6182V88.4337H96.2674C97.3859 88.4337 98.1875 87.9116 98.1875 86.998C98.1875 86.0844 97.3673 85.6182 96.3047 85.6182H94.4405ZM104.246 85.0216C104.619 83.9588 105.588 83.4368 106.595 83.4368C107.602 83.4368 108.59 83.9402 108.963 85.0216L111.834 93.4492H109.429L108.795 91.4355H104.395L103.762 93.4492H101.357L104.228 85.0216H104.246ZM105.011 89.5524H108.18L106.949 85.6555C106.893 85.4504 106.782 85.3572 106.595 85.3572C106.409 85.3572 106.297 85.4504 106.241 85.6555L104.992 89.5524H105.011ZM112.188 93.4678L113.66 85.0216C113.847 83.9961 114.648 83.4554 115.748 83.4554C116.718 83.4554 117.538 83.8283 117.799 84.7792L119.626 90.9135V90.9508C119.626 90.9508 119.663 90.9507 119.663 90.9135L121.453 84.8352C121.732 83.8843 122.571 83.4554 123.541 83.4554C124.622 83.4554 125.386 84.0148 125.554 85.0589L126.896 93.4678H124.51L123.466 85.7674C123.466 85.7674 123.466 85.6555 123.392 85.6555C123.336 85.6555 123.317 85.6928 123.298 85.7488L121.285 92.2559C121.061 93.0017 120.409 93.3746 119.645 93.3746C118.88 93.3746 118.209 93.0204 118.023 92.3118L116.009 85.7674C116.009 85.7674 115.953 85.6742 115.935 85.6742C115.879 85.6742 115.842 85.7115 115.842 85.7674L114.611 93.4865H112.225L112.188 93.4678ZM127.586 93.4678L129.059 85.0216C129.245 83.9961 130.047 83.4554 131.147 83.4554C132.116 83.4554 132.936 83.8283 133.197 84.7792L135.024 90.9135V90.9508C135.024 90.9508 135.062 90.9507 135.062 90.9135L136.851 84.8352C137.131 83.8843 137.97 83.4554 138.939 83.4554C140.02 83.4554 140.785 84.0148 140.952 85.0589L142.295 93.4678H139.908L138.864 85.7674C138.864 85.7674 138.864 85.6555 138.79 85.6555C138.734 85.6555 138.715 85.6928 138.697 85.7488L136.683 92.2559C136.46 93.0017 135.807 93.3746 135.043 93.3746C134.279 93.3746 133.607 93.0204 133.421 92.3118L131.408 85.7674C131.408 85.7674 131.352 85.6742 131.333 85.6742C131.277 85.6742 131.24 85.7115 131.24 85.7674L130.01 93.4865H127.623L127.586 93.4678ZM146.042 83.6419V93.4678H143.693V83.6419H146.042ZM148.018 93.4678V84.9843C148.018 84.0148 148.801 83.4368 149.696 83.4368C150.404 83.4368 150.963 83.6605 151.317 84.2012L155.605 90.8575V83.6419H157.823V92.1254C157.823 93.0949 157.04 93.6543 156.183 93.6543C155.493 93.6543 154.897 93.4306 154.542 92.8898L150.255 86.1962V93.4678H148.018ZM158.942 88.5642C158.942 85.7301 161.365 83.4741 164.572 83.4741C166.417 83.4741 168.263 84.3131 169.065 85.8979L167.144 86.8675C166.604 85.9911 165.765 85.4691 164.46 85.4691C162.633 85.4691 161.347 86.8115 161.347 88.6015C161.347 90.3914 162.652 91.7338 164.553 91.7338C165.616 91.7338 166.399 91.4915 166.883 91.0253V88.8439H169.158V91.7338C168.375 92.8153 166.697 93.6729 164.553 93.6729C161.384 93.6729 158.923 91.3982 158.923 88.5642H158.942Z" fill="#CECECE"/>
<path d="M56.5786 103.723C56.5786 100.87 59.0394 98.6141 62.2085 98.6141C64.0914 98.6141 65.8996 99.5277 66.7012 101.057L64.7811 102.026C64.2405 101.187 63.4016 100.646 62.0967 100.646C60.2884 100.646 58.9834 101.952 58.9834 103.723C58.9834 105.494 60.2697 106.799 62.0967 106.799C63.4016 106.799 64.2778 106.259 64.7811 105.42L66.7012 106.389C65.8996 107.918 64.0914 108.832 62.2085 108.832C59.0394 108.832 56.5786 106.576 56.5786 103.723ZM66.6453 103.723C66.6453 100.833 69.0874 98.6328 72.2938 98.6328C75.5003 98.6328 77.961 100.833 77.961 103.723C77.961 106.613 75.5189 108.813 72.2938 108.813C69.0688 108.813 66.6453 106.632 66.6453 103.723ZM75.5189 103.723C75.5189 101.989 74.1208 100.646 72.2938 100.646C70.4669 100.646 69.0688 101.989 69.0688 103.723C69.0688 105.457 70.4856 106.799 72.2938 106.799C74.1021 106.799 75.5189 105.457 75.5189 103.723ZM78.4457 108.627L79.9184 100.18C80.1049 99.1548 80.9065 98.6141 82.0064 98.6141C82.9757 98.6141 83.796 98.987 84.057 99.9379L85.8839 106.072V106.109C85.8839 106.109 85.9212 106.109 85.9212 106.072L87.7108 99.9938C87.9904 99.0429 88.8293 98.6141 89.7987 98.6141C90.88 98.6141 91.6443 99.1735 91.8121 100.218L93.1543 108.627H90.7681L89.7242 100.926C89.7242 100.926 89.7242 100.814 89.6496 100.814C89.5937 100.814 89.575 100.852 89.5564 100.907L87.543 107.415C87.3193 108.16 86.6669 108.533 85.9025 108.533C85.1382 108.533 84.4671 108.179 84.2807 107.471L82.2673 100.926C82.2673 100.926 82.2114 100.833 82.1928 100.833C82.1368 100.833 82.0996 100.87 82.0996 100.926L80.8692 108.645H78.483L78.4457 108.627ZM94.5524 108.627V98.8006H98.3741C101.45 98.8006 103.333 100.106 103.333 102.38C103.333 104.655 101.487 106.035 98.4859 106.035H96.8827V108.627H94.5338H94.5524ZM96.9013 100.777V104.058H98.43C99.9773 104.058 100.909 103.518 100.909 102.38C100.909 101.243 99.9773 100.777 98.43 100.777H96.9013ZM106.353 108.627C104.861 108.627 104.265 107.918 104.265 106.799V100.646C104.265 99.5277 104.843 98.8006 106.353 98.8006H112.095V100.721H106.632V102.772H111.759V104.692H106.632V106.743H112.188V108.664H106.353V108.627ZM121.192 100.777H118.004V108.627H115.655V100.777H112.467V98.8006H121.211V100.777H121.192ZM124.436 98.8006V108.627H122.087V98.8006H124.436ZM134.018 100.777H130.83V108.627H128.481V100.777H125.293V98.8006H134.036V100.777H134.018ZM137.261 98.8006V108.627H134.912V98.8006H137.261ZM138.454 103.723C138.454 100.833 140.897 98.6328 144.103 98.6328C147.309 98.6328 149.77 100.833 149.77 103.723C149.77 106.613 147.309 108.813 144.103 108.813C140.897 108.813 138.454 106.632 138.454 103.723ZM147.309 103.723C147.309 101.989 145.911 100.646 144.084 100.646C142.257 100.646 140.859 101.989 140.859 103.723C140.859 105.457 142.276 106.799 144.084 106.799C145.893 106.799 147.309 105.457 147.309 103.723ZM150.833 108.627V100.143C150.833 99.1735 151.616 98.5955 152.511 98.5955C153.219 98.5955 153.778 98.8192 154.132 99.3599L158.42 106.016V98.8006H160.638V107.284C160.638 108.254 159.856 108.813 158.998 108.813C158.308 108.813 157.712 108.589 157.357 108.049L153.07 101.355V108.627H150.833Z" fill="#CECECE"/>
<path d="M69.6467 117.296L70.2618 117.035C70.4483 117.408 70.8397 117.613 71.399 117.613C71.9583 117.613 72.3684 117.371 72.3684 116.961C72.3684 116.495 71.8837 116.401 71.3244 116.308C70.616 116.178 69.7212 115.973 69.7212 115.059C69.7212 114.35 70.4296 113.81 71.3244 113.81C72.0515 113.81 72.6853 114.108 72.9649 114.705L72.3684 114.984C72.182 114.63 71.8091 114.406 71.2872 114.406C70.8025 114.406 70.411 114.667 70.411 115.022C70.411 115.488 70.9143 115.581 71.4922 115.693C72.2006 115.823 73.0581 116.029 73.0581 116.942C73.0581 117.707 72.3125 118.229 71.3617 118.229C70.5601 118.229 69.889 117.912 69.6094 117.315L69.6467 117.296ZM73.7479 118.135V113.567H74.4377V115.357C74.6987 115.096 75.1274 114.928 75.5935 114.928C76.6001 114.928 77.178 115.544 77.178 116.495V118.135H76.4883V116.569C76.4883 116.01 76.1527 115.525 75.5003 115.525C74.8851 115.525 74.4563 115.973 74.4563 116.588V118.135H73.7665H73.7479ZM77.6068 116.551C77.6068 115.656 78.3152 114.91 79.3592 114.91C80.4031 114.91 81.0556 115.6 81.0556 116.476V116.737H78.2966C78.3711 117.278 78.8185 117.651 79.4524 117.651C79.8811 117.651 80.254 117.483 80.459 117.147L80.9997 117.39C80.7014 117.93 80.1421 118.21 79.471 118.21C78.4271 118.21 77.6441 117.52 77.6441 116.551H77.6068ZM80.3472 116.327C80.3099 115.823 79.9184 115.488 79.3405 115.488C78.7626 115.488 78.3711 115.861 78.2966 116.327H80.3285H80.3472ZM82.3792 113.567V118.135H81.6894V113.567H82.3792ZM84.001 113.567V118.135H83.3113V113.567H84.001ZM87.2447 118.135C86.7601 118.135 86.5736 117.912 86.5736 117.539V114.425C86.5736 114.052 86.7414 113.828 87.2447 113.828H89.836V114.425H87.3007V115.674H89.7055V116.271H87.3007V117.52H89.8919V118.117H87.2447V118.135ZM90.2088 116.569C90.2088 115.674 91.0291 114.928 92.0171 114.928C92.6509 114.928 93.2288 115.19 93.5458 115.749L92.9679 116.047C92.7628 115.712 92.4086 115.525 92.0171 115.525C91.4019 115.525 90.9172 115.991 90.9172 116.569C90.9172 117.147 91.4206 117.613 92.0171 117.613C92.4272 117.613 92.7628 117.427 92.9679 117.091L93.5458 117.371C93.2288 117.949 92.6509 118.191 92.0171 118.191C91.0291 118.191 90.2088 117.464 90.2088 116.551V116.569ZM93.6949 116.569C93.6949 115.674 94.5151 114.928 95.5405 114.928C96.5658 114.928 97.3674 115.674 97.3674 116.569C97.3674 117.464 96.5658 118.229 95.5405 118.229C94.5151 118.229 93.6949 117.483 93.6949 116.569ZM96.6776 116.569C96.6776 115.991 96.1743 115.525 95.5405 115.525C94.9066 115.525 94.3847 115.991 94.3847 116.569C94.3847 117.147 94.888 117.613 95.5405 117.613C96.1929 117.613 96.6776 117.147 96.6776 116.569ZM100.518 116.457H98.0758V115.879H100.518V116.457ZM107.341 116.495V118.154H106.651V116.607C106.651 116.029 106.334 115.544 105.7 115.544C105.067 115.544 104.75 116.029 104.75 116.607V118.173H104.06V116.607C104.06 116.029 103.743 115.544 103.109 115.544C102.475 115.544 102.177 116.047 102.177 116.607V118.154H101.487V116.513C101.487 115.637 102.047 114.928 103.072 114.928C103.762 114.928 104.265 115.245 104.433 115.73C104.619 115.245 105.104 114.928 105.775 114.928C106.819 114.928 107.378 115.637 107.378 116.495H107.341ZM107.77 116.569C107.77 115.674 108.553 114.928 109.615 114.928C110.678 114.928 111.461 115.637 111.461 116.569V118.135H110.79V117.576C110.529 117.968 110.063 118.21 109.503 118.21C108.497 118.21 107.77 117.464 107.77 116.551V116.569ZM110.752 116.569C110.752 115.991 110.249 115.525 109.615 115.525C108.981 115.525 108.478 115.991 108.478 116.569C108.478 117.147 108.981 117.613 109.615 117.613C110.249 117.613 110.752 117.147 110.752 116.569ZM112.113 118.135V116.271C112.113 115.506 112.598 114.947 113.493 114.947C113.716 114.947 113.94 114.984 114.108 115.059V115.693C113.94 115.6 113.735 115.562 113.549 115.562C113.083 115.562 112.803 115.842 112.803 116.308V118.154H112.113V118.135ZM114.052 116.569C114.052 115.674 114.835 114.928 115.898 114.928C116.96 114.928 117.743 115.637 117.743 116.569V118.135H117.072V117.576C116.811 117.968 116.345 118.21 115.786 118.21C114.779 118.21 114.052 117.464 114.052 116.551V116.569ZM117.035 116.569C117.035 115.991 116.55 115.525 115.898 115.525C115.245 115.525 114.76 115.991 114.76 116.569C114.76 117.147 115.264 117.613 115.898 117.613C116.531 117.613 117.035 117.147 117.035 116.569ZM118.638 117.017V115.562H117.948V115.022H118.638V114.201H119.328V115.022H120.651V115.562H119.328V116.998C119.328 117.408 119.589 117.651 120.017 117.651C120.241 117.651 120.484 117.576 120.651 117.464V118.042C120.484 118.154 120.204 118.229 119.943 118.229C119.085 118.229 118.619 117.744 118.619 117.017H118.638ZM121.341 118.135V113.567H122.031V115.357C122.292 115.096 122.721 114.928 123.187 114.928C124.193 114.928 124.771 115.544 124.771 116.495V118.135H124.081V116.569C124.081 116.01 123.746 115.525 123.093 115.525C122.478 115.525 122.049 115.973 122.049 116.588V118.135H121.36H121.341ZM125.219 116.569C125.219 115.674 126.039 114.928 127.064 114.928C128.089 114.928 128.891 115.674 128.891 116.569C128.891 117.464 128.089 118.229 127.064 118.229C126.039 118.229 125.219 117.483 125.219 116.569ZM128.201 116.569C128.201 115.991 127.698 115.525 127.064 115.525C126.43 115.525 125.908 115.991 125.908 116.569C125.908 117.147 126.412 117.613 127.064 117.613C127.717 117.613 128.201 117.147 128.201 116.569ZM130.028 116.625V118.135H129.338V116.551C129.338 115.637 129.935 114.91 131.054 114.91C132.172 114.91 132.787 115.618 132.787 116.532V118.117H132.097V116.607C132.097 116.01 131.743 115.506 131.054 115.506C130.364 115.506 130.047 116.01 130.047 116.588L130.028 116.625ZM135.658 118.135C135.229 118.135 135.006 117.912 135.006 117.632C135.006 117.427 135.099 117.259 135.304 117.091L136.702 115.954C137.094 115.637 137.299 115.395 137.299 115.04C137.299 114.649 136.944 114.388 136.478 114.388C136.012 114.388 135.639 114.649 135.416 115.04L134.857 114.761C135.173 114.183 135.751 113.772 136.516 113.772C137.392 113.772 138.007 114.313 138.007 115.003C138.007 115.525 137.746 115.917 137.317 116.271L135.919 117.39C135.919 117.39 135.826 117.464 135.826 117.502C135.826 117.52 135.826 117.539 135.863 117.539H138.138V118.135H135.639H135.658ZM138.529 115.991C138.529 114.742 139.293 113.772 140.43 113.772C141.568 113.772 142.332 114.723 142.332 115.991C142.332 117.259 141.568 118.229 140.43 118.229C139.293 118.229 138.529 117.24 138.529 115.991ZM141.586 115.991C141.586 115.115 141.102 114.444 140.43 114.444C139.759 114.444 139.275 115.115 139.275 115.991C139.275 116.868 139.759 117.557 140.43 117.557C141.102 117.557 141.586 116.868 141.586 115.991ZM143.45 118.135C143.022 118.135 142.798 117.912 142.798 117.632C142.798 117.427 142.891 117.259 143.096 117.091L144.494 115.954C144.886 115.637 145.091 115.395 145.091 115.04C145.091 114.649 144.737 114.388 144.271 114.388C143.805 114.388 143.432 114.649 143.208 115.04L142.649 114.761C142.966 114.183 143.544 113.772 144.308 113.772C145.184 113.772 145.799 114.313 145.799 115.003C145.799 115.525 145.538 115.917 145.11 116.271L143.711 117.39C143.711 117.39 143.618 117.464 143.618 117.502C143.618 117.52 143.618 117.539 143.656 117.539H145.93V118.135H143.432H143.45ZM147.533 118.135V114.593C147.533 114.593 147.533 114.556 147.496 114.556C147.459 114.556 147.44 114.574 147.403 114.593L146.321 115.152L146.004 114.537L147.216 113.922C147.403 113.828 147.589 113.754 147.775 113.754C148.074 113.754 148.26 113.94 148.26 114.257V118.117H147.533V118.135Z" fill="#CECECE"/>
<path d="M70.8583 57.5202C65.564 57.5202 62.8982 54.7794 62.8982 51.4792C62.8982 48.8689 64.1099 46.7434 66.6079 44.8229L80.3098 33.9901C84.0942 30.9137 86.1448 28.7135 86.1448 25.4133C86.1448 22.3928 83.3485 19.8571 79.0981 19.8571C74.8477 19.8571 71.2125 22.5979 69.4042 26.1592L60.9221 21.8335C64.1845 15.3263 70.9888 10.46 80.0116 10.46C90.1715 10.46 97.1995 16.8366 97.1995 24.5184C97.1995 30.3543 94.6269 34.5308 89.9291 38.2225L77.3458 48.235H98.5604V57.483H70.8397L70.8583 57.5202Z" fill="#CECECE"/>
<path d="M106.577 38.353V42.4363H103.799V38.0547C103.799 35.5003 105.458 33.4121 108.87 33.4121C112.281 33.4121 113.978 35.4817 113.978 38.0547V42.4363H111.181V38.353C111.181 37.0106 110.454 35.8546 108.87 35.8546C107.285 35.8546 106.595 37.0106 106.595 38.353H106.577ZM114.817 38.0361C114.817 35.2952 116.904 33.3934 119.924 33.3934C120.912 33.3934 121.845 33.7104 122.553 34.2325V29.5898H125.368V38.0361C125.368 40.7023 123.131 42.6787 120.092 42.6787C117.054 42.6787 114.835 40.5905 114.835 38.0361H114.817ZM122.572 38.0361C122.572 36.7869 121.509 35.7614 120.074 35.7614C118.638 35.7614 117.594 36.7869 117.594 38.0361C117.594 39.2853 118.638 40.2921 120.074 40.2921C121.509 40.2921 122.572 39.2853 122.572 38.0361ZM104.377 58.1355V46.184H109.037C112.785 46.184 115.078 47.7688 115.078 50.5283C115.078 53.2878 112.822 54.9659 109.187 54.9659H107.248V58.1169H104.377V58.1355ZM107.248 48.5706V52.5606H109.112C110.995 52.5606 112.132 51.9081 112.132 50.5097C112.132 49.1113 110.995 48.5519 109.112 48.5519H107.248V48.5706ZM118.526 55.7303H124.697V58.1355H118.191C116.364 58.1355 115.655 57.2778 115.655 55.9168V46.184H118.526V55.7303ZM129.022 47.8621C129.469 46.5569 130.644 45.9416 131.893 45.9416C133.142 45.9416 134.335 46.5569 134.782 47.8621L138.268 58.1169H135.341L134.577 55.6744H129.227L128.462 58.1169H125.536L129.022 47.8621ZM129.972 53.381H133.831L132.34 48.6452C132.265 48.4028 132.135 48.2909 131.911 48.2909C131.688 48.2909 131.557 48.4028 131.482 48.6452L129.972 53.381ZM137.728 52.1691C137.728 48.7011 140.729 45.9603 144.569 45.9603C146.862 45.9603 149.062 47.0603 150.05 48.9248L147.72 50.1181C147.067 49.0926 146.042 48.4401 144.457 48.4401C142.258 48.4401 140.673 50.0249 140.673 52.1877C140.673 54.3506 142.239 55.9354 144.457 55.9354C146.042 55.9354 147.105 55.2828 147.72 54.2573L150.05 55.4506C149.062 57.3151 146.862 58.4152 144.569 58.4152C140.729 58.4152 137.728 55.6557 137.728 52.2064V52.1691ZM153.163 58.1355C151.336 58.1355 150.628 57.2778 150.628 55.9168V48.4214C150.628 47.0603 151.336 46.184 153.163 46.184H160.154V48.5146H153.499V50.9944H159.744V53.3251H153.499V55.8049H160.266V58.1355H153.163Z" fill="#CECECE"/>
</g>
<defs>
<clipPath id="clip0_351_7996">
<rect width="218" height="120" fill="white"/>
</clipPath>
</defs>
</svg>
