<svg width="218" height="120" viewBox="0 0 218 120" fill="none" xmlns="http://www.w3.org/2000/svg">
<g clip-path="url(#clip0_351_7660)">
<path d="M80.9993 58.3407V20.4538C80.9993 20.4538 80.8316 20.5284 80.757 20.603L68.0804 26.7186L62.4878 16.2214L77.998 8.81929C80.6638 7.53278 83.5906 6.56323 86.0886 6.56323C90.339 6.56323 93.1726 9.13626 93.1726 13.667V58.3594H80.9993V58.3407Z" fill="#EBAA01"/>
<path d="M98.5046 40.9075L100.574 39.8634C100.984 40.5719 101.637 40.8702 102.606 40.8702C103.501 40.8702 104.079 40.5532 104.079 40.0312C104.079 38.6141 98.747 39.8447 98.747 36.4513C98.747 34.8665 100.276 33.6359 102.68 33.6359C104.768 33.6359 106.017 34.5309 106.614 35.5377L104.545 36.5818C104.228 35.9479 103.519 35.6496 102.736 35.6496C102.047 35.6496 101.543 35.9479 101.543 36.414C101.543 37.8311 106.875 36.6937 106.875 39.9939C106.875 41.7652 104.973 42.9025 102.755 42.9025C100.742 42.9025 99.3249 42.2313 98.5233 40.9075H98.5046ZM108.609 39.1735V36.0038H106.819V33.8783H108.609V31.6409H111.405V33.8783H114.835V36.0038H111.405V39.1176C111.405 40.0871 112.057 40.6651 113.083 40.6651C113.661 40.6651 114.369 40.4973 114.854 40.2363V42.4923C114.369 42.772 113.511 42.9212 112.84 42.9212C110.025 42.9212 108.646 41.3923 108.646 39.1921L108.609 39.1735ZM99.5299 58.3407V46.3892H104.19C107.938 46.3892 110.23 47.974 110.23 50.7335C110.23 53.493 107.975 55.171 104.34 55.171H102.401V58.322H99.5299V58.3407ZM102.382 48.7944V52.7844H104.246C106.129 52.7844 107.266 52.1319 107.266 50.7521C107.266 49.3724 106.129 48.7944 104.246 48.7944H102.382ZM113.679 55.9541H119.85V58.3593H113.344C111.517 58.3593 110.808 57.5017 110.808 56.1406V46.4078H113.679V55.9541ZM124.175 48.0859C124.622 46.7994 125.797 46.1654 127.046 46.1654C128.295 46.1654 129.488 46.7807 129.935 48.0859L133.421 58.3407H130.494L129.73 55.8982H124.38L123.615 58.3407H120.689L124.175 48.0859ZM125.107 53.5862H128.966L127.474 48.8503C127.4 48.6079 127.288 48.4961 127.046 48.4961C126.822 48.4961 126.691 48.6079 126.617 48.8503L125.107 53.5862ZM132.881 52.3929C132.881 48.9249 135.882 46.1841 139.722 46.1841C142.015 46.1841 144.215 47.2841 145.203 49.1486L142.873 50.3419C142.22 49.3164 141.195 48.6639 139.61 48.6639C137.411 48.6639 135.826 50.2487 135.826 52.4115C135.826 54.5744 137.392 56.1592 139.61 56.1592C141.195 56.1592 142.258 55.5066 142.873 54.4811L145.203 55.6744C144.215 57.5389 142.015 58.639 139.722 58.639C135.882 58.639 132.881 55.8795 132.881 52.4302V52.3929ZM148.298 58.3407C146.471 58.3407 145.762 57.483 145.762 56.1219V48.6266C145.762 47.2655 146.471 46.3892 148.298 46.3892H155.288V48.7198H148.633V51.1996H154.878V53.5302H148.633V56.01H155.4V58.3407H148.298Z" fill="#EBAA01"/>
<path d="M51.247 116.234C49.7929 117.763 41.5531 112.561 38.906 108.086C38.906 108.086 37.4332 105.625 37.1163 102.157C37.079 101.84 37.1163 101.504 37.1723 101.187C37.2095 100.982 37.3214 100.796 37.5078 100.311C37.8807 100.442 38.2908 100.516 38.6636 100.628C38.6636 100.628 39.2042 100.814 39.7262 101.094C45.2443 103.965 48.7303 109.783 48.7303 109.783C50.4081 112.58 52.0672 115.358 51.247 116.234Z" fill="#EBAA01"/>
<path d="M27.5156 12.884C27.963 4.71746 38.1975 -1.80833 47.5558 0.44773C41.9446 6.56333 36.6129 12.4738 27.5156 12.884Z" fill="#EBAA01"/>
<path d="M15.7524 85.9912C9.89884 78.1976 10.3835 69.4903 16.7218 64.2883C20.6553 71.6345 17.4675 78.4586 15.7524 85.9912Z" fill="#EBAA01"/>
<path d="M10.1601 70.87C6.61807 61.8271 9.43302 53.4182 16.8526 50.1553C18.6422 58.3218 13.758 64.1205 10.1601 70.87Z" fill="#EBAA01"/>
<path d="M11.8567 38.4276C12.7329 29.5712 20.3575 22.9708 27.6279 24.5557C26.528 29.7017 20.9167 34.68 11.8567 38.4276Z" fill="#EBAA01"/>
<path d="M8.9481 54.5556C7.6618 45.1958 13.1985 36.8614 20.7299 36.7495C20.0774 44.8601 14.1306 49.2231 8.9481 54.5556Z" fill="#EBAA01"/>
<path d="M38.1973 14.5806C33.4622 21.4234 26.0427 22.1692 19.0706 24.1642C20.3382 17.452 31.0574 10.6279 38.1973 14.5806Z" fill="#EBAA01"/>
<path d="M20.4687 78.0859C25.9121 84.127 24.8495 91.4731 25.0546 98.7447C17.4486 94.3631 15.3607 82.6167 20.4687 78.0859Z" fill="#EBAA01"/>
<path d="M22.8179 99.919C15.212 99.9563 7.77382 93.2441 6.07739 84.7979C14.3731 86.7183 18.7913 93.039 22.8179 99.919Z" fill="#EBAA01"/>
<path d="M37.5635 109.465C28.8017 105.83 25.0174 98.6513 27.2358 90.0559C34.3384 94.624 35.1959 102.026 37.5635 109.465Z" fill="#EBAA01"/>
<path d="M50.576 117.8C45.0394 122.61 32.6424 118.807 28.6157 113.25C36.7809 110.603 43.6785 114.276 50.576 117.8Z" fill="#EBAA01"/>
<path d="M5.72284 30.8953C10.1969 38.372 8.81741 45.8859 6.84136 53.4186C1.41652 49.2421 0.894548 39.6025 5.72284 30.8953Z" fill="#EBAA01"/>
<path d="M14.988 15.3081C17.5047 23.5492 13.7017 30.3734 10.1411 37.0856C5.83481 32.0887 8.29556 20.6033 14.988 15.3081Z" fill="#EBAA01"/>
<path d="M8.03479 70.3854C1.32365 66.7682 -1.84549 56.9609 1.09995 48.8689C7.60602 54.7235 7.38231 62.7036 8.03479 70.3854Z" fill="#EBAA01"/>
<path d="M17.4674 22.4484C14.7829 16.1091 20.6924 5.40679 28.4475 2.27441C26.807 7.51369 27.068 13.014 22.3702 16.7617C20.506 18.2533 19.2011 20.4161 17.4674 22.4671V22.4484Z" fill="#EBAA01"/>
<path d="M1.11845 67.1038C8.76168 71.1684 11.1106 78.4959 13.3103 85.7862C6.76698 85.32 0.577827 75.9975 1.11845 67.1038Z" fill="#EBAA01"/>
<path d="M35.6433 110.771C28 112.728 19.8721 108.533 14.9692 99.8074C19.2755 101.019 23.3395 101.523 26.7137 103.294C29.9947 105.028 32.5487 108.104 35.6619 110.771H35.6433Z" fill="#EBAA01"/>
<path d="M166.753 116.234C168.207 117.763 176.447 112.561 179.094 108.086C179.094 108.086 180.566 105.625 180.883 102.157C180.921 101.84 180.883 101.504 180.827 101.187C180.79 100.982 180.678 100.796 180.492 100.311C180.119 100.442 179.709 100.516 179.336 100.628C179.336 100.628 178.795 100.814 178.273 101.094C172.755 103.965 169.269 109.783 169.269 109.783C167.592 112.58 165.932 115.358 166.753 116.234Z" fill="#EBAA01"/>
<path d="M190.485 12.884C190.037 4.71746 179.803 -1.80833 170.444 0.44773C176.056 6.56333 181.387 12.4738 190.485 12.884Z" fill="#EBAA01"/>
<path d="M202.247 85.9912C208.101 78.1976 207.616 69.4903 201.278 64.2883C197.345 71.6345 200.532 78.4586 202.247 85.9912Z" fill="#EBAA01"/>
<path d="M207.84 70.87C211.382 61.8271 208.567 53.4182 201.147 50.1553C199.358 58.3218 204.242 64.1205 207.84 70.87Z" fill="#EBAA01"/>
<path d="M206.144 38.4276C205.268 29.5712 197.643 22.9708 190.373 24.5557C191.472 29.7017 197.084 34.68 206.144 38.4276Z" fill="#EBAA01"/>
<path d="M209.051 54.5556C210.337 45.1958 204.801 36.8614 197.269 36.7495C197.922 44.8601 203.869 49.2231 209.051 54.5556Z" fill="#EBAA01"/>
<path d="M179.802 14.5806C184.537 21.4234 191.957 22.1692 198.929 24.1642C197.661 17.452 186.942 10.6279 179.802 14.5806Z" fill="#EBAA01"/>
<path d="M197.531 78.0859C192.087 84.127 193.15 91.4731 192.945 98.7447C200.551 94.3631 202.638 82.6167 197.531 78.0859Z" fill="#EBAA01"/>
<path d="M195.182 99.919C202.788 99.9563 210.226 93.2441 211.923 84.7979C203.627 86.7183 199.209 93.039 195.182 99.919Z" fill="#EBAA01"/>
<path d="M180.436 109.465C189.198 105.83 192.982 98.6513 190.764 90.0559C183.661 94.624 182.804 102.026 180.436 109.465Z" fill="#EBAA01"/>
<path d="M167.424 117.8C172.961 122.61 185.357 118.807 189.384 113.25C181.219 110.603 174.321 114.276 167.424 117.8Z" fill="#EBAA01"/>
<path d="M212.276 30.8953C207.802 38.372 209.182 45.8859 211.158 53.4186C216.583 49.2421 217.105 39.6025 212.276 30.8953Z" fill="#EBAA01"/>
<path d="M203.011 15.3081C200.495 23.5492 204.298 30.3734 207.858 37.0856C212.164 32.0887 209.704 20.6033 203.011 15.3081Z" fill="#EBAA01"/>
<path d="M209.965 70.3854C216.676 66.7682 219.845 56.9609 216.9 48.8689C210.394 54.7235 210.617 62.7036 209.965 70.3854Z" fill="#EBAA01"/>
<path d="M200.532 22.4484C203.217 16.1091 197.307 5.40679 189.552 2.27441C191.193 7.51369 190.932 13.014 195.63 16.7617C197.494 18.2533 198.799 20.4161 200.532 22.4671V22.4484Z" fill="#EBAA01"/>
<path d="M216.88 67.1038C209.237 71.1684 206.888 78.4959 204.688 85.7862C211.232 85.32 217.421 75.9975 216.88 67.1038Z" fill="#EBAA01"/>
<path d="M182.374 110.771C190.017 112.728 198.145 108.533 203.048 99.8074C198.742 101.019 194.678 101.523 191.304 103.294C188.023 105.028 185.469 108.104 182.355 110.771H182.374Z" fill="#EBAA01"/>
<path d="M49.0657 77.1722V65.0529H55.7582V77.0044C55.7582 80.4165 57.2122 81.8149 60.1763 81.8149C63.1404 81.8149 64.6318 80.3979 64.6318 77.0044V65.0529H71.3243V77.1722C71.3243 83.7167 67.8196 87.5576 60.195 87.5576C52.5704 87.5576 49.103 83.7167 49.103 77.1722H49.0657ZM74.7358 87.1474V65.0529H84.9702C90.7493 65.0529 95.1674 67.5141 95.1674 72.3805C95.1674 75.2891 93.3592 77.6943 90.5069 78.496C91.7373 79.2232 92.5389 80.4911 93.6201 82.4861L96.1182 87.1287H88.8478L86.5735 82.9709C85.7346 81.4606 84.8025 80.9013 82.64 80.9013H81.4096L81.3723 87.1287H74.7544L74.7358 87.1474ZM81.4283 70.6092L81.391 75.5501H84.9702C86.9277 75.5501 88.2885 74.5619 88.2885 72.9957C88.2885 71.3177 86.909 70.6092 85.0262 70.6092H81.4096H81.4283ZM98.6349 87.1474V65.0529H108.869C115.021 65.0529 118.712 67.5141 118.712 71.299C118.712 73.6856 117.333 75.3264 115.208 76.1841C117.37 76.8366 118.899 78.2164 118.899 80.9013C118.899 85.0218 114.853 87.1474 108.888 87.1474H98.6535H98.6349ZM105.327 73.7975H109.224C111.106 73.7975 112.001 73.0703 112.001 71.8024C112.001 70.6837 111.125 69.9752 109.224 69.9752H105.327V73.8161V73.7975ZM105.327 82.2437H109.224C111.106 82.2437 112.188 81.7589 112.188 80.4724C112.188 79.0927 111.106 78.7011 109.224 78.7011H105.327V82.2437ZM125.703 68.5582C126.598 65.836 129.133 64.5681 131.669 64.5681C134.204 64.5681 136.721 65.836 137.634 68.5582L143.916 87.166H137.075L135.956 83.437H127.381L126.225 87.166H119.383L125.666 68.5582H125.703ZM129.077 78.0113H134.316L132.004 70.3108C131.93 70.0871 131.855 69.9752 131.706 69.9752C131.557 69.9752 131.482 70.0685 131.426 70.3108L129.077 78.0113ZM145.37 87.1474V68.2785C145.37 65.9292 147.402 64.5122 149.528 64.5122C151.224 64.5122 152.715 65.0343 153.573 66.2835L162.186 78.6266V65.0343H168.505V83.9031C168.505 86.2524 166.473 87.6322 164.348 87.6322C162.689 87.6322 161.16 87.1101 160.303 85.8609L151.69 73.5178V87.1474H145.37Z" fill="#EBAA01"/>
<path d="M58.666 103.481V94.7919C58.666 93.5613 59.3185 92.7969 60.9217 92.7969H67.1295V94.9411H61.22V97.7378H66.738V99.8634H61.22V103.481H58.666ZM70.2241 94.3072C70.6342 93.1512 71.6782 92.5918 72.778 92.5918C73.8779 92.5918 74.9592 93.1512 75.3506 94.3072L78.4825 103.481H75.8726L75.1829 101.299H70.3919L69.7021 103.481H67.0922L70.2241 94.3072ZM71.063 99.2295H74.5118L73.1695 94.997C73.095 94.7733 73.0017 94.68 72.778 94.68C72.5916 94.68 72.4611 94.7733 72.3866 94.997L71.0443 99.2295H71.063ZM78.874 103.481L80.4772 94.2885C80.6823 93.1698 81.5398 92.5918 82.7329 92.5918C83.7768 92.5918 84.6903 93.002 84.9699 94.0275L86.946 100.702V100.758C86.946 100.758 86.9833 100.758 86.9833 100.702L88.922 94.0834C89.2203 93.0579 90.1338 92.5918 91.1964 92.5918C92.3708 92.5918 93.2097 93.1884 93.3961 94.3444L94.8502 103.481H92.259L91.1218 95.0902C91.1218 95.0902 91.1218 94.9597 91.0286 94.9597C90.9727 94.9597 90.9354 94.997 90.9167 95.053L88.717 102.138C88.4746 102.94 87.7662 103.35 86.9273 103.35C86.0885 103.35 85.3614 102.977 85.1564 102.194L82.9566 95.0716C82.9566 95.0716 82.9007 94.9784 82.8634 94.9784C82.8075 94.9784 82.7515 95.0157 82.7515 95.0902L81.4093 103.481H78.8181H78.874ZM98.4854 103.481C96.8449 103.481 96.2297 102.716 96.2297 101.504V94.8106C96.2297 93.58 96.8636 92.8155 98.4854 92.8155H104.73V94.9038H98.7837V97.1226H104.358V99.2108H98.7837V101.43H104.842V103.518H98.4854V103.481ZM109.577 98.148C109.577 95.053 112.262 92.5918 115.711 92.5918C117.761 92.5918 119.737 93.58 120.613 95.2394L118.526 96.3022C117.948 95.3886 117.034 94.7919 115.617 94.7919C113.66 94.7919 112.225 96.2089 112.225 98.148C112.225 100.087 113.623 101.504 115.617 101.504C117.034 101.504 117.985 100.926 118.526 99.9939L120.613 101.057C119.737 102.716 117.761 103.704 115.711 103.704C112.262 103.704 109.577 101.243 109.577 98.148ZM124.1 101.336H129.618V103.481H123.801C122.161 103.481 121.546 102.716 121.546 101.504V92.7969H124.1V101.336ZM132.582 94.3072C132.992 93.1512 134.036 92.5918 135.136 92.5918C136.236 92.5918 137.317 93.1512 137.708 94.3072L140.84 103.481H138.23L137.54 101.299H132.749L132.06 103.481H129.45L132.582 94.3072ZM133.421 99.2295H136.869L135.527 94.997C135.453 94.7733 135.359 94.68 135.136 94.68C134.949 94.68 134.819 94.7733 134.744 94.997L133.402 99.2295H133.421ZM141.194 101.355L143.338 100.385C143.73 101.169 144.55 101.56 145.78 101.56C146.88 101.56 147.719 101.15 147.719 100.385C147.719 99.4905 146.787 99.36 145.557 99.1549C143.786 98.8938 141.381 98.3158 141.381 95.892C141.381 94.0275 143.245 92.5918 145.687 92.5918C147.644 92.5918 149.322 93.3935 150.068 94.9224L147.924 95.892C147.533 95.2021 146.768 94.736 145.575 94.736C144.606 94.736 143.935 95.1462 143.935 95.7988C143.935 96.6564 144.923 96.8802 146.19 97.0853C147.943 97.3649 150.254 97.9243 150.254 100.348C150.254 102.269 148.26 103.667 145.743 103.667C143.618 103.667 141.921 102.865 141.157 101.336L141.194 101.355ZM150.981 101.355L153.125 100.385C153.517 101.169 154.337 101.56 155.567 101.56C156.667 101.56 157.525 101.15 157.525 100.385C157.525 99.4905 156.593 99.36 155.362 99.1549C153.591 98.8938 151.186 98.3158 151.186 95.892C151.186 94.0275 153.051 92.5918 155.493 92.5918C157.432 92.5918 159.128 93.3935 159.874 94.9224L157.73 95.892C157.338 95.2021 156.574 94.736 155.381 94.736C154.412 94.736 153.74 95.1462 153.74 95.7988C153.74 96.6564 154.728 96.8802 155.996 97.0853C157.748 97.3649 160.06 97.9243 160.06 100.348C160.06 102.269 158.065 103.667 155.549 103.667C153.423 103.667 151.727 102.865 150.963 101.336L150.981 101.355Z" fill="#EBAA01"/>
<path d="M61.9847 113.028L62.5999 112.767C62.7863 113.14 63.1778 113.345 63.7371 113.345C64.2963 113.345 64.7064 113.102 64.7064 112.692C64.7064 112.226 64.2218 112.133 63.6625 112.039C62.9541 111.909 62.0779 111.704 62.0779 110.79C62.0779 110.081 62.7863 109.54 63.6811 109.54C64.4082 109.54 65.042 109.839 65.3216 110.436L64.7251 110.715C64.5387 110.361 64.1658 110.137 63.6438 110.137C63.1592 110.137 62.7677 110.398 62.7677 110.753C62.7677 111.219 63.271 111.312 63.8489 111.424C64.5573 111.554 65.4148 111.76 65.4148 112.673C65.4148 113.438 64.6692 113.96 63.7184 113.96C62.9168 113.96 62.2457 113.643 61.9661 113.046L61.9847 113.028ZM66.1046 113.867V109.298H66.7944V111.088C67.0553 110.827 67.4841 110.659 67.9502 110.659C68.9568 110.659 69.5347 111.275 69.5347 112.226V113.867H68.845V112.3C68.845 111.741 68.5094 111.256 67.8569 111.256C67.2418 111.256 66.813 111.704 66.813 112.319V113.867H66.1232H66.1046ZM69.9635 112.282C69.9635 111.387 70.6719 110.641 71.7158 110.641C72.7598 110.641 73.4123 111.331 73.4123 112.207V112.468H70.6533C70.7278 113.009 71.1752 113.382 71.8091 113.382C72.2378 113.382 72.6107 113.214 72.8157 112.878L73.3563 113.121C73.0581 113.662 72.4988 113.941 71.8091 113.941C70.7651 113.941 69.9821 113.251 69.9821 112.282H69.9635ZM72.7039 112.058C72.6666 111.554 72.2751 111.219 71.6972 111.219C71.1193 111.219 70.7278 111.592 70.6533 112.058H72.6852H72.7039ZM74.7359 109.298V113.867H74.0461V109.298H74.7359ZM76.3577 109.298V113.867H75.6493V109.298H76.3577ZM79.6014 113.867C79.1167 113.867 78.9303 113.643 78.9303 113.27V110.156C78.9303 109.783 79.0981 109.559 79.6014 109.559H82.1927V110.156H79.6574V111.405H82.0622V112.002H79.6574V113.251H82.2486V113.848H79.6014V113.867ZM82.5655 112.3C82.5655 111.405 83.3858 110.659 84.3738 110.659C85.0076 110.659 85.5855 110.92 85.9211 111.48L85.3432 111.778C85.1381 111.443 84.8026 111.256 84.3924 111.256C83.7772 111.256 83.2926 111.722 83.2926 112.3C83.2926 112.878 83.7959 113.345 84.3924 113.345C84.8026 113.345 85.1381 113.158 85.3432 112.823L85.9211 113.102C85.6042 113.68 85.0263 113.923 84.3738 113.923C83.3858 113.923 82.5655 113.196 82.5655 112.282V112.3ZM86.0516 112.3C86.0516 111.405 86.8718 110.659 87.8971 110.659C88.9224 110.659 89.7241 111.405 89.7241 112.3C89.7241 113.196 88.9224 113.96 87.8971 113.96C86.8718 113.96 86.0516 113.214 86.0516 112.3ZM89.0343 112.3C89.0343 111.722 88.531 111.256 87.8971 111.256C87.2633 111.256 86.7413 111.722 86.7413 112.3C86.7413 112.878 87.2447 113.345 87.8971 113.345C88.5496 113.345 89.0343 112.878 89.0343 112.3ZM92.8746 112.189H90.4324V111.61H92.8746V112.189ZM99.6975 112.226V113.886H99.0078V112.338C99.0078 111.76 98.6909 111.275 98.057 111.275C97.4232 111.275 97.1063 111.76 97.1063 112.338V113.904H96.3979V112.338C96.3979 111.76 96.081 111.275 95.4472 111.275C94.8133 111.275 94.5151 111.778 94.5151 112.338V113.886H93.8067V112.244C93.8067 111.368 94.3659 110.659 95.3912 110.659C96.081 110.659 96.5843 110.976 96.7521 111.461C96.9385 110.976 97.4232 110.659 98.0757 110.659C99.1196 110.659 99.6789 111.368 99.6789 112.226H99.6975ZM100.126 112.3C100.126 111.405 100.909 110.659 101.972 110.659C103.034 110.659 103.817 111.368 103.817 112.3V113.867H103.146V113.307C102.885 113.699 102.419 113.941 101.86 113.941C100.853 113.941 100.126 113.196 100.126 112.282V112.3ZM103.109 112.3C103.109 111.722 102.606 111.256 101.972 111.256C101.338 111.256 100.835 111.722 100.835 112.3C100.835 112.878 101.338 113.345 101.972 113.345C102.606 113.345 103.109 112.878 103.109 112.3ZM104.47 113.867V112.002C104.47 111.237 104.955 110.678 105.849 110.678C106.073 110.678 106.297 110.715 106.465 110.79V111.424C106.297 111.331 106.092 111.293 105.905 111.293C105.439 111.293 105.16 111.573 105.16 112.039V113.886H104.47V113.867ZM106.409 112.3C106.409 111.405 107.192 110.659 108.254 110.659C109.317 110.659 110.1 111.368 110.1 112.3V113.867H109.429V113.307C109.168 113.699 108.702 113.941 108.142 113.941C107.136 113.941 106.409 113.196 106.409 112.282V112.3ZM109.391 112.3C109.391 111.722 108.907 111.256 108.254 111.256C107.602 111.256 107.117 111.722 107.117 112.3C107.117 112.878 107.62 113.345 108.254 113.345C108.888 113.345 109.391 112.878 109.391 112.3ZM110.995 112.748V111.293H110.305V110.753H110.995V109.932H111.684V110.753H113.008V111.293H111.684V112.729C111.684 113.14 111.945 113.382 112.374 113.382C112.598 113.382 112.84 113.307 113.008 113.196V113.774C112.84 113.886 112.561 113.96 112.3 113.96C111.442 113.96 110.976 113.475 110.976 112.748H110.995ZM113.698 113.867V109.298H114.406V111.088C114.667 110.827 115.096 110.659 115.562 110.659C116.569 110.659 117.146 111.275 117.146 112.226V113.867H116.438V112.3C116.438 111.741 116.103 111.256 115.45 111.256C114.835 111.256 114.406 111.704 114.406 112.319V113.867H113.698ZM117.557 112.3C117.557 111.405 118.377 110.659 119.402 110.659C120.427 110.659 121.229 111.405 121.229 112.3C121.229 113.196 120.427 113.96 119.402 113.96C118.377 113.96 117.557 113.214 117.557 112.3ZM120.558 112.3C120.558 111.722 120.055 111.256 119.421 111.256C118.787 111.256 118.265 111.722 118.265 112.3C118.265 112.878 118.768 113.345 119.421 113.345C120.073 113.345 120.558 112.878 120.558 112.3ZM122.385 112.356V113.867H121.676V112.282C121.676 111.368 122.273 110.641 123.392 110.641C124.51 110.641 125.125 111.349 125.125 112.263V113.848H124.436V112.338C124.436 111.741 124.081 111.237 123.392 111.237C122.702 111.237 122.385 111.741 122.385 112.319V112.356ZM128.481 110.1C128.63 109.69 128.966 109.503 129.357 109.503C129.749 109.503 130.103 109.69 130.252 110.1L131.538 113.867H130.811L130.457 112.823H128.257L127.903 113.867H127.176L128.462 110.1H128.481ZM128.462 112.226H130.27L129.637 110.286C129.581 110.156 129.506 110.081 129.376 110.081C129.227 110.081 129.152 110.137 129.115 110.286L128.481 112.226H128.462ZM131.78 113.251L132.321 112.99C132.489 113.307 132.787 113.419 133.16 113.419C133.533 113.419 133.868 113.27 133.868 112.99C133.868 112.338 131.892 112.823 131.892 111.629C131.892 111.07 132.433 110.678 133.179 110.678C133.812 110.678 134.26 110.939 134.484 111.312L133.943 111.592C133.794 111.312 133.514 111.219 133.197 111.219C132.88 111.219 132.582 111.368 132.582 111.629C132.582 112.263 134.558 111.797 134.558 112.99C134.558 113.587 133.924 113.96 133.197 113.96C132.563 113.96 132.06 113.736 131.799 113.27L131.78 113.251ZM135.08 109.69C135.08 109.466 135.285 109.261 135.546 109.261C135.807 109.261 135.994 109.447 135.994 109.69C135.994 109.932 135.789 110.1 135.546 110.1C135.304 110.1 135.08 109.913 135.08 109.69ZM135.882 110.734V113.867H135.173V110.734H135.882ZM136.46 112.3C136.46 111.405 137.243 110.659 138.305 110.659C139.368 110.659 140.151 111.368 140.151 112.3V113.867H139.48V113.307C139.219 113.699 138.753 113.941 138.193 113.941C137.187 113.941 136.46 113.196 136.46 112.282V112.3ZM139.442 112.3C139.442 111.722 138.958 111.256 138.305 111.256C137.653 111.256 137.168 111.722 137.168 112.3C137.168 112.878 137.671 113.345 138.305 113.345C138.939 113.345 139.442 112.878 139.442 112.3ZM143.022 113.867C142.593 113.867 142.369 113.643 142.369 113.363C142.369 113.158 142.462 112.99 142.667 112.823L144.066 111.685C144.457 111.368 144.662 111.126 144.662 110.771C144.662 110.38 144.308 110.119 143.842 110.119C143.376 110.119 143.003 110.38 142.779 110.771L142.22 110.492C142.537 109.913 143.115 109.503 143.879 109.503C144.755 109.503 145.371 110.044 145.371 110.734C145.371 111.256 145.11 111.648 144.681 112.002L143.283 113.121C143.283 113.121 143.189 113.196 143.189 113.233C143.189 113.251 143.189 113.27 143.227 113.27H145.501V113.867H143.003H143.022ZM145.893 111.722C145.893 110.473 146.657 109.503 147.794 109.503C148.931 109.503 149.695 110.454 149.695 111.722C149.695 112.99 148.931 113.96 147.794 113.96C146.657 113.96 145.893 112.972 145.893 111.722ZM148.95 111.722C148.95 110.846 148.465 110.175 147.794 110.175C147.123 110.175 146.638 110.846 146.638 111.722C146.638 112.599 147.142 113.289 147.794 113.289C148.446 113.289 148.95 112.599 148.95 111.722ZM151.336 113.867V110.324C151.336 110.324 151.336 110.286 151.299 110.286C151.261 110.286 151.243 110.305 151.205 110.324L150.124 110.883L149.807 110.268L151.019 109.652C151.205 109.559 151.392 109.485 151.578 109.485C151.877 109.485 152.063 109.671 152.063 109.988V113.848H151.336V113.867ZM153.554 113.867C153.126 113.867 152.902 113.643 152.902 113.363C152.902 113.158 152.995 112.99 153.2 112.823L154.598 111.685C154.99 111.368 155.195 111.126 155.195 110.771C155.195 110.38 154.841 110.119 154.375 110.119C153.909 110.119 153.536 110.38 153.312 110.771L152.753 110.492C153.07 109.913 153.648 109.503 154.412 109.503C155.288 109.503 155.903 110.044 155.903 110.734C155.903 111.256 155.642 111.648 155.214 112.002L153.815 113.121C153.815 113.121 153.722 113.196 153.722 113.233C153.722 113.251 153.722 113.27 153.759 113.27H156.034V113.867H153.536H153.554Z" fill="#EBAA01"/>
</g>
<defs>
<clipPath id="clip0_351_7660">
<rect width="218" height="120" fill="white"/>
</clipPath>
</defs>
</svg>
