<svg width="218" height="120" viewBox="0 0 218 120" fill="none" xmlns="http://www.w3.org/2000/svg">
<g clip-path="url(#clip0_351_8166)">
<path d="M51.2472 116.234C49.7932 117.763 41.5534 112.561 38.9062 108.086C38.9062 108.086 37.4335 105.625 37.1166 102.157C37.0793 101.84 37.1166 101.504 37.1725 101.187C37.2098 100.982 37.3216 100.796 37.5081 100.311C37.8809 100.441 38.291 100.516 38.6639 100.628C38.6639 100.628 39.2045 100.814 39.7265 101.094C45.2445 103.965 48.7306 109.783 48.7306 109.783C50.4083 112.579 52.0675 115.357 51.2472 116.234Z" fill="#966034"/>
<path d="M27.5154 12.8838C27.9628 4.71722 38.1973 -1.80857 47.5556 0.447486C41.9443 6.56309 36.6127 12.4736 27.5154 12.8838Z" fill="#966034"/>
<path d="M15.7522 85.9912C9.89859 78.1976 10.3833 69.4903 16.7216 64.2883C20.6551 71.6345 17.4673 78.4586 15.7522 85.9912Z" fill="#966034"/>
<path d="M10.1596 70.8702C6.61759 61.8274 9.43253 53.4184 16.8521 50.1555C18.6417 58.3221 13.7575 64.1207 10.1596 70.8702Z" fill="#966034"/>
<path d="M11.8562 38.4279C12.7324 29.5714 20.357 22.9711 27.6274 24.5559C26.5275 29.7019 20.9162 34.6802 11.8562 38.4279Z" fill="#966034"/>
<path d="M8.94859 54.5556C7.66229 45.1958 13.199 36.8614 20.7304 36.7495C20.0779 44.8601 14.1311 49.2231 8.94859 54.5556Z" fill="#966034"/>
<path d="M38.1973 14.5806C33.4622 21.4234 26.0427 22.1692 19.0706 24.1642C20.3382 17.452 31.0574 10.6279 38.1973 14.5806Z" fill="#966034"/>
<path d="M20.4687 78.0857C25.9121 84.1267 24.8495 91.4729 25.0546 98.7445C17.4486 94.3629 15.3607 82.6165 20.4687 78.0857Z" fill="#966034"/>
<path d="M22.8177 99.9193C15.2117 99.9566 7.77357 93.2443 6.07715 84.7981C14.3729 86.7185 18.791 93.0392 22.8177 99.9193Z" fill="#966034"/>
<path d="M37.5637 109.465C28.8019 105.829 25.0176 98.6511 27.236 90.0557C34.3386 94.6237 35.1962 102.026 37.5637 109.465Z" fill="#966034"/>
<path d="M50.5758 117.8C45.0391 122.61 32.6422 118.807 28.6155 113.25C36.7807 110.603 43.6782 114.276 50.5758 117.8Z" fill="#966034"/>
<path d="M5.72308 30.895C10.1972 38.3717 8.81766 45.8857 6.8416 53.4183C1.41677 49.2418 0.894792 39.6023 5.72308 30.895Z" fill="#966034"/>
<path d="M14.988 15.3074C17.5047 23.5485 13.7017 30.3726 10.1411 37.0849C5.83481 32.088 8.29556 20.6026 14.988 15.3074Z" fill="#966034"/>
<path d="M8.03454 70.3851C1.32341 66.768 -1.84574 56.9606 1.0997 48.8687C7.60577 54.7232 7.38207 62.7033 8.03454 70.3851Z" fill="#966034"/>
<path d="M17.4674 22.4487C14.7829 16.1093 20.6924 5.40704 28.4475 2.27466C26.807 7.51394 27.068 13.0142 22.3702 16.7619C20.506 18.2535 19.2011 20.4164 17.4674 22.4673V22.4487Z" fill="#966034"/>
<path d="M1.11893 67.1035C8.76217 71.1682 11.1111 78.4957 13.3108 85.7859C6.76747 85.3198 0.578316 75.9972 1.11893 67.1035Z" fill="#966034"/>
<path d="M35.6435 110.77C28.0003 112.728 19.8723 108.533 14.9695 99.8071C19.2758 101.019 23.3398 101.522 26.714 103.294C29.995 105.028 32.5489 108.104 35.6621 110.77H35.6435Z" fill="#966034"/>
<path d="M166.753 116.234C168.207 117.763 176.447 112.561 179.094 108.086C179.094 108.086 180.567 105.625 180.884 102.157C180.921 101.84 180.884 101.504 180.828 101.187C180.79 100.982 180.679 100.796 180.492 100.311C180.119 100.441 179.709 100.516 179.336 100.628C179.336 100.628 178.796 100.814 178.274 101.094C172.756 103.965 169.27 109.783 169.27 109.783C167.592 112.579 165.933 115.357 166.753 116.234Z" fill="#966034"/>
<path d="M190.484 12.8838C190.037 4.71722 179.802 -1.80857 170.444 0.447486C176.055 6.56309 181.387 12.4736 190.484 12.8838Z" fill="#966034"/>
<path d="M202.247 85.9912C208.101 78.1976 207.616 69.4903 201.278 64.2883C197.345 71.6345 200.532 78.4586 202.247 85.9912Z" fill="#966034"/>
<path d="M207.84 70.8702C211.382 61.8274 208.567 53.4184 201.148 50.1555C199.358 58.3221 204.242 64.1207 207.84 70.8702Z" fill="#966034"/>
<path d="M206.143 38.4279C205.267 29.5714 197.643 22.9711 190.372 24.5559C191.472 29.7019 197.083 34.6802 206.143 38.4279Z" fill="#966034"/>
<path d="M209.052 54.5556C210.338 45.1958 204.801 36.8614 197.27 36.7495C197.922 44.8601 203.869 49.2231 209.052 54.5556Z" fill="#966034"/>
<path d="M179.802 14.5806C184.538 21.4234 191.957 22.1692 198.929 24.1642C197.662 17.452 186.942 10.6279 179.802 14.5806Z" fill="#966034"/>
<path d="M197.531 78.0857C192.088 84.1267 193.15 91.4729 192.945 98.7445C200.551 94.3629 202.639 82.6165 197.531 78.0857Z" fill="#966034"/>
<path d="M195.182 99.9193C202.788 99.9566 210.226 93.2443 211.923 84.7981C203.627 86.7185 199.209 93.0392 195.182 99.9193Z" fill="#966034"/>
<path d="M180.437 109.465C189.199 105.829 192.983 98.6511 190.764 90.0557C183.662 94.6237 182.804 102.026 180.437 109.465Z" fill="#966034"/>
<path d="M167.424 117.8C172.961 122.61 185.358 118.807 189.385 113.25C181.219 110.603 174.322 114.276 167.424 117.8Z" fill="#966034"/>
<path d="M212.277 30.895C207.803 38.3717 209.183 45.8857 211.159 53.4183C216.583 49.2418 217.105 39.6023 212.277 30.895Z" fill="#966034"/>
<path d="M203.012 15.3074C200.495 23.5485 204.298 30.3726 207.859 37.0849C212.165 32.088 209.704 20.6026 203.012 15.3074Z" fill="#966034"/>
<path d="M209.965 70.3851C216.676 66.768 219.845 56.9606 216.9 48.8687C210.394 54.7232 210.618 62.7033 209.965 70.3851Z" fill="#966034"/>
<path d="M200.532 22.4487C203.216 16.1093 197.307 5.40704 189.552 2.27466C191.192 7.51394 190.931 13.0142 195.629 16.7619C197.493 18.2535 198.798 20.4164 200.532 22.4673V22.4487Z" fill="#966034"/>
<path d="M216.882 67.1035C209.239 71.1682 206.89 78.4957 204.69 85.7859C211.233 85.3198 217.422 75.9972 216.882 67.1035Z" fill="#966034"/>
<path d="M182.375 110.77C190.019 112.728 198.146 108.533 203.049 99.8071C198.743 101.019 194.679 101.522 191.305 103.294C188.024 105.028 185.47 108.104 182.357 110.77H182.375Z" fill="#966034"/>
<path d="M49.4572 70.8704H44.0696V83.7355H38.8685V70.8704H33.481V66.5447H49.4572V70.8704ZM54.9379 83.7542C51.7315 83.7542 50.4266 82.2253 50.4266 79.8014V70.4975C50.4266 68.0736 51.7129 66.5447 54.9379 66.5447H64.6877V70.7585H55.6463V73.0519H64.0353V77.2657H55.6463V79.559H64.8182V83.7728H54.9379V83.7542ZM65.6758 75.1588C65.6758 70.1432 70.0194 66.1905 75.7052 66.1905C79.0794 66.1905 82.4163 67.8312 83.7958 70.6466L79.5454 72.7908C78.7625 71.523 77.6812 70.6466 75.4815 70.6466C72.797 70.6466 71.026 72.4739 71.026 75.1588C71.026 77.8437 72.7411 79.6709 75.4815 79.6709C77.6812 79.6709 78.837 78.8132 79.5454 77.5267L83.7958 79.6709C82.4163 82.5049 79.098 84.1271 75.7052 84.1271C70.0194 84.1271 65.6758 80.1743 65.6758 75.1588ZM84.7466 83.7542V66.5447H89.9477V73.0146H97.4045V66.5447H102.606V83.7542H97.4045V77.3589H89.9477V83.7542H84.7466ZM105.588 83.7542V69.0618C105.588 67.2346 107.173 66.1345 108.832 66.1345C110.156 66.1345 111.311 66.5447 111.983 67.5143L118.694 77.1165V66.5447H123.615V81.2371C123.615 83.0643 122.031 84.1457 120.372 84.1457C119.085 84.1457 117.892 83.7355 117.221 82.766L110.51 73.1637V83.7728H105.588V83.7542ZM131.762 66.5447V83.7542H126.561V66.5447H131.762ZM133.458 75.1588C133.458 70.1432 137.802 66.1905 143.488 66.1905C146.862 66.1905 150.199 67.8312 151.578 70.6466L147.328 72.7908C146.545 71.523 145.464 70.6466 143.264 70.6466C140.579 70.6466 138.808 72.4739 138.808 75.1588C138.808 77.8437 140.524 79.6709 143.264 79.6709C145.464 79.6709 146.619 78.8132 147.328 77.5267L151.578 79.6709C150.199 82.5049 146.88 84.1271 143.488 84.1271C137.802 84.1271 133.458 80.1743 133.458 75.1588ZM155.605 69.2669C156.313 67.16 158.289 66.1532 160.247 66.1532C162.204 66.1532 164.18 67.1414 164.889 69.2669L169.792 83.7542H164.46L163.584 80.8455H156.91L156.015 83.7542H150.683L155.586 69.2669H155.605ZM158.215 76.6317H162.297L160.489 70.6466C160.433 70.4602 160.377 70.3856 160.265 70.3856C160.154 70.3856 160.098 70.4602 160.042 70.6466L158.215 76.6317ZM176.26 79.4098H184.649V83.7355H175.552C172.346 83.7355 171.041 82.2066 171.041 79.7827V66.5261H176.242V79.3912L176.26 79.4098Z" fill="#966034"/>
<path d="M59.8967 88.676V100.199H57.1377V88.676H59.8967ZM62.1897 100.199V90.2422C62.1897 89.0862 63.1218 88.4336 64.1657 88.4336C65.0046 88.4336 65.6571 88.7133 66.0672 89.3472L71.1006 97.1595V88.676H73.7105V98.6325C73.7105 99.7885 72.7784 100.422 71.7717 100.422C70.9514 100.422 70.2617 100.161 69.8329 99.5274L64.7996 91.6592V100.18H62.171L62.1897 100.199ZM75.2018 97.9053L77.5134 96.8612C77.9236 97.7002 78.8184 98.1291 80.142 98.1291C81.3351 98.1291 82.2485 97.6816 82.2485 96.8612C82.2485 95.9103 81.2419 95.7425 79.9183 95.5374C78.0168 95.2391 75.4069 94.6238 75.4069 92.0321C75.4069 90.0184 77.4202 88.4709 80.0488 88.4709C82.1553 88.4709 83.9636 89.3472 84.7838 90.988L82.4722 92.0321C82.0621 91.2863 81.2232 90.7829 79.9369 90.7829C78.893 90.7829 78.1846 91.2304 78.1846 91.9389C78.1846 92.8711 79.2472 93.0949 80.6267 93.3186C82.5095 93.6169 85.0075 94.2322 85.0075 96.8425C85.0075 98.9121 82.8451 100.422 80.142 100.422C77.849 100.422 76.0221 99.5461 75.2018 97.9053ZM86.6108 100.199V88.676H91.0849C94.7014 88.676 96.9198 90.2049 96.9198 92.8711C96.9198 95.5374 94.7387 97.1595 91.2526 97.1595H89.3884V100.199H86.6294H86.6108ZM89.3698 90.988V94.8475H91.1594C92.9677 94.8475 94.0676 94.2136 94.0676 92.8711C94.0676 91.6033 92.9677 90.988 91.1594 90.988H89.3698ZM100.462 100.199C98.7094 100.199 98.0197 99.3783 98.0197 98.0545V90.8202C98.0197 89.4964 98.7094 88.6573 100.462 88.6573H107.192V90.8947H100.779V93.3H106.8V95.5374H100.779V97.9426H107.303V100.18H100.462V100.199ZM108.03 94.4373C108.03 91.0998 110.92 88.4522 114.63 88.4522C116.848 88.4522 118.955 89.515 119.905 91.3049L117.65 92.4609C117.035 91.4727 116.047 90.8388 114.518 90.8388C112.393 90.8388 110.864 92.3677 110.864 94.456C110.864 96.5442 112.374 98.0731 114.518 98.0731C116.047 98.0731 117.072 97.4392 117.65 96.451L119.905 97.607C118.955 99.3969 116.848 100.46 114.63 100.46C110.92 100.46 108.03 97.8121 108.03 94.4746V94.4373ZM129.748 90.988H126.001V100.199H123.242V90.988H119.495V88.676H129.748V90.988ZM133.551 88.676V100.199H130.792V88.676H133.551ZM134.95 94.4373C134.95 91.0439 137.802 88.4522 141.567 88.4522C145.333 88.4522 148.204 91.0439 148.204 94.4373C148.204 97.8307 145.333 100.422 141.567 100.422C137.802 100.422 134.95 97.8494 134.95 94.4373ZM145.352 94.4373C145.352 92.405 143.711 90.8202 141.567 90.8202C139.424 90.8202 137.783 92.3864 137.783 94.4373C137.783 96.4883 139.442 98.0545 141.567 98.0545C143.693 98.0545 145.352 96.4883 145.352 94.4373ZM149.472 100.199V90.2422C149.472 89.0862 150.404 88.4336 151.448 88.4336C152.287 88.4336 152.939 88.7133 153.349 89.3472L158.383 97.1595V88.676H160.992V98.6325C160.992 99.7885 160.06 100.422 159.072 100.422C158.252 100.422 157.562 100.161 157.134 99.5274L152.1 91.6592V100.18H149.472V100.199Z" fill="#966034"/>
<path d="M58.7968 108.999L59.412 108.738C59.5984 109.111 59.9899 109.316 60.5492 109.316C61.1084 109.316 61.5185 109.074 61.5185 108.664C61.5185 108.198 61.0338 108.105 60.4746 108.011C59.7662 107.881 58.8714 107.676 58.8714 106.762C58.8714 106.054 59.5798 105.513 60.4746 105.513C61.2016 105.513 61.8355 105.811 62.1151 106.408L61.5185 106.687C61.3321 106.333 60.9593 106.109 60.4373 106.109C59.9526 106.109 59.5611 106.371 59.5611 106.725C59.5611 107.191 60.0645 107.284 60.6424 107.396C61.3508 107.527 62.2083 107.732 62.2083 108.645C62.2083 109.41 61.4626 109.932 60.5119 109.932C59.7103 109.932 59.0392 109.615 58.7595 109.018L58.7968 108.999ZM62.9167 109.857V105.289H63.6064V107.079C63.8674 106.818 64.2962 106.65 64.7623 106.65C65.7689 106.65 66.3468 107.265 66.3468 108.216V109.857H65.6571V108.291C65.6571 107.732 65.3215 107.247 64.669 107.247C64.0539 107.247 63.6251 107.694 63.6251 108.31V109.857H62.9353H62.9167ZM66.7756 108.254C66.7756 107.359 67.484 106.613 68.5279 106.613C69.5719 106.613 70.2244 107.303 70.2244 108.179V108.44H67.4654C67.5399 108.981 67.9873 109.354 68.6212 109.354C69.0499 109.354 69.4228 109.186 69.6278 108.85L70.1684 109.093C69.8702 109.633 69.3109 109.913 68.6398 109.913C67.5958 109.913 66.8129 109.223 66.8129 108.254H66.7756ZM69.516 108.03C69.4787 107.527 69.0872 107.191 68.5093 107.191C67.9314 107.191 67.5399 107.564 67.4654 108.03H69.4973H69.516ZM71.548 105.27V109.839H70.8582V105.27H71.548ZM73.1698 105.27V109.839H72.4801V105.27H73.1698ZM76.4135 109.857C75.9288 109.857 75.7424 109.633 75.7424 109.261V106.147C75.7424 105.774 75.9102 105.55 76.4135 105.55H79.0048V106.147H76.4695V107.396H78.8743V107.993H76.4695V109.242H79.0607V109.839H76.4135V109.857ZM79.3776 108.272C79.3776 107.377 80.1979 106.632 81.1859 106.632C81.8197 106.632 82.3976 106.893 82.7145 107.452L82.1366 107.75C81.9316 107.415 81.5774 107.228 81.1859 107.228C80.5707 107.228 80.086 107.694 80.086 108.272C80.086 108.85 80.5893 109.316 81.1859 109.316C81.596 109.316 81.9502 109.13 82.1366 108.794L82.7145 109.074C82.3976 109.652 81.8197 109.894 81.1859 109.894C80.1979 109.894 79.3776 109.167 79.3776 108.254V108.272ZM82.8637 108.272C82.8637 107.377 83.6839 106.632 84.7092 106.632C85.7345 106.632 86.5362 107.377 86.5362 108.272C86.5362 109.167 85.7345 109.932 84.7092 109.932C83.6839 109.932 82.8637 109.186 82.8637 108.272ZM85.8464 108.272C85.8464 107.694 85.3617 107.228 84.7092 107.228C84.0568 107.228 83.5534 107.694 83.5534 108.272C83.5534 108.85 84.0568 109.316 84.7092 109.316C85.3617 109.316 85.8464 108.85 85.8464 108.272ZM89.6867 108.16H87.2446V107.582H89.6867V108.16ZM96.5097 108.198V109.857H95.8199V108.31C95.8199 107.732 95.503 107.247 94.8691 107.247C94.2353 107.247 93.9184 107.732 93.9184 108.31V109.876H93.2286V108.31C93.2286 107.732 92.9117 107.247 92.2779 107.247C91.6441 107.247 91.3458 107.75 91.3458 108.31V109.857H90.6561V108.216C90.6561 107.34 91.1967 106.632 92.2406 106.632C92.9304 106.632 93.4337 106.949 93.6015 107.433C93.7879 106.949 94.2726 106.632 94.9437 106.632C95.9877 106.632 96.5469 107.34 96.5469 108.198H96.5097ZM96.9384 108.272C96.9384 107.377 97.7214 106.632 98.784 106.632C99.8466 106.632 100.63 107.34 100.63 108.272V109.839H99.9584V109.279C99.6974 109.671 99.2314 109.913 98.6721 109.913C97.6655 109.913 96.9384 109.167 96.9384 108.254V108.272ZM99.9211 108.272C99.9211 107.694 99.4365 107.228 98.784 107.228C98.1315 107.228 97.6468 107.694 97.6468 108.272C97.6468 108.85 98.1502 109.316 98.784 109.316C99.4178 109.316 99.9211 108.85 99.9211 108.272ZM101.263 109.857V107.993C101.263 107.228 101.748 106.669 102.643 106.669C102.867 106.669 103.09 106.706 103.258 106.781V107.415C103.09 107.321 102.885 107.284 102.699 107.284C102.233 107.284 101.953 107.564 101.953 108.03V109.876H101.263V109.857ZM103.221 108.272C103.221 107.377 104.004 106.632 105.066 106.632C106.129 106.632 106.912 107.34 106.912 108.272V109.839H106.241V109.279C105.98 109.671 105.514 109.913 104.954 109.913C103.948 109.913 103.221 109.167 103.221 108.254V108.272ZM106.204 108.272C106.204 107.694 105.7 107.228 105.066 107.228C104.433 107.228 103.929 107.694 103.929 108.272C103.929 108.85 104.433 109.316 105.066 109.316C105.7 109.316 106.204 108.85 106.204 108.272ZM107.807 108.72V107.265H107.117V106.725H107.807V105.904H108.496V106.725H109.82V107.265H108.496V108.701C108.496 109.111 108.757 109.354 109.186 109.354C109.41 109.354 109.652 109.279 109.82 109.167V109.745C109.652 109.857 109.373 109.932 109.112 109.932C108.254 109.932 107.788 109.447 107.788 108.72H107.807ZM110.51 109.857V105.289H111.2V107.079C111.461 106.818 111.889 106.65 112.355 106.65C113.362 106.65 113.94 107.265 113.94 108.216V109.857H113.25V108.291C113.25 107.732 112.915 107.247 112.262 107.247C111.647 107.247 111.218 107.694 111.218 108.31V109.857H110.528H110.51ZM114.369 108.272C114.369 107.377 115.189 106.632 116.214 106.632C117.24 106.632 118.041 107.377 118.041 108.272C118.041 109.167 117.24 109.932 116.214 109.932C115.189 109.932 114.369 109.186 114.369 108.272ZM117.351 108.272C117.351 107.694 116.867 107.228 116.214 107.228C115.562 107.228 115.058 107.694 115.058 108.272C115.058 108.85 115.562 109.316 116.214 109.316C116.867 109.316 117.351 108.85 117.351 108.272ZM119.178 108.328V109.839H118.489V108.254C118.489 107.34 119.085 106.613 120.204 106.613C121.322 106.613 121.937 107.321 121.937 108.235V109.82H121.248V108.31C121.248 107.713 120.893 107.21 120.204 107.21C119.514 107.21 119.197 107.713 119.197 108.291L119.178 108.328ZM125.293 106.072C125.442 105.662 125.778 105.476 126.169 105.476C126.561 105.476 126.915 105.662 127.064 106.072L128.35 109.839H127.623L127.269 108.794H125.069L124.715 109.839H123.988L125.274 106.072H125.293ZM125.274 108.216H127.083L126.449 106.277C126.393 106.147 126.318 106.072 126.188 106.072C126.039 106.072 125.964 106.128 125.927 106.277L125.293 108.216H125.274ZM128.593 109.223L129.133 108.962C129.301 109.279 129.599 109.391 129.972 109.391C130.345 109.391 130.662 109.242 130.662 108.962C130.662 108.31 128.686 108.794 128.686 107.601C128.686 107.042 129.226 106.65 129.972 106.65C130.606 106.65 131.053 106.911 131.277 107.284L130.736 107.564C130.587 107.284 130.308 107.191 129.991 107.191C129.674 107.191 129.376 107.34 129.376 107.601C129.376 108.235 131.352 107.769 131.352 108.962C131.352 109.559 130.718 109.932 129.991 109.932C129.357 109.932 128.854 109.708 128.593 109.242V109.223ZM131.892 105.681C131.892 105.457 132.097 105.252 132.358 105.252C132.619 105.252 132.806 105.438 132.806 105.681C132.806 105.923 132.601 106.091 132.358 106.091C132.116 106.091 131.892 105.904 131.892 105.681ZM132.694 106.706V109.839H132.004V106.706H132.694ZM133.272 108.272C133.272 107.377 134.055 106.632 135.117 106.632C136.18 106.632 136.963 107.34 136.963 108.272V109.839H136.292V109.279C136.031 109.671 135.565 109.913 135.005 109.913C133.999 109.913 133.272 109.167 133.272 108.254V108.272ZM136.254 108.272C136.254 107.694 135.751 107.228 135.117 107.228C134.483 107.228 133.98 107.694 133.98 108.272C133.98 108.85 134.483 109.316 135.117 109.316C135.751 109.316 136.254 108.85 136.254 108.272ZM139.461 109.857V105.569H140.971C142.239 105.569 143.059 106.091 143.059 107.079C143.059 108.067 142.22 108.608 141.008 108.608H140.188V109.839H139.461V109.857ZM140.188 106.165V108.011H140.99C141.773 108.011 142.332 107.732 142.332 107.079C142.332 106.426 141.791 106.165 140.99 106.165H140.188ZM143.227 108.272C143.227 107.377 144.01 106.632 145.072 106.632C146.135 106.632 146.918 107.34 146.918 108.272V109.839H146.247V109.279C145.986 109.671 145.52 109.913 144.96 109.913C143.954 109.913 143.227 109.167 143.227 108.254V108.272ZM146.209 108.272C146.209 107.694 145.706 107.228 145.072 107.228C144.438 107.228 143.935 107.694 143.935 108.272C143.935 108.85 144.438 109.316 145.072 109.316C145.706 109.316 146.209 108.85 146.209 108.272ZM147.328 108.272C147.328 107.377 148.148 106.632 149.136 106.632C149.77 106.632 150.348 106.893 150.665 107.452L150.087 107.75C149.882 107.415 149.528 107.228 149.136 107.228C148.521 107.228 148.036 107.694 148.036 108.272C148.036 108.85 148.54 109.316 149.136 109.316C149.546 109.316 149.882 109.13 150.087 108.794L150.665 109.074C150.348 109.652 149.77 109.894 149.136 109.894C148.148 109.894 147.328 109.167 147.328 108.254V108.272ZM151.056 105.681C151.056 105.457 151.261 105.252 151.522 105.252C151.783 105.252 151.97 105.438 151.97 105.681C151.97 105.923 151.765 106.091 151.522 106.091C151.28 106.091 151.056 105.904 151.056 105.681ZM151.877 106.706V109.839H151.187V106.706H151.877ZM153.032 109.857V107.265H152.38V106.725H153.032V106.389C153.032 105.718 153.498 105.233 154.356 105.233C154.58 105.233 154.803 105.27 154.99 105.345V105.96C154.822 105.867 154.617 105.811 154.43 105.811C154.002 105.811 153.741 105.979 153.741 106.408V106.725H155.866V109.857H155.176V107.265H153.759V109.857H153.07H153.032ZM156.313 108.272C156.313 107.377 157.134 106.632 158.122 106.632C158.755 106.632 159.333 106.893 159.65 107.452L159.072 107.75C158.867 107.415 158.513 107.228 158.122 107.228C157.506 107.228 157.022 107.694 157.022 108.272C157.022 108.85 157.525 109.316 158.122 109.316C158.532 109.316 158.886 109.13 159.072 108.794L159.65 109.074C159.333 109.652 158.755 109.894 158.122 109.894C157.134 109.894 156.313 109.167 156.313 108.254V108.272ZM69.1431 115.935C69.1431 115.04 69.9261 114.295 70.9887 114.295C72.0513 114.295 72.8343 115.003 72.8343 115.935V117.502H72.1631V116.942C71.9022 117.334 71.4361 117.576 70.8768 117.576C69.8702 117.576 69.1431 116.83 69.1431 115.917V115.935ZM72.1259 115.954C72.1259 115.376 71.6412 114.91 70.9887 114.91C70.3362 114.91 69.8515 115.376 69.8515 115.954C69.8515 116.532 70.3549 116.998 70.9887 116.998C71.6225 116.998 72.1259 116.532 72.1259 115.954ZM74.1765 115.991V117.502H73.4867V115.917C73.4867 115.003 74.0833 114.276 75.2018 114.276C76.3203 114.276 76.9355 114.985 76.9355 115.898V117.483H76.2458V115.973C76.2458 115.376 75.8916 114.873 75.2018 114.873C74.512 114.873 74.1951 115.376 74.1951 115.954L74.1765 115.991ZM77.3643 115.954C77.3643 115.003 78.1286 114.295 79.1726 114.295C79.6386 114.295 80.0674 114.481 80.347 114.761V112.934H81.0554V115.954C81.0554 116.886 80.2538 117.595 79.2098 117.595C78.1659 117.595 77.3643 116.868 77.3643 115.954ZM80.347 115.954C80.347 115.376 79.8437 114.91 79.2098 114.91C78.576 114.91 78.0727 115.376 78.0727 115.954C78.0727 116.532 78.576 116.998 79.2098 116.998C79.8437 116.998 80.347 116.532 80.347 115.954ZM86.5734 113.829H85.1194V117.52H84.3923V113.829H82.9382V113.232H86.5548V113.829H86.5734ZM86.9649 117.52V112.952H87.6547V114.742C87.9157 114.481 88.3444 114.313 88.8105 114.313C89.8172 114.313 90.3951 114.929 90.3951 115.88V117.52H89.7053V115.954C89.7053 115.395 89.3697 114.91 88.7173 114.91C88.1021 114.91 87.6733 115.357 87.6733 115.973V117.52H86.9836H86.9649ZM90.8238 115.935C90.8238 115.04 91.5322 114.295 92.5762 114.295C93.6201 114.295 94.2726 114.985 94.2726 115.861V116.122H91.5136C91.5882 116.663 92.0356 117.036 92.6694 117.036C93.0982 117.036 93.471 116.868 93.6761 116.532L94.2167 116.774C93.9184 117.315 93.3591 117.595 92.688 117.595C91.6441 117.595 90.8611 116.905 90.8611 115.935H90.8238ZM93.5642 115.693C93.5269 115.19 93.1354 114.854 92.5575 114.854C91.9796 114.854 91.5882 115.227 91.5136 115.693H93.5456H93.5642ZM96.2859 117.52L96.9571 113.717C97.013 113.344 97.3113 113.139 97.7027 113.139C98.0383 113.139 98.3366 113.288 98.4298 113.623L99.3432 116.607C99.3432 116.607 99.3805 116.681 99.3992 116.681C99.4364 116.681 99.4551 116.663 99.4737 116.607L100.369 113.623C100.462 113.288 100.779 113.139 101.114 113.139C101.487 113.139 101.785 113.344 101.841 113.717L102.438 117.502H101.711L101.189 113.922C101.189 113.922 101.152 113.773 101.077 113.773C101.021 113.773 100.965 113.81 100.946 113.903L99.9771 116.98C99.9025 117.241 99.6788 117.371 99.3992 117.371C99.1382 117.371 98.9145 117.241 98.8213 116.998L97.8519 113.903C97.8519 113.903 97.7959 113.773 97.7214 113.773C97.6468 113.773 97.6095 113.81 97.5909 113.922L97.013 117.502H96.2859V117.52ZM102.997 113.344C102.997 113.12 103.202 112.915 103.463 112.915C103.724 112.915 103.911 113.101 103.911 113.344C103.911 113.586 103.705 113.754 103.463 113.754C103.221 113.754 102.997 113.568 102.997 113.344ZM103.817 114.369V117.502H103.128V114.369H103.817ZM104.377 115.954C104.377 115.003 105.141 114.295 106.185 114.295C106.651 114.295 107.08 114.481 107.359 114.761V112.934H108.068V115.954C108.068 116.886 107.266 117.595 106.222 117.595C105.178 117.595 104.377 116.868 104.377 115.954ZM107.359 115.954C107.359 115.376 106.856 114.91 106.222 114.91C105.588 114.91 105.085 115.376 105.085 115.954C105.085 116.532 105.588 116.998 106.222 116.998C106.856 116.998 107.359 116.532 107.359 115.954ZM108.496 115.954C108.496 115.003 109.261 114.295 110.305 114.295C110.771 114.295 111.2 114.481 111.479 114.761V112.934H112.188V115.954C112.188 116.886 111.386 117.595 110.342 117.595C109.298 117.595 108.496 116.868 108.496 115.954ZM111.479 115.954C111.479 115.376 110.995 114.91 110.342 114.91C109.69 114.91 109.205 115.376 109.205 115.954C109.205 116.532 109.708 116.998 110.342 116.998C110.976 116.998 111.479 116.532 111.479 115.954ZM113.66 112.934V117.502H112.971V112.934H113.66ZM114.238 115.935C114.238 115.04 114.947 114.295 115.991 114.295C117.035 114.295 117.687 114.985 117.687 115.861V116.122H114.928C115.003 116.663 115.45 117.036 116.084 117.036C116.513 117.036 116.885 116.868 117.09 116.532L117.631 116.774C117.333 117.315 116.774 117.595 116.102 117.595C115.058 117.595 114.276 116.905 114.276 115.935H114.238ZM116.979 115.693C116.941 115.19 116.55 114.854 115.972 114.854C115.394 114.854 115.003 115.227 114.928 115.693H116.96H116.979ZM120.614 117.52C120.129 117.52 119.943 117.297 119.943 116.924V113.81C119.943 113.437 120.11 113.213 120.614 113.213H123.205V113.81H120.67V115.059H123.075V115.656H120.67V116.905H123.261V117.502H120.614V117.52ZM123.578 115.935C123.578 115.04 124.361 114.295 125.423 114.295C126.486 114.295 127.269 115.003 127.269 115.935V117.502H126.598V116.942C126.337 117.334 125.871 117.576 125.312 117.576C124.305 117.576 123.578 116.83 123.578 115.917V115.935ZM126.561 115.954C126.561 115.376 126.057 114.91 125.423 114.91C124.79 114.91 124.286 115.376 124.286 115.954C124.286 116.532 124.79 116.998 125.423 116.998C126.057 116.998 126.561 116.532 126.561 115.954ZM127.754 116.886L128.294 116.625C128.462 116.942 128.76 117.054 129.133 117.054C129.506 117.054 129.823 116.905 129.823 116.625C129.823 115.973 127.847 116.458 127.847 115.264C127.847 114.705 128.388 114.313 129.133 114.313C129.767 114.313 130.214 114.574 130.438 114.947L129.898 115.227C129.748 114.947 129.469 114.854 129.152 114.854C128.835 114.854 128.537 115.003 128.537 115.264C128.537 115.898 130.513 115.432 130.513 116.625C130.513 117.222 129.879 117.595 129.152 117.595C128.518 117.595 128.015 117.371 127.754 116.905V116.886ZM131.258 116.383V114.929H130.569V114.388H131.258V113.568H131.948V114.388H133.272V114.929H131.948V116.364C131.948 116.774 132.209 117.017 132.638 117.017C132.862 117.017 133.104 116.942 133.272 116.83V117.408C133.104 117.52 132.824 117.595 132.563 117.595C131.706 117.595 131.24 117.11 131.24 116.383H131.258ZM136.068 117.52C135.639 117.52 135.416 117.297 135.416 117.017C135.416 116.812 135.509 116.644 135.714 116.476L137.112 115.339C137.504 115.022 137.709 114.779 137.709 114.425C137.709 114.034 137.354 113.773 136.888 113.773C136.422 113.773 136.049 114.034 135.826 114.425L135.266 114.146C135.583 113.568 136.161 113.157 136.926 113.157C137.802 113.157 138.417 113.698 138.417 114.388C138.417 114.91 138.156 115.302 137.727 115.656L136.329 116.774C136.329 116.774 136.236 116.849 136.236 116.886C136.236 116.905 136.236 116.924 136.273 116.924H138.547V117.52H136.049H136.068ZM138.939 115.357C138.939 114.108 139.703 113.139 140.84 113.139C141.978 113.139 142.742 114.09 142.742 115.357C142.742 116.625 141.978 117.595 140.84 117.595C139.703 117.595 138.939 116.607 138.939 115.357ZM141.996 115.357C141.996 114.481 141.512 113.81 140.84 113.81C140.169 113.81 139.685 114.481 139.685 115.357C139.685 116.234 140.169 116.924 140.84 116.924C141.512 116.924 141.996 116.234 141.996 115.357ZM143.842 117.52C143.413 117.52 143.189 117.297 143.189 117.017C143.189 116.812 143.283 116.644 143.488 116.476L144.886 115.339C145.277 115.022 145.482 114.779 145.482 114.425C145.482 114.034 145.128 113.773 144.662 113.773C144.196 113.773 143.823 114.034 143.599 114.425L143.04 114.146C143.357 113.568 143.935 113.157 144.699 113.157C145.576 113.157 146.191 113.698 146.191 114.388C146.191 114.91 145.93 115.302 145.501 115.656L144.103 116.774C144.103 116.774 144.01 116.849 144.01 116.886C144.01 116.905 144.01 116.924 144.047 116.924H146.321V117.52H143.823H143.842ZM147.943 117.52V113.978C147.943 113.978 147.943 113.94 147.906 113.94C147.868 113.94 147.85 113.959 147.813 113.978L146.731 114.537L146.414 113.922L147.626 113.306C147.813 113.213 147.999 113.139 148.185 113.139C148.484 113.139 148.67 113.325 148.67 113.642V117.502H147.943V117.52Z" fill="#966034"/>
<path d="M62.9728 11.3918H88.4192C93.8813 11.3918 96.7522 14.2632 96.7522 17.638C96.7522 19.7635 95.4659 21.889 93.1916 24.0892L85.3805 31.2116H86.3686C92.8746 31.2116 98.4859 36.4882 98.4859 43.6852C98.4859 52.1874 90.9172 58.4894 80.0862 58.4894C71.5295 58.4894 64.7811 55.1333 61.2205 48.3465L70.7652 43.7598C72.4243 47.5261 75.985 49.4465 80.2353 49.4465C84.4857 49.4465 87.6549 47.0413 87.6549 43.5547C87.6549 40.2545 84.7094 38.2035 80.459 38.2035H77.7373C74.3258 38.2035 72.2752 36.1526 72.2006 33.8779C72.2006 32.2371 73.1886 30.7268 74.7732 29.2166L83.6282 21.2551C83.8519 21.1246 84.001 21.05 84.001 20.7703C84.001 20.6398 83.8519 20.6398 83.7028 20.6398H62.9542V11.3918H62.9728Z" fill="#966034"/>
<path d="M101.935 42.4363V37.4021C101.935 35.1461 103.352 33.4307 106.241 33.4307C106.875 33.4307 107.565 33.5426 108.049 33.7291V36.1716C107.583 35.9292 107.005 35.7987 106.502 35.7987C105.402 35.7987 104.731 36.4326 104.731 37.4767V42.4363H101.953H101.935ZM107.919 38.0361C107.919 35.2952 110.007 33.3748 113.027 33.3748C114.015 33.3748 114.947 33.6918 115.655 34.2138V29.5898H118.47V38.0361C118.47 40.7023 116.233 42.6601 113.195 42.6601C110.156 42.6601 107.938 40.5718 107.938 38.0361H107.919ZM115.674 38.0361C115.674 36.7869 114.611 35.7614 113.176 35.7614C111.741 35.7614 110.697 36.7869 110.697 38.0361C110.697 39.2853 111.741 40.2921 113.176 40.2921C114.611 40.2921 115.674 39.2853 115.674 38.0361ZM102.513 58.1355V46.184H107.173C110.92 46.184 113.213 47.7688 113.213 50.5283C113.213 53.2878 110.958 54.9659 107.322 54.9659H105.384V58.1169H102.513V58.1355ZM105.384 48.5706V52.5606H107.248C109.131 52.5606 110.268 51.9081 110.268 50.5283C110.268 49.1486 109.131 48.5706 107.248 48.5706H105.384ZM116.662 55.7303H122.833V58.1355H116.326C114.5 58.1355 113.791 57.2778 113.791 55.9168V46.184H116.662V55.7303ZM127.157 47.8621C127.605 46.5755 128.779 45.9416 130.028 45.9416C131.277 45.9416 132.47 46.5569 132.918 47.8621L136.404 58.1169H133.477L132.713 55.6744H127.363L126.598 58.1169H123.671L127.157 47.8621ZM128.108 53.3624H131.967L130.476 48.6265C130.401 48.3841 130.271 48.2723 130.047 48.2723C129.823 48.2723 129.693 48.3841 129.618 48.6265L128.108 53.3624ZM135.863 52.1691C135.863 48.7011 138.865 45.9603 142.705 45.9603C144.998 45.9603 147.198 47.0603 148.186 48.9248L145.855 50.1181C145.203 49.0926 144.178 48.4401 142.593 48.4401C140.393 48.4401 138.809 50.0249 138.809 52.1877C138.809 54.3506 140.375 55.9354 142.593 55.9354C144.178 55.9354 145.24 55.2828 145.855 54.2573L148.186 55.4506C147.198 57.3151 144.998 58.4152 142.705 58.4152C138.865 58.4152 135.863 55.6557 135.863 52.2064V52.1691ZM151.299 58.1355C149.472 58.1355 148.764 57.2778 148.764 55.9168V48.4214C148.764 47.0603 149.472 46.184 151.299 46.184H158.29V48.5146H151.634V50.9944H157.88V53.3251H151.634V55.8049H158.402V58.1355H151.299Z" fill="#966034"/>
</g>
<defs>
<clipPath id="clip0_351_8166">
<rect width="218" height="120" fill="white"/>
</clipPath>
</defs>
</svg>
