<svg width="218" height="120" viewBox="0 0 218 120" fill="none" xmlns="http://www.w3.org/2000/svg">
<g clip-path="url(#clip0_351_6866)">
<path d="M51.2498 116.237C49.8011 117.761 41.5417 112.567 38.9077 108.089C38.9077 108.089 37.4402 105.624 37.1204 102.161C37.0827 101.841 37.1204 101.521 37.1768 101.202C37.2144 100.995 37.3273 100.806 37.5155 100.317C37.8918 100.43 38.2869 100.524 38.6819 100.618C38.6819 100.618 39.2087 100.806 39.7355 101.07C45.2669 103.949 48.7475 109.764 48.7475 109.764C50.422 112.567 52.0965 115.334 51.2686 116.218L51.2498 116.237Z" fill="#EBAA01"/>
<path d="M27.5061 12.8904C27.9576 4.72352 38.1926 -1.80619 47.5432 0.451923C41.9366 6.56765 36.5934 12.4764 27.5061 12.8904Z" fill="#EBAA01"/>
<path d="M15.7477 85.9775C9.89647 78.1682 10.3668 69.4744 16.726 64.262C20.6582 71.6008 17.4786 78.4316 15.7477 85.9775Z" fill="#EBAA01"/>
<path d="M10.1597 70.8671C6.62264 61.8159 9.42596 53.4044 16.8576 50.1489C18.6449 58.3158 13.7532 64.1116 10.1597 70.8671Z" fill="#EBAA01"/>
<path d="M11.853 38.4259C12.7373 29.5628 20.357 22.9767 27.6193 24.5574C26.5281 29.6946 20.9027 34.6812 11.853 38.4259Z" fill="#EBAA01"/>
<path d="M8.93674 54.5715C7.63856 45.2003 13.1699 36.8829 20.7144 36.77C20.0559 44.8804 14.1106 49.2273 8.93674 54.5715Z" fill="#EBAA01"/>
<path d="M38.2114 14.5836C33.4702 21.4332 26.0574 22.1671 19.0962 24.1618C20.3567 17.4627 31.0808 10.6319 38.2114 14.5836Z" fill="#EBAA01"/>
<path d="M20.4699 78.075C25.9072 84.1154 24.8536 91.4731 25.0605 98.7367C17.4596 94.3522 15.3712 82.61 20.4699 78.075Z" fill="#EBAA01"/>
<path d="M22.8213 99.9218C15.2204 99.9595 7.76994 93.2416 6.07666 84.7925C14.3737 86.7119 18.7762 93.0346 22.8213 99.9218Z" fill="#EBAA01"/>
<path d="M37.5716 109.462C28.823 105.83 25.0413 98.661 27.2426 90.0425C34.3355 94.6152 35.201 102.01 37.5716 109.462Z" fill="#EBAA01"/>
<path d="M50.5719 117.799C45.0405 122.616 32.642 118.815 28.6157 113.245C36.7811 110.61 43.6859 114.261 50.5719 117.799Z" fill="#EBAA01"/>
<path d="M5.71938 30.8987C10.1783 38.3881 8.82372 45.8963 6.82942 53.4234C1.41093 49.2459 0.884136 39.6112 5.71938 30.8987Z" fill="#EBAA01"/>
<path d="M14.9942 15.3179C17.5153 23.56 13.696 30.3908 10.1402 37.0899C5.83171 32.0844 8.29637 20.6056 14.9942 15.3179Z" fill="#EBAA01"/>
<path d="M8.03336 70.378C1.33551 66.765 -1.84409 56.9422 1.10974 48.8506C7.60064 54.7029 7.39368 62.6815 8.03336 70.378Z" fill="#EBAA01"/>
<path d="M17.4599 22.4503C14.7694 16.1276 20.6959 5.42039 28.4473 2.25903C26.8105 7.49033 27.0551 13.0039 22.3704 16.7486C20.5078 18.2352 19.1908 20.3992 17.4599 22.4503Z" fill="#EBAA01"/>
<path d="M1.12807 67.1045C8.78544 71.1691 11.1184 78.508 13.3197 85.7904C6.77232 85.32 0.582456 76.0052 1.12807 67.1045Z" fill="#EBAA01"/>
<path d="M35.6338 110.78C27.9953 112.737 19.8675 108.54 14.957 99.8091C19.2655 101.032 23.3293 101.521 26.6971 103.309C29.9708 105.04 32.5483 108.108 35.6338 110.78Z" fill="#EBAA01"/>
<path d="M166.75 116.237C168.199 117.761 176.458 112.567 179.092 108.089C179.092 108.089 180.56 105.624 180.879 102.161C180.917 101.841 180.879 101.521 180.823 101.202C180.785 100.995 180.672 100.806 180.484 100.317C180.108 100.43 179.713 100.524 179.318 100.618C179.318 100.618 178.791 100.806 178.264 101.07C172.733 103.949 169.252 109.764 169.252 109.764C167.578 112.567 165.903 115.334 166.731 116.218L166.75 116.237Z" fill="#EBAA01"/>
<path d="M190.494 12.8904C190.042 4.72352 179.807 -1.80619 170.457 0.451923C176.063 6.56765 181.406 12.4764 190.494 12.8904Z" fill="#EBAA01"/>
<path d="M202.252 85.9775C208.103 78.1682 207.633 69.4744 201.274 64.262C197.342 71.6008 200.521 78.4316 202.252 85.9775Z" fill="#EBAA01"/>
<path d="M207.84 70.8671C211.377 61.8159 208.574 53.4044 201.142 50.1489C199.355 58.3158 204.246 64.1116 207.84 70.8671Z" fill="#EBAA01"/>
<path d="M206.147 38.4259C205.263 29.5628 197.643 22.9767 190.381 24.5574C191.472 29.6946 197.097 34.6812 206.147 38.4259Z" fill="#EBAA01"/>
<path d="M209.063 54.5715C210.361 45.2003 204.83 36.8829 197.285 36.77C197.944 44.8804 203.889 49.2273 209.063 54.5715Z" fill="#EBAA01"/>
<path d="M179.806 14.5836C184.548 21.4332 191.96 22.1671 198.922 24.1618C197.661 17.4627 186.937 10.6319 179.806 14.5836Z" fill="#EBAA01"/>
<path d="M197.53 78.075C192.093 84.1154 193.146 91.4731 192.939 98.7367C200.54 94.3522 202.629 82.61 197.53 78.075Z" fill="#EBAA01"/>
<path d="M195.179 99.9218C202.78 99.9595 210.23 93.2416 211.923 84.7925C203.626 86.7119 199.224 93.0346 195.179 99.9218Z" fill="#EBAA01"/>
<path d="M180.428 109.462C189.176 105.83 192.958 98.661 190.757 90.0425C183.664 94.6152 182.798 102.01 180.428 109.462Z" fill="#EBAA01"/>
<path d="M167.428 117.799C172.959 122.616 185.358 118.815 189.384 113.245C181.219 110.61 174.314 114.261 167.428 117.799Z" fill="#EBAA01"/>
<path d="M212.28 30.8987C207.821 38.3881 209.175 45.8963 211.17 53.4234C216.588 49.2459 217.115 39.6112 212.28 30.8987Z" fill="#EBAA01"/>
<path d="M203.005 15.3179C200.484 23.56 204.303 30.3908 207.859 37.0899C212.168 32.0844 209.703 20.6056 203.005 15.3179Z" fill="#EBAA01"/>
<path d="M209.967 70.378C216.665 66.765 219.844 56.9422 216.89 48.8506C210.4 54.7029 210.606 62.6815 209.967 70.378Z" fill="#EBAA01"/>
<path d="M200.54 22.4503C203.23 16.1276 197.304 5.42039 189.552 2.25903C191.189 7.49033 190.945 13.0039 195.629 16.7486C197.492 18.2352 198.809 20.3992 200.54 22.4503Z" fill="#EBAA01"/>
<path d="M216.871 67.104C209.214 71.1686 206.881 78.5075 204.679 85.7899C211.227 85.3195 217.417 76.0047 216.871 67.104Z" fill="#EBAA01"/>
<path d="M182.366 110.78C190.005 112.737 198.132 108.54 203.043 99.8091C198.735 101.032 194.671 101.521 191.303 103.309C188.029 105.04 185.452 108.108 182.366 110.78Z" fill="#EBAA01"/>
<path d="M44.7395 79.3161H40.2617V69.0793H44.7395C48.4459 69.0793 50.9105 71.1304 50.9105 74.2354C50.9105 77.3403 48.3706 79.3161 44.7395 79.3161ZM44.7395 71.6573H43.3661V76.8134H44.7395C46.5457 76.8134 47.731 75.7784 47.731 74.2354C47.731 72.6923 46.5645 71.6573 44.7395 71.6573ZM53.902 70.6976C54.3159 69.4369 55.5012 68.8535 56.6677 68.8535C57.8342 68.8535 59.0195 69.4369 59.4334 70.6976L62.3496 79.3161H59.1888L58.662 77.5849H54.6922L54.1466 79.3161H50.9858L53.902 70.6976ZM55.4636 75.0822H57.8906L56.8182 71.5256C56.7806 71.4127 56.7429 71.3751 56.6865 71.3751C56.6301 71.3751 56.5924 71.4127 56.5548 71.5256L55.4636 75.0822ZM70.6843 71.6573H67.4858V79.3161H64.3815V71.6573H61.1831V69.0793H70.6843V71.6573ZM72.4152 70.6976C72.8291 69.4369 74.0144 68.8535 75.1808 68.8535C76.3473 68.8535 77.5326 69.4369 77.9465 70.6976L80.8627 79.3161H77.702L77.1752 77.5849H73.2054L72.6597 79.3161H69.499L72.4152 70.6976ZM73.9767 75.0822H76.4038L75.3314 71.5256C75.2937 71.4127 75.2561 71.3751 75.1997 71.3751C75.1432 71.3751 75.1056 71.4127 75.068 71.5256L73.9767 75.0822ZM93.8822 71.6573H90.6837V79.3161H87.5794V71.6573H84.381V69.0793H93.8822V71.6573ZM97.1558 79.3161C95.2368 79.3161 94.4654 78.4129 94.4654 76.9639V71.4315C94.4654 69.9826 95.2368 69.0793 97.1558 69.0793H102.951V71.5821H97.5697V72.9558H102.574V75.4585H97.5697V76.8322H103.045V79.3349H97.1558V79.3161ZM107.485 76.7381H112.489V79.3161H107.071C105.152 79.3161 104.38 78.4129 104.38 76.9639V69.0793H107.485V76.7381ZM115.65 79.3161C113.731 79.3161 112.96 78.4129 112.96 76.9639V71.4315C112.96 69.9826 113.731 69.0793 115.65 69.0793H121.445V71.5821H116.064V72.9558H121.069V75.4585H116.064V76.8322H121.539V79.3349H115.65V79.3161ZM122.197 79.3161L123.684 70.7165C123.91 69.5121 124.831 68.8535 126.205 68.8535C127.371 68.8535 128.369 69.3051 128.688 70.453L130.231 75.8725L131.755 70.4906C132.075 69.3616 133.091 68.8535 134.295 68.8535C135.612 68.8535 136.534 69.5121 136.722 70.7729L138.058 79.3161H134.916L134.013 72.109L132.225 78.0177C131.943 78.9209 131.153 79.3726 130.212 79.3726C129.272 79.3726 128.444 78.9398 128.199 78.0742L126.431 72.0902L125.339 79.3161H122.179H122.197ZM141.764 79.3161C139.845 79.3161 139.074 78.4129 139.074 76.9639V71.4315C139.074 69.9826 139.845 69.0793 141.764 69.0793H147.559V71.5821H142.178V72.9558H147.183V75.4585H142.178V76.8322H147.653V79.3349H141.764V79.3161ZM157.399 71.6573H154.2V79.3161H151.096V71.6573H147.898V69.0793H157.399V71.6573ZM158.151 79.3161V69.0793H162.893C165.583 69.0793 167.615 70.2084 167.615 72.4665C167.615 73.8214 166.768 74.9316 165.451 75.308C166.016 75.6467 166.392 76.23 166.9 77.1521L168.048 79.2973H164.68L163.626 77.3779C163.25 76.6816 162.799 76.4182 161.801 76.4182H161.237V79.2973H158.151V79.3161ZM161.256 71.6573V73.9531H162.893C163.796 73.9531 164.435 73.5015 164.435 72.7676C164.435 71.9961 163.796 71.6573 162.93 71.6573H161.256ZM167.972 69.0793H171.303L173.504 74.0472L175.667 69.0793H178.998L176.251 74.894C175.968 75.4773 175.555 75.9478 175.065 76.2488V79.3161H171.961V76.2865C171.453 75.9854 171.02 75.5338 170.719 74.9128L167.972 69.0981V69.0793Z" fill="#EBAA01"/>
<path d="M68.7276 87.2945C69.3108 85.6009 70.8724 84.7729 72.4904 84.7729C74.1085 84.7729 75.6889 85.5821 76.2721 87.2945L80.8628 100.768H77.0247L76.0275 97.5501H68.991L67.9939 100.768H64.1558L68.7464 87.2945H68.7276ZM69.9693 94.5393H75.0492L73.0925 88.3107C72.9984 87.9908 72.8291 87.8402 72.5281 87.8402C72.2459 87.8402 72.0577 87.9719 71.9637 88.3107L69.9882 94.5393H69.9693ZM79.6022 85.0929H83.3651L86.0931 97.5125C86.0931 97.5125 86.1495 97.6254 86.1684 97.6254C86.1872 97.6254 86.2248 97.6066 86.2436 97.5125L88.7459 87.5768C89.2163 85.6574 90.2699 84.8482 91.8126 84.8482C93.3554 84.8482 94.3902 85.6574 94.8793 87.558L97.4192 97.5125C97.4192 97.5125 97.4381 97.6254 97.4945 97.6254C97.5133 97.6254 97.5133 97.5878 97.5509 97.5125L100.185 85.0929H103.948L100.862 98.491C100.467 100.147 99.3383 101.107 97.6638 101.107C96.1211 101.107 94.8793 100.222 94.4654 98.6415L91.8126 88.3295L89.1786 98.698C88.7835 100.222 87.5042 101.107 86.0179 101.107C84.4186 101.107 83.1769 100.222 82.8006 98.5663L79.6022 85.0929ZM107.24 87.2945C107.823 85.6009 109.385 84.7729 111.003 84.7729C112.621 84.7729 114.201 85.5821 114.785 87.2945L119.375 100.768H115.537L114.54 97.5501H107.504L106.507 100.768H102.668L107.259 87.2945H107.24ZM108.482 94.5393H113.562L111.605 88.3107C111.511 87.9908 111.342 87.8402 111.041 87.8402C110.759 87.8402 110.57 87.9719 110.476 88.3107L108.501 94.5393H108.482ZM121.031 100.787V85.0929H127.691C131.605 85.0929 134.615 86.7488 134.615 90.0795C134.615 92.2247 133.223 93.8807 131.003 94.4076C132.113 94.9721 132.752 96.0447 133.655 97.663L135.33 100.768H131.266L129.723 97.9641C128.933 96.5152 128.18 95.7436 126.224 95.7436H124.756V100.749H121.031V100.787ZM124.794 88.2354V92.7328H127.71C129.479 92.7328 130.777 91.886 130.777 90.4182C130.777 88.9505 129.46 88.2354 127.767 88.2354H124.813H124.794ZM143.928 100.787H137.55V85.0929H144.022C149.629 85.0929 153.373 88.2166 153.373 92.9586C153.373 97.7007 149.403 100.787 143.947 100.787H143.928ZM144.003 88.2354H141.294V97.7195H143.928C147.164 97.7195 149.497 95.8754 149.497 92.9398C149.497 90.0043 147.277 88.2354 144.003 88.2354Z" fill="#EBAA01"/>
<path d="M58.7939 109.236L59.396 108.972C59.5841 109.349 59.9792 109.537 60.5437 109.537C61.1081 109.537 61.522 109.311 61.522 108.878C61.522 108.408 61.0328 108.333 60.4872 108.22C59.7723 108.088 58.888 107.881 58.888 106.978C58.888 106.263 59.603 105.736 60.506 105.736C61.221 105.736 61.8607 106.037 62.1429 106.62L61.5408 106.903C61.3527 106.545 60.9952 106.338 60.4684 106.338C59.9792 106.338 59.603 106.601 59.603 106.959C59.603 107.411 60.1109 107.524 60.6754 107.618C61.3903 107.749 62.2369 107.956 62.2369 108.86C62.2369 109.612 61.5032 110.139 60.5437 110.139C59.7535 110.139 59.0762 109.819 58.7939 109.236ZM62.9142 110.083V105.529H63.6104V107.317C63.8738 107.053 64.2877 106.884 64.758 106.884C65.774 106.884 66.3384 107.505 66.3384 108.446V110.083H65.6423V108.521C65.6423 107.975 65.3037 107.486 64.6452 107.486C64.0243 107.486 63.5916 107.938 63.5916 108.54V110.083H62.8954H62.9142ZM66.7712 108.502C66.7712 107.599 67.4861 106.865 68.5209 106.865C69.5557 106.865 70.2142 107.542 70.2142 108.427V108.69H67.4485C67.5237 109.217 67.9753 109.593 68.5961 109.593C69.0289 109.593 69.4051 109.424 69.6121 109.085L70.1577 109.33C69.8567 109.857 69.2923 110.158 68.615 110.158C67.5614 110.158 66.7712 109.462 66.7712 108.502ZM69.518 108.257C69.4804 107.768 69.0853 107.429 68.5209 107.429C67.9565 107.429 67.5614 107.806 67.4861 108.257H69.518ZM71.5311 105.51V110.064H70.835V105.51H71.5311ZM73.168 105.51V110.064H72.4719V105.51H73.168ZM76.404 110.083C75.9149 110.083 75.7455 109.857 75.7455 109.499V106.394C75.7455 106.037 75.9149 105.811 76.404 105.811H79.0004V106.394H76.4605V107.636H78.8687V108.22H76.4605V109.462H79.0568V110.045H76.404V110.083ZM79.3767 108.502C79.3767 107.599 80.1857 106.865 81.1828 106.865C81.8225 106.865 82.4058 107.128 82.7256 107.693L82.1423 107.994C81.9354 107.655 81.5967 107.486 81.1828 107.486C80.5808 107.486 80.0728 107.956 80.0728 108.521C80.0728 109.085 80.5808 109.575 81.1828 109.575C81.5967 109.575 81.9354 109.405 82.1423 109.067L82.7256 109.349C82.4058 109.913 81.8225 110.177 81.1828 110.177C80.1857 110.177 79.3767 109.443 79.3767 108.54V108.502ZM82.8573 108.502C82.8573 107.599 83.6663 106.865 84.7011 106.865C85.7359 106.865 86.5449 107.599 86.5449 108.502C86.5449 109.405 85.7547 110.139 84.7011 110.139C83.6475 110.139 82.8573 109.405 82.8573 108.502ZM85.8487 108.521C85.8487 107.956 85.3596 107.467 84.7199 107.467C84.0802 107.467 83.5722 107.938 83.5722 108.521C83.5722 109.104 84.0802 109.556 84.7199 109.556C85.3596 109.556 85.8487 109.085 85.8487 108.521ZM89.6868 108.389H87.241V107.806H89.6868V108.389ZM96.5164 108.427V110.064H95.8203V108.521C95.8203 107.956 95.5004 107.448 94.8607 107.448C94.2211 107.448 93.92 107.919 93.92 108.502V110.064H93.2239V108.502C93.2239 107.938 92.9041 107.448 92.2644 107.448C91.6247 107.448 91.3237 107.938 91.3237 108.521V110.064H90.6275V108.427C90.6275 107.561 91.1732 106.846 92.2079 106.846C92.9041 106.846 93.3932 107.166 93.5814 107.655C93.7695 107.166 94.2587 106.846 94.9172 106.846C95.9708 106.846 96.5352 107.542 96.5352 108.408L96.5164 108.427ZM96.9303 108.502C96.9303 107.618 97.7205 106.865 98.7741 106.865C99.8277 106.865 100.618 107.561 100.618 108.502V110.064H99.9594V109.518C99.696 109.895 99.2444 110.139 98.68 110.139C97.6829 110.139 96.9491 109.405 96.9491 108.502H96.9303ZM99.9218 108.521C99.9218 107.956 99.4326 107.467 98.7741 107.467C98.1156 107.467 97.6264 107.938 97.6264 108.521C97.6264 109.104 98.1344 109.556 98.7741 109.556C99.4138 109.556 99.9218 109.085 99.9218 108.521ZM101.276 110.083V108.22C101.276 107.467 101.766 106.903 102.669 106.903C102.894 106.903 103.12 106.94 103.289 107.015V107.636C103.12 107.542 102.913 107.505 102.725 107.505C102.255 107.505 101.973 107.787 101.973 108.257V110.102H101.276V110.083ZM103.214 108.502C103.214 107.618 104.004 106.865 105.058 106.865C106.112 106.865 106.902 107.561 106.902 108.502V110.064H106.243V109.518C105.98 109.895 105.528 110.139 104.964 110.139C103.967 110.139 103.233 109.405 103.233 108.502H103.214ZM106.206 108.521C106.206 107.956 105.717 107.467 105.058 107.467C104.4 107.467 103.91 107.938 103.91 108.521C103.91 109.104 104.418 109.556 105.058 109.556C105.698 109.556 106.206 109.085 106.206 108.521ZM107.805 108.954V107.505H107.128V106.959H107.805V106.15H108.501V106.959H109.837V107.505H108.501V108.935C108.501 109.349 108.764 109.593 109.178 109.593C109.404 109.593 109.649 109.518 109.818 109.405V109.989C109.649 110.102 109.366 110.158 109.103 110.158C108.238 110.158 107.786 109.669 107.786 108.954H107.805ZM110.514 110.083V105.529H111.21V107.317C111.474 107.053 111.888 106.884 112.358 106.884C113.374 106.884 113.938 107.505 113.938 108.446V110.083H113.242V108.521C113.242 107.975 112.904 107.486 112.245 107.486C111.624 107.486 111.191 107.938 111.191 108.54V110.083H110.495H110.514ZM114.371 108.502C114.371 107.599 115.18 106.865 116.215 106.865C117.25 106.865 118.059 107.599 118.059 108.502C118.059 109.405 117.268 110.139 116.215 110.139C115.161 110.139 114.371 109.405 114.371 108.502ZM117.363 108.521C117.363 107.956 116.873 107.467 116.234 107.467C115.594 107.467 115.086 107.938 115.086 108.521C115.086 109.104 115.594 109.556 116.234 109.556C116.873 109.556 117.363 109.085 117.363 108.521ZM119.187 108.559V110.064H118.491V108.483C118.491 107.58 119.093 106.865 120.203 106.865C121.313 106.865 121.953 107.58 121.953 108.483V110.064H121.257V108.559C121.257 107.975 120.9 107.467 120.203 107.467C119.507 107.467 119.187 107.975 119.187 108.559ZM125.302 106.319C125.453 105.924 125.791 105.736 126.186 105.736C126.581 105.736 126.939 105.924 127.071 106.319L128.369 110.083H127.635L127.296 109.029H125.095L124.756 110.083H124.023L125.321 106.319H125.302ZM125.283 108.446H127.089L126.45 106.507C126.393 106.376 126.318 106.319 126.186 106.319C126.036 106.319 125.961 106.376 125.923 106.507L125.283 108.446ZM128.595 109.443L129.14 109.179C129.31 109.499 129.592 109.612 129.987 109.612C130.382 109.612 130.683 109.462 130.683 109.198C130.683 108.54 128.707 109.048 128.707 107.843C128.707 107.298 129.253 106.903 130.006 106.903C130.645 106.903 131.078 107.166 131.304 107.542L130.758 107.825C130.608 107.542 130.325 107.448 130.006 107.448C129.686 107.448 129.404 107.599 129.404 107.843C129.404 108.483 131.379 108.013 131.379 109.198C131.379 109.782 130.739 110.158 130.006 110.158C129.366 110.158 128.877 109.932 128.595 109.462V109.443ZM131.887 105.924C131.887 105.698 132.094 105.51 132.339 105.51C132.583 105.51 132.79 105.698 132.79 105.924C132.79 106.15 132.583 106.338 132.339 106.338C132.094 106.338 131.887 106.15 131.887 105.924ZM132.696 106.959V110.083H132V106.959H132.696ZM133.26 108.502C133.26 107.618 134.051 106.865 135.104 106.865C136.158 106.865 136.948 107.561 136.948 108.502V110.064H136.29V109.518C136.026 109.895 135.575 110.139 135.01 110.139C134.013 110.139 133.279 109.405 133.279 108.502H133.26ZM136.252 108.521C136.252 107.956 135.763 107.467 135.104 107.467C134.446 107.467 133.957 107.938 133.957 108.521C133.957 109.104 134.465 109.556 135.104 109.556C135.744 109.556 136.252 109.085 136.252 108.521ZM139.469 110.083V105.811H140.974C142.254 105.811 143.063 106.319 143.063 107.317C143.063 108.314 142.216 108.841 140.993 108.841H140.165V110.064H139.45L139.469 110.083ZM140.184 106.413V108.257H140.993C141.765 108.257 142.329 107.975 142.329 107.335C142.329 106.696 141.783 106.432 140.993 106.432H140.184V106.413ZM143.213 108.502C143.213 107.618 144.003 106.865 145.057 106.865C146.111 106.865 146.901 107.561 146.901 108.502V110.064H146.242V109.518C145.979 109.895 145.527 110.139 144.963 110.139C143.966 110.139 143.232 109.405 143.232 108.502H143.213ZM146.205 108.521C146.205 107.956 145.715 107.467 145.057 107.467C144.398 107.467 143.909 107.938 143.909 108.521C143.909 109.104 144.417 109.556 145.057 109.556C145.697 109.556 146.205 109.085 146.205 108.521ZM147.333 108.502C147.333 107.599 148.143 106.865 149.14 106.865C149.779 106.865 150.363 107.128 150.682 107.693L150.099 107.994C149.892 107.655 149.554 107.486 149.14 107.486C148.538 107.486 148.03 107.956 148.03 108.521C148.03 109.085 148.538 109.575 149.14 109.575C149.554 109.575 149.892 109.405 150.099 109.067L150.682 109.349C150.363 109.913 149.779 110.177 149.14 110.177C148.143 110.177 147.333 109.443 147.333 108.54V108.502ZM151.059 105.924C151.059 105.698 151.266 105.51 151.51 105.51C151.755 105.51 151.962 105.698 151.962 105.924C151.962 106.15 151.755 106.338 151.51 106.338C151.266 106.338 151.059 106.15 151.059 105.924ZM151.868 106.959V110.083H151.172V106.959H151.868ZM153.034 110.083V107.505H152.376V106.959H153.034V106.639C153.034 105.98 153.486 105.472 154.37 105.472C154.596 105.472 154.822 105.51 154.991 105.585V106.206C154.822 106.112 154.615 106.075 154.426 106.075C153.994 106.075 153.73 106.244 153.73 106.658V106.959H155.856V110.083H155.16V107.505H153.749V110.083H153.053H153.034ZM156.308 108.502C156.308 107.599 157.117 106.865 158.114 106.865C158.754 106.865 159.337 107.128 159.657 107.693L159.074 107.994C158.867 107.655 158.528 107.486 158.114 107.486C157.512 107.486 157.004 107.956 157.004 108.521C157.004 109.085 157.512 109.575 158.114 109.575C158.528 109.575 158.867 109.405 159.074 109.067L159.657 109.349C159.337 109.913 158.754 110.177 158.114 110.177C157.117 110.177 156.308 109.443 156.308 108.54V108.502ZM68.7467 116.18C68.7467 115.295 69.5368 114.543 70.5904 114.543C71.644 114.543 72.4342 115.239 72.4342 116.18V117.742H71.7757V117.196C71.5123 117.572 71.0608 117.817 70.4964 117.817C69.4992 117.817 68.7655 117.083 68.7655 116.18H68.7467ZM71.7381 116.18C71.7381 115.615 71.2489 115.126 70.5904 115.126C69.9319 115.126 69.4428 115.596 69.4428 116.18C69.4428 116.763 69.9508 117.215 70.5904 117.215C71.2301 117.215 71.7381 116.744 71.7381 116.18ZM73.77 116.236V117.742H73.0739V116.161C73.0739 115.258 73.676 114.543 74.786 114.543C75.896 114.543 76.5357 115.258 76.5357 116.161V117.742H75.8396V116.236C75.8396 115.653 75.4821 115.145 74.786 115.145C74.0899 115.145 73.77 115.653 73.77 116.236ZM76.9684 116.18C76.9684 115.239 77.7398 114.543 78.7746 114.543C79.245 114.543 79.6589 114.731 79.9411 115.013V113.188H80.656V116.198C80.656 117.121 79.8658 117.836 78.8122 117.836C77.7586 117.836 76.9684 117.102 76.9684 116.198V116.18ZM79.9599 116.18C79.9599 115.615 79.4707 115.145 78.8122 115.145C78.1537 115.145 77.6646 115.615 77.6646 116.18C77.6646 116.744 78.1726 117.233 78.8122 117.233C79.4519 117.233 79.9599 116.763 79.9599 116.18ZM86.1686 114.072H84.7199V117.742H84.005V114.072H82.5563V113.47H86.1874V114.072H86.1686ZM86.5637 117.742V113.188H87.2598V114.975C87.5232 114.712 87.9371 114.543 88.4075 114.543C89.4234 114.543 89.9879 115.163 89.9879 116.104V117.742H89.2917V116.18C89.2917 115.634 88.9531 115.145 88.2946 115.145C87.6737 115.145 87.241 115.596 87.241 116.198V117.742H86.5449H86.5637ZM90.4206 116.161C90.4206 115.258 91.1355 114.524 92.1703 114.524C93.2051 114.524 93.8636 115.201 93.8636 116.086V116.349H91.0979C91.1732 116.876 91.6247 117.252 92.2456 117.252C92.6783 117.252 93.0546 117.083 93.2615 116.744L93.8071 116.989C93.5061 117.516 92.9417 117.817 92.2644 117.817C91.2108 117.817 90.4206 117.121 90.4206 116.161ZM93.1675 115.935C93.1298 115.446 92.7347 115.107 92.1703 115.107C91.6059 115.107 91.2108 115.483 91.1355 115.935H93.1675ZM95.8955 117.742L96.554 113.959C96.6105 113.583 96.9115 113.395 97.2878 113.395C97.6264 113.395 97.9086 113.545 98.0215 113.884L98.9246 116.857C98.9246 116.857 98.9622 116.932 98.981 116.932C99.0187 116.932 99.0375 116.914 99.0563 116.857L99.9594 113.884C100.053 113.545 100.354 113.395 100.693 113.395C101.069 113.395 101.352 113.602 101.427 113.978L102.029 117.742H101.295L100.768 114.185C100.768 114.185 100.731 114.034 100.656 114.034C100.599 114.034 100.543 114.072 100.524 114.166L99.5455 117.233C99.4702 117.497 99.2444 117.61 98.981 117.61C98.7176 117.61 98.4919 117.478 98.4166 117.233L97.4571 114.147C97.4571 114.147 97.4007 114.016 97.3254 114.016C97.2501 114.016 97.2125 114.053 97.1937 114.166L96.6105 117.742H95.8767H95.8955ZM102.612 113.583C102.612 113.357 102.819 113.169 103.064 113.169C103.308 113.169 103.515 113.357 103.515 113.583C103.515 113.809 103.308 113.997 103.064 113.997C102.819 113.997 102.612 113.809 102.612 113.583ZM103.421 114.618V117.742H102.725V114.618H103.421ZM103.986 116.18C103.986 115.239 104.757 114.543 105.792 114.543C106.262 114.543 106.676 114.731 106.958 115.013V113.188H107.673V116.198C107.673 117.121 106.883 117.836 105.829 117.836C104.776 117.836 103.986 117.102 103.986 116.198V116.18ZM106.977 116.18C106.977 115.615 106.488 115.145 105.829 115.145C105.171 115.145 104.682 115.615 104.682 116.18C104.682 116.744 105.19 117.233 105.829 117.233C106.469 117.233 106.977 116.763 106.977 116.18ZM108.087 116.18C108.087 115.239 108.858 114.543 109.893 114.543C110.364 114.543 110.778 114.731 111.06 115.013V113.188H111.775V116.198C111.775 117.121 110.984 117.836 109.931 117.836C108.877 117.836 108.087 117.102 108.087 116.198V116.18ZM111.079 116.18C111.079 115.615 110.589 115.145 109.931 115.145C109.272 115.145 108.783 115.615 108.783 116.18C108.783 116.744 109.291 117.233 109.931 117.233C110.571 117.233 111.079 116.763 111.079 116.18ZM113.261 113.188V117.742H112.565V113.188H113.261ZM113.825 116.161C113.825 115.258 114.54 114.524 115.575 114.524C116.61 114.524 117.268 115.201 117.268 116.086V116.349H114.503C114.578 116.876 115.03 117.252 115.65 117.252C116.083 117.252 116.459 117.083 116.666 116.744L117.212 116.989C116.911 117.516 116.347 117.817 115.669 117.817C114.616 117.817 113.825 117.121 113.825 116.161ZM116.572 115.935C116.535 115.446 116.14 115.107 115.575 115.107C115.011 115.107 114.616 115.483 114.54 115.935H116.572ZM120.222 117.742C119.733 117.742 119.564 117.516 119.564 117.158V114.053C119.564 113.696 119.733 113.47 120.222 113.47H122.819V114.053H120.279V115.295H122.687V115.879H120.279V117.121H122.875V117.704H120.222V117.742ZM123.176 116.18C123.176 115.295 123.966 114.543 125.02 114.543C126.073 114.543 126.864 115.239 126.864 116.18V117.742H126.205V117.196C125.942 117.572 125.49 117.817 124.926 117.817C123.929 117.817 123.195 117.083 123.195 116.18H123.176ZM126.168 116.18C126.168 115.615 125.678 115.126 125.02 115.126C124.361 115.126 123.872 115.596 123.872 116.18C123.872 116.763 124.38 117.215 125.02 117.215C125.66 117.215 126.168 116.744 126.168 116.18ZM127.353 117.121L127.898 116.857C128.068 117.177 128.35 117.29 128.745 117.29C129.14 117.29 129.441 117.139 129.441 116.876C129.441 116.217 127.466 116.725 127.466 115.521C127.466 114.975 128.011 114.58 128.764 114.58C129.404 114.58 129.836 114.844 130.062 115.22L129.516 115.502C129.366 115.22 129.084 115.126 128.764 115.126C128.444 115.126 128.162 115.276 128.162 115.521C128.162 116.161 130.137 115.69 130.137 116.876C130.137 117.459 129.498 117.836 128.764 117.836C128.124 117.836 127.635 117.61 127.353 117.139V117.121ZM130.871 116.612V115.163H130.194V114.618H130.871V113.809H131.567V114.618H132.903V115.163H131.567V116.594C131.567 117.008 131.831 117.252 132.245 117.252C132.47 117.252 132.715 117.177 132.884 117.064V117.647C132.715 117.76 132.433 117.817 132.169 117.817C131.304 117.817 130.852 117.328 130.852 116.612H130.871ZM135.669 117.742C135.236 117.742 135.01 117.516 135.01 117.252C135.01 117.064 135.104 116.876 135.311 116.725L136.722 115.596C137.117 115.276 137.324 115.051 137.324 114.693C137.324 114.317 136.967 114.034 136.497 114.034C136.026 114.034 135.65 114.298 135.443 114.674L134.879 114.392C135.198 113.809 135.782 113.413 136.553 113.413C137.437 113.413 138.058 113.959 138.058 114.637C138.058 115.145 137.795 115.54 137.362 115.897L135.97 117.026C135.97 117.026 135.876 117.102 135.876 117.139C135.876 117.158 135.876 117.177 135.913 117.177H138.19V117.779H135.688L135.669 117.742ZM138.528 115.596C138.528 114.354 139.3 113.395 140.429 113.395C141.558 113.395 142.329 114.354 142.329 115.596C142.329 116.838 141.558 117.817 140.429 117.817C139.3 117.817 138.528 116.838 138.528 115.596ZM141.595 115.596C141.595 114.731 141.106 114.053 140.429 114.053C139.751 114.053 139.262 114.731 139.262 115.596C139.262 116.462 139.751 117.158 140.429 117.158C141.106 117.158 141.595 116.462 141.595 115.596ZM143.439 117.742C143.006 117.742 142.78 117.516 142.78 117.252C142.78 117.064 142.875 116.876 143.082 116.725L144.493 115.596C144.888 115.276 145.095 115.051 145.095 114.693C145.095 114.317 144.737 114.034 144.267 114.034C143.796 114.034 143.42 114.298 143.213 114.674L142.649 114.392C142.969 113.809 143.552 113.413 144.323 113.413C145.207 113.413 145.828 113.959 145.828 114.637C145.828 115.145 145.565 115.54 145.132 115.897L143.74 117.026C143.74 117.026 143.646 117.102 143.646 117.139C143.646 117.158 143.646 117.177 143.684 117.177H145.96V117.779H143.458L143.439 117.742ZM146.995 117.742C146.562 117.742 146.336 117.516 146.336 117.252C146.336 117.064 146.43 116.876 146.637 116.725L148.048 115.596C148.444 115.276 148.651 115.051 148.651 114.693C148.651 114.317 148.293 114.034 147.823 114.034C147.352 114.034 146.976 114.298 146.769 114.674L146.205 114.392C146.524 113.809 147.108 113.413 147.879 113.413C148.763 113.413 149.384 113.959 149.384 114.637C149.384 115.145 149.121 115.54 148.688 115.897L147.296 117.026C147.296 117.026 147.202 117.102 147.202 117.139C147.202 117.158 147.202 117.177 147.239 117.177H149.516V117.779H147.014L146.995 117.742Z" fill="#EBAA01"/>
<path d="M80.9009 62.3991V24.5192C80.9009 24.5192 80.7315 24.5945 80.6563 24.6698L67.9755 30.7855L62.3877 20.2853L77.8906 12.89C80.5622 11.6104 83.4784 10.6318 85.9807 10.6318C90.2327 10.6318 93.0736 13.191 93.0736 17.7261V62.4179H80.9009V62.3991Z" fill="#EBAA01"/>
<path d="M98.3975 44.9744L100.448 43.9206C100.862 44.6356 101.502 44.9367 102.48 44.9367C103.383 44.9367 103.948 44.6168 103.948 44.1087C103.948 42.6786 98.6233 43.9206 98.6233 40.5146C98.6233 38.9339 100.147 37.6919 102.537 37.6919C104.606 37.6919 105.867 38.5764 106.45 39.5925L104.399 40.6463C104.079 40.0065 103.383 39.7054 102.593 39.7054C101.916 39.7054 101.389 40.0065 101.389 40.4769C101.389 41.9071 106.713 40.7592 106.713 44.0711C106.713 45.84 104.813 46.9878 102.593 46.9878C100.58 46.9878 99.1689 46.3104 98.3599 44.9932L98.3975 44.9744ZM108.501 43.2431V40.063H106.713V37.9366H108.501V35.6973H111.285V37.9366H114.709V40.063H111.285V43.1679C111.285 44.1464 111.925 44.7109 112.96 44.7109C113.524 44.7109 114.258 44.5604 114.728 44.2781V46.5362C114.239 46.8185 113.392 46.969 112.715 46.969C109.912 46.969 108.52 45.4448 108.52 43.2431H108.501ZM99.4135 62.4183V50.4503H104.061C107.805 50.4503 110.1 52.031 110.1 54.7972C110.1 57.5634 107.842 59.2381 104.211 59.2381H102.273V62.3807H99.4135V62.4183ZM102.273 52.8589V56.8483H104.136C106.017 56.8483 107.146 56.1897 107.146 54.7972C107.146 53.4047 106.017 52.8401 104.136 52.8401H102.273V52.8589ZM113.562 60.0285H119.714V62.4183H113.223C111.398 62.4183 110.702 61.5715 110.702 60.1978V50.4503H113.562V60.0096V60.0285ZM124.06 52.1439C124.512 50.8455 125.697 50.2245 126.92 50.2245C128.143 50.2245 129.347 50.8455 129.798 52.1439L133.298 62.4183H130.382L129.61 59.972H124.248L123.477 62.4183H120.561L124.06 52.1439ZM125.001 57.6574H128.858L127.371 52.9154C127.296 52.6708 127.183 52.5579 126.939 52.5579C126.732 52.5579 126.581 52.6708 126.506 52.9154L125.001 57.6574ZM132.771 56.4531C132.771 52.9907 135.762 50.2245 139.619 50.2245C141.915 50.2245 144.116 51.3347 145.094 53.1977L142.761 54.3832C142.122 53.3482 141.087 52.6896 139.507 52.6896C137.305 52.6896 135.725 54.2703 135.725 56.4343C135.725 58.5983 137.286 60.179 139.507 60.179C141.087 60.179 142.159 59.5204 142.761 58.4854L145.094 59.6709C144.116 61.5339 141.915 62.6441 139.619 62.6441C135.781 62.6441 132.771 59.8967 132.771 56.4155V56.4531ZM148.18 62.4183C146.355 62.4183 145.659 61.5715 145.659 60.1978V52.6896C145.659 51.3159 146.374 50.4503 148.18 50.4503H155.16V52.7837H148.518V55.2676H154.746V57.601H148.518V60.0849H155.292V62.4183H148.199H148.18Z" fill="#EBAA01"/>
</g>
<defs>
<clipPath id="clip0_351_6866">
<rect width="218" height="120" fill="white"/>
</clipPath>
</defs>
</svg>
