<svg width="218" height="120" viewBox="0 0 218 120" fill="none" xmlns="http://www.w3.org/2000/svg">
<g clip-path="url(#clip0_351_8334)">
<path d="M51.247 116.234C49.7929 117.763 41.5531 112.561 38.906 108.086C38.906 108.086 37.4332 105.625 37.1163 102.157C37.079 101.84 37.1163 101.504 37.1723 101.187C37.2095 100.982 37.3214 100.796 37.5078 100.311C37.8807 100.441 38.2908 100.516 38.6636 100.628C38.6636 100.628 39.2042 100.814 39.7262 101.094C45.2443 103.965 48.7303 109.783 48.7303 109.783C50.4081 112.579 52.0672 115.357 51.247 116.234Z" fill="#966034"/>
<path d="M27.5154 12.884C27.9628 4.71746 38.1973 -1.80833 47.5556 0.44773C41.9443 6.56333 36.6127 12.4738 27.5154 12.884Z" fill="#966034"/>
<path d="M15.7522 85.9912C9.89859 78.1976 10.3833 69.4903 16.7216 64.2883C20.6551 71.6345 17.4673 78.4586 15.7522 85.9912Z" fill="#966034"/>
<path d="M10.1596 70.87C6.61759 61.8271 9.43253 53.4182 16.8521 50.1553C18.6417 58.3218 13.7575 64.1205 10.1596 70.87Z" fill="#966034"/>
<path d="M11.8562 38.4276C12.7324 29.5712 20.357 22.9708 27.6274 24.5557C26.5275 29.7017 20.9162 34.68 11.8562 38.4276Z" fill="#966034"/>
<path d="M8.94737 54.5559C7.66107 45.196 13.1978 36.8616 20.7291 36.7498C20.0767 44.8604 14.1299 49.2233 8.94737 54.5559Z" fill="#966034"/>
<path d="M38.1978 14.5811C33.4627 21.4239 26.0432 22.1697 19.071 24.1647C20.3387 17.4525 31.0579 10.6283 38.1978 14.5811Z" fill="#966034"/>
<path d="M20.4687 78.0859C25.9121 84.127 24.8495 91.4731 25.0546 98.7447C17.4486 94.3631 15.3607 82.6167 20.4687 78.0859Z" fill="#966034"/>
<path d="M22.8174 99.9193C15.2115 99.9566 7.77333 93.2443 6.0769 84.7981C14.3726 86.7185 18.7908 93.0392 22.8174 99.9193Z" fill="#966034"/>
<path d="M37.5637 109.465C28.8019 105.829 25.0176 98.6508 27.236 90.0554C34.3386 94.6235 35.1962 102.026 37.5637 109.465Z" fill="#966034"/>
<path d="M50.5753 117.8C45.0386 122.61 32.6417 118.807 28.615 113.25C36.7802 110.603 43.6778 114.276 50.5753 117.8Z" fill="#966034"/>
<path d="M5.72259 30.8953C10.1967 38.372 8.81717 45.8859 6.84111 53.4186C1.41628 49.2421 0.894304 39.6025 5.72259 30.8953Z" fill="#966034"/>
<path d="M14.9878 15.3076C17.5045 23.5488 13.7015 30.3729 10.1409 37.0851C5.83456 32.0882 8.29531 20.6028 14.9878 15.3076Z" fill="#966034"/>
<path d="M8.03454 70.3859C1.32341 66.7687 -1.84574 56.9614 1.0997 48.8694C7.60577 54.724 7.38207 62.7041 8.03454 70.3859Z" fill="#966034"/>
<path d="M17.4676 22.4494C14.7832 16.1101 20.6927 5.40777 28.4478 2.27539C26.8073 7.51467 27.0683 13.015 22.3705 16.7626C20.5063 18.2543 19.2013 20.4171 17.4676 22.4681V22.4494Z" fill="#966034"/>
<path d="M1.11796 67.1045C8.76119 71.1691 11.1101 78.4967 13.3099 85.7869C6.7665 85.3208 0.577339 75.9982 1.11796 67.1045Z" fill="#966034"/>
<path d="M35.6433 110.77C28 112.728 19.8721 108.533 14.9692 99.8071C19.2755 101.019 23.3395 101.522 26.7137 103.294C29.9947 105.028 32.5487 108.104 35.6619 110.77H35.6433Z" fill="#966034"/>
<path d="M166.753 116.233C168.207 117.762 176.447 112.56 179.094 108.086C179.094 108.086 180.567 105.624 180.884 102.156C180.921 101.839 180.884 101.504 180.828 101.187C180.791 100.982 180.679 100.795 180.493 100.311C180.12 100.441 179.71 100.516 179.337 100.628C179.337 100.628 178.796 100.814 178.274 101.094C172.756 103.965 169.27 109.782 169.27 109.782C167.592 112.579 165.933 115.357 166.753 116.233Z" fill="#966034"/>
<path d="M190.485 12.8838C190.038 4.71722 179.803 -1.80857 170.445 0.447486C176.056 6.56308 181.388 12.4736 190.485 12.8838Z" fill="#966034"/>
<path d="M202.248 85.991C208.102 78.1973 207.617 69.4901 201.279 64.2881C197.345 71.6343 200.533 78.4584 202.248 85.991Z" fill="#966034"/>
<path d="M207.84 70.8698C211.382 61.8269 208.567 53.4179 201.148 50.155C199.358 58.3216 204.242 64.1202 207.84 70.8698Z" fill="#966034"/>
<path d="M206.144 38.4274C205.268 29.5709 197.643 22.9706 190.373 24.5554C191.473 29.7015 197.084 34.6797 206.144 38.4274Z" fill="#966034"/>
<path d="M209.052 54.5556C210.338 45.1958 204.801 36.8614 197.27 36.7495C197.922 44.8601 203.869 49.2231 209.052 54.5556Z" fill="#966034"/>
<path d="M179.803 14.5809C184.538 21.4236 191.958 22.1694 198.93 24.1645C197.662 17.4522 186.943 10.6281 179.803 14.5809Z" fill="#966034"/>
<path d="M197.531 78.0857C192.088 84.1267 193.15 91.4729 192.945 98.7445C200.551 94.3629 202.639 82.6165 197.531 78.0857Z" fill="#966034"/>
<path d="M195.183 99.919C202.789 99.9563 210.227 93.2441 211.923 84.7979C203.628 86.7183 199.21 93.039 195.183 99.919Z" fill="#966034"/>
<path d="M180.436 109.465C189.198 105.829 192.982 98.6506 190.764 90.0552C183.661 94.6232 182.804 102.025 180.436 109.465Z" fill="#966034"/>
<path d="M167.424 117.8C172.961 122.61 185.358 118.806 189.385 113.25C181.219 110.603 174.322 114.276 167.424 117.8Z" fill="#966034"/>
<path d="M212.277 30.895C207.803 38.3717 209.183 45.8857 211.159 53.4183C216.584 49.2418 217.106 39.6023 212.277 30.895Z" fill="#966034"/>
<path d="M203.012 15.3074C200.495 23.5485 204.298 30.3726 207.859 37.0849C212.165 32.088 209.704 20.6026 203.012 15.3074Z" fill="#966034"/>
<path d="M209.966 70.3856C216.677 66.7685 219.846 56.9611 216.9 48.8691C210.394 54.7237 210.618 62.7038 209.966 70.3856Z" fill="#966034"/>
<path d="M200.533 22.4492C203.218 16.1098 197.308 5.40753 189.553 2.27515C191.193 7.51442 190.932 13.0147 195.63 16.7624C197.494 18.254 198.799 20.4168 200.533 22.4678V22.4492Z" fill="#966034"/>
<path d="M216.881 67.1042C209.238 71.1689 206.889 78.4964 204.689 85.7866C211.233 85.3205 217.422 75.998 216.881 67.1042Z" fill="#966034"/>
<path d="M182.375 110.77C190.018 112.728 198.146 108.533 203.049 99.8069C198.743 101.019 194.679 101.522 191.305 103.294C188.024 105.028 185.47 108.104 182.356 110.77H182.375Z" fill="#966034"/>
<path d="M31.5424 66.1902C32.1203 64.4562 33.7422 63.6358 35.364 63.6358C36.9859 63.6358 38.6077 64.4562 39.1856 66.1902L43.2123 78.1044H38.8314L38.1044 75.7179H32.6236L31.8779 78.1044H27.4971L31.5238 66.1902H31.5424ZM33.6862 72.2499H37.0418L35.5691 67.3276C35.5318 67.1784 35.4759 67.1225 35.3827 67.1225C35.2894 67.1225 35.2522 67.1784 35.1962 67.3276L33.6862 72.2499ZM43.2123 71.7092V63.9528H47.5V71.5973C47.5 73.7788 48.4321 74.6737 50.3336 74.6737C52.2351 74.6737 53.1858 73.7788 53.1858 71.5973V63.9528H57.4735V71.7092C57.4735 75.9043 55.2364 78.3468 50.3336 78.3468C45.4307 78.3468 43.231 75.8857 43.231 71.7092H43.2123ZM71.2686 67.514H66.8504V78.1044H62.5627V67.514H58.1446V63.9528H71.2686V67.514ZM71.1567 71.0379C71.1567 66.8241 74.6801 63.6545 79.3965 63.6545C84.1129 63.6545 87.6363 66.8241 87.6363 71.0379C87.6363 75.2517 84.1129 78.4214 79.3965 78.4214C74.6801 78.4214 71.1567 75.2517 71.1567 71.0379ZM83.2554 71.0379C83.2554 68.9497 81.5963 67.3276 79.4151 67.3276C77.234 67.3276 75.5749 68.9497 75.5749 71.0379C75.5749 73.1262 77.234 74.7483 79.4151 74.7483C81.5963 74.7483 83.2554 73.1262 83.2554 71.0379ZM88.9226 78.1044V66.0224C88.9226 64.5122 90.2275 63.6172 91.5884 63.6172C92.6696 63.6172 93.6204 63.9528 94.1796 64.7545L99.6977 72.6601V63.9528H103.743V76.0348C103.743 77.5451 102.438 78.4214 101.077 78.4214C100.015 78.4214 99.0452 78.0858 98.486 77.2841L92.9679 69.3785V78.1044H88.9226ZM105.011 71.0379C105.011 66.8241 108.534 63.6545 113.25 63.6545C117.967 63.6545 121.49 66.8241 121.49 71.0379C121.49 75.2517 117.967 78.4214 113.25 78.4214C108.534 78.4214 105.011 75.2517 105.011 71.0379ZM117.109 71.0379C117.109 68.9497 115.45 67.3276 113.269 67.3276C111.088 67.3276 109.429 68.9497 109.429 71.0379C109.429 73.1262 111.088 74.7483 113.269 74.7483C115.45 74.7483 117.109 73.1262 117.109 71.0379ZM121.975 78.1044L124.044 66.2089C124.342 64.5308 125.647 63.6358 127.512 63.6358C129.133 63.6358 130.494 64.2698 130.942 65.836L133.067 73.3499L135.173 65.9105C135.621 64.3443 137.019 63.6545 138.697 63.6545C140.524 63.6545 141.773 64.5867 142.052 66.3021L143.898 78.1231H139.573L138.324 68.148L135.845 76.3332C135.453 77.5824 134.372 78.1977 133.067 78.1977C131.762 78.1977 130.643 77.6197 130.289 76.4077L127.829 68.1293L126.319 78.1231H121.975V78.1044ZM144.364 71.0379C144.364 66.8241 147.887 63.6545 152.604 63.6545C157.32 63.6545 160.844 66.8241 160.844 71.0379C160.844 75.2517 157.32 78.4214 152.604 78.4214C147.887 78.4214 144.364 75.2517 144.364 71.0379ZM156.444 71.0379C156.444 68.9497 154.785 67.3276 152.604 67.3276C150.423 67.3276 148.764 68.9497 148.764 71.0379C148.764 73.1262 150.423 74.7483 152.604 74.7483C154.785 74.7483 156.444 73.1262 156.444 71.0379ZM161.888 71.7092V63.9528H166.175V71.5973C166.175 73.7788 167.107 74.6737 169.009 74.6737C170.91 74.6737 171.861 73.7788 171.861 71.5973V63.9528H176.149V71.7092C176.149 75.9043 173.912 78.3468 169.009 78.3468C164.106 78.3468 161.906 75.8857 161.906 71.7092H161.888ZM177.342 75.2331L180.902 73.611C181.35 74.4686 182.226 74.8602 183.68 74.8602C184.817 74.8602 185.675 74.5432 185.675 73.872C185.675 73.033 184.743 72.9025 183.345 72.716C181.014 72.399 177.584 71.5787 177.584 68.2039C177.584 65.6122 180.157 63.6172 183.624 63.6172C186.365 63.6172 188.676 64.7359 189.739 66.8241L186.178 68.4463C185.731 67.7564 184.91 67.1971 183.438 67.1971C182.412 67.1971 181.872 67.4954 181.872 68.0734C181.872 68.8751 182.897 69.1175 184.426 69.3226C186.737 69.6396 189.981 70.4413 189.981 73.8347C189.981 76.4264 187.185 78.4214 183.699 78.4214C180.735 78.4214 178.423 77.3027 177.36 75.2145L177.342 75.2331Z" fill="#966034"/>
<path d="M49.5323 93.4678V83.6419H53.3539C56.4299 83.6419 58.3127 84.947 58.3127 87.2217C58.3127 89.4964 56.4485 90.8762 53.4658 90.8762H51.8626V93.4678H49.5137H49.5323ZM51.8999 85.6182V88.8998H53.4285C54.9758 88.8998 55.9079 88.3591 55.9079 87.2217C55.9079 86.0844 54.9758 85.6182 53.4285 85.6182H51.8999ZM59.4126 93.4678V83.6419H63.5884C66.0305 83.6419 67.932 84.686 67.932 86.7742C67.932 88.1167 67.0558 89.1608 65.6763 89.4964C66.3661 89.8507 66.7762 90.5219 67.3355 91.5474L68.3794 93.4865H65.8255L64.8561 91.7338C64.3527 90.8202 63.8867 90.3541 62.6563 90.3541H61.7428V93.4865H59.4126V93.4678ZM61.7801 85.6182V88.4337H63.6071C64.7256 88.4337 65.5272 87.9116 65.5272 86.998C65.5272 86.0844 64.7069 85.6182 63.6443 85.6182H61.7801ZM68.8641 88.5642C68.8641 85.6742 71.3062 83.4741 74.5126 83.4741C77.7191 83.4741 80.1798 85.6742 80.1798 88.5642C80.1798 91.4542 77.7191 93.6543 74.5126 93.6543C71.3062 93.6543 68.8641 91.4728 68.8641 88.5642ZM77.7377 88.5642C77.7377 86.8302 76.3396 85.4877 74.5126 85.4877C72.6857 85.4877 71.2876 86.8302 71.2876 88.5642C71.2876 90.2982 72.7044 91.6406 74.5126 91.6406C76.3209 91.6406 77.7377 90.2982 77.7377 88.5642ZM80.4595 88.5642C80.4595 85.7301 82.8829 83.4741 86.0893 83.4741C87.9349 83.4741 89.7805 84.3131 90.5821 85.8979L88.662 86.8675C88.1213 85.9911 87.2824 85.4691 85.9775 85.4691C84.1506 85.4691 82.8643 86.8115 82.8643 88.6015C82.8643 90.3914 84.1692 91.7338 86.0707 91.7338C87.1333 91.7338 87.9163 91.4915 88.401 91.0253V88.8439H90.6753V91.7338C89.8923 92.8153 88.2145 93.6729 86.0707 93.6729C82.9016 93.6729 80.4408 91.3982 80.4408 88.5642H80.4595ZM92.0921 93.4678V83.6419H96.2679C98.71 83.6419 100.611 84.686 100.611 86.7742C100.611 88.1167 99.7353 89.1608 98.3558 89.4964C99.0456 89.8507 99.4557 90.5219 100.015 91.5474L101.059 93.4865H98.5049L97.5356 91.7338C97.0322 90.8202 96.5662 90.3541 95.3358 90.3541H94.4223V93.4865H92.0921V93.4678ZM94.441 85.6182V88.4337H96.2679C97.3864 88.4337 98.188 87.9116 98.188 86.998C98.188 86.0844 97.3678 85.6182 96.3052 85.6182H94.441ZM104.247 85.0216C104.62 83.9588 105.589 83.4368 106.596 83.4368C107.602 83.4368 108.59 83.9402 108.963 85.0216L111.834 93.4492H109.429L108.795 91.4355H104.396L103.762 93.4492H101.357L104.228 85.0216H104.247ZM105.011 89.5524H108.18L106.95 85.6555C106.894 85.4504 106.782 85.3572 106.596 85.3572C106.409 85.3572 106.297 85.4504 106.241 85.6555L104.992 89.5524H105.011ZM112.188 93.4678L113.661 85.0216C113.847 83.9961 114.649 83.4554 115.749 83.4554C116.718 83.4554 117.538 83.8283 117.799 84.7792L119.626 90.9135V90.9507C119.626 90.9507 119.664 90.9507 119.664 90.9135L121.453 84.8352C121.733 83.8843 122.572 83.4554 123.541 83.4554C124.622 83.4554 125.387 84.0148 125.555 85.0589L126.897 93.4678H124.511L123.467 85.7674C123.467 85.7674 123.467 85.6555 123.392 85.6555C123.336 85.6555 123.317 85.6928 123.299 85.7488L121.286 92.2559C121.062 93.0017 120.409 93.3746 119.645 93.3746C118.881 93.3746 118.21 93.0204 118.023 92.3118L116.01 85.7674C116.01 85.7674 115.954 85.6742 115.935 85.6742C115.879 85.6742 115.842 85.7115 115.842 85.7674L114.612 93.4865H112.225L112.188 93.4678ZM127.587 93.4678L129.059 85.0216C129.246 83.9961 130.047 83.4554 131.147 83.4554C132.117 83.4554 132.937 83.8283 133.198 84.7792L135.025 90.9135V90.9507C135.025 90.9507 135.062 90.9507 135.062 90.9135L136.852 84.8352C137.131 83.8843 137.97 83.4554 138.94 83.4554C140.021 83.4554 140.785 84.0148 140.953 85.0589L142.295 93.4678H139.909L138.865 85.7674C138.865 85.7674 138.865 85.6555 138.79 85.6555C138.734 85.6555 138.716 85.6928 138.697 85.7488L136.684 92.2559C136.46 93.0017 135.808 93.3746 135.043 93.3746C134.279 93.3746 133.608 93.0204 133.421 92.3118L131.408 85.7674C131.408 85.7674 131.352 85.6742 131.334 85.6742C131.278 85.6742 131.24 85.7115 131.24 85.7674L130.01 93.4865H127.624L127.587 93.4678ZM146.042 83.6419V93.4678H143.693V83.6419H146.042ZM148.018 93.4678V84.9843C148.018 84.0148 148.801 83.4368 149.696 83.4368C150.404 83.4368 150.964 83.6605 151.318 84.2012L155.606 90.8575V83.6419H157.824V92.1254C157.824 93.0949 157.041 93.6543 156.183 93.6543C155.494 93.6543 154.897 93.4306 154.543 92.8898L150.255 86.1962V93.4678H148.018ZM158.942 88.5642C158.942 85.7301 161.366 83.4741 164.572 83.4741C166.418 83.4741 168.263 84.3131 169.065 85.8979L167.145 86.8675C166.604 85.9911 165.765 85.4691 164.46 85.4691C162.634 85.4691 161.347 86.8115 161.347 88.6015C161.347 90.3914 162.652 91.7338 164.554 91.7338C165.616 91.7338 166.399 91.4915 166.884 91.0253V88.8439H169.158V91.7338C168.375 92.8153 166.698 93.6729 164.554 93.6729C161.385 93.6729 158.924 91.3982 158.924 88.5642H158.942Z" fill="#966034"/>
<path d="M56.5791 103.723C56.5791 100.87 59.0398 98.6139 62.209 98.6139C64.0918 98.6139 65.9001 99.5275 66.7017 101.056L64.7816 102.026C64.241 101.187 63.4021 100.646 62.0971 100.646C60.2889 100.646 58.9839 101.951 58.9839 103.723C58.9839 105.494 60.2702 106.799 62.0971 106.799C63.4021 106.799 64.2783 106.258 64.7816 105.419L66.7017 106.389C65.9001 107.918 64.0918 108.831 62.209 108.831C59.0398 108.831 56.5791 106.575 56.5791 103.723ZM66.6458 103.723C66.6458 100.833 69.0879 98.6325 72.2943 98.6325C75.5008 98.6325 77.9615 100.833 77.9615 103.723C77.9615 106.613 75.5194 108.813 72.2943 108.813C69.0693 108.813 66.6458 106.631 66.6458 103.723ZM75.5194 103.723C75.5194 101.989 74.1213 100.646 72.2943 100.646C70.4674 100.646 69.0693 101.989 69.0693 103.723C69.0693 105.457 70.4861 106.799 72.2943 106.799C74.1026 106.799 75.5194 105.457 75.5194 103.723ZM78.4462 108.626L79.9189 100.18C80.1053 99.1546 80.907 98.6139 82.0068 98.6139C82.9762 98.6139 83.7965 98.9868 84.0575 99.9377L85.8844 106.072V106.109C85.8844 106.109 85.9217 106.109 85.9217 106.072L87.7113 99.9936C87.9909 99.0427 88.8298 98.6139 89.7992 98.6139C90.8804 98.6139 91.6448 99.1732 91.8126 100.217L93.1548 108.626H90.7686L89.7246 100.926C89.7246 100.926 89.7246 100.814 89.6501 100.814C89.5941 100.814 89.5755 100.851 89.5569 100.907L87.5435 107.414C87.3198 108.16 86.6674 108.533 85.903 108.533C85.1387 108.533 84.4676 108.179 84.2812 107.47L82.2678 100.926C82.2678 100.926 82.2119 100.833 82.1933 100.833C82.1373 100.833 82.1001 100.87 82.1001 100.926L80.8697 108.645H78.4835L78.4462 108.626ZM94.5529 108.626V98.8003H98.3745C101.45 98.8003 103.333 100.105 103.333 102.38C103.333 104.655 101.488 106.035 98.4864 106.035H96.8832V108.626H94.5343H94.5529ZM96.9018 100.758V104.04H98.4305C99.9778 104.04 100.91 103.499 100.91 102.362C100.91 101.224 99.9778 100.758 98.4305 100.758H96.9018ZM106.353 108.626C104.862 108.626 104.265 107.918 104.265 106.799V100.646C104.265 99.5275 104.843 98.8003 106.353 98.8003H112.095V100.721H106.633V102.772H111.76V104.692H106.633V106.743H112.188V108.664H106.353V108.626ZM121.192 100.758H118.005V108.608H115.656V100.758H112.468V98.7817H121.211V100.758H121.192ZM124.436 98.8003V108.626H122.087V98.8003H124.436ZM134.018 100.758H130.83V108.608H128.481V100.758H125.294V98.7817H134.037V100.758H134.018ZM137.262 98.8003V108.626H134.913V98.8003H137.262ZM138.455 103.723C138.455 100.833 140.897 98.6325 144.103 98.6325C147.31 98.6325 149.771 100.833 149.771 103.723C149.771 106.613 147.31 108.813 144.103 108.813C140.897 108.813 138.455 106.631 138.455 103.723ZM147.31 103.723C147.31 101.989 145.912 100.646 144.085 100.646C142.258 100.646 140.86 101.989 140.86 103.723C140.86 105.457 142.277 106.799 144.085 106.799C145.893 106.799 147.31 105.457 147.31 103.723ZM150.833 108.626V100.143C150.833 99.1732 151.616 98.5952 152.511 98.5952C153.219 98.5952 153.779 98.819 154.133 99.3783L158.421 106.035V98.8003H160.639V107.284C160.639 108.253 159.856 108.813 158.998 108.813C158.309 108.813 157.712 108.589 157.358 108.048L153.07 101.355V108.626H150.833Z" fill="#966034"/>
<path d="M69.237 117.298L69.8522 117.036C70.0386 117.409 70.4301 117.615 70.9893 117.615C71.5486 117.615 71.9587 117.372 71.9587 116.962C71.9587 116.496 71.474 116.402 70.9148 116.309C70.2064 116.179 69.3116 115.973 69.3116 115.06C69.3116 114.351 70.02 113.81 70.9148 113.81C71.6418 113.81 72.2756 114.109 72.5553 114.705L71.9587 114.985C71.7723 114.631 71.3995 114.407 70.8775 114.407C70.3928 114.407 70.0013 114.668 70.0013 115.022C70.0013 115.489 70.5047 115.582 71.0826 115.694C71.791 115.824 72.6485 116.029 72.6485 116.943C72.6485 117.708 71.9028 118.23 70.9521 118.23C70.1505 118.23 69.4793 117.913 69.1997 117.316L69.237 117.298ZM73.3569 118.137V113.568H74.0466V115.358C74.3076 115.097 74.7364 114.929 75.2024 114.929C76.2091 114.929 76.787 115.545 76.787 116.496V118.137H76.0973V116.57C76.0973 116.011 75.7617 115.526 75.1092 115.526C74.494 115.526 74.0653 115.973 74.0653 116.589V118.137H73.3755H73.3569ZM77.2158 116.552C77.2158 115.656 77.9242 114.911 78.9681 114.911C80.0121 114.911 80.6646 115.601 80.6646 116.477V116.738H77.9055C77.9801 117.279 78.4275 117.652 79.0613 117.652C79.4901 117.652 79.863 117.484 80.068 117.148L80.6086 117.391C80.3104 117.932 79.7511 118.211 79.08 118.211C78.036 118.211 77.2531 117.521 77.2531 116.552H77.2158ZM79.9562 116.328C79.9189 115.824 79.5274 115.489 78.9495 115.489C78.3716 115.489 77.9801 115.862 77.9055 116.328H79.9375H79.9562ZM81.9695 113.568V118.137H81.2797V113.568H81.9695ZM83.5914 113.568V118.137H82.9016V113.568H83.5914ZM86.8351 118.137C86.3504 118.137 86.164 117.913 86.164 117.54V114.426C86.164 114.053 86.3317 113.829 86.8351 113.829H89.4263V114.426H86.891V115.675H89.2958V116.272H86.891V117.521H89.4822V118.118H86.8351V118.137ZM89.7992 116.57C89.7992 115.675 90.6194 114.929 91.6074 114.929C92.2413 114.929 92.8192 115.19 93.1361 115.75L92.5582 116.048C92.3531 115.712 91.9989 115.526 91.6074 115.526C90.9922 115.526 90.5076 115.992 90.5076 116.57C90.5076 117.148 91.0109 117.615 91.6074 117.615C92.0176 117.615 92.3531 117.428 92.5582 117.092L93.1361 117.372C92.8192 117.95 92.2413 118.193 91.6074 118.193C90.6194 118.193 89.7992 117.465 89.7992 116.552V116.57ZM93.2852 116.57C93.2852 115.675 94.1055 114.929 95.1308 114.929C96.1561 114.929 96.9577 115.675 96.9577 116.57C96.9577 117.465 96.1561 118.23 95.1308 118.23C94.1055 118.23 93.2852 117.484 93.2852 116.57ZM96.2866 116.57C96.2866 115.992 95.7833 115.526 95.1494 115.526C94.5156 115.526 93.9936 115.992 93.9936 116.57C93.9936 117.148 94.497 117.615 95.1494 117.615C95.8019 117.615 96.2866 117.148 96.2866 116.57ZM100.127 116.458H97.6847V115.88H100.127V116.458ZM106.95 116.496V118.155H106.26V116.608C106.26 116.029 105.943 115.545 105.309 115.545C104.676 115.545 104.359 116.029 104.359 116.608V118.174H103.669V116.608C103.669 116.029 103.352 115.545 102.718 115.545C102.084 115.545 101.786 116.048 101.786 116.608V118.155H101.096V116.514C101.096 115.638 101.655 114.929 102.681 114.929C103.371 114.929 103.874 115.246 104.042 115.731C104.228 115.246 104.713 114.929 105.384 114.929C106.428 114.929 106.987 115.638 106.987 116.496H106.95ZM107.379 116.57C107.379 115.675 108.162 114.929 109.224 114.929C110.287 114.929 111.07 115.638 111.07 116.57V118.137H110.399V117.577C110.138 117.969 109.672 118.211 109.112 118.211C108.106 118.211 107.379 117.465 107.379 116.552V116.57ZM110.361 116.57C110.361 115.992 109.858 115.526 109.224 115.526C108.59 115.526 108.087 115.992 108.087 116.57C108.087 117.148 108.59 117.615 109.224 117.615C109.858 117.615 110.361 117.148 110.361 116.57ZM111.704 118.137V116.272C111.704 115.507 112.188 114.948 113.083 114.948C113.307 114.948 113.53 114.985 113.698 115.06V115.694C113.53 115.601 113.325 115.563 113.139 115.563C112.673 115.563 112.393 115.843 112.393 116.309V118.155H111.704V118.137ZM113.661 116.57C113.661 115.675 114.444 114.929 115.507 114.929C116.569 114.929 117.352 115.638 117.352 116.57V118.137H116.681V117.577C116.42 117.969 115.954 118.211 115.395 118.211C114.388 118.211 113.661 117.465 113.661 116.552V116.57ZM116.644 116.57C116.644 115.992 116.159 115.526 115.507 115.526C114.854 115.526 114.369 115.992 114.369 116.57C114.369 117.148 114.873 117.615 115.507 117.615C116.14 117.615 116.644 117.148 116.644 116.57ZM118.247 117.018V115.563H117.557V115.022H118.247V114.202H118.937V115.022H120.26V115.563H118.937V116.999C118.937 117.409 119.198 117.652 119.626 117.652C119.85 117.652 120.092 117.577 120.26 117.465V118.043C120.092 118.155 119.813 118.23 119.552 118.23C118.694 118.23 118.228 117.745 118.228 117.018H118.247ZM120.95 118.137V113.568H121.64V115.358C121.901 115.097 122.33 114.929 122.796 114.929C123.802 114.929 124.38 115.545 124.38 116.496V118.137H123.69V116.57C123.69 116.011 123.355 115.526 122.702 115.526C122.087 115.526 121.658 115.973 121.658 116.589V118.137H120.969H120.95ZM124.809 116.57C124.809 115.675 125.629 114.929 126.654 114.929C127.68 114.929 128.481 115.675 128.481 116.57C128.481 117.465 127.68 118.23 126.654 118.23C125.629 118.23 124.809 117.484 124.809 116.57ZM127.792 116.57C127.792 115.992 127.288 115.526 126.654 115.526C126.021 115.526 125.499 115.992 125.499 116.57C125.499 117.148 126.002 117.615 126.654 117.615C127.307 117.615 127.792 117.148 127.792 116.57ZM129.619 116.626V118.137H128.929V116.552C128.929 115.638 129.525 114.911 130.644 114.911C131.762 114.911 132.378 115.619 132.378 116.533V118.118H131.688V116.608C131.688 116.011 131.334 115.507 130.644 115.507C129.954 115.507 129.637 116.011 129.637 116.589L129.619 116.626ZM135.267 118.137C134.838 118.137 134.615 117.913 134.615 117.633C134.615 117.428 134.708 117.26 134.913 117.092L136.311 115.955C136.703 115.638 136.908 115.395 136.908 115.041C136.908 114.649 136.553 114.388 136.087 114.388C135.621 114.388 135.248 114.649 135.025 115.041L134.465 114.761C134.782 114.183 135.36 113.773 136.125 113.773C137.001 113.773 137.616 114.314 137.616 115.004C137.616 115.526 137.355 115.918 136.926 116.272L135.528 117.391C135.528 117.391 135.435 117.465 135.435 117.503C135.435 117.521 135.435 117.54 135.472 117.54H137.746V118.137H135.248H135.267ZM138.138 115.992C138.138 114.743 138.902 113.773 140.039 113.773C141.177 113.773 141.941 114.724 141.941 115.992C141.941 117.26 141.177 118.23 140.039 118.23C138.902 118.23 138.138 117.242 138.138 115.992ZM141.195 115.992C141.195 115.116 140.711 114.444 140.039 114.444C139.368 114.444 138.884 115.116 138.884 115.992C138.884 116.869 139.368 117.559 140.039 117.559C140.711 117.559 141.195 116.869 141.195 115.992ZM143.041 118.137C142.612 118.137 142.388 117.913 142.388 117.633C142.388 117.428 142.482 117.26 142.687 117.092L144.085 115.955C144.476 115.638 144.681 115.395 144.681 115.041C144.681 114.649 144.327 114.388 143.861 114.388C143.395 114.388 143.022 114.649 142.798 115.041L142.239 114.761C142.556 114.183 143.134 113.773 143.898 113.773C144.775 113.773 145.39 114.314 145.39 115.004C145.39 115.526 145.129 115.918 144.7 116.272L143.302 117.391C143.302 117.391 143.209 117.465 143.209 117.503C143.209 117.521 143.209 117.54 143.246 117.54H145.52V118.137H143.022H143.041ZM146.601 118.137C146.173 118.137 145.949 117.913 145.949 117.633C145.949 117.428 146.042 117.26 146.247 117.092L147.645 115.955C148.037 115.638 148.242 115.395 148.242 115.041C148.242 114.649 147.888 114.388 147.422 114.388C146.956 114.388 146.583 114.649 146.359 115.041L145.8 114.761C146.117 114.183 146.695 113.773 147.459 113.773C148.335 113.773 148.95 114.314 148.95 115.004C148.95 115.526 148.689 115.918 148.261 116.272L146.862 117.391C146.862 117.391 146.769 117.465 146.769 117.503C146.769 117.521 146.769 117.54 146.807 117.54H149.081V118.137H146.583H146.601Z" fill="#966034"/>
<path d="M62.9723 11.3921H88.4187C93.8808 11.3921 96.7517 14.2634 96.7517 17.6382C96.7517 19.7637 95.4654 21.8893 93.1911 24.0894L85.3801 31.2119H86.3681C92.8742 31.2119 98.4854 36.4884 98.4854 43.6854C98.4854 52.1876 90.9167 58.4897 80.0857 58.4897C71.529 58.4897 64.7806 55.1335 61.22 48.3467L70.7647 43.76C72.4238 47.5263 75.9845 49.4468 80.2349 49.4468C84.4852 49.4468 87.6544 47.0416 87.6544 43.5549C87.6544 40.2547 84.7089 38.2038 80.4586 38.2038H77.7368C74.3253 38.2038 72.2747 36.1528 72.2001 33.8781C72.2001 32.2373 73.1882 30.7271 74.7727 29.2168L83.6277 21.2554C83.8514 21.1248 84.0005 21.0503 84.0005 20.7706C84.0005 20.6401 83.8514 20.6401 83.7023 20.6401H62.9537V11.3921H62.9723Z" fill="#966034"/>
<path d="M101.935 42.4368V37.4026C101.935 35.1466 103.352 33.4312 106.241 33.4312C106.875 33.4312 107.565 33.5431 108.05 33.7295V36.1721C107.584 35.9297 107.006 35.7992 106.502 35.7992C105.402 35.7992 104.731 36.4331 104.731 37.4772V42.4368H101.954H101.935ZM107.919 38.0366C107.919 35.2957 110.007 33.3939 113.027 33.3939C114.015 33.3939 114.947 33.7109 115.656 34.233V29.5903H118.471V38.0366C118.471 40.7028 116.234 42.6792 113.195 42.6792C110.156 42.6792 107.938 40.591 107.938 38.0366H107.919ZM115.674 38.0366C115.674 36.7873 114.612 35.7619 113.176 35.7619C111.741 35.7619 110.697 36.7873 110.697 38.0366C110.697 39.2858 111.741 40.2926 113.176 40.2926C114.612 40.2926 115.674 39.2858 115.674 38.0366ZM102.513 58.136V46.1845H107.173C110.921 46.1845 113.213 47.7693 113.213 50.5288C113.213 53.2883 110.958 54.9663 107.323 54.9663H105.384V58.1174H102.513V58.136ZM105.384 48.5711V52.5611H107.248C109.131 52.5611 110.268 51.9085 110.268 50.5102C110.268 49.1118 109.131 48.5524 107.248 48.5524H105.384V48.5711ZM116.662 55.7308H122.833V58.136H116.327C114.5 58.136 113.791 57.2783 113.791 55.9172V46.1845H116.662V55.7308ZM127.158 47.8626C127.605 46.5574 128.78 45.9421 130.029 45.9421C131.278 45.9421 132.471 46.5574 132.918 47.8626L136.404 58.1174H133.477L132.713 55.6749H127.363L126.598 58.1174H123.672L127.158 47.8626ZM128.108 53.3815H131.967L130.476 48.6456C130.401 48.4033 130.271 48.2914 130.047 48.2914C129.824 48.2914 129.693 48.4033 129.618 48.6456L128.108 53.3815ZM135.864 52.1696C135.864 48.7016 138.865 45.9607 142.705 45.9607C144.998 45.9607 147.198 47.0608 148.186 48.9253L145.856 50.1186C145.203 49.0931 144.178 48.4405 142.593 48.4405C140.394 48.4405 138.809 50.0254 138.809 52.1882C138.809 54.3511 140.375 55.9359 142.593 55.9359C144.178 55.9359 145.241 55.2833 145.856 54.2578L148.186 55.4511C147.198 57.3156 144.998 58.4157 142.705 58.4157C138.865 58.4157 135.864 55.6562 135.864 52.2069V52.1696ZM151.299 58.136C149.472 58.136 148.764 57.2783 148.764 55.9172V48.4219C148.764 47.0608 149.472 46.1845 151.299 46.1845H158.29V48.5151H151.635V50.9949H157.88V53.3256H151.635V55.8054H158.402V58.136H151.299Z" fill="#966034"/>
</g>
<defs>
<clipPath id="clip0_351_8334">
<rect width="218" height="120" fill="white"/>
</clipPath>
</defs>
</svg>
