<svg width="218" height="120" viewBox="0 0 218 120" fill="none" xmlns="http://www.w3.org/2000/svg">
<g clip-path="url(#clip0_351_8292)">
<path d="M51.247 116.233C49.7929 117.762 41.5531 112.56 38.906 108.086C38.906 108.086 37.4332 105.624 37.1163 102.156C37.079 101.839 37.1163 101.504 37.1723 101.187C37.2095 100.982 37.3214 100.795 37.5078 100.311C37.8807 100.441 38.2908 100.516 38.6636 100.628C38.6636 100.628 39.2042 100.814 39.7262 101.094C45.2443 103.965 48.7303 109.782 48.7303 109.782C50.4081 112.579 52.0672 115.357 51.247 116.233Z" fill="#966034"/>
<path d="M27.5154 12.884C27.9628 4.71746 38.1973 -1.80833 47.5556 0.44773C41.9443 6.56333 36.6127 12.4738 27.5154 12.884Z" fill="#966034"/>
<path d="M15.7524 85.991C9.89884 78.1973 10.3835 69.4901 16.7218 64.2881C20.6553 71.6343 17.4675 78.4584 15.7524 85.991Z" fill="#966034"/>
<path d="M10.1601 70.87C6.61807 61.8271 9.43302 53.4182 16.8526 50.1553C18.6422 58.3218 13.758 64.1205 10.1601 70.87Z" fill="#966034"/>
<path d="M11.8562 38.4274C12.7324 29.5709 20.357 22.9706 27.6274 24.5554C26.5275 29.7015 20.9162 34.6797 11.8562 38.4274Z" fill="#966034"/>
<path d="M8.94761 54.5559C7.66131 45.196 13.198 36.8616 20.7294 36.7498C20.0769 44.8604 14.1301 49.2233 8.94761 54.5559Z" fill="#966034"/>
<path d="M38.1978 14.5809C33.4627 21.4236 26.0432 22.1694 19.071 24.1645C20.3387 17.4522 31.0579 10.6281 38.1978 14.5809Z" fill="#966034"/>
<path d="M20.4687 78.0857C25.9121 84.1267 24.8495 91.4729 25.0546 98.7445C17.4486 94.3629 15.3607 82.6165 20.4687 78.0857Z" fill="#966034"/>
<path d="M22.8177 99.919C15.2117 99.9563 7.77357 93.2441 6.07715 84.7979C14.3729 86.7183 18.791 93.039 22.8177 99.919Z" fill="#966034"/>
<path d="M37.5632 109.465C28.8015 105.829 25.0171 98.6508 27.2355 90.0554C34.3381 94.6235 35.1957 102.026 37.5632 109.465Z" fill="#966034"/>
<path d="M50.5753 117.8C45.0386 122.61 32.6417 118.806 28.615 113.25C36.7802 110.603 43.6778 114.276 50.5753 117.8Z" fill="#966034"/>
<path d="M5.72259 30.895C10.1967 38.3717 8.81717 45.8857 6.84111 53.4183C1.41628 49.2418 0.894304 39.6023 5.72259 30.895Z" fill="#966034"/>
<path d="M14.9885 15.3076C17.5052 23.5488 13.7022 30.3729 10.1416 37.0851C5.8353 32.0882 8.29605 20.6028 14.9885 15.3076Z" fill="#966034"/>
<path d="M8.03454 70.3851C1.32341 66.768 -1.84574 56.9606 1.0997 48.8687C7.60577 54.7232 7.38207 62.7033 8.03454 70.3851Z" fill="#966034"/>
<path d="M17.4671 22.4494C14.7827 16.1101 20.6922 5.40777 28.4473 2.27539C26.8068 7.51467 27.0678 13.015 22.37 16.7626C20.5058 18.2543 19.2008 20.4171 17.4671 22.4681V22.4494Z" fill="#966034"/>
<path d="M1.11845 67.1042C8.76168 71.1689 11.1106 78.4964 13.3103 85.7866C6.76698 85.3205 0.577827 75.998 1.11845 67.1042Z" fill="#966034"/>
<path d="M35.6433 110.77C28 112.728 19.8721 108.533 14.9692 99.8069C19.2755 101.019 23.3395 101.522 26.7137 103.294C29.9947 105.028 32.5487 108.104 35.6619 110.77H35.6433Z" fill="#966034"/>
<path d="M166.753 116.234C168.207 117.763 176.447 112.561 179.094 108.086C179.094 108.086 180.566 105.625 180.883 102.157C180.921 101.84 180.883 101.504 180.827 101.187C180.79 100.982 180.678 100.796 180.492 100.311C180.119 100.441 179.709 100.516 179.336 100.628C179.336 100.628 178.795 100.814 178.273 101.094C172.755 103.965 169.269 109.783 169.269 109.783C167.592 112.579 165.932 115.357 166.753 116.234Z" fill="#966034"/>
<path d="M190.485 12.884C190.037 4.71746 179.803 -1.80833 170.445 0.44773C176.056 6.56333 181.387 12.4738 190.485 12.884Z" fill="#966034"/>
<path d="M202.248 85.9912C208.102 78.1976 207.617 69.4903 201.279 64.2883C197.345 71.6345 200.533 78.4586 202.248 85.9912Z" fill="#966034"/>
<path d="M207.84 70.87C211.382 61.8271 208.567 53.4182 201.148 50.1553C199.358 58.3218 204.242 64.1205 207.84 70.87Z" fill="#966034"/>
<path d="M206.144 38.4276C205.268 29.5712 197.643 22.9708 190.373 24.5557C191.472 29.7017 197.084 34.68 206.144 38.4276Z" fill="#966034"/>
<path d="M209.052 54.5559C210.338 45.196 204.801 36.8616 197.27 36.7498C197.922 44.8604 203.869 49.2233 209.052 54.5559Z" fill="#966034"/>
<path d="M179.802 14.5811C184.538 21.4239 191.957 22.1697 198.929 24.1647C197.662 17.4525 186.942 10.6283 179.802 14.5811Z" fill="#966034"/>
<path d="M197.531 78.0859C192.087 84.127 193.15 91.4731 192.945 98.7447C200.551 94.3631 202.639 82.6167 197.531 78.0859Z" fill="#966034"/>
<path d="M195.183 99.9193C202.789 99.9566 210.227 93.2443 211.923 84.7981C203.627 86.7185 199.209 93.0392 195.183 99.9193Z" fill="#966034"/>
<path d="M180.436 109.465C189.198 105.829 192.982 98.6508 190.764 90.0554C183.661 94.6235 182.804 102.026 180.436 109.465Z" fill="#966034"/>
<path d="M167.424 117.8C172.961 122.61 185.358 118.807 189.384 113.25C181.219 110.603 174.322 114.276 167.424 117.8Z" fill="#966034"/>
<path d="M212.277 30.8953C207.803 38.372 209.182 45.8859 211.158 53.4186C216.583 49.2421 217.105 39.6025 212.277 30.8953Z" fill="#966034"/>
<path d="M203.011 15.3076C200.495 23.5488 204.298 30.3729 207.858 37.0851C212.165 32.0882 209.704 20.6028 203.011 15.3076Z" fill="#966034"/>
<path d="M209.965 70.3859C216.676 66.7687 219.845 56.9614 216.9 48.8694C210.394 54.724 210.618 62.7041 209.965 70.3859Z" fill="#966034"/>
<path d="M200.532 22.4494C203.217 16.1101 197.307 5.40777 189.552 2.27539C191.193 7.51467 190.932 13.015 195.63 16.7626C197.494 18.2543 198.799 20.4171 200.532 22.4681V22.4494Z" fill="#966034"/>
<path d="M216.881 67.1045C209.237 71.1691 206.888 78.4967 204.689 85.7869C211.232 85.3208 217.421 75.9982 216.881 67.1045Z" fill="#966034"/>
<path d="M182.375 110.77C190.018 112.728 198.146 108.533 203.049 99.8071C198.743 101.019 194.679 101.522 191.304 103.294C188.023 105.028 185.469 108.104 182.356 110.77H182.375Z" fill="#966034"/>
<path d="M61.2019 75.699V65.9849H66.5708V75.5685C66.5708 78.2907 67.7266 79.428 70.1128 79.428C72.499 79.428 73.6734 78.2907 73.6734 75.5685V65.9849H79.0423V75.699C79.0423 80.9569 76.2274 84.0147 70.1128 84.0147C63.9982 84.0147 61.2019 80.9383 61.2019 75.699ZM81.7827 83.7164V65.9849H89.9852C94.6271 65.9849 98.1691 67.9613 98.1691 71.8581C98.1691 74.1888 96.715 76.1092 94.422 76.7618C95.41 77.3398 96.0439 78.3653 96.92 79.9687L98.9147 83.6978H93.0798L91.2529 80.3603C90.5818 79.1484 89.8361 78.7009 88.0837 78.7009H87.0957L87.0584 83.6978H81.7454L81.7827 83.7164ZM87.1516 70.4597L87.1143 74.4311H89.9852C91.5511 74.4311 92.651 73.648 92.651 72.3802C92.651 71.0377 91.5511 70.4597 90.0411 70.4597H87.133H87.1516ZM100.947 83.7164V65.9849H109.149C114.089 65.9849 117.035 67.9613 117.035 71.0004C117.035 72.9209 115.935 74.226 114.22 74.9159C115.954 75.438 117.184 76.538 117.184 78.7009C117.184 82.0011 113.94 83.7164 109.149 83.7164H100.947ZM106.316 72.9955H109.447C110.957 72.9955 111.685 72.4175 111.685 71.392C111.685 70.497 110.995 69.919 109.447 69.919H106.316V72.9955ZM106.316 79.7823H109.447C110.957 79.7823 111.834 79.3907 111.834 78.3653C111.834 77.2652 110.957 76.9482 109.447 76.9482H106.316V79.7823ZM122.683 68.8003C123.41 66.6188 125.442 65.5934 127.474 65.5934C129.506 65.5934 131.538 66.6188 132.265 68.8003L137.317 83.7164H131.837L130.942 80.7146H124.063L123.131 83.7164H117.65L122.702 68.8003H122.683ZM125.386 76.3889H129.6L127.735 70.2173C127.679 70.0309 127.623 69.9563 127.512 69.9563C127.4 69.9563 127.344 70.0309 127.288 70.2173L125.405 76.3889H125.386ZM138.455 83.7164V68.5952C138.455 66.7121 140.076 65.5747 141.791 65.5747C143.152 65.5747 144.345 66.0035 145.035 66.9917L151.933 76.8923V65.9849H157.003V81.1061C157.003 82.9893 155.381 84.108 153.666 84.108C152.324 84.108 151.112 83.6791 150.423 82.6909L143.525 72.7904V83.7164H138.455Z" fill="#966034"/>
<path d="M58.7971 108.999L59.4122 108.738C59.5987 109.111 59.9901 109.316 60.5494 109.316C61.1087 109.316 61.5188 109.074 61.5188 108.664C61.5188 108.197 61.0341 108.104 60.4748 108.011C59.7664 107.881 58.8716 107.675 58.8716 106.762C58.8716 106.053 59.58 105.513 60.4748 105.513C61.2019 105.513 61.8357 105.811 62.1153 106.408L61.5188 106.687C61.3324 106.333 60.9595 106.109 60.4375 106.109C59.9529 106.109 59.5614 106.37 59.5614 106.725C59.5614 107.191 60.0647 107.284 60.6426 107.396C61.351 107.526 62.2085 107.731 62.2085 108.645C62.2085 109.409 61.4629 109.931 60.5121 109.931C59.7105 109.931 59.0394 109.615 58.7598 109.018L58.7971 108.999ZM62.9169 109.857V105.289H63.6067V107.079C63.8677 106.818 64.2965 106.65 64.7625 106.65C65.7692 106.65 66.3471 107.265 66.3471 108.216V109.857H65.6573V108.291C65.6573 107.731 65.3218 107.247 64.6693 107.247C64.0541 107.247 63.6253 107.694 63.6253 108.309V109.857H62.9356H62.9169ZM66.7758 108.253C66.7758 107.358 67.4842 106.613 68.5282 106.613C69.5721 106.613 70.2246 107.303 70.2246 108.179V108.44H67.4656C67.5402 108.981 67.9876 109.353 68.6214 109.353C69.0502 109.353 69.423 109.186 69.6281 108.85L70.1687 109.092C69.8704 109.633 69.3112 109.913 68.64 109.913C67.5961 109.913 66.8131 109.223 66.8131 108.253H66.7758ZM69.5162 108.03C69.4789 107.526 69.0875 107.191 68.5096 107.191C67.9316 107.191 67.5402 107.564 67.4656 108.03H69.4976H69.5162ZM71.5482 105.27V109.838H70.8584V105.27H71.5482ZM73.1701 105.27V109.838H72.4803V105.27H73.1701ZM76.4138 109.857C75.9291 109.857 75.7427 109.633 75.7427 109.26V106.147C75.7427 105.774 75.9104 105.55 76.4138 105.55H79.005V106.147H76.4697V107.396H78.8745V107.992H76.4697V109.242H79.0609V109.838H76.4138V109.857ZM79.3779 108.272C79.3779 107.377 80.1981 106.631 81.1861 106.631C81.82 106.631 82.3979 106.892 82.7148 107.452L82.1369 107.75C81.9318 107.414 81.5776 107.228 81.1861 107.228C80.5709 107.228 80.0863 107.694 80.0863 108.272C80.0863 108.85 80.5896 109.316 81.1861 109.316C81.5963 109.316 81.9505 109.13 82.1369 108.794L82.7148 109.074C82.3979 109.652 81.82 109.894 81.1861 109.894C80.1981 109.894 79.3779 109.167 79.3779 108.253V108.272ZM82.8639 108.272C82.8639 107.377 83.6842 106.631 84.7095 106.631C85.7348 106.631 86.5364 107.377 86.5364 108.272C86.5364 109.167 85.7348 109.931 84.7095 109.931C83.6842 109.931 82.8639 109.186 82.8639 108.272ZM85.8466 108.272C85.8466 107.694 85.3619 107.228 84.7095 107.228C84.057 107.228 83.5537 107.694 83.5537 108.272C83.5537 108.85 84.057 109.316 84.7095 109.316C85.3619 109.316 85.8466 108.85 85.8466 108.272ZM89.6869 108.16H87.2448V107.582H89.6869V108.16ZM96.5099 108.197V109.857H95.8201V108.309C95.8201 107.731 95.5032 107.247 94.8694 107.247C94.2356 107.247 93.9186 107.731 93.9186 108.309V109.876H93.2289V108.309C93.2289 107.731 92.912 107.247 92.2781 107.247C91.6443 107.247 91.346 107.75 91.346 108.309V109.857H90.6563V108.216C90.6563 107.34 91.1969 106.631 92.2409 106.631C92.9306 106.631 93.434 106.948 93.6017 107.433C93.7882 106.948 94.2728 106.631 94.944 106.631C95.9879 106.631 96.5472 107.34 96.5472 108.197H96.5099ZM96.9387 108.272C96.9387 107.377 97.7216 106.631 98.7842 106.631C99.8468 106.631 100.63 107.34 100.63 108.272V109.838H99.9587V109.279C99.6977 109.67 99.2316 109.913 98.6724 109.913C97.6657 109.913 96.9387 109.167 96.9387 108.253V108.272ZM99.9214 108.272C99.9214 107.694 99.4367 107.228 98.7842 107.228C98.1317 107.228 97.6471 107.694 97.6471 108.272C97.6471 108.85 98.1504 109.316 98.7842 109.316C99.4181 109.316 99.9214 108.85 99.9214 108.272ZM101.264 109.857V107.992C101.264 107.228 101.748 106.669 102.643 106.669C102.867 106.669 103.091 106.706 103.258 106.78V107.414C103.091 107.321 102.885 107.284 102.699 107.284C102.233 107.284 101.953 107.564 101.953 108.03V109.876H101.264V109.857ZM103.221 108.272C103.221 107.377 104.004 106.631 105.067 106.631C106.129 106.631 106.912 107.34 106.912 108.272V109.838H106.241V109.279C105.98 109.67 105.514 109.913 104.955 109.913C103.948 109.913 103.221 109.167 103.221 108.253V108.272ZM106.204 108.272C106.204 107.694 105.7 107.228 105.067 107.228C104.433 107.228 103.929 107.694 103.929 108.272C103.929 108.85 104.433 109.316 105.067 109.316C105.7 109.316 106.204 108.85 106.204 108.272ZM107.807 108.72V107.265H107.117V106.725H107.807V105.904H108.497V106.725H109.82V107.265H108.497V108.701C108.497 109.111 108.758 109.353 109.186 109.353C109.41 109.353 109.653 109.279 109.82 109.167V109.745C109.653 109.857 109.373 109.931 109.112 109.931C108.254 109.931 107.788 109.447 107.788 108.72H107.807ZM110.51 109.857V105.289H111.2V107.079C111.461 106.818 111.89 106.65 112.356 106.65C113.362 106.65 113.94 107.265 113.94 108.216V109.857H113.25V108.291C113.25 107.731 112.915 107.247 112.262 107.247C111.647 107.247 111.218 107.694 111.218 108.309V109.857H110.529H110.51ZM114.369 108.272C114.369 107.377 115.189 106.631 116.215 106.631C117.24 106.631 118.041 107.377 118.041 108.272C118.041 109.167 117.24 109.931 116.215 109.931C115.189 109.931 114.369 109.186 114.369 108.272ZM117.352 108.272C117.352 107.694 116.867 107.228 116.215 107.228C115.562 107.228 115.059 107.694 115.059 108.272C115.059 108.85 115.562 109.316 116.215 109.316C116.867 109.316 117.352 108.85 117.352 108.272ZM119.179 108.328V109.838H118.489V108.253C118.489 107.34 119.085 106.613 120.204 106.613C121.322 106.613 121.938 107.321 121.938 108.235V109.82H121.248V108.309C121.248 107.713 120.894 107.209 120.204 107.209C119.514 107.209 119.197 107.713 119.197 108.291L119.179 108.328ZM125.293 106.072C125.442 105.662 125.778 105.475 126.169 105.475C126.561 105.475 126.915 105.662 127.064 106.072L128.35 109.838H127.623L127.269 108.794H125.069L124.715 109.838H123.988L125.275 106.072H125.293ZM125.275 108.216H127.083L126.449 106.277C126.393 106.147 126.319 106.072 126.188 106.072C126.039 106.072 125.964 106.128 125.927 106.277L125.293 108.216H125.275ZM128.593 109.223L129.133 108.962C129.301 109.279 129.6 109.391 129.972 109.391C130.345 109.391 130.662 109.242 130.662 108.962C130.662 108.309 128.686 108.794 128.686 107.601C128.686 107.041 129.227 106.65 129.972 106.65C130.606 106.65 131.054 106.911 131.277 107.284L130.737 107.564C130.588 107.284 130.308 107.191 129.991 107.191C129.674 107.191 129.376 107.34 129.376 107.601C129.376 108.235 131.352 107.769 131.352 108.962C131.352 109.559 130.718 109.931 129.991 109.931C129.357 109.931 128.854 109.708 128.593 109.242V109.223ZM131.892 105.68C131.892 105.457 132.098 105.252 132.359 105.252C132.62 105.252 132.806 105.438 132.806 105.68C132.806 105.923 132.601 106.091 132.359 106.091C132.116 106.091 131.892 105.904 131.892 105.68ZM132.694 106.706V109.838H132.004V106.706H132.694ZM133.272 108.272C133.272 107.377 134.055 106.631 135.118 106.631C136.18 106.631 136.963 107.34 136.963 108.272V109.838H136.292V109.279C136.031 109.67 135.565 109.913 135.006 109.913C133.999 109.913 133.272 109.167 133.272 108.253V108.272ZM136.255 108.272C136.255 107.694 135.751 107.228 135.118 107.228C134.484 107.228 133.98 107.694 133.98 108.272C133.98 108.85 134.484 109.316 135.118 109.316C135.751 109.316 136.255 108.85 136.255 108.272ZM139.461 109.857V105.569H140.971C142.239 105.569 143.059 106.091 143.059 107.079C143.059 108.067 142.22 108.608 141.008 108.608H140.188V109.838H139.461V109.857ZM140.188 106.165V108.011H140.99C141.773 108.011 142.332 107.731 142.332 107.079C142.332 106.426 141.791 106.165 140.99 106.165H140.188ZM143.227 108.272C143.227 107.377 144.01 106.631 145.072 106.631C146.135 106.631 146.918 107.34 146.918 108.272V109.838H146.247V109.279C145.986 109.67 145.52 109.913 144.961 109.913C143.954 109.913 143.227 109.167 143.227 108.253V108.272ZM146.21 108.272C146.21 107.694 145.706 107.228 145.072 107.228C144.439 107.228 143.935 107.694 143.935 108.272C143.935 108.85 144.439 109.316 145.072 109.316C145.706 109.316 146.21 108.85 146.21 108.272ZM147.328 108.272C147.328 107.377 148.148 106.631 149.136 106.631C149.77 106.631 150.348 106.892 150.665 107.452L150.087 107.75C149.882 107.414 149.528 107.228 149.136 107.228C148.521 107.228 148.036 107.694 148.036 108.272C148.036 108.85 148.54 109.316 149.136 109.316C149.546 109.316 149.882 109.13 150.087 108.794L150.665 109.074C150.348 109.652 149.77 109.894 149.136 109.894C148.148 109.894 147.328 109.167 147.328 108.253V108.272ZM151.056 105.68C151.056 105.457 151.262 105.252 151.523 105.252C151.784 105.252 151.97 105.438 151.97 105.68C151.97 105.923 151.765 106.091 151.523 106.091C151.28 106.091 151.056 105.904 151.056 105.68ZM151.877 106.706V109.838H151.187V106.706H151.877ZM153.033 109.857V107.265H152.38V106.725H153.033V106.389C153.033 105.718 153.499 105.233 154.356 105.233C154.58 105.233 154.804 105.27 154.99 105.345V105.96C154.822 105.867 154.617 105.811 154.431 105.811C154.002 105.811 153.741 105.979 153.741 106.408V106.725H155.866V109.857H155.176V107.265H153.76V109.857H153.07H153.033ZM156.314 108.272C156.314 107.377 157.134 106.631 158.122 106.631C158.756 106.631 159.334 106.892 159.65 107.452L159.073 107.75C158.868 107.414 158.513 107.228 158.122 107.228C157.507 107.228 157.022 107.694 157.022 108.272C157.022 108.85 157.525 109.316 158.122 109.316C158.532 109.316 158.886 109.13 159.073 108.794L159.65 109.074C159.334 109.652 158.756 109.894 158.122 109.894C157.134 109.894 156.314 109.167 156.314 108.253V108.272ZM75.2766 115.935C75.2766 115.04 76.0596 114.294 77.1222 114.294C78.1848 114.294 78.9677 115.003 78.9677 115.935V117.501H78.2966V116.942C78.0356 117.334 77.5696 117.576 77.0103 117.576C76.0037 117.576 75.2766 116.83 75.2766 115.917V115.935ZM78.2593 115.954C78.2593 115.376 77.756 114.91 77.1222 114.91C76.4883 114.91 75.985 115.376 75.985 115.954C75.985 116.532 76.4883 116.998 77.1222 116.998C77.756 116.998 78.2593 116.532 78.2593 115.954ZM80.2913 115.991V117.501H79.6016V115.917C79.6016 115.003 80.1981 114.276 81.3166 114.276C82.4351 114.276 83.0503 114.984 83.0503 115.898V117.483H82.3606V115.973C82.3606 115.376 82.0064 114.872 81.3166 114.872C80.6269 114.872 80.31 115.376 80.31 115.954L80.2913 115.991ZM83.4977 115.954C83.4977 115.003 84.2621 114.294 85.306 114.294C85.7721 114.294 86.2008 114.481 86.4805 114.761V112.933H87.1889V115.954C87.1889 116.886 86.3873 117.595 85.3433 117.595C84.2994 117.595 83.4977 116.867 83.4977 115.954ZM86.4805 115.954C86.4805 115.376 85.9958 114.91 85.3433 114.91C84.6908 114.91 84.2061 115.376 84.2061 115.954C84.2061 116.532 84.7095 116.998 85.3433 116.998C85.9771 116.998 86.4805 116.532 86.4805 115.954ZM89.37 117.52L90.0411 113.716C90.097 113.344 90.3953 113.138 90.7868 113.138C91.1223 113.138 91.4206 113.288 91.5138 113.623L92.4273 116.606C92.4273 116.606 92.4646 116.681 92.4832 116.681C92.5205 116.681 92.5391 116.662 92.5578 116.606L93.4526 113.623C93.5458 113.288 93.8627 113.138 94.1983 113.138C94.5711 113.138 94.8694 113.344 94.9253 113.716L95.5219 117.501H94.7948L94.2728 113.922C94.2728 113.922 94.2356 113.772 94.161 113.772C94.1051 113.772 94.0491 113.81 94.0305 113.903L93.0611 116.979C92.9865 117.24 92.7628 117.371 92.4832 117.371C92.2222 117.371 91.9985 117.24 91.9053 116.998L90.9359 113.903C90.9359 113.903 90.88 113.772 90.8054 113.772C90.7309 113.772 90.6936 113.81 90.6749 113.922L90.097 117.501H89.37V117.52ZM96.0811 113.344C96.0811 113.12 96.2862 112.915 96.5472 112.915C96.8082 112.915 96.9946 113.101 96.9946 113.344C96.9946 113.586 96.7895 113.754 96.5472 113.754C96.3048 113.754 96.0811 113.567 96.0811 113.344ZM96.9014 114.369V117.501H96.2116V114.369H96.9014ZM97.4606 115.954C97.4606 115.003 98.225 114.294 99.2689 114.294C99.735 114.294 100.164 114.481 100.443 114.761V112.933H101.152V115.954C101.152 116.886 100.35 117.595 99.3062 117.595C98.2622 117.595 97.4606 116.867 97.4606 115.954ZM100.443 115.954C100.443 115.376 99.9587 114.91 99.3062 114.91C98.6537 114.91 98.169 115.376 98.169 115.954C98.169 116.532 98.6724 116.998 99.3062 116.998C99.94 116.998 100.443 116.532 100.443 115.954ZM101.581 115.954C101.581 115.003 102.345 114.294 103.389 114.294C103.855 114.294 104.284 114.481 104.563 114.761V112.933H105.272V115.954C105.272 116.886 104.47 117.595 103.426 117.595C102.382 117.595 101.581 116.867 101.581 115.954ZM104.563 115.954C104.563 115.376 104.079 114.91 103.426 114.91C102.774 114.91 102.289 115.376 102.289 115.954C102.289 116.532 102.792 116.998 103.426 116.998C104.06 116.998 104.563 116.532 104.563 115.954ZM106.744 112.933V117.501H106.055V112.933H106.744ZM107.304 115.935C107.304 115.04 108.012 114.294 109.056 114.294C110.1 114.294 110.752 114.984 110.752 115.861V116.122H107.993C108.068 116.662 108.515 117.035 109.149 117.035C109.578 117.035 109.951 116.867 110.156 116.532L110.696 116.774C110.398 117.315 109.839 117.595 109.168 117.595C108.124 117.595 107.341 116.905 107.341 115.935H107.304ZM110.063 115.693C110.025 115.189 109.634 114.854 109.056 114.854C108.478 114.854 108.087 115.227 108.012 115.693H110.044H110.063ZM113.698 117.52C113.213 117.52 113.027 117.296 113.027 116.923V113.81C113.027 113.437 113.195 113.213 113.698 113.213H116.289V113.81H113.754V115.059H116.159V115.656H113.754V116.905H116.345V117.501H113.698V117.52ZM116.662 115.935C116.662 115.04 117.445 114.294 118.507 114.294C119.57 114.294 120.353 115.003 120.353 115.935V117.501H119.682V116.942C119.421 117.334 118.955 117.576 118.396 117.576C117.389 117.576 116.662 116.83 116.662 115.917V115.935ZM119.645 115.954C119.645 115.376 119.141 114.91 118.507 114.91C117.874 114.91 117.37 115.376 117.37 115.954C117.37 116.532 117.874 116.998 118.507 116.998C119.141 116.998 119.645 116.532 119.645 115.954ZM120.819 116.886L121.36 116.625C121.528 116.942 121.826 117.054 122.199 117.054C122.571 117.054 122.888 116.905 122.888 116.625C122.888 115.973 120.912 116.457 120.912 115.264C120.912 114.705 121.453 114.313 122.199 114.313C122.832 114.313 123.28 114.574 123.504 114.947L122.963 115.227C122.814 114.947 122.534 114.854 122.217 114.854C121.9 114.854 121.602 115.003 121.602 115.264C121.602 115.898 123.578 115.432 123.578 116.625C123.578 117.222 122.944 117.595 122.217 117.595C121.583 117.595 121.08 117.371 120.819 116.905V116.886ZM124.342 116.383V114.928H123.653V114.388H124.342V113.567H125.032V114.388H126.356V114.928H125.032V116.364C125.032 116.774 125.293 117.017 125.722 117.017C125.946 117.017 126.188 116.942 126.356 116.83V117.408C126.188 117.52 125.908 117.595 125.647 117.595C124.79 117.595 124.324 117.11 124.324 116.383H124.342ZM129.152 117.52C128.723 117.52 128.5 117.296 128.5 117.017C128.5 116.812 128.593 116.644 128.798 116.476L130.196 115.339C130.588 115.022 130.793 114.779 130.793 114.425C130.793 114.033 130.438 113.772 129.972 113.772C129.506 113.772 129.133 114.033 128.91 114.425L128.35 114.145C128.667 113.567 129.245 113.157 130.01 113.157C130.886 113.157 131.501 113.698 131.501 114.388C131.501 114.91 131.24 115.301 130.811 115.656L129.413 116.774C129.413 116.774 129.32 116.849 129.32 116.886C129.32 116.905 129.32 116.923 129.357 116.923H131.631V117.52H129.133H129.152ZM132.004 115.357C132.004 114.108 132.769 113.138 133.906 113.138C135.043 113.138 135.807 114.089 135.807 115.357C135.807 116.625 135.043 117.595 133.906 117.595C132.769 117.595 132.004 116.606 132.004 115.357ZM135.062 115.357C135.062 114.481 134.577 113.81 133.906 113.81C133.235 113.81 132.75 114.481 132.75 115.357C132.75 116.234 133.235 116.923 133.906 116.923C134.577 116.923 135.062 116.234 135.062 115.357ZM136.926 117.52C136.497 117.52 136.273 117.296 136.273 117.017C136.273 116.812 136.367 116.644 136.572 116.476L137.97 115.339C138.361 115.022 138.566 114.779 138.566 114.425C138.566 114.033 138.212 113.772 137.746 113.772C137.28 113.772 136.907 114.033 136.683 114.425L136.124 114.145C136.441 113.567 137.019 113.157 137.783 113.157C138.66 113.157 139.275 113.698 139.275 114.388C139.275 114.91 139.014 115.301 138.585 115.656L137.187 116.774C137.187 116.774 137.094 116.849 137.094 116.886C137.094 116.905 137.094 116.923 137.131 116.923H139.405V117.52H136.907H136.926ZM140.486 117.52C140.058 117.52 139.834 117.296 139.834 117.017C139.834 116.812 139.927 116.644 140.132 116.476L141.53 115.339C141.922 115.022 142.127 114.779 142.127 114.425C142.127 114.033 141.773 113.772 141.307 113.772C140.841 113.772 140.468 114.033 140.244 114.425L139.685 114.145C140.002 113.567 140.58 113.157 141.344 113.157C142.22 113.157 142.835 113.698 142.835 114.388C142.835 114.91 142.574 115.301 142.146 115.656L140.747 116.774C140.747 116.774 140.654 116.849 140.654 116.886C140.654 116.905 140.654 116.923 140.692 116.923H142.966V117.52H140.468H140.486Z" fill="#966034"/>
<path d="M62.9728 11.3921H88.4192C93.8813 11.3921 96.7522 14.2634 96.7522 17.6382C96.7522 19.7637 95.4659 21.8893 93.1916 24.0894L85.3805 31.2119H86.3686C92.8746 31.2119 98.4859 36.4884 98.4859 43.6854C98.4859 52.1876 90.9172 58.4897 80.0862 58.4897C71.5295 58.4897 64.7811 55.1335 61.2205 48.3467L70.7652 43.76C72.4243 47.5263 75.985 49.4468 80.2353 49.4468C84.4857 49.4468 87.6549 47.0416 87.6549 43.5549C87.6549 40.2547 84.7094 38.2038 80.459 38.2038H77.7373C74.3258 38.2038 72.2752 36.1528 72.2006 33.8781C72.2006 32.2373 73.1886 30.7271 74.7732 29.2168L83.6282 21.2554C83.8519 21.1248 84.001 21.0503 84.001 20.7706C84.001 20.6401 83.8519 20.6401 83.7028 20.6401H62.9542V11.3921H62.9728Z" fill="#966034"/>
<path d="M101.936 42.4368V37.4026C101.936 35.1466 103.352 33.4312 106.242 33.4312C106.876 33.4312 107.565 33.5431 108.05 33.7295V36.1721C107.584 35.9297 107.006 35.7992 106.503 35.7992C105.403 35.7992 104.732 36.4331 104.732 37.4772V42.4368H101.936ZM107.92 38.0366C107.92 35.2957 110.008 33.3753 113.028 33.3753C114.016 33.3753 114.948 33.6923 115.656 34.2143V29.5903H118.471V38.0366C118.471 40.7028 116.234 42.6606 113.195 42.6606C110.157 42.6606 107.938 40.5723 107.938 38.0366H107.92ZM115.675 38.0366C115.675 36.7873 114.612 35.7619 113.177 35.7619C111.741 35.7619 110.697 36.7873 110.697 38.0366C110.697 39.2858 111.741 40.2926 113.177 40.2926C114.612 40.2926 115.675 39.2858 115.675 38.0366ZM102.513 58.136V46.1845H107.174C110.921 46.1845 113.214 47.7693 113.214 50.5288C113.214 53.2883 110.958 54.9663 107.323 54.9663H105.384V58.1174H102.513V58.136ZM105.384 48.5711V52.5611H107.249C109.131 52.5611 110.269 51.9085 110.269 50.5288C110.269 49.1491 109.131 48.5711 107.249 48.5711H105.384ZM116.663 55.7308H122.833V58.136H116.327C114.5 58.136 113.792 57.2783 113.792 55.9172V46.1845H116.663V55.7308ZM127.158 47.8626C127.606 46.576 128.78 45.9421 130.029 45.9421C131.278 45.9421 132.471 46.5574 132.919 47.8626L136.405 58.1174H133.478L132.714 55.6749H127.363L126.599 58.1174H123.672L127.158 47.8626ZM128.109 53.3815H131.968L130.477 48.6456C130.402 48.4033 130.271 48.2914 130.048 48.2914C129.824 48.2914 129.694 48.4033 129.619 48.6456L128.109 53.3815ZM135.864 52.1696C135.864 48.7016 138.865 45.9607 142.706 45.9607C144.999 45.9607 147.198 47.0608 148.186 48.9253L145.856 50.1186C145.204 49.0931 144.178 48.4405 142.594 48.4405C140.394 48.4405 138.809 50.0254 138.809 52.1882C138.809 54.3511 140.375 55.9359 142.594 55.9359C144.178 55.9359 145.241 55.2833 145.856 54.2578L148.186 55.4511C147.198 57.3156 144.999 58.4157 142.706 58.4157C138.865 58.4157 135.864 55.6562 135.864 52.2069V52.1696ZM151.3 58.136C149.473 58.136 148.764 57.2783 148.764 55.9172V48.4219C148.764 47.0608 149.473 46.1845 151.3 46.1845H158.29V48.5151H151.635V50.9949H157.88V53.3256H151.635V55.8054H158.402V58.136H151.3Z" fill="#966034"/>
<path d="M46.5498 95.3138C46.5498 91.7899 49.6071 88.9745 53.5219 88.9745C55.8708 88.9745 58.1079 90.0932 59.0959 91.995L56.7097 93.2069C56.0572 92.1628 55.0133 91.4915 53.3914 91.4915C51.1544 91.4915 49.5325 93.095 49.5325 95.3138C49.5325 97.5326 51.1357 99.136 53.3914 99.136C55.0133 99.136 56.0945 98.4648 56.7097 97.4207L59.0959 98.6326C58.0892 100.534 55.8522 101.653 53.5219 101.653C49.6071 101.653 46.5498 98.8564 46.5498 95.3138ZM59.0586 95.3138C59.0586 91.7339 62.0786 88.9931 66.0494 88.9931C70.0201 88.9931 73.0774 91.7339 73.0774 95.3138C73.0774 98.8937 70.0388 101.634 66.0494 101.634C62.06 101.634 59.0586 98.9123 59.0586 95.3138ZM70.0574 95.3138C70.0574 93.1696 68.3237 91.4915 66.0494 91.4915C63.775 91.4915 62.0413 93.151 62.0413 95.3138C62.0413 97.4766 63.7937 99.136 66.0494 99.136C68.3051 99.136 70.0574 97.4766 70.0574 95.3138ZM74.401 101.392V90.8763C74.401 89.6643 75.389 88.9558 76.4889 88.9558C77.3651 88.9558 78.0735 89.2541 78.5023 89.9067L83.8152 98.1665V89.2168H86.5743V99.7327C86.5743 100.945 85.5862 101.634 84.5423 101.634C83.6847 101.634 82.9391 101.355 82.5103 100.702L77.1973 92.4052V101.411H74.4196L74.401 101.392ZM87.9538 95.3138C87.9538 91.7899 91.0111 88.9745 94.9259 88.9745C97.2748 88.9745 99.5118 90.0932 100.5 91.995L98.1137 93.2069C97.4612 92.1628 96.4173 91.4915 94.7954 91.4915C92.5584 91.4915 90.9365 93.095 90.9365 95.3138C90.9365 97.5326 92.5397 99.136 94.7954 99.136C96.4173 99.136 97.4985 98.4648 98.1137 97.4207L100.5 98.6326C99.4932 100.534 97.2561 101.653 94.9259 101.653C91.0111 101.653 87.9538 98.8564 87.9538 95.3138ZM103.967 101.392C102.103 101.392 101.395 100.516 101.395 99.136V91.4915C101.395 90.0932 102.122 89.2168 103.967 89.2168H111.089V91.5848H104.303V94.1205H110.66V96.4884H104.303V99.0242H111.2V101.392H103.967ZM113.065 101.392V89.2168H117.8C121.621 89.2168 123.952 90.8203 123.952 93.6544C123.952 96.4884 121.659 98.1851 117.949 98.1851H115.973V101.392H113.046H113.065ZM115.973 91.6594V95.724H117.874C119.794 95.724 120.95 95.0528 120.95 93.6357C120.95 92.2187 119.794 91.6407 117.874 91.6407H115.973V91.6594ZM134.633 91.6594H130.681V101.392H127.755V91.6594H123.802V89.2168H134.633V91.6594ZM143.283 89.2168V101.392H140.357V89.2168H143.283ZM144.756 95.3138C144.756 91.7899 147.813 88.9745 151.728 88.9745C154.077 88.9745 156.314 90.0932 157.302 91.995L154.916 93.2069C154.263 92.1628 153.22 91.4915 151.598 91.4915C149.361 91.4915 147.739 93.095 147.739 95.3138C147.739 97.5326 149.342 99.136 151.598 99.136C153.22 99.136 154.301 98.4648 154.916 97.4207L157.302 98.6326C156.295 100.534 154.058 101.653 151.728 101.653C147.813 101.653 144.756 98.8564 144.756 95.3138ZM160.77 101.392C158.905 101.392 158.197 100.516 158.197 99.136V91.4915C158.197 90.0932 158.924 89.2168 160.77 89.2168H167.891V91.5848H161.105V94.1205H167.462V96.4884H161.105V99.0242H168.003V101.392H160.77Z" fill="#966034"/>
</g>
<defs>
<clipPath id="clip0_351_8292">
<rect width="218" height="120" fill="white"/>
</clipPath>
</defs>
</svg>
