<svg width="218" height="120" viewBox="0 0 218 120" fill="none" xmlns="http://www.w3.org/2000/svg">
<g clip-path="url(#clip0_351_6782)">
<path d="M81.0042 58.3347V20.4447C80.9225 20.4447 80.8369 20.5186 80.7552 20.5964L68.0818 26.7085L62.4958 16.2156L78.0011 8.81972C80.6696 7.53584 83.5871 6.55542 86.0883 6.55542C90.34 6.55542 93.1758 9.12318 93.1758 13.6518V58.3347H81.0042Z" fill="#EBAA01"/>
<path d="M98.5014 40.9051L100.559 39.8586C100.972 40.5706 101.617 40.8701 102.598 40.8701C103.5 40.8701 104.068 40.5511 104.068 40.0337C104.068 38.6136 98.731 39.8391 98.731 36.4466C98.731 34.867 100.26 33.622 102.656 33.622C104.737 33.622 105.99 34.5091 106.581 35.5206L104.519 36.5672C104.204 35.9291 103.5 35.6257 102.714 35.6257C102.03 35.6257 101.516 35.9291 101.516 36.3882C101.516 37.8083 106.853 36.6722 106.853 39.9753C106.853 41.7494 104.951 42.8893 102.734 42.8893C100.715 42.8893 99.2989 42.2163 98.4976 40.9013L98.5014 40.9051ZM108.608 39.1661V35.9875H106.822V33.8555H108.608V31.6184H111.393V33.8555H114.828V35.9875H111.393V39.096C111.393 40.0726 112.042 40.6406 113.061 40.6406C113.629 40.6406 114.357 40.4811 114.828 40.2126V42.4691C114.337 42.7532 113.493 42.8971 112.809 42.8971C110.004 42.8971 108.611 41.3681 108.611 39.1661H108.608ZM99.5206 58.3465V46.3908H104.169C107.915 46.3908 110.21 47.9704 110.21 50.7443C110.21 53.5183 107.954 55.1834 104.325 55.1834H102.384V58.327L99.5206 58.3465ZM102.387 48.7913V52.7869H104.251C106.134 52.7869 107.273 52.1294 107.273 50.7443C107.273 49.3593 106.137 48.7913 104.251 48.7913H102.387ZM113.668 55.9499H119.83V58.3465H113.338C111.513 58.3465 110.805 57.4944 110.805 56.125V46.3908H113.668V55.946V55.9499ZM124.163 48.0793C124.615 46.7838 125.793 46.1613 127.026 46.1613C128.259 46.1613 129.458 46.7838 129.909 48.0793L133.402 58.3465H130.481L129.714 55.8954L124.358 55.911L123.592 58.3426H120.67L124.163 48.0754V48.0793ZM125.105 53.5844H128.967L127.478 48.8419C127.4 48.5929 127.283 48.4878 127.046 48.4878C126.832 48.4878 126.692 48.5929 126.614 48.8419L125.105 53.5844ZM132.873 52.3784C132.873 48.9158 135.876 46.1613 139.719 46.1613C142.014 46.1613 144.212 47.2623 145.192 49.1259L142.858 50.3164C142.209 49.2854 141.19 48.6279 139.603 48.6279C137.405 48.6279 135.818 50.2074 135.818 52.3745C135.818 54.5415 137.385 56.1211 139.603 56.1211C141.19 56.1211 142.252 55.4636 142.858 54.4326L145.192 55.6231C144.212 57.4867 142.014 58.5877 139.719 58.5877C135.876 58.5877 132.873 55.8332 132.873 52.3706V52.3784ZM148.293 58.3465C146.468 58.3465 145.76 57.4944 145.76 56.125V48.6279C145.76 47.2584 146.468 46.3908 148.293 46.3908H155.275V48.7174H148.623V51.2034H154.863V53.53H148.623V56.016H155.392V58.3426H148.289L148.293 58.3465Z" fill="#EBAA01"/>
<path d="M51.25 116.226C49.799 117.751 41.5485 112.557 38.9111 108.075C38.9111 108.075 37.4446 105.609 37.1295 102.154C37.1023 101.835 37.1295 101.508 37.1762 101.193C37.2073 100.991 37.3201 100.804 37.5068 100.318C37.8764 100.438 38.2809 100.52 38.6699 100.625C38.6699 100.625 39.2028 100.812 39.728 101.084C45.2556 103.963 48.7371 109.776 48.7371 109.776C50.4136 112.577 52.0785 115.355 51.25 116.226Z" fill="#EBAA01"/>
<path d="M27.5137 12.8815C27.9571 4.71139 38.1916 -1.80917 47.5469 0.451239C41.9453 6.56329 36.6006 12.4808 27.5137 12.8815Z" fill="#EBAA01"/>
<path d="M15.7467 85.9849C9.88848 78.1843 10.3708 69.4773 16.7231 64.2756C20.6636 71.6171 17.4739 78.4489 15.7467 85.9849Z" fill="#EBAA01"/>
<path d="M10.1606 70.87C6.62079 61.8245 9.42543 53.4092 16.8513 50.1489C18.6329 58.3191 13.751 64.1082 10.1606 70.87Z" fill="#EBAA01"/>
<path d="M11.8528 38.419C12.7358 29.5563 20.3484 22.9696 27.6226 24.557C26.5217 29.6964 20.9086 34.6802 11.8528 38.419Z" fill="#EBAA01"/>
<path d="M8.94326 54.561C7.6518 45.1964 13.1833 36.8745 20.7181 36.7617C20.0607 44.8774 14.1247 49.227 8.94326 54.561Z" fill="#EBAA01"/>
<path d="M38.2033 14.5857C33.4614 21.437 26.0511 22.1684 19.0803 24.172C20.3407 17.4647 31.0652 10.6329 38.2033 14.5857Z" fill="#EBAA01"/>
<path d="M20.4652 78.0754C25.9111 84.1213 24.853 91.4667 25.0514 98.742C17.4466 94.3613 15.3615 82.6157 20.4652 78.0754Z" fill="#EBAA01"/>
<path d="M22.8185 99.925C15.2137 99.9678 7.7722 93.2488 6.08008 84.7947C14.3773 86.7166 18.7846 93.0271 22.8185 99.925Z" fill="#EBAA01"/>
<path d="M37.5695 109.457C28.8132 105.815 25.0283 98.6486 27.2495 90.0427C34.3486 94.6102 35.2044 102.014 37.5695 109.457Z" fill="#EBAA01"/>
<path d="M50.5771 117.803C45.0456 122.616 32.6367 118.818 28.6223 113.246C36.7834 110.608 43.6919 114.262 50.5771 117.803Z" fill="#EBAA01"/>
<path d="M5.72974 30.8987C10.1954 38.3802 8.83002 45.8928 6.83837 53.4288C1.4158 49.2465 0.882875 39.6096 5.72974 30.8987Z" fill="#EBAA01"/>
<path d="M14.9959 15.3093C17.5166 23.5534 13.7083 30.3735 10.1451 37.0769C5.83117 32.0815 8.30906 20.5927 14.9959 15.3093Z" fill="#EBAA01"/>
<path d="M8.03679 70.3758C1.33443 66.7576 -1.84755 56.9417 1.10881 48.8533C7.60501 54.7008 7.39495 62.6881 8.03679 70.3758Z" fill="#EBAA01"/>
<path d="M17.4659 22.4522C14.7819 16.1223 20.6985 5.41942 28.455 2.27197C26.8212 7.50865 27.0702 13.006 22.375 16.7565C20.5156 18.2427 19.197 20.4058 17.4698 22.4522H17.4659Z" fill="#EBAA01"/>
<path d="M1.12048 67.1042C8.77199 71.1621 11.1098 78.5035 13.3116 85.7867C6.76478 85.3237 0.583667 75.998 1.12048 67.1042Z" fill="#EBAA01"/>
<path d="M35.6359 110.767C28 112.721 19.8622 108.534 14.957 99.7961C19.2632 101.01 23.3243 101.504 26.693 103.29C29.9683 105.025 32.5357 108.091 35.6359 110.764V110.767Z" fill="#EBAA01"/>
<path d="M166.75 116.226C168.201 117.751 176.452 112.558 179.089 108.076C179.089 108.076 180.555 105.609 180.871 102.154C180.898 101.835 180.871 101.508 180.824 101.193C180.793 100.991 180.68 100.804 180.493 100.318C180.124 100.438 179.719 100.52 179.33 100.625C179.33 100.625 178.797 100.812 178.272 101.084C172.744 103.963 169.263 109.776 169.263 109.776C167.586 112.577 165.922 115.355 166.75 116.226Z" fill="#EBAA01"/>
<path d="M190.487 12.8815C190.043 4.71139 179.809 -1.80917 170.453 0.451239C176.055 6.56329 181.4 12.4808 190.487 12.8815Z" fill="#EBAA01"/>
<path d="M202.254 85.9851C208.112 78.1846 207.629 69.4775 201.277 64.2759C197.337 71.6173 200.526 78.4491 202.254 85.9851Z" fill="#EBAA01"/>
<path d="M207.84 70.8702C211.38 61.8247 208.575 53.4094 201.149 50.1492C199.367 58.3193 204.249 64.1085 207.84 70.8702Z" fill="#EBAA01"/>
<path d="M206.148 38.419C205.264 29.5563 197.652 22.9696 190.378 24.557C191.479 29.6964 197.092 34.6802 206.148 38.419Z" fill="#EBAA01"/>
<path d="M209.057 54.561C210.349 45.1964 204.817 36.8745 197.282 36.7617C197.94 44.8774 203.876 49.227 209.057 54.561Z" fill="#EBAA01"/>
<path d="M179.797 14.5857C184.539 21.437 191.949 22.1684 198.92 24.172C197.659 17.4647 186.935 10.6329 179.797 14.5857Z" fill="#EBAA01"/>
<path d="M197.535 78.0754C192.089 84.1213 193.147 91.4667 192.949 98.742C200.554 94.3613 202.639 82.6157 197.535 78.0754Z" fill="#EBAA01"/>
<path d="M195.181 99.925C202.786 99.9678 210.228 93.2488 211.92 84.7947C203.623 86.7166 199.215 93.0271 195.181 99.925Z" fill="#EBAA01"/>
<path d="M180.435 109.457C189.191 105.815 192.976 98.6486 190.755 90.0427C183.656 94.6102 182.8 102.014 180.435 109.457Z" fill="#EBAA01"/>
<path d="M167.423 117.803C172.954 122.616 185.363 118.818 189.378 113.246C181.217 110.608 174.308 114.262 167.423 117.803Z" fill="#EBAA01"/>
<path d="M212.274 30.8987C207.808 38.3802 209.174 45.8928 211.165 53.4288C216.588 49.2465 217.121 39.6096 212.274 30.8987Z" fill="#EBAA01"/>
<path d="M203.004 15.3093C200.484 23.5534 204.292 30.3735 207.855 37.0769C212.169 32.0815 209.691 20.5927 203.004 15.3093Z" fill="#EBAA01"/>
<path d="M209.963 70.3758C216.666 66.7576 219.848 56.9417 216.891 48.8533C210.395 54.7008 210.605 62.6881 209.963 70.3758Z" fill="#EBAA01"/>
<path d="M200.534 22.4525C203.218 16.1226 197.301 5.41967 189.545 2.27222C191.179 7.50889 190.93 13.0062 195.625 16.7567C197.484 18.2429 198.803 20.4061 200.53 22.4525H200.534Z" fill="#EBAA01"/>
<path d="M216.88 67.1042C209.228 71.1621 206.89 78.5035 204.688 85.7867C211.235 85.3237 217.416 75.998 216.88 67.1042Z" fill="#EBAA01"/>
<path d="M182.368 110.768C190.004 112.721 198.142 108.535 203.047 99.7964C198.741 101.01 194.68 101.504 191.311 103.29C188.036 105.025 185.468 108.091 182.368 110.764V110.768Z" fill="#EBAA01"/>
<path d="M61.1929 75.7062V65.9915H66.5571V75.5739C66.5571 78.305 67.7163 79.4333 70.0969 79.4333C72.4776 79.4333 73.664 78.305 73.664 75.5739V65.9915H79.0282V75.7062C79.0282 80.9584 76.2158 84.028 70.0969 84.028C63.9781 84.028 61.1929 80.9545 61.1929 75.7062ZM81.7823 83.7129V65.9876H89.9901C94.6308 65.9876 98.1667 67.9562 98.1667 71.8701C98.1667 74.2083 96.7158 76.1225 94.4246 76.78C95.4088 77.3596 96.0467 78.3829 96.9181 79.9819L98.9175 83.709H93.0865L91.2582 80.3748C90.593 79.1687 89.8384 78.7213 88.0957 78.7213H87.1076L87.0804 83.709H81.7745L81.7823 83.7129ZM87.1504 70.4539L87.1232 74.4184H89.994C91.5616 74.4184 92.6625 73.6325 92.6625 72.372C92.6625 71.0336 91.5616 70.4539 90.0523 70.4539H87.1504ZM100.952 83.7129V65.9876H109.16C114.088 65.9876 117.049 67.9562 117.049 71.0025C117.049 72.9205 115.948 74.2316 114.236 74.9164C115.975 75.4416 117.192 76.5426 117.192 78.698C117.192 82.005 113.944 83.7129 109.16 83.7129H100.952ZM106.32 73.0022H109.451C110.961 73.0022 111.684 72.4264 111.684 71.3993C111.684 70.5084 110.988 69.9287 109.451 69.9287H106.32V73.0022ZM106.32 79.7757H109.451C110.961 79.7757 111.828 79.3827 111.828 78.3595C111.828 77.2585 110.957 76.9434 109.451 76.9434H106.32V79.7796V79.7757ZM122.677 68.8004C123.401 66.6217 125.431 65.5985 127.462 65.5985C129.492 65.5985 131.523 66.6217 132.247 68.8004L137.292 83.7129H131.811L130.912 80.7211H124.039L123.109 83.7129H117.628L122.673 68.8004H122.677ZM125.373 76.387H129.578L127.723 70.2166C127.664 70.0337 127.606 69.9559 127.489 69.9559C127.372 69.9559 127.314 70.0337 127.256 70.2166L125.369 76.387H125.373ZM138.451 83.7129V68.5904C138.451 66.6996 140.073 65.5713 141.785 65.5713C143.146 65.5713 144.336 65.9915 145.033 66.9874L151.933 76.885V65.9876H157.01V81.1101C157.01 83.0009 155.388 84.102 153.676 84.102C152.342 84.102 151.124 83.6818 150.428 82.6858L143.527 72.7883V83.7129H138.451Z" fill="#EBAA01"/>
<path d="M48.1499 95.4465C48.1499 91.9178 51.2074 89.1127 55.1285 89.1127C57.4663 89.1127 59.7069 90.2332 60.7066 92.1357L58.326 93.3495C57.6647 92.2991 56.6261 91.6299 55.0079 91.6299C52.7673 91.6299 51.149 93.2406 51.149 95.4504C51.149 97.6602 52.7478 99.2709 55.0079 99.2709C56.6261 99.2709 57.7075 98.6018 58.326 97.5513L60.7066 98.7652C59.7069 100.664 57.4663 101.788 55.1285 101.788C51.2113 101.788 48.1499 98.983 48.1499 95.4543V95.4465ZM60.6444 95.4465C60.6444 91.8633 63.663 89.1283 67.6424 89.1283C71.6218 89.1283 74.6598 91.8633 74.6598 95.4465C74.6598 99.0297 71.6218 101.765 67.6424 101.765C63.663 101.765 60.6444 99.0492 60.6444 95.4465ZM71.6374 95.4465C71.6374 93.2912 69.8986 91.626 67.6385 91.626C65.3784 91.626 63.6396 93.2912 63.6396 95.4465C63.6396 97.6019 65.3979 99.267 67.6385 99.267C69.8791 99.267 71.6374 97.6019 71.6374 95.4465ZM75.998 101.527V91.0113C75.998 89.7974 76.9782 89.0933 78.0752 89.0933C78.9543 89.0933 79.6545 89.3812 80.0941 90.0542L85.4116 98.3061V89.3461H88.1696V99.8623C88.1696 101.076 87.1893 101.761 86.1313 101.761C85.2716 101.761 84.5325 101.489 84.0929 100.819L78.7754 92.513V101.527H75.998ZM89.5505 95.4465C89.5505 91.9178 92.608 89.1127 96.5291 89.1127C98.8669 89.1127 101.108 90.2332 102.107 92.1357L99.7266 93.3495C99.0653 92.2991 98.0267 91.6299 96.4085 91.6299C94.1679 91.6299 92.5497 93.2406 92.5497 95.4504C92.5497 97.6602 94.1484 99.2709 96.4085 99.2709C98.0267 99.2709 99.1081 98.6018 99.7266 97.5513L102.107 98.7652C101.108 100.664 98.8669 101.788 96.5291 101.788C92.6119 101.788 89.5505 98.983 89.5505 95.4543V95.4465ZM105.562 101.527C103.702 101.527 102.982 100.66 102.982 99.2631V91.626C102.982 90.2332 103.702 89.3461 105.562 89.3461H112.676V91.7155H105.9V94.2482H112.256V96.6176H105.9V99.1503H112.797V101.52H105.562V101.527ZM114.656 101.527V89.3461H119.394C123.214 89.3461 125.552 90.9568 125.552 93.7814C125.552 96.6059 123.253 98.3061 119.554 98.3061H117.574V101.508L114.656 101.527ZM117.574 91.7894V95.8628H119.472C121.39 95.8628 122.549 95.1936 122.549 93.7814C122.549 92.3691 121.39 91.7894 119.472 91.7894H117.574ZM136.226 91.7894H132.27V101.527H129.352V91.7894H125.396V89.3461H136.23V91.7894H136.226ZM144.881 89.3461V101.527H141.964V89.3461H144.881ZM146.359 95.4465C146.359 91.9178 149.417 89.1127 153.338 89.1127C155.676 89.1127 157.916 90.2332 158.916 92.1357L156.535 93.3495C155.874 92.2991 154.835 91.6299 153.217 91.6299C150.977 91.6299 149.358 93.2406 149.358 95.4504C149.358 97.6602 150.957 99.2709 153.217 99.2709C154.835 99.2709 155.917 98.6018 156.535 97.5513L158.916 98.7652C157.916 100.664 155.676 101.788 153.338 101.788C149.421 101.788 146.359 98.983 146.359 95.4543V95.4465ZM162.37 101.527C160.511 101.527 159.791 100.66 159.791 99.2631V91.626C159.791 90.2332 160.511 89.3461 162.37 89.3461H169.485V91.7155H162.709V94.2482H169.065V96.6176H162.709V99.1503H169.605V101.52H162.37V101.527Z" fill="#EBAA01"/>
<path d="M58.8044 110.788L59.4113 110.519C59.5941 110.889 59.9987 111.087 60.5549 111.087C61.1112 111.087 61.5274 110.85 61.5274 110.43C61.5274 109.959 61.0489 109.873 60.4888 109.78C59.7769 109.651 58.8939 109.441 58.8939 108.535C58.8939 107.827 59.6058 107.29 60.5043 107.29C61.224 107.29 61.8658 107.597 62.1498 108.185L61.5507 108.465C61.3601 108.115 60.9984 107.897 60.4771 107.897C59.9987 107.897 59.6097 108.154 59.6097 108.515C59.6097 108.975 60.1115 109.076 60.6833 109.181C61.3874 109.309 62.2509 109.519 62.2509 110.426C62.2509 111.18 61.5079 111.702 60.5588 111.702C59.7614 111.702 59.0923 111.375 58.8083 110.788H58.8044ZM62.9161 111.632V107.064H63.6163V108.854C63.8847 108.593 64.3009 108.426 64.7677 108.426C65.783 108.426 66.3548 109.041 66.3548 109.998V111.632H65.6546V110.06C65.6546 109.504 65.3162 109.025 64.6588 109.025C64.0442 109.025 63.6124 109.472 63.6124 110.079V111.632H62.9122H62.9161ZM66.7749 110.044C66.7749 109.146 67.4868 108.41 68.5254 108.41C69.564 108.41 70.2175 109.095 70.2175 109.97V110.227H67.4518C67.5296 110.764 67.9808 111.142 68.6032 111.142C69.0272 111.142 69.4084 110.974 69.6107 110.632L70.1475 110.881C69.8441 111.418 69.2878 111.706 68.6071 111.706C67.5568 111.706 66.771 111.017 66.771 110.052L66.7749 110.044ZM69.5212 109.815C69.494 109.317 69.0894 108.978 68.5176 108.978C67.9458 108.978 67.549 109.348 67.479 109.815H69.5173H69.5212ZM71.5401 107.064V111.632H70.8399V107.064H71.5401ZM73.1622 107.064V111.632H72.462V107.064H73.1622ZM76.4064 111.632C75.9202 111.632 75.7412 111.41 75.7412 111.044V107.94C75.7412 107.574 75.9163 107.352 76.4064 107.352H79.0049V107.947H76.4648V109.192H78.8649V109.788H76.4648V111.04H79.0555V111.636H76.4103L76.4064 111.632ZM79.3706 110.06C79.3706 109.161 80.1836 108.418 81.1755 108.426C81.8095 108.426 82.3969 108.687 82.7159 109.251L82.1363 109.543C81.9301 109.204 81.5839 109.025 81.1755 109.025C80.5687 109.025 80.0669 109.492 80.0669 110.06C80.0669 110.628 80.5687 111.107 81.1755 111.107C81.5839 111.107 81.9301 110.928 82.1363 110.589L82.7159 110.877C82.3969 111.445 81.8134 111.702 81.1755 111.702C80.1797 111.713 79.3706 110.966 79.3706 110.06ZM82.8559 110.06C82.8559 109.161 83.6689 108.426 84.7037 108.426C85.7384 108.426 86.5397 109.165 86.5397 110.06C86.5397 110.955 85.7423 111.71 84.7037 111.71C83.665 111.71 82.8559 110.97 82.8559 110.06ZM85.8395 110.064C85.8395 109.488 85.3455 109.017 84.7037 109.017C84.0618 109.017 83.5522 109.488 83.5522 110.064C83.5522 110.64 84.054 111.107 84.7037 111.107C85.3533 111.107 85.8395 110.636 85.8395 110.064ZM89.6867 109.943H87.2438V109.367H89.6867V109.943ZM96.5096 109.982V111.632H95.8094V110.087C95.8094 109.519 95.4982 109.021 94.8486 109.021C94.199 109.021 93.9034 109.5 93.9034 110.076V111.636H93.2032V110.076C93.2032 109.5 92.8842 109.021 92.2424 109.021C91.6005 109.021 91.3049 109.519 91.3049 110.087V111.632H90.6047V109.99C90.6047 109.115 91.1571 108.41 92.1918 108.41C92.8842 108.41 93.386 108.729 93.5611 109.216C93.7517 108.729 94.2379 108.41 94.8953 108.41C95.9417 108.41 96.5057 109.115 96.5057 109.982H96.5096ZM96.9375 110.06C96.9375 109.165 97.7272 108.426 98.7814 108.426C99.8355 108.426 100.625 109.13 100.625 110.06V111.632H99.96V111.083C99.6994 111.468 99.2404 111.71 98.6763 111.71C97.6727 111.71 96.9414 110.97 96.9414 110.06H96.9375ZM99.925 110.064C99.925 109.488 99.431 109.017 98.7814 109.017C98.1317 109.017 97.6377 109.488 97.6377 110.064C97.6377 110.64 98.1395 111.107 98.7814 111.107C99.4232 111.107 99.925 110.636 99.925 110.064ZM101.271 111.632V109.768C101.271 109.01 101.749 108.438 102.656 108.438C102.874 108.438 103.099 108.477 103.278 108.55V109.177C103.111 109.087 102.912 109.045 102.722 109.045C102.255 109.045 101.975 109.332 101.975 109.792V111.632H101.275H101.271ZM103.22 110.06C103.22 109.165 104.009 108.426 105.064 108.426C106.118 108.426 106.907 109.13 106.907 110.06V111.632H106.242V111.083C105.982 111.468 105.523 111.71 104.959 111.71C103.955 111.71 103.224 110.97 103.224 110.06H103.22ZM106.203 110.064C106.203 109.488 105.709 109.017 105.06 109.017C104.41 109.017 103.916 109.488 103.916 110.064C103.916 110.64 104.418 111.107 105.06 111.107C105.702 111.107 106.203 110.636 106.203 110.064ZM107.806 110.507V109.052H107.121V108.504H107.806V107.695H108.506V108.504H109.833V109.052H108.506V110.488C108.506 110.896 108.775 111.138 109.191 111.138C109.416 111.138 109.665 111.06 109.833 110.951V111.531C109.658 111.64 109.381 111.71 109.129 111.71C108.269 111.71 107.81 111.219 107.81 110.503L107.806 110.507ZM110.513 111.632V107.064H111.214V108.854C111.482 108.593 111.898 108.426 112.365 108.426C113.38 108.426 113.952 109.041 113.952 109.998V111.632H113.252V110.06C113.252 109.504 112.914 109.025 112.256 109.025C111.641 109.025 111.21 109.472 111.21 110.079V111.632H110.51H110.513ZM114.372 110.06C114.372 109.161 115.185 108.426 116.22 108.426C117.255 108.426 118.056 109.165 118.056 110.06C118.056 110.955 117.259 111.71 116.22 111.71C115.181 111.71 114.372 110.97 114.372 110.06ZM117.36 110.064C117.36 109.488 116.866 109.017 116.224 109.017C115.582 109.017 115.072 109.488 115.072 110.064C115.072 110.64 115.574 111.107 116.224 111.107C116.873 111.107 117.36 110.636 117.36 110.064ZM119.188 110.114V111.628H118.488V110.048C118.488 109.134 119.087 108.418 120.203 108.418C121.32 108.418 121.946 109.134 121.946 110.041V111.624H121.246V110.114C121.246 109.527 120.892 109.021 120.203 109.021C119.515 109.021 119.188 109.527 119.188 110.107V110.114ZM125.295 107.87C125.435 107.469 125.781 107.274 126.178 107.274C126.575 107.274 126.925 107.465 127.069 107.87L128.36 111.632H127.625L127.279 110.585L125.077 110.593L124.731 111.636H124.004L125.295 107.873V107.87ZM125.276 109.994H127.088L126.454 108.06C126.404 107.928 126.322 107.862 126.186 107.862C126.046 107.862 125.96 107.924 125.918 108.06L125.276 109.994ZM128.598 111.005L129.135 110.737C129.31 111.048 129.594 111.165 129.975 111.165C130.356 111.165 130.675 111.017 130.675 110.745C130.675 110.087 128.691 110.585 128.691 109.391C128.691 108.842 129.228 108.438 129.983 108.438C130.624 108.438 131.064 108.706 131.282 109.068L130.745 109.344C130.597 109.068 130.313 108.975 129.998 108.975C129.683 108.975 129.391 109.126 129.391 109.375C129.391 110.013 131.375 109.546 131.375 110.729C131.375 111.324 130.741 111.702 130.006 111.702C129.364 111.702 128.87 111.472 128.602 111.005H128.598ZM131.885 107.465C131.885 107.235 132.091 107.045 132.344 107.045C132.597 107.045 132.795 107.235 132.795 107.465C132.795 107.695 132.597 107.881 132.344 107.881C132.091 107.881 131.885 107.695 131.885 107.465ZM132.698 108.5V111.628H131.998V108.5H132.698ZM133.262 110.06C133.262 109.165 134.051 108.426 135.106 108.426C136.16 108.426 136.949 109.13 136.949 110.06V111.632H136.284V111.083C136.024 111.468 135.565 111.71 135.001 111.71C133.997 111.71 133.266 110.97 133.266 110.06H133.262ZM136.245 110.064C136.245 109.488 135.751 109.017 135.102 109.017C134.452 109.017 133.958 109.488 133.958 110.064C133.958 110.64 134.46 111.107 135.102 111.107C135.744 111.107 136.245 110.636 136.245 110.064ZM139.462 111.632V107.352H140.968C142.24 107.352 143.064 107.87 143.064 108.866C143.064 109.862 142.224 110.398 141.003 110.398H140.186V111.632H139.466H139.462ZM140.182 107.951V109.792H140.987C141.765 109.792 142.321 109.515 142.321 108.866C142.321 108.216 141.785 107.951 140.987 107.951H140.182ZM143.216 110.06C143.216 109.165 144.006 108.426 145.06 108.426C146.114 108.426 146.904 109.13 146.904 110.06V111.632H146.239V111.083C145.978 111.468 145.519 111.71 144.955 111.71C143.951 111.71 143.22 110.97 143.22 110.06H143.216ZM146.204 110.064C146.204 109.488 145.71 109.017 145.06 109.017C144.41 109.017 143.916 109.488 143.916 110.064C143.916 110.64 144.418 111.107 145.06 111.107C145.702 111.107 146.204 110.636 146.204 110.064ZM147.332 110.06C147.332 109.161 148.145 108.418 149.137 108.426C149.771 108.426 150.358 108.687 150.677 109.251L150.097 109.543C149.891 109.204 149.545 109.025 149.137 109.025C148.53 109.025 148.028 109.492 148.028 110.06C148.028 110.628 148.53 111.107 149.137 111.107C149.545 111.107 149.891 110.928 150.097 110.589L150.677 110.877C150.358 111.445 149.775 111.702 149.137 111.702C148.141 111.713 147.332 110.966 147.332 110.06ZM151.062 107.465C151.062 107.235 151.268 107.045 151.521 107.045C151.774 107.045 151.972 107.235 151.972 107.465C151.972 107.695 151.774 107.881 151.521 107.881C151.268 107.881 151.062 107.695 151.062 107.465ZM151.875 108.5V111.628H151.175V108.5H151.875ZM153.027 111.632V109.052H152.369V108.504H153.027V108.177C153.027 107.512 153.486 107.014 154.353 107.014C154.586 107.014 154.804 107.053 154.979 107.127V107.745C154.816 107.656 154.614 107.605 154.415 107.605C153.983 107.605 153.723 107.776 153.723 108.193V108.5H155.839V111.628H155.139V109.048H153.719V111.628H153.019L153.027 111.632ZM156.306 110.06C156.306 109.161 157.119 108.418 158.111 108.426C158.745 108.426 159.332 108.687 159.651 109.251L159.072 109.543C158.865 109.204 158.519 109.025 158.111 109.025C157.504 109.025 157.002 109.492 157.002 110.06C157.002 110.628 157.504 111.107 158.111 111.107C158.519 111.107 158.865 110.928 159.072 110.589L159.651 110.877C159.332 111.445 158.749 111.702 158.111 111.702C157.115 111.713 156.306 110.966 156.306 110.06ZM68.6499 117.724C68.6499 116.83 69.4395 116.09 70.4937 116.09C71.5479 116.09 72.3375 116.795 72.3375 117.724V119.296H71.6724V118.748C71.4117 119.133 70.9527 119.374 70.3887 119.374C69.3851 119.374 68.6538 118.631 68.6538 117.724H68.6499ZM71.6335 117.732C71.6335 117.156 71.1394 116.686 70.4898 116.686C69.8402 116.686 69.3462 117.156 69.3462 117.732C69.3462 118.308 69.848 118.775 70.4898 118.775C71.1317 118.775 71.6335 118.304 71.6335 117.732ZM73.6796 117.783V119.296H72.9794V117.717C72.9794 116.802 73.5784 116.086 74.6948 116.086C75.8113 116.086 76.4375 116.802 76.4375 117.709V119.292H75.7374V117.783C75.7374 117.195 75.3834 116.689 74.691 116.689C73.9985 116.689 73.6757 117.195 73.6757 117.775L73.6796 117.783ZM76.8693 117.736C76.8693 116.783 77.6318 116.086 78.6743 116.086C79.141 116.086 79.5651 116.273 79.8451 116.553L79.8529 114.725H80.5531V117.732C80.5531 118.658 79.7557 119.366 78.7093 119.366C77.6629 119.366 76.8654 118.631 76.8654 117.732L76.8693 117.736ZM79.8529 117.732C79.8529 117.164 79.3589 116.689 78.7093 116.689C78.0596 116.689 77.5656 117.16 77.5656 117.732C77.5656 118.304 78.0674 118.779 78.7093 118.779C79.3511 118.779 79.8529 118.308 79.8529 117.732ZM86.0768 115.616H84.622V119.296H83.9023V115.616H82.4553V115.017H86.0768V115.616ZM86.4658 119.296V114.729H87.166V116.518C87.4344 116.258 87.8506 116.09 88.3174 116.09C89.3327 116.09 89.9045 116.705 89.9045 117.662V119.296H89.2043V117.724C89.2043 117.168 88.8659 116.689 88.2085 116.689C87.5939 116.689 87.166 117.137 87.166 117.744V119.296H86.4658ZM90.3246 117.713C90.3246 116.81 91.0365 116.079 92.0751 116.079C93.1137 116.079 93.7672 116.763 93.7672 117.639V117.896H91.0015C91.0793 118.432 91.5305 118.81 92.1529 118.81C92.5769 118.81 92.9581 118.643 93.1604 118.3L93.6972 118.549C93.3938 119.086 92.8375 119.374 92.1568 119.374C91.1065 119.374 90.3207 118.685 90.3207 117.72L90.3246 117.713ZM93.0709 117.483C93.0437 116.985 92.6391 116.647 92.0673 116.647C91.4955 116.647 91.0987 117.016 91.0287 117.483H93.067H93.0709ZM95.7939 119.304L96.4591 115.511C96.5213 115.141 96.8169 114.943 97.202 114.943C97.5405 114.943 97.8283 115.09 97.9372 115.429L98.8475 118.413C98.863 118.471 98.8747 118.491 98.9097 118.491C98.9525 118.491 98.9603 118.471 98.9797 118.413L99.8822 115.444C99.9795 115.106 100.283 114.954 100.625 114.954C100.999 114.954 101.29 115.16 101.353 115.534L101.952 119.304H101.224L100.703 115.74C100.687 115.651 100.66 115.592 100.582 115.592C100.52 115.592 100.477 115.639 100.454 115.721L99.4815 118.786C99.4037 119.043 99.1781 119.172 98.9097 119.172C98.6569 119.172 98.4157 119.043 98.3379 118.802L97.3693 115.717C97.3421 115.627 97.3071 115.588 97.2409 115.588C97.1748 115.588 97.1281 115.635 97.1126 115.736L96.5252 119.312H95.79L95.7939 119.304ZM102.508 115.133C102.508 114.904 102.714 114.713 102.967 114.713C103.22 114.713 103.418 114.904 103.418 115.133C103.418 115.363 103.22 115.55 102.967 115.55C102.714 115.55 102.508 115.363 102.508 115.133ZM103.321 116.168V119.296H102.621V116.168H103.321ZM103.885 117.736C103.885 116.783 104.647 116.086 105.69 116.086C106.157 116.086 106.581 116.273 106.861 116.553L106.869 114.725H107.569V117.732C107.569 118.658 106.771 119.366 105.725 119.366C104.679 119.366 103.881 118.631 103.881 117.732L103.885 117.736ZM106.872 117.732C106.872 117.164 106.378 116.689 105.729 116.689C105.079 116.689 104.585 117.16 104.585 117.732C104.585 118.304 105.087 118.779 105.729 118.779C106.371 118.779 106.872 118.308 106.872 117.732ZM108.001 117.736C108.001 116.783 108.763 116.086 109.805 116.086C110.272 116.086 110.696 116.273 110.976 116.553L110.984 114.725H111.684V117.732C111.684 118.658 110.887 119.366 109.84 119.366C108.794 119.366 107.997 118.631 107.997 117.732L108.001 117.736ZM110.984 117.732C110.984 117.164 110.49 116.689 109.84 116.689C109.191 116.689 108.697 117.16 108.697 117.732C108.697 118.304 109.199 118.779 109.84 118.779C110.482 118.779 110.984 118.308 110.984 117.732ZM113.17 114.729V119.296H112.47V114.729H113.17ZM113.734 117.713C113.734 116.81 114.446 116.079 115.485 116.079C116.523 116.079 117.177 116.763 117.177 117.639V117.896H114.411C114.489 118.432 114.94 118.81 115.563 118.81C115.987 118.81 116.368 118.643 116.57 118.3L117.107 118.549C116.803 119.086 116.247 119.374 115.566 119.374C114.516 119.374 113.73 118.685 113.73 117.72L113.734 117.713ZM116.481 117.483C116.453 116.985 116.049 116.647 115.477 116.647C114.905 116.647 114.508 117.016 114.438 117.483H116.477H116.481ZM120.122 119.296C119.635 119.296 119.456 119.074 119.456 118.709V115.604C119.456 115.238 119.631 115.017 120.122 115.017H122.72V115.612H120.18V116.857H122.58V117.452H120.18V118.705H122.771V119.3H120.125L120.122 119.296ZM123.086 117.724C123.086 116.83 123.875 116.09 124.93 116.09C125.984 116.09 126.773 116.795 126.773 117.724V119.296H126.108V118.748C125.848 119.133 125.389 119.374 124.825 119.374C123.821 119.374 123.09 118.631 123.09 117.724H123.086ZM126.069 117.732C126.069 117.156 125.575 116.686 124.926 116.686C124.276 116.686 123.782 117.156 123.782 117.732C123.782 118.308 124.284 118.775 124.926 118.775C125.567 118.775 126.069 118.304 126.069 117.732ZM127.256 118.67L127.793 118.401C127.968 118.713 128.252 118.829 128.633 118.829C129.014 118.829 129.333 118.681 129.333 118.409C129.333 117.752 127.349 118.25 127.349 117.055C127.349 116.507 127.886 116.102 128.641 116.102C129.282 116.102 129.722 116.37 129.94 116.732L129.403 117.008C129.255 116.732 128.971 116.639 128.656 116.639C128.341 116.639 128.049 116.791 128.049 117.04C128.049 117.678 130.033 117.211 130.033 118.394C130.033 118.989 129.399 119.366 128.664 119.366C128.022 119.366 127.528 119.137 127.26 118.67H127.256ZM130.768 118.172V116.717H130.084V116.168H130.768V115.359H131.469V116.168H132.795V116.717H131.469V118.152C131.469 118.561 131.737 118.802 132.153 118.802C132.379 118.802 132.628 118.724 132.795 118.615V119.195C132.62 119.304 132.344 119.374 132.091 119.374C131.231 119.374 130.772 118.884 130.772 118.168L130.768 118.172ZM135.572 119.296C135.141 119.296 134.923 119.074 134.923 118.798C134.923 118.6 135.02 118.421 135.226 118.261L136.63 117.129C137.019 116.81 137.222 116.573 137.222 116.215C137.222 115.834 136.86 115.557 136.397 115.557C135.934 115.557 135.549 115.814 135.339 116.203L134.783 115.923C135.094 115.343 135.677 114.939 136.448 114.939C137.323 114.939 137.945 115.483 137.945 116.16C137.945 116.678 137.692 117.075 137.245 117.433L135.849 118.557C135.79 118.608 135.763 118.627 135.763 118.666C135.763 118.685 135.779 118.697 135.798 118.697H138.07V119.296H135.572ZM138.435 117.149C138.435 115.896 139.206 114.939 140.334 114.939C141.462 114.939 142.232 115.896 142.232 117.149C142.232 118.401 141.462 119.378 140.334 119.378C139.206 119.378 138.435 118.39 138.435 117.149ZM141.493 117.149C141.493 116.273 140.999 115.604 140.334 115.604C139.669 115.604 139.178 116.273 139.178 117.149C139.178 118.024 139.672 118.709 140.334 118.709C140.995 118.709 141.493 118.012 141.493 117.149ZM143.348 119.296C142.917 119.296 142.699 119.074 142.699 118.798C142.699 118.6 142.796 118.421 143.002 118.261L144.406 117.129C144.795 116.81 144.998 116.573 144.998 116.215C144.998 115.834 144.636 115.557 144.173 115.557C143.71 115.557 143.325 115.814 143.115 116.203L142.559 115.923C142.87 115.343 143.453 114.939 144.224 114.939C145.099 114.939 145.721 115.483 145.721 116.16C145.721 116.678 145.468 117.075 145.021 117.433L143.625 118.557C143.566 118.608 143.539 118.627 143.539 118.666C143.539 118.685 143.555 118.697 143.574 118.697H145.846V119.296H143.348ZM146.313 115.017H148.619C149.07 115.017 149.319 115.258 149.319 115.546C149.319 115.744 149.207 115.923 148.989 116.102L148.016 116.857C147.946 116.9 147.923 116.907 147.923 116.935C147.923 116.942 147.931 116.935 147.942 116.935H148.324C148.981 116.935 149.479 117.405 149.479 118.059C149.479 118.825 148.775 119.382 147.857 119.382C147.079 119.382 146.488 119.07 146.176 118.475L146.803 118.176C146.985 118.565 147.359 118.783 147.861 118.783C148.363 118.783 148.771 118.491 148.771 118.059C148.771 117.662 148.452 117.433 147.958 117.433H147.655C147.351 117.433 147.176 117.234 147.176 117.036C147.176 116.888 147.262 116.748 147.409 116.627L148.433 115.841C148.495 115.799 148.526 115.764 148.526 115.709C148.526 115.655 148.483 115.62 148.413 115.62H146.309V115.02L146.313 115.017Z" fill="#EBAA01"/>
</g>
<defs>
<clipPath id="clip0_351_6782">
<rect width="218" height="120" fill="white"/>
</clipPath>
</defs>
</svg>
