<svg width="216" height="120" viewBox="0 0 216 120" fill="none" xmlns="http://www.w3.org/2000/svg">
<g clip-path="url(#clip0_351_8208)">
<path d="M61.8605 12.5679H87.0751C92.4787 12.5679 95.3309 15.4138 95.3309 18.7365C95.3309 20.8363 94.0551 22.94 91.8042 25.109L84.0765 32.1583H85.0516C91.5036 32.1583 97.0576 37.377 97.0576 44.4956C97.0576 52.9025 89.5533 59.1365 78.8231 59.1365C70.3438 59.1365 63.6643 55.8137 60.1377 49.1028L69.5922 44.5609C71.2418 48.2875 74.7684 50.1873 78.9734 50.1873C83.1784 50.1873 86.3273 47.8145 86.3273 44.3571C86.3273 41.1036 83.402 39.0692 79.197 39.0692H76.4951C73.1188 39.0692 71.0915 37.0347 71.0182 34.8003C71.0182 33.1736 71.9934 31.6814 73.5698 30.1893L82.3498 22.3246C82.5733 22.19 82.7236 22.1208 82.7236 21.8516C82.7236 21.717 82.5733 21.717 82.423 21.717H61.8605V12.5679Z" fill="#966034"/>
<path d="M101.231 43.6034V38.6154C101.231 36.3848 102.631 34.6812 105.487 34.6812C106.107 34.6812 106.789 34.785 107.275 34.9811V37.404C106.809 37.1578 106.246 37.0348 105.741 37.0348C104.654 37.0348 103.991 37.6655 103.991 38.7038V43.6034H101.231ZM107.159 39.2653C107.159 36.5617 109.221 34.6658 112.212 34.6658C113.183 34.6658 114.116 34.9811 114.818 35.4926L114.837 30.9084H117.597V39.2653C117.597 41.8997 115.38 43.8495 112.366 43.8495C109.352 43.8495 107.155 41.7766 107.155 39.2653H107.159ZM114.837 39.2653C114.837 38.0347 113.789 37.0194 112.37 37.0194C110.952 37.0194 109.923 38.0385 109.923 39.2653C109.923 40.4921 110.952 41.4959 112.37 41.4959C113.789 41.4959 114.837 40.496 114.837 39.2653ZM101.817 59.1211V47.303H106.423C110.135 47.303 112.409 48.8644 112.409 51.6065C112.409 54.3485 110.173 55.9945 106.577 55.9945H104.654V59.1019L101.817 59.1211ZM104.654 49.6759V53.6255H106.5C108.366 53.6255 109.495 52.9756 109.495 51.6065C109.495 50.2374 108.37 49.6759 106.5 49.6759H104.654ZM115.831 56.7521H121.936V59.1211H115.504C113.696 59.1211 112.995 58.2789 112.995 56.9252V47.303H115.831V56.7483V56.7521ZM126.23 48.9759C126.677 47.6953 127.845 47.08 129.067 47.08C130.289 47.08 131.476 47.6953 131.923 48.9759L135.384 59.125H132.489L131.73 56.7021L126.423 56.7175L125.664 59.1211H122.769L126.23 48.9721V48.9759ZM127.163 54.4177H130.99L129.514 49.7297C129.437 49.4836 129.321 49.3797 129.086 49.3797C128.874 49.3797 128.735 49.4836 128.658 49.7297L127.163 54.4177ZM134.86 53.2217C134.86 49.7989 137.835 47.0761 141.643 47.0761C143.917 47.0761 146.095 48.1645 147.066 50.0066L144.754 51.1834C144.11 50.1643 143.1 49.5143 141.528 49.5143C139.35 49.5143 137.777 51.0757 137.777 53.2178C137.777 55.3599 139.331 56.9213 141.528 56.9213C143.1 56.9213 144.152 56.2714 144.754 55.2523L147.066 56.4291C146.095 58.2712 143.917 59.3596 141.643 59.3596C137.835 59.3596 134.86 56.6367 134.86 53.214V53.2217ZM150.138 59.1211C148.33 59.1211 147.629 58.2789 147.629 56.9252V49.5143C147.629 48.1606 148.33 47.303 150.138 47.303H157.056V49.6028H150.466V52.0603H156.648V54.36H150.466V56.8175H157.172V59.1173H150.134L150.138 59.1211Z" fill="#966034"/>
<path d="M50.7795 114.889C49.3419 116.397 41.167 111.262 38.5538 106.832C38.5538 106.832 37.1008 104.394 36.7886 100.979C36.7616 100.663 36.7886 100.34 36.8348 100.029C36.8657 99.8289 36.9774 99.6443 37.1624 99.1636C37.5286 99.2828 37.9294 99.3636 38.3149 99.4674C38.3149 99.4674 38.8429 99.652 39.3632 99.9212C44.8401 102.767 48.2897 108.513 48.2897 108.513C49.9508 111.282 51.6005 114.028 50.7795 114.889Z" fill="#966034"/>
<path d="M27.261 12.7333C27.7004 4.65716 37.8409 -1.78837 47.1104 0.446028C41.5603 6.48775 36.2645 12.3372 27.261 12.7333Z" fill="#966034"/>
<path d="M15.6016 84.9956C9.79713 77.2848 10.2751 68.6779 16.569 63.5361C20.4734 70.7931 17.3129 77.5463 15.6016 84.9956Z" fill="#966034"/>
<path d="M10.0671 70.0547C6.55972 61.1132 9.33863 52.7948 16.6964 49.572C18.4616 57.6482 13.6246 63.3707 10.0671 70.0547Z" fill="#966034"/>
<path d="M11.7437 37.977C12.6186 29.2163 20.1613 22.7054 27.3688 24.2745C26.278 29.3547 20.7164 34.2812 11.7437 37.977Z" fill="#966034"/>
<path d="M8.86073 53.9336C7.58111 44.6768 13.0619 36.4506 20.5275 36.3391C19.8762 44.3614 13.9946 48.661 8.86073 53.9336Z" fill="#966034"/>
<path d="M37.8523 14.418C33.154 21.1904 25.8116 21.9134 18.9048 23.894C20.1536 17.2639 30.7797 10.5107 37.8523 14.418Z" fill="#966034"/>
<path d="M20.2771 77.1772C25.6731 83.1536 24.6247 90.4144 24.8213 97.6061C17.2862 93.2757 15.2204 81.6653 20.2771 77.1772Z" fill="#966034"/>
<path d="M22.6088 98.7751C15.0737 98.8174 7.70053 92.1757 6.02393 83.8188C14.245 85.7187 18.6119 91.9565 22.6088 98.7751Z" fill="#966034"/>
<path d="M37.2242 108.197C28.5483 104.598 24.7981 97.5137 26.9989 89.0068C34.0329 93.5218 34.8808 100.84 37.2242 108.197Z" fill="#966034"/>
<path d="M50.1128 116.446C44.632 121.203 32.337 117.45 28.3594 111.943C36.4456 109.335 43.2907 112.947 50.1128 116.446Z" fill="#966034"/>
<path d="M5.67681 30.5432C10.1015 37.9387 8.74865 45.3649 6.77527 52.8141C1.40244 48.6799 0.87441 39.1539 5.67681 30.5432Z" fill="#966034"/>
<path d="M14.8579 15.1331C17.3555 23.2823 13.5822 30.0239 10.0517 36.6502C5.77733 31.7122 8.23249 20.3556 14.8579 15.1331Z" fill="#966034"/>
<path d="M7.96283 69.5666C1.32195 65.99 -1.83083 56.2871 1.0984 48.2917C7.535 54.072 7.32687 61.9674 7.96283 69.5666Z" fill="#966034"/>
<path d="M17.3051 22.1939C14.6457 15.9368 20.508 5.35709 28.1934 2.24585C26.5746 7.42227 26.8213 12.8564 22.1692 16.5637C20.3269 18.0328 19.0203 20.171 17.309 22.1939H17.3051Z" fill="#966034"/>
<path d="M1.10993 66.332C8.69124 70.3432 11.0076 77.6002 13.1892 84.7995C6.70245 84.3418 0.578039 75.1235 1.10993 66.332Z" fill="#966034"/>
<path d="M35.3083 109.493C27.7424 111.424 19.6793 107.286 14.8191 98.6482C19.0857 99.8481 23.1096 100.336 26.4474 102.102C29.6927 103.817 32.2365 106.847 35.3083 109.489V109.493Z" fill="#966034"/>
<path d="M165.22 114.889C166.658 116.397 174.833 111.262 177.446 106.832C177.446 106.832 178.899 104.394 179.211 100.979C179.238 100.663 179.211 100.34 179.165 100.029C179.134 99.8289 179.022 99.6443 178.837 99.1636C178.471 99.2828 178.07 99.3636 177.685 99.4674C177.685 99.4674 177.157 99.652 176.636 99.9212C171.159 102.767 167.71 108.513 167.71 108.513C166.049 111.282 164.399 114.028 165.22 114.889Z" fill="#966034"/>
<path d="M188.739 12.7333C188.299 4.65716 178.159 -1.78837 168.889 0.446028C174.44 6.48775 179.735 12.3372 188.739 12.7333Z" fill="#966034"/>
<path d="M200.398 84.9956C206.202 77.2848 205.724 68.6779 199.43 63.5361C195.526 70.7931 198.686 77.5463 200.398 84.9956Z" fill="#966034"/>
<path d="M205.932 70.0547C209.44 61.1132 206.661 52.7948 199.303 49.572C197.538 57.6482 202.375 63.3707 205.932 70.0547Z" fill="#966034"/>
<path d="M204.256 37.977C203.381 29.2163 195.838 22.7054 188.631 24.2745C189.722 29.3547 195.283 34.2812 204.256 37.977Z" fill="#966034"/>
<path d="M207.139 53.9333C208.418 44.6765 202.938 36.4504 195.472 36.3389C196.123 44.3612 202.005 48.6608 207.139 53.9333Z" fill="#966034"/>
<path d="M178.147 14.4178C182.846 21.1902 190.188 21.9132 197.095 23.8938C195.846 17.2636 185.22 10.5104 178.147 14.4178Z" fill="#966034"/>
<path d="M195.723 77.177C190.327 83.1534 191.375 90.4142 191.179 97.6058C198.714 93.2755 200.78 81.665 195.723 77.177Z" fill="#966034"/>
<path d="M193.391 98.7751C200.926 98.8174 208.299 92.1757 209.976 83.8188C201.755 85.7187 197.388 91.9565 193.391 98.7751Z" fill="#966034"/>
<path d="M178.78 108.197C187.455 104.598 191.206 97.5137 189.005 89.0068C181.971 93.5218 181.123 100.84 178.78 108.197Z" fill="#966034"/>
<path d="M165.887 116.446C171.368 121.203 183.663 117.45 187.641 111.943C179.554 109.335 172.709 112.947 165.887 116.446Z" fill="#966034"/>
<path d="M210.326 30.5432C205.901 37.9387 207.254 45.3649 209.228 52.8141C214.601 48.6799 215.129 39.1539 210.326 30.5432Z" fill="#966034"/>
<path d="M201.142 15.1331C198.644 23.2823 202.417 30.0239 205.948 36.6502C210.222 31.7122 207.767 20.3556 201.142 15.1331Z" fill="#966034"/>
<path d="M208.037 69.5664C214.678 65.9898 217.831 56.2869 214.901 48.2915C208.465 54.0717 208.673 61.9671 208.037 69.5664Z" fill="#966034"/>
<path d="M198.694 22.1939C201.354 15.9368 195.492 5.35709 187.806 2.24585C189.425 7.42227 189.178 12.8564 193.83 16.5637C195.673 18.0328 196.979 20.171 198.691 22.1939H198.694Z" fill="#966034"/>
<path d="M214.89 66.332C207.309 70.3432 204.993 77.6002 202.811 84.7995C209.298 84.3418 215.422 75.1235 214.89 66.332Z" fill="#966034"/>
<path d="M180.695 109.493C188.261 111.424 196.324 107.286 201.184 98.6482C196.917 99.8481 192.894 100.336 189.556 102.102C186.31 103.817 183.767 106.847 180.695 109.489V109.493Z" fill="#966034"/>
<path d="M56.6803 65.7475H61.9953L64.4967 77.7386L66.6821 69.0164C67.3142 66.4474 68.6632 65.3552 70.7329 65.3552C72.8027 65.3552 74.1516 66.4436 74.7837 69.0164L76.9691 77.7386L79.4705 65.7475H84.7855L81.336 80.4115C80.8465 82.5151 79.2971 83.6804 77.1965 83.6804C75.3002 83.6804 73.6043 82.5382 73.1148 80.6191L70.7291 71.147L68.3433 80.6191C67.8538 82.5382 66.1579 83.6804 64.2616 83.6804C62.1649 83.6804 60.6117 82.5113 60.1222 80.4115L56.6726 65.7475H56.6803ZM84.4964 74.5197C84.4964 69.301 88.8633 65.3821 94.7256 65.3821C100.588 65.3821 104.955 69.301 104.955 74.5197C104.955 79.7385 100.588 83.6573 94.7256 83.6573C88.8633 83.6573 84.4964 79.7385 84.4964 74.5197ZM99.4933 74.5197C99.4933 71.9238 97.4236 69.924 94.7218 69.924C92.0199 69.924 89.9502 71.9238 89.9502 74.5197C89.9502 77.1156 92.0199 79.1154 94.7218 79.1154C97.4236 79.1154 99.4933 77.1156 99.4933 74.5197ZM106.678 83.265V65.7436H114.81C119.408 65.7436 122.912 67.6896 122.912 71.5585C122.912 73.8698 121.474 75.7619 119.204 76.4119C120.179 76.9849 120.811 77.9963 121.675 79.5769L123.656 83.2612H117.878L116.067 79.9654C115.408 78.7732 114.66 78.3309 112.933 78.3309H111.954L111.927 83.2612H106.67L106.678 83.265ZM111.997 70.1586L111.97 74.0775H114.814C116.367 74.0775 117.458 73.3006 117.458 72.0546C117.458 70.7316 116.367 70.1586 114.872 70.1586H111.997ZM130.99 78.8539H139.554V83.265H130.273C126.997 83.265 125.675 81.7075 125.675 79.2424V65.7475H130.99V78.8539ZM148.373 83.265H140.699V65.7436H148.373C154.725 65.7436 158.949 69.2472 158.949 74.5697C158.949 79.8923 154.582 83.265 148.373 83.265ZM148.373 70.1586H146.018V78.9847H148.373C151.476 78.9847 153.488 77.2195 153.488 74.5736C153.488 71.9277 151.476 70.1625 148.373 70.1625V70.1586Z" fill="#966034"/>
<path d="M69.5688 107.947L70.305 107.62C70.5285 108.07 71.018 108.309 71.6925 108.309C72.367 108.309 72.8758 108.024 72.8758 107.513C72.8758 106.94 72.2938 106.84 71.6154 106.724C70.7482 106.571 69.6767 106.313 69.6767 105.217C69.6767 104.359 70.5439 103.709 71.6308 103.709C72.5058 103.709 73.2843 104.082 73.6273 104.794L72.8989 105.136C72.6676 104.709 72.2282 104.448 71.5961 104.448C71.0142 104.448 70.5401 104.755 70.5401 105.198C70.5401 105.755 71.149 105.878 71.8428 106.001C72.7023 106.155 73.7468 106.413 73.7468 107.509C73.7468 108.424 72.8449 109.059 71.6886 109.059C70.7212 109.059 69.9041 108.663 69.5611 107.951L69.5688 107.947ZM74.5639 108.966V103.432H75.4119V105.601C75.7395 105.282 76.2444 105.082 76.8109 105.082C78.0443 105.082 78.7419 105.824 78.7419 106.986V108.966H77.894V107.063C77.894 106.39 77.4816 105.809 76.6838 105.809C75.936 105.809 75.4157 106.351 75.4157 107.086V108.966H74.5678H74.5639ZM79.2545 107.047C79.2545 105.955 80.1217 105.067 81.3821 105.067C82.6424 105.067 83.4403 105.894 83.4403 106.955V107.263H80.0794C80.1757 107.913 80.723 108.37 81.4784 108.37C81.9911 108.37 82.4574 108.17 82.7041 107.751L83.3555 108.055C82.9855 108.705 82.311 109.055 81.4862 109.055C80.2104 109.055 79.2584 108.22 79.2584 107.051L79.2545 107.047ZM82.5885 106.771C82.5538 106.167 82.0643 105.755 81.3705 105.755C80.6768 105.755 80.195 106.205 80.1102 106.771H82.5885ZM85.0398 103.432V108.966H84.1918V103.432H85.0398ZM87.0131 103.432V108.966H86.1652V103.432H87.0131ZM90.9561 108.966C90.3625 108.966 90.1505 108.697 90.1505 108.255V104.494C90.1505 104.052 90.3664 103.782 90.9561 103.782H94.1127V104.502H91.0254V106.009H93.9392V106.728H91.0254V108.243H94.1705V108.963H90.9561V108.966ZM94.5559 107.063C94.5559 105.971 95.5426 105.075 96.7528 105.082C97.5237 105.082 98.2367 105.401 98.6222 106.082L97.9207 106.44C97.6702 106.028 97.25 105.813 96.7528 105.813C96.0167 105.813 95.4077 106.378 95.4077 107.067C95.4077 107.755 96.0167 108.336 96.7528 108.336C97.25 108.336 97.6702 108.12 97.9207 107.709L98.6222 108.059C98.2367 108.747 97.5237 109.059 96.7528 109.059C95.5426 109.074 94.5559 108.17 94.5559 107.07V107.063ZM98.7879 107.063C98.7879 105.971 99.7746 105.082 101.035 105.082C102.295 105.082 103.263 105.978 103.263 107.063C103.263 108.147 102.295 109.059 101.035 109.059C99.7746 109.059 98.7879 108.163 98.7879 107.063ZM102.415 107.07C102.415 106.374 101.813 105.801 101.035 105.801C100.256 105.801 99.6358 106.374 99.6358 107.07C99.6358 107.767 100.245 108.332 101.035 108.332C101.825 108.332 102.415 107.759 102.415 107.07ZM107.09 106.924H104.122V106.228H107.09V106.924ZM115.38 106.97V108.966H114.533V107.094C114.533 106.405 114.155 105.801 113.365 105.801C112.575 105.801 112.216 106.382 112.216 107.078V108.966H111.368V107.078C111.368 106.382 110.983 105.801 110.2 105.801C109.418 105.801 109.059 106.405 109.059 107.094V108.966H108.212V106.978C108.212 105.917 108.882 105.067 110.139 105.067C110.979 105.067 111.588 105.455 111.804 106.044C112.035 105.455 112.629 105.067 113.426 105.067C114.694 105.067 115.38 105.917 115.38 106.97ZM115.897 107.063C115.897 105.978 116.857 105.082 118.136 105.082C119.416 105.082 120.376 105.932 120.376 107.063V108.966H119.57V108.301C119.254 108.766 118.695 109.059 118.009 109.059C116.791 109.059 115.901 108.163 115.901 107.063H115.897ZM119.528 107.07C119.528 106.374 118.926 105.801 118.14 105.801C117.354 105.801 116.753 106.374 116.753 107.07C116.753 107.767 117.362 108.332 118.14 108.332C118.919 108.332 119.528 107.759 119.528 107.07ZM121.162 108.966V106.705C121.162 105.786 121.744 105.094 122.842 105.094C123.108 105.094 123.382 105.14 123.598 105.232V105.99C123.393 105.882 123.151 105.828 122.919 105.828C122.353 105.828 122.01 106.178 122.01 106.732V108.963H121.162V108.966ZM123.528 107.063C123.528 105.978 124.488 105.082 125.768 105.082C127.047 105.082 128.007 105.932 128.007 107.063V108.966H127.201V108.301C126.885 108.766 126.327 109.059 125.64 109.059C124.423 109.059 123.532 108.163 123.532 107.063H123.528ZM127.155 107.07C127.155 106.374 126.554 105.801 125.768 105.801C124.981 105.801 124.38 106.374 124.38 107.07C124.38 107.767 124.989 108.332 125.768 108.332C126.546 108.332 127.155 107.759 127.155 107.07ZM129.102 107.605V105.84H128.269V105.175H129.102V104.19H129.95V105.175H131.561V105.84H129.95V107.582C129.95 108.078 130.277 108.37 130.782 108.37C131.056 108.37 131.356 108.278 131.561 108.147V108.851C131.345 108.982 131.013 109.066 130.705 109.066C129.66 109.066 129.102 108.47 129.102 107.605ZM132.393 108.966V103.432H133.241V105.601C133.569 105.282 134.074 105.082 134.64 105.082C135.873 105.082 136.571 105.824 136.571 106.986V108.966H135.723V107.063C135.723 106.39 135.311 105.809 134.513 105.809C133.765 105.809 133.245 106.351 133.245 107.086V108.966H132.397H132.393ZM137.08 107.063C137.08 105.971 138.067 105.082 139.327 105.082C140.587 105.082 141.555 105.978 141.555 107.063C141.555 108.147 140.587 109.059 139.327 109.059C138.067 109.059 137.08 108.163 137.08 107.063ZM140.707 107.07C140.707 106.374 140.105 105.801 139.327 105.801C138.548 105.801 137.928 106.374 137.928 107.07C137.928 107.767 138.537 108.332 139.327 108.332C140.117 108.332 140.707 107.759 140.707 107.07ZM142.927 107.132V108.966H142.079V107.055C142.079 105.948 142.807 105.082 144.164 105.082C145.521 105.082 146.284 105.948 146.284 107.047V108.966H145.436V107.14C145.436 106.428 145.008 105.817 144.168 105.817C143.328 105.817 142.934 106.428 142.934 107.132H142.927ZM57.9482 113.074H58.8232L59.8253 117.416C59.8522 117.531 59.8946 117.585 59.964 117.585C60.0334 117.585 60.0835 117.539 60.1105 117.416L61.0625 113.724C61.1742 113.243 61.4672 113.028 61.8603 113.028C62.2534 113.028 62.5464 113.235 62.6658 113.716L63.6525 117.416C63.6872 117.523 63.7219 117.577 63.799 117.577C63.8761 117.577 63.9108 117.523 63.9262 117.416L64.8512 113.074H65.7261L64.7047 117.608C64.6007 118.066 64.3116 118.35 63.8375 118.35C63.3635 118.35 63.0667 118.104 62.9356 117.631L61.9412 113.885C61.9258 113.816 61.8988 113.785 61.8565 113.785C61.8218 113.785 61.7871 113.816 61.7717 113.885L60.8042 117.677C60.6925 118.112 60.3571 118.358 59.9486 118.358C59.5015 118.358 59.17 118.112 59.0583 117.654L57.9521 113.074H57.9482ZM65.6452 116.354C65.6452 115.262 66.6319 114.374 67.8922 114.374C69.1525 114.374 70.12 115.27 70.12 116.354C70.12 117.439 69.1525 118.35 67.8922 118.35C66.6319 118.35 65.6452 117.454 65.6452 116.354ZM69.272 116.362C69.272 115.666 68.6708 115.093 67.8922 115.093C67.1136 115.093 66.4931 115.666 66.4931 116.362C66.4931 117.058 67.1021 117.623 67.8922 117.623C68.6823 117.623 69.272 117.05 69.272 116.362ZM70.6441 118.258V115.997C70.6441 115.077 71.2261 114.385 72.3246 114.385C72.5905 114.385 72.8642 114.431 73.08 114.524V115.281C72.8758 115.174 72.6329 115.12 72.4017 115.12C71.8351 115.12 71.4921 115.47 71.4921 116.027V118.258H70.6441ZM74.1669 112.724V118.258H73.319V112.724H74.1669ZM74.853 116.37C74.853 115.216 75.778 114.374 77.0499 114.374C77.6165 114.374 78.1291 114.597 78.4721 114.939L78.4798 112.724H79.3278V116.37C79.3278 117.493 78.3604 118.35 77.0885 118.35C75.8165 118.35 74.8491 117.462 74.8491 116.37H74.853ZM78.4798 116.362C78.4798 115.674 77.8786 115.1 77.0923 115.1C76.306 115.1 75.7048 115.674 75.7048 116.362C75.7048 117.05 76.3137 117.631 77.0923 117.631C77.8709 117.631 78.4798 117.058 78.4798 116.362ZM81.8639 115.658C81.8639 114.166 83.1666 112.981 84.7892 112.981C85.7759 112.981 86.674 113.439 87.1134 114.197L86.4003 114.57C86.065 114.051 85.4907 113.735 84.7546 113.735C83.6407 113.735 82.7658 114.57 82.7658 115.662C82.7658 116.754 83.633 117.612 84.7546 117.612C85.4907 117.612 86.0766 117.293 86.4003 116.777L87.1134 117.15C86.6778 117.908 85.7759 118.358 84.7892 118.358C83.1705 118.358 81.8639 117.173 81.8639 115.666V115.658ZM87.6607 118.258V112.724H88.5086V114.893C88.8362 114.574 89.3411 114.374 89.9077 114.374C91.1411 114.374 91.8387 115.116 91.8387 116.277V118.258H90.9907V116.354C90.9907 115.681 90.5783 115.1 89.7805 115.1C89.0328 115.1 88.5125 115.643 88.5125 116.377V118.258H87.6645H87.6607ZM92.3474 116.354C92.3474 115.27 93.3071 114.374 94.5868 114.374C95.8664 114.374 96.8261 115.224 96.8261 116.354V118.258H96.0205V117.593C95.7045 118.058 95.1456 118.35 94.4596 118.35C93.2416 118.35 92.3513 117.454 92.3513 116.354H92.3474ZM95.9743 116.362C95.9743 115.666 95.373 115.093 94.5868 115.093C93.8005 115.093 93.1992 115.666 93.1992 116.362C93.1992 117.058 93.8082 117.623 94.5868 117.623C95.3653 117.623 95.9743 117.05 95.9743 116.362ZM104.781 116.262V118.258H103.933V116.385C103.933 115.697 103.556 115.093 102.765 115.093C101.975 115.093 101.617 115.673 101.617 116.37V118.258H100.769V116.37C100.769 115.673 100.384 115.093 99.6011 115.093C98.8187 115.093 98.4603 115.697 98.4603 116.385V118.258H97.6123V116.27C97.6123 115.208 98.283 114.358 99.5395 114.358C100.38 114.358 100.989 114.747 101.204 115.335C101.436 114.747 102.029 114.358 102.827 114.358C104.095 114.358 104.781 115.208 104.781 116.262ZM105.568 120V116.354C105.568 115.224 106.535 114.374 107.807 114.374C109.079 114.374 110.035 115.27 110.035 116.354C110.035 117.5 109.117 118.35 107.838 118.35C107.271 118.35 106.758 118.127 106.415 117.785V120H105.568ZM109.183 116.362C109.183 115.666 108.582 115.1 107.803 115.1C107.024 115.1 106.415 115.666 106.415 116.362C106.415 117.058 107.017 117.631 107.803 117.631C108.589 117.631 109.183 117.05 109.183 116.362ZM110.597 113.212C110.597 112.935 110.844 112.701 111.156 112.701C111.468 112.701 111.703 112.931 111.703 113.212C111.703 113.493 111.465 113.716 111.156 113.716C110.848 113.716 110.597 113.493 110.597 113.212ZM111.584 114.466V118.258H110.736V114.466H111.584ZM112.27 116.354C112.27 115.262 113.257 114.374 114.517 114.374C115.777 114.374 116.745 115.27 116.745 116.354C116.745 117.439 115.777 118.35 114.517 118.35C113.257 118.35 112.27 117.454 112.27 116.354ZM115.897 116.362C115.897 115.666 115.296 115.093 114.517 115.093C113.739 115.093 113.118 115.666 113.118 116.362C113.118 117.058 113.727 117.623 114.517 117.623C115.307 117.623 115.897 117.05 115.897 116.362ZM118.117 116.423V118.258H117.269V116.347C117.269 115.239 117.997 114.374 119.354 114.374C120.711 114.374 121.474 115.239 121.474 116.339V118.258H120.626V116.431C120.626 115.72 120.198 115.108 119.358 115.108C118.518 115.108 118.125 115.72 118.125 116.423H118.117ZM122.06 117.5L122.711 117.177C122.927 117.558 123.27 117.696 123.733 117.696C124.195 117.696 124.581 117.519 124.581 117.185C124.581 116.389 122.172 116.993 122.172 115.543C122.172 114.877 122.823 114.389 123.74 114.389C124.519 114.389 125.051 114.716 125.317 115.154L124.665 115.489C124.484 115.154 124.141 115.039 123.756 115.039C123.37 115.039 123.02 115.224 123.02 115.527C123.02 116.3 125.428 115.735 125.428 117.17C125.428 117.889 124.658 118.346 123.763 118.346C122.985 118.346 122.384 118.069 122.056 117.504L122.06 117.5ZM126.192 118.258V112.724H127.04V114.893C127.363 114.574 127.872 114.374 128.439 114.374C129.672 114.374 130.37 115.116 130.37 116.277V118.258H129.522V116.354C129.522 115.681 129.109 115.1 128.311 115.1C127.564 115.1 127.043 115.643 127.043 116.377V118.258H126.195H126.192ZM131.179 113.212C131.179 112.935 131.426 112.701 131.738 112.701C132.05 112.701 132.285 112.931 132.285 113.212C132.285 113.493 132.046 113.716 131.738 113.716C131.43 113.716 131.179 113.493 131.179 113.212ZM132.166 114.466V118.258H131.318V114.466H132.166ZM133.114 120V116.354C133.114 115.224 134.081 114.374 135.353 114.374C136.625 114.374 137.585 115.27 137.585 116.354C137.585 117.5 136.667 118.35 135.388 118.35C134.821 118.35 134.309 118.127 133.966 117.785V120H133.118H133.114ZM136.733 116.362C136.733 115.666 136.132 115.1 135.353 115.1C134.575 115.1 133.966 115.666 133.966 116.362C133.966 117.058 134.567 117.631 135.353 117.631C136.139 117.631 136.733 117.05 136.733 116.362ZM140.83 118.258C140.306 118.258 140.04 117.989 140.04 117.654C140.04 117.416 140.159 117.196 140.41 117.004L142.117 115.635C142.588 115.247 142.838 114.962 142.838 114.527C142.838 114.062 142.403 113.731 141.836 113.731C141.269 113.731 140.807 114.039 140.549 114.512L139.87 114.17C140.248 113.466 140.961 112.978 141.894 112.978C142.958 112.978 143.713 113.635 143.713 114.454C143.713 115.081 143.405 115.562 142.865 115.993L141.165 117.354C141.096 117.416 141.061 117.439 141.061 117.485C141.061 117.508 141.077 117.523 141.104 117.523H143.863V118.25H140.826L140.83 118.258ZM144.31 115.658C144.31 114.143 145.243 112.981 146.615 112.981C147.987 112.981 148.92 114.143 148.92 115.658C148.92 117.173 147.987 118.358 146.615 118.358C145.243 118.358 144.31 117.158 144.31 115.658ZM148.022 115.658C148.022 114.597 147.421 113.785 146.615 113.785C145.81 113.785 145.208 114.597 145.208 115.658C145.208 116.72 145.81 117.546 146.615 117.546C147.421 117.546 148.022 116.704 148.022 115.658ZM150.277 118.258C149.753 118.258 149.487 117.989 149.487 117.654C149.487 117.416 149.606 117.196 149.857 117.004L151.564 115.635C152.034 115.247 152.285 114.962 152.285 114.527C152.285 114.062 151.849 113.731 151.283 113.731C150.716 113.731 150.254 114.039 149.995 114.512L149.317 114.17C149.695 113.466 150.408 112.978 151.341 112.978C152.404 112.978 153.16 113.635 153.16 114.454C153.16 115.081 152.851 115.562 152.312 115.993L150.612 117.354C150.543 117.416 150.508 117.439 150.508 117.485C150.508 117.508 150.524 117.523 150.55 117.523H153.31V118.25H150.273L150.277 118.258ZM153.877 113.074H156.679C157.226 113.074 157.527 113.366 157.527 113.716C157.527 113.954 157.388 114.174 157.122 114.389L155.939 115.304C155.854 115.358 155.827 115.366 155.827 115.397C155.827 115.404 155.835 115.397 155.854 115.397H156.316C157.114 115.397 157.723 115.97 157.723 116.758C157.723 117.689 156.868 118.362 155.75 118.362C154.806 118.362 154.085 117.981 153.711 117.262L154.474 116.896C154.698 117.369 155.152 117.631 155.761 117.631C156.37 117.631 156.868 117.273 156.868 116.758C156.868 116.277 156.482 116 155.881 116H155.511C155.141 116 154.929 115.762 154.929 115.52C154.929 115.343 155.033 115.17 155.21 115.024L156.455 114.07C156.532 114.016 156.567 113.978 156.567 113.908C156.567 113.839 156.517 113.801 156.428 113.801H153.873V113.074H153.877Z" fill="#966034"/>
<path d="M48.0161 94.3178C48.0161 91.5066 50.4597 89.2683 53.5894 89.2683C55.4587 89.2683 57.247 90.1644 58.0449 91.6758L56.1447 92.6411C55.6167 91.8065 54.788 91.272 53.493 91.272C51.7046 91.272 50.4096 92.5565 50.4096 94.314C50.4096 96.0715 51.6854 97.356 53.493 97.356C54.788 97.356 55.6475 96.8214 56.1447 95.9869L58.0449 96.9522C57.247 98.4674 55.4587 99.3596 53.5894 99.3596C50.4597 99.3596 48.0161 97.1252 48.0161 94.3101V94.3178ZM58.9082 99.1635V89.4568H61.2401V93.3641H66.1427V89.4568H68.4745V99.1635H66.1427V95.2985H61.2401V99.1635H58.9082ZM72.1129 90.8259C72.4791 89.7721 73.4388 89.2683 74.4447 89.2683C75.4507 89.2683 76.4258 89.7721 76.792 90.8259L79.6325 99.1635H77.2545L76.6301 97.1714L72.2709 97.1868L71.6465 99.1635H69.2685L72.109 90.8259H72.1129ZM72.8799 95.2947H76.025L74.8109 91.445C74.7454 91.2412 74.6529 91.1566 74.4601 91.1566C74.2828 91.1566 74.1711 91.2412 74.1094 91.445L72.8799 95.2947ZM79.9871 99.1635L81.4402 90.8105C81.6329 89.799 82.4153 89.2683 83.4984 89.2683C84.4581 89.2683 85.2713 89.6452 85.5257 90.5797L87.3295 96.6368C87.3295 96.6791 87.3449 96.6791 87.3449 96.6791C87.3603 96.6791 87.3757 96.6791 87.3757 96.6368L89.1487 90.622C89.4185 89.6837 90.251 89.2645 91.2261 89.2645C92.2976 89.2645 93.0608 89.8144 93.2226 90.8528L94.5485 99.1597H92.1858L91.1491 91.545C91.1491 91.4719 91.1336 91.4296 91.0681 91.4296C91.0219 91.4296 90.9872 91.4604 90.9718 91.5181L88.9753 97.9521C88.7517 98.6866 88.1119 99.0481 87.3449 99.0481C86.5779 99.0481 85.9227 98.702 85.7338 97.9944L83.7373 91.5181C83.7219 91.445 83.6911 91.4296 83.6564 91.4296C83.6101 91.4296 83.56 91.4604 83.56 91.5296L82.3459 99.1597H79.9833L79.9871 99.1635ZM95.9399 99.1635V89.4568H99.7248C102.773 89.4568 104.643 90.7412 104.643 92.991C104.643 95.2408 102.808 96.5984 99.852 96.5984H98.2717V99.152L95.9399 99.1674V99.1635ZM98.2717 91.4027V94.6486H99.7903C101.324 94.6486 102.249 94.114 102.249 92.991C102.249 91.9219 101.324 91.4027 99.7903 91.4027H98.2717ZM108.058 89.4568V99.1635H105.726V89.4568H108.058ZM109.241 94.3178C109.241 91.4604 111.654 89.2837 114.83 89.2837C118.005 89.2837 120.434 91.4604 120.434 94.3178C120.434 97.1752 118.005 99.352 114.83 99.352C111.654 99.352 109.241 97.1868 109.241 94.3178ZM118.025 94.3178C118.025 92.6026 116.637 91.2758 114.83 91.2758C113.022 91.2758 111.634 92.6026 111.634 94.3178C111.634 96.033 113.041 97.3598 114.83 97.3598C116.618 97.3598 118.025 96.033 118.025 94.3178ZM121.505 99.1635V90.7836C121.505 89.8183 122.288 89.2529 123.166 89.2529C123.868 89.2529 124.427 89.4837 124.777 90.0182L129.025 96.5945V89.4529H131.229V97.8329C131.229 98.7982 130.447 99.3481 129.599 99.3481C128.913 99.3481 128.323 99.1328 127.969 98.5982L123.721 91.9796V99.1635H121.501H121.505ZM132.494 97.2291L134.44 96.3484C134.791 97.056 135.542 97.4175 136.66 97.4175C137.666 97.4175 138.433 97.0406 138.433 96.3484C138.433 95.5408 137.585 95.41 136.467 95.237C134.856 94.9908 132.667 94.4717 132.667 92.2796C132.667 90.5759 134.359 89.2798 136.579 89.2798C138.352 89.2798 139.886 90.0144 140.572 91.3989L138.626 92.2796C138.275 91.6604 137.574 91.2258 136.487 91.2258C135.608 91.2258 135.003 91.5989 135.003 92.1911C135.003 92.9718 135.897 93.1718 137.061 93.3602C138.657 93.6064 140.765 94.1255 140.765 96.333C140.765 98.079 138.946 99.3481 136.66 99.3481C134.729 99.3481 133.18 98.6136 132.494 97.2291ZM142.122 99.1635V89.4568H144.453V93.3641H149.356V89.4568H151.688V99.1635H149.356V95.2985H144.453V99.1635H142.122ZM156.093 89.4568V99.1635H153.761V89.4568H156.093ZM158.155 99.1635V89.4568H161.94C164.989 89.4568 166.858 90.7412 166.858 92.991C166.858 95.2408 165.023 96.5984 162.067 96.5984H160.487V99.152L158.155 99.1674V99.1635ZM160.483 91.4027V94.6486H162.002C163.536 94.6486 164.461 94.114 164.461 92.991C164.461 91.9219 163.536 91.4027 162.002 91.4027H160.483Z" fill="#966034"/>
</g>
<defs>
<clipPath id="clip0_351_8208">
<rect width="216" height="120" fill="white"/>
</clipPath>
</defs>
</svg>
