<svg width="218" height="120" viewBox="0 0 218 120" fill="none" xmlns="http://www.w3.org/2000/svg">
<g clip-path="url(#clip0_351_6824)">
<path d="M51.2497 116.226C49.7988 117.751 41.5482 112.557 38.9108 108.075C38.9108 108.075 37.4443 105.609 37.1292 102.154C37.102 101.835 37.1292 101.508 37.1759 101.193C37.207 100.991 37.3199 100.804 37.5066 100.318C37.8761 100.438 38.2807 100.52 38.6697 100.625C38.6697 100.625 39.2026 100.812 39.7277 101.084C45.2553 103.963 48.7368 109.776 48.7368 109.776C50.4134 112.577 52.0783 115.355 51.2497 116.226Z" fill="#EBAA01"/>
<path d="M27.5134 12.8815C27.9569 4.71139 38.1913 -1.80917 47.5466 0.451239C41.9451 6.56329 36.6003 12.4808 27.5134 12.8815Z" fill="#EBAA01"/>
<path d="M15.7465 85.9849C9.88824 78.1843 10.3706 69.4773 16.7229 64.2756C20.6634 71.6171 17.4736 78.4489 15.7465 85.9849Z" fill="#EBAA01"/>
<path d="M10.1604 70.87C6.62054 61.8245 9.42519 53.4092 16.8511 50.1489C18.6327 58.3191 13.7508 64.1082 10.1604 70.87Z" fill="#EBAA01"/>
<path d="M11.8523 38.419C12.7353 29.5563 20.3479 22.9696 27.6221 24.557C26.5213 29.6964 20.9081 34.6802 11.8523 38.419Z" fill="#EBAA01"/>
<path d="M8.94277 54.561C7.65131 45.1964 13.1828 36.8745 20.7176 36.7617C20.0602 44.8774 14.1242 49.227 8.94277 54.561Z" fill="#EBAA01"/>
<path d="M38.2028 14.5857C33.4609 21.437 26.0506 22.1684 19.0798 24.172C20.3402 17.4647 31.0647 10.6329 38.2028 14.5857Z" fill="#EBAA01"/>
<path d="M20.4649 78.0754C25.9108 84.1213 24.8528 91.4667 25.0511 98.742C17.4463 94.3613 15.3613 82.6157 20.4649 78.0754Z" fill="#EBAA01"/>
<path d="M22.818 99.925C15.2132 99.9678 7.77171 93.2488 6.07959 84.7947C14.3768 86.7166 18.7841 93.0271 22.818 99.925Z" fill="#EBAA01"/>
<path d="M37.5688 109.457C28.8125 105.815 25.0276 98.6486 27.2487 90.0427C34.3479 94.6102 35.2037 102.014 37.5688 109.457Z" fill="#EBAA01"/>
<path d="M50.5766 117.803C45.0452 122.616 32.6362 118.818 28.6218 113.246C36.7829 110.608 43.6915 114.262 50.5766 117.803Z" fill="#EBAA01"/>
<path d="M5.72974 30.8987C10.1954 38.3802 8.83002 45.8928 6.83837 53.4288C1.4158 49.2465 0.882875 39.6096 5.72974 30.8987Z" fill="#EBAA01"/>
<path d="M14.9954 15.3093C17.5161 23.5534 13.7078 30.3735 10.1446 37.0769C5.83069 32.0815 8.30858 20.5927 14.9954 15.3093Z" fill="#EBAA01"/>
<path d="M8.03655 70.3758C1.33418 66.7576 -1.84779 56.9417 1.10856 48.8533C7.60476 54.7008 7.39471 62.6881 8.03655 70.3758Z" fill="#EBAA01"/>
<path d="M17.4657 22.4522C14.7816 16.1223 20.6982 5.41942 28.4548 2.27197C26.821 7.50865 27.07 13.006 22.3748 16.7565C20.5154 18.2427 19.1967 20.4058 17.4696 22.4522H17.4657Z" fill="#EBAA01"/>
<path d="M1.11999 67.1042C8.7715 71.1621 11.1094 78.5035 13.3111 85.7867C6.76429 85.3237 0.583179 75.998 1.11999 67.1042Z" fill="#EBAA01"/>
<path d="M35.6352 110.767C27.9993 112.721 19.8615 108.534 14.9563 99.7961C19.2625 101.01 23.3236 101.504 26.6922 103.29C29.9676 105.025 32.5349 108.091 35.6352 110.764V110.767Z" fill="#EBAA01"/>
<path d="M166.75 116.226C168.201 117.751 176.451 112.558 179.089 108.076C179.089 108.076 180.555 105.609 180.87 102.154C180.898 101.835 180.87 101.508 180.824 101.193C180.793 100.991 180.68 100.804 180.493 100.318C180.123 100.438 179.719 100.52 179.33 100.625C179.33 100.625 178.797 100.812 178.272 101.084C172.744 103.963 169.263 109.776 169.263 109.776C167.586 112.577 165.921 115.355 166.75 116.226Z" fill="#EBAA01"/>
<path d="M190.486 12.8815C190.043 4.71139 179.808 -1.80917 170.453 0.451239C176.055 6.56329 181.399 12.4808 190.486 12.8815Z" fill="#EBAA01"/>
<path d="M202.253 85.9851C208.112 78.1846 207.629 69.4775 201.277 64.2759C197.336 71.6173 200.526 78.4491 202.253 85.9851Z" fill="#EBAA01"/>
<path d="M207.839 70.8702C211.379 61.8247 208.575 53.4094 201.149 50.1492C199.367 58.3193 204.249 64.1085 207.839 70.8702Z" fill="#EBAA01"/>
<path d="M206.147 38.419C205.264 29.5563 197.652 22.9696 190.377 24.557C191.478 29.6964 197.091 34.6802 206.147 38.419Z" fill="#EBAA01"/>
<path d="M209.057 54.561C210.348 45.1964 204.817 36.8745 197.282 36.7617C197.939 44.8774 203.875 49.227 209.057 54.561Z" fill="#EBAA01"/>
<path d="M179.797 14.5857C184.539 21.437 191.949 22.1684 198.92 24.172C197.659 17.4647 186.935 10.6329 179.797 14.5857Z" fill="#EBAA01"/>
<path d="M197.535 78.0754C192.089 84.1213 193.147 91.4667 192.949 98.742C200.554 94.3613 202.639 82.6157 197.535 78.0754Z" fill="#EBAA01"/>
<path d="M195.182 99.925C202.786 99.9678 210.228 93.2488 211.92 84.7947C203.623 86.7166 199.216 93.0271 195.182 99.925Z" fill="#EBAA01"/>
<path d="M180.435 109.457C189.191 105.815 192.976 98.6486 190.755 90.0427C183.656 94.6102 182.8 102.014 180.435 109.457Z" fill="#EBAA01"/>
<path d="M167.423 117.803C172.955 122.616 185.363 118.818 189.378 113.246C181.217 110.608 174.308 114.262 167.423 117.803Z" fill="#EBAA01"/>
<path d="M212.274 30.8987C207.808 38.3802 209.173 45.8928 211.165 53.4288C216.588 49.2465 217.121 39.6096 212.274 30.8987Z" fill="#EBAA01"/>
<path d="M203.004 15.3093C200.483 23.5534 204.292 30.3735 207.855 37.0769C212.169 32.0815 209.691 20.5927 203.004 15.3093Z" fill="#EBAA01"/>
<path d="M209.963 70.3758C216.666 66.7576 219.848 56.9417 216.891 48.8533C210.395 54.7008 210.605 62.6881 209.963 70.3758Z" fill="#EBAA01"/>
<path d="M200.534 22.4525C203.218 16.1226 197.302 5.41967 189.545 2.27222C191.179 7.50889 190.93 13.0062 195.625 16.7567C197.485 18.2429 198.803 20.4061 200.53 22.4525H200.534Z" fill="#EBAA01"/>
<path d="M216.88 67.1042C209.228 71.1621 206.89 78.5035 204.689 85.7867C211.235 85.3237 217.417 75.998 216.88 67.1042Z" fill="#EBAA01"/>
<path d="M182.368 110.768C190.004 112.721 198.142 108.535 203.047 99.7964C198.741 101.01 194.68 101.504 191.311 103.29C188.036 105.025 185.468 108.091 182.368 110.764V110.768Z" fill="#EBAA01"/>
<path d="M44.7303 79.3164H40.2568V69.0726H44.7303C48.4335 69.0726 50.8958 71.1229 50.8958 74.2314C50.8958 77.34 48.3479 79.3164 44.7303 79.3164ZM44.7303 71.652H43.3571V76.8109H44.7303C46.5391 76.8109 47.7139 75.7799 47.7139 74.2314C47.7139 72.683 46.5391 71.652 44.7303 71.652ZM53.895 70.6949C54.3151 69.4344 55.486 68.843 56.6607 68.843C57.8355 68.843 59.0063 69.4344 59.4265 70.6949L62.3439 79.3125H59.1775L58.6562 77.5812H54.6846L54.1478 79.3125H50.9814L53.8989 70.6949H53.895ZM55.4548 75.0796H57.886L56.8124 71.5119C56.7774 71.4069 56.7463 71.3602 56.6802 71.3602C56.614 71.3602 56.579 71.4069 56.5479 71.5119L55.4587 75.0796H55.4548ZM70.6723 71.652H67.4709V79.3164H64.3706V71.652H61.1691V69.0726H70.6684V71.652H70.6723ZM72.415 70.6949C72.8351 69.4344 74.006 68.843 75.1807 68.843C76.3555 68.843 77.5263 69.4344 77.9465 70.6949L80.8639 79.3125H77.6975L77.1762 77.5812H73.2046L72.6678 79.3125H69.5014L72.4189 70.6949H72.415ZM73.9748 75.0796H76.406L75.3324 71.5119C75.2974 71.4069 75.2663 71.3602 75.2002 71.3602C75.134 71.3602 75.099 71.4069 75.0679 71.5119L73.9787 75.0796H73.9748ZM93.8835 71.652H90.6821V79.3164H87.5818V71.652H84.3804V69.0726H93.8797V71.652H93.8835ZM97.1511 79.3164C95.2411 79.3164 94.4709 78.406 94.4709 76.9665V71.4263C94.4709 69.9829 95.2411 69.0765 97.1511 69.0765H102.947V71.582H97.5673V72.9475H102.562V75.4531H97.5673V76.8186H103.029V79.3242H97.1472L97.1511 79.3164ZM107.475 76.7369H112.47V79.3164H107.059C105.149 79.3164 104.379 78.406 104.379 76.9665V69.0765H107.479V76.7408L107.475 76.7369ZM115.652 79.3164C113.742 79.3164 112.971 78.406 112.971 76.9665V71.4263C112.971 69.9829 113.742 69.0765 115.652 69.0765H121.448V71.582H116.068V72.9475H121.063V75.4531H116.068V76.8186H121.529V79.3242H115.648L115.652 79.3164ZM122.206 79.3164L123.696 70.7144C123.914 69.5005 124.851 68.8469 126.209 68.8469C127.38 68.8469 128.372 69.3021 128.691 70.442L130.231 75.8732L131.756 70.4848C132.075 69.3488 133.098 68.8469 134.304 68.8469C135.626 68.8469 136.533 69.5161 136.735 70.7572L138.077 79.3164H134.946L134.039 72.0955L132.246 78.013C131.962 78.9234 131.172 79.3631 130.235 79.3631C129.298 79.3631 128.477 78.939 128.224 78.0714L126.446 72.0761L125.357 79.3125H122.206V79.3164ZM141.765 79.3164C139.855 79.3164 139.085 78.406 139.085 76.9665V71.4263C139.085 69.9829 139.855 69.0765 141.765 69.0765H147.561V71.582H142.181V72.9475H147.176V75.4531H142.181V76.8186H147.642V79.3242H141.761L141.765 79.3164ZM157.398 71.652H154.197V79.3164H151.097V71.652H147.895V69.0726H157.395V71.652H157.398ZM158.153 79.3164V69.0726H162.895C165.575 69.0726 167.621 70.2125 167.621 72.4729C167.621 73.8229 166.785 74.9317 165.458 75.3091C166.026 75.6437 166.396 76.2351 166.902 77.161L168.057 79.3164H164.688L163.634 77.3905C163.249 76.6941 162.813 76.4335 161.806 76.4335H161.238L161.222 79.3164H158.157H158.153ZM161.253 71.652L161.238 73.9435H162.895C163.801 73.9435 164.435 73.4883 164.435 72.7608C164.435 71.9866 163.797 71.652 162.926 71.652H161.25H161.253ZM167.975 69.0726H171.309L173.503 74.0486L175.666 69.0726H178.999L176.253 74.9006C175.969 75.492 175.549 75.9472 175.063 76.2506V79.3164H171.962V76.2817C171.461 75.9783 171.025 75.5231 170.722 74.9006L167.975 69.0726Z" fill="#EBAA01"/>
<path d="M68.7313 87.3077C69.3226 85.6075 70.8669 84.7905 72.489 84.7905C74.1111 84.7905 75.6787 85.6075 76.2739 87.3077L80.8562 100.777H77.0208L76.0171 97.5632L68.9919 97.5865L67.9883 100.781H64.1528L68.7352 87.3116L68.7313 87.3077ZM69.9683 94.5325H75.0369L73.0802 88.3115C72.9791 87.9847 72.8235 87.8446 72.5123 87.8446C72.2283 87.8446 72.0494 87.9847 71.9444 88.3115L69.9644 94.5325H69.9683ZM79.592 85.094H83.3497L86.0765 97.5126C86.1038 97.606 86.1271 97.6293 86.1543 97.6293C86.1816 97.6293 86.2049 97.606 86.2321 97.5126L88.7295 87.5878C89.1924 85.6776 90.2465 84.8606 91.7909 84.8606C93.3352 84.8606 94.366 85.6776 94.8522 87.5645L97.4001 97.5126C97.4274 97.606 97.4274 97.6293 97.4779 97.6293C97.5052 97.6293 97.5052 97.5826 97.5285 97.5126L100.154 85.094H103.912L100.823 98.493C100.438 100.147 99.3062 101.104 97.6335 101.104C96.0892 101.104 94.8522 100.217 94.4438 98.6331L91.7947 88.3348L89.169 98.7031C88.7839 100.217 87.4964 101.104 86.0026 101.104C84.4077 101.104 83.1707 100.217 82.7856 98.5631L79.5959 85.094H79.592ZM107.238 87.3077C107.829 85.6075 109.373 84.7905 110.995 84.7905C112.618 84.7905 114.185 85.6075 114.78 87.3077L119.363 100.777H115.527L114.524 97.5632L107.498 97.5865L106.495 100.781H102.659L107.242 87.3116L107.238 87.3077ZM108.471 94.5325H113.54L111.583 88.3115C111.482 87.9847 111.326 87.8446 111.015 87.8446C110.731 87.8446 110.552 87.9847 110.447 88.3115L108.467 94.5325H108.471ZM121.035 100.777V85.094H127.703C131.616 85.094 134.627 86.7475 134.627 90.0817C134.627 92.2254 133.238 93.8788 131.025 94.4157C132.133 94.976 132.775 96.0459 133.674 97.676L135.347 100.777H131.282L129.737 97.9795C128.94 96.5361 128.193 95.7658 126.236 95.7658H124.77L124.743 100.777H121.035ZM124.789 88.2414L124.762 92.7389H127.695C129.469 92.7389 130.756 91.8986 130.756 90.4318C130.756 88.9651 129.445 88.2414 127.746 88.2414H124.785H124.789ZM143.916 100.777H137.533V85.094H143.994C149.603 85.094 153.337 88.2181 153.337 92.9451C153.337 97.6721 149.374 100.773 143.916 100.773V100.777ZM143.994 88.2414H141.29V97.7266H143.916C147.16 97.7266 149.475 95.8864 149.475 92.949C149.475 90.0116 147.261 88.2414 143.994 88.2414Z" fill="#EBAA01"/>
<path d="M58.8042 109.231L59.411 108.962C59.5939 109.332 59.9984 109.53 60.5547 109.53C61.1109 109.53 61.5272 109.293 61.5272 108.873C61.5272 108.402 61.0487 108.317 60.4885 108.223C59.7767 108.095 58.8937 107.885 58.8937 106.978C58.8937 106.27 59.6055 105.733 60.5041 105.733C61.2237 105.733 61.8656 106.041 62.1495 106.628L61.5505 106.908C61.3599 106.558 60.9981 106.34 60.4769 106.34C59.9984 106.34 59.6094 106.597 59.6094 106.959C59.6094 107.418 60.1112 107.519 60.683 107.624C61.3871 107.752 62.2507 107.963 62.2507 108.869C62.2507 109.624 61.5077 110.145 60.5586 110.145C59.7611 110.145 59.0921 109.818 58.8081 109.231H58.8042ZM62.9159 110.075V105.508H63.6161V107.297C63.8845 107.037 64.3007 106.869 64.7675 106.869C65.7828 106.869 66.3546 107.484 66.3546 108.441V110.075H65.6544V108.503C65.6544 107.947 65.316 107.468 64.6586 107.468C64.0439 107.468 63.6122 107.916 63.6122 108.523V110.075H62.912H62.9159ZM66.7747 108.488C66.7747 107.589 67.4865 106.854 68.5252 106.854C69.5638 106.854 70.2173 107.538 70.2173 108.414V108.671H67.4515C67.5293 109.208 67.9806 109.585 68.603 109.585C69.027 109.585 69.4082 109.418 69.6105 109.075L70.1473 109.324C69.8438 109.861 69.2876 110.149 68.6068 110.149C67.5566 110.149 66.7708 109.46 66.7708 108.496L66.7747 108.488ZM69.521 108.258C69.4938 107.76 69.0892 107.422 68.5174 107.422C67.9456 107.422 67.5488 107.791 67.4788 108.258H69.5171H69.521ZM71.5399 105.508V110.075H70.8397V105.508H71.5399ZM73.162 105.508V110.075H72.4618V105.508H73.162ZM76.4062 110.075C75.9199 110.075 75.741 109.853 75.741 109.488V106.383C75.741 106.017 75.916 105.796 76.4062 105.796H79.0047V106.391H76.4645V107.636H78.8646V108.231H76.4645V109.484H79.0552V110.079H76.4101L76.4062 110.075ZM79.3703 108.503C79.3703 107.605 80.1833 106.862 81.1752 106.869C81.8093 106.869 82.3967 107.13 82.7157 107.694L82.1361 107.986C81.9299 107.647 81.5837 107.468 81.1752 107.468C80.5684 107.468 80.0666 107.935 80.0666 108.503C80.0666 109.071 80.5684 109.55 81.1752 109.55C81.5837 109.55 81.9299 109.371 82.1361 109.032L82.7157 109.32C82.3967 109.888 81.8132 110.145 81.1752 110.145C80.1794 110.157 79.3703 109.41 79.3703 108.503ZM82.8557 108.503C82.8557 107.605 83.6687 106.869 84.7034 106.869C85.7381 106.869 86.5395 107.609 86.5395 108.503C86.5395 109.398 85.742 110.153 84.7034 110.153C83.6648 110.153 82.8557 109.414 82.8557 108.503ZM85.8393 108.507C85.8393 107.931 85.3453 107.461 84.7034 107.461C84.0616 107.461 83.552 107.931 83.552 108.507C83.552 109.083 84.0538 109.55 84.7034 109.55C85.353 109.55 85.8393 109.079 85.8393 108.507ZM89.6864 108.387H87.2435V107.811H89.6864V108.387ZM96.5094 108.426V110.075H95.8092V108.531C95.8092 107.963 95.498 107.465 94.8484 107.465C94.1988 107.465 93.9031 107.943 93.9031 108.519V110.079H93.2029V108.519C93.2029 107.943 92.884 107.465 92.2421 107.465C91.6003 107.465 91.3046 107.963 91.3046 108.531V110.075H90.6045V108.433C90.6045 107.558 91.1568 106.854 92.1916 106.854C92.884 106.854 93.3858 107.173 93.5608 107.659C93.7514 107.173 94.2377 106.854 94.8951 106.854C95.9415 106.854 96.5055 107.558 96.5055 108.426H96.5094ZM96.9373 108.503C96.9373 107.609 97.7269 106.869 98.7811 106.869C99.8353 106.869 100.625 107.573 100.625 108.503V110.075H99.9598V109.527C99.6991 109.912 99.2401 110.153 98.6761 110.153C97.6725 110.153 96.9412 109.414 96.9412 108.503H96.9373ZM99.9248 108.507C99.9248 107.931 99.4307 107.461 98.7811 107.461C98.1315 107.461 97.6375 107.931 97.6375 108.507C97.6375 109.083 98.1393 109.55 98.7811 109.55C99.423 109.55 99.9248 109.079 99.9248 108.507ZM101.271 110.075V108.212C101.271 107.453 101.749 106.881 102.655 106.881C102.873 106.881 103.099 106.92 103.278 106.994V107.62C103.107 107.531 102.912 107.488 102.722 107.488C102.255 107.488 101.975 107.776 101.975 108.235V110.075H101.275H101.271ZM103.22 108.503C103.22 107.609 104.009 106.869 105.063 106.869C106.118 106.869 106.907 107.573 106.907 108.503V110.075H106.242V109.527C105.981 109.912 105.522 110.153 104.958 110.153C103.955 110.153 103.223 109.414 103.223 108.503H103.22ZM106.203 108.507C106.203 107.931 105.709 107.461 105.059 107.461C104.41 107.461 103.916 107.931 103.916 108.507C103.916 109.083 104.418 109.55 105.059 109.55C105.701 109.55 106.203 109.079 106.203 108.507ZM107.806 108.951V107.496H107.121V106.947H107.806V106.138H108.506V106.947H109.832V107.496H108.506V108.931C108.506 109.34 108.774 109.581 109.191 109.581C109.416 109.581 109.665 109.503 109.832 109.394V109.974C109.657 110.083 109.381 110.153 109.128 110.153C108.269 110.153 107.81 109.663 107.81 108.947L107.806 108.951ZM110.513 110.075V105.508H111.213V107.297C111.482 107.037 111.898 106.869 112.365 106.869C113.38 106.869 113.952 107.484 113.952 108.441V110.075H113.252V108.503C113.252 107.947 112.913 107.468 112.256 107.468C111.641 107.468 111.209 107.916 111.209 108.523V110.075H110.509H110.513ZM114.372 108.503C114.372 107.605 115.185 106.869 116.22 106.869C117.254 106.869 118.056 107.609 118.056 108.503C118.056 109.398 117.258 110.153 116.22 110.153C115.181 110.153 114.372 109.414 114.372 108.503ZM117.359 108.507C117.359 107.931 116.865 107.461 116.224 107.461C115.582 107.461 115.072 107.931 115.072 108.507C115.072 109.083 115.574 109.55 116.224 109.55C116.873 109.55 117.359 109.079 117.359 108.507ZM119.188 108.558V110.071H118.488V108.492C118.488 107.577 119.087 106.862 120.203 106.862C121.319 106.862 121.946 107.577 121.946 108.484V110.067H121.246V108.558C121.246 107.97 120.892 107.465 120.199 107.465C119.507 107.465 119.184 107.97 119.184 108.55L119.188 108.558ZM125.295 106.313C125.435 105.912 125.781 105.718 126.178 105.718C126.575 105.718 126.925 105.908 127.069 106.313L128.36 110.075H127.625L127.279 109.029L125.077 109.036L124.731 110.079H124.003L125.295 106.317V106.313ZM125.275 108.437H127.088L126.454 106.504C126.404 106.371 126.322 106.305 126.186 106.305C126.046 106.305 125.96 106.367 125.917 106.504L125.275 108.437ZM128.597 109.449L129.134 109.18C129.309 109.492 129.593 109.608 129.975 109.608C130.356 109.608 130.675 109.46 130.675 109.188C130.675 108.531 128.691 109.029 128.691 107.834C128.691 107.286 129.228 106.881 129.982 106.881C130.624 106.881 131.064 107.149 131.282 107.511L130.745 107.787C130.597 107.511 130.313 107.418 129.998 107.418C129.683 107.418 129.391 107.57 129.391 107.819C129.391 108.457 131.375 107.99 131.375 109.172C131.375 109.768 130.741 110.145 130.006 110.145C129.364 110.145 128.87 109.916 128.601 109.449H128.597ZM131.885 105.908C131.885 105.679 132.091 105.488 132.344 105.488C132.596 105.488 132.795 105.679 132.795 105.908C132.795 106.138 132.596 106.325 132.344 106.325C132.091 106.325 131.885 106.138 131.885 105.908ZM132.697 106.943V110.071H131.997V106.943H132.697ZM133.262 108.503C133.262 107.609 134.051 106.869 135.105 106.869C136.16 106.869 136.949 107.573 136.949 108.503V110.075H136.284V109.527C136.023 109.912 135.564 110.153 135 110.153C133.997 110.153 133.265 109.414 133.265 108.503H133.262ZM136.245 108.507C136.245 107.931 135.751 107.461 135.101 107.461C134.452 107.461 133.958 107.931 133.958 108.507C133.958 109.083 134.46 109.55 135.101 109.55C135.743 109.55 136.245 109.079 136.245 108.507ZM139.462 110.075V105.796H140.968C142.24 105.796 143.064 106.313 143.064 107.309C143.064 108.305 142.224 108.842 141.003 108.842H140.186V110.075H139.466H139.462ZM140.182 106.395V108.235H140.987C141.765 108.235 142.321 107.959 142.321 107.309C142.321 106.659 141.784 106.395 140.987 106.395H140.182ZM143.216 108.503C143.216 107.609 144.006 106.869 145.06 106.869C146.114 106.869 146.904 107.573 146.904 108.503V110.075H146.238V109.527C145.978 109.912 145.519 110.153 144.955 110.153C143.951 110.153 143.22 109.414 143.22 108.503H143.216ZM146.203 108.507C146.203 107.931 145.709 107.461 145.06 107.461C144.41 107.461 143.916 107.931 143.916 108.507C143.916 109.083 144.418 109.55 145.06 109.55C145.702 109.55 146.203 109.079 146.203 108.507ZM147.331 108.503C147.331 107.605 148.144 106.862 149.136 106.869C149.77 106.869 150.358 107.13 150.677 107.694L150.097 107.986C149.891 107.647 149.545 107.468 149.136 107.468C148.53 107.468 148.028 107.935 148.028 108.503C148.028 109.071 148.53 109.55 149.136 109.55C149.545 109.55 149.891 109.371 150.097 109.032L150.677 109.32C150.358 109.888 149.774 110.145 149.136 110.145C148.141 110.157 147.331 109.41 147.331 108.503ZM151.062 105.908C151.062 105.679 151.268 105.488 151.521 105.488C151.774 105.488 151.972 105.679 151.972 105.908C151.972 106.138 151.774 106.325 151.521 106.325C151.268 106.325 151.062 106.138 151.062 105.908ZM151.875 106.943V110.071H151.175V106.943H151.875ZM153.026 110.075V107.496H152.369V106.947H153.026V106.62C153.026 105.955 153.485 105.457 154.353 105.457C154.586 105.457 154.804 105.496 154.979 105.57V106.188C154.816 106.099 154.613 106.048 154.415 106.048C153.983 106.048 153.723 106.22 153.723 106.636V106.943H155.839V110.071H155.139V107.492H153.719V110.071H153.019L153.026 110.075ZM156.306 108.503C156.306 107.605 157.119 106.862 158.11 106.869C158.745 106.869 159.332 107.13 159.651 107.694L159.071 107.986C158.865 107.647 158.519 107.468 158.11 107.468C157.504 107.468 157.002 107.935 157.002 108.503C157.002 109.071 157.504 109.55 158.11 109.55C158.519 109.55 158.865 109.371 159.071 109.032L159.651 109.32C159.332 109.888 158.748 110.145 158.11 110.145C157.115 110.157 156.306 109.41 156.306 108.503ZM68.6496 116.168C68.6496 115.273 69.4393 114.534 70.4935 114.534C71.5476 114.534 72.3373 115.238 72.3373 116.168V117.739H71.6721V117.191C71.4115 117.576 70.9525 117.817 70.3884 117.817C69.3848 117.817 68.6535 117.074 68.6535 116.168H68.6496ZM71.6332 116.175C71.6332 115.6 71.1392 115.129 70.4896 115.129C69.84 115.129 69.3459 115.6 69.3459 116.175C69.3459 116.751 69.8477 117.218 70.4896 117.218C71.1314 117.218 71.6332 116.747 71.6332 116.175ZM73.6793 116.226V117.739H72.9791V116.16C72.9791 115.246 73.5782 114.53 74.6946 114.53C75.811 114.53 76.4373 115.246 76.4373 116.152V117.736H75.7371V116.226C75.7371 115.639 75.3831 115.133 74.6907 115.133C73.9983 115.133 73.6754 115.639 73.6754 116.218L73.6793 116.226ZM76.8691 116.179C76.8691 115.226 77.6315 114.53 78.674 114.53C79.1408 114.53 79.5648 114.717 79.8449 114.997L79.8527 113.168H80.5529V116.175C80.5529 117.101 79.7554 117.81 78.709 117.81C77.6626 117.81 76.8652 117.074 76.8652 116.175L76.8691 116.179ZM79.8527 116.175C79.8527 115.607 79.3586 115.133 78.709 115.133C78.0594 115.133 77.5654 115.604 77.5654 116.175C77.5654 116.747 78.0672 117.222 78.709 117.222C79.3509 117.222 79.8527 116.751 79.8527 116.175ZM86.0766 114.059H84.6217V117.739H83.9021V114.059H82.455V113.46H86.0766V114.059ZM86.4656 117.739V113.172H87.1658V114.962C87.4342 114.701 87.8504 114.534 88.3172 114.534C89.3324 114.534 89.9043 115.148 89.9043 116.105V117.739H89.2041V116.168C89.2041 115.611 88.8657 115.133 88.2083 115.133C87.5936 115.133 87.1619 115.58 87.1619 116.187V117.739H86.4617H86.4656ZM90.3244 116.156C90.3244 115.253 91.0362 114.522 92.0749 114.522C93.1135 114.522 93.767 115.207 93.767 116.082V116.339H91.0012C91.079 116.876 91.5303 117.253 92.1527 117.253C92.5767 117.253 92.9579 117.086 93.1602 116.744L93.697 116.992C93.3935 117.529 92.8373 117.817 92.1565 117.817C91.1063 117.817 90.3205 117.129 90.3205 116.164L90.3244 116.156ZM93.0707 115.926C93.0434 115.429 92.6389 115.09 92.0671 115.09C91.4953 115.09 91.0985 115.46 91.0285 115.926H93.0668H93.0707ZM95.7936 117.747L96.4588 113.954C96.5211 113.584 96.8206 113.386 97.2018 113.386C97.5402 113.386 97.8281 113.534 97.937 113.872L98.8472 116.856C98.8628 116.915 98.8745 116.934 98.9095 116.934C98.9523 116.934 98.96 116.915 98.9795 116.856L99.882 113.888C99.9792 113.549 100.283 113.398 100.621 113.398C100.994 113.398 101.286 113.604 101.348 113.977L101.948 117.747H101.22L100.699 114.184C100.683 114.094 100.656 114.036 100.578 114.036C100.516 114.036 100.473 114.082 100.45 114.164L99.4774 117.23C99.3996 117.487 99.174 117.615 98.9056 117.615C98.6527 117.615 98.4116 117.487 98.3338 117.245L97.3652 114.16C97.3379 114.071 97.3029 114.032 97.2368 114.032C97.1707 114.032 97.124 114.078 97.1084 114.18L96.5211 117.755H95.7859L95.7936 117.747ZM102.508 113.577C102.508 113.347 102.714 113.156 102.967 113.156C103.22 113.156 103.418 113.347 103.418 113.577C103.418 113.806 103.22 113.993 102.967 113.993C102.714 113.993 102.508 113.806 102.508 113.577ZM103.321 114.611V117.739H102.62V114.611H103.321ZM103.885 116.179C103.885 115.226 104.647 114.53 105.69 114.53C106.156 114.53 106.58 114.717 106.861 114.997L106.868 113.168H107.568V116.175C107.568 117.101 106.771 117.81 105.725 117.81C104.678 117.81 103.881 117.074 103.881 116.175L103.885 116.179ZM106.872 116.175C106.872 115.607 106.378 115.133 105.729 115.133C105.079 115.133 104.585 115.604 104.585 116.175C104.585 116.747 105.087 117.222 105.729 117.222C106.37 117.222 106.872 116.751 106.872 116.175ZM108 116.179C108 115.226 108.763 114.53 109.805 114.53C110.272 114.53 110.696 114.717 110.976 114.997L110.984 113.168H111.684V116.175C111.684 117.101 110.887 117.81 109.84 117.81C108.794 117.81 107.996 117.074 107.996 116.175L108 116.179ZM110.984 116.175C110.984 115.607 110.49 115.133 109.84 115.133C109.191 115.133 108.697 115.604 108.697 116.175C108.697 116.747 109.198 117.222 109.84 117.222C110.482 117.222 110.984 116.751 110.984 116.175ZM113.17 113.172V117.739H112.47V113.172H113.17ZM113.734 116.156C113.734 115.253 114.446 114.522 115.485 114.522C116.523 114.522 117.177 115.207 117.177 116.082V116.339H114.411C114.489 116.876 114.94 117.253 115.562 117.253C115.986 117.253 116.368 117.086 116.57 116.744L117.107 116.992C116.803 117.529 116.247 117.817 115.566 117.817C114.516 117.817 113.73 117.129 113.73 116.164L113.734 116.156ZM116.48 115.926C116.453 115.429 116.049 115.09 115.477 115.09C114.905 115.09 114.508 115.46 114.438 115.926H116.476H116.48ZM120.121 117.739C119.635 117.739 119.456 117.518 119.456 117.152V114.047C119.456 113.682 119.631 113.46 120.121 113.46H122.72V114.055H120.18V115.3H122.58V115.895H120.18V117.148H122.77V117.743H120.125L120.121 117.739ZM123.085 116.168C123.085 115.273 123.875 114.534 124.929 114.534C125.983 114.534 126.773 115.238 126.773 116.168V117.739H126.108V117.191C125.847 117.576 125.388 117.817 124.824 117.817C123.821 117.817 123.089 117.074 123.089 116.168H123.085ZM126.069 116.175C126.069 115.6 125.575 115.129 124.925 115.129C124.276 115.129 123.782 115.6 123.782 116.175C123.782 116.751 124.284 117.218 124.925 117.218C125.567 117.218 126.069 116.747 126.069 116.175ZM127.255 117.113L127.792 116.845C127.967 117.156 128.251 117.273 128.633 117.273C129.014 117.273 129.333 117.125 129.333 116.852C129.333 116.195 127.349 116.693 127.349 115.499C127.349 114.95 127.886 114.545 128.64 114.545C129.282 114.545 129.722 114.814 129.94 115.176L129.403 115.452C129.255 115.176 128.971 115.082 128.656 115.082C128.341 115.082 128.049 115.234 128.049 115.483C128.049 116.121 130.033 115.654 130.033 116.837C130.033 117.432 129.399 117.81 128.664 117.81C128.022 117.81 127.528 117.58 127.259 117.113H127.255ZM130.768 116.615V115.16H130.083V114.611H130.768V113.802H131.468V114.611H132.795V115.16H131.468V116.596C131.468 117.004 131.737 117.245 132.153 117.245C132.379 117.245 132.627 117.168 132.795 117.059V117.638C132.62 117.747 132.344 117.817 132.091 117.817C131.231 117.817 130.772 117.327 130.772 116.611L130.768 116.615ZM135.572 117.739C135.14 117.739 134.923 117.518 134.923 117.241C134.923 117.043 135.02 116.864 135.226 116.705L136.63 115.572C137.019 115.253 137.221 115.016 137.221 114.658C137.221 114.277 136.86 114.001 136.397 114.001C135.934 114.001 135.549 114.257 135.339 114.646L134.783 114.366C135.094 113.787 135.677 113.382 136.447 113.382C137.323 113.382 137.945 113.927 137.945 114.604C137.945 115.121 137.692 115.518 137.245 115.876L135.848 117C135.79 117.051 135.763 117.07 135.763 117.109C135.763 117.129 135.778 117.14 135.798 117.14H138.07V117.739H135.572ZM138.435 115.592C138.435 114.339 139.205 113.382 140.333 113.382C141.462 113.382 142.232 114.339 142.232 115.592C142.232 116.845 141.462 117.821 140.333 117.821C139.205 117.821 138.435 116.833 138.435 115.592ZM141.493 115.592C141.493 114.717 140.999 114.047 140.333 114.047C139.668 114.047 139.178 114.717 139.178 115.592C139.178 116.467 139.672 117.152 140.333 117.152C140.995 117.152 141.493 116.456 141.493 115.592ZM143.348 117.739C142.916 117.739 142.699 117.518 142.699 117.241C142.699 117.043 142.796 116.864 143.002 116.705L144.406 115.572C144.795 115.253 144.997 115.016 144.997 114.658C144.997 114.277 144.636 114.001 144.173 114.001C143.71 114.001 143.325 114.257 143.115 114.646L142.558 114.366C142.87 113.787 143.453 113.382 144.223 113.382C145.099 113.382 145.721 113.927 145.721 114.604C145.721 115.121 145.468 115.518 145.021 115.876L143.624 117C143.566 117.051 143.539 117.07 143.539 117.109C143.539 117.129 143.554 117.14 143.574 117.14H145.845V117.739H143.348ZM146.312 113.46H148.619C149.07 113.46 149.319 113.701 149.319 113.989C149.319 114.187 149.206 114.366 148.989 114.545L148.016 115.3C147.946 115.343 147.923 115.351 147.923 115.378C147.923 115.386 147.931 115.378 147.942 115.378H148.323C148.981 115.378 149.479 115.849 149.479 116.502C149.479 117.269 148.775 117.825 147.857 117.825C147.079 117.825 146.487 117.514 146.176 116.919L146.802 116.619C146.985 117.008 147.359 117.226 147.86 117.226C148.362 117.226 148.771 116.934 148.771 116.502C148.771 116.105 148.452 115.876 147.958 115.876H147.654C147.351 115.876 147.176 115.678 147.176 115.479C147.176 115.331 147.261 115.191 147.409 115.071L148.432 114.285C148.495 114.242 148.526 114.207 148.526 114.152C148.526 114.098 148.483 114.063 148.413 114.063H146.308V113.464L146.312 113.46Z" fill="#EBAA01"/>
<path d="M80.9029 62.4041V24.5179C80.8212 24.5179 80.7356 24.5918 80.6539 24.6696L67.9805 30.7817L62.3945 20.2889L77.8998 12.893C80.5683 11.6091 83.4858 10.6287 85.987 10.6287C90.2387 10.6287 93.0745 13.1964 93.0745 17.725V62.4079H80.9029V62.4041Z" fill="#EBAA01"/>
<path d="M98.3996 44.9786L100.457 43.9321C100.87 44.644 101.515 44.9436 102.496 44.9436C103.398 44.9436 103.966 44.6246 103.966 44.1071C103.966 42.6871 98.6292 43.9126 98.6292 40.52C98.6292 38.9405 100.158 37.6955 102.554 37.6955C104.635 37.6955 105.888 38.5826 106.479 39.5941L104.417 40.6407C104.102 40.0026 103.398 39.6991 102.612 39.6991C101.924 39.6991 101.414 40.0026 101.414 40.4617C101.414 41.8817 106.751 40.7457 106.751 44.0488C106.751 45.8229 104.849 46.9628 102.632 46.9628C100.613 46.9628 99.1971 46.2897 98.3958 44.9747L98.3996 44.9786ZM108.502 43.2356V40.0571H106.716V37.9251H108.502V35.688H111.287V37.9251H114.722V40.0571H111.287V43.1656C111.287 44.1421 111.933 44.7102 112.956 44.7102C113.524 44.7102 114.251 44.5507 114.722 44.2822V46.5387C114.232 46.8227 113.388 46.9667 112.703 46.9667C109.898 46.9667 108.506 45.4377 108.506 43.2356H108.502ZM99.4188 62.4199V50.4643H104.067C107.813 50.4643 110.108 52.0438 110.108 54.8178C110.108 57.5918 107.852 59.2569 104.223 59.2569H102.282V62.4005L99.4188 62.4199ZM102.282 52.8648V56.8603H104.145C106.028 56.8603 107.168 56.2028 107.168 54.8178C107.168 53.4328 106.032 52.8648 104.145 52.8648H102.282ZM113.563 60.0195H119.724V62.416H113.232C111.408 62.416 110.7 61.564 110.7 60.1945V50.4604H113.563V60.0156V60.0195ZM124.062 52.1528C124.513 50.8572 125.691 50.2347 126.925 50.2347C128.158 50.2347 129.356 50.8572 129.807 52.1528L133.3 62.4199H130.379L129.613 59.9689L124.256 59.9844L123.49 62.416H120.568L124.062 52.1489V52.1528ZM125.003 57.6579H128.866L127.376 52.9153C127.298 52.6663 127.181 52.5613 126.944 52.5613C126.73 52.5613 126.59 52.6663 126.512 52.9153L125.003 57.6579ZM132.771 56.4518C132.771 52.9892 135.774 50.2347 139.617 50.2347C141.913 50.2347 144.11 51.3358 145.091 53.1993L142.757 54.3898C142.107 53.3588 141.088 52.7013 139.501 52.7013C137.303 52.7013 135.716 54.2809 135.716 56.4479C135.716 58.615 137.283 60.1945 139.501 60.1945C141.088 60.1945 142.15 59.537 142.757 58.506L145.091 59.6965C144.11 61.5601 141.913 62.6611 139.617 62.6611C135.774 62.6611 132.771 59.9066 132.771 56.4441V56.4518ZM148.191 62.4199C146.366 62.4199 145.659 61.5679 145.659 60.1984V52.7013C145.659 51.3319 146.366 50.4643 148.191 50.4643H155.173V52.7908H148.522V55.2769H154.761V57.6034H148.522V60.0895H155.29V62.416H148.187L148.191 62.4199Z" fill="#EBAA01"/>
</g>
<defs>
<clipPath id="clip0_351_6824">
<rect width="218" height="120" fill="white"/>
</clipPath>
</defs>
</svg>
