<svg width="218" height="120" viewBox="0 0 218 120" fill="none" xmlns="http://www.w3.org/2000/svg">
<g clip-path="url(#clip0_351_7912)">
<path d="M69.5409 57.9927C63.706 57.9927 60.7885 54.9736 60.7885 51.3515C60.7885 48.4842 62.1228 46.1421 64.873 44.0295L79.962 32.105C84.1282 28.7085 86.3804 26.2925 86.3804 22.6704C86.3804 19.3479 83.2957 16.5584 78.6278 16.5584C73.9599 16.5584 69.9571 19.5774 67.9577 23.503L58.6218 18.7487C62.2045 11.5785 69.7082 6.22119 79.6314 6.22119C90.8033 6.22119 98.5559 13.2397 98.5559 21.6939C98.5559 28.1094 95.7202 32.7119 90.5543 36.7892L76.7139 47.8072H100.057V57.9966H69.5448L69.5409 57.9927Z" fill="#D8D8D8"/>
<path d="M107.067 38.2208V42.3058H104.282V37.9173C104.282 35.3612 105.951 33.2642 109.343 33.2642C112.735 33.2642 114.442 35.3417 114.442 37.9173V42.3058H111.657V38.2208C111.657 36.8707 110.93 35.7152 109.343 35.7152C107.755 35.7152 107.067 36.8707 107.067 38.2208ZM115.306 37.9173C115.306 35.1822 117.387 33.2642 120.406 33.2642C121.386 33.2642 122.327 33.5832 123.035 34.1007L123.055 29.4631H125.84V37.9173C125.84 40.5823 123.603 42.5548 120.561 42.5548C117.519 42.5548 115.302 40.4578 115.302 37.9173H115.306ZM123.055 37.9173C123.055 36.6723 121.997 35.6452 120.565 35.6452C119.134 35.6452 118.095 36.6762 118.095 37.9173C118.095 39.1584 119.134 40.1738 120.565 40.1738C121.997 40.1738 123.055 39.1623 123.055 37.9173ZM104.869 58.0081V46.0524H109.518C113.264 46.0524 115.559 47.632 115.559 50.4059C115.559 53.1799 113.303 54.8451 109.673 54.8451H107.732V57.9886L104.869 58.0081ZM107.732 48.449V52.4446H109.595C111.478 52.4446 112.618 51.7871 112.618 50.4021C112.618 49.017 111.482 48.449 109.595 48.449H107.732ZM119.013 55.6076H125.175V58.0042H118.682C116.858 58.0042 116.15 57.1522 116.15 55.7827V46.0485H119.013V55.6037V55.6076ZM129.508 47.7409C129.959 46.4454 131.138 45.8229 132.371 45.8229C133.604 45.8229 134.802 46.4454 135.253 47.7409L138.747 58.0081H135.825L135.059 55.557L129.702 55.5726L128.936 58.0042H126.015L129.508 47.737V47.7409ZM130.453 53.246H134.316L132.826 48.5035C132.748 48.2545 132.632 48.1494 132.394 48.1494C132.18 48.1494 132.04 48.2545 131.963 48.5035L130.453 53.246ZM138.221 52.04C138.221 48.5774 141.224 45.8229 145.068 45.8229C147.363 45.8229 149.561 46.9239 150.541 48.7875L148.207 49.978C147.557 48.947 146.538 48.2895 144.951 48.2895C142.753 48.2895 141.166 49.869 141.166 52.0361C141.166 54.2031 142.734 55.7827 144.951 55.7827C146.538 55.7827 147.6 55.1252 148.207 54.0942L150.541 55.2847C149.561 57.1483 147.363 58.2493 145.068 58.2493C141.224 58.2493 138.221 55.4948 138.221 52.0322V52.04ZM153.641 58.0081C151.817 58.0081 151.109 57.156 151.109 55.7866V48.2895C151.109 46.92 151.817 46.0524 153.641 46.0524H160.624V48.379H153.972V50.865H160.211V53.1916H153.972V55.6776H160.74V58.0042H153.637L153.641 58.0081Z" fill="#D8D8D8"/>
<path d="M51.2502 116.226C49.7993 117.751 41.5487 112.558 38.9113 108.076C38.9113 108.076 37.4448 105.609 37.1297 102.154C37.1025 101.835 37.1297 101.508 37.1764 101.193C37.2075 100.991 37.3203 100.804 37.5071 100.318C37.8766 100.438 38.2812 100.52 38.6702 100.625C38.6702 100.625 39.2031 100.812 39.7282 101.084C45.2558 103.963 48.7373 109.776 48.7373 109.776C50.4139 112.577 52.0788 115.355 51.2502 116.226Z" fill="#D8D8D8"/>
<path d="M27.5137 12.8815C27.9571 4.71139 38.1916 -1.80917 47.5469 0.451239C41.9453 6.56329 36.6006 12.4808 27.5137 12.8815Z" fill="#D8D8D8"/>
<path d="M15.7467 85.9849C9.88848 78.1843 10.3708 69.4773 16.7231 64.2756C20.6636 71.6171 17.4739 78.4489 15.7467 85.9849Z" fill="#D8D8D8"/>
<path d="M10.1606 70.8702C6.62078 61.8247 9.42543 53.4094 16.8513 50.1492C18.6329 58.3193 13.751 64.1085 10.1606 70.8702Z" fill="#D8D8D8"/>
<path d="M11.853 38.4192C12.736 29.5566 20.3487 22.9699 27.6228 24.5572C26.522 29.6966 20.9088 34.6804 11.853 38.4192Z" fill="#D8D8D8"/>
<path d="M8.94326 54.561C7.6518 45.1964 13.1833 36.8745 20.7181 36.7617C20.0607 44.8774 14.1247 49.227 8.94326 54.561Z" fill="#D8D8D8"/>
<path d="M38.2035 14.5857C33.4617 21.437 26.0513 22.1684 19.0806 24.172C20.3409 17.4647 31.0655 10.6329 38.2035 14.5857Z" fill="#D8D8D8"/>
<path d="M20.4654 78.0754C25.9113 84.1213 24.8532 91.4667 25.0516 98.742C17.4468 94.3613 15.3618 82.6157 20.4654 78.0754Z" fill="#D8D8D8"/>
<path d="M22.8185 99.925C15.2137 99.9678 7.7722 93.2488 6.08008 84.7947C14.3773 86.7166 18.7846 93.0271 22.8185 99.925Z" fill="#D8D8D8"/>
<path d="M37.569 109.457C28.8127 105.815 25.0278 98.6486 27.249 90.0427C34.3481 94.6102 35.2039 102.014 37.569 109.457Z" fill="#D8D8D8"/>
<path d="M50.5774 117.803C45.0459 122.616 32.637 118.818 28.6226 113.246C36.7837 110.608 43.6922 114.262 50.5774 117.803Z" fill="#D8D8D8"/>
<path d="M5.73023 30.8987C10.1959 38.3802 8.83051 45.8928 6.83886 53.4288C1.41629 49.2465 0.883363 39.6096 5.73023 30.8987Z" fill="#D8D8D8"/>
<path d="M14.9956 15.3096C17.5163 23.5536 13.7081 30.3738 10.1449 37.0772C5.83093 32.0817 8.30882 20.5929 14.9956 15.3096Z" fill="#D8D8D8"/>
<path d="M8.03679 70.376C1.33443 66.7578 -1.84755 56.942 1.10881 48.8535C7.60501 54.701 7.39495 62.6883 8.03679 70.376Z" fill="#D8D8D8"/>
<path d="M17.4657 22.4522C14.7816 16.1223 20.6982 5.41942 28.4548 2.27197C26.821 7.50865 27.07 13.006 22.3748 16.7565C20.5154 18.2427 19.1967 20.4058 17.4696 22.4522H17.4657Z" fill="#D8D8D8"/>
<path d="M1.12023 67.1042C8.77175 71.1621 11.1096 78.5036 13.3113 85.7867C6.76454 85.3237 0.583423 75.998 1.12023 67.1042Z" fill="#D8D8D8"/>
<path d="M35.636 110.767C28 112.721 19.8622 108.534 14.957 99.7961C19.2632 101.01 23.3243 101.504 26.693 103.29C29.9683 105.025 32.5357 108.091 35.636 110.764V110.767Z" fill="#D8D8D8"/>
<path d="M166.75 116.227C168.201 117.752 176.452 112.558 179.089 108.076C179.089 108.076 180.555 105.609 180.871 102.154C180.898 101.835 180.871 101.509 180.824 101.193C180.793 100.991 180.68 100.804 180.493 100.318C180.124 100.439 179.719 100.52 179.33 100.625C179.33 100.625 178.797 100.812 178.272 101.085C172.744 103.964 169.263 109.776 169.263 109.776C167.586 112.577 165.922 115.355 166.75 116.227Z" fill="#D8D8D8"/>
<path d="M190.486 12.8818C190.043 4.71163 179.808 -1.80892 170.453 0.451483C176.055 6.56353 181.399 12.4811 190.486 12.8818Z" fill="#D8D8D8"/>
<path d="M202.254 85.9854C208.112 78.1848 207.629 69.4778 201.277 64.2761C197.337 71.6176 200.526 78.4494 202.254 85.9854Z" fill="#D8D8D8"/>
<path d="M207.839 70.8707C211.379 61.8252 208.574 53.4099 201.149 50.1497C199.367 58.3198 204.249 64.1089 207.839 70.8707Z" fill="#D8D8D8"/>
<path d="M206.148 38.4195C205.265 29.5568 197.652 22.9701 190.378 24.5574C191.479 29.6969 197.092 34.6807 206.148 38.4195Z" fill="#D8D8D8"/>
<path d="M209.057 54.5612C210.349 45.1967 204.817 36.8748 197.282 36.762C197.94 44.8776 203.876 49.2273 209.057 54.5612Z" fill="#D8D8D8"/>
<path d="M179.797 14.5859C184.539 21.4372 191.949 22.1686 198.92 24.1723C197.66 17.465 186.935 10.6332 179.797 14.5859Z" fill="#D8D8D8"/>
<path d="M197.535 78.0757C192.089 84.1216 193.147 91.4669 192.949 98.7423C200.554 94.3615 202.639 82.616 197.535 78.0757Z" fill="#D8D8D8"/>
<path d="M195.182 99.925C202.786 99.9678 210.228 93.2488 211.92 84.7947C203.623 86.7166 199.216 93.0271 195.182 99.925Z" fill="#D8D8D8"/>
<path d="M180.435 109.457C189.191 105.815 192.976 98.6491 190.755 90.0432C183.656 94.6107 182.8 102.014 180.435 109.457Z" fill="#D8D8D8"/>
<path d="M167.423 117.803C172.955 122.616 185.363 118.818 189.378 113.246C181.217 110.608 174.308 114.262 167.423 117.803Z" fill="#D8D8D8"/>
<path d="M212.274 30.8992C207.808 38.3807 209.174 45.8933 211.165 53.4293C216.588 49.247 217.121 39.6101 212.274 30.8992Z" fill="#D8D8D8"/>
<path d="M203.005 15.3096C200.484 23.5536 204.292 30.3738 207.855 37.0772C212.169 32.0817 209.691 20.5929 203.005 15.3096Z" fill="#D8D8D8"/>
<path d="M209.963 70.3763C216.665 66.758 219.847 56.9422 216.891 48.8538C210.395 54.7012 210.605 62.6885 209.963 70.3763Z" fill="#D8D8D8"/>
<path d="M200.534 22.4527C203.218 16.1228 197.302 5.41991 189.545 2.27246C191.179 7.50914 190.93 13.0065 195.625 16.757C197.485 18.2432 198.803 20.4063 200.53 22.4527H200.534Z" fill="#D8D8D8"/>
<path d="M216.88 67.1045C209.228 71.1623 206.89 78.5038 204.689 85.7869C211.235 85.3239 217.417 75.9983 216.88 67.1045Z" fill="#D8D8D8"/>
<path d="M182.368 110.768C190.004 112.721 198.142 108.535 203.047 99.7969C198.741 101.011 194.68 101.505 191.311 103.291C188.036 105.026 185.469 108.092 182.368 110.764V110.768Z" fill="#D8D8D8"/>
<path d="M58.2483 81.6743L62.7139 79.6512C63.2663 80.7289 64.3672 81.2269 66.1954 81.2269C67.6153 81.2269 68.6889 80.8339 68.6889 79.9936C68.6889 78.9431 67.5297 78.7875 65.7598 78.5502C62.8306 78.1572 58.54 77.134 58.54 72.905C58.54 69.6486 61.7609 67.1548 66.1099 67.1548C69.533 67.1548 72.431 68.5476 73.7653 71.1737L69.2996 73.1968C68.7472 72.3292 67.7047 71.6211 65.8765 71.6211C64.6006 71.6211 63.9043 71.9907 63.9043 72.7222C63.9043 73.7181 65.1802 74.0333 67.094 74.2978C69.9959 74.6908 74.0531 75.6906 74.0531 79.943C74.0531 83.1994 70.5444 85.6932 66.1954 85.6932C62.4844 85.6932 59.5825 84.3004 58.2483 81.6743ZM79.1878 70.3567C79.9114 68.178 81.9419 67.1548 83.9725 67.1548C86.003 67.1548 88.0336 68.178 88.7571 70.3567L93.8023 85.2692H88.3214L87.4228 82.2773H80.5493L79.6196 85.2692H74.1387L79.1839 70.3567H79.1878ZM81.8836 77.9433H86.0886L84.2331 71.7729C84.1747 71.59 84.1164 71.5122 83.9997 71.5122C83.883 71.5122 83.8246 71.59 83.7663 71.7729L81.8797 77.9433H81.8836ZM94.9654 85.2692V71.6172C94.9654 69.1234 96.2997 67.5477 99.6061 67.5477H109.467V72.0102H100.334V75.4494H108.802V79.9119H100.334V85.2692H94.9693H94.9654ZM115.411 85.2692C112.105 85.2692 110.77 83.6935 110.77 81.1997V71.6172C110.77 69.1234 112.105 67.5477 115.411 67.5477H125.447V71.8818H116.138V74.2434H124.782V78.5774H116.138V80.939H125.591V85.2731H115.411V85.2692ZM142.469 72.0102H136.93V85.2692H131.566V72.0102H126.027V67.5477H142.469V72.0102ZM141.598 67.5477H147.371L151.171 76.1614L154.913 67.5477H160.686L155.929 77.632C155.435 78.6552 154.711 79.445 153.871 79.9702V85.2731H148.507V80.0208C147.635 79.4956 146.881 78.7097 146.359 77.632L141.602 67.5477H141.598Z" fill="#D8D8D8"/>
<path d="M81.0511 92.5171C81.4635 91.3344 82.5332 90.7703 83.6613 90.7703C84.7894 90.7703 85.8786 91.3383 86.287 92.5171L89.469 101.866H86.8083L86.112 99.6329L81.234 99.6485L80.5377 101.866H77.877L81.0589 92.5171H81.0511ZM81.9069 97.532H85.4273L84.0697 93.2135C83.9997 92.9879 83.8908 92.8906 83.6769 92.8906C83.4785 92.8906 83.354 92.9879 83.284 93.2135L81.9069 97.532ZM88.5899 90.9804H91.2L93.0944 99.6018C93.1139 99.6679 93.1294 99.6835 93.1489 99.6835C93.1683 99.6835 93.1839 99.6679 93.2033 99.6018L94.9382 92.7116C95.2611 91.385 95.9924 90.8169 97.066 90.8169C98.1397 90.8169 98.8515 91.385 99.1938 92.6922L100.964 99.5979C100.983 99.6641 100.983 99.6796 101.018 99.6796C101.038 99.6796 101.038 99.6485 101.053 99.5979L102.874 90.9765H105.484L103.341 100.279C103.072 101.426 102.286 102.092 101.123 102.092C100.05 102.092 99.1938 101.477 98.906 100.376L97.066 93.2252L95.2416 100.423C94.9732 101.473 94.0786 102.088 93.0438 102.088C91.9352 102.088 91.0794 101.473 90.811 100.325L88.5937 90.9765L88.5899 90.9804ZM107.779 92.5171C108.191 91.3344 109.261 90.7703 110.389 90.7703C111.517 90.7703 112.606 91.3383 113.015 92.5171L116.197 101.866H113.536L112.84 99.6329L107.962 99.6485L107.265 101.866H104.605L107.787 92.5171H107.779ZM108.635 97.532H112.155L110.798 93.2135C110.727 92.9879 110.619 92.8906 110.405 92.8906C110.206 92.8906 110.082 92.9879 110.012 93.2135L108.635 97.532ZM117.352 101.866V90.9804H121.981C124.696 90.9804 126.785 92.1281 126.785 94.4429C126.785 95.933 125.82 97.0807 124.284 97.4503C125.054 97.8394 125.498 98.5825 126.124 99.7146L127.287 101.866H124.463L123.389 99.9247C122.837 98.921 122.316 98.388 120.958 98.388H119.939L119.919 101.866H117.348H117.352ZM119.962 93.163L119.943 96.2871H121.981C123.214 96.2871 124.109 95.7035 124.109 94.6842C124.109 93.6648 123.199 93.163 122.02 93.163H119.966H119.962ZM133.235 101.866H128.804V90.9804H133.289C137.183 90.9804 139.774 93.1474 139.774 96.431C139.774 99.7146 137.023 101.866 133.235 101.866ZM133.289 93.163H131.414V99.7458H133.235C135.487 99.7458 137.094 98.4697 137.094 96.431C137.094 94.3924 135.557 93.163 133.289 93.163Z" fill="#D8D8D8"/>
<path d="M58.8044 110.788L59.4113 110.519C59.5941 110.889 59.9987 111.087 60.5549 111.087C61.1112 111.087 61.5274 110.85 61.5274 110.43C61.5274 109.959 61.0489 109.873 60.4888 109.78C59.7769 109.651 58.8939 109.441 58.8939 108.535C58.8939 107.827 59.6058 107.29 60.5043 107.29C61.224 107.29 61.8658 107.597 62.1498 108.185L61.5507 108.465C61.3601 108.115 60.9984 107.897 60.4771 107.897C59.9987 107.897 59.6097 108.154 59.6097 108.515C59.6097 108.975 60.1115 109.076 60.6833 109.181C61.3874 109.309 62.2509 109.519 62.2509 110.426C62.2509 111.18 61.5079 111.702 60.5588 111.702C59.7614 111.702 59.0923 111.375 58.8083 110.788H58.8044ZM62.9161 111.632V107.064H63.6163V108.854C63.8847 108.593 64.3009 108.426 64.7677 108.426C65.783 108.426 66.3548 109.041 66.3548 109.998V111.632H65.6546V110.06C65.6546 109.504 65.3162 109.025 64.6588 109.025C64.0442 109.025 63.6163 109.472 63.6163 110.079V111.632H62.9161ZM66.7749 110.044C66.7749 109.146 67.4868 108.41 68.5254 108.41C69.564 108.41 70.2175 109.095 70.2175 109.97V110.227H67.4518C67.5296 110.764 67.9808 111.142 68.6032 111.142C69.0272 111.142 69.4084 110.974 69.6107 110.632L70.1475 110.881C69.8441 111.418 69.2878 111.706 68.6071 111.706C67.5568 111.706 66.771 111.017 66.771 110.052L66.7749 110.044ZM69.5212 109.815C69.494 109.317 69.0894 108.978 68.5176 108.978C67.9458 108.978 67.549 109.348 67.479 109.815H69.5173H69.5212ZM71.5401 107.064V111.632H70.8399V107.064H71.5401ZM73.1622 107.064V111.632H72.462V107.064H73.1622ZM76.4064 111.632C75.9202 111.632 75.7412 111.41 75.7412 111.044V107.94C75.7412 107.574 75.9163 107.352 76.4064 107.352H79.0049V107.947H76.4648V109.192H78.8649V109.788H76.4648V111.04H79.0555V111.636H76.4103L76.4064 111.632ZM79.3706 110.06C79.3706 109.161 80.1836 108.418 81.1755 108.426C81.8095 108.426 82.3969 108.687 82.7159 109.251L82.1363 109.543C81.9301 109.204 81.5839 109.025 81.1755 109.025C80.5687 109.025 80.0669 109.492 80.0669 110.06C80.0669 110.628 80.5687 111.107 81.1755 111.107C81.5839 111.107 81.9301 110.928 82.1363 110.589L82.7159 110.877C82.3969 111.445 81.8134 111.702 81.1755 111.702C80.1797 111.713 79.3706 110.966 79.3706 110.06ZM82.8559 110.06C82.8559 109.161 83.6689 108.426 84.7037 108.426C85.7384 108.426 86.5397 109.165 86.5397 110.06C86.5397 110.955 85.7423 111.71 84.7037 111.71C83.665 111.71 82.8559 110.97 82.8559 110.06ZM85.8395 110.064C85.8395 109.488 85.3455 109.017 84.7037 109.017C84.0618 109.017 83.5522 109.488 83.5522 110.064C83.5522 110.64 84.054 111.107 84.7037 111.107C85.3533 111.107 85.8395 110.636 85.8395 110.064ZM89.6867 109.943H87.2438V109.367H89.6867V109.943ZM96.5096 109.982V111.632H95.8094V110.087C95.8094 109.519 95.4982 109.021 94.8486 109.021C94.199 109.021 93.9034 109.5 93.9034 110.076V111.636H93.2032V110.076C93.2032 109.5 92.8842 109.021 92.2424 109.021C91.6005 109.021 91.3049 109.519 91.3049 110.087V111.632H90.6047V109.99C90.6047 109.115 91.1571 108.41 92.1918 108.41C92.8842 108.41 93.386 108.729 93.5611 109.216C93.7517 108.729 94.2379 108.41 94.8953 108.41C95.9378 108.41 96.5057 109.115 96.5057 109.982H96.5096ZM96.9375 110.06C96.9375 109.165 97.7272 108.426 98.7814 108.426C99.8355 108.426 100.625 109.13 100.625 110.06V111.632H99.96V111.083C99.6994 111.468 99.2404 111.71 98.6763 111.71C97.6727 111.71 96.9414 110.97 96.9414 110.06H96.9375ZM99.925 110.064C99.925 109.488 99.431 109.017 98.7814 109.017C98.1317 109.017 97.6377 109.488 97.6377 110.064C97.6377 110.64 98.1395 111.107 98.7814 111.107C99.4232 111.107 99.925 110.636 99.925 110.064ZM101.271 111.632V109.768C101.271 109.01 101.749 108.438 102.656 108.438C102.874 108.438 103.099 108.477 103.278 108.55V109.177C103.107 109.087 102.912 109.045 102.722 109.045C102.255 109.045 101.975 109.332 101.975 109.792V111.632H101.275H101.271ZM103.22 110.06C103.22 109.165 104.009 108.426 105.064 108.426C106.118 108.426 106.907 109.13 106.907 110.06V111.632H106.242V111.083C105.982 111.468 105.523 111.71 104.959 111.71C103.955 111.71 103.224 110.97 103.224 110.06H103.22ZM106.203 110.064C106.203 109.488 105.709 109.017 105.06 109.017C104.41 109.017 103.916 109.488 103.916 110.064C103.916 110.64 104.418 111.107 105.06 111.107C105.702 111.107 106.203 110.636 106.203 110.064ZM107.806 110.507V109.052H107.121V108.504H107.806V107.695H108.506V108.504H109.833V109.052H108.506V110.488C108.506 110.896 108.775 111.138 109.191 111.138C109.416 111.138 109.665 111.06 109.833 110.951V111.531C109.658 111.64 109.381 111.71 109.129 111.71C108.269 111.71 107.81 111.219 107.81 110.503L107.806 110.507ZM110.513 111.632V107.064H111.214V108.854C111.482 108.593 111.898 108.426 112.365 108.426C113.38 108.426 113.952 109.041 113.952 109.998V111.632H113.252V110.06C113.252 109.504 112.914 109.025 112.256 109.025C111.641 109.025 111.214 109.472 111.214 110.079V111.632H110.513ZM114.372 110.06C114.372 109.161 115.185 108.426 116.22 108.426C117.255 108.426 118.056 109.165 118.056 110.06C118.056 110.955 117.259 111.71 116.22 111.71C115.181 111.71 114.372 110.97 114.372 110.06ZM117.36 110.064C117.36 109.488 116.866 109.017 116.224 109.017C115.582 109.017 115.072 109.488 115.072 110.064C115.072 110.64 115.574 111.107 116.224 111.107C116.873 111.107 117.36 110.636 117.36 110.064ZM119.184 110.114V111.628H118.484V110.048C118.484 109.134 119.083 108.418 120.199 108.418C121.316 108.418 121.942 109.134 121.942 110.041V111.624H121.242V110.114C121.242 109.527 120.888 109.021 120.195 109.021C119.503 109.021 119.18 109.527 119.18 110.107L119.184 110.114ZM125.295 107.87C125.435 107.469 125.781 107.274 126.178 107.274C126.575 107.274 126.925 107.465 127.069 107.87L128.36 111.632H127.625L127.279 110.585L125.077 110.593L124.731 111.636H124.004L125.295 107.873V107.87ZM125.276 109.994H127.088L126.454 108.06C126.404 107.928 126.322 107.862 126.186 107.862C126.046 107.862 125.96 107.924 125.918 108.06L125.276 109.994ZM128.598 111.005L129.135 110.737C129.31 111.048 129.594 111.165 129.975 111.165C130.356 111.165 130.675 111.017 130.675 110.745C130.675 110.087 128.691 110.585 128.691 109.391C128.691 108.842 129.228 108.438 129.983 108.438C130.624 108.438 131.064 108.706 131.282 109.068L130.745 109.344C130.597 109.068 130.313 108.975 129.998 108.975C129.683 108.975 129.391 109.126 129.391 109.375C129.391 110.013 131.375 109.546 131.375 110.729C131.375 111.324 130.741 111.702 130.006 111.702C129.364 111.702 128.87 111.472 128.602 111.005H128.598ZM131.885 107.465C131.885 107.235 132.091 107.045 132.344 107.045C132.597 107.045 132.795 107.235 132.795 107.465C132.795 107.695 132.597 107.881 132.344 107.881C132.091 107.881 131.885 107.695 131.885 107.465ZM132.698 108.5V111.628H131.998V108.5H132.698ZM133.262 110.06C133.262 109.165 134.051 108.426 135.106 108.426C136.16 108.426 136.949 109.13 136.949 110.06V111.632H136.284V111.083C136.024 111.468 135.565 111.71 135.001 111.71C133.997 111.71 133.266 110.97 133.266 110.06H133.262ZM136.249 110.064C136.249 109.488 135.755 109.017 135.106 109.017C134.456 109.017 133.962 109.488 133.962 110.064C133.962 110.64 134.464 111.107 135.106 111.107C135.747 111.107 136.249 110.636 136.249 110.064ZM139.462 111.632V107.352H140.968C142.24 107.352 143.064 107.87 143.064 108.866C143.064 109.862 142.224 110.398 141.003 110.398H140.186V111.632H139.466H139.462ZM140.182 107.951V109.792H140.987C141.765 109.792 142.321 109.515 142.321 108.866C142.321 108.216 141.785 107.951 140.987 107.951H140.182ZM143.216 110.06C143.216 109.165 144.006 108.426 145.06 108.426C146.114 108.426 146.904 109.13 146.904 110.06V111.632H146.239V111.083C145.978 111.468 145.519 111.71 144.955 111.71C143.951 111.71 143.22 110.97 143.22 110.06H143.216ZM146.204 110.064C146.204 109.488 145.71 109.017 145.06 109.017C144.41 109.017 143.916 109.488 143.916 110.064C143.916 110.64 144.418 111.107 145.06 111.107C145.702 111.107 146.204 110.636 146.204 110.064ZM147.332 110.06C147.332 109.161 148.145 108.418 149.137 108.426C149.771 108.426 150.358 108.687 150.677 109.251L150.097 109.543C149.891 109.204 149.545 109.025 149.137 109.025C148.53 109.025 148.028 109.492 148.028 110.06C148.028 110.628 148.53 111.107 149.137 111.107C149.545 111.107 149.891 110.928 150.097 110.589L150.677 110.877C150.358 111.445 149.775 111.702 149.137 111.702C148.141 111.713 147.332 110.966 147.332 110.06ZM151.062 107.465C151.062 107.235 151.268 107.045 151.521 107.045C151.774 107.045 151.972 107.235 151.972 107.465C151.972 107.695 151.774 107.881 151.521 107.881C151.268 107.881 151.062 107.695 151.062 107.465ZM151.875 108.5V111.628H151.175V108.5H151.875ZM153.027 111.632V109.052H152.369V108.504H153.027V108.177C153.027 107.512 153.486 107.014 154.353 107.014C154.586 107.014 154.804 107.053 154.979 107.127V107.745C154.816 107.656 154.614 107.605 154.415 107.605C153.983 107.605 153.723 107.776 153.723 108.193V108.5H155.839V111.628H155.139V109.048H153.719V111.628H153.019L153.027 111.632ZM156.306 110.06C156.306 109.161 157.119 108.418 158.111 108.426C158.745 108.426 159.332 108.687 159.651 109.251L159.072 109.543C158.865 109.204 158.519 109.025 158.111 109.025C157.504 109.025 157.002 109.492 157.002 110.06C157.002 110.628 157.504 111.107 158.111 111.107C158.519 111.107 158.865 110.928 159.072 110.589L159.651 110.877C159.332 111.445 158.749 111.702 158.111 111.702C157.115 111.713 156.306 110.966 156.306 110.06ZM75.2161 117.724C75.2161 116.83 76.0058 116.09 77.0599 116.09C78.1141 116.09 78.9038 116.795 78.9038 117.724V119.296H78.2386V118.748C77.978 119.133 77.5189 119.374 76.9549 119.374C75.9513 119.374 75.22 118.631 75.22 117.724H75.2161ZM78.2036 117.732C78.2036 117.156 77.7096 116.686 77.0599 116.686C76.4103 116.686 75.9163 117.156 75.9163 117.732C75.9163 118.308 76.4181 118.775 77.0599 118.775C77.7018 118.775 78.2036 118.304 78.2036 117.732ZM80.2497 117.783V119.296H79.5495V117.717C79.5495 116.802 80.1485 116.086 81.265 116.086C82.3814 116.086 83.0076 116.802 83.0076 117.709V119.292H82.3075V117.783C82.3075 117.195 81.9535 116.689 81.265 116.689C80.5764 116.689 80.2497 117.195 80.2497 117.775V117.783ZM83.4394 117.736C83.4394 116.783 84.2019 116.086 85.2444 116.086C85.7112 116.086 86.1352 116.273 86.4152 116.553L86.423 114.725H87.1232V117.732C87.1232 118.658 86.3258 119.366 85.2794 119.366C84.233 119.366 83.4355 118.631 83.4355 117.732L83.4394 117.736ZM86.423 117.732C86.423 117.164 85.929 116.689 85.2794 116.689C84.6298 116.689 84.1357 117.16 84.1357 117.732C84.1357 118.304 84.6375 118.779 85.2794 118.779C85.9212 118.779 86.423 118.308 86.423 117.732ZM89.3132 119.304L89.9784 115.511C90.0407 115.141 90.3402 114.943 90.7214 114.943C91.0598 114.943 91.3516 115.09 91.4566 115.429L92.3668 118.413C92.3824 118.471 92.3941 118.491 92.4291 118.491C92.4719 118.491 92.4797 118.471 92.4991 118.413L93.4016 115.444C93.4988 115.106 93.8022 114.954 94.1407 114.954C94.5141 114.954 94.8058 115.16 94.8681 115.534L95.4671 119.304H94.7397L94.2185 115.74C94.2029 115.651 94.1757 115.592 94.0979 115.592C94.0356 115.592 93.9928 115.639 93.9695 115.721L92.997 118.786C92.9192 119.043 92.6936 119.172 92.4252 119.172C92.1723 119.172 91.9312 119.043 91.8534 118.802L90.8848 115.717C90.8575 115.627 90.8225 115.588 90.7564 115.588C90.6903 115.588 90.6436 115.635 90.628 115.736L90.0407 119.312H89.3055L89.3132 119.304ZM96.0312 115.133C96.0312 114.904 96.2373 114.713 96.4902 114.713C96.743 114.713 96.9414 114.904 96.9414 115.133C96.9414 115.363 96.743 115.55 96.4902 115.55C96.2373 115.55 96.0312 115.363 96.0312 115.133ZM96.8442 116.168V119.296H96.144V116.168H96.8442ZM97.4082 117.736C97.4082 116.783 98.1706 116.086 99.2131 116.086C99.6799 116.086 100.104 116.273 100.384 116.553L100.392 114.725H101.092V117.732C101.092 118.658 100.295 119.366 99.2481 119.366C98.2018 119.366 97.4043 118.631 97.4043 117.732L97.4082 117.736ZM100.392 117.732C100.392 117.164 99.8978 116.689 99.2481 116.689C98.5985 116.689 98.1045 117.16 98.1045 117.732C98.1045 118.304 98.6063 118.779 99.2481 118.779C99.89 118.779 100.392 118.308 100.392 117.732ZM101.52 117.736C101.52 116.783 102.282 116.086 103.325 116.086C103.792 116.086 104.216 116.273 104.496 116.553L104.503 114.725H105.204V117.732C105.204 118.658 104.406 119.366 103.36 119.366C102.313 119.366 101.516 118.631 101.516 117.732L101.52 117.736ZM104.507 117.732C104.507 117.164 104.013 116.689 103.364 116.689C102.714 116.689 102.22 117.16 102.22 117.732C102.22 118.304 102.722 118.779 103.364 118.779C104.006 118.779 104.507 118.308 104.507 117.732ZM106.693 114.729V119.296H105.993V114.729H106.693ZM107.258 117.713C107.258 116.81 107.969 116.079 109.008 116.079C110.047 116.079 110.7 116.763 110.7 117.639V117.896H107.934C108.012 118.432 108.463 118.81 109.086 118.81C109.51 118.81 109.891 118.643 110.093 118.3L110.63 118.549C110.327 119.086 109.77 119.374 109.09 119.374C108.039 119.374 107.254 118.685 107.254 117.72L107.258 117.713ZM110.004 117.483C109.977 116.985 109.572 116.647 109 116.647C108.428 116.647 108.032 117.016 107.962 117.483H110H110.004ZM113.645 119.296C113.159 119.296 112.98 119.074 112.98 118.709V115.604C112.98 115.238 113.155 115.017 113.645 115.017H116.243V115.612H113.703V116.857H116.103V117.452H113.703V118.705H116.294V119.3H113.649L113.645 119.296ZM116.605 117.724C116.605 116.83 117.395 116.09 118.449 116.09C119.503 116.09 120.293 116.795 120.293 117.724V119.296H119.628V118.748C119.367 119.133 118.908 119.374 118.344 119.374C117.34 119.374 116.609 118.631 116.609 117.724H116.605ZM119.593 117.732C119.593 117.156 119.099 116.686 118.449 116.686C117.799 116.686 117.305 117.156 117.305 117.732C117.305 118.308 117.807 118.775 118.449 118.775C119.091 118.775 119.593 118.304 119.593 117.732ZM120.775 118.67L121.312 118.401C121.487 118.713 121.771 118.829 122.152 118.829C122.533 118.829 122.852 118.681 122.852 118.409C122.852 117.752 120.868 118.25 120.868 117.055C120.868 116.507 121.405 116.102 122.16 116.102C122.802 116.102 123.241 116.37 123.459 116.732L122.922 117.008C122.775 116.732 122.491 116.639 122.175 116.639C121.86 116.639 121.569 116.791 121.569 117.04C121.569 117.678 123.552 117.211 123.552 118.394C123.552 118.989 122.918 119.366 122.183 119.366C121.541 119.366 121.047 119.137 120.779 118.67H120.775ZM124.292 118.172V116.717H123.607V116.168H124.292V115.359H124.992V116.168H126.318V116.717H124.992V118.152C124.992 118.561 125.26 118.802 125.676 118.802C125.902 118.802 126.151 118.724 126.318 118.615V119.195C126.143 119.304 125.867 119.374 125.614 119.374C124.754 119.374 124.295 118.884 124.295 118.168L124.292 118.172ZM129.096 119.296C128.664 119.296 128.446 119.074 128.446 118.798C128.446 118.6 128.543 118.421 128.749 118.261L130.154 117.129C130.543 116.81 130.745 116.573 130.745 116.215C130.745 115.834 130.387 115.557 129.92 115.557C129.454 115.557 129.072 115.814 128.862 116.203L128.306 115.923C128.617 115.343 129.201 114.939 129.971 114.939C130.846 114.939 131.469 115.483 131.469 116.16C131.469 116.678 131.216 117.075 130.768 117.433L129.372 118.557C129.317 118.608 129.286 118.627 129.286 118.666C129.286 118.685 129.302 118.697 129.321 118.697H131.593V119.296H129.096ZM131.959 117.149C131.959 115.896 132.729 114.939 133.857 114.939C134.985 114.939 135.755 115.896 135.755 117.149C135.755 118.401 134.985 119.378 133.857 119.378C132.729 119.378 131.959 118.39 131.959 117.149ZM135.016 117.149C135.016 116.273 134.522 115.604 133.857 115.604C133.192 115.604 132.702 116.273 132.702 117.149C132.702 118.024 133.196 118.709 133.857 118.709C134.518 118.709 135.016 118.012 135.016 117.149ZM136.872 119.296C136.44 119.296 136.222 119.074 136.222 118.798C136.222 118.6 136.319 118.421 136.525 118.261L137.93 117.129C138.319 116.81 138.521 116.573 138.521 116.215C138.521 115.834 138.159 115.557 137.696 115.557C137.233 115.557 136.848 115.814 136.638 116.203L136.082 115.923C136.393 115.343 136.977 114.939 137.747 114.939C138.622 114.939 139.245 115.483 139.245 116.16C139.245 116.678 138.992 117.075 138.544 117.433L137.148 118.557C137.089 118.608 137.062 118.627 137.062 118.666C137.062 118.685 137.078 118.697 137.097 118.697H139.369V119.296H136.872ZM141.789 119.296V118.491H139.995C139.571 118.491 139.338 118.285 139.338 118.016C139.338 117.876 139.396 117.717 139.521 117.561L141.298 115.301C141.466 115.09 141.637 114.935 141.967 114.935C142.263 114.935 142.481 115.122 142.481 115.413V117.931H143.243V118.487H142.481V119.292H141.781L141.789 119.296ZM141.789 117.934V115.783C141.789 115.744 141.773 115.713 141.726 115.713C141.68 115.713 141.656 115.752 141.606 115.81L140.038 117.837C140.019 117.864 140.011 117.884 140.011 117.899C140.011 117.938 140.054 117.938 140.096 117.938H141.789V117.934Z" fill="#D8D8D8"/>
</g>
<defs>
<clipPath id="clip0_351_7912">
<rect width="218" height="120" fill="white"/>
</clipPath>
</defs>
</svg>
