<svg width="218" height="120" viewBox="0 0 218 120" fill="none" xmlns="http://www.w3.org/2000/svg">
<g clip-path="url(#clip0_351_7954)">
<path d="M69.5404 61.4942C63.7055 61.4942 60.788 58.4751 60.788 54.853C60.788 51.9857 62.1223 49.6436 64.8725 47.531L79.9615 35.6065C84.1277 32.21 86.3799 29.794 86.3799 26.1719C86.3799 22.8494 83.2952 20.0598 78.6273 20.0598C73.9594 20.0598 69.9566 23.0789 67.9572 27.0045L58.6213 22.2502C62.204 15.0799 69.7077 9.72266 79.6309 9.72266C90.8028 9.72266 98.5555 16.7412 98.5555 25.1954C98.5555 31.6109 95.7197 36.2134 90.5538 40.2907L76.7135 51.3087H100.057V61.498H69.5443L69.5404 61.4942Z" fill="#D8D8D8"/>
<path d="M107.067 41.7222V45.8073H104.281V41.4188C104.281 38.8627 105.95 36.7657 109.342 36.7657C112.734 36.7657 114.442 38.8432 114.442 41.4188V45.8073H111.657V41.7222C111.657 40.3722 110.929 39.2167 109.342 39.2167C107.755 39.2167 107.067 40.3722 107.067 41.7222ZM115.306 41.4188C115.306 38.6837 117.387 36.7657 120.405 36.7657C121.386 36.7657 122.327 37.0847 123.035 37.6021L123.054 32.9646H125.84V41.4188C125.84 44.0838 123.603 46.0563 120.561 46.0563C117.519 46.0563 115.302 43.9593 115.302 41.4188H115.306ZM123.054 41.4188C123.054 40.1738 121.996 39.1467 120.565 39.1467C119.133 39.1467 118.095 40.1777 118.095 41.4188C118.095 42.6598 119.133 43.6753 120.565 43.6753C121.996 43.6753 123.054 42.6637 123.054 41.4188ZM104.869 61.5095V49.5539H109.517C113.263 49.5539 115.558 51.1334 115.558 53.9074C115.558 56.6814 113.302 58.3465 109.673 58.3465H107.732V61.4901L104.869 61.5095ZM107.732 51.9505V55.9461H109.595C111.478 55.9461 112.618 55.2886 112.618 53.9035C112.618 52.5185 111.482 51.9505 109.595 51.9505H107.732ZM119.013 59.1091H125.174V61.5056H118.682C116.858 61.5056 116.15 60.6536 116.15 59.2841V49.55H119.013V59.1052V59.1091ZM129.508 51.2424C129.959 49.9468 131.138 49.3243 132.371 49.3243C133.604 49.3243 134.802 49.9468 135.253 51.2424L138.746 61.5095H135.825L135.059 59.0585L129.702 59.0741L128.936 61.5056H126.015L129.508 51.2385V51.2424ZM130.453 56.7475H134.316L132.826 52.0049C132.748 51.7559 132.631 51.6509 132.394 51.6509C132.18 51.6509 132.04 51.7559 131.962 52.0049L130.453 56.7475ZM138.221 55.5414C138.221 52.0788 141.224 49.3243 145.068 49.3243C147.363 49.3243 149.56 50.4254 150.541 52.2889L148.207 53.4794C147.557 52.4485 146.538 51.7909 144.951 51.7909C142.753 51.7909 141.166 53.3705 141.166 55.5375C141.166 57.7046 142.734 59.2841 144.951 59.2841C146.538 59.2841 147.6 58.6266 148.207 57.5956L150.541 58.7862C149.56 60.6497 147.363 61.7507 145.068 61.7507C141.224 61.7507 138.221 58.9962 138.221 55.5337V55.5414ZM153.641 61.5095C151.817 61.5095 151.109 60.6575 151.109 59.288V51.7909C151.109 50.4215 151.817 49.5539 153.641 49.5539H160.623V51.8804H153.972V54.3665H160.211V56.693H153.972V59.1791H160.74V61.5056H153.637L153.641 61.5095Z" fill="#D8D8D8"/>
<path d="M51.2495 116.226C49.7985 117.751 41.548 112.558 38.9106 108.076C38.9106 108.076 37.4441 105.609 37.129 102.154C37.1018 101.835 37.129 101.508 37.1757 101.193C37.2068 100.991 37.3196 100.804 37.5063 100.318C37.8759 100.438 38.2804 100.52 38.6694 100.625C38.6694 100.625 39.2023 100.812 39.7275 101.084C45.2551 103.963 48.7366 109.776 48.7366 109.776C50.4131 112.577 52.078 115.355 51.2495 116.226Z" fill="#D8D8D8"/>
<path d="M27.5132 12.8818C27.9566 4.71163 38.1911 -1.80892 47.5464 0.451483C41.9449 6.56353 36.6001 12.4811 27.5132 12.8818Z" fill="#D8D8D8"/>
<path d="M15.746 85.9849C9.88775 78.1843 10.3701 69.4773 16.7224 64.2756C20.6629 71.6171 17.4731 78.4489 15.746 85.9849Z" fill="#D8D8D8"/>
<path d="M10.1601 70.8705C6.6203 61.8249 9.42494 53.4097 16.8508 50.1494C18.6324 58.3196 13.7506 64.1087 10.1601 70.8705Z" fill="#D8D8D8"/>
<path d="M11.8523 38.4192C12.7353 29.5566 20.3479 22.9699 27.6221 24.5572C26.5213 29.6966 20.9081 34.6804 11.8523 38.4192Z" fill="#D8D8D8"/>
<path d="M8.94253 54.5612C7.65107 45.1967 13.1826 36.8748 20.7174 36.762C20.06 44.8776 14.1239 49.2273 8.94253 54.5612Z" fill="#D8D8D8"/>
<path d="M38.2028 14.5859C33.4609 21.4372 26.0506 22.1686 19.0798 24.1723C20.3402 17.465 31.0647 10.6332 38.2028 14.5859Z" fill="#D8D8D8"/>
<path d="M20.4647 78.0754C25.9106 84.1213 24.8525 91.4667 25.0509 98.742C17.4461 94.3613 15.3611 82.6157 20.4647 78.0754Z" fill="#D8D8D8"/>
<path d="M22.818 99.925C15.2132 99.9678 7.77171 93.2488 6.07959 84.7947C14.3768 86.7166 18.7841 93.0271 22.818 99.925Z" fill="#D8D8D8"/>
<path d="M37.5688 109.457C28.8125 105.815 25.0276 98.6491 27.2487 90.0432C34.3479 94.6107 35.2037 102.014 37.5688 109.457Z" fill="#D8D8D8"/>
<path d="M50.5766 117.803C45.0452 122.616 32.6362 118.818 28.6218 113.246C36.7829 110.608 43.6915 114.262 50.5766 117.803Z" fill="#D8D8D8"/>
<path d="M5.72925 30.8989C10.1949 38.3804 8.82953 45.8931 6.83788 53.4291C1.41531 49.2467 0.882386 39.6099 5.72925 30.8989Z" fill="#D8D8D8"/>
<path d="M14.9954 15.3093C17.5161 23.5534 13.7078 30.3735 10.1446 37.0769C5.83069 32.0815 8.30858 20.5927 14.9954 15.3093Z" fill="#D8D8D8"/>
<path d="M8.03606 70.3763C1.33369 66.758 -1.84828 56.9422 1.10808 48.8538C7.60428 54.7012 7.39422 62.6885 8.03606 70.3763Z" fill="#D8D8D8"/>
<path d="M17.4657 22.4525C14.7816 16.1226 20.6982 5.41967 28.4548 2.27222C26.821 7.50889 27.07 13.0062 22.3748 16.7567C20.5154 18.2429 19.1967 20.4061 17.4696 22.4525H17.4657Z" fill="#D8D8D8"/>
<path d="M1.11975 67.1045C8.77126 71.1623 11.1091 78.5038 13.3108 85.7869C6.76405 85.3239 0.582935 75.9983 1.11975 67.1045Z" fill="#D8D8D8"/>
<path d="M35.6352 110.768C27.9993 112.721 19.8615 108.535 14.9563 99.7966C19.2625 101.01 23.3236 101.505 26.6922 103.29C29.9676 105.026 32.5349 108.091 35.6352 110.764V110.768Z" fill="#D8D8D8"/>
<path d="M166.75 116.227C168.201 117.752 176.451 112.558 179.088 108.076C179.088 108.076 180.555 105.609 180.87 102.154C180.897 101.835 180.87 101.509 180.823 101.193C180.792 100.991 180.679 100.804 180.493 100.318C180.123 100.439 179.719 100.52 179.33 100.625C179.33 100.625 178.797 100.812 178.272 101.085C172.744 103.964 169.263 109.776 169.263 109.776C167.586 112.577 165.921 115.355 166.75 116.227Z" fill="#D8D8D8"/>
<path d="M190.486 12.8818C190.043 4.71163 179.808 -1.80892 170.453 0.451483C176.054 6.56353 181.399 12.4811 190.486 12.8818Z" fill="#D8D8D8"/>
<path d="M202.253 85.9854C208.112 78.1848 207.629 69.4778 201.277 64.2761C197.336 71.6176 200.526 78.4494 202.253 85.9854Z" fill="#D8D8D8"/>
<path d="M207.839 70.8707C211.379 61.8252 208.574 53.4099 201.148 50.1497C199.367 58.3198 204.249 64.1089 207.839 70.8707Z" fill="#D8D8D8"/>
<path d="M206.147 38.4195C205.264 29.5568 197.651 22.9701 190.377 24.5574C191.478 29.6969 197.091 34.6807 206.147 38.4195Z" fill="#D8D8D8"/>
<path d="M209.057 54.5612C210.348 45.1967 204.817 36.8748 197.282 36.762C197.939 44.8776 203.875 49.2273 209.057 54.5612Z" fill="#D8D8D8"/>
<path d="M179.796 14.5859C184.538 21.4372 191.949 22.1686 198.919 24.1723C197.659 17.465 186.934 10.6332 179.796 14.5859Z" fill="#D8D8D8"/>
<path d="M197.535 78.0757C192.089 84.1216 193.147 91.4669 192.948 98.7423C200.553 94.3615 202.638 82.616 197.535 78.0757Z" fill="#D8D8D8"/>
<path d="M195.181 99.925C202.786 99.9678 210.228 93.2488 211.92 84.7947C203.623 86.7166 199.215 93.0271 195.181 99.925Z" fill="#D8D8D8"/>
<path d="M180.435 109.457C189.191 105.815 192.976 98.6491 190.755 90.0432C183.655 94.6107 182.8 102.014 180.435 109.457Z" fill="#D8D8D8"/>
<path d="M167.423 117.803C172.954 122.616 185.363 118.818 189.377 113.246C181.216 110.608 174.308 114.262 167.423 117.803Z" fill="#D8D8D8"/>
<path d="M212.273 30.8992C207.808 38.3807 209.173 45.8933 211.165 53.4293C216.587 49.247 217.12 39.6101 212.273 30.8992Z" fill="#D8D8D8"/>
<path d="M203.004 15.3096C200.483 23.5536 204.291 30.3738 207.855 37.0772C212.169 32.0817 209.691 20.5929 203.004 15.3096Z" fill="#D8D8D8"/>
<path d="M209.963 70.3763C216.665 66.758 219.847 56.9422 216.891 48.8538C210.395 54.7012 210.605 62.6885 209.963 70.3763Z" fill="#D8D8D8"/>
<path d="M200.534 22.4527C203.218 16.1228 197.301 5.41991 189.545 2.27246C191.178 7.50914 190.929 13.0065 195.625 16.757C197.484 18.2432 198.803 20.4063 200.53 22.4527H200.534Z" fill="#D8D8D8"/>
<path d="M216.879 67.1045C209.228 71.1623 206.89 78.5038 204.688 85.7869C211.235 85.3239 217.416 75.9983 216.879 67.1045Z" fill="#D8D8D8"/>
<path d="M182.367 110.768C190.003 112.721 198.141 108.535 203.046 99.7969C198.74 101.011 194.679 101.505 191.31 103.291C188.035 105.026 185.468 108.092 182.367 110.764V110.768Z" fill="#D8D8D8"/>
<path d="M58.8037 110.788L59.4105 110.519C59.5934 110.889 59.9979 111.087 60.5542 111.087C61.1104 111.087 61.5267 110.85 61.5267 110.43C61.5267 109.959 61.0482 109.873 60.4881 109.78C59.7762 109.651 58.8932 109.441 58.8932 108.535C58.8932 107.827 59.605 107.29 60.5036 107.29C61.2233 107.29 61.8651 107.597 62.1491 108.185L61.55 108.465C61.3594 108.115 60.9976 107.897 60.4764 107.897C59.9979 107.897 59.6089 108.154 59.6089 108.515C59.6089 108.975 60.1107 109.076 60.6826 109.181C61.3866 109.309 62.2502 109.519 62.2502 110.426C62.2502 111.18 61.5072 111.702 60.5581 111.702C59.7606 111.702 59.0916 111.375 58.8076 110.788H58.8037ZM62.9154 111.632V107.064H63.6156V108.854C63.884 108.593 64.3002 108.426 64.767 108.426C65.7823 108.426 66.3541 109.041 66.3541 109.998V111.632H65.6539V110.06C65.6539 109.504 65.3155 109.025 64.6581 109.025C64.0435 109.025 63.6156 109.472 63.6156 110.079V111.632H62.9154ZM66.7742 110.044C66.7742 109.146 67.4861 108.41 68.5247 108.41C69.5633 108.41 70.2168 109.095 70.2168 109.97V110.227H67.451C67.5288 110.764 67.9801 111.142 68.6025 111.142C69.0265 111.142 69.4077 110.974 69.61 110.632L70.1468 110.881C69.8434 111.418 69.2871 111.706 68.6064 111.706C67.5561 111.706 66.7703 111.017 66.7703 110.052L66.7742 110.044ZM69.5205 109.815C69.4933 109.317 69.0887 108.978 68.5169 108.978C67.9451 108.978 67.5483 109.348 67.4783 109.815H69.5166H69.5205ZM71.5394 107.064V111.632H70.8392V107.064H71.5394ZM73.1615 107.064V111.632H72.4613V107.064H73.1615ZM76.4057 111.632C75.9194 111.632 75.7405 111.41 75.7405 111.044V107.94C75.7405 107.574 75.9156 107.352 76.4057 107.352H79.0042V107.947H76.464V109.192H78.8641V109.788H76.464V111.04H79.0547V111.636H76.4096L76.4057 111.632ZM79.3698 110.06C79.3698 109.161 80.1828 108.418 81.1748 108.426C81.8088 108.426 82.3962 108.687 82.7152 109.251L82.1356 109.543C81.9294 109.204 81.5832 109.025 81.1748 109.025C80.5679 109.025 80.0661 109.492 80.0661 110.06C80.0661 110.628 80.5679 111.107 81.1748 111.107C81.5832 111.107 81.9294 110.928 82.1356 110.589L82.7152 110.877C82.3962 111.445 81.8127 111.702 81.1748 111.702C80.1789 111.713 79.3698 110.966 79.3698 110.06ZM82.8552 110.06C82.8552 109.161 83.6682 108.426 84.7029 108.426C85.7377 108.426 86.539 109.165 86.539 110.06C86.539 110.955 85.7415 111.71 84.7029 111.71C83.6643 111.71 82.8552 110.97 82.8552 110.06ZM85.8388 110.064C85.8388 109.488 85.3448 109.017 84.7029 109.017C84.0611 109.017 83.5515 109.488 83.5515 110.064C83.5515 110.64 84.0533 111.107 84.7029 111.107C85.3526 111.107 85.8388 110.636 85.8388 110.064ZM89.6859 109.943H87.2431V109.367H89.6859V109.943ZM96.5089 109.982V111.632H95.8087V110.087C95.8087 109.519 95.4975 109.021 94.8479 109.021C94.1983 109.021 93.9026 109.5 93.9026 110.076V111.636H93.2025V110.076C93.2025 109.5 92.8835 109.021 92.2416 109.021C91.5998 109.021 91.3042 109.519 91.3042 110.087V111.632H90.604V109.99C90.604 109.115 91.1563 108.41 92.1911 108.41C92.8835 108.41 93.3853 108.729 93.5603 109.216C93.7509 108.729 94.2372 108.41 94.8946 108.41C95.9371 108.41 96.505 109.115 96.505 109.982H96.5089ZM96.9368 110.06C96.9368 109.165 97.7265 108.426 98.7806 108.426C99.8348 108.426 100.624 109.13 100.624 110.06V111.632H99.9593V111.083C99.6986 111.468 99.2396 111.71 98.6756 111.71C97.672 111.71 96.9407 110.97 96.9407 110.06H96.9368ZM99.9243 110.064C99.9243 109.488 99.4302 109.017 98.7806 109.017C98.131 109.017 97.637 109.488 97.637 110.064C97.637 110.64 98.1388 111.107 98.7806 111.107C99.4225 111.107 99.9243 110.636 99.9243 110.064ZM101.27 111.632V109.768C101.27 109.01 101.749 108.438 102.655 108.438C102.873 108.438 103.098 108.477 103.277 108.55V109.177C103.106 109.087 102.912 109.045 102.721 109.045C102.254 109.045 101.974 109.332 101.974 109.792V111.632H101.274H101.27ZM103.219 110.06C103.219 109.165 104.009 108.426 105.063 108.426C106.117 108.426 106.907 109.13 106.907 110.06V111.632H106.242V111.083C105.981 111.468 105.522 111.71 104.958 111.71C103.954 111.71 103.223 110.97 103.223 110.06H103.219ZM106.203 110.064C106.203 109.488 105.709 109.017 105.059 109.017C104.409 109.017 103.915 109.488 103.915 110.064C103.915 110.64 104.417 111.107 105.059 111.107C105.701 111.107 106.203 110.636 106.203 110.064ZM107.805 110.507V109.052H107.121V108.504H107.805V107.695H108.505V108.504H109.832V109.052H108.505V110.488C108.505 110.896 108.774 111.138 109.19 111.138C109.416 111.138 109.665 111.06 109.832 110.951V111.531C109.657 111.64 109.381 111.71 109.128 111.71C108.268 111.71 107.809 111.219 107.809 110.503L107.805 110.507ZM110.513 111.632V107.064H111.213V108.854C111.481 108.593 111.897 108.426 112.364 108.426C113.38 108.426 113.951 109.041 113.951 109.998V111.632H113.251V110.06C113.251 109.504 112.913 109.025 112.255 109.025C111.641 109.025 111.213 109.472 111.213 110.079V111.632H110.513ZM114.371 110.06C114.371 109.161 115.184 108.426 116.219 108.426C117.254 108.426 118.055 109.165 118.055 110.06C118.055 110.955 117.258 111.71 116.219 111.71C115.181 111.71 114.371 110.97 114.371 110.06ZM117.359 110.064C117.359 109.488 116.865 109.017 116.223 109.017C115.581 109.017 115.072 109.488 115.072 110.064C115.072 110.64 115.573 111.107 116.223 111.107C116.873 111.107 117.359 110.636 117.359 110.064ZM119.183 110.114V111.628H118.483V110.048C118.483 109.134 119.082 108.418 120.199 108.418C121.315 108.418 121.941 109.134 121.941 110.041V111.624H121.241V110.114C121.241 109.527 120.887 109.021 120.195 109.021C119.502 109.021 119.179 109.527 119.179 110.107L119.183 110.114ZM125.294 107.87C125.434 107.469 125.781 107.274 126.177 107.274C126.574 107.274 126.924 107.465 127.068 107.87L128.36 111.632H127.625L127.278 110.585L125.077 110.593L124.73 111.636H124.003L125.294 107.873V107.87ZM125.275 109.994H127.088L126.454 108.06C126.403 107.928 126.321 107.862 126.185 107.862C126.045 107.862 125.96 107.924 125.917 108.06L125.275 109.994ZM128.597 111.005L129.134 110.737C129.309 111.048 129.593 111.165 129.974 111.165C130.355 111.165 130.674 111.017 130.674 110.745C130.674 110.087 128.69 110.585 128.69 109.391C128.69 108.842 129.227 108.438 129.982 108.438C130.624 108.438 131.063 108.706 131.281 109.068L130.744 109.344C130.596 109.068 130.312 108.975 129.997 108.975C129.682 108.975 129.391 109.126 129.391 109.375C129.391 110.013 131.374 109.546 131.374 110.729C131.374 111.324 130.74 111.702 130.005 111.702C129.363 111.702 128.869 111.472 128.601 111.005H128.597ZM131.884 107.465C131.884 107.235 132.09 107.045 132.343 107.045C132.596 107.045 132.794 107.235 132.794 107.465C132.794 107.695 132.596 107.881 132.343 107.881C132.09 107.881 131.884 107.695 131.884 107.465ZM132.697 108.5V111.628H131.997V108.5H132.697ZM133.261 110.06C133.261 109.165 134.051 108.426 135.105 108.426C136.159 108.426 136.949 109.13 136.949 110.06V111.632H136.284V111.083C136.023 111.468 135.564 111.71 135 111.71C133.996 111.71 133.265 110.97 133.265 110.06H133.261ZM136.249 110.064C136.249 109.488 135.755 109.017 135.105 109.017C134.455 109.017 133.961 109.488 133.961 110.064C133.961 110.64 134.463 111.107 135.105 111.107C135.747 111.107 136.249 110.636 136.249 110.064ZM139.462 111.632V107.352H140.967C142.239 107.352 143.064 107.87 143.064 108.866C143.064 109.862 142.223 110.398 141.002 110.398H140.185V111.632H139.466H139.462ZM140.181 107.951V109.792H140.986C141.764 109.792 142.321 109.515 142.321 108.866C142.321 108.216 141.784 107.951 140.986 107.951H140.181ZM143.215 110.06C143.215 109.165 144.005 108.426 145.059 108.426C146.113 108.426 146.903 109.13 146.903 110.06V111.632H146.238V111.083C145.977 111.468 145.518 111.71 144.954 111.71C143.951 111.71 143.219 110.97 143.219 110.06H143.215ZM146.203 110.064C146.203 109.488 145.709 109.017 145.059 109.017C144.41 109.017 143.916 109.488 143.916 110.064C143.916 110.64 144.417 111.107 145.059 111.107C145.701 111.107 146.203 110.636 146.203 110.064ZM147.331 110.06C147.331 109.161 148.144 108.418 149.136 108.426C149.77 108.426 150.357 108.687 150.676 109.251L150.097 109.543C149.891 109.204 149.544 109.025 149.136 109.025C148.529 109.025 148.027 109.492 148.027 110.06C148.027 110.628 148.529 111.107 149.136 111.107C149.544 111.107 149.891 110.928 150.097 110.589L150.676 110.877C150.357 111.445 149.774 111.702 149.136 111.702C148.14 111.713 147.331 110.966 147.331 110.06ZM151.061 107.465C151.061 107.235 151.268 107.045 151.52 107.045C151.773 107.045 151.972 107.235 151.972 107.465C151.972 107.695 151.773 107.881 151.52 107.881C151.268 107.881 151.061 107.695 151.061 107.465ZM151.874 108.5V111.628H151.174V108.5H151.874ZM153.026 111.632V109.052H152.368V108.504H153.026V108.177C153.026 107.512 153.485 107.014 154.352 107.014C154.586 107.014 154.804 107.053 154.979 107.127V107.745C154.815 107.656 154.613 107.605 154.415 107.605C153.983 107.605 153.722 107.776 153.722 108.193V108.5H155.838V111.628H155.138V109.048H153.718V111.628H153.018L153.026 111.632ZM156.305 110.06C156.305 109.161 157.118 108.418 158.11 108.426C158.744 108.426 159.331 108.687 159.65 109.251L159.071 109.543C158.865 109.204 158.518 109.025 158.11 109.025C157.503 109.025 157.001 109.492 157.001 110.06C157.001 110.628 157.503 111.107 158.11 111.107C158.518 111.107 158.865 110.928 159.071 110.589L159.65 110.877C159.331 111.445 158.748 111.702 158.11 111.702C157.114 111.713 156.305 110.966 156.305 110.06ZM68.6919 117.724C68.6919 116.83 69.4816 116.09 70.5358 116.09C71.5899 116.09 72.3796 116.795 72.3796 117.724V119.296H71.7144V118.748C71.4538 119.133 70.9948 119.374 70.4307 119.374C69.4271 119.374 68.6958 118.631 68.6958 117.724H68.6919ZM71.6794 117.732C71.6794 117.156 71.1854 116.686 70.5358 116.686C69.8862 116.686 69.3921 117.156 69.3921 117.732C69.3921 118.308 69.8939 118.775 70.5358 118.775C71.1776 118.775 71.6794 118.304 71.6794 117.732ZM73.7255 117.783V119.296H73.0253V117.717C73.0253 116.802 73.6244 116.086 74.7408 116.086C75.8572 116.086 76.4835 116.802 76.4835 117.709V119.292H75.7833V117.783C75.7833 117.195 75.4293 116.689 74.7369 116.689C74.0445 116.689 73.7216 117.195 73.7216 117.775L73.7255 117.783ZM76.9153 117.736C76.9153 116.783 77.6777 116.086 78.7202 116.086C79.187 116.086 79.611 116.273 79.8911 116.553L79.8989 114.725H80.599V117.732C80.599 118.658 79.8016 119.366 78.7552 119.366C77.7088 119.366 76.9114 118.631 76.9114 117.732L76.9153 117.736ZM79.8989 117.732C79.8989 117.164 79.4048 116.689 78.7552 116.689C78.1056 116.689 77.6116 117.16 77.6116 117.732C77.6116 118.304 78.1134 118.779 78.7552 118.779C79.3971 118.779 79.8989 118.308 79.8989 117.732ZM86.1228 115.616H84.6679V119.296H83.9483V115.616H82.5012V115.017H86.1228V115.616ZM86.5079 119.296V114.729H87.2081V116.518C87.4765 116.258 87.8927 116.09 88.3595 116.09C89.3747 116.09 89.9466 116.705 89.9466 117.662V119.296H89.2464V117.724C89.2464 117.168 88.908 116.689 88.2506 116.689C87.6359 116.689 87.2081 117.137 87.2081 117.744V119.296H86.5079ZM90.3706 117.713C90.3706 116.81 91.0824 116.079 92.121 116.079C93.1597 116.079 93.8132 116.763 93.8132 117.639V117.896H91.0474C91.1252 118.432 91.5765 118.81 92.1988 118.81C92.6228 118.81 93.0041 118.643 93.2063 118.3L93.7432 118.549C93.4397 119.086 92.8835 119.374 92.2027 119.374C91.1525 119.374 90.3667 118.685 90.3667 117.72L90.3706 117.713ZM93.113 117.483C93.0857 116.985 92.6812 116.647 92.1094 116.647C91.5376 116.647 91.1408 117.016 91.0708 117.483H93.1091H93.113ZM95.8359 119.304L96.5011 115.511C96.5634 115.141 96.859 114.943 97.2441 114.943C97.5825 114.943 97.8704 115.09 97.9793 115.429L98.8895 118.413C98.9051 118.471 98.9168 118.491 98.9518 118.491C98.9946 118.491 99.0023 118.471 99.0218 118.413L99.9243 115.444C100.022 115.106 100.325 114.954 100.667 114.954C101.041 114.954 101.332 115.16 101.395 115.534L101.994 119.304H101.266L100.745 115.74C100.729 115.651 100.702 115.592 100.624 115.592C100.562 115.592 100.519 115.639 100.496 115.721L99.5236 118.786C99.4458 119.043 99.2202 119.172 98.9518 119.172C98.6834 119.172 98.4578 119.043 98.38 118.802L97.4114 115.717C97.3841 115.627 97.3491 115.588 97.283 115.588C97.2169 115.588 97.1702 115.635 97.1546 115.736L96.5672 119.312H95.832L95.8359 119.304ZM102.554 115.133C102.554 114.904 102.76 114.713 103.013 114.713C103.266 114.713 103.464 114.904 103.464 115.133C103.464 115.363 103.266 115.55 103.013 115.55C102.76 115.55 102.554 115.363 102.554 115.133ZM103.367 116.168V119.296H102.667V116.168H103.367ZM103.931 117.736C103.931 116.783 104.693 116.086 105.736 116.086C106.203 116.086 106.627 116.273 106.907 116.553L106.914 114.725H107.615V117.732C107.615 118.658 106.817 119.366 105.771 119.366C104.724 119.366 103.927 118.631 103.927 117.732L103.931 117.736ZM106.914 117.732C106.914 117.164 106.42 116.689 105.771 116.689C105.121 116.689 104.627 117.16 104.627 117.732C104.627 118.304 105.129 118.779 105.771 118.779C106.413 118.779 106.914 118.308 106.914 117.732ZM108.043 117.736C108.043 116.783 108.805 116.086 109.848 116.086C110.314 116.086 110.738 116.273 111.018 116.553L111.026 114.725H111.726V117.732C111.726 118.658 110.929 119.366 109.883 119.366C108.836 119.366 108.039 118.631 108.039 117.732L108.043 117.736ZM111.03 117.732C111.03 117.164 110.536 116.689 109.886 116.689C109.237 116.689 108.743 117.16 108.743 117.732C108.743 118.304 109.245 118.779 109.886 118.779C110.528 118.779 111.03 118.308 111.03 117.732ZM113.216 114.729V119.296H112.516V114.729H113.216ZM113.78 117.713C113.78 116.81 114.492 116.079 115.531 116.079C116.569 116.079 117.223 116.763 117.223 117.639V117.896H114.457C114.535 118.432 114.986 118.81 115.609 118.81C116.033 118.81 116.414 118.643 116.616 118.3L117.153 118.549C116.849 119.086 116.293 119.374 115.612 119.374C114.562 119.374 113.776 118.685 113.776 117.72L113.78 117.713ZM116.527 117.483C116.499 116.985 116.095 116.647 115.523 116.647C114.951 116.647 114.554 117.016 114.484 117.483H116.523H116.527ZM120.168 119.296C119.681 119.296 119.502 119.074 119.502 118.709V115.604C119.502 115.238 119.677 115.017 120.168 115.017H122.766V115.612H120.226V116.857H122.626V117.452H120.226V118.705H122.817V119.3H120.171L120.168 119.296ZM123.128 117.724C123.128 116.83 123.917 116.09 124.972 116.09C126.026 116.09 126.815 116.795 126.815 117.724V119.296H126.15V118.748C125.89 119.133 125.431 119.374 124.867 119.374C123.863 119.374 123.132 118.631 123.132 117.724H123.128ZM126.115 117.732C126.115 117.156 125.621 116.686 124.972 116.686C124.322 116.686 123.828 117.156 123.828 117.732C123.828 118.308 124.33 118.775 124.972 118.775C125.613 118.775 126.115 118.304 126.115 117.732ZM127.298 118.67L127.835 118.401C128.01 118.713 128.294 118.829 128.675 118.829C129.056 118.829 129.375 118.681 129.375 118.409C129.375 117.752 127.391 118.25 127.391 117.055C127.391 116.507 127.928 116.102 128.683 116.102C129.324 116.102 129.764 116.37 129.982 116.732L129.445 117.008C129.297 116.732 129.013 116.639 128.698 116.639C128.383 116.639 128.091 116.791 128.091 117.04C128.091 117.678 130.075 117.211 130.075 118.394C130.075 118.989 129.441 119.366 128.706 119.366C128.064 119.366 127.57 119.137 127.302 118.67H127.298ZM130.814 118.172V116.717H130.13V116.168H130.814V115.359H131.514V116.168H132.841V116.717H131.514V118.152C131.514 118.561 131.783 118.802 132.199 118.802C132.425 118.802 132.674 118.724 132.841 118.615V119.195C132.666 119.304 132.39 119.374 132.137 119.374C131.277 119.374 130.818 118.884 130.818 118.168L130.814 118.172ZM135.618 119.296C135.187 119.296 134.969 119.074 134.969 118.798C134.969 118.6 135.066 118.421 135.272 118.261L136.676 117.129C137.065 116.81 137.268 116.573 137.268 116.215C137.268 115.834 136.906 115.557 136.443 115.557C135.98 115.557 135.595 115.814 135.385 116.203L134.829 115.923C135.14 115.343 135.723 114.939 136.494 114.939C137.369 114.939 137.991 115.483 137.991 116.16C137.991 116.678 137.738 117.075 137.291 117.433L135.895 118.557C135.836 118.608 135.809 118.627 135.809 118.666C135.809 118.685 135.825 118.697 135.844 118.697H138.116V119.296H135.618ZM138.481 117.149C138.481 115.896 139.252 114.939 140.38 114.939C141.508 114.939 142.278 115.896 142.278 117.149C142.278 118.401 141.508 119.378 140.38 119.378C139.252 119.378 138.481 118.39 138.481 117.149ZM141.539 117.149C141.539 116.273 141.045 115.604 140.38 115.604C139.714 115.604 139.22 116.273 139.22 117.149C139.22 118.024 139.714 118.709 140.38 118.709C141.045 118.709 141.539 118.012 141.539 117.149ZM143.394 119.296C142.963 119.296 142.745 119.074 142.745 118.798C142.745 118.6 142.842 118.421 143.048 118.261L144.452 117.129C144.841 116.81 145.044 116.573 145.044 116.215C145.044 115.834 144.682 115.557 144.219 115.557C143.756 115.557 143.371 115.814 143.161 116.203L142.605 115.923C142.916 115.343 143.499 114.939 144.27 114.939C145.145 114.939 145.767 115.483 145.767 116.16C145.767 116.678 145.514 117.075 145.067 117.433L143.671 118.557C143.612 118.608 143.585 118.627 143.585 118.666C143.585 118.685 143.601 118.697 143.62 118.697H145.892V119.296H143.394ZM148.311 119.296V118.491H146.518C146.094 118.491 145.861 118.285 145.861 118.016C145.861 117.876 145.915 117.717 146.043 117.561L147.821 115.301C147.988 115.09 148.16 114.935 148.49 114.935C148.786 114.935 149.004 115.122 149.004 115.413V117.931H149.766V118.487H149.004V119.292H148.303L148.311 119.296ZM148.311 117.934V115.783C148.311 115.744 148.296 115.713 148.249 115.713C148.202 115.713 148.179 115.752 148.128 115.81L146.561 117.837C146.541 117.864 146.534 117.884 146.534 117.899C146.534 117.938 146.576 117.938 146.619 117.938H148.311V117.934Z" fill="#D8D8D8"/>
<path d="M42.9018 80.1025H38.3V69.5669H42.9018C46.7101 69.5669 49.2463 71.6756 49.2463 74.8736C49.2463 78.0717 46.6245 80.1025 42.9018 80.1025ZM42.9018 72.2203H41.4898V77.527H42.9018C44.7651 77.527 45.971 76.4649 45.971 74.8736C45.971 73.2824 44.7651 72.2203 42.9018 72.2203ZM52.3311 71.2399C52.7628 69.9443 53.9687 69.3374 55.1746 69.3374C56.3805 69.3374 57.5864 69.9443 58.0182 71.2399L61.0173 80.1064H57.7575L57.2246 78.3284H53.1402L52.5878 80.1064H49.328L52.3272 71.2399H52.3311ZM53.9337 75.749H56.4311L55.3263 72.0802C55.2913 71.9713 55.2563 71.9246 55.1902 71.9246C55.124 71.9246 55.0851 71.9713 55.054 72.0802L53.9337 75.749ZM69.583 72.2203H66.2921V80.1025H63.1023V72.2203H59.8114V69.5669H69.583V72.2203ZM71.3762 71.2399C71.808 69.9443 73.0139 69.3374 74.2198 69.3374C75.4256 69.3374 76.6315 69.9443 77.0633 71.2399L80.0625 80.1064H76.8027L76.2698 78.3284H72.1853L71.6329 80.1064H68.3732L71.3723 71.2399H71.3762ZM72.9789 75.749H75.4801L74.3754 72.0802C74.3403 71.9713 74.3053 71.9246 74.2392 71.9246C74.1731 71.9246 74.1342 71.9713 74.1031 72.0802L72.9828 75.749H72.9789ZM93.4555 72.2203H90.1646V80.1025H86.9749V72.2203H83.684V69.5669H93.4555V72.2203ZM96.8164 80.1025C94.852 80.1025 94.0585 79.1649 94.0585 77.6826V71.9868C94.0585 70.5045 94.852 69.5669 96.8164 69.5669H102.78V72.1425H97.2482V73.547H102.387V76.1225H97.2482V77.527H102.869V80.1025H96.8203H96.8164ZM107.432 77.4492H112.567V80.1025H107C105.036 80.1025 104.242 79.1649 104.242 77.6826V69.5669H107.432V77.4492ZM115.842 80.1025C113.878 80.1025 113.084 79.1649 113.084 77.6826V71.9868C113.084 70.5045 113.878 69.5669 115.842 69.5669H121.805V72.1425H116.274V73.547H121.413V76.1225H116.274V77.527H121.895V80.1025H115.846H115.842ZM122.579 80.1025L124.112 71.2515C124.338 70.0027 125.302 69.3335 126.699 69.3335C127.905 69.3335 128.924 69.8004 129.251 70.9714L130.838 76.5582L132.405 71.0181C132.732 69.847 133.783 69.3335 135.027 69.3335C136.389 69.3335 137.318 70.0221 137.525 71.2982L138.902 80.0986H135.677L134.747 72.6716L132.903 78.7564C132.612 79.694 131.799 80.1453 130.834 80.1453C129.869 80.1453 129.025 79.7096 128.765 78.8186L126.936 72.6521L125.816 80.0947H122.576L122.579 80.1025ZM142.694 80.1025C140.73 80.1025 139.936 79.1649 139.936 77.6826V71.9868C139.936 70.5045 140.73 69.5669 142.694 69.5669H148.658V72.1425H143.126V73.547H148.265V76.1225H143.126V77.527H148.747V80.1025H142.698H142.694ZM158.775 72.2203H155.485V80.1025H152.295V72.2203H149.004V69.5669H158.775V72.2203ZM159.549 80.1025V69.5669H164.427C167.185 69.5669 169.29 70.738 169.29 73.0645C169.29 74.4535 168.426 75.5934 167.065 75.9824C167.652 76.3248 168.03 76.9356 168.547 77.8849L169.737 80.1025H166.271L165.186 78.1222C164.789 77.4025 164.342 77.1379 163.307 77.1379H162.72L162.704 80.1025H159.549ZM162.739 72.2203L162.724 74.578H164.431C165.361 74.578 166.018 74.1111 166.018 73.3602C166.018 72.5626 165.365 72.2203 164.466 72.2203H162.743H162.739ZM169.652 69.5669H173.083L175.339 74.6869L177.564 69.5669H180.995L178.167 75.5584C177.875 76.1653 177.443 76.636 176.941 76.9473V80.0986H173.752V76.9784C173.234 76.6672 172.787 76.1964 172.476 75.5584L169.648 69.5669H169.652Z" fill="#D8D8D8"/>
<path d="M71.0495 88.0078C71.6058 86.4049 73.0645 85.6345 74.5894 85.6345C76.1142 85.6345 77.5963 86.4049 78.1565 88.0078L82.4743 100.703H78.8605L77.9153 97.6719L71.2946 97.6952L70.3494 100.703H66.7356L71.0534 88.0078H71.0495ZM72.2126 94.8201H76.9934L75.1495 88.957C75.0523 88.6497 74.9084 88.5174 74.6166 88.5174C74.3482 88.5174 74.1809 88.6497 74.0837 88.957L72.2165 94.8201H72.2126ZM81.284 85.9224H84.8238L87.3951 97.6291C87.4184 97.7186 87.4417 97.738 87.469 97.738C87.4962 97.738 87.5157 97.7147 87.5429 97.6291L89.8963 88.2723C90.332 86.471 91.3278 85.7007 92.7826 85.7007C94.2375 85.7007 95.21 86.471 95.669 88.249L98.0691 97.6291C98.0924 97.7186 98.0924 97.738 98.143 97.738C98.1663 97.738 98.1663 97.6952 98.1896 97.6291L100.664 85.9224H104.203L101.294 98.5511C100.928 100.111 99.8623 101.01 98.2869 101.01C96.8321 101.01 95.6651 100.173 95.28 98.6834L92.7826 88.9765L90.3086 98.7496C89.943 100.177 88.7332 101.01 87.3251 101.01C85.8196 101.01 84.6566 100.173 84.2909 98.6173L81.284 85.9224ZM107.339 88.0078C107.895 86.4049 109.354 85.6345 110.879 85.6345C112.403 85.6345 113.886 86.4049 114.446 88.0078L118.764 100.703H115.15L114.205 97.6719L107.584 97.6952L106.639 100.703H103.025L107.343 88.0078H107.339ZM108.502 94.8201H113.283L111.439 88.957C111.342 88.6497 111.198 88.5174 110.906 88.5174C110.637 88.5174 110.47 88.6497 110.373 88.957L108.506 94.8201H108.502ZM120.343 100.706V85.9224H126.625C130.313 85.9224 133.152 87.4825 133.152 90.6222C133.152 92.6414 131.842 94.2015 129.757 94.7073C130.799 95.2364 131.406 96.244 132.254 97.7808L133.829 100.703H129.998L128.543 98.0648C127.792 96.7031 127.088 95.9795 125.244 95.9795H123.863L123.84 100.703H120.347L120.343 100.706ZM123.883 88.887L123.859 93.1277H126.625C128.298 93.1277 129.511 92.3379 129.511 90.9529C129.511 89.5679 128.274 88.887 126.672 88.887H123.883ZM141.909 100.706H135.891V85.9224H141.979C147.269 85.9224 150.786 88.8676 150.786 93.3261C150.786 97.7847 147.051 100.706 141.909 100.706ZM141.979 88.887H139.431V97.8275H141.905C144.962 97.8275 147.145 96.0923 147.145 93.3261C147.145 90.56 145.06 88.8909 141.979 88.8909V88.887Z" fill="#D8D8D8"/>
</g>
<defs>
<clipPath id="clip0_351_7954">
<rect width="218" height="120" fill="white"/>
</clipPath>
</defs>
</svg>
