<svg width="218" height="120" viewBox="0 0 218 120" fill="none" xmlns="http://www.w3.org/2000/svg">
<g clip-path="url(#clip0_351_6740)">
<path d="M81.0039 58.3349V20.4449C80.9223 20.4449 80.8367 20.5188 80.755 20.5966L68.0816 26.7087L62.4956 16.2159L78.0009 8.81996C80.6694 7.53608 83.5869 6.55566 86.0881 6.55566C90.3398 6.55566 93.1756 9.12342 93.1756 13.652V58.3349H81.0039Z" fill="#EBAA01"/>
<path d="M98.501 40.9054L100.559 39.8588C100.971 40.5708 101.617 40.8704 102.597 40.8704C103.5 40.8704 104.067 40.5513 104.067 40.0339C104.067 38.6139 98.7305 39.8394 98.7305 36.4468C98.7305 34.8673 100.259 33.6223 102.655 33.6223C104.737 33.6223 105.989 34.5093 106.58 35.5209L104.519 36.5674C104.204 35.9294 103.5 35.6259 102.714 35.6259C102.029 35.6259 101.516 35.9294 101.516 36.3885C101.516 37.8085 106.853 36.6725 106.853 39.9755C106.853 41.7496 104.95 42.8896 102.733 42.8896C100.714 42.8896 99.2984 42.2165 98.4971 40.9015L98.501 40.9054ZM108.607 39.1663V35.9877H106.822V33.8557H108.607V31.6187H111.392V33.8557H114.827V35.9877H111.392V39.0963C111.392 40.0728 112.042 40.6408 113.061 40.6408C113.629 40.6408 114.356 40.4813 114.827 40.2129V42.4694C114.337 42.7534 113.493 42.8973 112.808 42.8973C110.004 42.8973 108.611 41.3684 108.611 39.1663H108.607ZM99.5201 58.3467V46.3911H104.169C107.915 46.3911 110.21 47.9706 110.21 50.7446C110.21 53.5185 107.954 55.1837 104.324 55.1837H102.383V58.3273L99.5201 58.3467ZM102.387 48.7915V52.7871H104.25C106.133 52.7871 107.273 52.1296 107.273 50.7446C107.273 49.3595 106.137 48.7915 104.25 48.7915H102.387ZM113.668 55.9501H119.829V58.3467H113.337C111.513 58.3467 110.805 57.4947 110.805 56.1252V46.3911H113.668V55.9462V55.9501ZM124.163 48.0796C124.614 46.784 125.793 46.1615 127.026 46.1615C128.259 46.1615 129.457 46.784 129.908 48.0796L133.402 58.3467H130.48L129.714 55.8957L124.357 55.9112L123.591 58.3428H120.67L124.163 48.0757V48.0796ZM125.104 53.5847H128.967L127.477 48.8421C127.399 48.5931 127.283 48.4881 127.045 48.4881C126.831 48.4881 126.691 48.5931 126.614 48.8421L125.104 53.5847ZM132.872 52.3786C132.872 48.916 135.876 46.1615 139.719 46.1615C142.014 46.1615 144.212 47.2625 145.192 49.1261L142.858 50.3166C142.208 49.2856 141.189 48.6281 139.602 48.6281C137.404 48.6281 135.817 50.2077 135.817 52.3747C135.817 54.5417 137.385 56.1213 139.602 56.1213C141.189 56.1213 142.251 55.4638 142.858 54.4328L145.192 55.6233C144.212 57.4869 142.014 58.5879 139.719 58.5879C135.876 58.5879 132.872 55.8334 132.872 52.3708V52.3786ZM148.292 58.3467C146.468 58.3467 145.76 57.4947 145.76 56.1252V48.6281C145.76 47.2586 146.468 46.3911 148.292 46.3911H155.275V48.7176H148.623V51.2037H154.862V53.5302H148.623V56.0163H155.391V58.3428H148.288L148.292 58.3467Z" fill="#EBAA01"/>
<path d="M51.2497 116.226C49.7988 117.751 41.5482 112.558 38.9108 108.076C38.9108 108.076 37.4443 105.609 37.1292 102.154C37.102 101.835 37.1292 101.508 37.1759 101.193C37.207 100.991 37.3199 100.804 37.5066 100.318C37.8761 100.438 38.2807 100.52 38.6697 100.625C38.6697 100.625 39.2026 100.812 39.7277 101.084C45.2553 103.963 48.7368 109.776 48.7368 109.776C50.4134 112.577 52.0783 115.355 51.2497 116.226Z" fill="#EBAA01"/>
<path d="M27.5137 12.8815C27.9571 4.71139 38.1916 -1.80917 47.5469 0.451239C41.9453 6.56329 36.6006 12.4808 27.5137 12.8815Z" fill="#EBAA01"/>
<path d="M15.7467 85.9849C9.88848 78.1843 10.3708 69.4773 16.7231 64.2756C20.6636 71.6171 17.4739 78.4489 15.7467 85.9849Z" fill="#EBAA01"/>
<path d="M10.1604 70.8702C6.62054 61.8247 9.42519 53.4094 16.8511 50.1492C18.6327 58.3193 13.7508 64.1085 10.1604 70.8702Z" fill="#EBAA01"/>
<path d="M11.8525 38.4192C12.7356 29.5566 20.3482 22.9699 27.6224 24.5572C26.5215 29.6966 20.9083 34.6804 11.8525 38.4192Z" fill="#EBAA01"/>
<path d="M8.94277 54.561C7.65131 45.1964 13.1828 36.8745 20.7176 36.7617C20.0602 44.8774 14.1242 49.227 8.94277 54.561Z" fill="#EBAA01"/>
<path d="M38.2033 14.5857C33.4614 21.437 26.0511 22.1684 19.0803 24.172C20.3407 17.4647 31.0652 10.6329 38.2033 14.5857Z" fill="#EBAA01"/>
<path d="M20.4652 78.0754C25.9111 84.1213 24.853 91.4667 25.0514 98.742C17.4466 94.3613 15.3615 82.6157 20.4652 78.0754Z" fill="#EBAA01"/>
<path d="M22.8185 99.925C15.2137 99.9678 7.7722 93.2488 6.08008 84.7947C14.3773 86.7166 18.7846 93.0271 22.8185 99.925Z" fill="#EBAA01"/>
<path d="M37.569 109.457C28.8127 105.815 25.0278 98.6486 27.249 90.0427C34.3481 94.6102 35.2039 102.014 37.569 109.457Z" fill="#EBAA01"/>
<path d="M50.5769 117.803C45.0454 122.616 32.6365 118.818 28.6221 113.246C36.7832 110.608 43.6917 114.262 50.5769 117.803Z" fill="#EBAA01"/>
<path d="M5.72998 30.8987C10.1956 38.3802 8.83027 45.8928 6.83862 53.4288C1.41604 49.2465 0.883119 39.6096 5.72998 30.8987Z" fill="#EBAA01"/>
<path d="M14.9956 15.3093C17.5163 23.5534 13.7081 30.3735 10.1449 37.0769C5.83093 32.0815 8.30882 20.5927 14.9956 15.3093Z" fill="#EBAA01"/>
<path d="M8.03655 70.376C1.33418 66.7578 -1.84779 56.942 1.10856 48.8535C7.60476 54.701 7.39471 62.6883 8.03655 70.376Z" fill="#EBAA01"/>
<path d="M17.4654 22.4522C14.7814 16.1223 20.698 5.41942 28.4545 2.27197C26.8208 7.50865 27.0697 13.006 22.3746 16.7565C20.5152 18.2427 19.1965 20.4058 17.4693 22.4522H17.4654Z" fill="#EBAA01"/>
<path d="M1.12023 67.1042C8.77175 71.1621 11.1096 78.5036 13.3113 85.7867C6.76454 85.3237 0.583423 75.998 1.12023 67.1042Z" fill="#EBAA01"/>
<path d="M35.6355 110.767C27.9995 112.721 19.8618 108.534 14.9565 99.7961C19.2627 101.01 23.3238 101.504 26.6925 103.29C29.9678 105.025 32.5352 108.091 35.6355 110.764V110.767Z" fill="#EBAA01"/>
<path d="M166.75 116.227C168.201 117.752 176.451 112.558 179.089 108.076C179.089 108.076 180.555 105.609 180.87 102.154C180.898 101.835 180.87 101.509 180.824 101.193C180.793 100.991 180.68 100.804 180.493 100.318C180.123 100.439 179.719 100.52 179.33 100.625C179.33 100.625 178.797 100.812 178.272 101.085C172.744 103.964 169.263 109.776 169.263 109.776C167.586 112.577 165.921 115.355 166.75 116.227Z" fill="#EBAA01"/>
<path d="M190.486 12.8818C190.043 4.71163 179.808 -1.80892 170.453 0.451483C176.055 6.56353 181.399 12.4811 190.486 12.8818Z" fill="#EBAA01"/>
<path d="M202.253 85.9854C208.112 78.1848 207.629 69.4778 201.277 64.2761C197.336 71.6176 200.526 78.4494 202.253 85.9854Z" fill="#EBAA01"/>
<path d="M207.839 70.8707C211.379 61.8252 208.574 53.4099 201.149 50.1497C199.367 58.3198 204.249 64.1089 207.839 70.8707Z" fill="#EBAA01"/>
<path d="M206.148 38.4195C205.264 29.5568 197.652 22.9701 190.378 24.5574C191.479 29.6969 197.092 34.6807 206.148 38.4195Z" fill="#EBAA01"/>
<path d="M209.057 54.5612C210.348 45.1967 204.817 36.8748 197.282 36.762C197.939 44.8776 203.875 49.2273 209.057 54.5612Z" fill="#EBAA01"/>
<path d="M179.797 14.5859C184.539 21.4372 191.949 22.1686 198.92 24.1723C197.66 17.465 186.935 10.6332 179.797 14.5859Z" fill="#EBAA01"/>
<path d="M197.535 78.0757C192.089 84.1216 193.147 91.4669 192.948 98.7423C200.553 94.3615 202.638 82.616 197.535 78.0757Z" fill="#EBAA01"/>
<path d="M195.182 99.925C202.787 99.9678 210.228 93.2488 211.92 84.7947C203.623 86.7166 199.216 93.0271 195.182 99.925Z" fill="#EBAA01"/>
<path d="M180.435 109.457C189.191 105.815 192.976 98.6491 190.755 90.0432C183.656 94.6107 182.8 102.014 180.435 109.457Z" fill="#EBAA01"/>
<path d="M167.423 117.803C172.955 122.616 185.363 118.818 189.378 113.246C181.217 110.608 174.308 114.262 167.423 117.803Z" fill="#EBAA01"/>
<path d="M212.274 30.8992C207.808 38.3807 209.174 45.8933 211.165 53.4293C216.588 49.247 217.121 39.6101 212.274 30.8992Z" fill="#EBAA01"/>
<path d="M203.004 15.3096C200.483 23.5536 204.292 30.3738 207.855 37.0772C212.169 32.0817 209.691 20.5929 203.004 15.3096Z" fill="#EBAA01"/>
<path d="M209.963 70.3763C216.666 66.758 219.848 56.9422 216.891 48.8538C210.395 54.7012 210.605 62.6885 209.963 70.3763Z" fill="#EBAA01"/>
<path d="M200.534 22.4527C203.218 16.1228 197.302 5.41991 189.545 2.27246C191.179 7.50914 190.93 13.0065 195.625 16.757C197.485 18.2432 198.803 20.4063 200.53 22.4527H200.534Z" fill="#EBAA01"/>
<path d="M216.88 67.1045C209.228 71.1623 206.89 78.5038 204.689 85.7869C211.235 85.3239 217.417 75.9983 216.88 67.1045Z" fill="#EBAA01"/>
<path d="M182.368 110.768C190.004 112.721 198.142 108.535 203.047 99.7969C198.741 101.011 194.68 101.505 191.311 103.291C188.036 105.026 185.469 108.092 182.368 110.764V110.768Z" fill="#EBAA01"/>
<path d="M61.1926 75.7062V65.9915H66.5569V75.5739C66.5569 78.305 67.7161 79.4333 70.0967 79.4333C72.4773 79.4333 73.6638 78.305 73.6638 75.5739V65.9915H79.028V75.7062C79.028 80.9584 76.2156 84.028 70.0967 84.028C63.9778 84.028 61.1926 80.9545 61.1926 75.7062ZM81.7821 83.7129V65.9876H89.9899C94.6305 65.9876 98.1665 67.9562 98.1665 71.8701C98.1665 74.2083 96.7156 76.1225 94.4244 76.78C95.4085 77.3596 96.0465 78.3829 96.9178 79.9819L98.9173 83.709H93.0862L91.258 80.3748C90.5928 79.1687 89.8381 78.7213 88.0955 78.7213H87.1074L87.0802 83.709H81.7743L81.7821 83.7129ZM87.1502 70.4539L87.123 74.4184H89.9937C91.5614 74.4184 92.6622 73.6325 92.6622 72.372C92.6622 71.0336 91.5614 70.4539 90.0521 70.4539H87.1502ZM100.952 83.7129V65.9876H109.159C114.088 65.9876 117.048 67.9562 117.048 71.0025C117.048 72.9205 115.947 74.2316 114.236 74.9164C115.975 75.4416 117.192 76.5426 117.192 78.698C117.192 82.005 113.944 83.7129 109.159 83.7129H100.952ZM106.32 73.0022H109.451C110.961 73.0022 111.684 72.4264 111.684 71.3993C111.684 70.5084 110.988 69.9287 109.451 69.9287H106.32V73.0022ZM106.32 79.7757H109.451C110.961 79.7757 111.828 79.3827 111.828 78.3595C111.828 77.2585 110.957 76.9434 109.451 76.9434H106.32V79.7796V79.7757ZM122.677 68.8004C123.401 66.6217 125.431 65.5985 127.462 65.5985C129.492 65.5985 131.523 66.6217 132.246 68.8004L137.292 83.7129H131.811L130.912 80.7211H124.038L123.109 83.7129H117.628L122.673 68.8004H122.677ZM125.373 76.387H129.578L127.722 70.2166C127.664 70.0337 127.606 69.9559 127.489 69.9559C127.372 69.9559 127.314 70.0337 127.255 70.2166L125.369 76.387H125.373ZM138.451 83.7129V68.5904C138.451 66.6996 140.073 65.5713 141.784 65.5713C143.146 65.5713 144.336 65.9915 145.032 66.9874L151.933 76.885V65.9876H157.01V81.1101C157.01 83.0009 155.388 84.102 153.676 84.102C152.342 84.102 151.124 83.6818 150.428 82.6858L143.527 72.7883V83.7129H138.451Z" fill="#EBAA01"/>
<path d="M48.1499 95.4465C48.1499 91.9178 51.2074 89.1127 55.1285 89.1127C57.4663 89.1127 59.7069 90.2332 60.7066 92.1357L58.326 93.3495C57.6647 92.2991 56.6261 91.6299 55.0079 91.6299C52.7673 91.6299 51.149 93.2406 51.149 95.4504C51.149 97.6602 52.7478 99.2709 55.0079 99.2709C56.6261 99.2709 57.7075 98.6018 58.326 97.5513L60.7066 98.7652C59.7069 100.664 57.4663 101.788 55.1285 101.788C51.2113 101.788 48.1499 98.983 48.1499 95.4543V95.4465ZM60.6444 95.4465C60.6444 91.8633 63.663 89.1283 67.6424 89.1283C71.6218 89.1283 74.6598 91.8633 74.6598 95.4465C74.6598 99.0297 71.6218 101.765 67.6424 101.765C63.663 101.765 60.6444 99.0492 60.6444 95.4465ZM71.6374 95.4465C71.6374 93.2912 69.8986 91.626 67.6385 91.626C65.3784 91.626 63.6396 93.2912 63.6396 95.4465C63.6396 97.6019 65.3979 99.267 67.6385 99.267C69.8791 99.267 71.6374 97.6019 71.6374 95.4465ZM75.998 101.527V91.0113C75.998 89.7974 76.9783 89.0933 78.0752 89.0933C78.9543 89.0933 79.6545 89.3812 80.0941 90.0542L85.4116 98.3061V89.3461H88.1696V99.8623C88.1696 101.076 87.1893 101.761 86.1313 101.761C85.2716 101.761 84.5325 101.489 84.0929 100.819L78.7754 92.513V101.527H75.998ZM89.5505 95.4465C89.5505 91.9178 92.608 89.1127 96.5291 89.1127C98.8669 89.1127 101.108 90.2332 102.107 92.1357L99.7266 93.3495C99.0653 92.2991 98.0267 91.6299 96.4085 91.6299C94.1679 91.6299 92.5497 93.2406 92.5497 95.4504C92.5497 97.6602 94.1484 99.2709 96.4085 99.2709C98.0267 99.2709 99.1081 98.6018 99.7266 97.5513L102.107 98.7652C101.108 100.664 98.8669 101.788 96.5291 101.788C92.6119 101.788 89.5505 98.983 89.5505 95.4543V95.4465ZM105.562 101.527C103.702 101.527 102.982 100.66 102.982 99.2631V91.626C102.982 90.2332 103.702 89.3461 105.562 89.3461H112.68V91.7155H105.904V94.2482H112.26V96.6176H105.904V99.1503H112.801V101.52H105.565L105.562 101.527ZM114.656 101.527V89.3461H119.394C123.214 89.3461 125.552 90.9568 125.552 93.7814C125.552 96.6059 123.253 98.3061 119.554 98.3061H117.574V101.508L114.656 101.527ZM117.574 91.7894V95.8628H119.472C121.39 95.8628 122.549 95.1936 122.549 93.7814C122.549 92.3691 121.39 91.7894 119.472 91.7894H117.574ZM136.226 91.7894H132.266V101.527H129.349V91.7894H125.389V89.3461H136.222V91.7894H136.226ZM144.881 89.3461V101.527H141.964V89.3461H144.881ZM146.359 95.4465C146.359 91.9178 149.417 89.1127 153.338 89.1127C155.676 89.1127 157.916 90.2332 158.916 92.1357L156.535 93.3495C155.874 92.2991 154.835 91.6299 153.217 91.6299C150.977 91.6299 149.358 93.2406 149.358 95.4504C149.358 97.6602 150.957 99.2709 153.217 99.2709C154.835 99.2709 155.917 98.6018 156.535 97.5513L158.916 98.7652C157.916 100.664 155.676 101.788 153.338 101.788C149.421 101.788 146.359 98.983 146.359 95.4543V95.4465ZM162.37 101.527C160.511 101.527 159.791 100.66 159.791 99.2631V91.626C159.791 90.2332 160.511 89.3461 162.37 89.3461H169.489V91.7155H162.713V94.2482H169.069V96.6176H162.713V99.1503H169.609V101.52H162.374L162.37 101.527Z" fill="#EBAA01"/>
<path d="M58.8005 110.788L59.4074 110.519C59.5902 110.889 59.9947 111.087 60.551 111.087C61.1073 111.087 61.5235 110.85 61.5235 110.43C61.5235 109.959 61.045 109.873 60.4849 109.78C59.773 109.651 58.89 109.441 58.89 108.535C58.89 107.827 59.6019 107.29 60.5004 107.29C61.2201 107.29 61.8619 107.597 62.1459 108.185L61.5468 108.465C61.3562 108.115 60.9945 107.897 60.4732 107.897C59.9947 107.897 59.6058 108.154 59.6058 108.515C59.6058 108.975 60.1076 109.076 60.6794 109.181C61.3835 109.309 62.247 109.519 62.247 110.426C62.247 111.18 61.504 111.702 60.5549 111.702C59.7575 111.702 59.0884 111.375 58.8044 110.788H58.8005ZM62.9161 111.632V107.064H63.6163V108.854C63.8847 108.593 64.3009 108.426 64.7677 108.426C65.783 108.426 66.3548 109.041 66.3548 109.998V111.632H65.6546V110.06C65.6546 109.504 65.3162 109.025 64.6588 109.025C64.0442 109.025 63.6124 109.472 63.6124 110.079V111.632H62.9122H62.9161ZM66.7749 110.044C66.7749 109.146 67.4868 108.41 68.5254 108.41C69.564 108.41 70.2175 109.095 70.2175 109.97V110.227H67.4518C67.5296 110.764 67.9808 111.142 68.6032 111.142C69.0272 111.142 69.4084 110.974 69.6107 110.632L70.1475 110.881C69.8441 111.418 69.2878 111.706 68.6071 111.706C67.5568 111.706 66.771 111.017 66.771 110.052L66.7749 110.044ZM69.5212 109.815C69.494 109.317 69.0894 108.978 68.5176 108.978C67.9458 108.978 67.549 109.348 67.479 109.815H69.5173H69.5212ZM71.5401 107.064V111.632H70.8399V107.064H71.5401ZM73.1622 107.064V111.632H72.462V107.064H73.1622ZM76.4064 111.632C75.9202 111.632 75.7412 111.41 75.7412 111.044V107.94C75.7412 107.574 75.9163 107.352 76.4064 107.352H79.0049V107.947H76.4648V109.192H78.8648V109.788H76.4648V111.04H79.0555V111.636H76.4103L76.4064 111.632ZM79.3705 110.06C79.3705 109.161 80.1835 108.418 81.1755 108.426C81.8095 108.426 82.3969 108.687 82.7159 109.251L82.1363 109.543C81.9301 109.204 81.5839 109.025 81.1755 109.025C80.5686 109.025 80.0668 109.492 80.0668 110.06C80.0668 110.628 80.5686 111.107 81.1755 111.107C81.5839 111.107 81.9301 110.928 82.1363 110.589L82.7159 110.877C82.3969 111.445 81.8134 111.702 81.1755 111.702C80.1796 111.713 79.3705 110.966 79.3705 110.06ZM82.8559 110.06C82.8559 109.161 83.6689 108.426 84.7036 108.426C85.7384 108.426 86.5397 109.165 86.5397 110.06C86.5397 110.955 85.7423 111.71 84.7036 111.71C83.665 111.71 82.8559 110.97 82.8559 110.06ZM85.8395 110.064C85.8395 109.488 85.3455 109.017 84.7036 109.017C84.0618 109.017 83.5522 109.488 83.5522 110.064C83.5522 110.64 84.054 111.107 84.7036 111.107C85.3533 111.107 85.8395 110.636 85.8395 110.064ZM89.6867 109.943H87.2438V109.367H89.6867V109.943ZM96.5096 109.982V111.632H95.8094V110.087C95.8094 109.519 95.4982 109.021 94.8486 109.021C94.199 109.021 93.9033 109.5 93.9033 110.076V111.636H93.2032V110.076C93.2032 109.5 92.8842 109.021 92.2423 109.021C91.6005 109.021 91.3049 109.519 91.3049 110.087V111.632H90.6047V109.99C90.6047 109.115 91.1571 108.41 92.1918 108.41C92.8842 108.41 93.386 108.729 93.561 109.216C93.7516 108.729 94.2379 108.41 94.8953 108.41C95.9417 108.41 96.5057 109.115 96.5057 109.982H96.5096ZM96.9375 110.06C96.9375 109.165 97.7272 108.426 98.7813 108.426C99.8355 108.426 100.625 109.13 100.625 110.06V111.632H99.96V111.083C99.6994 111.468 99.2403 111.71 98.6763 111.71C97.6727 111.71 96.9414 110.97 96.9414 110.06H96.9375ZM99.925 110.064C99.925 109.488 99.431 109.017 98.7813 109.017C98.1317 109.017 97.6377 109.488 97.6377 110.064C97.6377 110.64 98.1395 111.107 98.7813 111.107C99.4232 111.107 99.925 110.636 99.925 110.064ZM101.271 111.632V109.768C101.271 109.01 101.749 108.438 102.656 108.438C102.874 108.438 103.099 108.477 103.278 108.55V109.177C103.111 109.087 102.912 109.045 102.722 109.045C102.255 109.045 101.975 109.332 101.975 109.792V111.632H101.275H101.271ZM103.22 110.06C103.22 109.165 104.009 108.426 105.064 108.426C106.118 108.426 106.907 109.13 106.907 110.06V111.632H106.242V111.083C105.982 111.468 105.523 111.71 104.959 111.71C103.955 111.71 103.224 110.97 103.224 110.06H103.22ZM106.203 110.064C106.203 109.488 105.709 109.017 105.06 109.017C104.41 109.017 103.916 109.488 103.916 110.064C103.916 110.64 104.418 111.107 105.06 111.107C105.702 111.107 106.203 110.636 106.203 110.064ZM107.806 110.507V109.052H107.121V108.504H107.806V107.695H108.506V108.504H109.833V109.052H108.506V110.488C108.506 110.896 108.775 111.138 109.191 111.138C109.416 111.138 109.665 111.06 109.833 110.951V111.531C109.658 111.64 109.381 111.71 109.129 111.71C108.269 111.71 107.81 111.219 107.81 110.503L107.806 110.507ZM110.513 111.632V107.064H111.214V108.854C111.482 108.593 111.898 108.426 112.365 108.426C113.38 108.426 113.952 109.041 113.952 109.998V111.632H113.252V110.06C113.252 109.504 112.913 109.025 112.256 109.025C111.641 109.025 111.21 109.472 111.21 110.079V111.632H110.51H110.513ZM114.372 110.06C114.372 109.161 115.185 108.426 116.22 108.426C117.255 108.426 118.056 109.165 118.056 110.06C118.056 110.955 117.259 111.71 116.22 111.71C115.181 111.71 114.372 110.97 114.372 110.06ZM117.36 110.064C117.36 109.488 116.866 109.017 116.224 109.017C115.582 109.017 115.072 109.488 115.072 110.064C115.072 110.64 115.574 111.107 116.224 111.107C116.873 111.107 117.36 110.636 117.36 110.064ZM119.188 110.114V111.628H118.488V110.048C118.488 109.134 119.087 108.418 120.203 108.418C121.32 108.418 121.946 109.134 121.946 110.041V111.624H121.246V110.114C121.246 109.527 120.892 109.021 120.203 109.021C119.515 109.021 119.188 109.527 119.188 110.107V110.114ZM125.295 107.87C125.435 107.469 125.781 107.274 126.178 107.274C126.575 107.274 126.925 107.465 127.069 107.87L128.36 111.632H127.625L127.279 110.585L125.077 110.593L124.731 111.636H124.004L125.295 107.873V107.87ZM125.276 109.994H127.088L126.454 108.06C126.404 107.928 126.322 107.862 126.186 107.862C126.046 107.862 125.96 107.924 125.918 108.06L125.276 109.994ZM128.598 111.005L129.135 110.737C129.31 111.048 129.594 111.165 129.975 111.165C130.356 111.165 130.675 111.017 130.675 110.745C130.675 110.087 128.691 110.585 128.691 109.391C128.691 108.842 129.228 108.438 129.983 108.438C130.624 108.438 131.064 108.706 131.282 109.068L130.745 109.344C130.597 109.068 130.313 108.975 129.998 108.975C129.683 108.975 129.391 109.126 129.391 109.375C129.391 110.013 131.375 109.546 131.375 110.729C131.375 111.324 130.741 111.702 130.006 111.702C129.364 111.702 128.87 111.472 128.602 111.005H128.598ZM131.885 107.465C131.885 107.235 132.091 107.045 132.344 107.045C132.597 107.045 132.795 107.235 132.795 107.465C132.795 107.695 132.597 107.881 132.344 107.881C132.091 107.881 131.885 107.695 131.885 107.465ZM132.698 108.5V111.628H131.998V108.5H132.698ZM133.262 110.06C133.262 109.165 134.051 108.426 135.106 108.426C136.16 108.426 136.949 109.13 136.949 110.06V111.632H136.284V111.083C136.024 111.468 135.565 111.71 135.001 111.71C133.997 111.71 133.266 110.97 133.266 110.06H133.262ZM136.245 110.064C136.245 109.488 135.751 109.017 135.102 109.017C134.452 109.017 133.958 109.488 133.958 110.064C133.958 110.64 134.46 111.107 135.102 111.107C135.744 111.107 136.245 110.636 136.245 110.064ZM139.462 111.632V107.352H140.968C142.24 107.352 143.064 107.87 143.064 108.866C143.064 109.862 142.224 110.398 141.003 110.398H140.186V111.632H139.466H139.462ZM140.182 107.951V109.792H140.987C141.765 109.792 142.321 109.515 142.321 108.866C142.321 108.216 141.785 107.951 140.987 107.951H140.182ZM143.216 110.06C143.216 109.165 144.006 108.426 145.06 108.426C146.114 108.426 146.904 109.13 146.904 110.06V111.632H146.239V111.083C145.978 111.468 145.519 111.71 144.955 111.71C143.951 111.71 143.22 110.97 143.22 110.06H143.216ZM146.204 110.064C146.204 109.488 145.71 109.017 145.06 109.017C144.41 109.017 143.916 109.488 143.916 110.064C143.916 110.64 144.418 111.107 145.06 111.107C145.702 111.107 146.204 110.636 146.204 110.064ZM147.332 110.06C147.332 109.161 148.145 108.418 149.137 108.426C149.771 108.426 150.358 108.687 150.677 109.251L150.097 109.543C149.891 109.204 149.545 109.025 149.137 109.025C148.53 109.025 148.028 109.492 148.028 110.06C148.028 110.628 148.53 111.107 149.137 111.107C149.545 111.107 149.891 110.928 150.097 110.589L150.677 110.877C150.358 111.445 149.775 111.702 149.137 111.702C148.141 111.713 147.332 110.966 147.332 110.06ZM151.062 107.465C151.062 107.235 151.268 107.045 151.521 107.045C151.774 107.045 151.972 107.235 151.972 107.465C151.972 107.695 151.774 107.881 151.521 107.881C151.268 107.881 151.062 107.695 151.062 107.465ZM151.875 108.5V111.628H151.175V108.5H151.875ZM153.027 111.632V109.052H152.369V108.504H153.027V108.177C153.027 107.512 153.486 107.014 154.353 107.014C154.586 107.014 154.804 107.053 154.979 107.127V107.745C154.816 107.656 154.614 107.605 154.415 107.605C153.983 107.605 153.723 107.776 153.723 108.193V108.5H155.839V111.628H155.139V109.048H153.719V111.628H153.019L153.027 111.632ZM156.306 110.06C156.306 109.161 157.119 108.418 158.111 108.426C158.745 108.426 159.332 108.687 159.651 109.251L159.072 109.543C158.865 109.204 158.519 109.025 158.111 109.025C157.504 109.025 157.002 109.492 157.002 110.06C157.002 110.628 157.504 111.107 158.111 111.107C158.519 111.107 158.865 110.928 159.072 110.589L159.651 110.877C159.332 111.445 158.749 111.702 158.111 111.702C157.115 111.713 156.306 110.966 156.306 110.06ZM68.6965 117.724C68.6965 116.83 69.4862 116.09 70.5404 116.09C71.5945 116.09 72.3842 116.795 72.3842 117.724V119.296H71.719V118.748C71.4584 119.133 70.9994 119.374 70.4353 119.374C69.4317 119.374 68.7004 118.631 68.7004 117.724H68.6965ZM71.6801 117.732C71.6801 117.156 71.1861 116.686 70.5365 116.686C69.8869 116.686 69.3928 117.156 69.3928 117.732C69.3928 118.308 69.8946 118.775 70.5365 118.775C71.1783 118.775 71.6801 118.304 71.6801 117.732ZM73.7262 117.783V119.296H73.026V117.717C73.026 116.802 73.6251 116.086 74.7415 116.086C75.8579 116.086 76.4842 116.802 76.4842 117.709V119.292H75.784V117.783C75.784 117.195 75.43 116.689 74.7415 116.689C74.053 116.689 73.7262 117.195 73.7262 117.775V117.783ZM76.916 117.736C76.916 116.783 77.6784 116.086 78.7209 116.086C79.1877 116.086 79.6117 116.273 79.8918 116.553L79.8996 114.725H80.5998V117.732C80.5998 118.658 79.8023 119.366 78.7559 119.366C77.7095 119.366 76.9121 118.631 76.9121 117.732L76.916 117.736ZM79.8996 117.732C79.8996 117.164 79.4055 116.689 78.7559 116.689C78.1063 116.689 77.6123 117.16 77.6123 117.732C77.6123 118.304 78.1141 118.779 78.7559 118.779C79.3978 118.779 79.8996 118.308 79.8996 117.732ZM86.1235 115.616H84.6686V119.296H83.949V115.616H82.5019V115.017H86.1235V115.616ZM86.5125 119.296V114.729H87.2127V116.518C87.4811 116.258 87.8973 116.09 88.3641 116.09C89.3794 116.09 89.9512 116.705 89.9512 117.662V119.296H89.251V117.724C89.251 117.168 88.9126 116.689 88.2552 116.689C87.6406 116.689 87.2088 117.137 87.2088 117.744V119.296H86.5086H86.5125ZM90.3713 117.713C90.3713 116.81 91.0831 116.079 92.1218 116.079C93.1604 116.079 93.8139 116.763 93.8139 117.639V117.896H91.0481C91.1259 118.432 91.5772 118.81 92.1996 118.81C92.6236 118.81 93.0048 118.643 93.2071 118.3L93.7439 118.549C93.4405 119.086 92.8842 119.374 92.2034 119.374C91.1532 119.374 90.3674 118.685 90.3674 117.72L90.3713 117.713ZM93.1137 117.483C93.0865 116.985 92.6819 116.647 92.1101 116.647C91.5383 116.647 91.1415 117.016 91.0715 117.483H93.1098H93.1137ZM95.8367 119.304L96.5018 115.511C96.5641 115.141 96.8636 114.943 97.2448 114.943C97.5832 114.943 97.875 115.09 97.98 115.429L98.8903 118.413C98.9058 118.471 98.9175 118.491 98.9525 118.491C98.9953 118.491 99.0031 118.471 99.0225 118.413L99.925 115.444C100.022 115.106 100.326 114.954 100.664 114.954C101.038 114.954 101.329 115.16 101.391 115.534L101.991 119.304H101.263L100.742 115.74C100.726 115.651 100.699 115.592 100.621 115.592C100.559 115.592 100.516 115.639 100.493 115.721L99.5204 118.786C99.4426 119.043 99.217 119.172 98.9486 119.172C98.6958 119.172 98.4546 119.043 98.3768 118.802L97.4082 115.717C97.381 115.627 97.3459 115.588 97.2798 115.588C97.2137 115.588 97.167 115.635 97.1515 115.736L96.5641 119.312H95.8289L95.8367 119.304ZM102.555 115.133C102.555 114.904 102.761 114.713 103.014 114.713C103.266 114.713 103.465 114.904 103.465 115.133C103.465 115.363 103.266 115.55 103.014 115.55C102.761 115.55 102.555 115.363 102.555 115.133ZM103.368 116.168V119.296H102.667V116.168H103.368ZM103.932 117.736C103.932 116.783 104.694 116.086 105.737 116.086C106.203 116.086 106.627 116.273 106.907 116.553L106.915 114.725H107.615V117.732C107.615 118.658 106.818 119.366 105.772 119.366C104.725 119.366 103.928 118.631 103.928 117.732L103.932 117.736ZM106.915 117.732C106.915 117.164 106.421 116.689 105.772 116.689C105.122 116.689 104.628 117.16 104.628 117.732C104.628 118.304 105.13 118.779 105.772 118.779C106.413 118.779 106.915 118.308 106.915 117.732ZM108.043 117.736C108.043 116.783 108.806 116.086 109.848 116.086C110.315 116.086 110.739 116.273 111.019 116.553L111.027 114.725H111.727V117.732C111.727 118.658 110.93 119.366 109.883 119.366C108.837 119.366 108.039 118.631 108.039 117.732L108.043 117.736ZM111.031 117.732C111.031 117.164 110.537 116.689 109.887 116.689C109.237 116.689 108.743 117.16 108.743 117.732C108.743 118.304 109.245 118.779 109.887 118.779C110.529 118.779 111.031 118.308 111.031 117.732ZM113.217 114.729V119.296H112.517V114.729H113.217ZM113.781 117.713C113.781 116.81 114.493 116.079 115.531 116.079C116.57 116.079 117.224 116.763 117.224 117.639V117.896H114.458C114.536 118.432 114.987 118.81 115.609 118.81C116.033 118.81 116.414 118.643 116.617 118.3L117.154 118.549C116.85 119.086 116.294 119.374 115.613 119.374C114.563 119.374 113.777 118.685 113.777 117.72L113.781 117.713ZM116.527 117.483C116.5 116.985 116.095 116.647 115.524 116.647C114.952 116.647 114.555 117.016 114.485 117.483H116.523H116.527ZM120.168 119.296C119.682 119.296 119.503 119.074 119.503 118.709V115.604C119.503 115.238 119.678 115.017 120.168 115.017H122.767V115.612H120.227V116.857H122.627V117.452H120.227V118.705H122.817V119.3H120.172L120.168 119.296ZM123.128 117.724C123.128 116.83 123.918 116.09 124.972 116.09C126.026 116.09 126.816 116.795 126.816 117.724V119.296H126.151V118.748C125.89 119.133 125.431 119.374 124.867 119.374C123.864 119.374 123.132 118.631 123.132 117.724H123.128ZM126.116 117.732C126.116 117.156 125.622 116.686 124.972 116.686C124.323 116.686 123.829 117.156 123.829 117.732C123.829 118.308 124.33 118.775 124.972 118.775C125.614 118.775 126.116 118.304 126.116 117.732ZM127.298 118.67L127.835 118.401C128.01 118.713 128.294 118.829 128.676 118.829C129.057 118.829 129.376 118.681 129.376 118.409C129.376 117.752 127.392 118.25 127.392 117.055C127.392 116.507 127.929 116.102 128.683 116.102C129.325 116.102 129.765 116.37 129.983 116.732L129.446 117.008C129.298 116.732 129.014 116.639 128.699 116.639C128.384 116.639 128.092 116.791 128.092 117.04C128.092 117.678 130.076 117.211 130.076 118.394C130.076 118.989 129.442 119.366 128.707 119.366C128.065 119.366 127.571 119.137 127.302 118.67H127.298ZM130.815 118.172V116.717H130.13V116.168H130.815V115.359H131.515V116.168H132.842V116.717H131.515V118.152C131.515 118.561 131.784 118.802 132.2 118.802C132.425 118.802 132.674 118.724 132.842 118.615V119.195C132.667 119.304 132.39 119.374 132.138 119.374C131.278 119.374 130.819 118.884 130.819 118.168L130.815 118.172ZM135.619 119.296C135.187 119.296 134.969 119.074 134.969 118.798C134.969 118.6 135.067 118.421 135.273 118.261L136.677 117.129C137.066 116.81 137.268 116.573 137.268 116.215C137.268 115.834 136.907 115.557 136.444 115.557C135.981 115.557 135.596 115.814 135.386 116.203L134.829 115.923C135.141 115.343 135.724 114.939 136.494 114.939C137.37 114.939 137.992 115.483 137.992 116.16C137.992 116.678 137.739 117.075 137.292 117.433L135.895 118.557C135.837 118.608 135.81 118.627 135.81 118.666C135.81 118.685 135.825 118.697 135.845 118.697H138.116V119.296H135.619ZM138.482 117.149C138.482 115.896 139.252 114.939 140.38 114.939C141.508 114.939 142.279 115.896 142.279 117.149C142.279 118.401 141.508 119.378 140.38 119.378C139.252 119.378 138.482 118.39 138.482 117.149ZM141.54 117.149C141.54 116.273 141.046 115.604 140.38 115.604C139.715 115.604 139.221 116.273 139.221 117.149C139.221 118.024 139.715 118.709 140.38 118.709C141.046 118.709 141.54 118.012 141.54 117.149ZM143.395 119.296C142.963 119.296 142.745 119.074 142.745 118.798C142.745 118.6 142.843 118.421 143.049 118.261L144.453 117.129C144.842 116.81 145.044 116.573 145.044 116.215C145.044 115.834 144.683 115.557 144.22 115.557C143.757 115.557 143.372 115.814 143.162 116.203L142.605 115.923C142.917 115.343 143.5 114.939 144.27 114.939C145.146 114.939 145.768 115.483 145.768 116.16C145.768 116.678 145.515 117.075 145.068 117.433L143.671 118.557C143.613 118.608 143.586 118.627 143.586 118.666C143.586 118.685 143.601 118.697 143.621 118.697H145.892V119.296H143.395ZM148.312 119.296V118.491H146.519C146.095 118.491 145.861 118.285 145.861 118.016C145.861 117.876 145.916 117.717 146.044 117.561L147.822 115.301C147.989 115.09 148.16 114.935 148.491 114.935C148.787 114.935 149.004 115.122 149.004 115.413V117.931H149.767V118.487H149.004V119.292H148.304L148.312 119.296ZM148.312 117.934V115.783C148.312 115.744 148.296 115.713 148.25 115.713C148.203 115.713 148.18 115.752 148.129 115.81L146.561 117.837C146.542 117.864 146.534 117.884 146.534 117.899C146.534 117.938 146.577 117.938 146.62 117.938H148.312V117.934Z" fill="#EBAA01"/>
</g>
<defs>
<clipPath id="clip0_351_6740">
<rect width="218" height="120" fill="white"/>
</clipPath>
</defs>
</svg>
