<svg width="218" height="120" viewBox="0 0 218 120" fill="none" xmlns="http://www.w3.org/2000/svg">
<g clip-path="url(#clip0_351_6698)">
<path d="M81.0039 58.3349V20.4449C80.9223 20.4449 80.8367 20.5188 80.755 20.5966L68.0816 26.7087L62.4956 16.2159L78.0009 8.81996C80.6694 7.53608 83.5869 6.55566 86.0881 6.55566C90.3398 6.55566 93.1756 9.12342 93.1756 13.652V58.3349H81.0039Z" fill="#EBAA01"/>
<path d="M98.5007 40.9674L100.558 39.9208C100.971 40.6328 101.617 40.9324 102.597 40.9324C103.499 40.9324 104.067 40.6133 104.067 40.0959C104.067 38.6759 98.7302 39.9014 98.7302 36.5088C98.7302 34.9293 100.259 33.6843 102.655 33.6843C104.736 33.6843 105.989 34.5713 106.58 35.5829L104.518 36.6294C104.203 35.9914 103.499 35.6879 102.714 35.6879C102.029 35.6879 101.515 35.9914 101.515 36.4505C101.515 37.8705 106.852 36.7345 106.852 40.0375C106.852 41.8116 104.95 42.9516 102.733 42.9516C100.714 42.9516 99.2982 42.2785 98.4968 40.9635L98.5007 40.9674ZM108.607 39.2244V36.0458H106.821V33.9138H108.607V31.6768H111.392V33.9138H114.827V36.0458H111.392V39.1544C111.392 40.1309 112.042 40.6989 113.061 40.6989C113.629 40.6989 114.356 40.5394 114.827 40.271V42.5275C114.337 42.8115 113.493 42.9555 112.808 42.9555C110.003 42.9555 108.611 41.4265 108.611 39.2244H108.607ZM99.5199 58.4087V46.4531H104.168C107.914 46.4531 110.209 48.0326 110.209 50.8066C110.209 53.5805 107.953 55.2457 104.324 55.2457H102.383V58.3892L99.5199 58.4087ZM102.387 48.8535V52.8491H104.25C106.133 52.8491 107.273 52.1916 107.273 50.8066C107.273 49.4215 106.137 48.8535 104.25 48.8535H102.387ZM113.668 56.0121H119.829V58.4087H113.337C111.513 58.4087 110.805 57.5567 110.805 56.1872V46.4531H113.668V56.0082V56.0121ZM124.163 48.1415C124.614 46.846 125.793 46.2235 127.026 46.2235C128.259 46.2235 129.457 46.846 129.908 48.1415L133.401 58.4087H130.48L129.714 55.9577L124.357 55.9732L123.591 58.4048H120.669L124.163 48.1377V48.1415ZM125.104 53.6467H128.967L127.477 48.9041C127.399 48.6551 127.282 48.5501 127.045 48.5501C126.831 48.5501 126.691 48.6551 126.613 48.9041L125.104 53.6467ZM132.872 52.4406C132.872 48.978 135.875 46.2235 139.719 46.2235C142.014 46.2235 144.211 47.3245 145.192 49.1881L142.858 50.3786C142.212 49.3476 141.189 48.6901 139.602 48.6901C137.404 48.6901 135.817 50.2697 135.817 52.4367C135.817 54.6037 137.385 56.1833 139.602 56.1833C141.189 56.1833 142.251 55.5258 142.858 54.4948L145.192 55.6853C144.211 57.5489 142.014 58.6499 139.719 58.6499C135.875 58.6499 132.872 55.8954 132.872 52.4328V52.4406ZM148.292 58.4087C146.468 58.4087 145.76 57.5567 145.76 56.1872V48.6901C145.76 47.3206 146.468 46.4531 148.292 46.4531H155.274V48.7796H148.623V51.2657H154.862V53.5922H148.623V56.0783H155.391V58.4048H148.288L148.292 58.4087Z" fill="#EBAA01"/>
<path d="M51.2497 116.226C49.7988 117.751 41.5482 112.558 38.9108 108.076C38.9108 108.076 37.4443 105.609 37.1292 102.154C37.102 101.835 37.1292 101.508 37.1759 101.193C37.207 100.991 37.3199 100.804 37.5066 100.318C37.8761 100.438 38.2807 100.52 38.6697 100.625C38.6697 100.625 39.2026 100.812 39.7277 101.084C45.2553 103.963 48.7368 109.776 48.7368 109.776C50.4134 112.577 52.0783 115.355 51.2497 116.226Z" fill="#EBAA01"/>
<path d="M27.5132 12.8818C27.9566 4.71163 38.1911 -1.80892 47.5464 0.451483C41.9449 6.56353 36.6001 12.4811 27.5132 12.8818Z" fill="#EBAA01"/>
<path d="M15.7465 85.9849C9.88824 78.1843 10.3706 69.4773 16.7229 64.2756C20.6634 71.6171 17.4736 78.4489 15.7465 85.9849Z" fill="#EBAA01"/>
<path d="M10.1606 70.8702C6.62078 61.8247 9.42543 53.4094 16.8513 50.1492C18.6329 58.3193 13.751 64.1085 10.1606 70.8702Z" fill="#EBAA01"/>
<path d="M11.8525 38.4192C12.7356 29.5566 20.3482 22.9699 27.6224 24.5572C26.5215 29.6966 20.9083 34.6804 11.8525 38.4192Z" fill="#EBAA01"/>
<path d="M8.94301 54.5612C7.65155 45.1967 13.183 36.8748 20.7179 36.762C20.0605 44.8776 14.1244 49.2273 8.94301 54.5612Z" fill="#EBAA01"/>
<path d="M38.203 14.5857C33.4612 21.437 26.0508 22.1684 19.0801 24.172C20.3404 17.4647 31.065 10.6329 38.203 14.5857Z" fill="#EBAA01"/>
<path d="M20.4649 78.0754C25.9108 84.1213 24.8528 91.4667 25.0511 98.742C17.4463 94.3613 15.3613 82.6157 20.4649 78.0754Z" fill="#EBAA01"/>
<path d="M22.8182 99.925C15.2134 99.9678 7.77196 93.2488 6.07983 84.7947C14.3771 86.7166 18.7844 93.0271 22.8182 99.925Z" fill="#EBAA01"/>
<path d="M37.5688 109.457C28.8125 105.815 25.0276 98.6486 27.2487 90.0427C34.3479 94.6102 35.2037 102.014 37.5688 109.457Z" fill="#EBAA01"/>
<path d="M50.5766 117.803C45.0452 122.616 32.6362 118.818 28.6218 113.246C36.7829 110.608 43.6915 114.262 50.5766 117.803Z" fill="#EBAA01"/>
<path d="M5.72974 30.8987C10.1954 38.3802 8.83002 45.8928 6.83837 53.4288C1.4158 49.2465 0.882875 39.6096 5.72974 30.8987Z" fill="#EBAA01"/>
<path d="M14.9954 15.3093C17.5161 23.5534 13.7078 30.3735 10.1446 37.0769C5.83069 32.0815 8.30858 20.5927 14.9954 15.3093Z" fill="#EBAA01"/>
<path d="M8.03655 70.3763C1.33418 66.758 -1.84779 56.9422 1.10856 48.8538C7.60476 54.7012 7.39471 62.6885 8.03655 70.3763Z" fill="#EBAA01"/>
<path d="M17.4654 22.4522C14.7814 16.1223 20.698 5.41942 28.4545 2.27197C26.8208 7.50865 27.0697 13.006 22.3746 16.7565C20.5152 18.2427 19.1965 20.4058 17.4693 22.4522H17.4654Z" fill="#EBAA01"/>
<path d="M1.11999 67.1042C8.7715 71.1621 11.1094 78.5036 13.3111 85.7867C6.76429 85.3237 0.583179 75.998 1.11999 67.1042Z" fill="#EBAA01"/>
<path d="M35.6357 110.767C27.9998 112.721 19.862 108.534 14.9568 99.7961C19.263 101.01 23.324 101.504 26.6927 103.29C29.9681 105.025 32.5354 108.091 35.6357 110.764V110.767Z" fill="#EBAA01"/>
<path d="M166.75 116.227C168.201 117.752 176.451 112.558 179.088 108.076C179.088 108.076 180.555 105.609 180.87 102.154C180.897 101.835 180.87 101.509 180.823 101.193C180.792 100.991 180.679 100.804 180.493 100.318C180.123 100.439 179.719 100.52 179.33 100.625C179.33 100.625 178.797 100.812 178.272 101.085C172.744 103.964 169.263 109.776 169.263 109.776C167.586 112.577 165.921 115.355 166.75 116.227Z" fill="#EBAA01"/>
<path d="M190.486 12.8818C190.043 4.71163 179.808 -1.80892 170.453 0.451483C176.054 6.56353 181.399 12.4811 190.486 12.8818Z" fill="#EBAA01"/>
<path d="M202.254 85.9854C208.112 78.1848 207.629 69.4778 201.277 64.2761C197.337 71.6176 200.526 78.4494 202.254 85.9854Z" fill="#EBAA01"/>
<path d="M207.839 70.8707C211.379 61.8252 208.575 53.4099 201.149 50.1497C199.367 58.3198 204.249 64.1089 207.839 70.8707Z" fill="#EBAA01"/>
<path d="M206.147 38.4195C205.264 29.5568 197.651 22.9701 190.377 24.5574C191.478 29.6969 197.091 34.6807 206.147 38.4195Z" fill="#EBAA01"/>
<path d="M209.057 54.5612C210.348 45.1967 204.817 36.8748 197.282 36.762C197.939 44.8776 203.875 49.2273 209.057 54.5612Z" fill="#EBAA01"/>
<path d="M179.797 14.5859C184.538 21.4372 191.949 22.1686 198.92 24.1723C197.659 17.465 186.935 10.6332 179.797 14.5859Z" fill="#EBAA01"/>
<path d="M197.535 78.0757C192.089 84.1216 193.147 91.4669 192.948 98.7423C200.553 94.3615 202.638 82.616 197.535 78.0757Z" fill="#EBAA01"/>
<path d="M195.182 99.925C202.786 99.9678 210.228 93.2488 211.92 84.7947C203.623 86.7166 199.216 93.0271 195.182 99.925Z" fill="#EBAA01"/>
<path d="M180.435 109.457C189.191 105.815 192.976 98.6491 190.755 90.0432C183.655 94.6107 182.8 102.014 180.435 109.457Z" fill="#EBAA01"/>
<path d="M167.423 117.803C172.954 122.616 185.363 118.818 189.378 113.246C181.217 110.608 174.308 114.262 167.423 117.803Z" fill="#EBAA01"/>
<path d="M212.274 30.8992C207.808 38.3807 209.173 45.8933 211.165 53.4293C216.588 49.247 217.121 39.6101 212.274 30.8992Z" fill="#EBAA01"/>
<path d="M203.004 15.3096C200.483 23.5536 204.292 30.3738 207.855 37.0772C212.169 32.0817 209.691 20.5929 203.004 15.3096Z" fill="#EBAA01"/>
<path d="M209.963 70.3763C216.666 66.758 219.848 56.9422 216.891 48.8538C210.395 54.7012 210.605 62.6885 209.963 70.3763Z" fill="#EBAA01"/>
<path d="M200.534 22.4527C203.218 16.1228 197.301 5.41991 189.545 2.27246C191.179 7.50914 190.93 13.0065 195.625 16.757C197.484 18.2432 198.803 20.4063 200.53 22.4527H200.534Z" fill="#EBAA01"/>
<path d="M216.88 67.1045C209.228 71.1623 206.89 78.5038 204.688 85.7869C211.235 85.3239 217.416 75.9983 216.88 67.1045Z" fill="#EBAA01"/>
<path d="M182.368 110.768C190.004 112.721 198.142 108.535 203.047 99.7969C198.741 101.011 194.68 101.505 191.311 103.291C188.036 105.026 185.468 108.092 182.368 110.764V110.768Z" fill="#EBAA01"/>
<path d="M40.7744 83.7129V65.9876H48.9822C53.6228 65.9876 57.1588 67.9562 57.1588 71.8701C57.1588 74.2083 55.7079 76.1225 53.4167 76.78C54.4047 77.3596 55.0388 78.3829 55.9101 79.9819L57.9096 83.709H52.0785L50.2503 80.3748C49.5851 79.1687 48.8304 78.7213 47.0878 78.7213H46.0997L46.0725 83.709H40.7666L40.7744 83.7129ZM46.1425 70.4539L46.1114 74.4184H48.9822C50.5498 74.4184 51.6507 73.6325 51.6507 72.372C51.6507 71.0336 50.5498 70.4539 49.0405 70.4539H46.1386H46.1425ZM64.2968 83.7129C60.9904 83.7129 59.6561 82.1372 59.6561 79.6434V70.061C59.6561 67.5671 60.9904 65.9915 64.2968 65.9915H74.3329V70.3255H65.0243V72.6871H73.6677V77.0212H65.0243V79.3827H74.4768V83.7168H64.2968V83.7129ZM75.3443 74.8658C75.3443 69.6953 79.7516 65.6219 85.6682 65.6219C89.1497 65.6219 92.5689 67.2481 93.9926 70.2166L89.6126 72.4225C88.7996 71.0842 87.6987 70.1894 85.4348 70.1894C82.6807 70.1894 80.8524 72.158 80.8524 74.9397C80.8524 77.7215 82.7079 79.7173 85.6682 79.7173C87.2358 79.7173 88.22 79.585 89.0602 78.9042L89.0291 75.2549H94.2494V80.5071C92.7401 82.608 89.6087 84.1058 85.6643 84.1058C79.806 84.1058 75.3404 80.0363 75.3404 74.8619L75.3443 74.8658ZM101.648 65.9915V83.7168H96.2838V65.9915H101.648ZM103.391 74.8658C103.391 69.5863 107.798 65.6219 113.715 65.6219C119.631 65.6219 124.039 69.5863 124.039 74.8658C124.039 80.1453 119.631 84.1097 113.715 84.1097C107.798 84.1097 103.391 80.1453 103.391 74.8658ZM118.526 74.8658C118.526 72.2397 116.438 70.2166 113.711 70.2166C110.984 70.2166 108.895 72.2397 108.895 74.8658C108.895 77.4919 110.984 79.515 113.711 79.515C116.438 79.515 118.526 77.4919 118.526 74.8658ZM125.633 83.7129V68.5904C125.633 66.6996 127.256 65.5713 128.967 65.5713C130.329 65.5713 131.519 65.9915 132.215 66.9874L139.116 76.885V65.9876H144.192V81.1101C144.192 83.0009 142.57 84.102 140.859 84.102C139.524 84.102 138.307 83.6818 137.611 82.6858L130.71 72.7883V83.7129H125.633ZM149.821 68.8004C150.545 66.6217 152.575 65.5985 154.606 65.5985C156.636 65.5985 158.667 66.6217 159.39 68.8004L164.436 83.7129H158.955L158.056 80.7211H151.183L150.253 83.7129H144.772L149.817 68.8004H149.821ZM152.517 76.387H156.722L154.866 70.2166C154.808 70.0337 154.75 69.9559 154.633 69.9559C154.516 69.9559 154.458 70.0337 154.4 70.2166L152.513 76.387H152.517ZM171.107 79.2504H179.75V83.7129H170.383C167.077 83.7129 165.743 82.1372 165.743 79.6434V65.9915H171.107V79.2504Z" fill="#EBAA01"/>
<path d="M49.1453 95.2484C49.1453 92.4044 51.6115 90.1401 54.7701 90.1401C56.6567 90.1401 58.4617 91.0466 59.2669 92.5756L57.3491 93.5521C56.8162 92.7079 55.9799 92.1671 54.6729 92.1671C52.8679 92.1671 51.5609 93.4665 51.5609 95.2445C51.5609 97.0225 52.8485 98.3219 54.6729 98.3219C55.9799 98.3219 56.8473 97.7811 57.3491 96.9369L59.2669 97.9134C58.4617 99.4463 56.6567 100.349 54.7701 100.349C51.6115 100.349 49.1453 98.0885 49.1453 95.2406V95.2484ZM60.1343 100.154V90.3346H62.4878V94.2874H67.4358V90.3346H69.7892V100.154H67.4358V96.2444H62.4878V100.154H60.1343ZM73.4652 91.7196C73.8347 90.6536 74.8033 90.144 75.8186 90.144C76.8339 90.144 77.818 90.6536 78.1876 91.7196L81.0544 100.154H78.6543L78.0242 98.139L73.6247 98.1546L72.9945 100.154H70.5944L73.4613 91.7196H73.4652ZM74.2393 96.2405H77.4135L76.1881 92.346C76.122 92.1398 76.0247 92.0542 75.8341 92.0542C75.6552 92.0542 75.5424 92.1398 75.4802 92.346L74.2393 96.2405ZM81.4084 100.154L82.8749 91.7041C83.0694 90.6809 83.8591 90.144 84.9522 90.144C85.9208 90.144 86.7415 90.5253 86.9983 91.4707L88.8188 97.5983C88.8188 97.6411 88.8343 97.6411 88.8343 97.6411C88.8499 97.6411 88.8654 97.6411 88.8654 97.5983L90.6548 91.5135C90.9271 90.5642 91.7673 90.1401 92.7515 90.1401C93.8329 90.1401 94.6031 90.6964 94.7665 91.7469L96.1046 100.15H93.7201L92.6737 92.4472C92.6737 92.3733 92.6581 92.3305 92.592 92.3305C92.5453 92.3305 92.5103 92.3616 92.4948 92.4199L90.4798 98.9288C90.2542 99.6719 89.6084 100.038 88.8343 100.038C88.0602 100.038 87.3989 99.6875 87.2083 98.9716L85.1933 92.4199C85.1778 92.346 85.1467 92.3305 85.1116 92.3305C85.065 92.3305 85.0144 92.3616 85.0144 92.4316L83.7891 100.15H81.4045L81.4084 100.154ZM97.5089 100.154V90.3346H101.329C104.406 90.3346 106.292 91.6341 106.292 93.91C106.292 96.186 104.441 97.5594 101.457 97.5594H99.8623V100.143L97.5089 100.158V100.154ZM99.8623 92.3032V95.5869H101.395C102.943 95.5869 103.877 95.0461 103.877 93.91C103.877 92.8285 102.943 92.3032 101.395 92.3032H99.8623ZM109.743 90.3307V100.15H107.389V90.3307H109.743ZM110.937 95.2484C110.937 92.3577 113.372 90.1556 116.577 90.1556C119.783 90.1556 122.233 92.3577 122.233 95.2484C122.233 98.1391 119.783 100.341 116.577 100.341C113.372 100.341 110.937 98.1507 110.937 95.2484ZM119.798 95.2484C119.798 93.5132 118.398 92.171 116.573 92.171C114.749 92.171 113.349 93.5132 113.349 95.2484C113.349 96.9836 114.769 98.3258 116.573 98.3258C118.378 98.3258 119.798 96.9836 119.798 95.2484ZM123.315 100.154V91.6769C123.315 90.7003 124.104 90.1284 124.991 90.1284C125.699 90.1284 126.263 90.3618 126.617 90.9026L130.904 97.5555V90.3307H133.129V98.8082C133.129 99.7848 132.339 100.341 131.484 100.341C130.791 100.341 130.196 100.123 129.838 99.5824L125.551 92.8868V100.154H123.311H123.315ZM134.401 98.1974L136.365 97.3065C136.719 98.0223 137.478 98.388 138.606 98.388C139.621 98.388 140.395 98.0068 140.395 97.3065C140.395 96.4895 139.54 96.3572 138.412 96.1821C136.786 95.9331 134.576 95.4079 134.576 93.1903C134.576 91.4668 136.284 90.1556 138.524 90.1556C140.314 90.1556 141.862 90.8987 142.554 92.2993L140.59 93.1903C140.236 92.5639 139.528 92.1243 138.431 92.1243C137.544 92.1243 136.933 92.5017 136.933 93.1008C136.933 93.8906 137.836 94.0929 139.011 94.2835C140.621 94.5325 142.749 95.0577 142.749 97.2909C142.749 99.0572 140.913 100.341 138.606 100.341C136.657 100.341 135.093 99.598 134.401 98.1974ZM144.118 100.154V90.3346H146.472V94.2874H151.42V90.3346H153.773V100.154H151.42V96.2444H146.472V100.154H144.118ZM158.219 90.3307V100.15H155.866V90.3307H158.219ZM160.3 100.154V90.3346H164.12C167.197 90.3346 169.084 91.6341 169.084 93.91C169.084 96.186 167.232 97.5594 164.249 97.5594H162.654V100.143L160.3 100.158V100.154ZM162.654 92.3032V95.5869H164.186C165.735 95.5869 166.668 95.0461 166.668 93.91C166.668 92.8285 165.735 92.3032 164.186 92.3032H162.654Z" fill="#EBAA01"/>
<path d="M58.804 109.651L59.4108 109.383C59.5936 109.752 59.9982 109.951 60.5544 109.951C61.1107 109.951 61.5269 109.713 61.5269 109.293C61.5269 108.822 61.0485 108.737 60.4883 108.643C59.7764 108.515 58.8934 108.305 58.8934 107.398C58.8934 106.69 59.6053 106.153 60.5039 106.153C61.2235 106.153 61.8653 106.461 62.1493 107.048L61.5503 107.328C61.3596 106.978 60.9979 106.76 60.4766 106.76C59.9982 106.76 59.6092 107.017 59.6092 107.379C59.6092 107.838 60.111 107.939 60.6828 108.044C61.3869 108.173 62.2504 108.383 62.2504 109.289C62.2504 110.044 61.5075 110.565 60.5583 110.565C59.7609 110.565 59.0918 110.238 58.8078 109.651H58.804ZM62.9156 110.495V105.928H63.6158V107.717C63.8842 107.457 64.3004 107.289 64.7672 107.289C65.7825 107.289 66.3543 107.904 66.3543 108.861V110.495H65.6541V108.923C65.6541 108.367 65.3157 107.889 64.6583 107.889C64.0437 107.889 63.6119 108.336 63.6119 108.943V110.495H62.9117H62.9156ZM66.7744 108.912C66.7744 108.013 67.4863 107.278 68.5249 107.278C69.5635 107.278 70.217 107.963 70.217 108.838V109.095H67.4513C67.5291 109.632 67.9803 110.009 68.6027 110.009C69.0267 110.009 69.4079 109.842 69.6102 109.499L70.147 109.748C69.8436 110.285 69.2873 110.573 68.6066 110.573C67.5563 110.573 66.7706 109.884 66.7706 108.92L66.7744 108.912ZM69.5207 108.682C69.4935 108.184 69.089 107.846 68.5171 107.846C67.9453 107.846 67.5485 108.215 67.4785 108.682H69.5169H69.5207ZM71.5396 105.928V110.495H70.8394V105.928H71.5396ZM73.1617 105.928V110.495H72.4615V105.928H73.1617ZM76.4059 110.495C75.9197 110.495 75.7408 110.274 75.7408 109.908V106.803C75.7408 106.437 75.9158 106.216 76.4059 106.216H79.0044V106.811H76.4643V108.056H78.8644V108.651H76.4643V109.904H79.055V110.499H76.4098L76.4059 110.495ZM79.3701 108.923C79.3701 108.025 80.1831 107.282 81.175 107.289C81.8091 107.289 82.3964 107.55 82.7154 108.114L82.1358 108.406C81.9296 108.068 81.5834 107.889 81.175 107.889C80.5682 107.889 80.0664 108.355 80.0664 108.923C80.0664 109.492 80.5682 109.97 81.175 109.97C81.5834 109.97 81.9296 109.791 82.1358 109.453L82.7154 109.741C82.3964 110.309 81.8129 110.565 81.175 110.565C80.1792 110.577 79.3701 109.83 79.3701 108.923ZM82.8555 108.923C82.8555 108.025 83.6685 107.289 84.7032 107.289C85.7379 107.289 86.5392 108.029 86.5392 108.923C86.5392 109.818 85.7418 110.573 84.7032 110.573C83.6646 110.573 82.8555 109.834 82.8555 108.923ZM85.839 108.931C85.839 108.355 85.345 107.885 84.7032 107.885C84.0613 107.885 83.5518 108.355 83.5518 108.931C83.5518 109.507 84.0536 109.974 84.7032 109.974C85.3528 109.974 85.839 109.503 85.839 108.931ZM89.6862 108.811H87.2433V108.235H89.6862V108.811ZM96.5091 108.846V110.495H95.809V108.951C95.809 108.383 95.4978 107.885 94.8481 107.885C94.1985 107.885 93.9029 108.363 93.9029 108.939V110.499H93.2027V108.939C93.2027 108.363 92.8837 107.885 92.2419 107.885C91.6 107.885 91.3044 108.383 91.3044 108.951V110.495H90.6042V108.853C90.6042 107.978 91.1566 107.274 92.1913 107.274C92.8837 107.274 93.3855 107.593 93.5606 108.079C93.7512 107.593 94.2374 107.274 94.8948 107.274C95.9412 107.274 96.5053 107.978 96.5053 108.846H96.5091ZM96.937 108.923C96.937 108.029 97.7267 107.289 98.7809 107.289C99.835 107.289 100.625 107.994 100.625 108.923V110.495H99.9595V109.947C99.6989 110.332 99.2399 110.573 98.6758 110.573C97.6722 110.573 96.9409 109.834 96.9409 108.923H96.937ZM99.9245 108.931C99.9245 108.355 99.4305 107.885 98.7809 107.885C98.1312 107.885 97.6372 108.355 97.6372 108.931C97.6372 109.507 98.139 109.974 98.7809 109.974C99.4227 109.974 99.9245 109.503 99.9245 108.931ZM101.27 110.495V108.632C101.27 107.873 101.749 107.301 102.655 107.301C102.873 107.301 103.099 107.34 103.278 107.414V108.04C103.11 107.951 102.912 107.908 102.721 107.908C102.255 107.908 101.975 108.196 101.975 108.655V110.495H101.274H101.27ZM103.219 108.923C103.219 108.029 104.009 107.289 105.063 107.289C106.117 107.289 106.907 107.994 106.907 108.923V110.495H106.242V109.947C105.981 110.332 105.522 110.573 104.958 110.573C103.954 110.573 103.223 109.834 103.223 108.923H103.219ZM106.203 108.931C106.203 108.355 105.709 107.885 105.059 107.885C104.41 107.885 103.916 108.355 103.916 108.931C103.916 109.507 104.417 109.974 105.059 109.974C105.701 109.974 106.203 109.503 106.203 108.931ZM107.806 109.371V107.916H107.121V107.367H107.806V106.558H108.506V107.367H109.832V107.916H108.506V109.351C108.506 109.76 108.774 110.001 109.19 110.001C109.416 110.001 109.665 109.923 109.832 109.814V110.394C109.657 110.503 109.381 110.573 109.128 110.573C108.268 110.573 107.809 110.083 107.809 109.367L107.806 109.371ZM110.513 110.495V105.928H111.213V107.717C111.482 107.457 111.898 107.289 112.365 107.289C113.38 107.289 113.952 107.904 113.952 108.861V110.495H113.251V108.923C113.251 108.367 112.913 107.889 112.256 107.889C111.641 107.889 111.209 108.336 111.209 108.943V110.495H110.509H110.513ZM114.372 108.923C114.372 108.025 115.185 107.289 116.219 107.289C117.254 107.289 118.056 108.029 118.056 108.923C118.056 109.818 117.258 110.573 116.219 110.573C115.181 110.573 114.372 109.834 114.372 108.923ZM117.359 108.931C117.359 108.355 116.865 107.885 116.223 107.885C115.582 107.885 115.072 108.355 115.072 108.931C115.072 109.507 115.574 109.974 116.223 109.974C116.873 109.974 117.359 109.503 117.359 108.931ZM119.187 108.982V110.495H118.487V108.916C118.487 108.001 119.086 107.286 120.203 107.286C121.319 107.286 121.945 108.001 121.945 108.908V110.491H121.245V108.982C121.245 108.394 120.891 107.889 120.203 107.889C119.514 107.889 119.187 108.394 119.187 108.974V108.982ZM125.295 106.733C125.435 106.332 125.781 106.138 126.178 106.138C126.574 106.138 126.925 106.328 127.069 106.733L128.36 110.495H127.625L127.279 109.449L125.077 109.456L124.731 110.499H124.003L125.295 106.737V106.733ZM125.275 108.861H127.088L126.454 106.928C126.403 106.795 126.322 106.729 126.185 106.729C126.045 106.729 125.96 106.791 125.917 106.928L125.275 108.861ZM128.597 109.869L129.134 109.6C129.309 109.912 129.593 110.028 129.974 110.028C130.356 110.028 130.674 109.881 130.674 109.608C130.674 108.951 128.691 109.449 128.691 108.254C128.691 107.706 129.227 107.301 129.982 107.301C130.624 107.301 131.063 107.57 131.281 107.931L130.744 108.208C130.597 107.931 130.313 107.838 129.998 107.838C129.683 107.838 129.391 107.99 129.391 108.239C129.391 108.877 131.375 108.41 131.375 109.593C131.375 110.188 130.741 110.565 130.005 110.565C129.364 110.565 128.87 110.336 128.601 109.869H128.597ZM131.884 106.332C131.884 106.103 132.09 105.912 132.343 105.912C132.596 105.912 132.795 106.103 132.795 106.332C132.795 106.562 132.596 106.749 132.343 106.749C132.09 106.749 131.884 106.562 131.884 106.332ZM132.697 107.367V110.495H131.997V107.367H132.697ZM133.261 108.923C133.261 108.029 134.051 107.289 135.105 107.289C136.159 107.289 136.949 107.994 136.949 108.923V110.495H136.284V109.947C136.023 110.332 135.564 110.573 135 110.573C133.996 110.573 133.265 109.834 133.265 108.923H133.261ZM136.249 108.931C136.249 108.355 135.755 107.885 135.105 107.885C134.456 107.885 133.961 108.355 133.961 108.931C133.961 109.507 134.463 109.974 135.105 109.974C135.747 109.974 136.249 109.503 136.249 108.931ZM139.462 110.495V106.216H140.967C142.239 106.216 143.064 106.733 143.064 107.729C143.064 108.725 142.224 109.262 141.002 109.262H140.185V110.495H139.466H139.462ZM140.181 106.815V108.655H140.987C141.765 108.655 142.321 108.379 142.321 107.729C142.321 107.079 141.784 106.815 140.987 106.815H140.181ZM143.216 108.923C143.216 108.029 144.005 107.289 145.059 107.289C146.114 107.289 146.903 107.994 146.903 108.923V110.495H146.238V109.947C145.978 110.332 145.518 110.573 144.954 110.573C143.951 110.573 143.22 109.834 143.22 108.923H143.216ZM146.203 108.931C146.203 108.355 145.709 107.885 145.059 107.885C144.41 107.885 143.916 108.355 143.916 108.931C143.916 109.507 144.418 109.974 145.059 109.974C145.701 109.974 146.203 109.503 146.203 108.931ZM147.331 108.923C147.331 108.025 148.144 107.282 149.136 107.289C149.77 107.289 150.358 107.55 150.677 108.114L150.097 108.406C149.891 108.068 149.545 107.889 149.136 107.889C148.529 107.889 148.028 108.355 148.028 108.923C148.028 109.492 148.529 109.97 149.136 109.97C149.545 109.97 149.891 109.791 150.097 109.453L150.677 109.741C150.358 110.309 149.774 110.565 149.136 110.565C148.14 110.577 147.331 109.83 147.331 108.923ZM151.062 106.332C151.062 106.103 151.268 105.912 151.521 105.912C151.774 105.912 151.972 106.103 151.972 106.332C151.972 106.562 151.774 106.749 151.521 106.749C151.268 106.749 151.062 106.562 151.062 106.332ZM151.875 107.367V110.495H151.174V107.367H151.875ZM153.026 110.495V107.916H152.369V107.367H153.026V107.04C153.026 106.375 153.485 105.877 154.353 105.877C154.586 105.877 154.804 105.916 154.979 105.99V106.609C154.815 106.519 154.613 106.469 154.415 106.469C153.983 106.469 153.722 106.64 153.722 107.056V107.363H155.839V110.491H155.138V107.912H153.718V110.491H153.018L153.026 110.495ZM156.305 108.923C156.305 108.025 157.118 107.282 158.11 107.289C158.744 107.289 159.332 107.55 159.651 108.114L159.071 108.406C158.865 108.068 158.519 107.889 158.11 107.889C157.503 107.889 157.002 108.355 157.002 108.923C157.002 109.492 157.503 109.97 158.11 109.97C158.519 109.97 158.865 109.791 159.071 109.453L159.651 109.741C159.332 110.309 158.748 110.565 158.11 110.565C157.114 110.577 156.305 109.83 156.305 108.923ZM68.6961 116.592C68.6961 115.697 69.4857 114.958 70.5399 114.958C71.5941 114.958 72.3837 115.662 72.3837 116.592V118.164H71.7186V117.615C71.4579 118 70.9989 118.241 70.4349 118.241C69.4313 118.241 68.7 117.498 68.7 116.592H68.6961ZM71.6797 116.596C71.6797 116.02 71.1856 115.549 70.536 115.549C69.8864 115.549 69.3924 116.02 69.3924 116.596C69.3924 117.171 69.8942 117.638 70.536 117.638C71.1779 117.638 71.6797 117.168 71.6797 116.596ZM73.7258 116.646V118.16H73.0256V116.58C73.0256 115.666 73.6246 114.95 74.741 114.95C75.8575 114.95 76.4837 115.666 76.4837 116.572V118.156H75.7835V116.646C75.7835 116.059 75.4296 115.553 74.741 115.553C74.0525 115.553 73.7258 116.059 73.7258 116.638V116.646ZM76.9155 116.603C76.9155 115.65 77.6779 114.954 78.7204 114.954C79.1872 114.954 79.6112 115.141 79.8913 115.421L79.8991 113.592H80.5993V116.6C80.5993 117.525 79.8019 118.234 78.7555 118.234C77.7091 118.234 76.9116 117.498 76.9116 116.6L76.9155 116.603ZM79.8991 116.596C79.8991 116.028 79.4051 115.553 78.7555 115.553C78.1058 115.553 77.6118 116.024 77.6118 116.596C77.6118 117.168 78.1136 117.642 78.7555 117.642C79.3973 117.642 79.8991 117.171 79.8991 116.596ZM86.123 114.483H84.6682V118.164H83.9485V114.483H82.5015V113.884H86.123V114.483ZM86.512 118.164V113.596H87.2122V115.386C87.4806 115.125 87.8968 114.958 88.3636 114.958C89.3789 114.958 89.9507 115.572 89.9507 116.53V118.164H89.2505V116.592C89.2505 116.035 88.9121 115.557 88.2547 115.557C87.6401 115.557 87.2083 116.004 87.2083 116.611V118.164H86.5081H86.512ZM90.3708 116.576C90.3708 115.674 91.0827 114.942 92.1213 114.942C93.1599 114.942 93.8134 115.627 93.8134 116.502V116.759H91.0477C91.1255 117.296 91.5767 117.673 92.1991 117.673C92.6231 117.673 93.0043 117.506 93.2066 117.164L93.7434 117.413C93.44 117.95 92.8837 118.237 92.203 118.237C91.1527 118.237 90.3669 117.549 90.3669 116.584L90.3708 116.576ZM93.1132 116.347C93.086 115.849 92.6814 115.51 92.1096 115.51C91.5378 115.51 91.141 115.88 91.071 116.347H93.1093H93.1132ZM95.8362 118.167L96.5014 114.374C96.5636 114.005 96.8631 113.806 97.2443 113.806C97.5828 113.806 97.8745 113.954 97.9795 114.292L98.8898 117.276C98.9053 117.335 98.917 117.354 98.952 117.354C98.9948 117.354 99.0026 117.335 99.022 117.276L99.9245 114.308C100.022 113.97 100.325 113.818 100.664 113.818C101.037 113.818 101.329 114.024 101.391 114.397L101.99 118.167H101.263L100.741 114.604C100.726 114.514 100.699 114.456 100.621 114.456C100.559 114.456 100.516 114.503 100.492 114.584L99.52 117.65C99.4422 117.907 99.2165 118.035 98.9481 118.035C98.6953 118.035 98.4541 117.907 98.3763 117.666L97.4077 114.58C97.3805 114.491 97.3455 114.452 97.2794 114.452C97.2132 114.452 97.1665 114.499 97.151 114.6L96.5636 118.175H95.8284L95.8362 118.167ZM102.554 113.997C102.554 113.767 102.76 113.577 103.013 113.577C103.266 113.577 103.464 113.767 103.464 113.997C103.464 114.226 103.266 114.413 103.013 114.413C102.76 114.413 102.554 114.226 102.554 113.997ZM103.367 115.032V118.16H102.667V115.032H103.367ZM103.931 116.603C103.931 115.65 104.694 114.954 105.736 114.954C106.203 114.954 106.627 115.141 106.907 115.421L106.915 113.592H107.615V116.6C107.615 117.525 106.817 118.234 105.771 118.234C104.725 118.234 103.927 117.498 103.927 116.6L103.931 116.603ZM106.915 116.596C106.915 116.028 106.421 115.553 105.771 115.553C105.121 115.553 104.627 116.024 104.627 116.596C104.627 117.168 105.129 117.642 105.771 117.642C106.413 117.642 106.915 117.171 106.915 116.596ZM108.043 116.603C108.043 115.65 108.805 114.954 109.848 114.954C110.315 114.954 110.739 115.141 111.019 115.421L111.026 113.592H111.727V116.6C111.727 117.525 110.929 118.234 109.883 118.234C108.836 118.234 108.039 117.498 108.039 116.6L108.043 116.603ZM111.03 116.596C111.03 116.028 110.536 115.553 109.887 115.553C109.237 115.553 108.743 116.024 108.743 116.596C108.743 117.168 109.245 117.642 109.887 117.642C110.528 117.642 111.03 117.171 111.03 116.596ZM113.216 113.596V118.164H112.516V113.596H113.216ZM113.78 116.576C113.78 115.674 114.492 114.942 115.531 114.942C116.57 114.942 117.223 115.627 117.223 116.502V116.759H114.457C114.535 117.296 114.986 117.673 115.609 117.673C116.033 117.673 116.414 117.506 116.616 117.164L117.153 117.413C116.85 117.95 116.293 118.237 115.613 118.237C114.562 118.237 113.777 117.549 113.777 116.584L113.78 116.576ZM116.527 116.347C116.5 115.849 116.095 115.51 115.523 115.51C114.951 115.51 114.555 115.88 114.485 116.347H116.523H116.527ZM120.168 118.164C119.682 118.164 119.503 117.942 119.503 117.576V114.471C119.503 114.106 119.678 113.884 120.168 113.884H122.766V114.479H120.226V115.724H122.626V116.319H120.226V117.572H122.817V118.167H120.172L120.168 118.164ZM123.128 116.592C123.128 115.697 123.918 114.958 124.972 114.958C126.026 114.958 126.816 115.662 126.816 116.592V118.164H126.15V117.615C125.89 118 125.431 118.241 124.867 118.241C123.863 118.241 123.132 117.498 123.132 116.592H123.128ZM126.115 116.596C126.115 116.02 125.621 115.549 124.972 115.549C124.322 115.549 123.828 116.02 123.828 116.596C123.828 117.171 124.33 117.638 124.972 117.638C125.614 117.638 126.115 117.168 126.115 116.596ZM127.298 117.537L127.835 117.269C128.01 117.58 128.294 117.697 128.675 117.697C129.056 117.697 129.375 117.549 129.375 117.276C129.375 116.619 127.391 117.117 127.391 115.923C127.391 115.374 127.928 114.969 128.683 114.969C129.325 114.969 129.764 115.238 129.982 115.6L129.445 115.876C129.297 115.6 129.013 115.506 128.698 115.506C128.383 115.506 128.092 115.658 128.092 115.907C128.092 116.545 130.075 116.078 130.075 117.261C130.075 117.856 129.441 118.234 128.706 118.234C128.064 118.234 127.57 118.004 127.302 117.537H127.298ZM130.815 117.039V115.584H130.13V115.036H130.815V114.226H131.515V115.036H132.841V115.584H131.515V117.02C131.515 117.428 131.783 117.669 132.199 117.669C132.425 117.669 132.674 117.592 132.841 117.483V118.062C132.666 118.171 132.39 118.241 132.137 118.241C131.277 118.241 130.818 117.751 130.818 117.035L130.815 117.039ZM135.619 118.164C135.187 118.164 134.969 117.942 134.969 117.666C134.969 117.467 135.066 117.288 135.272 117.129L136.677 115.996C137.066 115.677 137.268 115.44 137.268 115.082C137.268 114.701 136.906 114.425 136.443 114.425C135.98 114.425 135.595 114.681 135.385 115.071L134.829 114.79C135.14 114.211 135.724 113.806 136.494 113.806C137.369 113.806 137.991 114.351 137.991 115.028C137.991 115.545 137.739 115.942 137.291 116.3L135.895 117.424C135.836 117.475 135.809 117.494 135.809 117.533C135.809 117.553 135.825 117.564 135.844 117.564H138.116V118.164H135.619ZM138.482 116.016C138.482 114.763 139.252 113.806 140.38 113.806C141.508 113.806 142.278 114.763 142.278 116.016C142.278 117.269 141.508 118.245 140.38 118.245C139.252 118.245 138.482 117.257 138.482 116.016ZM141.539 116.016C141.539 115.141 141.045 114.471 140.38 114.471C139.715 114.471 139.225 115.141 139.225 116.016C139.225 116.891 139.719 117.576 140.38 117.576C141.041 117.576 141.539 116.88 141.539 116.016ZM143.395 118.164C142.963 118.164 142.745 117.942 142.745 117.666C142.745 117.467 142.842 117.288 143.048 117.129L144.453 115.996C144.842 115.677 145.044 115.44 145.044 115.082C145.044 114.701 144.682 114.425 144.219 114.425C143.756 114.425 143.371 114.681 143.161 115.071L142.605 114.79C142.916 114.211 143.5 113.806 144.27 113.806C145.145 113.806 145.767 114.351 145.767 115.028C145.767 115.545 145.515 115.942 145.067 116.3L143.671 117.424C143.612 117.475 143.585 117.494 143.585 117.533C143.585 117.553 143.601 117.564 143.62 117.564H145.892V118.164H143.395ZM148.311 118.164V117.358H146.518C146.094 117.358 145.861 117.152 145.861 116.884C145.861 116.743 145.919 116.584 146.044 116.428L147.821 114.168C147.989 113.958 148.16 113.802 148.49 113.802C148.786 113.802 149.004 113.989 149.004 114.281V116.798H149.766V117.354H149.004V118.16H148.304L148.311 118.164ZM148.311 116.802V114.65C148.311 114.611 148.296 114.58 148.249 114.58C148.203 114.58 148.179 114.619 148.129 114.678L146.561 116.705C146.542 116.732 146.534 116.751 146.534 116.767C146.534 116.806 146.577 116.806 146.619 116.806H148.311V116.802Z" fill="#EBAA01"/>
</g>
<defs>
<clipPath id="clip0_351_6698">
<rect width="218" height="120" fill="white"/>
</clipPath>
</defs>
</svg>
