<svg width="239" height="120" viewBox="0 0 239 120" fill="none" xmlns="http://www.w3.org/2000/svg">
<g clip-path="url(#clip0_351_8124)">
<path d="M64.7469 7.53247H95.465C102.046 7.53247 105.52 10.7021 105.52 14.3939C105.52 16.7245 103.967 19.0738 101.228 21.4977L91.8066 29.3473H92.992C100.861 29.3473 107.626 35.1645 107.626 43.0887C107.626 52.4486 98.4898 59.3846 85.4096 59.3846C75.0885 59.3846 66.9542 55.6928 62.6418 48.2161L74.1688 43.1633C76.1717 47.3212 80.4841 49.4281 85.5935 49.4281C90.703 49.4281 94.5453 46.7805 94.5453 42.9396C94.5453 39.3224 90.9891 37.0477 85.8592 37.0477H82.5687C78.4607 37.0477 75.9877 34.7916 75.906 32.2932C75.906 30.4846 77.0914 28.8252 79.0125 27.1658L89.7015 18.4026C89.9672 18.2534 90.1512 18.1788 90.1512 17.8805C90.1512 17.7314 89.9672 17.7314 89.7833 17.7314H64.7469V7.55112V7.53247Z" fill="#966034"/>
<path d="M113.491 42.7161V37.6819C113.491 35.4259 115.044 33.7105 118.212 33.7105C118.907 33.7105 119.663 33.8224 120.195 34.0088V36.4514C119.684 36.209 119.05 36.0785 118.498 36.0785C117.292 36.0785 116.557 36.7124 116.557 37.7565V42.7161H113.511H113.491ZM120.052 38.3159C120.052 35.575 122.341 33.6732 125.651 33.6732C126.735 33.6732 127.757 33.9902 128.533 34.5123V29.8696H131.619V38.3159C131.619 40.9821 129.167 42.9585 125.835 42.9585C122.504 42.9585 120.072 40.8702 120.072 38.3159H120.052ZM128.554 38.3159C128.554 37.0666 127.389 36.0412 125.815 36.0412C124.241 36.0412 123.097 37.0666 123.097 38.3159C123.097 39.5651 124.241 40.5719 125.815 40.5719C127.389 40.5719 128.554 39.5651 128.554 38.3159ZM114.145 58.4153V46.4638H119.254C123.362 46.4638 125.876 48.0486 125.876 50.8081C125.876 53.5676 123.403 55.2456 119.418 55.2456H117.292V58.3967H114.145V58.4153ZM117.292 48.8504V52.8404H119.336C121.4 52.8404 122.647 52.1878 122.647 50.7895C122.647 49.3911 121.4 48.8317 119.336 48.8317H117.292V48.8504ZM129.657 56.0101H136.422V58.4153H129.31C127.307 58.4153 126.53 57.5576 126.53 56.1965V46.4638H129.678V56.0101H129.657ZM141.164 48.1418C141.654 46.8367 142.942 46.2214 144.311 46.2214C145.681 46.2214 146.989 46.8367 147.479 48.1418L151.301 58.3967H148.092L147.254 55.9542H141.389L140.551 58.3967H137.342L141.164 48.1418ZM142.186 53.6608H146.416L144.781 48.9249C144.7 48.6826 144.556 48.5707 144.311 48.5707C144.066 48.5707 143.923 48.6826 143.841 48.9249L142.186 53.6608ZM150.708 52.4489C150.708 48.9809 153.999 46.24 158.209 46.24C160.723 46.24 163.134 47.3401 164.218 49.2046L161.663 50.3979C160.948 49.3724 159.844 48.7198 158.086 48.7198C155.675 48.7198 153.937 50.3047 153.937 52.4675C153.937 54.6303 155.654 56.2152 158.086 56.2152C159.824 56.2152 160.988 55.5626 161.663 54.5371L164.218 55.7304C163.134 57.5949 160.723 58.695 158.209 58.695C153.999 58.695 150.708 55.9355 150.708 52.4862V52.4489ZM167.61 58.4153C165.607 58.4153 164.831 57.5576 164.831 56.1965V48.7012C164.831 47.3401 165.607 46.4638 167.61 46.4638H175.275V48.7944H167.978V51.2742H174.825V53.6049H167.978V56.0847H175.397V58.4153H167.61Z" fill="#966034"/>
<path d="M56.1836 116.234C54.5895 117.763 45.556 112.561 42.6538 108.086C42.6538 108.086 41.0392 105.625 40.6917 102.157C40.6509 101.84 40.6917 101.504 40.7531 101.187C40.7939 100.982 40.9166 100.796 41.1209 100.311C41.5297 100.441 41.9793 100.516 42.3881 100.628C42.3881 100.628 42.9808 100.814 43.553 101.094C49.6026 103.965 53.4245 109.783 53.4245 109.783C55.2639 112.579 57.0829 115.357 56.1836 116.234Z" fill="#966034"/>
<path d="M30.1663 12.8838C30.6568 4.71722 41.8771 -1.80857 52.1369 0.447486C45.9851 6.56308 40.1399 12.4736 30.1663 12.8838Z" fill="#966034"/>
<path d="M17.27 85.9912C10.8526 78.1976 11.384 69.4903 18.3328 64.2883C22.6452 71.6345 19.1503 78.4586 17.27 85.9912Z" fill="#966034"/>
<path d="M11.1388 70.87C7.25561 61.8271 10.3417 53.4182 18.476 50.1553C20.438 58.3218 15.0833 64.1205 11.1388 70.87Z" fill="#966034"/>
<path d="M12.9985 38.4276C13.9591 29.5712 22.3182 22.9708 30.2889 24.5557C29.0831 29.7017 22.9313 34.68 12.9985 38.4276Z" fill="#966034"/>
<path d="M9.81002 54.5556C8.39981 45.1958 14.4698 36.8614 22.7267 36.7495C22.0114 44.8601 15.4917 49.2231 9.81002 54.5556Z" fill="#966034"/>
<path d="M41.8772 14.5804C36.686 21.4231 28.5517 22.1689 20.908 24.164C22.2977 17.4517 34.0495 10.6276 41.8772 14.5804Z" fill="#966034"/>
<path d="M22.4405 78.0857C28.4083 84.1267 27.2434 91.4729 27.4682 98.7445C19.1295 94.3629 16.8405 82.6165 22.4405 78.0857Z" fill="#966034"/>
<path d="M25.016 99.9193C16.6774 99.9566 8.52268 93.2443 6.66284 84.7981C15.7577 86.7185 20.6014 93.0392 25.016 99.9193Z" fill="#966034"/>
<path d="M41.1827 109.465C31.5769 105.829 27.428 98.6511 29.8601 90.0557C37.6469 94.6237 38.587 102.026 41.1827 109.465Z" fill="#966034"/>
<path d="M55.4478 117.8C49.3778 122.61 35.7866 118.806 31.3721 113.25C40.3238 110.603 47.8858 114.276 55.4478 117.8Z" fill="#966034"/>
<path d="M6.27438 30.8953C11.1795 38.372 9.66706 45.8859 7.50065 53.4186C1.55324 49.2421 0.98098 39.6025 6.27438 30.8953Z" fill="#966034"/>
<path d="M16.4324 15.3076C19.1915 23.5488 15.0222 30.3729 11.1185 37.0851C6.39739 32.0882 9.09518 20.6028 16.4324 15.3076Z" fill="#966034"/>
<path d="M8.8086 70.3854C1.45098 66.7682 -2.02345 56.9609 1.20572 48.8689C8.33853 54.7235 8.09327 62.7036 8.8086 70.3854Z" fill="#966034"/>
<path d="M19.1501 22.4487C16.207 16.1093 22.6858 5.40704 31.188 2.27466C29.3894 7.51394 29.6756 13.0142 24.5252 16.7619C22.4814 18.2535 21.0508 20.4164 19.1501 22.4673V22.4487Z" fill="#966034"/>
<path d="M1.22612 67.1038C9.60563 71.1684 12.1808 78.4959 14.5925 85.7862C7.41878 85.32 0.63342 75.9975 1.22612 67.1038Z" fill="#966034"/>
<path d="M39.0772 110.77C30.6977 112.728 21.7868 108.533 16.4116 99.8071C21.1328 101.019 25.5882 101.522 29.2875 103.294C32.8845 105.028 35.6845 108.104 39.0976 110.77H39.0772Z" fill="#966034"/>
<path d="M182.816 116.234C184.41 117.763 193.444 112.561 196.346 108.086C196.346 108.086 197.961 105.625 198.308 102.157C198.349 101.84 198.308 101.504 198.247 101.187C198.206 100.982 198.083 100.796 197.879 100.311C197.47 100.441 197.021 100.516 196.612 100.628C196.612 100.628 196.019 100.814 195.447 101.094C189.397 103.965 185.575 109.783 185.575 109.783C183.736 112.579 181.917 115.357 182.816 116.234Z" fill="#966034"/>
<path d="M208.834 12.8838C208.343 4.71722 197.123 -1.80857 186.863 0.447486C193.015 6.56308 198.86 12.4736 208.834 12.8838Z" fill="#966034"/>
<path d="M221.73 85.9912C228.147 78.1976 227.616 69.4903 220.667 64.2883C216.355 71.6345 219.85 78.4586 221.73 85.9912Z" fill="#966034"/>
<path d="M227.861 70.8702C231.744 61.8274 228.658 53.4184 220.524 50.1555C218.562 58.3221 223.917 64.1207 227.861 70.8702Z" fill="#966034"/>
<path d="M226.002 38.4276C225.041 29.5712 216.682 22.9708 208.711 24.5557C209.917 29.7017 216.069 34.68 226.002 38.4276Z" fill="#966034"/>
<path d="M229.189 54.5556C230.6 45.1958 224.53 36.8614 216.273 36.7495C216.988 44.8601 223.508 49.2231 229.189 54.5556Z" fill="#966034"/>
<path d="M197.123 14.5804C202.314 21.4231 210.449 22.1689 218.092 24.164C216.702 17.4517 204.951 10.6276 197.123 14.5804Z" fill="#966034"/>
<path d="M216.559 78.0857C210.592 84.1267 211.757 91.4729 211.532 98.7445C219.87 94.3629 222.159 82.6165 216.559 78.0857Z" fill="#966034"/>
<path d="M213.984 99.9193C222.323 99.9566 230.477 93.2443 232.337 84.7981C223.242 86.7185 218.399 93.0392 213.984 99.9193Z" fill="#966034"/>
<path d="M197.818 109.466C207.423 105.83 211.572 98.6516 209.14 90.0562C201.353 94.6242 200.413 102.026 197.818 109.466Z" fill="#966034"/>
<path d="M183.552 117.8C189.622 122.61 203.213 118.806 207.628 113.25C198.676 110.603 191.114 114.276 183.552 117.8Z" fill="#966034"/>
<path d="M232.726 30.8953C227.82 38.372 229.333 45.8859 231.499 53.4186C237.447 49.2421 238.019 39.6025 232.726 30.8953Z" fill="#966034"/>
<path d="M222.568 15.3076C219.809 23.5488 223.978 30.3729 227.882 37.0851C232.603 32.0882 229.905 20.6028 222.568 15.3076Z" fill="#966034"/>
<path d="M230.192 70.3854C237.55 66.7682 241.024 56.9609 237.795 48.8689C230.662 54.7235 230.907 62.7036 230.192 70.3854Z" fill="#966034"/>
<path d="M219.85 22.4487C222.793 16.1093 216.314 5.40704 207.812 2.27466C209.611 7.51394 209.324 13.0142 214.475 16.7619C216.519 18.2535 217.949 20.4164 219.85 22.4673V22.4487Z" fill="#966034"/>
<path d="M237.774 67.1038C229.394 71.1684 226.819 78.4959 224.407 85.7862C231.581 85.32 238.366 75.9975 237.774 67.1038Z" fill="#966034"/>
<path d="M199.943 110.771C208.323 112.728 217.234 108.533 222.609 99.8074C217.888 101.019 213.432 101.523 209.733 103.294C206.136 105.028 203.336 108.104 199.923 110.771H199.943Z" fill="#966034"/>
<path d="M44.6976 83.7167V65.9851H53.6903C58.7793 65.9851 62.6625 67.9615 62.6625 71.8584C62.6625 74.189 61.0683 76.1094 58.5545 76.762C59.6377 77.34 60.3326 78.3655 61.2931 79.969L63.48 83.698H57.0829L55.08 80.3605C54.3443 79.1486 53.5268 78.7011 51.6056 78.7011H50.5224L50.4815 83.698H44.6567L44.6976 83.7167ZM50.5837 70.46L50.5428 74.4314H53.6903C55.407 74.4314 56.6129 73.6483 56.6129 72.3804C56.6129 71.038 55.407 70.46 53.7516 70.46H50.5633H50.5837ZM70.4902 83.7167C66.8727 83.7167 65.4011 82.1318 65.4011 79.652V70.0684C65.4011 67.57 66.8727 66.0038 70.4902 66.0038H81.5062V70.3295H71.2872V72.6974H80.7704V77.0231H71.2872V79.391H81.6492V83.7167H70.4902ZM82.6098 74.8602C82.6098 69.6955 87.4536 65.6122 93.9324 65.6122C97.7542 65.6122 101.494 67.2344 103.068 70.1989L98.2652 72.3991C97.3659 71.0566 96.1601 70.1617 93.6871 70.1617C90.6623 70.1617 88.6594 72.138 88.6594 74.9162C88.6594 77.6943 90.7032 79.6893 93.9324 79.6893C95.6491 79.6893 96.7323 79.5588 97.652 78.8689L97.6112 75.2145H103.334V80.4724C101.678 82.5793 98.2447 84.0709 93.9119 84.0709C87.4944 84.0709 82.5894 80.0063 82.5894 74.8229L82.6098 74.8602ZM111.448 65.9851V83.7167H105.561V65.9851H111.448ZM113.348 74.8602C113.348 69.5837 118.192 65.6122 124.671 65.6122C131.15 65.6122 135.993 69.5837 135.993 74.8602C135.993 80.1368 131.15 84.1082 124.671 84.1082C118.192 84.1082 113.348 80.1368 113.348 74.8602ZM129.964 74.8602C129.964 72.2313 127.675 70.2176 124.691 70.2176C121.707 70.2176 119.418 72.2313 119.418 74.8602C119.418 77.4892 121.707 79.5029 124.691 79.5029C127.675 79.5029 129.964 77.4892 129.964 74.8602ZM137.731 83.7167V68.5955C137.731 66.7123 139.509 65.575 141.389 65.575C142.881 65.575 144.189 66.0038 144.945 66.992L152.507 76.8925V65.9851H158.066V81.1063C158.066 82.9895 156.288 84.1082 154.408 84.1082C152.936 84.1082 151.608 83.6794 150.852 82.6912L143.29 72.7906V83.7167H137.731ZM164.259 68.8006C165.056 66.6191 167.284 65.5936 169.511 65.5936C171.739 65.5936 173.967 66.6191 174.764 68.8006L180.303 83.7167H174.294L173.313 80.7148H165.771L164.749 83.7167H158.741L164.279 68.8006H164.259ZM167.222 76.3891H171.841L169.798 70.2176C169.736 70.0311 169.675 69.9566 169.552 69.9566C169.43 69.9566 169.368 70.0311 169.307 70.2176L167.243 76.3891H167.222ZM187.599 79.2605H197.082V83.7167H186.802C183.184 83.7167 181.713 82.1318 181.713 79.652V66.0038H187.599V79.2605Z" fill="#966034"/>
<path d="M53.8743 95.2578C53.8743 92.4051 56.5721 90.149 60.0465 90.149C62.1107 90.149 64.0932 91.044 64.972 92.5915L62.8669 93.5611C62.2742 92.722 61.3545 92.1813 59.9239 92.1813C57.9414 92.1813 56.5107 93.4865 56.5107 95.2578C56.5107 97.0291 57.921 98.3342 59.9239 98.3342C61.3545 98.3342 62.3151 97.7935 62.8669 96.9545L64.972 97.924C64.0932 99.4529 62.1107 100.367 60.0465 100.367C56.5721 100.367 53.8743 98.1105 53.8743 95.2578ZM65.9326 100.161V90.3355H68.5078V94.2882H73.9442V90.3355H76.5194V100.161H73.9442V96.246H68.5078V100.161H65.9326ZM80.5456 91.7152C80.9544 90.6524 82.0172 90.1304 83.1208 90.1304C84.2244 90.1304 85.3077 90.6338 85.7164 91.7152L88.8638 100.143H86.2274L85.5325 98.1291H80.7091L80.0143 100.143H77.3778L80.5252 91.7152H80.5456ZM81.3836 96.246H84.858L83.5091 92.3491C83.4478 92.144 83.3252 92.0508 83.1208 92.0508C82.9164 92.0508 82.7938 92.144 82.7325 92.3491L81.3632 96.246H81.3836ZM89.2522 100.161L90.8667 91.7152C91.0711 90.6897 91.95 90.149 93.1558 90.149C94.2186 90.149 95.1178 90.5219 95.4039 91.4728L97.4069 97.6071V97.6444C97.4069 97.6444 97.4477 97.6444 97.4477 97.6071L99.4098 91.5288C99.7163 90.5779 100.636 90.149 101.699 90.149C102.884 90.149 103.722 90.7084 103.906 91.7525L105.378 100.161H102.762L101.617 92.461C101.617 92.461 101.617 92.3491 101.535 92.3491C101.474 92.3491 101.454 92.3864 101.433 92.4424L99.2258 98.9495C98.9806 99.6953 98.2652 100.068 97.4273 100.068C96.5893 100.068 95.8536 99.714 95.6492 99.0054L93.4419 92.461C93.4419 92.461 93.3806 92.3678 93.3602 92.3678C93.2988 92.3678 93.258 92.4051 93.258 92.461L91.9091 100.18H89.293L89.2522 100.161ZM106.91 100.161V90.3355H111.1C114.472 90.3355 116.537 91.6406 116.537 93.9153C116.537 96.19 114.513 97.5698 111.223 97.5698H109.465V100.161H106.89H106.91ZM109.486 92.2932V95.5747H111.162C112.858 95.5747 113.88 95.034 113.88 93.8967C113.88 92.7593 112.858 92.2932 111.162 92.2932H109.486ZM120.318 90.3355V100.161H117.742V90.3355H120.318ZM121.626 95.2578C121.626 92.3678 124.303 90.1677 127.818 90.1677C131.334 90.1677 134.031 92.3678 134.031 95.2578C134.031 98.1478 131.334 100.348 127.818 100.348C124.303 100.348 121.626 98.1664 121.626 95.2578ZM131.354 95.2578C131.354 93.5238 129.821 92.1813 127.818 92.1813C125.815 92.1813 124.283 93.5238 124.283 95.2578C124.283 96.9918 125.836 98.3342 127.818 98.3342C129.801 98.3342 131.354 96.9918 131.354 95.2578ZM135.196 100.161V91.6779C135.196 90.7084 136.055 90.1304 137.036 90.1304C137.812 90.1304 138.426 90.3541 138.814 90.8948L143.515 97.5511V90.3355H145.947V98.819C145.947 99.7885 145.088 100.348 144.148 100.348C143.392 100.348 142.738 100.124 142.35 99.5834L137.649 92.8898V100.161H135.196ZM147.357 98.2037L149.523 97.3087C149.912 98.0173 150.75 98.3902 151.976 98.3902C153.1 98.3902 153.938 98.0173 153.938 97.3087C153.938 96.4884 152.998 96.3578 151.771 96.19C149.993 95.9476 147.561 95.4069 147.561 93.2068C147.561 91.4915 149.442 90.1677 151.894 90.1677C153.856 90.1677 155.552 90.9135 156.309 92.3118L154.142 93.2068C153.754 92.5729 152.977 92.144 151.771 92.144C150.79 92.144 150.136 92.5169 150.136 93.1136C150.136 93.8967 151.117 94.1018 152.426 94.2882C154.204 94.5306 156.534 95.0713 156.534 97.2901C156.534 99.0614 154.51 100.348 151.996 100.348C149.85 100.348 148.134 99.6021 147.377 98.2037H147.357ZM158.005 100.161V90.3355H160.58V94.2882H166.017V90.3355H168.592V100.161H166.017V96.246H160.58V100.161H158.005ZM173.476 90.3355V100.161H170.901V90.3355H173.476ZM175.745 100.161V90.3355H179.935C183.307 90.3355 185.371 91.6406 185.371 93.9153C185.371 96.19 183.348 97.5698 180.057 97.5698H178.3V100.161H175.725H175.745ZM178.32 92.2932V95.5747H179.996C181.692 95.5747 182.714 95.034 182.714 93.8967C182.714 92.7593 181.692 92.2932 179.996 92.2932H178.32Z" fill="#966034"/>
<path d="M64.461 109.652L65.1355 109.391C65.3399 109.764 65.7691 109.969 66.3822 109.969C66.9953 109.969 67.445 109.727 67.445 109.317C67.445 108.85 66.9136 108.757 66.3004 108.664C65.5238 108.533 64.5428 108.328 64.5428 107.415C64.5428 106.706 65.3194 106.166 66.3004 106.166C67.0975 106.166 67.7924 106.464 68.099 107.06L67.445 107.34C67.2406 106.986 66.8318 106.762 66.2596 106.762C65.7282 106.762 65.299 107.023 65.299 107.377C65.299 107.844 65.8508 107.937 66.4844 108.049C67.261 108.179 68.2012 108.384 68.2012 109.298C68.2012 110.062 67.3836 110.584 66.3413 110.584C65.4625 110.584 64.7267 110.267 64.4202 109.671L64.461 109.652ZM68.9778 110.491V105.923H69.734V107.713C70.0201 107.452 70.4902 107.284 71.0012 107.284C72.1048 107.284 72.7384 107.9 72.7384 108.85V110.491H71.9822V108.925C71.9822 108.366 71.6143 107.881 70.899 107.881C70.2245 107.881 69.7544 108.328 69.7544 108.944V110.491H68.9982H68.9778ZM73.2084 108.906C73.2084 108.011 73.9851 107.266 75.1296 107.266C76.2741 107.266 76.9894 107.955 76.9894 108.832V109.093H73.9646C74.0464 109.634 74.5369 110.006 75.2318 110.006C75.7019 110.006 76.1106 109.839 76.3354 109.503L76.9281 109.745C76.6011 110.286 75.988 110.566 75.2522 110.566C74.1077 110.566 73.2493 109.876 73.2493 108.906H73.2084ZM76.2128 108.683C76.1719 108.179 75.7427 107.844 75.1092 107.844C74.4756 107.844 74.0464 108.216 73.9646 108.683H76.1924H76.2128ZM78.4405 105.923V110.491H77.6843V105.923H78.4405ZM80.2186 105.923V110.491H79.4624V105.923H80.2186ZM83.7748 110.491C83.2434 110.491 83.039 110.267 83.039 109.895V106.781C83.039 106.408 83.223 106.184 83.7748 106.184H86.6157V106.781H83.8361V108.03H86.4726V108.627H83.8361V109.876H86.677V110.473H83.7748V110.491ZM87.0244 108.925C87.0244 108.03 87.9237 107.284 89.0069 107.284C89.7018 107.284 90.3353 107.545 90.6828 108.105L90.0492 108.403C89.8244 108.067 89.4361 107.881 89.0069 107.881C88.3324 107.881 87.801 108.347 87.801 108.925C87.801 109.503 88.3529 109.969 89.0069 109.969C89.4565 109.969 89.8244 109.783 90.0492 109.447L90.6828 109.727C90.3353 110.305 89.7018 110.547 89.0069 110.547C87.9237 110.547 87.0244 109.82 87.0244 108.906V108.925ZM90.8463 108.925C90.8463 108.03 91.7455 107.284 92.8696 107.284C93.9937 107.284 94.8725 108.03 94.8725 108.925C94.8725 109.82 93.9937 110.584 92.8696 110.584C91.7455 110.584 90.8463 109.839 90.8463 108.925ZM94.1163 108.925C94.1163 108.347 93.585 107.881 92.8696 107.881C92.1543 107.881 91.6025 108.347 91.6025 108.925C91.6025 109.503 92.1543 109.969 92.8696 109.969C93.585 109.969 94.1163 109.503 94.1163 108.925ZM98.3265 108.813H95.6492V108.235H98.3265V108.813ZM105.807 108.85V110.51H105.051V108.962C105.051 108.384 104.703 107.9 104.008 107.9C103.313 107.9 102.966 108.384 102.966 108.962V110.528H102.21V108.962C102.21 108.384 101.862 107.9 101.167 107.9C100.473 107.9 100.145 108.403 100.145 108.962V110.51H99.3893V108.869C99.3893 107.993 100.002 107.284 101.127 107.284C101.883 107.284 102.435 107.601 102.618 108.086C102.823 107.601 103.354 107.284 104.09 107.284C105.235 107.284 105.848 107.993 105.848 108.85H105.807ZM106.277 108.925C106.277 108.03 107.135 107.284 108.3 107.284C109.465 107.284 110.324 107.993 110.324 108.925V110.491H109.588V109.932C109.302 110.323 108.791 110.566 108.178 110.566C107.074 110.566 106.277 109.82 106.277 108.906V108.925ZM109.547 108.925C109.547 108.347 109.016 107.881 108.3 107.881C107.585 107.881 107.053 108.347 107.053 108.925C107.053 109.503 107.605 109.969 108.3 109.969C108.995 109.969 109.547 109.503 109.547 108.925ZM111.018 110.491V108.627C111.018 107.862 111.55 107.303 112.531 107.303C112.776 107.303 113.021 107.34 113.205 107.415V108.049C113.021 107.955 112.797 107.918 112.592 107.918C112.081 107.918 111.775 108.198 111.775 108.664V110.51H111.018V110.491ZM113.164 108.925C113.164 108.03 114.023 107.284 115.188 107.284C116.353 107.284 117.211 107.993 117.211 108.925V110.491H116.475V109.932C116.189 110.323 115.678 110.566 115.065 110.566C113.961 110.566 113.164 109.82 113.164 108.906V108.925ZM116.434 108.925C116.434 108.347 115.903 107.881 115.188 107.881C114.472 107.881 113.941 108.347 113.941 108.925C113.941 109.503 114.493 109.969 115.188 109.969C115.883 109.969 116.434 109.503 116.434 108.925ZM118.192 109.372V107.918H117.436V107.377H118.192V106.557H118.948V107.377H120.399V107.918H118.948V109.354C118.948 109.764 119.234 110.006 119.705 110.006C119.95 110.006 120.215 109.932 120.399 109.82V110.398C120.215 110.51 119.909 110.584 119.623 110.584C118.683 110.584 118.172 110.1 118.172 109.372H118.192ZM121.156 110.491V105.923H121.912V107.713C122.198 107.452 122.668 107.284 123.179 107.284C124.283 107.284 124.916 107.9 124.916 108.85V110.491H124.16V108.925C124.16 108.366 123.792 107.881 123.077 107.881C122.402 107.881 121.932 108.328 121.932 108.944V110.491H121.176H121.156ZM125.386 108.925C125.386 108.03 126.285 107.284 127.41 107.284C128.534 107.284 129.412 108.03 129.412 108.925C129.412 109.82 128.534 110.584 127.41 110.584C126.285 110.584 125.386 109.839 125.386 108.925ZM128.656 108.925C128.656 108.347 128.125 107.881 127.41 107.881C126.694 107.881 126.142 108.347 126.142 108.925C126.142 109.503 126.694 109.969 127.41 109.969C128.125 109.969 128.656 109.503 128.656 108.925ZM130.659 108.981V110.491H129.903V108.906C129.903 107.993 130.557 107.266 131.783 107.266C133.01 107.266 133.684 107.974 133.684 108.888V110.473H132.928V108.962C132.928 108.366 132.539 107.862 131.783 107.862C131.027 107.862 130.68 108.366 130.68 108.944L130.659 108.981ZM137.363 106.725C137.526 106.315 137.894 106.128 138.323 106.128C138.753 106.128 139.141 106.315 139.304 106.725L140.715 110.491H139.918L139.529 109.447H137.118L136.729 110.491H135.932L137.342 106.725H137.363ZM137.342 108.869H139.325L138.63 106.93C138.569 106.799 138.487 106.725 138.344 106.725C138.18 106.725 138.099 106.781 138.058 106.93L137.363 108.869H137.342ZM140.98 109.876L141.573 109.615C141.757 109.932 142.084 110.044 142.493 110.044C142.901 110.044 143.249 109.895 143.249 109.615C143.249 108.962 141.082 109.447 141.082 108.254C141.082 107.694 141.675 107.303 142.493 107.303C143.188 107.303 143.678 107.564 143.923 107.937L143.331 108.216C143.167 107.937 142.861 107.844 142.513 107.844C142.166 107.844 141.839 107.993 141.839 108.254C141.839 108.888 144.005 108.422 144.005 109.615C144.005 110.212 143.31 110.584 142.513 110.584C141.818 110.584 141.266 110.361 140.98 109.895V109.876ZM144.598 106.333C144.598 106.11 144.823 105.904 145.109 105.904C145.395 105.904 145.599 106.091 145.599 106.333C145.599 106.576 145.374 106.744 145.109 106.744C144.843 106.744 144.598 106.557 144.598 106.333ZM145.477 107.359V110.491H144.72V107.359H145.477ZM146.11 108.925C146.11 108.03 146.969 107.284 148.134 107.284C149.298 107.284 150.157 107.993 150.157 108.925V110.491H149.421V109.932C149.135 110.323 148.624 110.566 148.011 110.566C146.907 110.566 146.11 109.82 146.11 108.906V108.925ZM149.38 108.925C149.38 108.347 148.849 107.881 148.134 107.881C147.418 107.881 146.887 108.347 146.887 108.925C146.887 109.503 147.439 109.969 148.134 109.969C148.828 109.969 149.38 109.503 149.38 108.925ZM152.896 110.491V106.203H154.551C155.941 106.203 156.84 106.725 156.84 107.713C156.84 108.701 155.92 109.242 154.592 109.242H153.693V110.473H152.896V110.491ZM153.693 106.818V108.664H154.571C155.43 108.664 156.043 108.384 156.043 107.732C156.043 107.079 155.45 106.818 154.571 106.818H153.693ZM157.024 108.925C157.024 108.03 157.882 107.284 159.047 107.284C160.212 107.284 161.071 107.993 161.071 108.925V110.491H160.335V109.932C160.049 110.323 159.538 110.566 158.925 110.566C157.821 110.566 157.024 109.82 157.024 108.906V108.925ZM160.294 108.925C160.294 108.347 159.763 107.881 159.047 107.881C158.332 107.881 157.801 108.347 157.801 108.925C157.801 109.503 158.352 109.969 159.047 109.969C159.742 109.969 160.294 109.503 160.294 108.925ZM161.52 108.925C161.52 108.03 162.42 107.284 163.503 107.284C164.198 107.284 164.831 107.545 165.179 108.105L164.545 108.403C164.32 108.067 163.932 107.881 163.503 107.881C162.828 107.881 162.297 108.347 162.297 108.925C162.297 109.503 162.849 109.969 163.503 109.969C163.952 109.969 164.32 109.783 164.545 109.447L165.179 109.727C164.831 110.305 164.198 110.547 163.503 110.547C162.42 110.547 161.52 109.82 161.52 108.906V108.925ZM165.608 106.333C165.608 106.11 165.833 105.904 166.119 105.904C166.405 105.904 166.609 106.091 166.609 106.333C166.609 106.576 166.385 106.744 166.119 106.744C165.853 106.744 165.608 106.557 165.608 106.333ZM166.507 107.359V110.491H165.751V107.359H166.507ZM167.774 110.491V107.9H167.059V107.359H167.774V107.023C167.774 106.352 168.285 105.867 169.225 105.867C169.471 105.867 169.716 105.904 169.92 105.979V106.594C169.736 106.501 169.512 106.445 169.307 106.445C168.837 106.445 168.551 106.613 168.551 107.042V107.359H170.881V110.491H170.125V107.9H168.571V110.491H167.815H167.774ZM171.371 108.925C171.371 108.03 172.271 107.284 173.354 107.284C174.049 107.284 174.682 107.545 175.03 108.105L174.396 108.403C174.171 108.067 173.783 107.881 173.354 107.881C172.679 107.881 172.148 108.347 172.148 108.925C172.148 109.503 172.7 109.969 173.354 109.969C173.803 109.969 174.171 109.783 174.396 109.447L175.03 109.727C174.682 110.305 174.049 110.547 173.354 110.547C172.271 110.547 171.371 109.82 171.371 108.906V108.925ZM75.4362 116.588C75.4362 115.693 76.2945 114.947 77.4595 114.947C78.6245 114.947 79.4828 115.656 79.4828 116.588V118.154H78.7471V117.595C78.461 117.987 77.95 118.229 77.3369 118.229C76.2332 118.229 75.4362 117.483 75.4362 116.569V116.588ZM78.7062 116.588C78.7062 116.01 78.1748 115.544 77.4595 115.544C76.7442 115.544 76.2128 116.01 76.2128 116.588C76.2128 117.166 76.7646 117.632 77.4595 117.632C78.1544 117.632 78.7062 117.166 78.7062 116.588ZM80.9544 116.644V118.154H80.1982V116.569C80.1982 115.656 80.8522 114.929 82.0785 114.929C83.3047 114.929 83.9792 115.637 83.9792 116.551V118.136H83.223V116.625C83.223 116.029 82.8347 115.525 82.0785 115.525C81.3223 115.525 80.9748 116.029 80.9748 116.607L80.9544 116.644ZM84.4492 116.607C84.4492 115.656 85.2872 114.947 86.4317 114.947C86.9427 114.947 87.4127 115.134 87.7193 115.413V113.586H88.4959V116.607C88.4959 117.539 87.6171 118.248 86.4726 118.248C85.3281 118.248 84.4492 117.52 84.4492 116.607ZM87.7193 116.588C87.7193 116.01 87.1879 115.544 86.4726 115.544C85.7573 115.544 85.2259 116.01 85.2259 116.588C85.2259 117.166 85.7777 117.632 86.4726 117.632C87.1675 117.632 87.7193 117.166 87.7193 116.588ZM94.5455 114.481H92.9514V118.173H92.1543V114.481H90.5602V113.885H94.5251V114.481H94.5455ZM94.9747 118.173V113.605H95.7309V115.395C96.0171 115.134 96.4871 114.966 96.9981 114.966C98.1017 114.966 98.7353 115.581 98.7353 116.532V118.173H97.9791V116.607C97.9791 116.047 97.6112 115.563 96.8959 115.563C96.2214 115.563 95.7514 116.01 95.7514 116.625V118.173H94.9952H94.9747ZM99.2054 116.569C99.2054 115.675 99.982 114.929 101.127 114.929C102.271 114.929 102.986 115.619 102.986 116.495V116.756H99.9616C100.043 117.297 100.534 117.67 101.229 117.67C101.699 117.67 102.108 117.502 102.332 117.166L102.925 117.409C102.598 117.949 101.985 118.229 101.249 118.229C100.105 118.229 99.2462 117.539 99.2462 116.569H99.2054ZM102.21 116.346C102.169 115.842 101.74 115.507 101.106 115.507C100.473 115.507 100.043 115.88 99.9616 116.346H102.189H102.21ZM105.194 118.173L105.929 114.369C105.991 113.996 106.318 113.791 106.747 113.791C107.115 113.791 107.442 113.941 107.544 114.276L108.545 117.259C108.545 117.259 108.586 117.334 108.607 117.334C108.648 117.334 108.668 117.315 108.689 117.259L109.67 114.276C109.772 113.941 110.119 113.791 110.487 113.791C110.896 113.791 111.223 113.996 111.284 114.369L111.938 118.154H111.141L110.569 114.574C110.569 114.574 110.528 114.425 110.446 114.425C110.385 114.425 110.324 114.463 110.303 114.556L109.24 117.632C109.159 117.893 108.913 118.024 108.607 118.024C108.321 118.024 108.075 117.893 107.973 117.651L106.91 114.556C106.91 114.556 106.849 114.425 106.767 114.425C106.686 114.425 106.645 114.463 106.624 114.574L105.991 118.154H105.194V118.173ZM112.551 113.996C112.551 113.773 112.776 113.568 113.062 113.568C113.348 113.568 113.553 113.754 113.553 113.996C113.553 114.239 113.328 114.407 113.062 114.407C112.797 114.407 112.551 114.22 112.551 113.996ZM113.451 115.022V118.154H112.694V115.022H113.451ZM114.064 116.607C114.064 115.656 114.902 114.947 116.046 114.947C116.557 114.947 117.027 115.134 117.334 115.413V113.586H118.11V116.607C118.11 117.539 117.232 118.248 116.087 118.248C114.942 118.248 114.064 117.52 114.064 116.607ZM117.334 116.588C117.334 116.01 116.802 115.544 116.087 115.544C115.372 115.544 114.84 116.01 114.84 116.588C114.84 117.166 115.392 117.632 116.087 117.632C116.782 117.632 117.334 117.166 117.334 116.588ZM118.58 116.607C118.58 115.656 119.418 114.947 120.563 114.947C121.074 114.947 121.544 115.134 121.85 115.413V113.586H122.627V116.607C122.627 117.539 121.748 118.248 120.604 118.248C119.459 118.248 118.58 117.52 118.58 116.607ZM121.85 116.588C121.85 116.01 121.319 115.544 120.604 115.544C119.888 115.544 119.357 116.01 119.357 116.588C119.357 117.166 119.909 117.632 120.604 117.632C121.299 117.632 121.85 117.166 121.85 116.588ZM124.242 113.586V118.154H123.486V113.586H124.242ZM124.855 116.569C124.855 115.675 125.631 114.929 126.776 114.929C127.921 114.929 128.636 115.619 128.636 116.495V116.756H125.611C125.693 117.297 126.183 117.67 126.878 117.67C127.348 117.67 127.757 117.502 127.982 117.166L128.575 117.409C128.248 117.949 127.634 118.229 126.899 118.229C125.754 118.229 124.896 117.539 124.896 116.569H124.855ZM127.88 116.346C127.839 115.842 127.41 115.507 126.776 115.507C126.142 115.507 125.713 115.88 125.631 116.346H127.859H127.88ZM131.865 118.173C131.334 118.173 131.129 117.949 131.129 117.576V114.463C131.129 114.09 131.313 113.866 131.865 113.866H134.706V114.463H131.926V115.712H134.563V116.308H131.926V117.558H134.767V118.154H131.865V118.173ZM135.115 116.588C135.115 115.693 135.973 114.947 137.138 114.947C138.303 114.947 139.161 115.656 139.161 116.588V118.154H138.426V117.595C138.139 117.987 137.628 118.229 137.015 118.229C135.912 118.229 135.115 117.483 135.115 116.569V116.588ZM138.385 116.588C138.385 116.01 137.853 115.544 137.138 115.544C136.423 115.544 135.891 116.01 135.891 116.588C135.891 117.166 136.443 117.632 137.138 117.632C137.833 117.632 138.385 117.166 138.385 116.588ZM139.693 117.539L140.285 117.278C140.469 117.595 140.796 117.707 141.205 117.707C141.614 117.707 141.961 117.558 141.961 117.278C141.961 116.625 139.795 117.11 139.795 115.917C139.795 115.358 140.388 114.966 141.205 114.966C141.9 114.966 142.391 115.227 142.636 115.6L142.043 115.88C141.88 115.6 141.573 115.507 141.226 115.507C140.878 115.507 140.551 115.656 140.551 115.917C140.551 116.551 142.718 116.085 142.718 117.278C142.718 117.875 142.023 118.248 141.226 118.248C140.531 118.248 139.979 118.024 139.693 117.558V117.539ZM143.535 117.036V115.581H142.779V115.041H143.535V114.22H144.291V115.041H145.742V115.581H144.291V117.017C144.291 117.427 144.577 117.67 145.047 117.67C145.293 117.67 145.558 117.595 145.742 117.483V118.061C145.558 118.173 145.252 118.248 144.966 118.248C144.026 118.248 143.515 117.763 143.515 117.036H143.535ZM148.808 118.173C148.338 118.173 148.093 117.949 148.093 117.67C148.093 117.464 148.195 117.297 148.42 117.129L149.953 115.991C150.382 115.675 150.607 115.432 150.607 115.078C150.607 114.686 150.218 114.425 149.707 114.425C149.196 114.425 148.788 114.686 148.542 115.078L147.929 114.798C148.277 114.22 148.91 113.81 149.748 113.81C150.709 113.81 151.383 114.351 151.383 115.041C151.383 115.563 151.097 115.954 150.627 116.308L149.094 117.427C149.094 117.427 148.992 117.502 148.992 117.539C148.992 117.558 148.992 117.576 149.033 117.576H151.526V118.173H148.788H148.808ZM151.935 116.01C151.935 114.761 152.773 113.791 154.02 113.791C155.266 113.791 156.104 114.742 156.104 116.01C156.104 117.278 155.266 118.248 154.02 118.248C152.773 118.248 151.935 117.259 151.935 116.01ZM155.287 116.01C155.287 115.134 154.755 114.463 154.02 114.463C153.284 114.463 152.752 115.134 152.752 116.01C152.752 116.886 153.284 117.576 154.02 117.576C154.755 117.576 155.287 116.886 155.287 116.01ZM157.331 118.173C156.86 118.173 156.615 117.949 156.615 117.67C156.615 117.464 156.717 117.297 156.942 117.129L158.475 115.991C158.904 115.675 159.129 115.432 159.129 115.078C159.129 114.686 158.741 114.425 158.23 114.425C157.719 114.425 157.31 114.686 157.065 115.078L156.452 114.798C156.799 114.22 157.433 113.81 158.271 113.81C159.231 113.81 159.906 114.351 159.906 115.041C159.906 115.563 159.62 115.954 159.15 116.308L157.617 117.427C157.617 117.427 157.514 117.502 157.514 117.539C157.514 117.558 157.514 117.576 157.555 117.576H160.049V118.173H157.31H157.331ZM160.396 117.446L161.05 117.11C161.234 117.483 161.663 117.651 162.133 117.651C162.685 117.651 163.114 117.334 163.114 116.886C163.114 116.402 162.706 116.178 162.093 116.178H161.316C160.846 116.178 160.58 115.954 160.58 115.581V113.866H163.605V114.463H161.295V115.525C161.295 115.525 161.357 115.619 161.418 115.619H162.215C163.258 115.619 163.891 116.029 163.891 116.868C163.891 117.707 163.155 118.248 162.133 118.248C161.377 118.248 160.703 117.968 160.396 117.446Z" fill="#966034"/>
</g>
<defs>
<clipPath id="clip0_351_8124">
<rect width="239" height="120" fill="white"/>
</clipPath>
</defs>
</svg>
