<svg width="240" height="120" viewBox="0 0 240 120" fill="none" xmlns="http://www.w3.org/2000/svg">
<g clip-path="url(#clip0_351_6571)">
<path d="M89.1739 58.3407V20.4538C89.1739 20.4538 88.9892 20.5284 88.9071 20.603L74.9512 26.7186L68.7942 16.2214L85.8696 8.81929C88.8045 7.53278 92.0266 6.56323 94.7768 6.56323C99.4561 6.56323 102.576 9.13626 102.576 13.667V58.3594H89.1739V58.3407Z" fill="#EBAA01"/>
<path d="M108.445 40.9073L110.723 39.8631C111.175 40.5716 111.893 40.87 112.96 40.87C113.946 40.87 114.582 40.553 114.582 40.0309C114.582 38.6139 108.712 39.8445 108.712 36.4511C108.712 34.8662 110.395 33.6357 113.043 33.6357C115.341 33.6357 116.716 34.5306 117.373 35.5375L115.095 36.5816C114.746 35.9476 113.966 35.6493 113.104 35.6493C112.345 35.6493 111.791 35.9476 111.791 36.4138C111.791 37.8308 117.66 36.6935 117.66 39.9936C117.66 41.7649 115.567 42.9023 113.125 42.9023C110.908 42.9023 109.348 42.2311 108.466 40.9073H108.445ZM119.569 39.1733V36.0036H117.599V33.878H119.569V31.6406H122.647V33.878H126.424V36.0036H122.647V39.1173C122.647 40.0869 123.366 40.6649 124.474 40.6649C125.11 40.6649 125.89 40.4971 126.424 40.236V42.4921C125.89 42.7718 124.946 42.9209 124.207 42.9209C121.108 42.9209 119.589 41.392 119.589 39.1919L119.569 39.1733ZM109.574 58.3404V46.3889H114.705C118.83 46.3889 121.354 47.9737 121.354 50.7332C121.354 53.4927 118.871 55.1708 114.869 55.1708H112.735V58.3218H109.574V58.3404ZM112.714 48.7941V52.7842H114.766C116.839 52.7842 118.091 52.1316 118.091 50.7332C118.091 49.3348 116.839 48.7755 114.766 48.7755H112.714V48.7941ZM125.151 55.9539H131.945V58.3591H124.802C122.791 58.3591 122.011 57.5014 122.011 56.1403V46.4076H125.172V55.9539H125.151ZM136.706 48.0856C137.199 46.7805 138.491 46.1652 139.867 46.1652C141.242 46.1652 142.555 46.7805 143.048 48.0856L146.886 58.3404H143.663L142.822 55.8979H136.932L136.09 58.3404H132.868L136.706 48.0856ZM137.732 53.5859H141.98L140.339 48.8501C140.256 48.6077 140.113 48.4958 139.867 48.4958C139.62 48.4958 139.477 48.6077 139.395 48.8501L137.732 53.5859ZM146.29 52.3926C146.29 48.9247 149.595 46.1838 153.822 46.1838C156.347 46.1838 158.769 47.2839 159.856 49.1484L157.291 50.3417C156.573 49.3162 155.464 48.6636 153.699 48.6636C151.278 48.6636 149.533 50.2485 149.533 52.4113C149.533 54.5741 151.257 56.159 153.699 56.159C155.444 56.159 156.614 55.5064 157.291 54.4809L159.856 55.6742C158.769 57.5387 156.347 58.6388 153.822 58.6388C149.595 58.6388 146.29 55.8793 146.29 52.4299V52.3926ZM163.263 58.3404C161.252 58.3404 160.472 57.4828 160.472 56.1217V48.6263C160.472 47.2652 161.252 46.3889 163.263 46.3889H170.959V48.7196H163.633V51.1994H170.508V53.53H163.633V56.0098H171.083V58.3404H163.263Z" fill="#EBAA01"/>
<path d="M56.4187 116.234C54.8179 117.763 45.7465 112.561 42.8322 108.086C42.8322 108.086 41.2109 105.625 40.862 102.157C40.8209 101.84 40.862 101.504 40.9236 101.187C40.9646 100.982 41.0877 100.796 41.293 100.311C41.7034 100.441 42.155 100.516 42.5654 100.628C42.5654 100.628 43.1606 100.814 43.7352 101.094C49.8102 103.965 53.648 109.783 53.648 109.783C55.4951 112.579 57.3217 115.357 56.4187 116.234Z" fill="#EBAA01"/>
<path d="M30.2925 12.8838C30.785 4.71722 42.0524 -1.80857 52.3551 0.447486C46.1775 6.56308 40.3079 12.4736 30.2925 12.8838Z" fill="#EBAA01"/>
<path d="M17.3423 85.9912C10.898 78.1976 11.4316 69.4903 18.4096 64.2883C22.74 71.6345 19.2305 78.4586 17.3423 85.9912Z" fill="#EBAA01"/>
<path d="M11.1851 70.87C7.28564 61.8271 10.3847 53.4182 18.553 50.1553C20.5232 58.3218 15.1461 64.1205 11.1851 70.87Z" fill="#EBAA01"/>
<path d="M13.0527 38.4276C14.0173 29.5712 22.4114 22.9708 30.4155 24.5557C29.2046 29.7017 23.0271 34.68 13.0527 38.4276Z" fill="#EBAA01"/>
<path d="M9.8514 54.5556C8.43529 45.1958 14.5307 36.8614 22.8222 36.7495C22.1038 44.8601 15.5569 49.2231 9.8514 54.5556Z" fill="#EBAA01"/>
<path d="M42.0523 14.5804C36.8394 21.4231 28.6711 22.1689 20.9954 24.164C22.3909 17.4517 34.1919 10.6276 42.0523 14.5804Z" fill="#EBAA01"/>
<path d="M22.5346 78.0857C28.5274 84.1267 27.3576 91.4729 27.5834 98.7445C19.2098 94.3629 16.9112 82.6165 22.5346 78.0857Z" fill="#EBAA01"/>
<path d="M25.1204 99.919C16.7469 99.9563 8.55805 93.2441 6.69043 84.7979C15.8233 86.7183 20.6874 93.039 25.1204 99.919Z" fill="#EBAA01"/>
<path d="M41.3547 109.465C31.7087 105.829 27.5425 98.6511 29.9848 90.0557C37.8042 94.6237 38.7482 102.026 41.3547 109.465Z" fill="#EBAA01"/>
<path d="M55.6797 117.8C49.5842 122.61 35.9362 118.806 31.5032 113.25C40.4924 110.603 48.086 114.276 55.6797 117.8Z" fill="#EBAA01"/>
<path d="M6.30079 30.895C11.2264 38.3717 9.70767 45.8857 7.53219 53.4183C1.5599 49.2418 0.985247 39.6023 6.30079 30.895Z" fill="#EBAA01"/>
<path d="M16.5006 15.3076C19.2712 23.5488 15.0845 30.3729 11.1645 37.0851C6.42361 32.0882 9.13269 20.6028 16.5006 15.3076Z" fill="#EBAA01"/>
<path d="M8.84571 70.3854C1.45731 66.7682 -2.03166 56.9609 1.21103 48.8689C8.37367 54.7235 8.12739 62.7036 8.84571 70.3854Z" fill="#EBAA01"/>
<path d="M19.2305 22.4487C16.2751 16.1093 22.781 5.40704 31.3187 2.27466C29.5127 7.51394 29.8 13.0142 24.6281 16.7619C22.5758 18.2535 21.1392 20.4164 19.2305 22.4673V22.4487Z" fill="#EBAA01"/>
<path d="M1.23115 67.1038C9.64572 71.1684 12.2317 78.4959 14.6534 85.7862C7.44972 85.32 0.635975 75.9975 1.23115 67.1038Z" fill="#EBAA01"/>
<path d="M39.2409 110.77C30.8263 112.728 21.8781 108.533 16.4805 99.8071C21.2214 101.019 25.6955 101.522 29.4102 103.294C33.0223 105.028 35.834 108.104 39.2614 110.77H39.2409Z" fill="#EBAA01"/>
<path d="M183.581 116.234C185.182 117.763 194.254 112.561 197.168 108.086C197.168 108.086 198.789 105.625 199.138 102.157C199.179 101.84 199.138 101.504 199.077 101.187C199.035 100.982 198.912 100.796 198.707 100.311C198.297 100.441 197.845 100.516 197.435 100.628C197.435 100.628 196.839 100.814 196.265 101.094C190.19 103.965 186.352 109.783 186.352 109.783C184.505 112.579 182.678 115.357 183.581 116.234Z" fill="#EBAA01"/>
<path d="M209.708 12.8838C209.215 4.71722 197.948 -1.80857 187.645 0.447486C193.823 6.56308 199.692 12.4736 209.708 12.8838Z" fill="#EBAA01"/>
<path d="M222.658 85.9912C229.102 78.1976 228.569 69.4903 221.591 64.2883C217.26 71.6345 220.77 78.4586 222.658 85.9912Z" fill="#EBAA01"/>
<path d="M228.815 70.8702C232.714 61.8274 229.615 53.4184 221.447 50.1555C219.477 58.3221 224.854 64.1207 228.815 70.8702Z" fill="#EBAA01"/>
<path d="M226.947 38.4276C225.983 29.5712 217.589 22.9708 209.584 24.5557C210.795 29.7017 216.973 34.68 226.947 38.4276Z" fill="#EBAA01"/>
<path d="M230.149 54.5556C231.565 45.1958 225.47 36.8614 217.178 36.7495C217.897 44.8601 224.444 49.2231 230.149 54.5556Z" fill="#EBAA01"/>
<path d="M197.948 14.5804C203.161 21.4231 211.329 22.1689 219.005 24.164C217.609 17.4517 205.808 10.6276 197.948 14.5804Z" fill="#EBAA01"/>
<path d="M217.465 78.0857C211.473 84.1267 212.643 91.4729 212.417 98.7445C220.79 94.3629 223.089 82.6165 217.465 78.0857Z" fill="#EBAA01"/>
<path d="M214.88 99.9193C223.253 99.9566 231.442 93.2443 233.31 84.7981C224.177 86.7185 219.313 93.0392 214.88 99.9193Z" fill="#EBAA01"/>
<path d="M198.646 109.466C208.291 105.83 212.458 98.6516 210.015 90.0562C202.196 94.6242 201.252 102.026 198.646 109.466Z" fill="#EBAA01"/>
<path d="M184.32 117.8C190.416 122.61 204.064 118.806 208.497 113.25C199.508 110.603 191.914 114.276 184.32 117.8Z" fill="#EBAA01"/>
<path d="M233.7 30.8953C228.774 38.372 230.293 45.8859 232.468 53.4186C238.44 49.2421 239.015 39.6025 233.7 30.8953Z" fill="#EBAA01"/>
<path d="M223.5 15.3076C220.729 23.5488 224.916 30.3729 228.836 37.0851C233.577 32.0882 230.867 20.6028 223.5 15.3076Z" fill="#EBAA01"/>
<path d="M231.155 70.3854C238.543 66.7682 242.032 56.9609 238.789 48.8689C231.627 54.7235 231.873 62.7036 231.155 70.3854Z" fill="#EBAA01"/>
<path d="M220.77 22.4487C223.725 16.1093 217.219 5.40704 208.681 2.27466C210.487 7.51394 210.2 13.0142 215.372 16.7619C217.424 18.2535 218.861 20.4164 220.77 22.4673V22.4487Z" fill="#EBAA01"/>
<path d="M238.769 67.1038C230.355 71.1684 227.769 78.4959 225.347 85.7862C232.551 85.32 239.364 75.9975 238.769 67.1038Z" fill="#EBAA01"/>
<path d="M200.78 110.771C209.194 112.728 218.143 108.533 223.54 99.8074C218.799 101.019 214.325 101.523 210.61 103.294C206.998 105.028 204.187 108.104 200.759 110.771H200.78Z" fill="#EBAA01"/>
<path d="M67.3782 75.6993V65.9851H73.2889V75.5687C73.2889 78.2909 74.5613 79.4283 77.1883 79.4283C79.8153 79.4283 81.1083 78.2909 81.1083 75.5687V65.9851H87.019V75.6993C87.019 80.9572 83.92 84.015 77.1883 84.015C70.4567 84.015 67.3782 80.9385 67.3782 75.6993ZM90.0359 83.7167V65.9851H99.0662C104.177 65.9851 108.076 67.9615 108.076 71.8584C108.076 74.189 106.475 76.1094 103.951 76.762C105.039 77.34 105.736 78.3655 106.701 79.969L108.897 83.698H102.473L100.462 80.3605C99.723 79.1486 98.902 78.7011 96.9728 78.7011H95.8851L95.8441 83.698H89.9949L90.0359 83.7167ZM95.9467 70.46L95.9056 74.4314H99.0662C100.79 74.4314 102.001 73.6483 102.001 72.3804C102.001 71.038 100.79 70.46 99.1278 70.46H95.9261H95.9467ZM111.134 83.7167V65.9851H120.164C125.603 65.9851 128.846 67.9615 128.846 71.0007C128.846 72.9211 127.635 74.2263 125.747 74.9162C127.655 75.4382 129.01 76.5383 129.01 78.7011C129.01 82.0013 125.439 83.7167 120.164 83.7167H111.134ZM117.045 72.9957H120.493C122.155 72.9957 122.955 72.4177 122.955 71.3922C122.955 70.4973 122.196 69.9193 120.493 69.9193H117.045V72.9957ZM117.045 79.7825H120.493C122.155 79.7825 123.12 79.391 123.12 78.3655C123.12 77.2654 122.155 76.9485 120.493 76.9485H117.045V79.7825ZM135.064 68.8006C135.865 66.6191 138.102 65.5936 140.339 65.5936C142.576 65.5936 144.813 66.6191 145.613 68.8006L151.175 83.7167H145.141L144.156 80.7148H136.583L135.557 83.7167H129.523L135.085 68.8006H135.064ZM138.04 76.3891H142.678L140.626 70.2176C140.564 70.0311 140.503 69.9566 140.38 69.9566C140.257 69.9566 140.195 70.0311 140.133 70.2176L138.061 76.3891H138.04ZM152.427 83.7167V68.5955C152.427 66.7123 154.212 65.575 156.101 65.575C157.599 65.575 158.912 66.0038 159.672 66.992L167.265 76.8925V65.9851H172.848V81.1063C172.848 82.9895 171.062 84.1082 169.174 84.1082C167.696 84.1082 166.362 83.6794 165.603 82.6912L158.009 72.7906V83.7167H152.427Z" fill="#EBAA01"/>
<path d="M53.0117 95.1461C53.0117 91.6221 56.3775 88.8067 60.6875 88.8067C63.2734 88.8067 65.7362 89.9254 66.8239 91.8272L64.1969 93.0392C63.4786 91.9951 62.3293 91.3238 60.5438 91.3238C58.081 91.3238 56.2955 92.9273 56.2955 95.1461C56.2955 97.3648 58.0605 98.9683 60.5438 98.9683C62.3293 98.9683 63.5197 98.2971 64.1969 97.253L66.8239 98.4649C65.7157 100.367 63.2529 101.485 60.6875 101.485C56.3775 101.485 53.0117 98.6886 53.0117 95.1461ZM66.7624 95.1461C66.7624 91.5662 70.0871 88.8254 74.4586 88.8254C78.8301 88.8254 82.1959 91.5662 82.1959 95.1461C82.1959 98.7259 78.8506 101.467 74.4586 101.467C70.0666 101.467 66.7624 98.7446 66.7624 95.1461ZM78.8711 95.1461C78.8711 93.0019 76.9625 91.3238 74.4586 91.3238C71.9548 91.3238 70.0461 92.9832 70.0461 95.1461C70.0461 97.3089 71.9753 98.9683 74.4586 98.9683C76.9419 98.9683 78.8711 97.3089 78.8711 95.1461ZM83.6736 101.224V90.7085C83.6736 89.4966 84.7613 88.7881 85.9722 88.7881C86.9368 88.7881 87.7167 89.0864 88.1887 89.739L94.0379 97.9988V89.0491H97.0753V99.565C97.0753 100.777 95.9876 101.467 94.8383 101.467C93.8942 101.467 93.0733 101.187 92.6013 100.535L86.7521 92.2374V101.243H83.6941L83.6736 101.224ZM98.5941 95.1461C98.5941 91.6221 101.96 88.8067 106.27 88.8067C108.856 88.8067 111.319 89.9254 112.406 91.8272L109.779 93.0392C109.061 91.9951 107.912 91.3238 106.126 91.3238C103.663 91.3238 101.878 92.9273 101.878 95.1461C101.878 97.3648 103.643 98.9683 106.126 98.9683C107.912 98.9683 109.102 98.2971 109.779 97.253L112.406 98.4649C111.298 100.367 108.835 101.485 106.27 101.485C101.96 101.485 98.5941 98.6886 98.5941 95.1461ZM116.224 101.224C114.171 101.224 113.391 100.348 113.391 98.9683V91.3238C113.391 89.9254 114.192 89.0491 116.224 89.0491H124.064V91.417H116.593V93.9528H123.592V96.3207H116.593V98.8565H124.187V101.224H116.224ZM126.218 101.224V89.0491H131.431C135.639 89.0491 138.204 90.6526 138.204 93.4867C138.204 96.3207 135.68 98.0174 131.596 98.0174H129.42V101.224H126.198H126.218ZM129.441 91.4916V95.5563H131.534C133.648 95.5563 134.92 94.885 134.92 93.468C134.92 92.051 133.648 91.473 131.534 91.473H129.441V91.4916ZM149.985 91.4916H145.634V101.224H142.411V91.4916H138.06V89.0491H149.985V91.4916ZM159.507 89.0491V101.224H156.285V89.0491H159.507ZM161.129 95.1461C161.129 91.6221 164.495 88.8067 168.804 88.8067C171.39 88.8067 173.853 89.9254 174.941 91.8272L172.314 93.0392C171.596 91.9951 170.446 91.3238 168.661 91.3238C166.198 91.3238 164.412 92.9273 164.412 95.1461C164.412 97.3648 166.177 98.9683 168.661 98.9683C170.446 98.9683 171.637 98.2971 172.314 97.253L174.941 98.4649C173.833 100.367 171.37 101.485 168.804 101.485C164.495 101.485 161.129 98.6886 161.129 95.1461ZM178.758 101.224C176.706 101.224 175.926 100.348 175.926 98.9683V91.3238C175.926 89.9254 176.726 89.0491 178.758 89.0491H186.598V91.417H179.128V93.9528H186.126V96.3207H179.128V98.8565H186.721V101.224H178.758Z" fill="#EBAA01"/>
<path d="M64.7305 108.738L65.4078 108.477C65.613 108.85 66.044 109.055 66.6597 109.055C67.2754 109.055 67.7269 108.813 67.7269 108.403C67.7269 107.937 67.1933 107.843 66.5776 107.75C65.7977 107.62 64.8126 107.415 64.8126 106.501C64.8126 105.792 65.5925 105.252 66.5776 105.252C67.378 105.252 68.0758 105.55 68.3837 106.147L67.7269 106.426C67.5217 106.072 67.1112 105.848 66.5365 105.848C66.0029 105.848 65.572 106.109 65.572 106.464C65.572 106.93 66.1261 107.023 66.7623 107.135C67.5422 107.265 68.4863 107.47 68.4863 108.384C68.4863 109.149 67.6653 109.671 66.6186 109.671C65.7361 109.671 64.9973 109.354 64.6895 108.757L64.7305 108.738ZM69.2662 109.577V105.009H70.0255V106.799C70.3128 106.538 70.7849 106.37 71.298 106.37C72.4062 106.37 73.0425 106.986 73.0425 107.937V109.577H72.2831V108.011C72.2831 107.452 71.9137 106.967 71.1954 106.967C70.5181 106.967 70.046 107.415 70.046 108.03V109.577H69.2867H69.2662ZM73.5145 107.993C73.5145 107.098 74.2944 106.352 75.4437 106.352C76.593 106.352 77.3113 107.042 77.3113 107.918V108.179H74.2739C74.3559 108.72 74.8485 109.093 75.5463 109.093C76.0183 109.093 76.4288 108.925 76.6546 108.589L77.2497 108.832C76.9214 109.372 76.3057 109.652 75.5668 109.652C74.4175 109.652 73.5555 108.962 73.5555 107.993H73.5145ZM76.5314 107.769C76.4904 107.265 76.0594 106.93 75.4232 106.93C74.7869 106.93 74.3559 107.303 74.2739 107.769H76.5109H76.5314ZM78.7479 105.009V109.577H77.9886V105.009H78.7479ZM80.554 105.009V109.577H79.7946V105.009H80.554ZM84.1251 109.577C83.5915 109.577 83.3862 109.354 83.3862 108.981V105.867C83.3862 105.494 83.5709 105.27 84.1251 105.27H86.9778V105.867H84.1866V107.116H86.8341V107.713H84.1866V108.962H87.0394V109.559H84.1251V109.577ZM87.3883 108.011C87.3883 107.116 88.2913 106.37 89.379 106.37C90.0768 106.37 90.7131 106.631 91.062 107.191L90.4257 107.489C90.2 107.153 89.81 106.967 89.379 106.967C88.7018 106.967 88.1682 107.433 88.1682 108.011C88.1682 108.589 88.7223 109.055 89.379 109.055C89.8306 109.055 90.2 108.869 90.4257 108.533L91.062 108.813C90.7131 109.391 90.0768 109.633 89.379 109.633C88.2913 109.633 87.3883 108.906 87.3883 107.993V108.011ZM91.2261 108.011C91.2261 107.116 92.1292 106.37 93.2579 106.37C94.3867 106.37 95.2692 107.116 95.2692 108.011C95.2692 108.906 94.3867 109.671 93.2579 109.671C92.1292 109.671 91.2261 108.925 91.2261 108.011ZM94.5099 108.011C94.5099 107.433 93.9763 106.967 93.2579 106.967C92.5396 106.967 91.9855 107.433 91.9855 108.011C91.9855 108.589 92.5396 109.055 93.2579 109.055C93.9763 109.055 94.5099 108.589 94.5099 108.011ZM98.7377 107.899H96.0491V107.321H98.7377V107.899ZM106.249 107.937V109.596H105.49V108.048C105.49 107.47 105.141 106.986 104.443 106.986C103.745 106.986 103.396 107.47 103.396 108.048V109.615H102.637V108.048C102.637 107.47 102.288 106.986 101.59 106.986C100.893 106.986 100.564 107.489 100.564 108.048V109.596H99.8049V107.955C99.8049 107.079 100.421 106.37 101.549 106.37C102.309 106.37 102.863 106.687 103.048 107.172C103.253 106.687 103.786 106.37 104.525 106.37C105.675 106.37 106.29 107.079 106.29 107.937H106.249ZM106.721 108.011C106.721 107.116 107.583 106.37 108.753 106.37C109.923 106.37 110.785 107.079 110.785 108.011V109.577H110.046V109.018C109.759 109.41 109.246 109.652 108.63 109.652C107.522 109.652 106.721 108.906 106.721 107.993V108.011ZM110.005 108.011C110.005 107.433 109.471 106.967 108.753 106.967C108.035 106.967 107.501 107.433 107.501 108.011C107.501 108.589 108.055 109.055 108.753 109.055C109.451 109.055 110.005 108.589 110.005 108.011ZM111.483 109.577V107.713C111.483 106.948 112.016 106.389 113.001 106.389C113.248 106.389 113.494 106.426 113.679 106.501V107.135C113.494 107.042 113.268 107.004 113.063 107.004C112.55 107.004 112.242 107.284 112.242 107.75V109.596H111.483V109.577ZM113.638 108.011C113.638 107.116 114.5 106.37 115.669 106.37C116.839 106.37 117.701 107.079 117.701 108.011V109.577H116.962V109.018C116.675 109.41 116.162 109.652 115.546 109.652C114.438 109.652 113.638 108.906 113.638 107.993V108.011ZM116.921 108.011C116.921 107.433 116.388 106.967 115.669 106.967C114.951 106.967 114.418 107.433 114.418 108.011C114.418 108.589 114.972 109.055 115.669 109.055C116.367 109.055 116.921 108.589 116.921 108.011ZM118.686 108.459V107.004H117.927V106.464H118.686V105.643H119.446V106.464H120.903V107.004H119.446V108.44C119.446 108.85 119.733 109.093 120.205 109.093C120.451 109.093 120.718 109.018 120.903 108.906V109.484C120.718 109.596 120.41 109.671 120.123 109.671C119.179 109.671 118.666 109.186 118.666 108.459H118.686ZM121.662 109.577V105.009H122.422V106.799C122.709 106.538 123.181 106.37 123.694 106.37C124.802 106.37 125.439 106.986 125.439 107.937V109.577H124.679V108.011C124.679 107.452 124.31 106.967 123.591 106.967C122.914 106.967 122.442 107.415 122.442 108.03V109.577H121.683H121.662ZM125.911 108.011C125.911 107.116 126.814 106.37 127.942 106.37C129.071 106.37 129.954 107.116 129.954 108.011C129.954 108.906 129.071 109.671 127.942 109.671C126.814 109.671 125.911 108.925 125.911 108.011ZM129.194 108.011C129.194 107.433 128.661 106.967 127.942 106.967C127.224 106.967 126.67 107.433 126.67 108.011C126.67 108.589 127.224 109.055 127.942 109.055C128.661 109.055 129.194 108.589 129.194 108.011ZM131.206 108.067V109.577H130.446V107.993C130.446 107.079 131.103 106.352 132.334 106.352C133.566 106.352 134.243 107.06 134.243 107.974V109.559H133.484V108.048C133.484 107.452 133.094 106.948 132.334 106.948C131.575 106.948 131.226 107.452 131.226 108.03L131.206 108.067ZM137.937 105.811C138.101 105.401 138.471 105.214 138.902 105.214C139.333 105.214 139.723 105.401 139.887 105.811L141.303 109.577H140.503L140.113 108.533H137.691L137.301 109.577H136.501L137.917 105.811H137.937ZM137.917 107.937H139.908L139.21 105.997C139.148 105.867 139.066 105.792 138.922 105.792C138.758 105.792 138.676 105.848 138.635 105.997L137.937 107.937H137.917ZM141.57 108.943L142.165 108.682C142.35 108.999 142.678 109.111 143.089 109.111C143.499 109.111 143.848 108.962 143.848 108.682C143.848 108.03 141.673 108.515 141.673 107.321C141.673 106.762 142.268 106.37 143.089 106.37C143.786 106.37 144.279 106.631 144.525 107.004L143.93 107.284C143.766 107.004 143.458 106.911 143.109 106.911C142.76 106.911 142.432 107.06 142.432 107.321C142.432 107.955 144.607 107.489 144.607 108.682C144.607 109.279 143.91 109.652 143.109 109.652C142.411 109.652 141.857 109.428 141.57 108.962V108.943ZM145.203 105.401C145.203 105.177 145.428 104.972 145.716 104.972C146.003 104.972 146.208 105.158 146.208 105.401C146.208 105.643 145.982 105.811 145.716 105.811C145.449 105.811 145.203 105.625 145.203 105.401ZM146.085 106.445V109.577H145.326V106.445H146.085ZM146.721 108.011C146.721 107.116 147.583 106.37 148.753 106.37C149.923 106.37 150.785 107.079 150.785 108.011V109.577H150.046V109.018C149.759 109.41 149.246 109.652 148.63 109.652C147.522 109.652 146.721 108.906 146.721 107.993V108.011ZM150.005 108.011C150.005 107.433 149.471 106.967 148.753 106.967C148.035 106.967 147.501 107.433 147.501 108.011C147.501 108.589 148.055 109.055 148.753 109.055C149.451 109.055 150.005 108.589 150.005 108.011ZM153.535 109.577V105.289H155.197C156.593 105.289 157.496 105.811 157.496 106.799C157.496 107.787 156.572 108.328 155.238 108.328H154.335V109.559H153.535V109.577ZM154.335 105.886V107.731H155.218C156.08 107.731 156.696 107.452 156.696 106.799C156.696 106.147 156.1 105.886 155.218 105.886H154.335ZM157.681 108.011C157.681 107.116 158.543 106.37 159.713 106.37C160.882 106.37 161.744 107.079 161.744 108.011V109.577H161.006V109.018C160.718 109.41 160.205 109.652 159.589 109.652C158.481 109.652 157.681 108.906 157.681 107.993V108.011ZM160.964 108.011C160.964 107.433 160.431 106.967 159.713 106.967C158.994 106.967 158.461 107.433 158.461 108.011C158.461 108.589 159.015 109.055 159.713 109.055C160.41 109.055 160.964 108.589 160.964 108.011ZM162.196 108.011C162.196 107.116 163.099 106.37 164.187 106.37C164.884 106.37 165.521 106.631 165.87 107.191L165.233 107.489C165.008 107.153 164.618 106.967 164.187 106.967C163.509 106.967 162.976 107.433 162.976 108.011C162.976 108.589 163.53 109.055 164.187 109.055C164.638 109.055 165.008 108.869 165.233 108.533L165.87 108.813C165.521 109.391 164.884 109.633 164.187 109.633C163.099 109.633 162.196 108.906 162.196 107.993V108.011ZM166.301 105.401C166.301 105.177 166.526 104.972 166.814 104.972C167.101 104.972 167.306 105.158 167.306 105.401C167.306 105.643 167.08 105.811 166.814 105.811C166.547 105.811 166.301 105.625 166.301 105.401ZM167.204 106.445V109.577H166.444V106.445H167.204ZM168.476 109.577V106.986H167.758V106.445H168.476V106.109C168.476 105.438 168.989 104.953 169.933 104.953C170.179 104.953 170.426 104.991 170.631 105.065V105.681C170.446 105.587 170.22 105.531 170.015 105.531C169.543 105.531 169.256 105.699 169.256 106.128V106.445H171.596V109.577H170.836V106.986H169.276V109.577H168.517H168.476ZM172.088 108.011C172.088 107.116 172.991 106.37 174.079 106.37C174.777 106.37 175.413 106.631 175.762 107.191L175.126 107.489C174.9 107.153 174.51 106.967 174.079 106.967C173.402 106.967 172.868 107.433 172.868 108.011C172.868 108.589 173.422 109.055 174.079 109.055C174.53 109.055 174.9 108.869 175.126 108.533L175.762 108.813C175.413 109.391 174.777 109.633 174.079 109.633C172.991 109.633 172.088 108.906 172.088 107.993V108.011ZM75.7515 115.674C75.7515 114.779 76.6135 114.034 77.7834 114.034C78.9532 114.034 79.8152 114.742 79.8152 115.674V117.241H79.0763V116.681C78.789 117.073 78.2759 117.315 77.6602 117.315C76.5519 117.315 75.7515 116.569 75.7515 115.656V115.674ZM79.0353 115.674C79.0353 115.096 78.5017 114.63 77.7834 114.63C77.065 114.63 76.5314 115.096 76.5314 115.674C76.5314 116.252 77.0856 116.718 77.7834 116.718C78.4811 116.718 79.0353 116.252 79.0353 115.674ZM81.2928 115.73V117.241H80.5335V115.656C80.5335 114.742 81.1902 114.015 82.4216 114.015C83.653 114.015 84.3303 114.723 84.3303 115.637V117.222H83.5709V115.712C83.5709 115.115 83.181 114.612 82.4216 114.612C81.6623 114.612 81.3134 115.115 81.3134 115.693L81.2928 115.73ZM84.8023 115.674C84.8023 114.723 85.6438 114.015 86.7931 114.015C87.3062 114.015 87.7782 114.201 88.0861 114.481V112.654H88.866V115.674C88.866 116.607 87.9835 117.315 86.8341 117.315C85.6848 117.315 84.8023 116.588 84.8023 115.674ZM88.0861 115.674C88.0861 115.096 87.5525 114.63 86.8341 114.63C86.1158 114.63 85.5822 115.096 85.5822 115.674C85.5822 116.252 86.1364 116.718 86.8341 116.718C87.5319 116.718 88.0861 116.252 88.0861 115.674ZM94.9409 113.567H93.34V117.259H92.5396V113.567H90.9388V112.971H94.9203V113.567H94.9409ZM95.3719 117.241V112.672H96.1312V114.462C96.4185 114.201 96.8906 114.034 97.4037 114.034C98.5119 114.034 99.1482 114.649 99.1482 115.6V117.241H98.3888V115.674C98.3888 115.115 98.0194 114.63 97.3011 114.63C96.6238 114.63 96.1517 115.078 96.1517 115.693V117.241H95.3924H95.3719ZM99.6202 115.656C99.6202 114.761 100.4 114.015 101.549 114.015C102.699 114.015 103.417 114.705 103.417 115.581V115.842H100.38C100.462 116.383 100.954 116.756 101.652 116.756C102.124 116.756 102.535 116.588 102.76 116.252L103.355 116.495C103.027 117.035 102.411 117.315 101.673 117.315C100.523 117.315 99.6612 116.625 99.6612 115.656H99.6202ZM102.637 115.432C102.596 114.929 102.165 114.593 101.529 114.593C100.893 114.593 100.462 114.966 100.38 115.432H102.617H102.637ZM105.634 117.259L106.372 113.456C106.434 113.083 106.762 112.878 107.193 112.878C107.563 112.878 107.891 113.027 107.994 113.362L108.999 116.346C108.999 116.346 109.04 116.42 109.061 116.42C109.102 116.42 109.123 116.401 109.143 116.346L110.128 113.362C110.231 113.027 110.58 112.878 110.949 112.878C111.36 112.878 111.688 113.083 111.749 113.456L112.406 117.241H111.606L111.031 113.661C111.031 113.661 110.99 113.511 110.908 113.511C110.846 113.511 110.785 113.549 110.764 113.642L109.697 116.718C109.615 116.979 109.369 117.11 109.061 117.11C108.774 117.11 108.527 116.979 108.425 116.737L107.357 113.642C107.357 113.642 107.296 113.511 107.214 113.511C107.132 113.511 107.091 113.549 107.07 113.661L106.434 117.241H105.634V117.259ZM113.022 113.064C113.022 112.84 113.248 112.635 113.535 112.635C113.822 112.635 114.028 112.822 114.028 113.064C114.028 113.306 113.802 113.474 113.535 113.474C113.268 113.474 113.022 113.288 113.022 113.064ZM113.925 114.108V117.241H113.166V114.108H113.925ZM114.541 115.674C114.541 114.723 115.382 114.015 116.531 114.015C117.045 114.015 117.517 114.201 117.824 114.481V112.654H118.604V115.674C118.604 116.607 117.722 117.315 116.572 117.315C115.423 117.315 114.541 116.588 114.541 115.674ZM117.824 115.674C117.824 115.096 117.291 114.63 116.572 114.63C115.854 114.63 115.321 115.096 115.321 115.674C115.321 116.252 115.875 116.718 116.572 116.718C117.27 116.718 117.824 116.252 117.824 115.674ZM119.076 115.674C119.076 114.723 119.918 114.015 121.067 114.015C121.58 114.015 122.052 114.201 122.36 114.481V112.654H123.14V115.674C123.14 116.607 122.257 117.315 121.108 117.315C119.959 117.315 119.076 116.588 119.076 115.674ZM122.36 115.674C122.36 115.096 121.826 114.63 121.108 114.63C120.39 114.63 119.856 115.096 119.856 115.674C119.856 116.252 120.41 116.718 121.108 116.718C121.806 116.718 122.36 116.252 122.36 115.674ZM124.761 112.672V117.241H124.002V112.672H124.761ZM125.377 115.656C125.377 114.761 126.157 114.015 127.306 114.015C128.455 114.015 129.174 114.705 129.174 115.581V115.842H126.136C126.218 116.383 126.711 116.756 127.409 116.756C127.881 116.756 128.291 116.588 128.517 116.252L129.112 116.495C128.784 117.035 128.168 117.315 127.429 117.315C126.28 117.315 125.418 116.625 125.418 115.656H125.377ZM128.414 115.432C128.373 114.929 127.942 114.593 127.306 114.593C126.67 114.593 126.239 114.966 126.157 115.432H128.394H128.414ZM132.416 117.241C131.883 117.241 131.678 117.017 131.678 116.644V113.53C131.678 113.157 131.862 112.933 132.416 112.933H135.269V113.53H132.478V114.779H135.126V115.376H132.478V116.625H135.331V117.222H132.416V117.241ZM135.68 115.674C135.68 114.779 136.542 114.034 137.712 114.034C138.881 114.034 139.743 114.742 139.743 115.674V117.241H139.005V116.681C138.717 117.073 138.204 117.315 137.588 117.315C136.48 117.315 135.68 116.569 135.68 115.656V115.674ZM138.963 115.674C138.963 115.096 138.43 114.63 137.712 114.63C136.993 114.63 136.46 115.096 136.46 115.674C136.46 116.252 137.014 116.718 137.712 116.718C138.409 116.718 138.963 116.252 138.963 115.674ZM140.277 116.625L140.872 116.364C141.057 116.681 141.385 116.793 141.796 116.793C142.206 116.793 142.555 116.644 142.555 116.364C142.555 115.712 140.38 116.196 140.38 115.003C140.38 114.444 140.975 114.052 141.796 114.052C142.493 114.052 142.986 114.313 143.232 114.686L142.637 114.966C142.473 114.686 142.165 114.593 141.816 114.593C141.467 114.593 141.139 114.742 141.139 115.003C141.139 115.637 143.314 115.171 143.314 116.364C143.314 116.961 142.617 117.334 141.816 117.334C141.118 117.334 140.564 117.11 140.277 116.644V116.625ZM144.135 116.122V114.667H143.376V114.127H144.135V113.306H144.895V114.127H146.352V114.667H144.895V116.103C144.895 116.513 145.182 116.756 145.654 116.756C145.9 116.756 146.167 116.681 146.352 116.569V117.147C146.167 117.259 145.859 117.334 145.572 117.334C144.628 117.334 144.115 116.849 144.115 116.122H144.135ZM149.43 117.241C148.958 117.241 148.712 117.017 148.712 116.737C148.712 116.532 148.815 116.364 149.04 116.196L150.58 115.059C151.011 114.742 151.236 114.5 151.236 114.145C151.236 113.754 150.846 113.493 150.333 113.493C149.82 113.493 149.41 113.754 149.164 114.145L148.548 113.866C148.897 113.288 149.533 112.878 150.374 112.878C151.339 112.878 152.016 113.418 152.016 114.108C152.016 114.63 151.729 115.022 151.257 115.376L149.718 116.495C149.718 116.495 149.615 116.569 149.615 116.607C149.615 116.625 149.615 116.644 149.656 116.644H152.16V117.241H149.41H149.43ZM152.57 115.096C152.57 113.847 153.412 112.878 154.664 112.878C155.916 112.878 156.757 113.828 156.757 115.096C156.757 116.364 155.916 117.334 154.664 117.334C153.412 117.334 152.57 116.346 152.57 115.096ZM155.936 115.096C155.936 114.22 155.403 113.549 154.664 113.549C153.925 113.549 153.391 114.22 153.391 115.096C153.391 115.973 153.925 116.663 154.664 116.663C155.403 116.663 155.936 115.973 155.936 115.096ZM157.989 117.241C157.517 117.241 157.27 117.017 157.27 116.737C157.27 116.532 157.373 116.364 157.599 116.196L159.138 115.059C159.569 114.742 159.795 114.5 159.795 114.145C159.795 113.754 159.405 113.493 158.892 113.493C158.379 113.493 157.968 113.754 157.722 114.145L157.106 113.866C157.455 113.288 158.091 112.878 158.933 112.878C159.897 112.878 160.575 113.418 160.575 114.108C160.575 114.63 160.287 115.022 159.815 115.376L158.276 116.495C158.276 116.495 158.173 116.569 158.173 116.607C158.173 116.625 158.173 116.644 158.214 116.644H160.718V117.241H157.968H157.989ZM161.067 116.532L161.724 116.196C161.909 116.569 162.34 116.737 162.812 116.737C163.366 116.737 163.797 116.42 163.797 115.991C163.797 115.507 163.386 115.283 162.771 115.283H161.991C161.519 115.283 161.252 115.059 161.252 114.686V112.971H164.289V113.567H161.97V114.63C161.97 114.63 162.032 114.723 162.093 114.723H162.894C163.94 114.723 164.577 115.134 164.577 115.973C164.577 116.812 163.838 117.352 162.812 117.352C162.052 117.352 161.375 117.073 161.067 116.551V116.532Z" fill="#EBAA01"/>
</g>
<defs>
<clipPath id="clip0_351_6571">
<rect width="240" height="120" fill="white"/>
</clipPath>
</defs>
</svg>
