<svg width="239" height="120" viewBox="0 0 239 120" fill="none" xmlns="http://www.w3.org/2000/svg">
<g clip-path="url(#clip0_351_6655)">
<path d="M56.1836 116.234C54.5895 117.763 45.556 112.561 42.6538 108.086C42.6538 108.086 41.0392 105.625 40.6917 102.157C40.6509 101.84 40.6917 101.504 40.7531 101.187C40.7939 100.982 40.9166 100.796 41.1209 100.311C41.5297 100.441 41.9793 100.516 42.3881 100.628C42.3881 100.628 42.9808 100.814 43.553 101.094C49.6026 103.965 53.4245 109.783 53.4245 109.783C55.2639 112.579 57.0829 115.357 56.1836 116.234Z" fill="#EBAA01"/>
<path d="M30.166 12.8838C30.6565 4.71722 41.8769 -1.80857 52.1367 0.447486C45.9849 6.56309 40.1397 12.4736 30.166 12.8838Z" fill="#EBAA01"/>
<path d="M17.2698 85.9912C10.8523 78.1976 11.3837 69.4903 18.3326 64.2883C22.645 71.6345 19.1501 78.4586 17.2698 85.9912Z" fill="#EBAA01"/>
<path d="M11.1386 70.87C7.25537 61.8271 10.3415 53.4182 18.4757 50.1553C20.4378 58.3218 15.0831 64.1205 11.1386 70.87Z" fill="#EBAA01"/>
<path d="M12.9983 38.4276C13.9589 29.5712 22.3179 22.9708 30.2887 24.5557C29.0829 29.7017 22.9311 34.68 12.9983 38.4276Z" fill="#EBAA01"/>
<path d="M9.81002 54.5556C8.39981 45.1958 14.4698 36.8614 22.7267 36.7495C22.0114 44.8601 15.4917 49.2231 9.81002 54.5556Z" fill="#EBAA01"/>
<path d="M41.8769 14.5804C36.6857 21.4231 28.5515 22.1689 20.9077 24.164C22.2975 17.4517 34.0492 10.6276 41.8769 14.5804Z" fill="#EBAA01"/>
<path d="M22.4405 78.0857C28.4083 84.1267 27.2434 91.4729 27.4682 98.7445C19.1295 94.3629 16.8405 82.6165 22.4405 78.0857Z" fill="#EBAA01"/>
<path d="M25.0163 99.919C16.6776 99.9563 8.52293 93.2441 6.66309 84.7979C15.7579 86.7183 20.6017 93.039 25.0163 99.919Z" fill="#EBAA01"/>
<path d="M41.1822 109.465C31.5764 105.829 27.4275 98.6511 29.8596 90.0557C37.6464 94.6237 38.5866 102.026 41.1822 109.465Z" fill="#EBAA01"/>
<path d="M55.4478 117.8C49.3778 122.61 35.7866 118.806 31.3721 113.25C40.3238 110.603 47.8858 114.276 55.4478 117.8Z" fill="#EBAA01"/>
<path d="M6.27462 30.895C11.1797 38.3717 9.6673 45.8857 7.50089 53.4183C1.55348 49.2418 0.981224 39.6023 6.27462 30.895Z" fill="#EBAA01"/>
<path d="M16.4321 15.3076C19.1912 23.5488 15.0219 30.3729 11.1183 37.0851C6.39714 32.0882 9.09494 20.6028 16.4321 15.3076Z" fill="#EBAA01"/>
<path d="M8.8086 70.3854C1.45098 66.7682 -2.02345 56.9609 1.20572 48.8689C8.33853 54.7235 8.09327 62.7036 8.8086 70.3854Z" fill="#EBAA01"/>
<path d="M19.1501 22.4487C16.207 16.1093 22.6858 5.40704 31.188 2.27466C29.3894 7.51394 29.6756 13.0142 24.5252 16.7619C22.4814 18.2535 21.0508 20.4164 19.1501 22.4673V22.4487Z" fill="#EBAA01"/>
<path d="M1.22636 67.1038C9.60587 71.1684 12.181 78.4959 14.5927 85.7862C7.41902 85.32 0.633664 75.9975 1.22636 67.1038Z" fill="#EBAA01"/>
<path d="M39.0769 110.77C30.6974 112.728 21.7865 108.533 16.4114 99.8071C21.1325 101.019 25.588 101.522 29.2872 103.294C32.8843 105.028 35.6842 108.104 39.0974 110.77H39.0769Z" fill="#EBAA01"/>
<path d="M182.816 116.234C184.411 117.763 193.444 112.561 196.346 108.086C196.346 108.086 197.961 105.625 198.308 102.157C198.349 101.84 198.308 101.504 198.247 101.187C198.206 100.982 198.084 100.796 197.879 100.311C197.47 100.441 197.021 100.516 196.612 100.628C196.612 100.628 196.019 100.814 195.447 101.094C189.397 103.965 185.576 109.783 185.576 109.783C183.736 112.579 181.917 115.357 182.816 116.234Z" fill="#EBAA01"/>
<path d="M208.834 12.8838C208.343 4.71722 197.123 -1.80857 186.863 0.447486C193.015 6.56309 198.86 12.4736 208.834 12.8838Z" fill="#EBAA01"/>
<path d="M221.73 85.9912C228.148 78.1976 227.616 69.4903 220.668 64.2883C216.355 71.6345 219.85 78.4586 221.73 85.9912Z" fill="#EBAA01"/>
<path d="M227.861 70.87C231.744 61.8271 228.658 53.4182 220.524 50.1553C218.562 58.3218 223.917 64.1205 227.861 70.87Z" fill="#EBAA01"/>
<path d="M226.002 38.4276C225.041 29.5712 216.682 22.9708 208.711 24.5557C209.917 29.7017 216.069 34.68 226.002 38.4276Z" fill="#EBAA01"/>
<path d="M229.19 54.5556C230.6 45.1958 224.53 36.8614 216.273 36.7495C216.989 44.8601 223.508 49.2231 229.19 54.5556Z" fill="#EBAA01"/>
<path d="M197.123 14.5804C202.314 21.4231 210.448 22.1689 218.092 24.164C216.702 17.4517 204.95 10.6276 197.123 14.5804Z" fill="#EBAA01"/>
<path d="M216.559 78.0857C210.592 84.1267 211.757 91.4729 211.532 98.7445C219.87 94.3629 222.159 82.6165 216.559 78.0857Z" fill="#EBAA01"/>
<path d="M213.984 99.919C222.323 99.9563 230.477 93.2441 232.337 84.7979C223.242 86.7183 218.399 93.039 213.984 99.919Z" fill="#EBAA01"/>
<path d="M197.818 109.465C207.424 105.829 211.573 98.6511 209.14 90.0557C201.354 94.6237 200.413 102.026 197.818 109.465Z" fill="#EBAA01"/>
<path d="M183.552 117.8C189.622 122.61 203.213 118.806 207.628 113.25C198.676 110.603 191.114 114.276 183.552 117.8Z" fill="#EBAA01"/>
<path d="M232.726 30.895C227.821 38.3717 229.333 45.8857 231.499 53.4183C237.447 49.2418 238.019 39.6023 232.726 30.895Z" fill="#EBAA01"/>
<path d="M222.568 15.3076C219.809 23.5488 223.979 30.3729 227.882 37.0851C232.603 32.0882 229.906 20.6028 222.568 15.3076Z" fill="#EBAA01"/>
<path d="M230.191 70.3854C237.549 66.7682 241.023 56.9609 237.794 48.8689C230.661 54.7235 230.907 62.7036 230.191 70.3854Z" fill="#EBAA01"/>
<path d="M219.849 22.4487C222.792 16.1093 216.314 5.40704 207.812 2.27466C209.61 7.51394 209.324 13.0142 214.474 16.7619C216.518 18.2535 217.949 20.4164 219.849 22.4673V22.4487Z" fill="#EBAA01"/>
<path d="M237.774 67.1038C229.394 71.1684 226.819 78.4959 224.407 85.7862C231.581 85.32 238.366 75.9975 237.774 67.1038Z" fill="#EBAA01"/>
<path d="M199.944 110.77C208.323 112.728 217.234 108.533 222.609 99.8071C217.888 101.019 213.433 101.522 209.733 103.294C206.136 105.028 203.336 108.104 199.923 110.77H199.944Z" fill="#EBAA01"/>
<path d="M34.5808 66.1905C35.2143 64.4565 36.9924 63.6361 38.7705 63.6361C40.5486 63.6361 42.3267 64.4565 42.9603 66.1905L47.3748 78.1047H42.572L41.7749 75.7181H35.7662L34.9486 78.1047H30.1458L34.5603 66.1905H34.5808ZM36.9311 72.2501H40.6099L38.9953 67.3278C38.9545 67.1787 38.8931 67.1227 38.791 67.1227C38.6888 67.1227 38.6479 67.1787 38.5866 67.3278L36.9311 72.2501ZM47.3748 71.7094V63.953H52.0755V71.5975C52.0755 73.779 53.0974 74.674 55.1821 74.674C57.2668 74.674 58.3091 73.779 58.3091 71.5975V63.953H63.0098V71.7094C63.0098 75.9046 60.5572 78.3471 55.1821 78.3471C49.8069 78.3471 47.3953 75.8859 47.3953 71.7094H47.3748ZM78.1338 67.5143H73.29V78.1047H68.5893V67.5143H63.7455V63.953H78.1338V67.5143ZM78.0111 71.0382C78.0111 66.8244 81.8739 63.6547 87.0447 63.6547C92.2154 63.6547 96.0782 66.8244 96.0782 71.0382C96.0782 75.252 92.2154 78.4217 87.0447 78.4217C81.8739 78.4217 78.0111 75.252 78.0111 71.0382ZM91.2753 71.0382C91.2753 68.9499 89.4563 67.3278 87.0651 67.3278C84.6739 67.3278 82.8549 68.9499 82.8549 71.0382C82.8549 73.1264 84.6739 74.7486 87.0651 74.7486C89.4563 74.7486 91.2753 73.1264 91.2753 71.0382ZM97.4884 78.1047V66.0227C97.4884 64.5124 98.9191 63.6174 100.411 63.6174C101.596 63.6174 102.639 63.953 103.252 64.7548L109.301 72.6603V63.953H113.736V76.0351C113.736 77.5453 112.306 78.4217 110.814 78.4217C109.649 78.4217 108.586 78.086 107.973 77.2843L101.923 69.3788V78.1047H97.4884ZM115.126 71.0382C115.126 66.8244 118.989 63.6547 124.16 63.6547C129.331 63.6547 133.193 66.8244 133.193 71.0382C133.193 75.252 129.331 78.4217 124.16 78.4217C118.989 78.4217 115.126 75.252 115.126 71.0382ZM128.39 71.0382C128.39 68.9499 126.571 67.3278 124.18 67.3278C121.789 67.3278 119.97 68.9499 119.97 71.0382C119.97 73.1264 121.789 74.7486 124.18 74.7486C126.571 74.7486 128.39 73.1264 128.39 71.0382ZM133.725 78.1047L135.993 66.2091C136.32 64.531 137.751 63.6361 139.795 63.6361C141.573 63.6361 143.065 64.27 143.555 65.8362L145.885 73.3502L148.195 65.9108C148.685 64.3446 150.218 63.6547 152.057 63.6547C154.06 63.6547 155.43 64.587 155.736 66.3023L157.76 78.1233H153.018L151.649 68.1482L148.93 76.3334C148.501 77.5826 147.316 78.1979 145.885 78.1979C144.455 78.1979 143.228 77.6199 142.84 76.408L140.142 68.1296L138.487 78.1233H133.725V78.1047ZM158.271 71.0382C158.271 66.8244 162.133 63.6547 167.304 63.6547C172.475 63.6547 176.338 66.8244 176.338 71.0382C176.338 75.252 172.475 78.4217 167.304 78.4217C162.133 78.4217 158.271 75.252 158.271 71.0382ZM171.514 71.0382C171.514 68.9499 169.695 67.3278 167.304 67.3278C164.913 67.3278 163.094 68.9499 163.094 71.0382C163.094 73.1264 164.913 74.7486 167.304 74.7486C169.695 74.7486 171.514 73.1264 171.514 71.0382ZM177.482 71.7094V63.953H182.183V71.5975C182.183 73.779 183.205 74.674 185.289 74.674C187.374 74.674 188.416 73.779 188.416 71.5975V63.953H193.117V71.7094C193.117 75.9046 190.664 78.3471 185.289 78.3471C179.914 78.3471 177.502 75.8859 177.502 71.7094H177.482ZM194.425 75.2333L198.329 73.6112C198.819 74.4689 199.78 74.8604 201.374 74.8604C202.621 74.8604 203.561 74.5435 203.561 73.8722C203.561 73.0332 202.539 72.9027 201.006 72.7163C198.451 72.3993 194.691 71.5789 194.691 68.2041C194.691 65.6125 197.511 63.6174 201.313 63.6174C204.317 63.6174 206.851 64.7361 208.016 66.8244L204.113 68.4465C203.622 67.7566 202.723 67.1973 201.108 67.1973C199.984 67.1973 199.391 67.4956 199.391 68.0736C199.391 68.8754 200.515 69.1177 202.191 69.3228C204.726 69.6398 208.282 70.4415 208.282 73.835C208.282 76.4266 205.216 78.4217 201.394 78.4217C198.145 78.4217 195.61 77.303 194.445 75.2147L194.425 75.2333Z" fill="#EBAA01"/>
<path d="M54.3034 93.4678V83.6419H58.4932C61.8654 83.6419 63.9296 84.947 63.9296 87.2217C63.9296 89.4964 61.8858 90.8762 58.6158 90.8762H56.8581V93.4678H54.283H54.3034ZM56.899 85.6182V88.8998H58.5749C60.2712 88.8998 61.2931 88.3591 61.2931 87.2217C61.2931 86.0844 60.2712 85.6182 58.5749 85.6182H56.899ZM65.1355 93.4678V83.6419H69.7135C72.3909 83.6419 74.4755 84.686 74.4755 86.7742C74.4755 88.1167 73.515 89.1608 72.0026 89.4964C72.7588 89.8507 73.2084 90.5219 73.8215 91.5474L74.966 93.4865H72.1661L71.1033 91.7338C70.5515 90.8202 70.0405 90.3541 68.6916 90.3541H67.6902V93.4865H65.1355V93.4678ZM67.7311 85.6182V88.4337H69.734C70.9602 88.4337 71.8391 87.9116 71.8391 86.998C71.8391 86.0844 70.9398 85.6182 69.7748 85.6182H67.7311ZM75.4974 88.5642C75.4974 85.6742 78.1748 83.4741 81.6901 83.4741C85.2054 83.4741 87.9032 85.6742 87.9032 88.5642C87.9032 91.4542 85.2054 93.6543 81.6901 93.6543C78.1748 93.6543 75.4974 91.4728 75.4974 88.5642ZM85.2258 88.5642C85.2258 86.8302 83.693 85.4877 81.6901 85.4877C79.6872 85.4877 78.1544 86.8302 78.1544 88.5642C78.1544 90.2982 79.7076 91.6406 81.6901 91.6406C83.6726 91.6406 85.2258 90.2982 85.2258 88.5642ZM88.2098 88.5642C88.2098 85.7301 90.8667 83.4741 94.382 83.4741C96.4053 83.4741 98.4287 84.3131 99.3075 85.8979L97.2024 86.8675C96.6097 85.9911 95.69 85.4691 94.2594 85.4691C92.2564 85.4691 90.8462 86.8115 90.8462 88.6015C90.8462 90.3914 92.2769 91.7338 94.3615 91.7338C95.5265 91.7338 96.3849 91.4915 96.9163 91.0253V88.8439H99.4097V91.7338C98.5513 92.8153 96.7119 93.6729 94.3615 93.6729C90.8871 93.6729 88.1893 91.3982 88.1893 88.5642H88.2098ZM100.963 93.4678V83.6419H105.541C108.218 83.6419 110.303 84.686 110.303 86.7742C110.303 88.1167 109.342 89.1608 107.83 89.4964C108.586 89.8507 109.036 90.5219 109.649 91.5474L110.794 93.4865H107.994L106.931 91.7338C106.379 90.8202 105.868 90.3541 104.519 90.3541H103.518V93.4865H100.963V93.4678ZM103.538 85.6182V88.4337H105.541C106.767 88.4337 107.646 87.9116 107.646 86.998C107.646 86.0844 106.747 85.6182 105.582 85.6182H103.538ZM114.288 85.0216C114.697 83.9588 115.76 83.4368 116.864 83.4368C117.967 83.4368 119.05 83.9402 119.459 85.0216L122.607 93.4492H119.97L119.275 91.4355H114.452L113.757 93.4492H111.121L114.268 85.0216H114.288ZM115.126 89.5524H118.601L117.252 85.6555C117.191 85.4504 117.068 85.3572 116.864 85.3572C116.659 85.3572 116.537 85.4504 116.475 85.6555L115.106 89.5524H115.126ZM122.995 93.4678L124.61 85.0216C124.814 83.9961 125.693 83.4554 126.899 83.4554C127.961 83.4554 128.861 83.8283 129.147 84.7792L131.15 90.9135V90.9507C131.15 90.9507 131.191 90.9507 131.191 90.9135L133.153 84.8352C133.459 83.8843 134.379 83.4554 135.442 83.4554C136.627 83.4554 137.465 84.0148 137.649 85.0589L139.12 93.4678H136.504L135.36 85.7674C135.36 85.7674 135.36 85.6555 135.278 85.6555C135.217 85.6555 135.196 85.6928 135.176 85.7488L132.969 92.2559C132.723 93.0017 132.008 93.3746 131.17 93.3746C130.332 93.3746 129.596 93.0204 129.392 92.3118L127.185 85.7674C127.185 85.7674 127.123 85.6742 127.103 85.6742C127.042 85.6742 127.001 85.7115 127.001 85.7674L125.652 93.4865H123.036L122.995 93.4678ZM139.877 93.4678L141.491 85.0216C141.696 83.9961 142.574 83.4554 143.78 83.4554C144.843 83.4554 145.742 83.8283 146.028 84.7792L148.031 90.9135V90.9507C148.031 90.9507 148.072 90.9507 148.072 90.9135L150.034 84.8352C150.341 83.8843 151.26 83.4554 152.323 83.4554C153.509 83.4554 154.347 84.0148 154.531 85.0589L156.002 93.4678H153.386L152.241 85.7674C152.241 85.7674 152.241 85.6555 152.16 85.6555C152.098 85.6555 152.078 85.6928 152.058 85.7488L149.85 92.2559C149.605 93.0017 148.89 93.3746 148.052 93.3746C147.214 93.3746 146.478 93.0204 146.274 92.3118L144.066 85.7674C144.066 85.7674 144.005 85.6742 143.985 85.6742C143.923 85.6742 143.882 85.7115 143.882 85.7674L142.534 93.4865H139.917L139.877 93.4678ZM160.11 83.6419V93.4678H157.535V83.6419H160.11ZM162.276 93.4678V84.9843C162.276 84.0148 163.135 83.4368 164.116 83.4368C164.893 83.4368 165.506 83.6605 165.894 84.2012L170.595 90.8575V83.6419H173.027V92.1254C173.027 93.0949 172.168 93.6543 171.228 93.6543C170.472 93.6543 169.818 93.4306 169.43 92.8898L164.729 86.1962V93.4678H162.276ZM174.253 88.5642C174.253 85.7301 176.91 83.4741 180.425 83.4741C182.449 83.4741 184.472 84.3131 185.351 85.8979L183.246 86.8675C182.653 85.9911 181.733 85.4691 180.303 85.4691C178.3 85.4691 176.89 86.8115 176.89 88.6015C176.89 90.3914 178.32 91.7338 180.405 91.7338C181.57 91.7338 182.428 91.4915 182.96 91.0253V88.8439H185.453V91.7338C184.595 92.8153 182.755 93.6729 180.405 93.6729C176.93 93.6729 174.233 91.3982 174.233 88.5642H174.253Z" fill="#EBAA01"/>
<path d="M62.0288 103.723C62.0288 100.87 64.7266 98.6141 68.201 98.6141C70.2653 98.6141 72.2477 99.5277 73.1265 101.057L71.0215 102.026C70.4288 101.187 69.5091 100.646 68.0784 100.646C66.0959 100.646 64.6653 101.952 64.6653 103.723C64.6653 105.494 66.0755 106.799 68.0784 106.799C69.5091 106.799 70.4696 106.259 71.0215 105.42L73.1265 106.389C72.2477 107.918 70.2653 108.832 68.201 108.832C64.7266 108.832 62.0288 106.576 62.0288 103.723ZM73.0652 103.723C73.0652 100.833 75.7426 98.6328 79.2579 98.6328C82.7732 98.6328 85.471 100.833 85.471 103.723C85.471 106.613 82.7936 108.813 79.2579 108.813C75.7222 108.813 73.0652 106.632 73.0652 103.723ZM82.7936 103.723C82.7936 101.989 81.2608 100.646 79.2579 100.646C77.255 100.646 75.7222 101.989 75.7222 103.723C75.7222 105.457 77.2754 106.799 79.2579 106.799C81.2404 106.799 82.7936 105.457 82.7936 103.723ZM86.0024 108.627L87.617 100.18C87.8213 99.1548 88.7002 98.6141 89.906 98.6141C90.9688 98.6141 91.868 98.987 92.1542 99.9379L94.1571 106.072V106.109C94.1571 106.109 94.198 106.109 94.198 106.072L96.16 99.9938C96.4665 99.0429 97.3862 98.6141 98.449 98.6141C99.6344 98.6141 100.472 99.1735 100.656 100.218L102.128 108.627H99.5118L98.3673 100.926C98.3673 100.926 98.3673 100.814 98.2855 100.814C98.2242 100.814 98.2038 100.852 98.1833 100.907L95.976 107.415C95.7308 108.16 95.0155 108.533 94.1775 108.533C93.3396 108.533 92.6038 108.179 92.3994 107.471L90.1921 100.926C90.1921 100.926 90.1308 100.833 90.1104 100.833C90.0491 100.833 90.0082 100.87 90.0082 100.926L88.6593 108.645H86.0433L86.0024 108.627ZM103.661 108.627V98.8006H107.85C111.223 98.8006 113.287 100.106 113.287 102.38C113.287 104.655 111.264 106.035 107.973 106.035H106.215V108.627H103.64H103.661ZM106.236 100.758V104.04H107.912C109.608 104.04 110.63 103.499 110.63 102.362C110.63 101.224 109.608 100.758 107.912 100.758H106.236ZM116.598 108.627C114.963 108.627 114.309 107.918 114.309 106.799V100.646C114.309 99.5277 114.942 98.8006 116.598 98.8006H122.893V100.721H116.904V102.772H122.525V104.692H116.904V106.743H122.995V108.664H116.598V108.627ZM132.866 100.758H129.371V108.608H126.796V100.758H123.301V98.7819H132.887V100.758H132.866ZM136.423 98.8006V108.627H133.847V98.8006H136.423ZM146.928 100.758H143.433V108.608H140.858V100.758H137.363V98.7819H146.948V100.758H146.928ZM150.484 98.8006V108.627H147.909V98.8006H150.484ZM151.792 103.723C151.792 100.833 154.469 98.6328 157.984 98.6328C161.5 98.6328 164.198 100.833 164.198 103.723C164.198 106.613 161.5 108.813 157.984 108.813C154.469 108.813 151.792 106.632 151.792 103.723ZM161.5 103.723C161.5 101.989 159.967 100.646 157.964 100.646C155.961 100.646 154.428 101.989 154.428 103.723C154.428 105.457 155.982 106.799 157.964 106.799C159.946 106.799 161.5 105.457 161.5 103.723ZM165.362 108.627V100.143C165.362 99.1735 166.221 98.5955 167.202 98.5955C167.979 98.5955 168.592 98.8192 168.98 99.3786L173.681 106.035V98.8006H176.113V107.284C176.113 108.254 175.254 108.813 174.314 108.813C173.558 108.813 172.904 108.589 172.516 108.049L167.815 101.355V108.627H165.362Z" fill="#EBAA01"/>
<path d="M75.9676 117.297L76.6421 117.036C76.8465 117.409 77.2757 117.614 77.8888 117.614C78.5019 117.614 78.9516 117.371 78.9516 116.961C78.9516 116.495 78.4202 116.402 77.807 116.308C77.0304 116.178 76.0494 115.973 76.0494 115.059C76.0494 114.351 76.826 113.81 77.807 113.81C78.6041 113.81 79.299 114.108 79.6056 114.705L78.9516 114.985C78.7472 114.63 78.3384 114.407 77.7662 114.407C77.2348 114.407 76.8056 114.668 76.8056 115.022C76.8056 115.488 77.3574 115.581 77.991 115.693C78.7676 115.824 79.7078 116.029 79.7078 116.942C79.7078 117.707 78.8902 118.229 77.8479 118.229C76.9691 118.229 76.2333 117.912 75.9268 117.315L75.9676 117.297ZM80.4844 118.136V113.568H81.2406V115.358C81.5267 115.097 81.9968 114.929 82.5077 114.929C83.6114 114.929 84.245 115.544 84.245 116.495V118.136H83.4887V116.569C83.4887 116.01 83.1209 115.525 82.4055 115.525C81.7311 115.525 81.261 115.973 81.261 116.588V118.136H80.5048H80.4844ZM84.715 116.551C84.715 115.656 85.4917 114.91 86.6362 114.91C87.7807 114.91 88.496 115.6 88.496 116.476V116.737H85.4712C85.553 117.278 86.0435 117.651 86.7384 117.651C87.2084 117.651 87.6172 117.483 87.842 117.147L88.4347 117.39C88.1077 117.931 87.4946 118.21 86.7588 118.21C85.6143 118.21 84.7559 117.52 84.7559 116.551H84.715ZM87.7194 116.327C87.6785 115.824 87.2493 115.488 86.6157 115.488C85.9822 115.488 85.553 115.861 85.4712 116.327H87.6989H87.7194ZM89.9471 113.568V118.136H89.1909V113.568H89.9471ZM91.7252 113.568V118.136H90.969V113.568H91.7252ZM95.2814 118.136C94.75 118.136 94.5456 117.912 94.5456 117.539V114.425C94.5456 114.052 94.7296 113.829 95.2814 113.829H98.1222V114.425H95.3427V115.675H97.9792V116.271H95.3427V117.52H98.1836V118.117H95.2814V118.136ZM98.531 116.569C98.531 115.675 99.4303 114.929 100.513 114.929C101.208 114.929 101.842 115.19 102.189 115.749L101.556 116.047C101.331 115.712 100.943 115.525 100.513 115.525C99.839 115.525 99.3076 115.991 99.3076 116.569C99.3076 117.147 99.8595 117.614 100.513 117.614C100.963 117.614 101.331 117.427 101.556 117.092L102.189 117.371C101.842 117.949 101.208 118.192 100.513 118.192C99.4303 118.192 98.531 117.464 98.531 116.551V116.569ZM102.353 116.569C102.353 115.675 103.252 114.929 104.376 114.929C105.5 114.929 106.379 115.675 106.379 116.569C106.379 117.464 105.5 118.229 104.376 118.229C103.252 118.229 102.353 117.483 102.353 116.569ZM105.623 116.569C105.623 115.991 105.071 115.525 104.376 115.525C103.681 115.525 103.109 115.991 103.109 116.569C103.109 117.147 103.661 117.614 104.376 117.614C105.092 117.614 105.623 117.147 105.623 116.569ZM109.833 116.458H107.156V115.88H109.833V116.458ZM117.313 116.495V118.154H116.557V116.607C116.557 116.029 116.21 115.544 115.515 115.544C114.82 115.544 114.473 116.029 114.473 116.607V118.173H113.716V116.607C113.716 116.029 113.369 115.544 112.674 115.544C111.979 115.544 111.652 116.047 111.652 116.607V118.154H110.896V116.514C110.896 115.637 111.509 114.929 112.633 114.929C113.389 114.929 113.941 115.246 114.125 115.73C114.329 115.246 114.861 114.929 115.597 114.929C116.741 114.929 117.354 115.637 117.354 116.495H117.313ZM117.783 116.569C117.783 115.675 118.642 114.929 119.807 114.929C120.972 114.929 121.83 115.637 121.83 116.569V118.136H121.094V117.576C120.808 117.968 120.297 118.21 119.684 118.21C118.581 118.21 117.783 117.464 117.783 116.551V116.569ZM121.053 116.569C121.053 115.991 120.502 115.525 119.807 115.525C119.112 115.525 118.56 115.991 118.56 116.569C118.56 117.147 119.112 117.614 119.807 117.614C120.502 117.614 121.053 117.147 121.053 116.569ZM122.545 118.136V116.271C122.545 115.507 123.077 114.947 124.058 114.947C124.303 114.947 124.548 114.985 124.732 115.059V115.693C124.548 115.6 124.324 115.563 124.119 115.563C123.608 115.563 123.302 115.842 123.302 116.308V118.154H122.545V118.136ZM124.671 116.569C124.671 115.675 125.529 114.929 126.694 114.929C127.859 114.929 128.718 115.637 128.718 116.569V118.136H127.982V117.576C127.696 117.968 127.185 118.21 126.572 118.21C125.468 118.21 124.671 117.464 124.671 116.551V116.569ZM127.941 116.569C127.941 115.991 127.41 115.525 126.694 115.525C125.979 115.525 125.448 115.991 125.448 116.569C125.448 117.147 125.999 117.614 126.694 117.614C127.389 117.614 127.941 117.147 127.941 116.569ZM129.699 117.017V115.563H128.942V115.022H129.699V114.202H130.455V115.022H131.906V115.563H130.455V116.998C130.455 117.409 130.741 117.651 131.211 117.651C131.456 117.651 131.722 117.576 131.906 117.464V118.042C131.722 118.154 131.415 118.229 131.129 118.229C130.189 118.229 129.678 117.744 129.678 117.017H129.699ZM132.662 118.136V113.568H133.418V115.358C133.705 115.097 134.175 114.929 134.686 114.929C135.789 114.929 136.423 115.544 136.423 116.495V118.136H135.667V116.569C135.667 116.01 135.299 115.525 134.583 115.525C133.909 115.525 133.439 115.973 133.439 116.588V118.136H132.683H132.662ZM136.893 116.569C136.893 115.675 137.792 114.929 138.916 114.929C140.04 114.929 140.919 115.675 140.919 116.569C140.919 117.464 140.04 118.229 138.916 118.229C137.792 118.229 136.893 117.483 136.893 116.569ZM140.163 116.569C140.163 115.991 139.611 115.525 138.916 115.525C138.221 115.525 137.649 115.991 137.649 116.569C137.649 117.147 138.201 117.614 138.916 117.614C139.631 117.614 140.163 117.147 140.163 116.569ZM142.166 116.625V118.136H141.41V116.551C141.41 115.637 142.064 114.91 143.29 114.91C144.516 114.91 145.191 115.619 145.191 116.532V118.117H144.434V116.607C144.434 116.01 144.046 115.507 143.29 115.507C142.534 115.507 142.186 116.01 142.186 116.588L142.166 116.625ZM148.358 118.136C147.888 118.136 147.643 117.912 147.643 117.632C147.643 117.427 147.745 117.259 147.97 117.092L149.503 115.954C149.932 115.637 150.157 115.395 150.157 115.041C150.157 114.649 149.769 114.388 149.258 114.388C148.747 114.388 148.338 114.649 148.093 115.041L147.48 114.761C147.827 114.183 148.461 113.773 149.299 113.773C150.259 113.773 150.934 114.313 150.934 115.003C150.934 115.525 150.647 115.917 150.177 116.271L148.645 117.39C148.645 117.39 148.542 117.464 148.542 117.502C148.542 117.52 148.542 117.539 148.583 117.539H151.077V118.136H148.338H148.358ZM151.506 115.991C151.506 114.742 152.344 113.773 153.591 113.773C154.837 113.773 155.675 114.724 155.675 115.991C155.675 117.259 154.837 118.229 153.591 118.229C152.344 118.229 151.506 117.241 151.506 115.991ZM154.858 115.991C154.858 115.115 154.326 114.444 153.591 114.444C152.855 114.444 152.323 115.115 152.323 115.991C152.323 116.868 152.855 117.558 153.591 117.558C154.326 117.558 154.858 116.868 154.858 115.991ZM156.881 118.136C156.411 118.136 156.166 117.912 156.166 117.632C156.166 117.427 156.268 117.259 156.493 117.092L158.026 115.954C158.455 115.637 158.68 115.395 158.68 115.041C158.68 114.649 158.291 114.388 157.78 114.388C157.269 114.388 156.861 114.649 156.615 115.041L156.002 114.761C156.35 114.183 156.983 113.773 157.821 113.773C158.782 113.773 159.456 114.313 159.456 115.003C159.456 115.525 159.17 115.917 158.7 116.271L157.167 117.39C157.167 117.39 157.065 117.464 157.065 117.502C157.065 117.52 157.065 117.539 157.106 117.539H159.599V118.136H156.861H156.881ZM159.947 117.427L160.601 117.092C160.785 117.464 161.214 117.632 161.684 117.632C162.236 117.632 162.665 117.315 162.665 116.886C162.665 116.402 162.256 116.178 161.643 116.178H160.866C160.396 116.178 160.131 115.954 160.131 115.581V113.866H163.155V114.463H160.846V115.525C160.846 115.525 160.907 115.619 160.969 115.619H161.766C162.808 115.619 163.442 116.029 163.442 116.868C163.442 117.707 162.706 118.248 161.684 118.248C160.928 118.248 160.253 117.968 159.947 117.446V117.427Z" fill="#EBAA01"/>
<path d="M87.6581 57.5201V23.1012C87.6581 23.1012 87.4946 23.1758 87.4128 23.2317L74.7822 28.7879L69.2231 19.2603L84.6741 12.548C87.3311 11.392 90.2332 10.4971 92.7267 10.4971C96.9573 10.4971 99.7777 12.8277 99.7777 16.9483V57.5387H87.6581V57.5201Z" fill="#EBAA01"/>
<path d="M107.196 40.6836L109.465 39.6395C109.915 40.348 110.63 40.6463 111.693 40.6463C112.674 40.6463 113.307 40.3294 113.307 39.8073C113.307 38.3903 107.462 39.6208 107.462 36.2274C107.462 34.6426 109.138 33.412 111.774 33.412C114.063 33.412 115.433 34.307 116.087 35.3138L113.818 36.3579C113.471 35.724 112.694 35.4257 111.836 35.4257C111.079 35.4257 110.528 35.724 110.528 36.1901C110.528 37.6072 116.373 36.4698 116.373 39.77C116.373 41.5413 114.288 42.6786 111.856 42.6786C109.649 42.6786 108.096 42.0074 107.217 40.6836H107.196ZM118.274 38.9496V35.78H116.312V33.6544H118.274V31.417H121.319V33.6544H125.079V35.78H121.319V38.8937C121.319 39.8632 122.034 40.4412 123.158 40.4412C123.792 40.4412 124.568 40.2734 125.1 40.0124V42.2685C124.568 42.5481 123.628 42.6973 122.893 42.6973C119.806 42.6973 118.294 41.1684 118.294 38.9683L118.274 38.9496ZM108.3 58.1354V46.1839H113.409C117.517 46.1839 120.031 47.7688 120.031 50.5282C120.031 53.2877 117.558 54.9658 113.573 54.9658H111.447V58.1168H108.3V58.1354ZM111.447 48.5705V52.5606H113.491C115.555 52.5606 116.802 51.908 116.802 50.5096C116.802 49.1112 115.555 48.5519 113.491 48.5519H111.447V48.5705ZM123.812 55.7302H130.577V58.1354H123.444C121.441 58.1354 120.665 57.2778 120.665 55.9167V46.1839H123.812V55.7302ZM135.319 47.862C135.809 46.5568 137.097 45.9415 138.466 45.9415C139.836 45.9415 141.144 46.5568 141.634 47.862L145.456 58.1168H142.247L141.409 55.6743H135.544L134.706 58.1168H131.497L135.319 47.862ZM136.361 53.3809H140.592L138.957 48.6451C138.875 48.4027 138.732 48.2908 138.487 48.2908C138.241 48.2908 138.098 48.4027 138.017 48.6451L136.361 53.3809ZM144.863 52.169C144.863 48.701 148.154 45.9602 152.364 45.9602C154.878 45.9602 157.289 47.0602 158.373 48.9248L155.818 50.118C155.103 49.0926 153.978 48.44 152.241 48.44C149.83 48.44 148.092 50.0248 148.092 52.1877C148.092 54.3505 149.809 55.9353 152.241 55.9353C153.978 55.9353 155.143 55.2827 155.818 54.2573L158.373 55.4506C157.289 57.3151 154.878 58.4151 152.364 58.4151C148.154 58.4151 144.863 55.6556 144.863 52.2063V52.169ZM161.786 58.1354C159.783 58.1354 159.006 57.2778 159.006 55.9167V48.4213C159.006 47.0602 159.783 46.1839 161.786 46.1839H169.45V48.5146H162.154V50.9944H169V53.325H162.154V55.8048H169.573V58.1354H161.786Z" fill="#EBAA01"/>
</g>
<defs>
<clipPath id="clip0_351_6655">
<rect width="239" height="120" fill="white"/>
</clipPath>
</defs>
</svg>
