<svg width="239" height="120" viewBox="0 0 239 120" fill="none" xmlns="http://www.w3.org/2000/svg">
<g clip-path="url(#clip0_351_6613)">
<path d="M88.8016 58.3407V20.4538C88.8016 20.4538 88.6177 20.5284 88.5359 20.603L74.6382 26.7186L68.5068 16.2214L85.5111 8.81929C88.4337 7.53278 91.6425 6.56323 94.3811 6.56323C99.041 6.56323 102.148 9.13626 102.148 13.667V58.3594H88.8016V58.3407Z" fill="#EBAA01"/>
<path d="M107.993 40.9073L110.262 39.8631C110.711 40.5716 111.427 40.87 112.489 40.87C113.471 40.87 114.104 40.553 114.104 40.0309C114.104 38.6139 108.259 39.8445 108.259 36.4511C108.259 34.8662 109.935 33.6357 112.571 33.6357C114.86 33.6357 116.23 34.5306 116.884 35.5375L114.615 36.5816C114.268 35.9477 113.491 35.6493 112.633 35.6493C111.876 35.6493 111.325 35.9477 111.325 36.4138C111.325 37.8308 117.17 36.6935 117.17 39.9936C117.17 41.7649 115.085 42.9023 112.653 42.9023C110.446 42.9023 108.892 42.2311 108.014 40.9073H107.993ZM119.07 39.1733V36.0036H117.108V33.878H119.07V31.6406H122.136V33.878H125.897V36.0036H122.136V39.1173C122.136 40.0869 122.851 40.6649 123.955 40.6649C124.589 40.6649 125.365 40.4971 125.897 40.236V42.4921C125.365 42.7718 124.425 42.9209 123.689 42.9209C120.603 42.9209 119.091 41.392 119.091 39.1919L119.07 39.1733ZM109.117 58.3404V46.3889H114.227C118.335 46.3889 120.849 47.9738 120.849 50.7332C120.849 53.4927 118.376 55.1708 114.39 55.1708H112.265V58.3218H109.117V58.3404ZM112.244 48.7941V52.7842H114.288C116.352 52.7842 117.599 52.1316 117.599 50.7332C117.599 49.3348 116.352 48.7755 114.288 48.7755H112.244V48.7941ZM124.63 55.9539H131.394V58.3591H124.282C122.279 58.3591 121.503 57.5014 121.503 56.1403V46.4076H124.65V55.9539H124.63ZM136.136 48.0856C136.627 46.7805 137.914 46.1652 139.283 46.1652C140.653 46.1652 141.961 46.7805 142.451 48.0856L146.273 58.3404H143.064L142.227 55.8979H136.361L135.523 58.3404H132.314L136.136 48.0856ZM137.158 53.5859H141.389L139.754 48.8501C139.672 48.6077 139.529 48.4958 139.283 48.4958C139.038 48.4958 138.895 48.6077 138.813 48.8501L137.158 53.5859ZM145.681 52.374C145.681 48.906 148.971 46.1652 153.181 46.1652C155.695 46.1652 158.107 47.2652 159.19 49.1298L156.635 50.323C155.92 49.2976 154.816 48.645 153.059 48.645C150.647 48.645 148.91 50.2298 148.91 52.3926C148.91 54.5555 150.626 56.1403 153.059 56.1403C154.796 56.1403 155.961 55.4877 156.635 54.4623L159.19 55.6555C158.107 57.5201 155.695 58.6201 153.181 58.6201C148.971 58.6201 145.681 55.8606 145.681 52.4113V52.374ZM162.583 58.3404C160.58 58.3404 159.803 57.4828 159.803 56.1217V48.6263C159.803 47.2652 160.58 46.3889 162.583 46.3889H170.247V48.7196H162.951V51.1994H169.797V53.53H162.951V56.0098H170.369V58.3404H162.583Z" fill="#EBAA01"/>
<path d="M56.1829 116.234C54.5887 117.763 45.5552 112.561 42.653 108.086C42.653 108.086 41.0385 105.625 40.691 102.157C40.6501 101.84 40.691 101.504 40.7523 101.187C40.7932 100.982 40.9158 100.796 41.1202 100.311C41.529 100.441 41.9786 100.516 42.3874 100.628C42.3874 100.628 42.9801 100.814 43.5523 101.094C49.6019 103.965 53.4238 109.783 53.4238 109.783C55.2632 112.579 57.0822 115.357 56.1829 116.234Z" fill="#EBAA01"/>
<path d="M30.1663 12.8838C30.6568 4.71722 41.8771 -1.80857 52.1369 0.447486C45.9851 6.56308 40.1399 12.4736 30.1663 12.8838Z" fill="#EBAA01"/>
<path d="M17.2698 85.9912C10.8523 78.1976 11.3837 69.4903 18.3326 64.2883C22.645 71.6345 19.1501 78.4586 17.2698 85.9912Z" fill="#EBAA01"/>
<path d="M11.1383 70.8702C7.25512 61.8274 10.3412 53.4184 18.4755 50.1555C20.4375 58.3221 15.0828 64.1207 11.1383 70.8702Z" fill="#EBAA01"/>
<path d="M12.9983 38.4276C13.9589 29.5712 22.3179 22.9708 30.2887 24.5557C29.0829 29.7017 22.9311 34.68 12.9983 38.4276Z" fill="#EBAA01"/>
<path d="M9.81002 54.5556C8.39981 45.1958 14.4698 36.8614 22.7267 36.7495C22.0114 44.8601 15.4917 49.2231 9.81002 54.5556Z" fill="#EBAA01"/>
<path d="M41.8769 14.5804C36.6857 21.4231 28.5515 22.1689 20.9077 24.164C22.2975 17.4517 34.0492 10.6276 41.8769 14.5804Z" fill="#EBAA01"/>
<path d="M22.4405 78.0857C28.4083 84.1267 27.2434 91.4729 27.4682 98.7445C19.1295 94.3629 16.8405 82.6165 22.4405 78.0857Z" fill="#EBAA01"/>
<path d="M25.016 99.9193C16.6774 99.9566 8.52268 93.2443 6.66284 84.7981C15.7577 86.7185 20.6014 93.0392 25.016 99.9193Z" fill="#EBAA01"/>
<path d="M41.1819 109.466C31.5761 105.83 27.4273 98.6516 29.8594 90.0562C37.6462 94.6242 38.5863 102.026 41.1819 109.466Z" fill="#EBAA01"/>
<path d="M55.4473 117.8C49.3773 122.61 35.7862 118.806 31.3716 113.25C40.3234 110.603 47.8853 114.276 55.4473 117.8Z" fill="#EBAA01"/>
<path d="M6.27413 30.8953C11.1792 38.372 9.66681 45.8859 7.5004 53.4186C1.55299 49.2421 0.980736 39.6025 6.27413 30.8953Z" fill="#EBAA01"/>
<path d="M16.4314 15.3076C19.1905 23.5488 15.0212 30.3729 11.1175 37.0851C6.39641 32.0882 9.0942 20.6028 16.4314 15.3076Z" fill="#EBAA01"/>
<path d="M8.8086 70.3854C1.45098 66.7682 -2.02345 56.9609 1.20572 48.8689C8.33853 54.7235 8.09327 62.7036 8.8086 70.3854Z" fill="#EBAA01"/>
<path d="M19.1498 22.4487C16.2068 16.1093 22.6856 5.40704 31.1877 2.27466C29.3892 7.51394 29.6753 13.0142 24.525 16.7619C22.4812 18.2535 21.0505 20.4164 19.1498 22.4673V22.4487Z" fill="#EBAA01"/>
<path d="M1.22587 67.1038C9.60539 71.1684 12.1806 78.4959 14.5922 85.7862C7.41854 85.32 0.633176 75.9975 1.22587 67.1038Z" fill="#EBAA01"/>
<path d="M39.0767 110.771C30.6972 112.728 21.7863 108.533 16.4111 99.8074C21.1323 101.019 25.5877 101.523 29.287 103.294C32.884 105.028 35.684 108.104 39.0971 110.771H39.0767Z" fill="#EBAA01"/>
<path d="M182.816 116.234C184.41 117.763 193.443 112.561 196.346 108.086C196.346 108.086 197.96 105.625 198.308 102.157C198.349 101.84 198.308 101.504 198.246 101.187C198.205 100.982 198.083 100.796 197.878 100.311C197.47 100.441 197.02 100.516 196.611 100.628C196.611 100.628 196.019 100.814 195.446 101.094C189.397 103.965 185.575 109.783 185.575 109.783C183.735 112.579 181.916 115.357 182.816 116.234Z" fill="#EBAA01"/>
<path d="M208.833 12.8838C208.343 4.71722 197.122 -1.80857 186.863 0.447486C193.014 6.56308 198.86 12.4736 208.833 12.8838Z" fill="#EBAA01"/>
<path d="M221.729 85.9912C228.147 78.1976 227.615 69.4903 220.666 64.2883C216.354 71.6345 219.849 78.4586 221.729 85.9912Z" fill="#EBAA01"/>
<path d="M227.861 70.8702C231.744 61.8274 228.658 53.4184 220.524 50.1555C218.562 58.3221 223.916 64.1207 227.861 70.8702Z" fill="#EBAA01"/>
<path d="M226.001 38.4276C225.04 29.5712 216.681 22.9708 208.71 24.5557C209.916 29.7017 216.068 34.68 226.001 38.4276Z" fill="#EBAA01"/>
<path d="M229.189 54.5556C230.599 45.1958 224.529 36.8614 216.272 36.7495C216.988 44.8601 223.507 49.2231 229.189 54.5556Z" fill="#EBAA01"/>
<path d="M197.122 14.5804C202.314 21.4231 210.448 22.1689 218.092 24.164C216.702 17.4517 204.95 10.6276 197.122 14.5804Z" fill="#EBAA01"/>
<path d="M216.559 78.0857C210.591 84.1267 211.756 91.4729 211.531 98.7445C219.87 94.3629 222.159 82.6165 216.559 78.0857Z" fill="#EBAA01"/>
<path d="M213.984 99.9193C222.322 99.9566 230.477 93.2443 232.337 84.7981C223.242 86.7185 218.398 93.0392 213.984 99.9193Z" fill="#EBAA01"/>
<path d="M197.817 109.466C207.423 105.83 211.572 98.6516 209.139 90.0562C201.353 94.6242 200.412 102.026 197.817 109.466Z" fill="#EBAA01"/>
<path d="M183.552 117.8C189.622 122.61 203.213 118.806 207.627 113.25C198.676 110.603 191.114 114.276 183.552 117.8Z" fill="#EBAA01"/>
<path d="M232.725 30.8953C227.82 38.372 229.332 45.8859 231.499 53.4186C237.446 49.2421 238.018 39.6025 232.725 30.8953Z" fill="#EBAA01"/>
<path d="M222.567 15.3076C219.808 23.5488 223.978 30.3729 227.881 37.0851C232.602 32.0882 229.905 20.6028 222.567 15.3076Z" fill="#EBAA01"/>
<path d="M230.191 70.3854C237.549 66.7682 241.023 56.9609 237.794 48.8689C230.661 54.7235 230.906 62.7036 230.191 70.3854Z" fill="#EBAA01"/>
<path d="M219.85 22.4487C222.793 16.1093 216.314 5.40704 207.812 2.27466C209.61 7.51394 209.324 13.0142 214.475 16.7619C216.518 18.2535 217.949 20.4164 219.85 22.4673V22.4487Z" fill="#EBAA01"/>
<path d="M237.773 67.1038C229.394 71.1684 226.819 78.4959 224.407 85.7862C231.581 85.32 238.366 75.9975 237.773 67.1038Z" fill="#EBAA01"/>
<path d="M199.943 110.771C208.322 112.728 217.233 108.533 222.608 99.8074C217.887 101.019 213.432 101.523 209.733 103.294C206.135 105.028 203.335 108.104 199.922 110.771H199.943Z" fill="#EBAA01"/>
<path d="M61.0884 80.5095L55.6724 65.985H61.6811L66.3614 79.0552C66.3614 79.0552 66.4227 79.1671 66.484 79.1671C66.5453 79.1671 66.5862 79.1484 66.6066 79.0552L71.2256 65.985H77.2343L71.8182 80.5095C70.919 82.9334 69.3044 84.1267 66.4431 84.1267C63.5818 84.1267 61.9672 82.9147 61.0679 80.5095H61.0884ZM83.1408 83.7165C79.5233 83.7165 78.0518 82.1316 78.0518 79.6518V70.0682C78.0518 67.5698 79.5233 66.0036 83.1408 66.0036H94.1568V70.3293H83.9379V72.6972H93.421V77.0229H83.9379V79.3908H94.2999V83.7165H83.1408ZM96.8342 83.7165V65.985H102.72V72.6599H111.141V65.985H117.027V83.7165H111.141V77.1161H102.72V83.7165H96.8342ZM126.408 65.985V83.7165H120.522V65.985H126.408ZM128.308 74.86C128.308 69.6953 133.214 65.6121 139.631 65.6121C143.453 65.6121 147.193 67.2901 148.767 70.1988L143.964 72.3989C143.065 71.0937 141.859 70.1988 139.386 70.1988C136.361 70.1988 134.358 72.0819 134.358 74.8414C134.358 77.6009 136.3 79.484 139.386 79.484C141.859 79.484 143.167 78.5891 143.964 77.2839L148.767 79.484C147.213 82.3927 143.453 84.0707 139.631 84.0707C133.214 84.0707 128.308 80.0061 128.308 74.8228V74.86ZM155.756 79.2603H165.24V83.7165H154.959C151.342 83.7165 149.87 82.1316 149.87 79.6518V66.0036H155.756V79.2603ZM171.269 83.7165C167.651 83.7165 166.18 82.1316 166.18 79.6518V70.0682C166.18 67.5698 167.651 66.0036 171.269 66.0036H182.285V70.3293H172.066V72.6972H181.549V77.0229H172.066V79.3908H182.428V83.7165H171.269Z" fill="#EBAA01"/>
<path d="M85.2052 100.889H79.2578V87.576H85.2665C90.4782 87.576 93.9526 90.2236 93.9526 94.2323C93.9526 98.241 90.2738 100.87 85.1848 100.87L85.2052 100.889ZM85.2665 90.2422H82.7527V98.2969H85.2052C88.23 98.2969 90.376 96.7307 90.376 94.2509C90.376 91.7711 88.3118 90.2609 85.2665 90.2609V90.2422ZM98.8373 100.889C96.6095 100.889 95.7511 99.9377 95.7511 98.4088V90.0558C95.7511 88.5269 96.6095 87.5573 98.8373 87.5573H107.36V90.149H99.246V92.9085H106.869V95.5001H99.246V98.2596H107.503V100.851H98.8373V100.889ZM108.647 98.241L111.57 97.029C112.101 97.9986 113.225 98.4834 114.901 98.4834C116.414 98.4834 117.558 97.9613 117.558 97.029C117.558 95.929 116.291 95.7425 114.615 95.5001C112.204 95.1645 108.913 94.456 108.913 91.4542C108.913 89.1235 111.447 87.3336 114.779 87.3336C117.436 87.3336 119.745 88.3404 120.767 90.2422L117.844 91.4542C117.313 90.5965 116.271 90.0185 114.636 90.0185C113.328 90.0185 112.408 90.5405 112.408 91.3423C112.408 92.4051 113.757 92.6847 115.494 92.9458C117.885 93.2814 121.053 93.9899 121.053 97.0104C121.053 99.397 118.315 101.15 114.901 101.15C111.999 101.15 109.69 100.143 108.647 98.241ZM126.571 87.576V100.889H123.077V87.576H126.571ZM128.349 94.2323C128.349 90.3914 131.947 87.3336 136.709 87.3336C139.468 87.3336 142.186 88.4709 143.392 90.6151L140.551 91.9389C139.733 90.7456 138.487 90.0371 136.565 90.0371C133.868 90.0371 131.947 91.8644 131.947 94.2696C131.947 96.6748 133.888 98.5207 136.709 98.5207C138.282 98.5207 139.447 98.185 140.183 97.5511V94.6052H143.555V98.5207C142.39 99.9936 139.897 101.15 136.709 101.15C131.987 101.15 128.349 98.0732 128.349 94.2323ZM145.436 100.889V89.4032C145.436 88.0794 146.6 87.3149 147.929 87.3149C148.992 87.3149 149.83 87.6319 150.341 88.3591L156.717 97.3833V87.5946H160.028V99.08C160.028 100.404 158.863 101.15 157.576 101.15C156.554 101.15 155.654 100.851 155.123 100.124L148.746 91.044V100.889H145.415H145.436Z" fill="#EBAA01"/>
<path d="M64.4603 108.738L65.1348 108.477C65.3391 108.85 65.7683 109.055 66.3815 109.055C66.9946 109.055 67.4442 108.813 67.4442 108.403C67.4442 107.937 66.9128 107.843 66.2997 107.75C65.5231 107.62 64.5421 107.415 64.5421 106.501C64.5421 105.792 65.3187 105.252 66.2997 105.252C67.0968 105.252 67.7917 105.55 68.0982 106.147L67.4442 106.426C67.2399 106.072 66.8311 105.848 66.2588 105.848C65.7275 105.848 65.2983 106.109 65.2983 106.464C65.2983 106.93 65.8501 107.023 66.4837 107.135C67.2603 107.265 68.2004 107.47 68.2004 108.384C68.2004 109.149 67.3829 109.671 66.3406 109.671C65.4618 109.671 64.726 109.354 64.4194 108.757L64.4603 108.738ZM68.9771 109.577V105.009H69.7333V106.799C70.0194 106.538 70.4895 106.37 71.0004 106.37C72.1041 106.37 72.7376 106.986 72.7376 107.937V109.577H71.9814V108.011C71.9814 107.452 71.6135 106.967 70.8982 106.967C70.2238 106.967 69.7537 107.415 69.7537 108.03V109.577H68.9975H68.9771ZM73.2077 107.993C73.2077 107.098 73.9843 106.352 75.1289 106.352C76.2734 106.352 76.9887 107.042 76.9887 107.918V108.179H73.9639C74.0456 108.72 74.5362 109.093 75.231 109.093C75.7011 109.093 76.1099 108.925 76.3347 108.589L76.9274 108.832C76.6004 109.372 75.9872 109.652 75.2515 109.652C74.107 109.652 73.2486 108.962 73.2486 107.993H73.2077ZM76.2121 107.769C76.1712 107.265 75.742 106.93 75.1084 106.93C74.4748 106.93 74.0456 107.303 73.9639 107.769H76.1916H76.2121ZM78.4398 105.009V109.577H77.6836V105.009H78.4398ZM80.2179 105.009V109.577H79.4617V105.009H80.2179ZM83.7741 109.577C83.2427 109.577 83.0383 109.354 83.0383 108.981V105.867C83.0383 105.494 83.2222 105.27 83.7741 105.27H86.6149V105.867H83.8354V107.116H86.4719V107.713H83.8354V108.962H86.6762V109.559H83.7741V109.577ZM87.0237 108.011C87.0237 107.116 87.9229 106.37 89.0061 106.37C89.701 106.37 90.3346 106.631 90.682 107.191L90.0485 107.489C89.8237 107.153 89.4353 106.967 89.0061 106.967C88.3317 106.967 87.8003 107.433 87.8003 108.011C87.8003 108.589 88.3521 109.055 89.0061 109.055C89.4558 109.055 89.8237 108.869 90.0485 108.533L90.682 108.813C90.3346 109.391 89.701 109.633 89.0061 109.633C87.9229 109.633 87.0237 108.906 87.0237 107.993V108.011ZM90.8456 108.011C90.8456 107.116 91.7448 106.37 92.8689 106.37C93.993 106.37 94.8718 107.116 94.8718 108.011C94.8718 108.906 93.993 109.671 92.8689 109.671C91.7448 109.671 90.8456 108.925 90.8456 108.011ZM94.1156 108.011C94.1156 107.433 93.5842 106.967 92.8689 106.967C92.1536 106.967 91.6018 107.433 91.6018 108.011C91.6018 108.589 92.1536 109.055 92.8689 109.055C93.5842 109.055 94.1156 108.589 94.1156 108.011ZM98.3258 107.899H95.6484V107.321H98.3258V107.899ZM105.806 107.937V109.596H105.05V108.048C105.05 107.47 104.702 106.986 104.008 106.986C103.313 106.986 102.965 107.47 102.965 108.048V109.615H102.209V108.048C102.209 107.47 101.862 106.986 101.167 106.986C100.472 106.986 100.145 107.489 100.145 108.048V109.596H99.3886V107.955C99.3886 107.079 100.002 106.37 101.126 106.37C101.882 106.37 102.434 106.687 102.618 107.172C102.822 106.687 103.354 106.37 104.089 106.37C105.234 106.37 105.847 107.079 105.847 107.937H105.806ZM106.276 108.011C106.276 107.116 107.135 106.37 108.299 106.37C109.464 106.37 110.323 107.079 110.323 108.011V109.577H109.587V109.018C109.301 109.41 108.79 109.652 108.177 109.652C107.073 109.652 106.276 108.906 106.276 107.993V108.011ZM109.546 108.011C109.546 107.433 109.015 106.967 108.299 106.967C107.584 106.967 107.053 107.433 107.053 108.011C107.053 108.589 107.605 109.055 108.299 109.055C108.994 109.055 109.546 108.589 109.546 108.011ZM111.018 109.577V107.713C111.018 106.948 111.549 106.389 112.53 106.389C112.775 106.389 113.021 106.426 113.205 106.501V107.135C113.021 107.042 112.796 107.004 112.591 107.004C112.08 107.004 111.774 107.284 111.774 107.75V109.596H111.018V109.577ZM113.164 108.011C113.164 107.116 114.022 106.37 115.187 106.37C116.352 106.37 117.21 107.079 117.21 108.011V109.577H116.475V109.018C116.188 109.41 115.678 109.652 115.064 109.652C113.961 109.652 113.164 108.906 113.164 107.993V108.011ZM116.434 108.011C116.434 107.433 115.902 106.967 115.187 106.967C114.472 106.967 113.94 107.433 113.94 108.011C113.94 108.589 114.492 109.055 115.187 109.055C115.882 109.055 116.434 108.589 116.434 108.011ZM118.191 108.459V107.004H117.435V106.464H118.191V105.643H118.948V106.464H120.399V107.004H118.948V108.44C118.948 108.85 119.234 109.093 119.704 109.093C119.949 109.093 120.215 109.018 120.399 108.906V109.484C120.215 109.596 119.908 109.671 119.622 109.671C118.682 109.671 118.171 109.186 118.171 108.459H118.191ZM121.155 109.577V105.009H121.911V106.799C122.197 106.538 122.667 106.37 123.178 106.37C124.282 106.37 124.915 106.986 124.915 107.937V109.577H124.159V108.011C124.159 107.452 123.791 106.967 123.076 106.967C122.402 106.967 121.931 107.415 121.931 108.03V109.577H121.175H121.155ZM125.385 108.011C125.385 107.116 126.285 106.37 127.409 106.37C128.533 106.37 129.412 107.116 129.412 108.011C129.412 108.906 128.533 109.671 127.409 109.671C126.285 109.671 125.385 108.925 125.385 108.011ZM128.656 108.011C128.656 107.433 128.124 106.967 127.409 106.967C126.694 106.967 126.142 107.433 126.142 108.011C126.142 108.589 126.694 109.055 127.409 109.055C128.124 109.055 128.656 108.589 128.656 108.011ZM130.658 108.067V109.577H129.902V107.993C129.902 107.079 130.556 106.352 131.783 106.352C133.009 106.352 133.683 107.06 133.683 107.974V109.559H132.927V108.048C132.927 107.452 132.539 106.948 131.783 106.948C131.026 106.948 130.679 107.452 130.679 108.03L130.658 108.067ZM137.362 105.811C137.526 105.401 137.893 105.214 138.323 105.214C138.752 105.214 139.14 105.401 139.304 105.811L140.714 109.577H139.917L139.528 108.533H137.117L136.728 109.577H135.931L137.342 105.811H137.362ZM137.342 107.937H139.324L138.629 105.997C138.568 105.867 138.486 105.792 138.343 105.792C138.18 105.792 138.098 105.848 138.057 105.997L137.362 107.937H137.342ZM140.98 108.962L141.572 108.701C141.756 109.018 142.083 109.13 142.492 109.13C142.901 109.13 143.248 108.981 143.248 108.701C143.248 108.048 141.082 108.533 141.082 107.34C141.082 106.781 141.674 106.389 142.492 106.389C143.187 106.389 143.677 106.65 143.923 107.023L143.33 107.303C143.166 107.023 142.86 106.93 142.512 106.93C142.165 106.93 141.838 107.079 141.838 107.34C141.838 107.974 144.004 107.508 144.004 108.701C144.004 109.298 143.309 109.671 142.512 109.671C141.818 109.671 141.266 109.447 140.98 108.981V108.962ZM144.597 105.401C144.597 105.177 144.822 104.972 145.108 104.972C145.394 104.972 145.599 105.158 145.599 105.401C145.599 105.643 145.374 105.811 145.108 105.811C144.842 105.811 144.597 105.625 144.597 105.401ZM145.476 106.445V109.577H144.72V106.445H145.476ZM146.109 108.011C146.109 107.116 146.968 106.37 148.133 106.37C149.298 106.37 150.156 107.079 150.156 108.011V109.577H149.42V109.018C149.134 109.41 148.623 109.652 148.01 109.652C146.907 109.652 146.109 108.906 146.109 107.993V108.011ZM149.38 108.011C149.38 107.433 148.848 106.967 148.133 106.967C147.417 106.967 146.886 107.433 146.886 108.011C146.886 108.589 147.438 109.055 148.133 109.055C148.828 109.055 149.38 108.589 149.38 108.011ZM152.895 109.577V105.289H154.55C155.94 105.289 156.839 105.811 156.839 106.799C156.839 107.787 155.92 108.328 154.591 108.328H153.692V109.559H152.895V109.577ZM153.692 105.886V107.731H154.571C155.429 107.731 156.042 107.452 156.042 106.799C156.042 106.147 155.45 105.886 154.571 105.886H153.692ZM157.023 108.011C157.023 107.116 157.882 106.37 159.047 106.37C160.212 106.37 161.07 107.079 161.07 108.011V109.577H160.334V109.018C160.048 109.41 159.537 109.652 158.924 109.652C157.82 109.652 157.023 108.906 157.023 107.993V108.011ZM160.293 108.011C160.293 107.433 159.762 106.967 159.047 106.967C158.331 106.967 157.8 107.433 157.8 108.011C157.8 108.589 158.352 109.055 159.047 109.055C159.741 109.055 160.293 108.589 160.293 108.011ZM161.52 108.011C161.52 107.116 162.419 106.37 163.502 106.37C164.197 106.37 164.831 106.631 165.178 107.191L164.544 107.489C164.32 107.153 163.931 106.967 163.502 106.967C162.828 106.967 162.296 107.433 162.296 108.011C162.296 108.589 162.848 109.055 163.502 109.055C163.952 109.055 164.32 108.869 164.544 108.533L165.178 108.813C164.831 109.391 164.197 109.633 163.502 109.633C162.419 109.633 161.52 108.906 161.52 107.993V108.011ZM165.607 105.401C165.607 105.177 165.832 104.972 166.118 104.972C166.404 104.972 166.609 105.158 166.609 105.401C166.609 105.643 166.384 105.811 166.118 105.811C165.852 105.811 165.607 105.625 165.607 105.401ZM166.506 106.445V109.577H165.75V106.445H166.506ZM167.774 109.577V106.986H167.058V106.445H167.774V106.109C167.774 105.438 168.285 104.953 169.225 104.953C169.47 104.953 169.715 104.991 169.92 105.065V105.681C169.736 105.587 169.511 105.531 169.306 105.531C168.836 105.531 168.55 105.699 168.55 106.128V106.445H170.88V109.577H170.124V106.986H168.571V109.577H167.814H167.774ZM171.371 108.011C171.371 107.116 172.27 106.37 173.353 106.37C174.048 106.37 174.682 106.631 175.029 107.191L174.395 107.489C174.171 107.153 173.782 106.967 173.353 106.967C172.679 106.967 172.147 107.433 172.147 108.011C172.147 108.589 172.699 109.055 173.353 109.055C173.803 109.055 174.171 108.869 174.395 108.533L175.029 108.813C174.682 109.391 174.048 109.633 173.353 109.633C172.27 109.633 171.371 108.906 171.371 107.993V108.011ZM75.4354 115.674C75.4354 114.779 76.2938 114.034 77.4588 114.034C78.6237 114.034 79.4821 114.742 79.4821 115.674V117.241H78.7464V116.681C78.4602 117.073 77.9493 117.315 77.3361 117.315C76.2325 117.315 75.4354 116.569 75.4354 115.656V115.674ZM78.7055 115.674C78.7055 115.096 78.1741 114.63 77.4588 114.63C76.7434 114.63 76.2121 115.096 76.2121 115.674C76.2121 116.252 76.7639 116.718 77.4588 116.718C78.1537 116.718 78.7055 116.252 78.7055 115.674ZM80.9536 115.73V117.241H80.1974V115.656C80.1974 114.742 80.8515 114.015 82.0777 114.015C83.304 114.015 83.9784 114.723 83.9784 115.637V117.222H83.2222V115.712C83.2222 115.115 82.8339 114.612 82.0777 114.612C81.3215 114.612 80.9741 115.115 80.9741 115.693L80.9536 115.73ZM84.4485 115.693C84.4485 114.742 85.2865 114.034 86.431 114.034C86.9419 114.034 87.412 114.22 87.7186 114.5V112.672H88.4952V115.693C88.4952 116.625 87.6164 117.334 86.4719 117.334C85.3273 117.334 84.4485 116.607 84.4485 115.693ZM87.7186 115.674C87.7186 115.096 87.1872 114.63 86.4719 114.63C85.7565 114.63 85.2251 115.096 85.2251 115.674C85.2251 116.252 85.777 116.718 86.4719 116.718C87.1667 116.718 87.7186 116.252 87.7186 115.674ZM94.5448 113.567H92.9506V117.259H92.1536V113.567H90.5594V112.971H94.5244V113.567H94.5448ZM94.974 117.241V112.672H95.7302V114.462C96.0163 114.201 96.4864 114.034 96.9973 114.034C98.101 114.034 98.7346 114.649 98.7346 115.6V117.241H97.9784V115.674C97.9784 115.115 97.6105 114.63 96.8952 114.63C96.2207 114.63 95.7506 115.078 95.7506 115.693V117.241H94.9944H94.974ZM99.2046 115.656C99.2046 114.761 99.9813 114.015 101.126 114.015C102.27 114.015 102.986 114.705 102.986 115.581V115.842H99.9608C100.043 116.383 100.533 116.756 101.228 116.756C101.698 116.756 102.107 116.588 102.332 116.252L102.924 116.495C102.597 117.035 101.984 117.315 101.248 117.315C100.104 117.315 99.2455 116.625 99.2455 115.656H99.2046ZM102.209 115.432C102.168 114.929 101.739 114.593 101.105 114.593C100.472 114.593 100.043 114.966 99.9608 115.432H102.189H102.209ZM105.193 117.259L105.929 113.456C105.99 113.083 106.317 112.878 106.746 112.878C107.114 112.878 107.441 113.027 107.543 113.362L108.545 116.346C108.545 116.346 108.586 116.42 108.606 116.42C108.647 116.42 108.667 116.401 108.688 116.346L109.669 113.362C109.771 113.027 110.118 112.878 110.486 112.878C110.895 112.878 111.222 113.083 111.283 113.456L111.937 117.241H111.14L110.568 113.661C110.568 113.661 110.527 113.511 110.445 113.511C110.384 113.511 110.323 113.549 110.302 113.642L109.24 116.718C109.158 116.979 108.913 117.11 108.606 117.11C108.32 117.11 108.075 116.979 107.972 116.737L106.91 113.642C106.91 113.642 106.848 113.511 106.767 113.511C106.685 113.511 106.644 113.549 106.624 113.661L105.99 117.241H105.193V117.259ZM112.551 113.083C112.551 112.859 112.775 112.654 113.061 112.654C113.348 112.654 113.552 112.84 113.552 113.083C113.552 113.325 113.327 113.493 113.061 113.493C112.796 113.493 112.551 113.306 112.551 113.083ZM113.45 114.108V117.241H112.694V114.108H113.45ZM114.063 115.693C114.063 114.742 114.901 114.034 116.045 114.034C116.556 114.034 117.026 114.22 117.333 114.5V112.672H118.11V115.693C118.11 116.625 117.231 117.334 116.086 117.334C114.942 117.334 114.063 116.607 114.063 115.693ZM117.333 115.674C117.333 115.096 116.802 114.63 116.086 114.63C115.371 114.63 114.84 115.096 114.84 115.674C114.84 116.252 115.391 116.718 116.086 116.718C116.781 116.718 117.333 116.252 117.333 115.674ZM118.58 115.693C118.58 114.742 119.418 114.034 120.562 114.034C121.073 114.034 121.543 114.22 121.85 114.5V112.672H122.626V115.693C122.626 116.625 121.748 117.334 120.603 117.334C119.459 117.334 118.58 116.607 118.58 115.693ZM121.85 115.674C121.85 115.096 121.318 114.63 120.603 114.63C119.888 114.63 119.356 115.096 119.356 115.674C119.356 116.252 119.908 116.718 120.603 116.718C121.298 116.718 121.85 116.252 121.85 115.674ZM124.241 112.672V117.241H123.485V112.672H124.241ZM124.854 115.656C124.854 114.761 125.631 114.015 126.775 114.015C127.92 114.015 128.635 114.705 128.635 115.581V115.842H125.61C125.692 116.383 126.183 116.756 126.877 116.756C127.348 116.756 127.756 116.588 127.981 116.252L128.574 116.495C128.247 117.035 127.634 117.315 126.898 117.315C125.753 117.315 124.895 116.625 124.895 115.656H124.854ZM127.879 115.432C127.838 114.929 127.409 114.593 126.775 114.593C126.142 114.593 125.713 114.966 125.631 115.432H127.858H127.879ZM131.864 117.241C131.333 117.241 131.129 117.017 131.129 116.644V113.53C131.129 113.157 131.312 112.933 131.864 112.933H134.705V113.53H131.926V114.779H134.562V115.376H131.926V116.625H134.766V117.222H131.864V117.241ZM135.114 115.674C135.114 114.779 135.972 114.034 137.137 114.034C138.302 114.034 139.161 114.742 139.161 115.674V117.241H138.425V116.681C138.139 117.073 137.628 117.315 137.015 117.315C135.911 117.315 135.114 116.569 135.114 115.656V115.674ZM138.384 115.674C138.384 115.096 137.853 114.63 137.137 114.63C136.422 114.63 135.891 115.096 135.891 115.674C135.891 116.252 136.442 116.718 137.137 116.718C137.832 116.718 138.384 116.252 138.384 115.674ZM139.692 116.625L140.285 116.364C140.469 116.681 140.796 116.793 141.204 116.793C141.613 116.793 141.961 116.644 141.961 116.364C141.961 115.712 139.794 116.196 139.794 115.003C139.794 114.444 140.387 114.052 141.204 114.052C141.899 114.052 142.39 114.313 142.635 114.686L142.042 114.966C141.879 114.686 141.572 114.593 141.225 114.593C140.877 114.593 140.55 114.742 140.55 115.003C140.55 115.637 142.717 115.171 142.717 116.364C142.717 116.961 142.022 117.334 141.225 117.334C140.53 117.334 139.978 117.11 139.692 116.644V116.625ZM143.534 116.122V114.667H142.778V114.127H143.534V113.306H144.29V114.127H145.742V114.667H144.29V116.103C144.29 116.513 144.577 116.756 145.047 116.756C145.292 116.756 145.558 116.681 145.742 116.569V117.147C145.558 117.259 145.251 117.334 144.965 117.334C144.025 117.334 143.514 116.849 143.514 116.122H143.534ZM148.807 117.241C148.337 117.241 148.092 117.017 148.092 116.737C148.092 116.532 148.194 116.364 148.419 116.196L149.952 115.059C150.381 114.742 150.606 114.5 150.606 114.145C150.606 113.754 150.217 113.493 149.707 113.493C149.196 113.493 148.787 113.754 148.542 114.145L147.928 113.866C148.276 113.288 148.909 112.878 149.747 112.878C150.708 112.878 151.382 113.418 151.382 114.108C151.382 114.63 151.096 115.022 150.626 115.376L149.093 116.495C149.093 116.495 148.991 116.569 148.991 116.607C148.991 116.625 148.991 116.644 149.032 116.644H151.525V117.241H148.787H148.807ZM151.934 115.096C151.934 113.847 152.772 112.878 154.019 112.878C155.266 112.878 156.104 113.828 156.104 115.096C156.104 116.364 155.266 117.334 154.019 117.334C152.772 117.334 151.934 116.346 151.934 115.096ZM155.286 115.096C155.286 114.22 154.755 113.549 154.019 113.549C153.283 113.549 152.752 114.22 152.752 115.096C152.752 115.973 153.283 116.663 154.019 116.663C154.755 116.663 155.286 115.973 155.286 115.096ZM157.33 117.241C156.86 117.241 156.614 117.017 156.614 116.737C156.614 116.532 156.717 116.364 156.942 116.196L158.474 115.059C158.904 114.742 159.128 114.5 159.128 114.145C159.128 113.754 158.74 113.493 158.229 113.493C157.718 113.493 157.309 113.754 157.064 114.145L156.451 113.866C156.798 113.288 157.432 112.878 158.27 112.878C159.231 112.878 159.905 113.418 159.905 114.108C159.905 114.63 159.619 115.022 159.149 115.376L157.616 116.495C157.616 116.495 157.514 116.569 157.514 116.607C157.514 116.625 157.514 116.644 157.555 116.644H160.048V117.241H157.309H157.33ZM160.396 116.532L161.05 116.196C161.233 116.569 161.663 116.737 162.133 116.737C162.685 116.737 163.114 116.42 163.114 115.991C163.114 115.507 162.705 115.283 162.092 115.283H161.315C160.845 115.283 160.579 115.059 160.579 114.686V112.971H163.604V113.567H161.295V114.63C161.295 114.63 161.356 114.723 161.417 114.723H162.214C163.257 114.723 163.89 115.134 163.89 115.973C163.89 116.812 163.155 117.352 162.133 117.352C161.377 117.352 160.702 117.073 160.396 116.551V116.532Z" fill="#EBAA01"/>
</g>
<defs>
<clipPath id="clip0_351_6613">
<rect width="239" height="120" fill="white"/>
</clipPath>
</defs>
</svg>
