<svg width="217" height="120" viewBox="0 0 217 120" fill="none" xmlns="http://www.w3.org/2000/svg">
<g clip-path="url(#clip0_351_7410)">
<path d="M51.0124 116.233C49.565 117.762 41.363 112.56 38.728 108.085C38.728 108.085 37.262 105.624 36.9466 102.156C36.9095 101.839 36.9466 101.504 37.0023 101.187C37.0394 100.982 37.1507 100.795 37.3363 100.31C37.7074 100.441 38.1156 100.515 38.4868 100.627C38.4868 100.627 39.0249 100.814 39.5445 101.093C45.0372 103.965 48.5073 109.782 48.5073 109.782C50.1774 112.579 51.8289 115.357 51.0124 116.233Z" fill="#EBAA01"/>
<path d="M27.3894 12.8835C27.8348 4.71697 38.0223 -1.80882 47.3377 0.447242C41.7522 6.56284 36.445 12.4733 27.3894 12.8835Z" fill="#EBAA01"/>
<path d="M15.6804 85.9908C9.85364 78.1971 10.3361 69.4898 16.6453 64.2878C20.5608 71.634 17.3876 78.4581 15.6804 85.9908Z" fill="#EBAA01"/>
<path d="M10.1138 70.8695C6.58804 61.8266 9.39008 53.4177 16.7756 50.1548C18.557 58.3213 13.6952 64.12 10.1138 70.8695Z" fill="#EBAA01"/>
<path d="M11.8027 38.4269C12.6749 29.5705 20.2645 22.9701 27.5016 24.5549C26.4067 29.701 20.8212 34.6792 11.8027 38.4269Z" fill="#EBAA01"/>
<path d="M8.90745 54.5551C7.62705 45.1953 13.1383 36.8609 20.6352 36.749C19.9857 44.8597 14.0662 49.2226 8.90745 54.5551Z" fill="#EBAA01"/>
<path d="M38.0229 14.5799C33.3095 21.4226 25.924 22.1685 18.9839 24.1635C20.2457 17.4512 30.9157 10.6271 38.0229 14.5799Z" fill="#EBAA01"/>
<path d="M20.3755 78.0854C25.794 84.1265 24.7363 91.4726 24.9404 98.7442C17.3693 94.3626 15.291 82.6162 20.3755 78.0854Z" fill="#EBAA01"/>
<path d="M22.7138 99.9188C15.1427 99.9561 7.73869 93.2438 6.05005 84.7976C14.3077 86.7181 18.7056 93.0388 22.7138 99.9188Z" fill="#EBAA01"/>
<path d="M37.3921 109.465C28.6706 105.829 24.9036 98.6508 27.1118 90.0554C34.1819 94.6235 35.0355 102.026 37.3921 109.465Z" fill="#EBAA01"/>
<path d="M50.3447 117.8C44.8334 122.61 32.4933 118.806 28.4851 113.25C36.6129 110.603 43.4788 114.276 50.3447 117.8Z" fill="#EBAA01"/>
<path d="M5.69715 30.8943C10.1507 38.371 8.77754 45.885 6.81054 53.4176C1.4106 49.2411 0.891013 39.6016 5.69715 30.8943Z" fill="#EBAA01"/>
<path d="M14.9203 15.3071C17.4255 23.5483 13.6399 30.3724 10.0956 37.0846C5.80908 32.0877 8.25854 20.6023 14.9203 15.3071Z" fill="#EBAA01"/>
<path d="M7.9984 70.3849C1.31805 66.7677 -1.83655 56.9604 1.09538 48.8684C7.5716 54.723 7.34892 62.7031 7.9984 70.3849Z" fill="#EBAA01"/>
<path d="M17.3879 22.4479C14.7158 16.1086 20.5982 5.40631 28.3177 2.27393C26.6848 7.5132 26.9445 13.0135 22.2683 16.7612C20.4127 18.2528 19.1137 20.4156 17.3879 22.4666V22.4479Z" fill="#EBAA01"/>
<path d="M1.1139 67.103C8.72208 71.1677 11.0602 78.4952 13.2499 85.7854C6.73653 85.3193 0.575761 75.9967 1.1139 67.103Z" fill="#EBAA01"/>
<path d="M35.4801 110.77C27.8719 112.728 19.7812 108.533 14.9009 99.8071C19.1874 101.019 23.2328 101.522 26.5915 103.294C29.8574 105.028 32.3997 108.104 35.4986 110.77H35.4801Z" fill="#EBAA01"/>
<path d="M165.988 116.233C167.436 117.762 175.638 112.56 178.273 108.085C178.273 108.085 179.739 105.624 180.054 102.156C180.091 101.839 180.054 101.504 179.998 101.187C179.961 100.982 179.85 100.795 179.664 100.31C179.293 100.441 178.885 100.515 178.514 100.627C178.514 100.627 177.976 100.814 177.456 101.093C171.963 103.965 168.493 109.782 168.493 109.782C166.823 112.579 165.172 115.357 165.988 116.233Z" fill="#EBAA01"/>
<path d="M189.61 12.8835C189.165 4.71697 178.977 -1.80882 169.662 0.447242C175.247 6.56284 180.555 12.4733 189.61 12.8835Z" fill="#EBAA01"/>
<path d="M201.32 85.9908C207.147 78.1971 206.665 69.4898 200.355 64.2878C196.44 71.634 199.613 78.4581 201.32 85.9908Z" fill="#EBAA01"/>
<path d="M206.887 70.8698C210.412 61.8269 207.61 53.4179 200.225 50.155C198.443 58.3216 203.305 64.1202 206.887 70.8698Z" fill="#EBAA01"/>
<path d="M205.198 38.4271C204.326 29.5707 196.736 22.9703 189.499 24.5552C190.594 29.7012 196.179 34.6795 205.198 38.4271Z" fill="#EBAA01"/>
<path d="M208.092 54.5551C209.373 45.1953 203.862 36.8609 196.365 36.749C197.014 44.8597 202.934 49.2226 208.092 54.5551Z" fill="#EBAA01"/>
<path d="M178.978 14.5799C183.691 21.4226 191.077 22.1685 198.017 24.1635C196.755 17.4512 186.085 10.6271 178.978 14.5799Z" fill="#EBAA01"/>
<path d="M196.625 78.0854C191.207 84.1265 192.265 91.4726 192.061 98.7442C199.632 94.3626 201.71 82.6162 196.625 78.0854Z" fill="#EBAA01"/>
<path d="M194.287 99.9188C201.858 99.9561 209.262 93.2438 210.951 84.7976C202.693 86.7181 198.295 93.0388 194.287 99.9188Z" fill="#EBAA01"/>
<path d="M179.609 109.465C188.33 105.829 192.097 98.6508 189.889 90.0554C182.819 94.6235 181.965 102.026 179.609 109.465Z" fill="#EBAA01"/>
<path d="M166.656 117.799C172.167 122.61 184.507 118.806 188.516 113.25C180.388 110.602 173.522 114.275 166.656 117.799Z" fill="#EBAA01"/>
<path d="M211.303 30.8943C206.849 38.371 208.222 45.885 210.189 53.4176C215.589 49.2411 216.109 39.6016 211.303 30.8943Z" fill="#EBAA01"/>
<path d="M202.08 15.3076C199.575 23.5488 203.361 30.3729 206.905 37.0851C211.192 32.0882 208.742 20.6028 202.08 15.3076Z" fill="#EBAA01"/>
<path d="M209.002 70.3849C215.683 66.7677 218.837 56.9604 215.905 48.8684C209.429 54.723 209.652 62.7031 209.002 70.3849Z" fill="#EBAA01"/>
<path d="M199.612 22.4482C202.285 16.1088 196.402 5.40655 188.683 2.27417C190.316 7.51345 190.056 13.0138 194.732 16.7614C196.588 18.253 197.887 20.4159 199.612 22.4668V22.4482Z" fill="#EBAA01"/>
<path d="M215.887 67.103C208.279 71.1677 205.94 78.4952 203.751 85.7854C210.264 85.3193 216.425 75.9967 215.887 67.103Z" fill="#EBAA01"/>
<path d="M181.539 110.77C189.147 112.728 197.237 108.533 202.118 99.8071C197.831 101.019 193.786 101.522 190.427 103.294C187.161 105.028 184.619 108.104 181.52 110.77H181.539Z" fill="#EBAA01"/>
<path d="M64.1129 23.2129H70.5706V26.569H63.5562C61.0882 26.569 60.0862 25.3944 60.0862 23.5112V13.2564H64.0944V23.2129H64.1129ZM75.451 13.2564V26.569H71.4428V13.2564H75.451ZM77.8448 26.569V13.2564H83.4674C87.8096 13.2564 90.3519 15.1209 90.3519 18.216C90.3519 21.3111 87.9395 23.3061 83.6901 23.3061H81.8715V26.5317H77.8633L77.8448 26.569ZM81.853 16.6125V19.9687H83.5602C85.3602 19.9687 86.2138 19.3534 86.2138 18.2347C86.2138 17.1905 85.3045 16.6125 83.5602 16.6125H81.853ZM91.2055 20.5467V13.2564H95.2137V20.4534C95.2137 22.5044 96.0858 23.3434 97.8673 23.3434C99.6487 23.3434 100.539 22.5044 100.539 20.4534V13.2564H104.548V20.5467C104.548 24.4808 102.451 26.7928 97.8673 26.7928C93.2838 26.7928 91.2055 24.4808 91.2055 20.5467ZM117.482 16.6125H113.343V26.569H109.335V16.6125H105.197V13.2564H117.5V16.6125H117.482ZM119.727 15.3633C120.265 13.7225 121.787 12.9581 123.308 12.9581C124.83 12.9581 126.352 13.7225 126.89 15.3633L130.657 26.569H126.556L125.888 24.313H120.747L120.061 26.569H115.96L119.727 15.3633ZM121.75 21.0687H124.886L123.494 16.4447C123.457 16.3142 123.401 16.2396 123.327 16.2396C123.253 16.2396 123.197 16.2956 123.16 16.4447L121.75 21.0687ZM131.529 26.569V15.2142C131.529 13.7971 132.735 12.9395 134.015 12.9395C135.036 12.9395 135.927 13.2564 136.446 14.0022L141.605 21.4416V13.2564H145.409V24.6113C145.409 26.0283 144.203 26.8674 142.922 26.8674C141.92 26.8674 141.011 26.5504 140.492 25.8046L135.333 18.3652V26.569H131.529ZM146.597 22.2061C146.597 20.7704 147.135 19.5958 148.248 17.8431L151.162 13.2564H155.634L152.98 17.5075C155.819 17.6007 157.99 19.1856 157.99 21.8705C157.99 24.8164 155.708 26.886 152.294 26.886C148.879 26.886 146.615 24.7232 146.615 22.2061H146.597ZM154.094 22.001C154.094 21.1806 153.351 20.3416 152.256 20.3416C151.162 20.3416 150.419 21.2179 150.419 22.0383C150.419 22.9892 151.162 23.735 152.256 23.735C153.351 23.735 154.094 22.9519 154.094 22.001Z" fill="#EBAA01"/>
<path d="M39.7292 80.901V65.0154C39.7292 63.039 41.4365 61.8457 43.2179 61.8457C44.6467 61.8457 45.89 62.2932 46.6137 63.3373L53.8322 73.7226V62.2745H59.1394V78.1602C59.1394 80.1366 57.4322 81.3112 55.6507 81.3112C54.259 81.3112 52.9786 80.8637 52.2549 79.8196L45.0364 69.4343V80.901H39.7292ZM60.8095 71.6157C60.8095 66.0781 65.4115 61.9203 71.6094 61.9203C77.8072 61.9203 82.4092 66.0781 82.4092 71.6157C82.4092 77.1533 77.8072 81.3112 71.6094 81.3112C65.4115 81.3112 60.8095 77.1533 60.8095 71.6157ZM76.6382 71.6157C76.6382 68.8563 74.4485 66.7307 71.6094 66.7307C68.7702 66.7307 66.5805 68.8563 66.5805 71.6157C66.5805 74.3752 68.7702 76.5008 71.6094 76.5008C74.4485 76.5008 76.6382 74.3752 76.6382 71.6157ZM83.0031 80.901L85.6938 65.2764C86.0834 63.0763 87.7906 61.883 90.2401 61.883C92.3555 61.883 94.1555 62.7034 94.7308 64.773L97.5143 74.6363L100.279 64.8476C100.854 62.778 102.71 61.8644 104.881 61.8644C107.275 61.8644 108.908 63.0763 109.279 65.3323L111.71 80.8824H106.032L104.399 67.7562L101.151 78.5144C100.632 80.1739 99.2029 80.9756 97.5143 80.9756C95.8256 80.9756 94.3225 80.2111 93.8772 78.6263L90.6669 67.7376L88.6999 80.8824H83.0031V80.901ZM119.448 62.2932V80.901H113.844V62.2932H119.448ZM122.64 80.901V65.0154C122.64 63.039 124.347 61.8457 126.128 61.8457C127.557 61.8457 128.801 62.2932 129.524 63.3373L136.743 73.7226V62.2745H142.05V78.1602C142.05 80.1366 140.343 81.3112 138.561 81.3112C137.17 81.3112 135.889 80.8637 135.165 79.8196L127.947 69.4343V80.901H122.64ZM149.769 80.901C146.318 80.901 144.926 79.2416 144.926 76.6313V66.5629C144.926 63.9526 146.318 62.2932 149.769 62.2932H160.254V66.8426H150.512V69.3224H159.549V73.8718H150.512V76.3516H160.402V80.901H149.751H149.769ZM167.398 80.901C163.947 80.901 162.555 79.2416 162.555 76.6313V66.5629C162.555 63.9526 163.947 62.2932 167.398 62.2932H177.883V66.8426H168.14V69.3224H177.177V73.8718H168.14V76.3516H178.031V80.901H167.38H167.398Z" fill="#EBAA01"/>
<path d="M62.4241 104.99L68.4364 102.25C69.1786 103.704 70.6632 104.375 73.1312 104.375C75.0425 104.375 76.4899 103.834 76.4899 102.697C76.4899 101.28 74.9312 101.056 72.5374 100.739C68.5848 100.199 62.8138 98.8189 62.8138 93.0948C62.8138 88.6946 67.156 85.3198 73.0198 85.3198C77.6219 85.3198 81.5373 87.203 83.3373 90.7642L77.325 93.505C76.5827 92.3304 75.1724 91.3795 72.7229 91.3795C70.9972 91.3795 70.0694 91.8829 70.0694 92.8711C70.0694 94.2136 71.7951 94.6424 74.3745 94.9966C78.2899 95.5374 83.7455 96.8798 83.7455 102.641C83.7455 107.041 79.0136 110.416 73.1497 110.416C68.1395 110.416 64.2426 108.533 62.4426 104.972L62.4241 104.99ZM84.4136 97.8866C84.4136 90.8947 90.4259 85.3758 98.3309 85.3758C103.026 85.3758 107.628 87.6505 109.539 91.6032L103.638 94.5865C102.543 92.8152 101.059 91.6032 98.0155 91.6032C94.3042 91.6032 91.8362 94.1576 91.8362 97.8866C91.8362 101.616 94.2114 104.17 98.0155 104.17C101.059 104.17 102.673 102.958 103.638 101.187L109.539 104.17C107.628 108.123 103.007 110.379 98.3309 110.379C90.4444 110.379 84.4136 104.879 84.4136 97.868V97.8866ZM130.526 91.9202H123.067V109.857H115.83V91.9202H108.37V85.8792H130.526V91.9202ZM135.982 105.531L129.339 85.8792H136.724L142.477 103.573C142.514 103.685 142.551 103.723 142.625 103.723C142.7 103.723 142.737 103.685 142.774 103.573L148.434 85.8792H155.819L149.176 105.531C148.081 108.794 146.095 110.435 142.57 110.435C139.044 110.435 137.058 108.794 135.964 105.531H135.982Z" fill="#EBAA01"/>
<path d="M45.7609 36.4322C46.7444 33.4863 49.4722 32.0879 52.2 32.0879C54.9278 32.0879 57.6742 33.4676 58.6392 36.4322L65.4308 56.6249H58.0453L56.8392 52.5789H47.5795L46.3362 56.6249H38.9507L45.7424 36.4322H45.7609ZM49.3794 46.7057H55.0392L52.5341 38.3527C52.4598 38.1103 52.3856 37.9984 52.2186 37.9984C52.0516 37.9984 51.9774 38.1103 51.9031 38.3527L49.3609 46.7057H49.3794ZM62.703 32.6286H69.9401L73.3359 49.0363L76.305 37.1034C77.1586 33.5795 78.9957 32.0879 81.8162 32.0879C84.6368 32.0879 86.4739 33.5795 87.3275 37.1034L90.2966 49.0363L93.6924 32.6286H100.929L96.2347 52.7094C95.5666 55.5807 93.4512 57.1842 90.612 57.1842C88.0327 57.1842 85.7317 55.618 85.0636 52.9891L81.8162 40.0121L78.5689 52.9891C77.9008 55.618 75.5998 57.1842 73.0205 57.1842C70.1627 57.1842 68.0659 55.5807 67.3978 52.7094L62.703 32.6286ZM104.993 36.4322C105.977 33.4863 108.705 32.0879 111.432 32.0879C114.16 32.0879 116.907 33.4676 117.872 36.4322L124.663 56.6249H117.278L116.072 52.5789H106.812L105.569 56.6249H98.1831L104.975 36.4322H104.993ZM108.612 46.7057H114.272L111.766 38.3527C111.692 38.1103 111.618 37.9984 111.451 37.9984C111.284 37.9984 111.21 38.1103 111.136 38.3527L108.593 46.7057H108.612ZM126.445 56.6249V32.6472H137.504C143.758 32.6472 148.527 35.3135 148.527 40.6087C148.527 43.7784 146.579 46.3701 143.48 47.2464C144.816 48.0295 145.669 49.4092 146.838 51.5907L149.529 56.6435H141.68L139.212 52.1314C138.321 50.4906 137.3 49.894 134.944 49.894H133.607L133.57 56.6435H126.426L126.445 56.6249ZM133.663 38.6696L133.626 44.0394H137.486C139.601 44.0394 141.086 42.9766 141.086 41.2613C141.086 39.4527 139.601 38.6696 137.56 38.6696H133.645H133.663ZM162.704 56.6249H152.275V32.6472H162.704C171.333 32.6472 177.085 37.439 177.085 44.7293C177.085 52.0195 171.147 56.6249 162.704 56.6249ZM162.704 38.6696H159.494V50.7517H162.704C166.916 50.7517 169.663 48.3278 169.663 44.7106C169.663 41.0935 166.935 38.6696 162.704 38.6696Z" fill="#EBAA01"/>
</g>
<defs>
<clipPath id="clip0_351_7410">
<rect width="217" height="120" fill="white"/>
</clipPath>
</defs>
</svg>
