<svg preserveAspectRatio="none" width="100%" height="100%" overflow="visible" style="display: block;" viewBox="0 0 208.481 87.0001" fill="none" xmlns="http://www.w3.org/2000/svg">
<g id="Group">
<path id="Vector" d="M38.6394 63.6939C37.9417 63.6939 37.2876 63.3376 36.9097 62.7486C36.5318 62.1596 36.4737 61.4179 36.7644 60.7779L36.917 60.4362C37.0405 60.1598 37.1423 59.9199 37.2658 59.6872C37.5492 59.1563 37.8327 58.6255 38.1161 58.0946C38.7266 56.9675 39.308 55.8985 39.8312 54.7932C40.9068 52.5171 42.9054 52.5171 43.5595 52.5171C47.84 52.5317 52.106 52.539 56.3648 52.539C61.7791 52.539 67.1861 52.5317 72.6003 52.5099C73.5815 52.5099 74.5916 52.379 75.5291 52.139C76.5757 51.8772 77.0117 51.1646 76.8373 50.0229C76.8228 49.9066 76.7864 49.8484 76.7792 49.8411C76.7792 49.8411 76.7574 49.8266 76.6992 49.8193C75.2239 49.5866 73.6832 49.4557 72.1207 49.4266C71.2922 49.4121 70.4637 49.4048 69.6425 49.4048C69.0102 49.4048 66.4521 49.4193 65.8125 49.4193C64.2209 49.4193 63.0073 49.4048 61.8663 49.3612C59.795 49.2884 57.8764 49.0048 56.154 48.5176C51.8662 47.3032 49.4461 44.2782 49.1627 39.7842C48.872 35.1884 50.2819 31.3052 53.3488 28.2438C56.1758 25.4296 59.6933 24.8042 62.0988 24.5715C64.4026 24.3533 66.8372 24.2443 69.5262 24.237C74.8097 24.2225 80.1004 24.2152 85.3911 24.2152H104.374C105.159 24.2152 105.878 24.6733 106.227 25.3787C106.569 26.0913 106.481 26.9348 105.994 27.5529L100.762 34.2358C100.667 34.3812 100.551 34.5194 100.413 34.6357C100.035 34.9775 99.5191 35.1811 99.0104 35.1811C98.9959 35.1811 98.9813 35.1811 98.9595 35.1811C98.8215 35.1811 98.6834 35.1593 98.5453 35.1302C98.3418 35.1156 98.1383 35.1011 97.9276 35.1011H92.4987C83.5379 35.1011 74.5844 35.1156 65.6236 35.1447C64.577 35.1447 63.516 35.2684 62.5421 35.4938C61.6192 35.7047 61.0596 36.5991 61.2122 37.6099C61.2631 37.9662 61.3648 37.9953 61.452 38.0171C62.295 38.2571 63.0945 38.388 63.8358 38.4025C65.9506 38.4461 68.0582 38.4752 70.173 38.5043C72.8184 38.5407 75.5582 38.5698 78.2545 38.6498C79.519 38.6861 80.8926 38.9479 82.3388 39.4351C87.288 41.1076 89.8098 45.5216 88.9013 50.9682C88.567 52.9753 88.0801 54.6769 87.4042 56.1531C85.6528 59.9853 82.237 62.3705 77.535 63.0395C74.6716 63.4467 72.0916 63.6503 69.6425 63.6648C65.093 63.6939 60.5509 63.7012 56.0014 63.7012C53.3124 63.7012 38.6321 63.6867 38.6321 63.6867L38.6394 63.6939Z" fill="var(--fill-0, white)"/>
<path id="Vector_2" d="M186.438 56.7784C180.399 56.7784 175.363 56.7639 170.588 56.7275C167.877 56.7057 165.552 56.2258 163.473 55.2586C160.537 53.8842 159.018 51.3609 158.822 47.5359C158.793 46.9687 158.996 46.4234 159.389 46.0089C159.781 45.6016 160.319 45.3689 160.879 45.3689H163.727L172.834 45.3762C176.22 45.3762 180.232 45.3689 184.36 45.2962C186.54 45.2599 188.72 44.9472 190.668 44.4018C194.287 43.3837 196.22 40.795 196.249 36.9191C196.286 33.0505 194.309 30.2217 190.821 29.1673C189.105 28.6437 187.136 28.3529 184.948 28.2947C183.328 28.2511 181.642 28.2292 179.941 28.2292C177.39 28.2292 174.679 28.2801 171.896 28.3747C167.666 28.5201 164.156 29.5018 161.162 31.3634C158.073 33.2904 156.067 36.0537 155.028 39.8278C154.44 41.973 152.804 42.293 151.889 42.293H151.729C150.9 42.2639 150.072 42.2493 149.243 42.2493C148.415 42.2493 147.652 42.2639 146.86 42.293H146.663C144.817 42.293 143.655 41.1731 143.538 39.2897C143.393 36.8173 142.717 34.8248 141.474 33.1959C139.81 31.0071 137.39 29.6254 134.076 28.9855C131.62 28.5128 129.229 28.2511 126.947 28.2147C124.345 28.1711 121.518 28.1565 118.037 28.1565C116.089 28.1565 114.141 28.1565 112.186 28.1711C110.231 28.1711 108.276 28.1856 106.329 28.1856H105.239C104.468 28.1856 103.763 27.7566 103.407 27.0657L103.276 26.8185C102.848 25.9895 103.037 24.9715 103.727 24.3461C104.178 23.9389 104.621 23.5244 105.064 23.1099C106.045 22.1936 107.063 21.2556 108.138 20.3611C118.502 11.7804 130.995 5.70111 145.261 2.30517C151.787 0.748998 157.877 0 163.895 0C164.679 0 165.457 0.0145437 166.249 0.0363591C177.87 0.429038 187.303 3.15597 195.094 8.34806C202.107 13.0238 206.417 19.3503 207.899 27.1385C208.059 27.982 208.183 28.8255 208.299 29.64C208.35 30.0036 208.408 30.3672 208.459 30.7235C208.473 30.8253 208.481 30.9344 208.481 31.0434V34.9266C208.481 35.0502 208.473 35.1666 208.452 35.2829C208.343 35.8865 208.248 36.4973 208.146 37.1009C207.921 38.468 207.696 39.8787 207.376 41.2822C206.293 46.0379 204.142 50.6337 200.821 55.3241C200.217 56.1749 199.055 56.7639 197.986 56.7639C194.135 56.7712 190.276 56.7784 186.424 56.7784H186.438Z" fill="var(--fill-0, white)"/>
<path id="Vector_3" d="M206.446 34.9193C206.097 36.8899 205.835 38.8752 205.392 40.824C204.28 45.7034 202.042 50.0738 199.164 54.1315C198.939 54.4441 198.401 54.7059 198.008 54.7059C188.873 54.7277 179.745 54.735 170.61 54.6696C168.466 54.655 166.337 54.3205 164.353 53.397C161.889 52.2481 161.024 50.161 160.893 47.4414C161.344 47.4414 161.729 47.4414 162.121 47.4414C169.549 47.4341 176.976 47.4923 184.404 47.3687C186.693 47.3323 189.04 47.0123 191.235 46.3942C195.799 45.1071 198.277 41.6166 198.321 36.9481C198.364 32.2578 195.886 28.5564 191.431 27.2039C189.382 26.5785 187.165 26.3022 185.014 26.244C180.625 26.1276 176.22 26.1713 171.831 26.324C167.674 26.4694 163.669 27.3857 160.079 29.6254C156.438 31.8942 154.171 35.1956 153.052 39.2897C152.855 40.0168 152.55 40.2641 151.802 40.2423C150.13 40.1914 148.459 40.1841 146.794 40.2423C145.966 40.2713 145.653 40.0096 145.61 39.1806C145.45 36.5554 144.752 34.0903 143.132 31.9596C140.951 29.0873 137.892 27.6329 134.483 26.9712C132.027 26.4912 129.498 26.2004 126.998 26.164C120.115 26.0549 113.233 26.1276 106.351 26.1276H105.261C105.217 26.0476 105.173 25.9604 105.13 25.8804C106.576 24.5715 107.971 23.2044 109.469 21.9609C120.13 13.1329 132.354 7.51175 145.755 4.32669C152.47 2.72689 159.287 1.87609 166.191 2.11606C176.097 2.45056 185.566 4.48667 193.968 10.086C200.269 14.2891 204.455 19.9975 205.894 27.5456C206.119 28.7091 206.264 29.8872 206.446 31.0579V34.9411V34.9193Z" fill="var(--fill-0, #274F9C)"/>
<path id="Vector_4" d="M134.512 87.0001C133.706 87.0001 132.899 86.9856 132.092 86.9637C120.995 86.6001 111.86 84.0332 104.163 79.1174C96.7287 74.3617 92.1866 67.9188 90.6677 59.9489C89.3232 52.917 90.2752 45.8415 93.4874 38.9115C94.2651 37.239 95.188 35.661 96.0819 34.1339C96.438 33.5303 96.7941 32.9195 97.1357 32.3087C97.252 32.0396 97.4264 31.7924 97.659 31.5815C98.0514 31.2324 98.5529 31.0506 99.0543 31.0506C99.1125 31.0506 99.1706 31.0506 99.2288 31.0506C99.2288 31.0506 109.781 31.0361 111.7 31.0361C116.554 31.0361 120.254 31.0579 123.698 31.1016C126.489 31.1379 129.367 31.4288 132.245 31.9669C135.915 32.6505 138.321 35.1592 138.844 38.8533C138.88 39.1006 138.895 39.3551 138.917 39.6678L138.938 40.0604C138.982 40.6349 138.778 41.1948 138.393 41.6093C138.001 42.0311 137.456 42.2638 136.889 42.2638H135.624C133.837 42.2638 132.056 42.2638 130.268 42.2493C128.488 42.2493 126.707 42.2347 124.927 42.2347C121.947 42.2347 119.505 42.2565 117.259 42.2929C114.12 42.3511 111.409 42.5983 108.974 43.0419C104.854 43.7909 102.143 46.8232 101.736 51.15C101.591 52.6698 101.62 53.8187 101.823 54.7568C102.412 57.4619 104.563 59.1708 107.724 59.4399C109.839 59.6217 112.012 59.6508 113.865 59.6508H116.772C120.348 59.6362 124.047 59.6217 127.645 59.4253C131.591 59.2072 134.839 58.1528 137.565 56.2039C140.167 54.3423 141.86 51.6881 142.899 47.8558C143.466 45.7761 144.941 45.3325 146.082 45.3325H146.264C147.034 45.3616 147.805 45.3762 148.582 45.3762C149.44 45.3762 150.297 45.3616 151.155 45.3471C151.17 45.3471 151.242 45.3471 151.257 45.3471C152.172 45.3471 153.764 45.6743 154.171 47.8849C154.244 48.2631 154.309 48.6485 154.374 49.0339C154.614 50.4301 154.84 51.7535 155.312 52.8807C156.62 56.0076 159.265 57.9491 163.408 58.829C165.93 59.3599 168.691 59.6653 171.62 59.7235C174.004 59.7744 176.598 59.7962 179.767 59.7962C181.635 59.7962 183.503 59.7889 185.37 59.7816C187.245 59.7744 189.12 59.7671 190.995 59.7671H192.5C193.328 59.7671 194.077 60.2616 194.397 61.0251C194.716 61.7887 194.549 62.6686 193.975 63.2649L193.619 63.6357C193.401 63.8684 193.234 64.0357 193.059 64.1956C184.375 72.2165 174.048 78.1576 161.482 82.3534C152.143 85.473 143.313 86.9928 134.505 86.9928L134.512 87.0001Z" fill="var(--fill-0, white)"/>
<path id="Vector_5" d="M99.0249 33.1231C107.237 33.1231 115.449 33.0649 123.662 33.174C126.402 33.2104 129.163 33.5012 131.859 34.003C134.599 34.512 136.38 36.2573 136.794 39.1515C136.838 39.4496 136.838 39.755 136.874 40.2131C136.409 40.2131 136.009 40.2131 135.609 40.2131C129.476 40.2131 123.342 40.1332 117.208 40.2495C114.33 40.3004 111.416 40.5113 108.589 41.0276C103.531 41.9511 100.159 45.8125 99.6718 50.9682C99.5409 52.3716 99.5046 53.8478 99.7953 55.2077C100.58 58.8072 103.48 61.156 107.528 61.5051C109.999 61.7159 112.492 61.7305 114.977 61.7159C119.236 61.7014 123.495 61.7232 127.746 61.4905C131.692 61.2724 135.464 60.2398 138.749 57.891C142.041 55.5349 143.851 52.2044 144.876 48.4012C145.086 47.6159 145.399 47.3759 146.184 47.405C147.848 47.4632 149.527 47.4486 151.191 47.405C151.845 47.3904 152.019 47.6231 152.136 48.2558C152.477 50.081 152.695 51.9862 153.4 53.6733C155.152 57.8691 158.749 59.9489 162.972 60.8433C165.777 61.4396 168.691 61.7232 171.562 61.7814C178.03 61.9123 184.512 61.825 190.988 61.825C191.395 61.825 191.794 61.825 192.492 61.825C192.092 62.2395 191.882 62.4722 191.656 62.6758C182.725 70.9221 172.289 76.565 160.828 80.3973C151.525 83.5023 141.976 85.2112 132.15 84.8913C122.601 84.5786 113.451 82.5934 105.26 77.3649C98.6616 73.1473 94.1703 67.3662 92.6804 59.5489C91.365 52.6771 92.4261 46.067 95.3476 39.7696C96.4159 37.4644 97.804 35.3047 99.0467 33.0868L99.0177 33.1158L99.0249 33.1231Z" fill="var(--fill-0, #274F9C)"/>
<path id="Vector_6" d="M99.0542 33.0941C98.6835 33.0722 98.3056 33.0359 97.935 33.0359C87.1646 33.0359 76.4014 33.0359 65.631 33.0795C64.4464 33.0795 63.2473 33.2177 62.0917 33.4795C60.0786 33.9449 58.8795 35.8646 59.1847 37.908C59.3374 38.9406 59.9115 39.7187 60.8999 39.995C61.8374 40.2641 62.8257 40.4386 63.7996 40.4604C68.6034 40.5695 73.4072 40.5695 78.2038 40.7004C79.3738 40.7367 80.573 41.0058 81.6922 41.3767C85.6529 42.7147 87.6224 46.1761 86.8811 50.6192C86.6195 52.2117 86.2053 53.826 85.5367 55.2877C83.9378 58.7854 80.9145 60.4652 77.2517 60.9888C74.7299 61.3451 72.1717 61.5778 69.6281 61.5996C59.7153 61.6651 49.7951 61.6287 39.8823 61.6287H38.6323C38.814 61.236 38.9302 60.9306 39.0829 60.6397C39.955 58.9818 40.8852 57.3602 41.6846 55.6731C42.0989 54.8005 42.6367 54.575 43.5669 54.575C53.2472 54.6041 62.9202 54.6041 72.6005 54.5605C73.7488 54.5605 74.9189 54.4078 76.0308 54.1315C78.1384 53.6006 79.1994 51.8626 78.8724 49.7029C78.7125 48.634 78.0075 47.9286 77.0192 47.7686C75.413 47.5141 73.7851 47.3832 72.1572 47.3468C68.7488 47.2814 65.3403 47.3977 61.9391 47.2814C60.1877 47.2159 58.3998 46.9905 56.7211 46.5106C53.2254 45.5143 51.4521 43.2455 51.2196 39.6314C50.9797 35.821 52.0481 32.4323 54.8024 29.6836C56.8737 27.6256 59.5118 26.8694 62.2952 26.6076C64.6935 26.3822 67.1208 26.2876 69.5336 26.2804C80.7474 26.2513 91.9539 26.2658 103.168 26.2658H104.374C102.528 28.6292 100.777 30.8689 99.0179 33.1086L99.0469 33.0868L99.0542 33.0941Z" fill="var(--fill-0, #274F9C)"/>
<path id="Vector_7" d="M2.56373 72.682C2.40385 72.682 2.2367 72.6675 2.00414 72.6311L1.81518 72.602C1.14657 72.522 0.557907 72.1221 0.245405 71.5258C-0.074365 70.9295 -0.0816325 70.2241 0.223602 69.6206L1.03756 68.0062C1.9896 66.1301 2.8835 64.3485 3.85008 62.5523C4.47508 61.3816 5.83411 61.1343 6.58992 61.0907C7.50563 61.0398 8.4286 61.0107 9.35157 60.9744C10.9359 60.9235 12.433 60.8726 13.9228 60.7126C16.8371 60.4072 19.2862 58.9601 20.9941 56.5385C22.9854 53.7171 24.686 50.6993 26.0813 48.1178C29.5552 41.704 33.0145 35.1303 36.3576 28.782L37.6366 26.3459C38.3925 24.9134 39.5553 24.1862 41.0887 24.1862H41.2559C42.1207 24.2153 42.9855 24.2225 43.8504 24.2225C44.4027 24.2225 47.5277 24.208 47.5277 24.208C47.8039 24.208 48.08 24.2225 48.4143 24.2444L48.894 24.2734C49.5917 24.3098 50.2239 24.6952 50.5728 25.306C50.9216 25.9096 50.9362 26.6586 50.6164 27.2767L49.9042 28.6511C49.4027 29.6255 48.9303 30.549 48.4434 31.4726C47.2443 33.7559 46.0524 36.0393 44.8605 38.3226C41.5756 44.6127 38.1817 51.121 34.7587 57.4839C33.2907 60.2108 31.452 62.6832 30.013 64.5303C26.4447 69.1188 21.4883 71.7003 15.2746 72.2166C12.3094 72.4639 9.31523 72.522 6.4155 72.5802C5.15096 72.602 3.88642 72.6311 2.62914 72.6675C2.60734 72.6675 2.56373 72.6675 2.54193 72.6675L2.56373 72.682Z" fill="var(--fill-0, white)"/>
<path id="Vector_8" d="M2.06227 70.5585C3.27595 68.1588 4.43874 65.8246 5.66695 63.5339C5.79777 63.2867 6.34283 63.1776 6.7062 63.1558C9.18442 63.0176 11.6699 63.0322 14.1336 62.7777C17.7019 62.3995 20.638 60.6252 22.6729 57.7383C24.606 54.9968 26.2848 52.0663 27.8909 49.1139C31.8081 41.8784 35.6308 34.5921 39.4608 27.313C39.8532 26.564 40.3038 26.2295 41.1904 26.2585C43.298 26.324 45.4129 26.2804 47.5277 26.2804C47.8911 26.2804 48.2544 26.3167 48.7922 26.3458C48.0219 27.8365 47.3315 29.1891 46.6338 30.5344C42.0916 39.2097 37.6003 47.9068 32.9636 56.5312C31.6846 58.9091 30.0785 61.1488 28.4069 63.2867C25.0566 67.5843 20.4563 69.7441 15.122 70.1877C10.9577 70.5367 6.76434 70.5004 2.57827 70.6312C2.45472 70.6312 2.3239 70.6022 2.05501 70.5731L2.06227 70.5585Z" fill="var(--fill-0, #274F9C)"/>
<path id="Vector_9" d="M119.236 56.5893C116.569 56.5893 113.902 56.5674 111.242 56.5529C107.688 56.5238 106.155 54.3714 105.9 52.3643C105.53 49.412 107.136 46.7723 109.81 45.936C110.922 45.587 112.07 45.4052 113.117 45.3979C118.131 45.3688 123.146 45.3688 128.16 45.3688H135.602C135.893 45.3688 136.14 45.4125 136.344 45.4416L136.569 45.4779C137.143 45.5506 137.666 45.8706 137.993 46.3505C138.32 46.8305 138.437 47.4268 138.306 47.994C137.775 50.2482 136.671 52.1316 135.006 53.5933C132.913 55.4403 130.326 56.4511 127.535 56.5093C125.05 56.5602 122.332 56.5893 119.236 56.5893Z" fill="var(--fill-0, white)"/>
<path id="Vector_10" d="M136.3 47.5214C135.871 49.3539 135.006 50.8446 133.647 52.0445C131.888 53.5934 129.766 54.4006 127.492 54.4442C122.077 54.5605 116.663 54.5242 111.256 54.4878C109.279 54.4733 108.124 53.5498 107.942 52.1027C107.702 50.1611 108.654 48.4522 110.42 47.8995C111.285 47.6305 112.223 47.456 113.124 47.456C120.617 47.4196 128.109 47.4269 135.602 47.4269C135.798 47.4269 135.995 47.4778 136.3 47.5141V47.5214Z" fill="var(--fill-0, #274F9C)"/>
<path id="Vector_11" d="M162.201 42.2638C161.911 42.2638 161.678 42.2202 161.496 42.1766L161.293 42.1402C160.726 42.0384 160.224 41.7112 159.912 41.2239C159.599 40.7367 159.505 40.1477 159.65 39.5878C160.581 36.0464 162.768 33.574 165.98 32.4541C167.921 31.7778 169.956 31.3852 171.852 31.327C173.611 31.2761 175.486 31.247 177.761 31.247C179.302 31.247 180.842 31.2615 182.383 31.2688C183.386 31.2761 184.396 31.2834 185.399 31.2906C186.155 31.2906 186.947 31.3779 187.819 31.5597C190.007 32.0033 191.555 33.4867 191.86 35.4428C192.412 38.9915 190.646 40.6058 189.069 41.333C188.212 41.7257 186.896 42.1984 185.494 42.2129C179.316 42.2638 173.044 42.2638 166.976 42.2711C166.976 42.2711 162.201 42.2711 162.194 42.2711L162.201 42.2638Z" fill="var(--fill-0, white)"/>
<path id="Vector_12" d="M161.642 40.1113C162.383 37.2826 164.033 35.3192 166.656 34.403C168.328 33.8212 170.145 33.4431 171.918 33.3922C176.409 33.254 180.901 33.334 185.392 33.3558C186.068 33.3558 186.751 33.4503 187.412 33.5812C188.771 33.8576 189.658 34.6866 189.825 35.7555C190.109 37.5735 189.651 38.7879 188.205 39.4569C187.362 39.8423 186.388 40.1404 185.472 40.1477C177.71 40.2131 169.956 40.1986 162.194 40.2059C162.063 40.2059 161.933 40.1622 161.642 40.1113Z" fill="var(--fill-0, #274F9C)"/>
</g>
</svg>
