<svg width="251" height="60" viewBox="0 0 251 60" fill="none" xmlns="http://www.w3.org/2000/svg">
<path d="M3.3042 35.0429L6.74804 16.5472L21.6246 5.51392H42.3477L55.7627 13.3977L62.5503 34.1201L52.1787 44.371L50.0563 55.9459L14.5968 54.6018L11.9338 44.2707L3.3042 35.0429Z" fill="#FFBC00"/>
<path d="M44.0895 58.1726C42.4276 58.1726 40.7658 58.1726 39.1039 58.1726C37.4621 58.1726 35.9203 58.1726 34.3586 59.1756C32.937 60.0783 31.1951 59.8176 29.6133 58.8948C28.9326 58.4936 28.0916 58.2127 27.3107 58.2127C22.7657 58.1525 18.2206 58.1525 13.6755 58.2127C12.4942 58.2127 12.0337 57.8115 11.9136 56.6681C11.5332 53.3782 11.0927 50.0882 10.6121 46.7983C10.532 46.2968 10.1316 45.7351 9.73114 45.4342C7.04815 43.4081 4.30509 41.4622 1.6221 39.4161C1.08149 39.0149 0.54089 38.3128 0.440778 37.6909C-0.239981 33.097 -0.199936 28.4831 1.04145 24.0097C2.94357 17.0888 6.70777 11.3315 12.4141 6.87804C19.5621 1.28117 27.7713 -0.905416 36.6011 0.338332C48.8348 2.06353 57.5044 8.90414 62.3498 20.3587C64.7325 25.9756 65.153 31.8934 64.1518 37.8915C64.0717 38.4331 63.5712 39.0149 63.1107 39.3559C60.3876 41.4221 57.6246 43.4081 54.8815 45.4543C54.5011 45.7552 54.0606 46.2166 54.0005 46.6579C53.54 49.8876 53.0995 53.1374 52.7992 56.3872C52.679 57.7313 52.2386 58.2729 50.837 58.1927C48.5945 58.0924 46.352 58.1726 44.0895 58.1726ZM36.3809 37.9517L35.9003 37.8714C36.1206 36.5073 36.3008 35.1432 36.5611 33.7791C38.2229 25.4941 39.9248 17.2092 41.6267 8.9242C41.7869 8.14185 41.6267 7.51997 40.8258 7.29931C39.2441 6.87804 37.6423 6.39659 36.0205 6.1358C34.1584 5.83489 33.8781 6.1358 33.798 8.00142C33.4776 16.8481 33.1773 25.7148 32.8569 34.5615C32.8369 35.1432 32.6968 35.7049 32.6167 36.2867C32.4965 36.2867 32.3764 36.2867 32.2563 36.2666C32.0961 34.9627 31.8358 33.6788 31.7958 32.3749C31.4754 24.11 31.155 15.8451 30.9148 7.58015C30.8747 6.37653 30.3341 5.9352 29.313 6.09568C27.6311 6.35647 25.9693 6.69749 24.3074 7.0987C23.2662 7.35949 22.9459 8.02148 23.1861 9.20505C24.868 17.2894 26.4898 25.3938 28.0916 33.4983C28.3719 34.8624 28.5321 36.2465 28.7524 37.6307C28.5922 37.6508 28.432 37.6909 28.2518 37.7109C26.9704 33.2174 25.6689 28.7439 24.3875 24.2504C23.086 19.6967 21.7846 15.1229 20.5032 10.5692C20.2228 9.54608 19.7223 9.10475 18.7412 9.76674C17.3396 10.7096 15.918 11.6725 14.5565 12.6956C13.5955 13.4177 13.5554 14.2402 14.096 15.3837C17.5399 22.5653 20.9036 29.7871 24.2874 36.9888C24.7479 37.9517 25.1283 38.9547 25.5288 39.9377C25.3886 39.9978 25.2685 40.058 25.1283 40.1383C20.6233 32.3949 16.1183 24.6717 11.5332 16.7879C9.71112 18.1921 8.75005 19.9173 7.94915 21.7629C7.48864 22.8462 7.64882 23.6887 8.38964 24.5914C12.1538 29.1451 15.898 33.739 19.6222 38.3328C20.7835 39.7571 21.8647 41.2215 22.9859 42.6659C22.8858 42.7461 22.7857 42.8464 22.6856 42.9267C17.4598 37.6909 12.2339 32.4351 6.88797 27.0789C5.68663 29.5263 5.70665 31.7931 5.94692 33.9998C6.02701 34.8022 6.54759 35.7851 7.1883 36.2867C9.63103 38.2325 12.1939 40.0179 14.7567 41.8233C15.6978 42.4853 16.1984 43.2677 16.2584 44.4713C16.3786 46.4774 16.759 48.4433 16.9592 50.4493C17.0994 51.8736 17.68 52.4754 19.2017 52.3952C21.9848 52.2748 24.7679 52.2949 27.551 52.3952C28.5121 52.4353 29.5532 52.7964 30.3742 53.2979C31.9559 54.2608 32.6767 54.2608 34.2785 53.3782C35.2596 52.8365 36.4209 52.4554 37.5221 52.3952C40.3052 52.2548 43.0883 52.315 45.8714 52.3551C46.9927 52.3551 47.5934 51.994 47.7135 50.8305C47.9137 48.7843 48.2942 46.7582 48.4343 44.712C48.5144 43.3479 49.035 42.4452 50.1362 41.6829C52.619 39.9577 55.0617 38.1523 57.4844 36.3468C57.9449 36.0058 58.5256 35.5645 58.6057 35.083C59.1062 32.4752 59.1062 29.8673 57.7847 27.0588C52.4188 32.4351 47.2129 37.6508 41.9871 42.8865C41.887 42.8063 41.7869 42.7261 41.6868 42.6258C42.0472 42.1443 42.3876 41.6227 42.768 41.1613C47.233 35.6447 51.698 30.1682 56.1429 24.6315C56.5434 24.13 57.0239 23.3878 56.9238 22.8462C56.5233 20.4188 55.2019 18.493 53.1396 16.7678C48.6546 24.4911 44.2496 32.0338 39.8647 39.5966L39.4042 39.3559C39.8647 38.2726 40.3052 37.1693 40.8058 36.1061C44.0694 29.1652 47.3331 22.2243 50.6368 15.3034C51.1373 14.2803 51.1173 13.3977 50.1763 12.7156C48.8147 11.7126 47.4132 10.7296 46.0116 9.7868C45.1306 9.18499 44.57 9.30535 44.2496 10.4889C43.1484 14.501 41.9671 18.473 40.8258 22.465C39.3442 27.6205 37.8625 32.7761 36.4009 37.9316L36.3809 37.9517Z" fill="#E51717"/>
<path d="M134.51 39.1954C137.574 37.4702 140.317 37.1292 142.84 39.9176C143.26 39.5164 143.681 39.0751 144.161 38.714C145.503 37.6909 148.446 37.6107 149.827 38.5535C150.828 39.2356 151.289 40.2586 151.309 41.4222C151.349 44.1704 151.309 46.8987 151.329 49.6469C151.329 50.3691 151.069 50.6901 150.288 50.67C146.524 50.5697 147.164 51.2317 147.104 47.681C147.084 46.4373 147.104 45.1935 147.104 43.9498C147.064 42.4051 146.303 41.3419 145.202 41.2817C144.061 41.2216 143.1 42.1243 142.98 43.6288C142.84 45.5345 142.86 47.4403 142.88 49.346C142.88 50.3089 142.559 50.65 141.578 50.67C138.475 50.6901 138.475 50.7302 138.475 47.6409C138.475 46.2768 138.475 44.8926 138.475 43.5285C138.455 42.2045 137.514 41.0611 136.493 41.0611C135.491 41.0611 134.43 42.2045 134.41 43.4683C134.37 45.4142 134.35 47.3801 134.41 49.326C134.45 50.3691 134.11 50.6901 133.069 50.65C129.805 50.5296 130.185 51.2117 130.165 47.7412C130.165 44.9127 130.205 42.0842 130.125 39.2556C130.085 38.1724 130.466 37.8514 131.467 37.9517C132.007 38.0119 132.548 38.0119 133.089 37.9517C133.89 37.8715 134.49 38.0319 134.51 39.1553V39.1954Z" fill="#E51717"/>
<path d="M206.03 40.4592C206.03 37.4702 206.05 34.4812 206.03 31.4922C206.03 30.6095 206.251 30.2484 207.212 30.2284C210.275 30.2083 210.275 30.1682 210.275 33.1973C210.275 34.8222 210.275 36.4271 210.275 38.052C210.275 38.9146 210.495 39.2155 211.376 38.5936C213.038 37.41 215 37.6106 216.742 38.1322C218.484 38.6538 219.245 40.2787 219.305 42.044C219.385 44.5716 219.305 47.1193 219.345 49.6469C219.345 50.4092 219.065 50.6299 218.324 50.6299C214.82 50.7101 214.82 50.7302 214.82 47.2597C214.82 45.9758 214.82 44.692 214.82 43.388C214.8 42.1042 214.199 41.4021 213.038 41.2416C211.897 41.0811 210.976 41.6027 210.635 42.6859C210.455 43.2677 210.315 43.8896 210.295 44.4914C210.255 45.8555 210.295 47.2396 210.295 48.6038C210.295 48.8445 210.295 49.1053 210.295 49.346C210.295 51.5125 208.673 50.3691 207.752 50.5496C206.931 50.7101 206.01 50.8305 206.05 49.3661C206.13 46.3771 206.07 43.388 206.07 40.399L206.03 40.4592Z" fill="#E51717"/>
<path d="M82.0717 41.3619C82.0717 38.6939 82.1117 36.0459 82.0717 33.3779C82.0517 32.3949 82.372 32.0539 83.3531 32.074C85.916 32.1141 88.4988 32.1341 91.0617 32.074C92.183 32.0539 92.4833 32.4952 92.4633 33.5384C92.3632 36.2866 92.8437 35.9456 90.0005 35.9857C89.54 35.9857 89.0795 35.9857 88.639 35.9857C86.7569 35.9857 86.797 36.0058 86.7369 37.8313C86.6968 39.0149 87.0773 39.5164 88.2986 39.4361C89.2397 39.376 90.2007 39.4562 91.1618 39.4161C92.0428 39.376 92.4232 39.6167 92.4232 40.5996C92.4232 43.3078 92.4833 43.3078 89.7402 43.3078C89.3598 43.3078 88.9994 43.3078 88.619 43.3078C86.7569 43.3078 86.7969 43.3279 86.7569 45.1734C86.7169 46.2767 87.0773 46.7783 88.2386 46.698C89.1796 46.6178 90.1407 46.698 91.1018 46.698C91.302 46.698 91.5222 46.6579 91.7224 46.698C93.2642 47.1795 92.223 48.4433 92.4432 49.3259C92.5834 49.8676 92.6835 50.6499 91.6624 50.6499C88.7591 50.6499 85.8559 50.6499 82.9527 50.6499C82.0517 50.6499 82.1317 50.0481 82.1317 49.4463C82.1317 46.7381 82.1317 44.05 82.1317 41.3419L82.0717 41.3619Z" fill="#E51717"/>
<path d="M163.102 49.6469C161.581 51.2116 159.699 51.0311 157.856 50.7703C155.654 50.4493 153.652 48.1424 153.311 45.9357C152.871 43.1874 153.391 40.8002 155.574 38.9346C157.436 37.3499 160.319 37.1492 162.402 38.4331C162.882 38.714 163.162 38.4732 163.623 38.3529C164.844 38.0319 166.186 38.1322 167.467 38.1322C167.567 38.1322 167.727 38.6939 167.747 38.9948C167.747 42.5254 167.747 46.036 167.747 49.5667C167.747 50.349 167.507 50.7302 166.666 50.67C166.086 50.6299 165.505 50.7302 164.924 50.6499C164.324 50.5496 163.743 50.2888 163.162 50.1083C163.142 49.9478 163.102 49.8074 163.082 49.6469H163.102ZM157.836 44.3309C157.836 46.016 159.078 47.2597 160.7 47.2196C162.241 47.1795 163.603 45.7752 163.603 44.2506C163.603 42.706 162.241 41.4823 160.579 41.4823C158.978 41.4823 157.836 42.6659 157.856 44.3309H157.836Z" fill="#E51717"/>
<path d="M194.778 37.8513C194.778 40.6197 194.778 43.047 194.778 45.4944C194.778 46.8585 194.738 48.2427 194.778 49.6068C194.798 50.4292 194.477 50.7703 193.677 50.6499C192.555 50.4694 191.274 51.1715 190.293 50.0682C190.193 49.9679 189.752 50.0682 189.512 50.1885C184.807 52.4754 180.862 49.3259 180.302 45.4141C179.681 41.1212 182.704 37.5304 186.809 37.5504C188.15 37.5504 189.111 38.7942 190.593 38.3127C191.835 37.9115 193.236 37.9918 194.778 37.8513ZM187.63 47.2396C189.172 47.2597 190.653 45.8956 190.693 44.3911C190.733 42.9066 189.432 41.5425 187.89 41.5023C186.168 41.4622 184.847 42.6057 184.767 44.1904C184.707 45.6749 186.148 47.2196 187.63 47.2396Z" fill="#E51717"/>
<path d="M228.135 37.4501C231.339 37.7711 234.022 38.4532 235.423 41.5023C237.305 45.6147 234.722 50.1484 230.498 50.8706C228.095 51.2918 225.913 51.0712 223.85 49.8676C221.147 48.2828 220.547 45.695 220.987 42.8665C221.367 40.3589 223.129 38.8343 225.472 38.0319C226.393 37.7109 227.414 37.6106 228.135 37.4501ZM231.218 44.2907C231.439 42.5655 229.917 41.402 228.535 41.3218C226.974 41.2416 225.472 42.706 225.472 44.2907C225.472 45.9156 226.834 47.2196 228.515 47.1995C230.097 47.1795 231.218 45.9758 231.198 44.2907H231.218Z" fill="#E51717"/>
<path d="M120.254 44.2907C120.355 48.0019 117.571 50.349 114.588 50.9107C112.165 51.3721 110.063 50.9508 107.961 49.8074C104.317 47.8214 104.016 41.3419 107.941 38.8744C111.264 36.8082 116.11 37.2094 118.653 39.9777C119.774 41.2014 120.214 42.6658 120.254 44.2907ZM115.469 44.2707C115.709 42.4853 114.048 41.3619 112.666 41.3419C111.144 41.3218 109.763 42.7662 109.763 44.2907C109.763 45.9357 111.004 47.2196 112.626 47.2396C114.408 47.2396 115.489 46.1363 115.489 44.2907L115.469 44.2707Z" fill="#E51717"/>
<path d="M242.391 39.0951C243.832 37.8113 245.514 37.731 247.276 37.9116C249.339 38.1322 250.88 39.5766 250.96 41.723C251.04 44.371 250.96 47.0391 251 49.687C251 50.3691 250.74 50.6098 250.059 50.6499C246.575 50.8505 246.575 50.8706 246.575 47.4202C246.575 46.0561 246.575 44.6719 246.575 43.3078C246.575 42.1042 245.895 41.4623 244.773 41.3018C243.692 41.1614 242.771 41.4823 242.371 42.5856C242.151 43.2276 242.01 43.9498 241.99 44.6519C241.93 46.3169 241.95 47.9819 241.99 49.6269C241.99 50.3691 241.71 50.7302 240.949 50.6299C240.909 50.6299 240.869 50.6299 240.829 50.6299C237.265 50.5496 237.826 51.2116 237.786 47.6609C237.766 44.8324 237.806 42.0039 237.766 39.1954C237.766 38.2927 238.026 37.8714 238.967 37.9717C239.468 38.0319 239.968 37.9116 240.449 37.9918C241.109 38.1122 241.73 38.3729 242.371 38.5736C242.391 38.734 242.411 38.9146 242.431 39.0751L242.391 39.0951Z" fill="#E51717"/>
<path d="M196.439 41.4823V38.1322C198.081 38.2726 197.941 37.1693 197.921 36.1061C197.901 34.3608 197.921 34.3608 199.663 34.3608C200.524 34.3608 201.385 34.3608 202.406 34.3608C202.406 35.2836 202.446 36.066 202.406 36.8283C202.346 37.6508 202.606 38.052 203.507 38.0118C203.968 38.0118 204.849 38.2124 204.869 38.393C204.969 39.3559 204.889 40.3589 204.789 41.3419C204.789 41.4422 204.188 41.5826 203.908 41.5425C202.666 41.382 202.346 41.9838 202.386 43.1273C202.466 45.2336 202.386 47.36 202.426 49.4664C202.426 50.2688 202.246 50.6499 201.325 50.6499C197.901 50.7101 197.921 50.7302 197.921 47.3199C197.921 45.9558 197.881 44.5716 197.921 43.2075C197.961 42.1644 197.841 41.3619 196.439 41.4422V41.4823Z" fill="#E51717"/>
<path d="M103.836 41.5625C100.092 41.2616 98.51 42.1242 98.51 44.3108C98.51 46.5977 100.012 47.4402 103.796 47.1594C103.796 48.1022 103.856 49.025 103.756 49.9478C103.736 50.2286 103.335 50.6499 103.075 50.69C100.032 51.1715 97.0684 51.2116 94.966 47.9818C92.4432 44.0901 94.6457 38.6939 99.0306 37.9516C100.172 37.751 101.373 37.8714 102.534 37.8714C103.636 37.8714 103.916 38.5334 103.856 39.4963C103.816 40.1382 103.856 40.8002 103.856 41.5424L103.836 41.5625Z" fill="#E51717"/>
<path d="M83.3732 23.809C84.1741 24.2102 84.8749 24.6315 85.6357 24.9324C86.5568 25.2935 87.4578 25.0728 87.8582 24.1701C88.2987 23.1671 87.4978 22.6857 86.6569 22.4048C86.2364 22.2644 85.7959 22.124 85.3554 22.0237C83.7536 21.6224 82.8526 20.7799 82.6925 19.4559C82.4322 17.4098 83.133 15.6444 84.5545 14.9423C86.4767 13.9794 88.4188 14.3405 90.3009 15.0627C90.5212 15.1429 90.7014 15.825 90.6013 16.1459C90.4211 16.7277 90.0006 17.2292 89.6602 17.811C89.1397 17.5702 88.599 17.149 88.0985 17.1891C87.4378 17.2292 86.5568 17.4499 86.2364 17.9313C85.6958 18.7137 86.5968 19.0547 87.1775 19.3155C87.698 19.5562 88.2787 19.6365 88.8193 19.8571C90.9817 20.6997 91.4622 21.482 91.3822 23.789C91.3221 25.7549 90.4411 27.0187 88.579 27.5202C86.9572 27.9415 83.9939 28.0217 82.1719 26.3367C82.5723 25.5342 82.9928 24.6917 83.4133 23.8692L83.3732 23.809Z" fill="#E51717"/>
<path d="M95.9072 19.1952C97.1285 18.9544 98.0696 18.6535 99.0307 18.6335C100.753 18.5933 102.014 19.8772 102.054 21.6024C102.114 23.2674 102.054 24.9324 102.074 26.5774C102.074 27.3196 101.834 27.6607 101.073 27.5804C100.713 27.5403 100.332 27.5403 99.9517 27.5804C99.2309 27.6406 99.0106 27.2795 99.0106 26.6175C99.0306 25.3738 99.0106 24.13 99.0106 22.8863C99.0106 21.8632 98.6502 21.0608 97.4889 21.0006C96.5078 20.9404 95.9272 21.6626 95.9072 22.9264C95.9072 24.4109 95.9072 25.8953 95.9072 27.2996C95.7069 27.44 95.6469 27.5202 95.5868 27.5202C93.7714 27.7075 92.8638 26.8917 92.8638 25.0729C92.8638 21.7027 92.8638 18.3526 92.8638 14.9825C92.8638 14.501 92.8638 13.9995 92.8638 13.4378H95.9072V19.1952Z" fill="#E51717"/>
<path d="M174.555 39.075C175.996 38.6538 177.218 38.2325 178.459 37.9316C179.18 37.751 179.52 38.1723 179.48 38.9145C179.44 39.8574 179.48 40.8203 179.48 41.9035C179.06 41.7631 178.8 41.6829 178.539 41.6227C176.397 41.1011 174.575 42.6057 174.495 44.9728C174.455 46.4171 174.455 47.8816 174.495 49.3259C174.515 50.2487 174.234 50.6499 173.233 50.6499C170.21 50.6499 170.21 50.69 170.21 47.6408C170.21 44.8123 170.25 41.9838 170.21 39.1553C170.21 38.2325 170.49 37.8513 171.411 37.9516C171.912 38.0118 172.412 37.9516 172.913 37.9516C173.774 37.9516 174.855 37.6708 174.575 39.0349L174.555 39.075Z" fill="#E51717"/>
<path d="M112.265 24.8121C112.265 26.1562 111.585 27.1792 110.063 27.4801C108.762 27.7209 107.3 27.761 106.019 27.42C103.896 26.8382 102.955 24.9124 103.175 22.3848C103.336 20.459 104.677 19.0347 106.719 18.6134C109.603 18.0116 111.905 19.3356 112.566 21.9635C112.886 23.2273 112.646 23.5483 111.364 23.5684C110.043 23.5684 108.722 23.5483 107.4 23.5884C107.04 23.5884 106.679 23.8492 106.319 23.9896C106.499 24.3908 106.579 24.8723 106.859 25.1531C107.5 25.8151 108.381 25.9756 109.102 25.3738C110.103 24.5313 111.164 24.8121 112.265 24.8121ZM107.961 22.1441C108.581 21.8432 109.042 21.6225 109.522 21.3818C109.062 21.0809 108.601 20.5192 108.121 20.5192C107.64 20.5192 107.14 21.0207 106.639 21.3015C107.06 21.5623 107.48 21.8231 107.961 22.1441Z" fill="#E51717"/>
<path d="M114.047 13.4177H116.83V27.5202H114.047V13.4177Z" fill="#E51717"/>
<path d="M118.592 13.3976H121.416C121.456 13.7788 121.516 14.1198 121.536 14.4809C121.536 18.4328 121.476 22.3847 121.576 26.3166C121.616 27.7409 120.795 27.5403 119.914 27.5804C118.993 27.6205 118.472 27.5001 118.492 26.3366C118.552 22.4248 118.512 18.5331 118.532 14.6213C118.532 14.2602 118.572 13.8791 118.592 13.3976Z" fill="#E51717"/>
<path d="M125.06 42.3048C125.84 42.3048 126.641 42.3048 127.422 42.3048C128.163 42.3048 128.483 42.6458 128.463 43.368C128.463 43.4884 128.463 43.6087 128.463 43.7491C128.49 45.2202 127.783 45.9558 126.341 45.9558C125.1 45.9558 123.858 45.9357 122.617 45.9558C121.876 45.9759 121.596 45.6749 121.556 44.9327C121.396 42.2847 121.376 42.2847 123.958 42.2847C124.339 42.2847 124.699 42.2847 125.08 42.2847L125.06 42.3048Z" fill="#E51717"/>
</svg>
